<?xml version="1.0" standalone="no"?>
<!DOCTYPE svg PUBLIC "-//W3C//DTD SVG 20010904//EN"
 "http://www.w3.org/TR/2001/REC-SVG-20010904/DTD/svg10.dtd">
<svg version="1.0" xmlns="http://www.w3.org/2000/svg"
 width="700.000000pt" height="700.000000pt" viewBox="0 0 700.000000 700.000000"
 preserveAspectRatio="xMidYMid meet">
<metadata>
Created by potrace 1.11, written by Peter Selinger 2001-2013
</metadata>
<g transform="translate(0.000000,700.000000) scale(0.100000,-0.100000)"
fill="#000000" stroke="none">
<path d="M3291 6211 c-12 -8 -12 -24 3 -113 22 -128 33 -352 19 -361 -6 -4
-15 -1 -21 6 -12 15 -58 213 -67 287 -8 72 -34 163 -48 172 -16 10 -79 10 -96
-1 -11 -7 -11 -16 3 -52 9 -24 25 -96 36 -159 10 -63 28 -142 40 -174 26 -78
26 -94 -5 -102 -40 -10 -51 0 -64 62 -20 89 -78 248 -122 336 l-39 78 -55 0
c-38 0 -57 -4 -61 -14 -3 -8 17 -58 44 -112 54 -107 119 -288 124 -344 3 -31
0 -35 -31 -44 -30 -9 -36 -7 -56 16 -13 15 -53 84 -90 155 -38 70 -95 167
-127 216 l-59 87 -48 0 c-62 0 -81 -7 -81 -30 0 -30 135 -288 183 -348 56 -72
87 -123 87 -144 0 -9 -13 -20 -29 -26 -25 -9 -32 -7 -53 16 -14 15 -49 72 -77
127 -29 55 -62 110 -73 122 -11 11 -45 70 -76 130 l-57 108 -45 3 c-27 2 -53
-3 -64 -11 -18 -13 -19 -19 -8 -53 6 -22 70 -140 142 -264 72 -124 133 -235
136 -248 8 -31 -8 -47 -32 -34 -35 18 -299 306 -361 392 -103 143 -135 162
-216 131 -23 -9 -27 -15 -22 -34 23 -75 144 -217 354 -415 74 -70 134 -134
137 -148 8 -31 -28 -74 -62 -74 -32 0 -297 273 -414 425 -29 39 -78 96 -109
128 -45 46 -61 57 -88 57 -39 0 -83 -19 -83 -36 0 -7 41 -60 90 -118 96 -112
173 -216 165 -224 -4 -4 -20 7 -227 159 -128 95 -190 129 -238 129 -44 0 -122
-22 -156 -45 -24 -16 -25 -18 -9 -35 9 -10 53 -33 98 -51 111 -45 139 -61 237
-144 47 -39 153 -125 235 -190 83 -66 176 -144 208 -174 52 -50 57 -58 51 -85
-10 -45 -33 -76 -58 -76 -31 0 -173 83 -265 156 -64 50 -94 84 -145 161 -75
113 -98 134 -227 198 -64 33 -115 68 -162 111 -59 56 -72 64 -106 64 -64 0
-149 -38 -136 -61 3 -4 72 -54 153 -110 207 -145 302 -218 302 -233 0 -34 -64
-24 -160 24 -60 30 -118 87 -165 162 -24 38 -41 52 -84 70 -30 12 -70 35 -88
51 l-34 30 -82 -28 c-97 -32 -217 -93 -217 -109 0 -6 19 -18 43 -26 30 -11 42
-20 42 -35 0 -25 -68 -65 -112 -65 -32 0 -33 1 -33 44 0 58 -14 62 -108 30
-226 -76 -304 -176 -367 -472 -65 -309 -74 -1008 -19 -1412 23 -172 45 -196
102 -115 31 44 62 59 62 31 0 -7 -8 -24 -18 -37 -10 -13 -23 -36 -29 -50 -6
-15 -25 -42 -42 -62 -30 -33 -31 -36 -21 -88 6 -29 14 -57 19 -62 5 -5 25 2
47 16 22 14 69 35 106 47 37 12 124 55 193 96 133 79 212 114 317 138 114 26
267 38 399 31 146 -8 180 1 225 60 21 28 28 48 28 83 1 44 -1 47 -27 50 -15 2
-49 -3 -75 -12 -29 -9 -107 -16 -207 -20 -252 -8 -368 -40 -633 -173 -94 -47
-175 -83 -178 -80 -11 11 17 65 50 98 64 63 383 232 526 279 220 71 331 88
626 97 217 6 222 6 249 -15 36 -28 94 -29 290 -2 178 24 248 25 327 4 66 -17
132 -53 147 -81 5 -10 15 -70 22 -133 l12 -115 -32 -75 c-17 -41 -35 -82 -40
-90 -4 -8 -44 -24 -87 -36 -44 -12 -94 -29 -112 -38 -19 -10 -63 -23 -98 -31
-64 -13 -86 -25 -111 -55 -14 -18 -17 -148 -4 -182 5 -13 48 -70 95 -127 59
-72 86 -113 86 -131 0 -27 -49 -102 -155 -240 -88 -113 -194 -331 -286 -585
-76 -213 -98 -264 -123 -284 -13 -11 -19 -10 -34 9 -22 27 -65 30 -91 6 -28
-25 -60 -107 -76 -190 -23 -121 -37 -284 -26 -305 22 -41 347 -241 392 -241
12 0 19 12 23 43 8 51 45 126 69 141 15 9 22 6 39 -14 17 -22 19 -34 14 -100
-13 -162 -14 -153 18 -168 15 -8 45 -16 66 -19 43 -6 43 -6 56 117 3 35 19
104 35 153 21 66 32 131 44 260 19 204 44 334 86 454 64 181 244 507 329 595
41 43 51 48 89 48 49 0 156 -44 166 -68 3 -9 -30 -70 -87 -158 -181 -279 -211
-333 -235 -427 -25 -95 -45 -138 -135 -295 -72 -125 -94 -182 -148 -382 -45
-165 -57 -195 -102 -252 -17 -20 -28 -44 -26 -54 4 -25 58 -54 104 -57 l38 -2
8 57 c8 62 34 122 66 151 20 18 21 18 31 -2 16 -28 14 -57 -10 -146 -11 -43
-18 -84 -15 -91 5 -13 94 -44 127 -44 14 0 19 13 24 65 11 104 37 84 61 -48 7
-41 30 -57 80 -57 33 0 54 50 54 129 0 78 -12 106 -66 162 l-45 46 -10 102
c-12 134 -27 168 -79 188 -34 14 -40 20 -40 46 0 33 124 297 158 337 18 21 23
23 32 10 14 -21 12 -128 -5 -245 -31 -212 -16 -353 54 -504 27 -58 56 -131 66
-161 22 -71 60 -137 83 -144 60 -18 310 -41 341 -31 30 9 32 28 11 127 -25
119 -25 239 0 352 24 107 25 147 5 185 -16 32 -33 41 -74 41 -68 0 -114 -95
-146 -299 -24 -155 -35 -192 -54 -189 -26 5 -24 48 10 143 29 82 32 105 39
260 7 170 7 170 49 275 24 58 56 139 73 180 56 140 109 370 127 558 5 52 13
98 19 104 20 20 50 -1 56 -40 16 -99 27 -247 32 -447 5 -184 3 -254 -15 -430
-29 -288 -36 -468 -22 -600 16 -150 35 -213 67 -225 38 -15 169 -12 294 5 141
20 181 33 197 65 19 37 17 203 -2 241 -9 16 -20 53 -25 81 -7 37 -18 59 -37
74 -25 20 -26 24 -20 85 4 35 22 116 40 179 19 63 45 163 57 222 25 121 39
149 63 130 51 -42 73 -291 57 -623 -5 -114 -7 -221 -4 -238 8 -41 45 -67 72
-52 28 15 32 65 32 390 0 310 -10 425 -59 716 -36 211 -44 312 -33 439 11 113
19 126 88 126 58 0 84 -24 149 -140 137 -241 235 -528 280 -817 8 -54 18 -174
21 -268 6 -188 29 -323 67 -390 21 -36 27 -40 58 -37 47 3 85 33 81 62 -3 17
6 32 32 54 45 40 132 214 152 304 20 95 29 411 15 565 -18 210 -69 396 -185
681 -45 110 -48 136 -16 136 62 0 266 -342 383 -640 87 -222 204 -606 241
-791 8 -36 27 -41 67 -20 55 29 57 51 20 228 -59 283 -150 552 -271 799 -132
268 -231 402 -423 570 -58 50 -58 51 -55 100 3 42 6 49 26 52 56 8 400 -225
542 -368 113 -113 263 -349 434 -680 50 -96 105 -211 122 -255 18 -43 36 -81
41 -82 13 -5 138 129 174 185 27 43 29 52 29 149 0 178 -42 324 -157 542 -95
183 -164 273 -344 451 -171 170 -234 241 -263 298 l-17 32 28 0 c16 0 77 -27
138 -61 61 -34 165 -88 232 -119 161 -77 164 -81 157 -172 -7 -87 12 -147 98
-305 102 -188 188 -407 219 -560 7 -36 18 -63 25 -63 23 0 114 130 114 162 0
10 -14 33 -30 52 -38 43 -102 180 -98 209 3 23 2 23 137 49 75 15 101 41 102
103 2 100 -19 333 -34 373 -9 24 -24 84 -32 134 -9 50 -25 109 -37 132 -46 91
-253 318 -386 424 -23 18 -42 40 -42 48 0 37 98 41 209 8 75 -22 101 -51 101
-112 0 -72 21 -122 109 -257 85 -129 104 -175 151 -375 53 -219 61 -246 84
-275 30 -37 47 -29 79 38 62 131 190 604 222 817 47 321 43 662 -14 1060 -78
540 -163 815 -281 902 -52 38 -475 203 -587 229 -77 18 -87 6 -79 -91 8 -96
-6 -145 -53 -188 -82 -75 -529 -276 -576 -258 -8 3 -15 18 -15 33 0 77 176
263 438 461 62 48 111 91 109 97 -4 15 -89 55 -131 62 -34 5 -41 2 -83 -38
-25 -24 -117 -125 -206 -224 -329 -369 -513 -535 -595 -535 -35 0 -82 73 -82
128 0 15 19 56 42 92 87 134 300 318 595 514 84 56 153 107 153 113 0 20 -78
54 -136 60 -52 6 -55 4 -97 -34 -66 -61 -96 -78 -110 -64 -11 11 -5 37 30 127
5 15 -68 46 -112 48 -36 1 -36 0 -64 -72 -70 -177 -225 -407 -365 -539 -94
-90 -109 -92 -177 -22 -27 28 -49 57 -49 65 0 26 75 127 275 371 106 131 192
240 189 244 -7 12 -96 39 -149 45 l-51 6 -44 -73 c-73 -125 -162 -260 -168
-255 -3 3 21 80 53 171 31 91 55 172 52 179 -7 19 -114 43 -128 29 -5 -5 -21
-59 -34 -119 -49 -220 -95 -339 -157 -410 -28 -32 -36 -35 -67 -30 -44 7 -140
55 -151 75 -12 24 37 160 100 276 134 250 127 234 106 251 -32 23 -93 18 -109
-8 -20 -33 -201 -355 -229 -408 -31 -60 -58 -66 -58 -13 1 130 27 217 98 328
35 54 54 108 45 130 -5 15 -59 29 -88 23 -22 -4 -139 -226 -175 -333 -46 -133
-59 -155 -94 -155 -60 0 -61 5 -48 147 7 70 24 177 37 237 19 82 22 112 14
122 -13 15 -86 19 -107 5 -18 -11 -31 -73 -32 -149 0 -88 -19 -245 -34 -290
-14 -39 -37 -52 -61 -32 -16 13 -32 107 -40 240 -10 143 -22 213 -42 228 -20
14 -52 16 -72 3z m-2417 -877 c33 -8 142 -42 241 -74 99 -32 244 -75 323 -95
221 -55 355 -116 440 -198 47 -46 61 -79 42 -102 -17 -20 -46 -19 -78 4 -91
64 -251 127 -672 265 -195 64 -373 127 -394 139 -107 61 -48 98 98 61z m5477
-164 c63 -19 135 -57 127 -65 -3 -3 -72 -14 -156 -25 -279 -37 -415 -69 -631
-147 -187 -67 -311 -129 -461 -230 -175 -118 -174 -117 -193 -95 -25 28 -49
93 -43 117 9 34 125 144 196 183 58 33 318 129 575 213 206 68 459 89 586 49z
m-5419 -76 c238 -64 415 -131 588 -221 167 -87 225 -121 217 -130 -3 -2 -54
19 -114 47 -235 112 -293 127 -583 155 -208 20 -229 26 -274 75 -29 32 -36 48
-36 80 l0 41 38 -6 c20 -4 94 -22 164 -41z m-439 -25 c5 -9 7 -28 3 -44 l-7
-28 -85 7 c-106 9 -134 19 -134 47 0 20 4 21 58 15 41 -4 64 -2 82 9 31 18 70
15 83 -6z m5784 -164 c20 -8 70 -48 112 -88 71 -67 103 -87 234 -147 59 -28
99 -73 95 -109 -6 -50 -43 -42 -413 94 -127 47 -242 55 -420 31 -155 -22 -248
-47 -419 -113 -156 -60 -226 -76 -226 -50 0 24 57 66 182 133 235 128 493 221
683 249 121 17 130 17 172 0z m-5954 -20 c25 -5 27 -8 16 -21 -17 -21 -104
-64 -129 -64 -31 0 -26 46 9 81 25 24 34 28 53 20 13 -5 36 -12 51 -16z m3686
-79 c25 -19 80 -146 97 -224 28 -125 8 -218 -85 -408 -88 -177 -154 -242 -182
-180 -9 19 -5 35 26 94 22 44 40 95 45 134 14 97 12 279 -5 358 -17 79 -21
174 -10 209 11 37 76 47 114 17z m-2796 -14 c178 -48 477 -169 533 -215 42
-35 46 -74 9 -83 -44 -11 -82 3 -167 62 -145 99 -250 136 -496 174 -209 32
-393 27 -670 -21 -133 -23 -159 -19 -119 19 68 64 261 92 597 88 202 -3 246
-6 313 -24z m-49 -218 c19 -7 21 -28 3 -42 -7 -6 -71 -18 -142 -27 -72 -9
-164 -20 -205 -25 -52 -6 -108 -23 -180 -54 -158 -68 -203 -59 -159 31 23 48
71 91 121 110 35 12 532 19 562 7z m5043 -30 c16 -17 22 -29 16 -35 -13 -13
-107 -1 -130 16 -15 11 -14 14 13 28 42 23 71 21 101 -9z m-162 -165 c58 -18
108 -23 290 -28 202 -7 224 -9 264 -30 43 -22 155 -120 147 -128 -2 -2 -44 1
-95 8 -80 10 -94 10 -116 -5 -23 -15 -25 -22 -25 -91 l0 -76 -32 17 c-18 9
-82 48 -143 87 -60 38 -135 78 -165 89 -70 24 -273 65 -366 74 -87 8 -100 14
-85 41 30 57 203 79 326 42z m-4649 -4 c85 -14 254 -65 320 -97 28 -13 29 -16
29 -84 0 -97 -7 -104 -109 -104 -190 0 -581 -52 -703 -94 -121 -41 -472 -234
-554 -305 -41 -35 -49 -39 -49 -22 0 38 70 101 299 266 49 36 56 45 59 79 6
71 -53 106 -208 126 -47 6 -89 16 -95 22 -28 28 153 126 300 162 102 25 409
60 570 65 28 0 91 -6 141 -14z m4089 -50 c35 -15 37 -18 20 -25 -11 -4 -93
-13 -183 -20 -128 -9 -166 -9 -177 0 -17 14 -20 36 -5 45 46 29 278 29 345 0z
m330 -181 c292 -46 550 -169 658 -315 30 -40 67 -134 67 -169 0 -30 -28 -26
-218 26 -227 63 -270 72 -424 84 -171 13 -187 15 -348 55 -74 18 -181 40 -238
49 -56 9 -118 22 -136 30 -29 12 -34 19 -40 63 -6 45 5 137 17 149 8 9 200 34
317 43 127 9 212 5 345 -15z m901 -121 c3 -10 12 -33 20 -52 17 -39 6 -61 -31
-61 -18 0 -26 10 -40 52 -16 49 -16 53 1 65 25 18 44 16 50 -4z m-1431 -304
c129 -32 345 -108 415 -147 122 -67 288 -180 329 -223 62 -67 207 -258 238
-314 23 -43 28 -64 31 -145 2 -71 0 -91 -8 -78 -13 21 -156 133 -220 173 -59
37 -344 193 -496 271 -67 34 -161 75 -210 89 -199 60 -259 80 -278 96 -17 14
-19 27 -18 95 3 82 14 140 38 187 13 25 18 27 57 21 23 -3 78 -15 122 -25z
m1411 -4 c47 -47 83 -155 51 -155 -7 0 -30 18 -52 40 -33 34 -39 46 -40 90 -1
27 2 50 7 50 5 0 20 -11 34 -25z m-160 -211 c19 -9 64 -48 99 -86 56 -61 65
-76 65 -108 0 -43 -20 -65 -50 -55 -22 7 -40 42 -40 79 0 16 -15 31 -57 56
-65 38 -103 69 -103 83 0 14 31 47 43 47 5 0 24 -7 43 -16z m-1480 -299 c132
-50 228 -122 337 -254 38 -47 132 -149 207 -226 154 -157 196 -215 280 -383
70 -141 114 -261 131 -365 14 -83 7 -122 -24 -141 -29 -17 -76 46 -162 216
-113 224 -233 405 -379 572 -116 133 -208 207 -438 359 -105 68 -138 95 -138
111 0 43 74 136 107 136 7 0 43 -11 79 -25z m1116 -435 c48 -50 48 -50 48
-119 0 -63 3 -73 36 -121 44 -63 37 -77 -12 -24 -80 86 -183 267 -170 299 11
29 49 16 98 -35z m-3669 -86 c43 -22 67 -44 67 -62 0 -8 -49 -101 -110 -207
-210 -368 -276 -547 -315 -863 -4 -32 -13 -56 -21 -59 -8 -3 -42 7 -75 22 -41
18 -68 25 -88 20 -55 -12 -91 -74 -91 -158 0 -55 -15 -77 -52 -77 l-31 0 5 63
c10 113 214 686 328 922 91 186 186 315 284 387 45 32 56 34 99 12z m2142 -27
c8 -13 26 -59 39 -103 13 -43 53 -155 89 -249 35 -93 72 -200 81 -236 37 -148
47 -464 21 -624 -8 -49 -15 -130 -15 -180 -1 -94 -15 -144 -56 -200 -29 -39
-49 -28 -68 36 -15 48 -23 119 -57 469 -23 245 -69 392 -223 723 -55 117 -96
217 -94 230 3 22 112 112 173 142 46 23 92 19 110 -8z m-805 -251 c30 -10 35
-16 43 -56 18 -99 -13 -522 -54 -728 -46 -231 -134 -451 -248 -620 -90 -135
-96 -130 -95 78 1 91 9 219 18 285 40 309 48 412 45 615 -4 295 -1 393 14 414
25 34 187 41 277 12z m-661 -10 c15 -18 0 -109 -40 -244 -16 -53 -38 -137 -50
-187 -11 -49 -44 -182 -74 -295 -31 -116 -66 -281 -81 -379 -43 -280 -54 -307
-98 -231 -19 32 -21 51 -20 195 1 88 6 196 13 240 60 399 178 791 269 888 28
29 63 35 81 13z m551 -1502 c0 -32 -63 -154 -93 -182 -12 -11 -37 -23 -54 -27
-46 -9 -43 9 18 108 70 114 129 160 129 101z"/>
<path d="M1240 3384 c-36 -14 -121 -45 -188 -69 -83 -30 -152 -63 -209 -100
-47 -30 -89 -55 -93 -55 -21 0 -16 33 11 74 36 57 37 95 5 125 -22 21 -32 23
-100 19 -68 -3 -86 -9 -188 -60 -157 -80 -278 -156 -287 -181 -9 -25 7 -104
44 -208 37 -106 47 -119 87 -110 65 15 81 -18 23 -46 -22 -11 -35 -24 -35 -36
0 -22 29 -87 39 -87 3 0 28 26 56 58 75 87 269 257 370 323 171 112 277 156
440 184 138 23 196 58 198 119 2 76 -59 94 -173 50z"/>
<path d="M1343 2985 c-51 -22 -269 -203 -360 -298 -140 -146 -205 -244 -291
-441 l-52 -119 17 -35 c10 -20 23 -37 28 -39 6 -2 24 25 40 59 32 68 179 292
267 408 79 105 136 157 305 285 147 110 148 110 148 150 0 39 -1 40 -35 42
-19 2 -50 -4 -67 -12z"/>
<path d="M750 2879 c-19 -12 -91 -77 -160 -144 -100 -99 -132 -125 -162 -130
-45 -8 -49 -17 -33 -77 20 -79 37 -96 97 -100 46 -3 53 -6 56 -25 2 -12 -4
-33 -14 -48 -28 -42 6 -135 63 -172 33 -22 49 -5 69 78 22 87 78 204 156 324
77 120 102 177 94 220 -7 36 -38 69 -79 84 -39 15 -47 14 -87 -10z"/>
<path d="M1634 2682 c-30 -15 -71 -57 -164 -173 -68 -84 -159 -190 -202 -235
-88 -94 -95 -92 -83 21 8 73 1 90 -46 100 -71 16 -149 -38 -213 -147 -20 -35
-72 -103 -115 -152 -52 -59 -77 -95 -73 -105 9 -25 57 -94 81 -115 17 -16 25
-17 45 -8 23 10 24 10 19 -26 -5 -35 0 -42 61 -109 79 -85 98 -94 133 -61 33
30 48 67 63 148 14 85 24 110 79 200 89 146 216 309 275 352 49 35 66 36 66 2
0 -59 -188 -480 -230 -515 -11 -9 -41 -20 -67 -24 -26 -3 -58 -13 -70 -21 -30
-19 -63 -129 -63 -208 l0 -61 71 -67 c65 -62 181 -148 199 -148 4 0 7 75 6
168 -1 135 2 178 17 227 10 33 96 222 192 420 95 198 178 378 184 400 30 110
-61 185 -165 137z m-481 -589 c7 -13 -42 -83 -58 -83 -22 0 -25 14 -9 45 21
40 55 59 67 38z"/>
<path d="M5538 1786 c-8 -19 -8 -54 1 -138 23 -208 66 -368 101 -368 19 0 119
67 168 114 39 36 62 76 62 106 0 43 -40 100 -95 137 -42 27 -63 51 -86 93 -32
60 -59 80 -110 80 -22 0 -32 -6 -41 -24z"/>
<path d="M5152 1533 c-31 -12 -42 -61 -42 -182 0 -66 -5 -155 -12 -198 -7 -43
-12 -100 -13 -128 l0 -50 34 2 c41 2 112 33 199 86 65 41 86 75 64 106 -29 40
-45 79 -73 173 -52 175 -88 219 -157 191z"/>
<path d="M4342 1350 c-43 -18 -54 -67 -50 -239 l3 -156 -42 -91 c-71 -150 -58
-173 76 -132 33 10 33 11 27 54 -7 55 -1 71 35 89 39 21 65 19 90 -6 17 -17
20 -29 15 -60 -6 -36 -4 -39 17 -39 13 0 39 5 57 11 l33 12 -6 76 c-3 42 -15
112 -27 156 -22 83 -116 291 -141 312 -21 17 -61 23 -87 13z"/>
</g>
</svg>
