<?xml version="1.0" encoding="utf-8"?>
<!-- Generator: Adobe Illustrator 19.0.0, SVG Export Plug-In . SVG Version: 6.00 Build 0)  -->
<svg version="1.1" id="Layer_1" xmlns="http://www.w3.org/2000/svg" xmlns:xlink="http://www.w3.org/1999/xlink" x="0px" y="0px"
	 viewBox="-255 347 100 100" style="enable-background:new -255 347 100 100;" xml:space="preserve">
<style type="text/css">
	.st0{fill:#FFFFFF;}
	.st1{fill:#B5B5B5;}
	.st2{clip-path:url(#SVGID_2_);}
	.st3{fill:#E5E5E5;}
	.st4{fill:#C6C6C6;}
	.st5{fill:#CCCCCC;}
	.st6{fill:#DBDBDB;}
</style>
<g>
	<path class="st0" d="M-220.6,390.4c0.2,4.7-0.3,9.3-4.8,13.3c-4.5,4-8.5,5.5-13.9,5.5s-12.2-4-13.6-7.1s-1.7-11.7,0-16.7
		c1.7-5.1,5.8-9.8,13.4-9.3C-231.9,376.5-221.1,379.8-220.6,390.4z"/>
</g>
<g>
	<path class="st0" d="M-214.1,391.8h-2.5l0-1.3l0-3.1h2.5l0,0.1l0,0.4l-1.1,0l-0.9,0l0,1.5l0.8,0l0.7,0l0,0l0,0.4l-0.8,0l-0.8,0
		l0,0.7l0,0.9l0.9,0l1.1,0l0,0.1L-214.1,391.8z"/>
	<path class="st0" d="M-209.6,387.8c0.3,0.4,0.5,0.9,0.5,1.6c0,0.8-0.2,1.4-0.6,1.8c-0.4,0.4-0.9,0.6-1.6,0.6c-0.5,0-0.9,0-1.4,0h0
		l0-1.3l0-3.1h0l1.6,0C-210.4,387.3-209.9,387.5-209.6,387.8z M-210.1,390.9c0.3-0.3,0.4-0.8,0.4-1.4c0-1.2-0.5-1.8-1.4-1.8
		c-0.3,0-0.6,0-1,0l0,2.6l0,0.9c0.3,0,0.7,0,1,0C-210.7,391.3-210.3,391.2-210.1,390.9z"/>
	<path class="st0" d="M-204.4,390.1c0,0.5-0.1,1-0.4,1.3c-0.3,0.3-0.7,0.5-1.3,0.5c-0.5,0-0.9-0.1-1.2-0.4c-0.3-0.3-0.4-0.7-0.4-1.2
		l0-0.6l0-2.2h0.6l0,2.8c0,0.8,0.4,1.3,1.1,1.3c0.8,0,1.2-0.4,1.1-1.2l0-2.8h0.6l0,2.3L-204.4,390.1z"/>
	<path class="st0" d="M-199.8,387.6l-0.1,0.5l-0.1,0c-0.3-0.3-0.7-0.4-1.1-0.4c-0.4,0-0.8,0.2-1,0.5c-0.2,0.3-0.4,0.7-0.4,1.3
		c0,0.6,0.1,1,0.4,1.4c0.2,0.3,0.6,0.5,1,0.5c0.4,0,0.8-0.1,1.2-0.4l0.1,0l0,0.5c-0.4,0.2-0.8,0.3-1.2,0.3c-0.6,0-1.1-0.2-1.4-0.6
		c-0.3-0.4-0.5-0.9-0.5-1.7c0-0.7,0.2-1.3,0.5-1.7c0.3-0.4,0.8-0.6,1.5-0.6C-200.6,387.3-200.2,387.4-199.8,387.6z"/>
	<path class="st0" d="M-195.8,391.8l-0.1-0.4l-0.3-0.8l-1,0l-0.9,0l-0.3,0.7l-0.1,0.5h-0.6l1.6-4.5h0.6l1.5,4.5H-195.8z M-197,387.9
		L-197,387.9l-0.9,2.2l0.8,0l0.8,0L-197,387.9z"/>
	<path class="st0" d="M-190.8,387.8c0.3,0.4,0.5,0.9,0.5,1.6c0,0.8-0.2,1.4-0.6,1.8c-0.4,0.4-0.9,0.6-1.6,0.6c-0.5,0-0.9,0-1.4,0h0
		l0-1.3l0-3.1h0l1.6,0C-191.6,387.3-191.1,387.5-190.8,387.8z M-191.2,390.9c0.3-0.3,0.4-0.8,0.4-1.4c0-1.2-0.5-1.8-1.4-1.8
		c-0.3,0-0.6,0-1,0l0,2.6l0,0.9c0.3,0,0.7,0,1,0C-191.8,391.3-191.5,391.2-191.2,390.9z"/>
	<path class="st0" d="M-185.7,387.8c0.3,0.4,0.5,0.9,0.5,1.6c0,0.8-0.2,1.3-0.5,1.8c-0.3,0.4-0.8,0.6-1.5,0.6
		c-0.6,0-1.1-0.2-1.4-0.6c-0.3-0.4-0.5-0.9-0.5-1.7c0-0.7,0.2-1.3,0.5-1.7c0.3-0.4,0.8-0.6,1.5-0.6
		C-186.5,387.3-186,387.4-185.7,387.8z M-188.6,389.5c0,1.2,0.5,1.9,1.4,1.9c0.9,0,1.4-0.6,1.4-1.8c0-0.6-0.1-1.1-0.3-1.4
		c-0.2-0.3-0.6-0.4-1-0.4C-188.1,387.7-188.6,388.3-188.6,389.5z"/>
	<path class="st0" d="M-180.8,391.6L-180.8,391.6c-0.2,0.1-0.3,0.2-0.5,0.2l-0.1,0c-0.4-0.6-0.7-1.1-1-1.7h-0.8v0.3l0,1.4h-0.6
		l0-1.3l0-3.1l1.4,0c0.4,0,0.8,0.1,1,0.3c0.2,0.2,0.4,0.5,0.4,0.9c0,0.3-0.1,0.6-0.2,0.8c-0.2,0.2-0.4,0.4-0.7,0.6
		C-181.6,390.5-181.2,391-180.8,391.6z M-182.4,389.7c0.5-0.1,0.8-0.5,0.8-1c0-0.6-0.3-0.8-0.9-0.9l-0.7,0l0,1.9L-182.4,389.7z"/>
	<path class="st0" d="M-176.8,391.8h-2.5l0-1.3l0-3.1h2.5l0,0.1l0,0.4l-1.1,0l-0.9,0l0,1.5l0.8,0l0.7,0l0,0l0,0.4l-0.8,0l-0.8,0
		l0,0.7l0,0.9l0.9,0l1.1,0l0,0.1L-176.8,391.8z"/>
	<path class="st0" d="M-173.1,387.5l-0.1,0.5l-0.1,0c-0.3-0.2-0.6-0.3-0.9-0.3c-0.2,0-0.3,0-0.4,0.1c-0.1,0.1-0.2,0.2-0.3,0.3
		s-0.1,0.2-0.1,0.3c0,0.1,0,0.2,0.1,0.3c0.1,0.1,0.2,0.2,0.3,0.2c0.1,0.1,0.3,0.2,0.5,0.3c0.3,0.1,0.5,0.2,0.6,0.3
		c0.2,0.1,0.3,0.2,0.4,0.4c0.1,0.2,0.2,0.3,0.2,0.6c0,0.2-0.1,0.4-0.2,0.6c-0.1,0.2-0.3,0.4-0.5,0.5c-0.2,0.1-0.5,0.2-0.8,0.2
		c-0.4,0-0.8-0.1-1.2-0.3l0.1-0.6l0.1,0c0.2,0.2,0.3,0.3,0.5,0.4c0.2,0.1,0.4,0.1,0.6,0.1c0.2,0,0.3,0,0.5-0.1
		c0.1-0.1,0.2-0.2,0.3-0.3c0.1-0.1,0.1-0.2,0.1-0.4c0-0.2-0.1-0.4-0.2-0.5c-0.1-0.1-0.4-0.2-0.7-0.4c-0.2-0.1-0.4-0.2-0.6-0.3
		c-0.1-0.1-0.3-0.2-0.4-0.4c-0.1-0.2-0.2-0.3-0.2-0.6c0-0.2,0.1-0.4,0.2-0.6s0.3-0.3,0.5-0.4c0.2-0.1,0.5-0.2,0.8-0.2
		C-173.8,387.3-173.5,387.3-173.1,387.5z"/>
</g>
<g>
	<path class="st0" d="M-214.2,394.6l-0.2,0.8l-0.1,0.1c-0.2-0.1-0.3-0.2-0.5-0.3c-0.2-0.1-0.3-0.1-0.5-0.1c-0.2,0-0.3,0.1-0.4,0.1
		c-0.1,0.1-0.2,0.2-0.2,0.3c0,0.1,0.1,0.2,0.2,0.3c0.1,0.1,0.3,0.2,0.6,0.3c0.3,0.1,0.5,0.2,0.6,0.3c0.2,0.1,0.3,0.2,0.4,0.4
		c0.1,0.2,0.2,0.4,0.2,0.6c0,0.3-0.1,0.5-0.2,0.7c-0.1,0.2-0.3,0.4-0.6,0.5c-0.3,0.1-0.6,0.2-0.9,0.2c-0.4,0-0.9-0.1-1.3-0.3
		l0.1-0.9l0.1-0.1c0.2,0.2,0.4,0.3,0.6,0.4c0.2,0.1,0.4,0.1,0.6,0.1c0.2,0,0.4,0,0.5-0.1c0.1-0.1,0.2-0.2,0.2-0.4
		c0-0.1-0.1-0.3-0.2-0.4c-0.1-0.1-0.3-0.2-0.6-0.3c-0.3-0.1-0.5-0.2-0.6-0.3c-0.2-0.1-0.3-0.2-0.4-0.4c-0.1-0.2-0.2-0.4-0.2-0.6
		c0-0.3,0.1-0.5,0.2-0.7c0.1-0.2,0.3-0.4,0.6-0.5c0.3-0.1,0.5-0.2,0.9-0.2C-214.9,394.4-214.5,394.5-214.2,394.6z"/>
	<path class="st0" d="M-211.7,399h-0.9l0-1.3l0-3.1h1l-0.1,3.1L-211.7,399z"/>
	<path class="st0" d="M-206.3,399h-1l-1.8-3h-0.1l0,1.5l0,1.5h-0.9l0-1.3l0-3.2h1l1.8,3h0.1l0-3l0.9-0.1l-0.1,3.1L-206.3,399z"/>
	<path class="st0" d="M-202,396.4l0.6,0l0.8,0l0.1,0.1l-0.1,0.7l-0.8,0l-0.6,0l0,0.4l0,1.4h-0.9l0-1.3l0-3.1h2.7l0.1,0.1l-0.1,0.7
		l-1.1,0l-0.6,0L-202,396.4z"/>
	<path class="st0" d="M-195.8,398.7l0,0.1c-0.3,0.1-0.6,0.2-0.9,0.2l-0.1-0.1c-0.3-0.6-0.6-1.1-0.8-1.5h-0.7v0.1l0,1.4h-0.9l0-1.3
		l0-3.1l1.7,0c0.5,0,0.8,0.1,1.1,0.3c0.3,0.2,0.4,0.6,0.4,1c0,0.3-0.1,0.6-0.2,0.8c-0.1,0.2-0.4,0.4-0.6,0.6
		C-196.5,397.8-196.1,398.3-195.8,398.7z M-197.6,396.7c0.4-0.1,0.6-0.4,0.6-0.9c0-0.2-0.1-0.4-0.2-0.5c-0.1-0.1-0.3-0.2-0.6-0.2
		l-0.5,0l0,1.5L-197.6,396.7z"/>
	<path class="st0" d="M-191.3,395c0.3,0.4,0.5,0.9,0.5,1.6c0,0.8-0.2,1.4-0.6,1.8c-0.4,0.4-0.9,0.6-1.6,0.6c-0.6,0-1.1-0.2-1.5-0.6
		c-0.3-0.4-0.5-0.9-0.5-1.7c0-0.8,0.2-1.3,0.6-1.7c0.4-0.4,0.9-0.6,1.6-0.6C-192.2,394.4-191.7,394.6-191.3,395z M-193.7,395.5
		c-0.2,0.2-0.3,0.6-0.3,1.1c0,0.6,0.1,1,0.2,1.3c0.2,0.3,0.4,0.4,0.8,0.4c0.4,0,0.6-0.1,0.8-0.3c0.2-0.2,0.3-0.6,0.3-1.1
		c0-0.6-0.1-1-0.2-1.3c-0.2-0.2-0.4-0.4-0.8-0.4C-193.3,395.2-193.5,395.3-193.7,395.5z"/>
	<path class="st0" d="M-185.8,399h-1l-1.8-3h-0.1l0,1.5l0,1.5h-0.9l0-1.3l0-3.2h1l1.8,3h0.1l0-3l0.9-0.1l-0.1,3.1L-185.8,399z"/>
	<path class="st0" d="M-181.3,395.3l-0.8,0h-0.3l0,2.3l0,1.4h-0.9l0-1.3l0-2.4h-0.3l-0.9,0l-0.1-0.1l0.1-0.7h3.2l0.1,0.1
		L-181.3,395.3z"/>
	<path class="st0" d="M-177.1,398.3l-0.1,0.7h-2.8l0-1.3l0-3.1h2.8l0.1,0.1l-0.1,0.7l-1.1,0l-0.8,0l0,1.1l0.8,0l0.7,0l0.1,0.1
		l-0.1,0.7l-0.8,0l-0.7,0l0,0.5l0,0.7l0.8,0L-177.1,398.3L-177.1,398.3z"/>
	<path class="st0" d="M-172.4,398.7l0,0.1c-0.3,0.1-0.6,0.2-0.9,0.2l-0.1-0.1c-0.3-0.6-0.6-1.1-0.8-1.5h-0.7v0.1l0,1.4h-0.9l0-1.3
		l0-3.1l1.7,0c0.5,0,0.8,0.1,1.1,0.3c0.3,0.2,0.4,0.6,0.4,1c0,0.3-0.1,0.6-0.2,0.8c-0.1,0.2-0.4,0.4-0.6,0.6
		C-173.1,397.8-172.8,398.3-172.4,398.7z M-174.3,396.7c0.4-0.1,0.6-0.4,0.6-0.9c0-0.2-0.1-0.4-0.2-0.5c-0.1-0.1-0.3-0.2-0.6-0.2
		l-0.5,0l0,1.5L-174.3,396.7z"/>
	<path class="st0" d="M-168.6,399l-0.1-0.6l-0.1-0.4l-0.9,0l-0.8,0l-0.1,0.4l-0.1,0.6h-0.9l1.5-4.5h1.1l1.4,4.5H-168.6z
		 M-169.6,395.4L-169.6,395.4l-0.7,1.9l0.6,0l0.6,0L-169.6,395.4z"/>
	<path class="st0" d="M-163.8,394.6l-0.2,0.8l-0.1,0.1c-0.2-0.1-0.3-0.2-0.5-0.3s-0.3-0.1-0.5-0.1c-0.2,0-0.3,0.1-0.4,0.1
		c-0.1,0.1-0.2,0.2-0.2,0.3c0,0.1,0.1,0.2,0.2,0.3c0.1,0.1,0.3,0.2,0.6,0.3c0.3,0.1,0.5,0.2,0.6,0.3c0.2,0.1,0.3,0.2,0.4,0.4
		c0.1,0.2,0.2,0.4,0.2,0.6c0,0.3-0.1,0.5-0.2,0.7c-0.1,0.2-0.3,0.4-0.6,0.5c-0.3,0.1-0.6,0.2-0.9,0.2c-0.4,0-0.9-0.1-1.3-0.3
		l0.1-0.9l0.1-0.1c0.2,0.2,0.4,0.3,0.6,0.4c0.2,0.1,0.4,0.1,0.6,0.1c0.2,0,0.4,0,0.5-0.1c0.1-0.1,0.2-0.2,0.2-0.4
		c0-0.1-0.1-0.3-0.2-0.4c-0.1-0.1-0.3-0.2-0.6-0.3c-0.3-0.1-0.5-0.2-0.6-0.3c-0.2-0.1-0.3-0.2-0.4-0.4c-0.1-0.2-0.2-0.4-0.2-0.6
		c0-0.3,0.1-0.5,0.2-0.7c0.1-0.2,0.3-0.4,0.6-0.5c0.3-0.1,0.5-0.2,0.9-0.2C-164.6,394.4-164.2,394.5-163.8,394.6z"/>
</g>
<g>
	<path class="st1" d="M-216.5,401.7h1.7v0.2h-1.5v1h1.4v0.2h-1.4v1.1h1.5v0.2h-1.8V401.7z"/>
	<path class="st1" d="M-212.3,404.2L-212.3,404.2c0,0.1-0.1,0.1-0.1,0.2c-0.1,0-0.1,0.1-0.2,0.1c-0.1,0-0.1,0.1-0.2,0.1
		c-0.1,0-0.1,0-0.2,0c-0.1,0-0.3,0-0.4-0.1s-0.2-0.1-0.3-0.2c-0.1-0.1-0.2-0.2-0.2-0.3c0-0.1-0.1-0.2-0.1-0.4c0-0.1,0-0.3,0.1-0.4
		c0-0.1,0.1-0.2,0.2-0.3c0.1-0.1,0.2-0.2,0.3-0.2c0.1,0,0.2-0.1,0.4-0.1c0.1,0,0.1,0,0.2,0c0.1,0,0.1,0,0.2,0.1
		c0.1,0,0.1,0.1,0.2,0.1c0.1,0,0.1,0.1,0.1,0.2h0v-1.5h0.2v3h-0.2V404.2z M-212.3,403.6c0-0.1,0-0.2-0.1-0.3c0-0.1-0.1-0.2-0.2-0.2
		c-0.1-0.1-0.1-0.1-0.2-0.2c-0.1,0-0.2-0.1-0.3-0.1c-0.1,0-0.2,0-0.3,0.1c-0.1,0-0.2,0.1-0.2,0.2c-0.1,0.1-0.1,0.1-0.1,0.2
		c0,0.1,0,0.2,0,0.3s0,0.2,0,0.3c0,0.1,0.1,0.2,0.1,0.2c0.1,0.1,0.1,0.1,0.2,0.2c0.1,0,0.2,0.1,0.3,0.1c0.1,0,0.2,0,0.3-0.1
		c0.1,0,0.2-0.1,0.2-0.2c0.1-0.1,0.1-0.1,0.2-0.2C-212.3,403.8-212.3,403.7-212.3,403.6z"/>
	<path class="st1" d="M-209.6,404c0,0,0,0.1,0,0.1c0,0,0,0.1,0,0.1c0,0.1,0,0.1,0,0.1c0,0,0,0.1,0,0.1h-0.2c0-0.1,0-0.1,0-0.2
		c0-0.1,0-0.1,0-0.1h0c0,0.1-0.1,0.2-0.2,0.3s-0.2,0.1-0.4,0.1c-0.1,0-0.3,0-0.4-0.1c-0.1,0-0.2-0.1-0.2-0.2
		c-0.1-0.1-0.1-0.2-0.1-0.3c0-0.1,0-0.2,0-0.3v-1.1h0.2v1.1c0,0.1,0,0.1,0,0.2c0,0.1,0,0.1,0.1,0.2c0,0.1,0.1,0.1,0.1,0.1
		c0.1,0,0.1,0,0.2,0c0.1,0,0.2,0,0.2,0c0.1,0,0.1-0.1,0.2-0.1c0.1-0.1,0.1-0.1,0.1-0.2c0-0.1,0-0.2,0-0.3v-0.9h0.2V404z"/>
	<path class="st1" d="M-207.1,404.3c-0.1,0.1-0.2,0.2-0.3,0.2c-0.1,0.1-0.2,0.1-0.4,0.1c-0.1,0-0.3,0-0.4-0.1
		c-0.1,0-0.2-0.1-0.3-0.2c-0.1-0.1-0.2-0.2-0.2-0.3c0-0.1-0.1-0.2-0.1-0.4c0-0.1,0-0.3,0.1-0.4c0-0.1,0.1-0.2,0.2-0.3
		c0.1-0.1,0.2-0.2,0.3-0.2c0.1,0,0.2-0.1,0.4-0.1c0.1,0,0.3,0,0.4,0.1c0.1,0.1,0.2,0.1,0.3,0.2l-0.2,0.1c-0.1-0.1-0.1-0.1-0.2-0.2
		c-0.1,0-0.2-0.1-0.3-0.1c-0.1,0-0.2,0-0.3,0.1c-0.1,0-0.2,0.1-0.2,0.2c-0.1,0.1-0.1,0.1-0.1,0.2c0,0.1,0,0.2,0,0.3s0,0.2,0,0.3
		c0,0.1,0.1,0.2,0.1,0.2c0.1,0.1,0.1,0.1,0.2,0.2c0.1,0,0.2,0.1,0.3,0.1c0.1,0,0.2,0,0.3-0.1c0.1,0,0.2-0.1,0.2-0.2L-207.1,404.3z"
		/>
	<path class="st1" d="M-204.9,403.8c0,0.1,0,0.2,0,0.2c0,0.1,0,0.1,0,0.2c0,0.1,0,0.1,0,0.2c0,0.1,0,0.1,0,0.2h-0.2
		c0-0.1,0-0.2,0-0.3h0c-0.1,0.1-0.2,0.2-0.3,0.3c-0.1,0.1-0.2,0.1-0.4,0.1c-0.1,0-0.2,0-0.2,0s-0.1-0.1-0.2-0.1
		c-0.1,0-0.1-0.1-0.1-0.2c0-0.1-0.1-0.2-0.1-0.2c0-0.1,0-0.3,0.1-0.3c0.1-0.1,0.2-0.1,0.3-0.2c0.1,0,0.2-0.1,0.3-0.1
		c0.1,0,0.2,0,0.3,0h0.3v-0.1c0-0.2,0-0.3-0.1-0.3c-0.1-0.1-0.2-0.1-0.4-0.1c-0.2,0-0.4,0.1-0.6,0.2l-0.1-0.2
		c0.1-0.1,0.2-0.1,0.3-0.2c0.1,0,0.3-0.1,0.4-0.1c0.2,0,0.4,0.1,0.5,0.2c0.1,0.1,0.2,0.3,0.2,0.5V403.8z M-205.4,403.6
		c-0.1,0-0.2,0-0.3,0c-0.1,0-0.2,0-0.3,0.1c-0.1,0-0.1,0.1-0.2,0.1c0,0.1-0.1,0.1-0.1,0.2c0,0.1,0,0.1,0,0.1c0,0,0.1,0.1,0.1,0.1
		c0,0,0.1,0,0.1,0.1c0,0,0.1,0,0.1,0c0.1,0,0.2,0,0.3-0.1c0.1,0,0.1-0.1,0.2-0.1c0-0.1,0.1-0.1,0.1-0.2c0-0.1,0-0.2,0-0.2v-0.1
		H-205.4z"/>
	<path class="st1" d="M-202.4,404.2L-202.4,404.2c0,0.1-0.1,0.1-0.1,0.2c-0.1,0-0.1,0.1-0.2,0.1c-0.1,0-0.1,0.1-0.2,0.1
		c-0.1,0-0.1,0-0.2,0c-0.1,0-0.3,0-0.4-0.1c-0.1,0-0.2-0.1-0.3-0.2c-0.1-0.1-0.2-0.2-0.2-0.3c0-0.1-0.1-0.2-0.1-0.4
		c0-0.1,0-0.3,0.1-0.4c0-0.1,0.1-0.2,0.2-0.3c0.1-0.1,0.2-0.2,0.3-0.2c0.1,0,0.2-0.1,0.4-0.1c0.1,0,0.1,0,0.2,0c0.1,0,0.1,0,0.2,0.1
		c0.1,0,0.1,0.1,0.2,0.1c0.1,0,0.1,0.1,0.1,0.2h0v-1.5h0.2v3h-0.2V404.2z M-202.3,403.6c0-0.1,0-0.2-0.1-0.3c0-0.1-0.1-0.2-0.2-0.2
		c-0.1-0.1-0.1-0.1-0.2-0.2c-0.1,0-0.2-0.1-0.3-0.1c-0.1,0-0.2,0-0.3,0.1c-0.1,0-0.2,0.1-0.2,0.2c-0.1,0.1-0.1,0.1-0.1,0.2
		c0,0.1,0,0.2,0,0.3s0,0.2,0,0.3c0,0.1,0.1,0.2,0.1,0.2c0.1,0.1,0.1,0.1,0.2,0.2c0.1,0,0.2,0.1,0.3,0.1c0.1,0,0.2,0,0.3-0.1
		c0.1,0,0.2-0.1,0.2-0.2c0.1-0.1,0.1-0.1,0.2-0.2C-202.3,403.8-202.3,403.7-202.3,403.6z"/>
	<path class="st1" d="M-201.3,403.6c0-0.1,0-0.3,0.1-0.4c0-0.1,0.1-0.2,0.2-0.3c0.1-0.1,0.2-0.2,0.3-0.2c0.1,0,0.2-0.1,0.4-0.1
		s0.3,0,0.4,0.1c0.1,0,0.2,0.1,0.3,0.2c0.1,0.1,0.2,0.2,0.2,0.3c0,0.1,0.1,0.2,0.1,0.4c0,0.1,0,0.3-0.1,0.4c0,0.1-0.1,0.2-0.2,0.3
		c-0.1,0.1-0.2,0.2-0.3,0.2c-0.1,0-0.2,0.1-0.4,0.1s-0.3,0-0.4-0.1c-0.1,0-0.2-0.1-0.3-0.2c-0.1-0.1-0.2-0.2-0.2-0.3
		C-201.3,403.9-201.3,403.7-201.3,403.6z M-201.1,403.6c0,0.1,0,0.2,0,0.3c0,0.1,0.1,0.2,0.1,0.2c0.1,0.1,0.1,0.1,0.2,0.2
		c0.1,0,0.2,0.1,0.3,0.1c0.1,0,0.2,0,0.3-0.1c0.1,0,0.2-0.1,0.2-0.2c0.1-0.1,0.1-0.1,0.1-0.2c0-0.1,0-0.2,0-0.3s0-0.2,0-0.3
		c0-0.1-0.1-0.2-0.1-0.2c-0.1-0.1-0.1-0.1-0.2-0.2c-0.1,0-0.2-0.1-0.3-0.1c-0.1,0-0.2,0-0.3,0.1c-0.1,0-0.2,0.1-0.2,0.2
		c-0.1,0.1-0.1,0.1-0.1,0.2C-201,403.4-201.1,403.5-201.1,403.6z"/>
	<path class="st1" d="M-198.5,403.2c0,0,0-0.1,0-0.1c0,0,0-0.1,0-0.1c0-0.1,0-0.1,0-0.1c0,0,0-0.1,0-0.1h0.2c0,0.1,0,0.1,0,0.2
		c0,0.1,0,0.1,0,0.1c0.1-0.1,0.1-0.2,0.2-0.3c0.1-0.1,0.2-0.1,0.3-0.1c0,0,0,0,0.1,0c0,0,0,0,0.1,0l0,0.2c0,0-0.1,0-0.1,0
		c-0.1,0-0.2,0-0.3,0c-0.1,0-0.1,0.1-0.2,0.1c0,0.1-0.1,0.1-0.1,0.2c0,0.1,0,0.2,0,0.3v1h-0.2V403.2z"/>
	<path class="st1" d="M-195.3,404.2c-0.1,0.1-0.2,0.2-0.3,0.3c-0.1,0.1-0.3,0.1-0.4,0.1c-0.1,0-0.3,0-0.4-0.1s-0.2-0.1-0.3-0.2
		c-0.1-0.1-0.1-0.2-0.2-0.3c0-0.1-0.1-0.2-0.1-0.4c0-0.1,0-0.3,0.1-0.4c0-0.1,0.1-0.2,0.2-0.3c0.1-0.1,0.2-0.2,0.3-0.2
		c0.1,0,0.2-0.1,0.4-0.1c0.1,0,0.3,0,0.4,0.1c0.1,0,0.2,0.1,0.3,0.2c0.1,0.1,0.1,0.2,0.2,0.3c0,0.1,0.1,0.2,0.1,0.3v0.2h-1.5
		c0,0.1,0,0.1,0,0.2c0,0.1,0.1,0.2,0.1,0.2c0.1,0.1,0.1,0.1,0.2,0.2c0.1,0.1,0.2,0.1,0.3,0.1c0.1,0,0.2,0,0.4-0.1
		c0.1-0.1,0.2-0.1,0.3-0.2L-195.3,404.2z M-195.5,403.5c0-0.1,0-0.2,0-0.2c0-0.1-0.1-0.1-0.1-0.2s-0.1-0.1-0.2-0.1
		c-0.1,0-0.2,0-0.2,0c-0.1,0-0.2,0-0.3,0.1c-0.1,0.1-0.2,0.1-0.2,0.2c-0.1,0.1-0.1,0.1-0.1,0.2c0,0.1,0,0.1,0,0.1H-195.5z"/>
	<path class="st1" d="M-194.4,404.1c0.1,0.1,0.1,0.2,0.2,0.2c0.1,0.1,0.2,0.1,0.3,0.1c0.1,0,0.1,0,0.2,0c0.1,0,0.1,0,0.1-0.1
		c0,0,0.1-0.1,0.1-0.1c0,0,0-0.1,0-0.1c0-0.1,0-0.1-0.1-0.2c-0.1,0-0.1-0.1-0.2-0.1c-0.1,0-0.2,0-0.3-0.1c-0.1,0-0.2,0-0.3-0.1
		c-0.1,0-0.1-0.1-0.2-0.1c-0.1-0.1-0.1-0.2-0.1-0.3c0-0.1,0-0.2,0.1-0.2c0-0.1,0.1-0.1,0.1-0.2c0.1,0,0.1-0.1,0.2-0.1
		c0.1,0,0.1,0,0.2,0c0.2,0,0.3,0,0.4,0.1c0.1,0.1,0.2,0.1,0.3,0.3l-0.2,0.1c0-0.1-0.1-0.1-0.2-0.2c-0.1,0-0.2-0.1-0.3-0.1
		c0,0-0.1,0-0.1,0c0,0-0.1,0-0.1,0.1c0,0-0.1,0.1-0.1,0.1c0,0,0,0.1,0,0.1c0,0.1,0,0.1,0.1,0.2c0.1,0,0.1,0.1,0.2,0.1
		c0.1,0,0.2,0,0.3,0.1c0.1,0,0.2,0,0.3,0.1c0.1,0,0.1,0.1,0.2,0.2c0.1,0.1,0.1,0.2,0.1,0.3c0,0.1,0,0.2-0.1,0.2
		c0,0.1-0.1,0.1-0.1,0.2c-0.1,0-0.1,0.1-0.2,0.1c-0.1,0-0.2,0-0.2,0c-0.2,0-0.3,0-0.4-0.1c-0.1-0.1-0.2-0.2-0.3-0.3L-194.4,404.1z"
		/>
	<path class="st1" d="M-191,404.1c0.1,0.1,0.1,0.2,0.2,0.2c0.1,0.1,0.2,0.1,0.3,0.1c0.1,0,0.1,0,0.2,0c0.1,0,0.1,0,0.1-0.1
		c0,0,0.1-0.1,0.1-0.1c0,0,0-0.1,0-0.1c0-0.1,0-0.1-0.1-0.2c-0.1,0-0.1-0.1-0.2-0.1c-0.1,0-0.2,0-0.3-0.1c-0.1,0-0.2,0-0.3-0.1
		c-0.1,0-0.1-0.1-0.2-0.1c-0.1-0.1-0.1-0.2-0.1-0.3c0-0.1,0-0.2,0.1-0.2c0-0.1,0.1-0.1,0.1-0.2c0.1,0,0.1-0.1,0.2-0.1
		c0.1,0,0.1,0,0.2,0c0.2,0,0.3,0,0.4,0.1c0.1,0.1,0.2,0.1,0.3,0.3l-0.2,0.1c0-0.1-0.1-0.1-0.2-0.2c-0.1,0-0.2-0.1-0.3-0.1
		c0,0-0.1,0-0.1,0c0,0-0.1,0-0.1,0.1c0,0-0.1,0.1-0.1,0.1c0,0,0,0.1,0,0.1c0,0.1,0,0.1,0.1,0.2c0.1,0,0.1,0.1,0.2,0.1
		c0.1,0,0.2,0,0.3,0.1c0.1,0,0.2,0,0.3,0.1c0.1,0,0.1,0.1,0.2,0.2c0.1,0.1,0.1,0.2,0.1,0.3c0,0.1,0,0.2-0.1,0.2
		c0,0.1-0.1,0.1-0.1,0.2c-0.1,0-0.1,0.1-0.2,0.1c-0.1,0-0.2,0-0.2,0c-0.2,0-0.3,0-0.4-0.1c-0.1-0.1-0.2-0.2-0.3-0.3L-191,404.1z"/>
	<path class="st1" d="M-189.1,403.6c0-0.1,0-0.3,0.1-0.4c0-0.1,0.1-0.2,0.2-0.3c0.1-0.1,0.2-0.2,0.3-0.2c0.1,0,0.2-0.1,0.4-0.1
		c0.1,0,0.3,0,0.4,0.1c0.1,0,0.2,0.1,0.3,0.2c0.1,0.1,0.2,0.2,0.2,0.3c0,0.1,0.1,0.2,0.1,0.4c0,0.1,0,0.3-0.1,0.4
		c0,0.1-0.1,0.2-0.2,0.3c-0.1,0.1-0.2,0.2-0.3,0.2c-0.1,0-0.2,0.1-0.4,0.1c-0.1,0-0.3,0-0.4-0.1c-0.1,0-0.2-0.1-0.3-0.2
		c-0.1-0.1-0.2-0.2-0.2-0.3C-189.1,403.9-189.1,403.7-189.1,403.6z M-188.8,403.6c0,0.1,0,0.2,0,0.3c0,0.1,0.1,0.2,0.1,0.2
		c0.1,0.1,0.1,0.1,0.2,0.2c0.1,0,0.2,0.1,0.3,0.1c0.1,0,0.2,0,0.3-0.1c0.1,0,0.2-0.1,0.2-0.2c0.1-0.1,0.1-0.1,0.1-0.2
		c0-0.1,0-0.2,0-0.3s0-0.2,0-0.3c0-0.1-0.1-0.2-0.1-0.2c-0.1-0.1-0.1-0.1-0.2-0.2c-0.1,0-0.2-0.1-0.3-0.1c-0.1,0-0.2,0-0.3,0.1
		s-0.2,0.1-0.2,0.2c-0.1,0.1-0.1,0.1-0.1,0.2C-188.8,403.4-188.8,403.5-188.8,403.6z"/>
	<path class="st1" d="M-186.3,403.2c0,0,0-0.1,0-0.1c0,0,0-0.1,0-0.1c0-0.1,0-0.1,0-0.1c0,0,0-0.1,0-0.1h0.2c0,0.1,0,0.1,0,0.2
		c0,0.1,0,0.1,0,0.1h0c0-0.1,0.1-0.2,0.2-0.3c0.1-0.1,0.2-0.1,0.4-0.1c0.1,0,0.2,0,0.3,0.1c0.1,0.1,0.2,0.2,0.2,0.3
		c0.1-0.1,0.1-0.2,0.3-0.3c0.1-0.1,0.2-0.1,0.4-0.1c0.1,0,0.3,0,0.3,0.1c0.1,0,0.2,0.1,0.2,0.2c0.1,0.1,0.1,0.2,0.1,0.3
		c0,0.1,0,0.2,0,0.3v1.1h-0.2v-1.1c0-0.1,0-0.1,0-0.2s0-0.1-0.1-0.2c0-0.1-0.1-0.1-0.1-0.1c-0.1,0-0.1,0-0.2,0c-0.1,0-0.2,0-0.3,0.1
		c-0.1,0-0.1,0.1-0.2,0.2c0,0.1-0.1,0.1-0.1,0.2c0,0.1,0,0.1,0,0.2v1h-0.2v-1.1c0-0.2,0-0.3-0.1-0.4c-0.1-0.1-0.2-0.2-0.3-0.2
		c-0.1,0-0.2,0-0.2,0c-0.1,0-0.1,0.1-0.2,0.1c-0.1,0.1-0.1,0.1-0.1,0.2c0,0.1,0,0.2,0,0.3v0.9h-0.2V403.2z"/>
	<path class="st1" d="M-182.7,403.6c0-0.1,0-0.3,0.1-0.4c0-0.1,0.1-0.2,0.2-0.3c0.1-0.1,0.2-0.2,0.3-0.2c0.1,0,0.2-0.1,0.4-0.1
		c0.1,0,0.3,0,0.4,0.1c0.1,0,0.2,0.1,0.3,0.2c0.1,0.1,0.2,0.2,0.2,0.3c0,0.1,0.1,0.2,0.1,0.4c0,0.1,0,0.3-0.1,0.4
		c0,0.1-0.1,0.2-0.2,0.3c-0.1,0.1-0.2,0.2-0.3,0.2c-0.1,0-0.2,0.1-0.4,0.1c-0.1,0-0.3,0-0.4-0.1c-0.1,0-0.2-0.1-0.3-0.2
		c-0.1-0.1-0.2-0.2-0.2-0.3C-182.7,403.9-182.7,403.7-182.7,403.6z M-182.4,403.6c0,0.1,0,0.2,0,0.3c0,0.1,0.1,0.2,0.1,0.2
		c0.1,0.1,0.1,0.1,0.2,0.2c0.1,0,0.2,0.1,0.3,0.1c0.1,0,0.2,0,0.3-0.1c0.1,0,0.2-0.1,0.2-0.2c0.1-0.1,0.1-0.1,0.1-0.2
		c0-0.1,0-0.2,0-0.3s0-0.2,0-0.3c0-0.1-0.1-0.2-0.1-0.2c-0.1-0.1-0.1-0.1-0.2-0.2c-0.1,0-0.2-0.1-0.3-0.1c-0.1,0-0.2,0-0.3,0.1
		s-0.2,0.1-0.2,0.2c-0.1,0.1-0.1,0.1-0.1,0.2C-182.4,403.4-182.4,403.5-182.4,403.6z"/>
	<path class="st1" d="M-179.9,404.1c0.1,0.1,0.1,0.2,0.2,0.2c0.1,0.1,0.2,0.1,0.3,0.1c0.1,0,0.1,0,0.2,0c0.1,0,0.1,0,0.1-0.1
		c0,0,0.1-0.1,0.1-0.1c0,0,0-0.1,0-0.1c0-0.1,0-0.1-0.1-0.2c-0.1,0-0.1-0.1-0.2-0.1c-0.1,0-0.2,0-0.3-0.1c-0.1,0-0.2,0-0.3-0.1
		c-0.1,0-0.1-0.1-0.2-0.1c-0.1-0.1-0.1-0.2-0.1-0.3c0-0.1,0-0.2,0.1-0.2c0-0.1,0.1-0.1,0.1-0.2c0.1,0,0.1-0.1,0.2-0.1
		c0.1,0,0.1,0,0.2,0c0.2,0,0.3,0,0.4,0.1c0.1,0.1,0.2,0.1,0.3,0.3l-0.2,0.1c0-0.1-0.1-0.1-0.2-0.2c-0.1,0-0.2-0.1-0.3-0.1
		c0,0-0.1,0-0.1,0c0,0-0.1,0-0.1,0.1c0,0-0.1,0.1-0.1,0.1c0,0,0,0.1,0,0.1c0,0.1,0,0.1,0.1,0.2c0.1,0,0.1,0.1,0.2,0.1
		c0.1,0,0.2,0,0.3,0.1c0.1,0,0.2,0,0.3,0.1c0.1,0,0.1,0.1,0.2,0.2c0.1,0.1,0.1,0.2,0.1,0.3c0,0.1,0,0.2-0.1,0.2
		c0,0.1-0.1,0.1-0.1,0.2c-0.1,0-0.1,0.1-0.2,0.1c-0.1,0-0.2,0-0.2,0c-0.2,0-0.3,0-0.4-0.1c-0.1-0.1-0.2-0.2-0.3-0.3L-179.9,404.1z"
		/>
	<path class="st1" d="M-175.6,402.9h-0.5v1.2c0,0.1,0,0.1,0.1,0.2c0,0,0.1,0.1,0.2,0.1c0,0,0.1,0,0.1,0c0,0,0.1,0,0.1,0l0,0.2
		c0,0-0.1,0-0.2,0c-0.1,0-0.1,0-0.2,0c-0.1,0-0.2,0-0.2,0c-0.1,0-0.1-0.1-0.1-0.1c0,0-0.1-0.1-0.1-0.1s0-0.1,0-0.2v-1.2h-0.4v-0.2
		h0.4v-0.5h0.2v0.5h0.5V402.9z"/>
	<path class="st1" d="M-175,403.6c0-0.1,0-0.3,0.1-0.4c0-0.1,0.1-0.2,0.2-0.3c0.1-0.1,0.2-0.2,0.3-0.2c0.1,0,0.2-0.1,0.4-0.1
		c0.1,0,0.3,0,0.4,0.1c0.1,0,0.2,0.1,0.3,0.2c0.1,0.1,0.2,0.2,0.2,0.3c0,0.1,0.1,0.2,0.1,0.4c0,0.1,0,0.3-0.1,0.4
		c0,0.1-0.1,0.2-0.2,0.3c-0.1,0.1-0.2,0.2-0.3,0.2c-0.1,0-0.2,0.1-0.4,0.1c-0.1,0-0.3,0-0.4-0.1c-0.1,0-0.2-0.1-0.3-0.2
		c-0.1-0.1-0.2-0.2-0.2-0.3C-174.9,403.9-175,403.7-175,403.6z M-174.7,403.6c0,0.1,0,0.2,0,0.3c0,0.1,0.1,0.2,0.1,0.2
		c0.1,0.1,0.1,0.1,0.2,0.2c0.1,0,0.2,0.1,0.3,0.1c0.1,0,0.2,0,0.3-0.1c0.1,0,0.2-0.1,0.2-0.2c0.1-0.1,0.1-0.1,0.1-0.2
		c0-0.1,0-0.2,0-0.3s0-0.2,0-0.3c0-0.1-0.1-0.2-0.1-0.2c-0.1-0.1-0.1-0.1-0.2-0.2c-0.1,0-0.2-0.1-0.3-0.1c-0.1,0-0.2,0-0.3,0.1
		s-0.2,0.1-0.2,0.2c-0.1,0.1-0.1,0.1-0.1,0.2C-174.7,403.4-174.7,403.5-174.7,403.6z"/>
	<path class="st1" d="M-170.6,404.2L-170.6,404.2c0,0.1-0.1,0.1-0.1,0.2c-0.1,0-0.1,0.1-0.2,0.1c-0.1,0-0.1,0.1-0.2,0.1
		c-0.1,0-0.1,0-0.2,0c-0.1,0-0.3,0-0.4-0.1c-0.1,0-0.2-0.1-0.3-0.2c-0.1-0.1-0.2-0.2-0.2-0.3c0-0.1-0.1-0.2-0.1-0.4
		c0-0.1,0-0.3,0.1-0.4c0-0.1,0.1-0.2,0.2-0.3c0.1-0.1,0.2-0.2,0.3-0.2c0.1,0,0.2-0.1,0.4-0.1c0.1,0,0.1,0,0.2,0c0.1,0,0.1,0,0.2,0.1
		c0.1,0,0.1,0.1,0.2,0.1c0.1,0,0.1,0.1,0.1,0.2h0v-1.5h0.2v3h-0.2V404.2z M-170.5,403.6c0-0.1,0-0.2-0.1-0.3c0-0.1-0.1-0.2-0.2-0.2
		c-0.1-0.1-0.1-0.1-0.2-0.2c-0.1,0-0.2-0.1-0.3-0.1c-0.1,0-0.2,0-0.3,0.1s-0.2,0.1-0.2,0.2c-0.1,0.1-0.1,0.1-0.1,0.2
		c0,0.1,0,0.2,0,0.3s0,0.2,0,0.3c0,0.1,0.1,0.2,0.1,0.2c0.1,0.1,0.1,0.1,0.2,0.2c0.1,0,0.2,0.1,0.3,0.1c0.1,0,0.2,0,0.3-0.1
		c0.1,0,0.2-0.1,0.2-0.2c0.1-0.1,0.1-0.1,0.2-0.2C-170.6,403.8-170.5,403.7-170.5,403.6z"/>
	<path class="st1" d="M-169.5,403.6c0-0.1,0-0.3,0.1-0.4c0-0.1,0.1-0.2,0.2-0.3c0.1-0.1,0.2-0.2,0.3-0.2c0.1,0,0.2-0.1,0.4-0.1
		c0.1,0,0.3,0,0.4,0.1c0.1,0,0.2,0.1,0.3,0.2c0.1,0.1,0.2,0.2,0.2,0.3c0,0.1,0.1,0.2,0.1,0.4c0,0.1,0,0.3-0.1,0.4
		c0,0.1-0.1,0.2-0.2,0.3c-0.1,0.1-0.2,0.2-0.3,0.2c-0.1,0-0.2,0.1-0.4,0.1c-0.1,0-0.3,0-0.4-0.1c-0.1,0-0.2-0.1-0.3-0.2
		c-0.1-0.1-0.2-0.2-0.2-0.3C-169.5,403.9-169.5,403.7-169.5,403.6z M-169.3,403.6c0,0.1,0,0.2,0,0.3c0,0.1,0.1,0.2,0.1,0.2
		c0.1,0.1,0.1,0.1,0.2,0.2c0.1,0,0.2,0.1,0.3,0.1c0.1,0,0.2,0,0.3-0.1c0.1,0,0.2-0.1,0.2-0.2c0.1-0.1,0.1-0.1,0.1-0.2
		c0-0.1,0-0.2,0-0.3s0-0.2,0-0.3c0-0.1-0.1-0.2-0.1-0.2c-0.1-0.1-0.1-0.1-0.2-0.2c-0.1,0-0.2-0.1-0.3-0.1c-0.1,0-0.2,0-0.3,0.1
		c-0.1,0-0.2,0.1-0.2,0.2c-0.1,0.1-0.1,0.1-0.1,0.2C-169.3,403.4-169.3,403.5-169.3,403.6z"/>
	<path class="st1" d="M-166.7,404.1c0.1,0.1,0.1,0.2,0.2,0.2c0.1,0.1,0.2,0.1,0.3,0.1c0.1,0,0.1,0,0.2,0c0.1,0,0.1,0,0.1-0.1
		c0,0,0.1-0.1,0.1-0.1c0,0,0-0.1,0-0.1c0-0.1,0-0.1-0.1-0.2c-0.1,0-0.1-0.1-0.2-0.1c-0.1,0-0.2,0-0.3-0.1c-0.1,0-0.2,0-0.3-0.1
		c-0.1,0-0.1-0.1-0.2-0.1c-0.1-0.1-0.1-0.2-0.1-0.3c0-0.1,0-0.2,0.1-0.2c0-0.1,0.1-0.1,0.1-0.2c0.1,0,0.1-0.1,0.2-0.1
		c0.1,0,0.1,0,0.2,0c0.2,0,0.3,0,0.4,0.1c0.1,0.1,0.2,0.1,0.3,0.3l-0.2,0.1c0-0.1-0.1-0.1-0.2-0.2c-0.1,0-0.2-0.1-0.3-0.1
		c0,0-0.1,0-0.1,0c0,0-0.1,0-0.1,0.1c0,0-0.1,0.1-0.1,0.1c0,0,0,0.1,0,0.1c0,0.1,0,0.1,0.1,0.2c0.1,0,0.1,0.1,0.2,0.1
		c0.1,0,0.2,0,0.3,0.1c0.1,0,0.2,0,0.3,0.1c0.1,0,0.1,0.1,0.2,0.2c0.1,0.1,0.1,0.2,0.1,0.3c0,0.1,0,0.2-0.1,0.2
		c0,0.1-0.1,0.1-0.1,0.2c-0.1,0-0.1,0.1-0.2,0.1c-0.1,0-0.2,0-0.2,0c-0.2,0-0.3,0-0.4-0.1c-0.1-0.1-0.2-0.2-0.3-0.3L-166.7,404.1z"
		/>
	<path class="st1" d="M-162.4,401.7h0.3l1.2,2.8h-0.3l-0.3-0.7h-1.5l-0.3,0.7h-0.3L-162.4,401.7z M-162.3,402l-0.7,1.5h1.3
		L-162.3,402z"/>
	<path class="st1" d="M-160.3,404.4c0-0.1,0-0.1,0.1-0.1c0,0,0.1-0.1,0.1-0.1c0.1,0,0.1,0,0.1,0.1s0.1,0.1,0.1,0.1
		c0,0.1,0,0.1-0.1,0.1c0,0-0.1,0.1-0.1,0.1c-0.1,0-0.1,0-0.1-0.1C-160.3,404.5-160.3,404.4-160.3,404.4z"/>
	<path class="st1" d="M-156.5,404.1c-0.1,0.2-0.3,0.3-0.5,0.4c-0.2,0.1-0.4,0.1-0.6,0.1c-0.2,0-0.4,0-0.6-0.1
		c-0.2-0.1-0.3-0.2-0.5-0.3c-0.1-0.1-0.2-0.3-0.3-0.5c-0.1-0.2-0.1-0.4-0.1-0.6c0-0.2,0-0.4,0.1-0.6c0.1-0.2,0.2-0.3,0.3-0.5
		c0.1-0.1,0.3-0.2,0.5-0.3c0.2-0.1,0.4-0.1,0.6-0.1c0.2,0,0.4,0,0.5,0.1c0.2,0.1,0.3,0.2,0.4,0.3l-0.2,0.2c-0.1-0.1-0.2-0.2-0.3-0.3
		c-0.1-0.1-0.3-0.1-0.4-0.1c-0.2,0-0.3,0-0.5,0.1c-0.1,0.1-0.3,0.2-0.4,0.3c-0.1,0.1-0.2,0.2-0.2,0.4c-0.1,0.2-0.1,0.3-0.1,0.5
		s0,0.3,0.1,0.5c0.1,0.2,0.1,0.3,0.2,0.4c0.1,0.1,0.2,0.2,0.4,0.3c0.1,0.1,0.3,0.1,0.5,0.1c0.1,0,0.1,0,0.2,0c0.1,0,0.2,0,0.2-0.1
		c0.1,0,0.1-0.1,0.2-0.1c0.1-0.1,0.1-0.1,0.2-0.2L-156.5,404.1z"/>
	<path class="st1" d="M-155.8,404.4c0-0.1,0-0.1,0.1-0.1s0.1-0.1,0.1-0.1c0.1,0,0.1,0,0.1,0.1s0.1,0.1,0.1,0.1c0,0.1,0,0.1-0.1,0.1
		c0,0-0.1,0.1-0.1,0.1c-0.1,0-0.1,0-0.1-0.1C-155.8,404.5-155.8,404.4-155.8,404.4z"/>
</g>
<g>
	<defs>
		<path id="SVGID_1_" d="M-220.6,390.4c0.2,4.7-0.3,9.3-4.8,13.3c-4.5,4-8.5,5.5-13.9,5.5s-12.2-4-13.6-7.1s-1.7-11.7,0-16.7
			c1.7-5.1,5.8-9.8,13.4-9.3C-231.9,376.5-221.1,379.8-220.6,390.4z"/>
	</defs>
	<clipPath id="SVGID_2_">
		<use xlink:href="#SVGID_1_"  style="overflow:visible;"/>
	</clipPath>
	<g class="st2">
		<g>
			<path class="st3" d="M-229.2,397.6c1.1-0.1,1.5,0.6,1.6,1.7c0,1-0.8,1.5-0.8,1.5s1.2,1.8,1.2,3.9s-0.5,6.5-0.5,6.5l-2.7-0.2
				c0,0-0.5-2.9-0.5-5.9c0-3,1.2-4.3,1.2-4.3s-1.1-0.2-1-1.8C-230.7,398.1-230.4,397.7-229.2,397.6z"/>
			<path class="st0" d="M-227.7,411.3C-227.7,411.3-227.7,411.3-227.7,411.3l-2.7-0.2c-0.1,0-0.2-0.1-0.2-0.2c0,0-0.5-2.9-0.5-5.9
				c0-2.4,0.7-3.7,1.1-4.2c-0.4-0.2-0.9-0.7-0.8-1.9c0.1-0.9,0.4-1.4,1.7-1.5c0.5,0,0.9,0.1,1.2,0.3c0.3,0.3,0.5,0.8,0.6,1.5
				c0,0.8-0.5,1.3-0.7,1.5c0.3,0.5,1.1,2,1.1,3.8c0,2.1-0.5,6.4-0.5,6.5C-227.5,411.2-227.6,411.3-227.7,411.3z M-230.3,410.7
				l2.4,0.2c0.1-0.9,0.5-4.5,0.5-6.3c0-2-1.2-3.8-1.2-3.8c0,0,0-0.1,0-0.2c0-0.1,0-0.1,0.1-0.1c0,0,0.7-0.4,0.7-1.3
				c0-0.6-0.2-1-0.4-1.2c-0.2-0.2-0.5-0.3-0.9-0.2c0,0,0,0,0,0c-1.1,0.1-1.3,0.4-1.3,1.1c-0.1,1.4,0.8,1.6,0.8,1.6
				c0.1,0,0.1,0.1,0.2,0.1c0,0.1,0,0.1,0,0.2c0,0-1.1,1.3-1.1,4.2C-230.7,407.5-230.4,410.1-230.3,410.7z"/>
		</g>
		<g>
			<path class="st4" d="M-244.8,390.6c1.8-0.1,2.4,1,2.5,2.6c0.1,1.6-1.3,2.3-1.3,2.3s1.9,2.9,2,6.2c0.1,3.4-0.8,9-0.8,9l-4.3-0.4
				c0,0-0.8-3.2-0.8-8c0-4.8,1.9-6.9,1.9-6.9s-1.7-0.3-1.5-2.9C-247.1,391.5-246.7,390.8-244.8,390.6z"/>
			<path class="st0" d="M-242.4,411.1C-242.4,411.1-242.4,411.1-242.4,411.1l-4.3-0.4c-0.1,0-0.2-0.1-0.2-0.1c0,0-0.8-3.3-0.8-8
				c0-4,1.3-6.1,1.8-6.8c-0.5-0.2-1.5-0.9-1.4-3c0.1-1.3,0.6-2.2,2.6-2.3c0,0,0,0,0,0c0.8-0.1,1.4,0.1,1.9,0.5
				c0.5,0.5,0.8,1.2,0.9,2.3c0.1,1.4-0.8,2.1-1.2,2.4c0.4,0.7,1.8,3.2,1.9,6.2c0.1,3.4-0.8,9-0.8,9
				C-242.3,411-242.3,411.1-242.4,411.1z M-246.6,410.3l4,0.3c0.1-1,0.8-5.8,0.8-8.8c-0.1-3.3-1.9-6.1-1.9-6.1c0,0,0-0.1,0-0.2
				s0-0.1,0.1-0.1c0.1,0,1.3-0.7,1.2-2.2c0-1-0.3-1.7-0.7-2c-0.4-0.3-0.9-0.5-1.6-0.4h0c-1.8,0.1-2.2,0.8-2.2,1.9
				c-0.2,2.3,1.3,2.6,1.4,2.7c0.1,0,0.1,0.1,0.2,0.1c0,0.1,0,0.1,0,0.2c0,0-1.9,2.1-1.9,6.8C-247.4,406.7-246.8,409.7-246.6,410.3z"
				/>
		</g>
		<g>
			<path class="st5" d="M-233.1,393.5c1.6-0.1,2.1,0.9,2.1,2.3c0.1,1.4-1.1,2-1.1,2s1.6,2.5,1.7,5.3c0.1,2.9-0.7,8-0.7,8l-3.7-0.3
				c0,0-0.7-3.1-0.7-7.2c0-4.1,1.6-5.9,1.6-5.9s-1.5-0.3-1.3-2.5C-235.1,394.2-234.7,393.6-233.1,393.5z"/>
			<path class="st0" d="M-231.1,411.3C-231.1,411.3-231.1,411.3-231.1,411.3l-3.7-0.3c-0.1,0-0.2-0.1-0.2-0.2c0,0-0.7-3.2-0.7-7.2
				c0-3.4,1.1-5.2,1.5-5.8c-0.5-0.2-1.3-0.8-1.2-2.6c0.1-1.1,0.5-1.9,2.3-2c0.7-0.1,1.2,0.1,1.6,0.4c0.5,0.4,0.7,1.1,0.7,2
				c0.1,1.2-0.7,1.8-1,2.1c0.4,0.6,1.5,2.8,1.6,5.3c0.1,2.9-0.7,8-0.7,8.1C-230.9,411.3-231,411.3-231.1,411.3z M-234.6,410.6
				l3.4,0.3c0.1-0.9,0.7-5.3,0.7-7.8c-0.1-2.8-1.6-5.2-1.6-5.2c0,0,0-0.1,0-0.2c0-0.1,0-0.1,0.1-0.1c0,0,1.1-0.6,1-1.8
				c0-0.8-0.2-1.4-0.6-1.7c-0.3-0.3-0.7-0.4-1.3-0.3h0c-1.5,0.1-1.8,0.6-1.9,1.6c-0.1,2,1.1,2.2,1.2,2.2c0.1,0,0.1,0.1,0.2,0.1
				c0,0.1,0,0.1,0,0.2c0,0-1.6,1.8-1.6,5.8C-235.3,407.2-234.8,410-234.6,410.6z"/>
		</g>
		<g>
			<path class="st6" d="M-238.9,386.9c2.5-0.2,3.3,1.4,3.4,3.6c0.1,2.2-1.8,3.2-1.8,3.2s2.6,3.9,2.7,8.5c0.1,4.6-1.1,11.4-1.1,11.4
				l-5.9-0.5c0,0-1.1-3.5-1.1-10s2.6-9.4,2.6-9.4s-2.3-0.4-2.1-3.9C-242.1,388-241.5,387.1-238.9,386.9z"/>
			<path class="st0" d="M-235.7,413.7C-235.7,413.7-235.7,413.7-235.7,413.7l-5.9-0.5c-0.1,0-0.1-0.1-0.2-0.1c0,0-1.1-3.6-1.1-10
				c0-5.5,1.8-8.4,2.5-9.3c-0.7-0.3-2.1-1.2-2-4c0.1-1.8,0.7-2.9,3.5-3.1l0,0c1-0.1,1.9,0.1,2.5,0.7c0.7,0.6,1.1,1.6,1.1,3.1
				c0.1,1.9-1.2,2.9-1.7,3.3c0.5,0.8,2.5,4.4,2.6,8.4c0.1,4.6-1.1,11.3-1.1,11.4C-235.5,413.6-235.6,413.7-235.7,413.7z
				 M-241.4,412.8l5.6,0.5c0.2-1.1,1.2-7,1.1-11.1c-0.1-4.5-2.6-8.3-2.6-8.4c0,0,0-0.1,0-0.2c0-0.1,0-0.1,0.1-0.1c0.1,0,1.7-1,1.7-3
				c-0.1-1.4-0.4-2.3-1-2.8c-0.5-0.5-1.2-0.6-2.2-0.6l0,0c-2.5,0.2-3,1.1-3.1,2.7c-0.2,3.3,1.9,3.7,1.9,3.7c0.1,0,0.1,0.1,0.2,0.1
				c0,0.1,0,0.1,0,0.2c0,0-2.5,2.9-2.5,9.2C-242.5,408.7-241.6,412.1-241.4,412.8z"/>
		</g>
	</g>
</g>
</svg>
