<?xml version="1.0" encoding="utf-8"?>
<!-- Generator: Adobe Illustrator 19.0.0, SVG Export Plug-In . SVG Version: 6.00 Build 0)  -->
<svg version="1.1" id="Layer_1" xmlns="http://www.w3.org/2000/svg" xmlns:xlink="http://www.w3.org/1999/xlink" x="0px" y="0px"
	 viewBox="-345 257 100 100" style="enable-background:new -345 257 100 100;" xml:space="preserve">
<style type="text/css">
	.st0{fill:#FCFCFC;}
</style>
<g>
	<g>
		<path class="st0" d="M-340,303.9C-339.9,303.9-339.9,303.9-340,303.9c-0.4,0-0.7,0.2-0.8,0.3c-0.1,0.1,0,0.1,0,0.2
			c0,0.1,0.1,0.2,0.1,0.1C-340.7,304.4-340.3,304.1-340,303.9z M-341.9,318c0.1,0,0.1-0.2,0.1-0.6c0.1-1,0.3-1.8,0.5-2.8
			c0.6-2.4,1.4-7.9,1.7-9.5c0-0.2,0.1-0.5,0-0.5c-0.2,0-0.5,0.1-1,0.1c-0.2,0-0.3,0.1-0.4,0.3c-0.2,0.3-0.3,0.5-0.4,1
			c-0.6,2.9-1,5.5-1.4,8.2c0,0,0.1,0.1,0.1,0c0.4-1.8,0.6-3.6,0.9-5.1c0,0,0.1,0,0.1,0c-0.1,1.2-0.7,5.3-0.9,5.4
			c-0.1,0.1-0.3-0.1-0.3,0c-0.2,0.5-0.3,1.3-0.4,1.8c-0.1,0.3,0,0.6,0.1,0.8c0.1,0.3,1.1-2.3,1.5-4.4c0-0.3,0.1-0.2,0.1,0
			c-0.3,1.9-1,3.9-1.3,4.4C-343,317.5-342.5,317.9-341.9,318z M-333.3,318.9c-1-0.3-2.5-0.3-3.6-0.3c-0.1,0-0.1-0.1,0-0.1
			c0.7-0.1,3.8,0.1,3.8,0c0.1-0.3,0.1-0.9,0-0.9c-0.1,0-0.6,0-2.6,0.2c-1.5,0.1-5.1,0.5-5.1,0.6c-0.1,0.1,0.1,0.3,0,0.3
			c-0.4,0-0.3,0.6-0.3,1c0,0.1,0.6,0.1,0.6,0.2c0,0.1,0.5,0,0.7,0c1.7-0.1,3.4-0.5,4.7-0.5c0,0,0-0.1,0-0.1c-1.3,0-2,0-3,0.1
			c-0.1,0-0.1-0.1,0-0.1c0.7-0.1,2.2-0.2,3.2-0.1c0,0-0.1,0.2,0,0.2c0.4,0,0.8,0,1.2,0C-333.5,319.4-333.3,319-333.3,318.9z
			 M-338.9,317.3c0.9-0.1,3.2-0.3,4.3-0.3c0.5,0,1.2,0,1.3-0.1c0-0.1,0-0.2-0.1-0.2c-0.4,0-1,0-1.6,0c-0.1,0-0.1-0.1,0-0.1
			c0.5,0.1,1.2,0,1.5-0.1c0.1,0-0.2-0.6-0.6-0.7c-0.4-0.1-2.1-0.1-2.9,0c-0.9,0.1-1.7,0.1-2.3,0.2c0.3-1.1,0.4-2.1,0.7-3.3
			c0.9-0.1,1.5-0.2,2.3-0.3c0.1,0,0.1-0.1,0-0.1c0,0-1.5,0-1.6,0c-0.1,0-0.1-0.1,0-0.1c0.6,0,1.9-0.2,1.9-0.1c0.1,0.1-0.1,0.3,0,0.3
			c0.1,0,0.4,0,0.8-0.1c0.1,0,0.3-0.2,0.2-0.3c-0.1-0.1-0.6-0.4-1.8-0.3c-0.1,0-0.1-0.1,0-0.1c1.5,0,1.7,0.2,1.9,0.2
			c0.1,0,0.2-0.4,0.2-0.8c0-0.4-0.1-0.3-0.8-0.2c-0.3,0-3.6,0.4-4.1,0.4c0,0.5-0.7,3.4-0.9,4.6c-0.1,0.6-0.3,1.4-0.4,1.6
			c0,0,0,0.1-0.1,0.1c-0.1,0,0,0.1,0,0.1C-340.3,317.4-339.7,317.4-338.9,317.3z M-330.8,303.4c-0.2,0-0.4,0.1-1,0.2
			c-2.6,0.5-3.4,0.4-3.9,0.5c-0.1,0,0,0.1,0.1,0.1c0.4,0,3.1-0.4,4.5-0.6c0,0,0,0.1,0,0.1c-1.8,0.2-5.2,0.6-7,0.8
			c-0.2,0-0.3,0-0.5,0c-0.1,0-0.1,0.3-0.1,0.6c-0.2,1.5-0.7,4.3-0.8,5c0.6,0,1.1,0,2-0.1c0.5,0,1.8-0.1,2.4-0.3c0.1,0,0-0.3-0.1-0.3
			c-0.3,0-1.5-0.1-1.8-0.2c-0.1-0.1-0.1-0.1,0-0.1c0.5,0.1,0.9,0.1,1.8,0.1c0.1,0-0.2-0.5-0.4-0.5c-0.2-0.1-0.7,0-1.3,0
			c-0.4,0-1,0.1-1,0.1c0.1-0.7,0.3-1.7,0.5-2.4c0-0.2,0.1-0.4,0-0.5c1.6-0.3,3.5-0.5,4.2-0.5c0.1,0,0.1-0.1,0-0.1
			c-0.7,0-3.1,0.3-3.7,0.4c-0.1,0-0.1-0.1,0-0.1c1.4-0.3,3.9-0.6,4-0.5c0.1,0.1,0,0.3,0,0.3c0.6-0.1,0.9-0.1,1.5-0.2
			c0.3-0.1,0.5-0.5,0.4-0.5c-1.4-0.3-3-0.2-4.5,0c-0.1,0-0.1,0,0-0.1c0.6-0.1,1.5-0.2,2.1-0.2c0.8-0.1,1.6-0.1,2.4,0.1
			c0.1,0,0.2-0.1,0.2-0.3C-330.6,303.9-330.6,303.4-330.8,303.4z M-340.3,303.9c0.7-0.3,1.7-0.2,2.7-0.4c0.7-0.1,1.4-0.1,2.2-0.2
			c1-0.1,2.1-0.2,3.1-0.3c0,0,1.5-0.1,1.5-0.1c0-0.1-0.1-0.3-0.1-0.3c-0.6,0.1-1.4,0.2-2,0.1c-0.1,0-0.1-0.1,0-0.1
			c0.6,0,1.3-0.1,1.8-0.2c0.3-0.1-0.2-0.5-0.6-0.6c-0.9-0.1-2.4,0.2-3.1,0.3c-1.4,0.2-2.2,0.2-3,0.3c-1.2,0.2-1.8,0.2-2.5,0.5
			c-0.5,0.2-0.7,0.6-0.6,1.1C-340.9,304.2-340.7,304-340.3,303.9z"/>
	</g>
	<path class="st0" d="M-324.2,309.4c-0.1-0.1-0.2-0.2-0.2-0.3c0.1-0.1,0.1-0.2,0.2-0.2c0.1,0.1,0.2,0.2,0.2,0.3
		C-324,309.2-324.1,309.3-324.2,309.4z M-325.6,307.1C-325.6,307.1-325.5,307-325.6,307.1c0.5,0.5,0.9,1,1.3,1.5
		c-0.1,0.1-0.1,0.2-0.2,0.3C-324.8,308.3-325.2,307.8-325.6,307.1z M-332.9,324.5c1.6-2.2,3.5-5.1,4.6-6.7c0,0,0-0.1-0.1,0
		c-1,1.5-3.3,4.7-3.9,5.5c-0.1,0.2-0.2,0.1-0.1,0c0,0,2.7-4.2,3.9-5.8c0,0,0.1,0.1,0.1,0.1c1.9-2.9,3.7-5.6,5.5-8.3
		c-1.8-2.9-3.9-6-5.4-8.6c-0.8-1.4-1.1-1.8-2.1-3.8c-0.2-0.3-1.2,0.5-0.9,1c0.3,0.5,1.3,2.3,2.2,3.8c1.7,2.7,3,4.9,4.6,7.5
		c-1.6,2.5-3,4.5-4.5,6.8c0,0,0,0.1,0,0c1.7-2.4,3-4.3,4.6-6.7c0.1,0.1,0.1,0.2,0.2,0.3c-1.7,2.4-3.8,5.2-5,7.2c0,0.1-0.3,0-0.4,0.1
		c-0.9,1.4-1.9,2.7-3,4.1c-0.4,0.6-0.9,2.1-0.7,2c0.2-0.1,6.3-8.7,9.2-13.1c0,0,0.1,0,0.1,0c-2.4,3.6-8.5,12.5-9.3,13.3
		C-333.6,323.4-333.2,324.6-332.9,324.5z M-315.7,317.3c-1.3-2.6-2.9-5.3-4.2-7.9c-1.6,2.6,5.5-8.5,6.8-10.9c0.1-0.1-0.1-0.2,0-0.3
		c0.1-0.3,1.2-1.8,1.4-2.5c0.2-0.6-0.6-1-0.7-0.9c-0.3,0.2-5.8,8.9-6.3,9.7c-1,1.6-2,3.1-3,4.7c-0.1-0.2,4.6,7.8,5.1,8.6
		c0.4,0.7,2.1,3.4,2.3,3.7c0.1,0.2,0.2-0.3,0.1-0.4c-0.4-0.7-1.1-1.9-1.7-3.1c0-0.1,0-0.1,0.1-0.1c0.6,1.1,1.3,2.2,1.8,3
		c0.1,0.1,0.2-0.4,0.1-0.6C-314.3,319.6-315.2,318.2-315.7,317.3z M-314.9,322.5c0-0.1-0.9-1.6-1.3-2.2c-0.7-1.3-1.5-2.5-2.2-3.7
		c0,0,0.1,0,0.1,0c-2-3.2-0.2-0.2-4-6.5c-0.2,0.3-0.4,0.5-0.6,0.8c-2,2.9-4.1,6.1-6.1,9c-0.7,1.1-2.8,4.3-3,4.7
		c-0.1,0.2,0.5,0.1,0.6,0c0.1-0.2,2-2.9,3.2-4.7c0-0.1,0.1,0,0.1,0.1c-1.2,1.7-2.8,4.3-2.8,4.4c0,0.2,1.2-0.5,1.4-0.8
		c0.2-0.2,7.2-10.7,7.2-10.7c0.9,1.5,1.3,2.2,2.2,3.8c0,0,0.1,0.1,0-0.1c-0.8-1.4-1.4-2.5-2.2-3.9c0-0.1,0.1-0.1,0.1-0.2
		c0.8,1.6,1.7,3.2,2.8,4.7c-0.1,0-0.2,0.1-0.3,0.2c0.7,1.2,1.4,2.5,2.1,3.8c0.3,0.5,1.2,1.4,1.2,1.1c-0.3-0.8-4.1-7.7-5.5-10.2
		c0,0,0,0,0-0.1c0.6,0.9,5.5,9.8,5.8,10.5C-316,322.8-314.6,323-314.9,322.5z M-321.5,305.1C-321.4,305-321.4,305-321.5,305.1
		c0,0.2-0.3,0.8-0.4,1c0-0.1-0.1-0.1-0.1-0.2C-321.9,305.7-321.5,305.2-321.5,305.1z M-329.7,296.5c0.2,0.2,4.8,7.1,7.5,11.6
		c1.9-3,3.9-6,5.9-9c0.3-0.5,2.7-4.1,2.8-4.3c0.1-0.3-1-0.1-1.3,0.2c-0.5,0.6-1.8,2.6-2.8,4.1c-1.5,2.2-4.5,6.8-4.4,6.6
		c-1.4-2-3.6-5.8-6-9.1C-328.3,296.1-330,296.2-329.7,296.5z"/>
	<path class="st0" d="M-304.3,302.6c0.2,0.2,0.4,0.3,0.6,0.2c0.3,0,0.9-0.3,0.8-0.5c-0.5-0.8-1-1.3-1.9-1.7c-1-0.4-2-0.4-3.1,0
		c-1.5,0.5-2.9,2.3-3.6,3.6c-0.5,1-0.8,1.8-1.2,3.2c-0.3,1.4-0.5,2.4-0.2,3.9c0.2,0.9,0.6,1.8,1.3,2.2c0.7,0.4,1.8,0.4,2.8,0.2
		c0.5-0.1,0.8-0.2,1.3-0.4c0.2-0.1,0.5-0.3,0.7-0.5c0.1-0.1,0.6-0.5,0.8-0.8c-0.2,0.2,0.6-0.6,0.6-0.6c0-0.1-0.2-0.3-0.2-0.2
		c-0.1,0.1-0.5,0.5-0.8,0.7c-0.5,0.5-1,0.8-1.4,1c-0.2,0.1-0.4,0.2-0.7,0.4c-0.3,0.1-0.5,0.1-0.1,0c0.3-0.1,0.5-0.2,1.2-0.6
		c0.3-0.2,0.9-0.7,1.1-0.9c0.1-0.1,0.4-0.4,0.5-0.5c0.1-0.1,0.2-0.1,0.2-0.2c0-0.1-0.2-0.2-0.3-0.2c-0.2,0.1-0.5,0.3-0.7,0.5
		c-0.3,0.3-0.8,0.7-1.2,0.9c-0.5,0.3-1,0.3-1.5,0.3c-1.5,0-1.9-0.9-1.9-2.6c0-0.6,0.2-1.9,0.4-2.5c0.7-2.3,1.7-4.5,3.7-5.4
		C-306.3,301.7-305.2,301.7-304.3,302.6z M-301.7,301.4c0.1-0.3-0.1-0.7-0.2-0.9c-0.3-0.6-0.7-1.2-1.4-1.6c-1.4-0.9-3.1-1.2-5.1-0.6
		c-1.6,0.5-3.1,1.6-4.3,3c-0.7,0.9-1.8,3.1-2.1,4.2c-0.2,0.7-0.4,1.3-0.5,1.9c-0.1,0.7-0.2,1.3-0.2,2c0,0.8,0.1,1.6,0.3,2.4
		c0.1,0.6,0.4,1.5,0.8,2.1c0.3,0.5,0.6,0.6,0.3,0.3c-0.3-0.4-0.5-0.8-0.6-1.1c-0.2-0.7-0.4-1.3-0.5-2.3c-0.1-0.4-0.1-0.8-0.1-1.3
		c0-0.6,0.1-1.3,0.2-2c0.1-0.4,0.4-1.9,0.7-2.7c0.1-0.3,0.6-1.4,0.8-1.7c0-0.1,0.1-0.1,0.1,0c0,0-0.6,1.6-0.8,2.2
		c-0.1,0.4-0.4,1.6-0.5,2.1c-0.1,0.6-0.2,1-0.2,1.6c-0.1,0.6-0.1,1,0,1.7c0,0.3,0.1,0.5,0.2,1c0.1,0.5,0.4,1.4,0.6,1.7
		c0.2,0.4,0.6,0.9,1,1.3c0.4,0.4,0.6,0.6,0.9,0.8c0.4,0.2,0.9,0.4,1.6,0.5c0.3,0,0.6,0.1,1,0.1c0.1,0-0.1,0.1,0,0.1
		c0.7-0.1,0.9-0.1,1.1-0.1c1-0.1,1.6-0.4,2.5-0.7c0.5-0.2,0.7-0.4,1-0.6c0.2-0.2,0.6-0.5,0.7-0.7c0.2-0.2,0.3-0.4,0.5-0.6
		c0.1-0.1,0.2-0.3,0.3-0.4c0,0,0.1-0.1,0.2-0.4c0.1-0.2,0.2-0.4,0.2-0.5c0,0,0-0.1,0,0c0,0-0.2,0.2-0.4,0.5
		c-0.2,0.2-0.4,0.4-0.5,0.5c-0.1,0.1-0.4,0.4-0.5,0.5c-0.6,0.5-0.8,0.6-1,0.8c-0.5,0.3-0.6,0.4-0.8,0.5c-0.4,0.2-0.8,0.4-0.9,0.4
		c-0.4,0.1-0.8,0.2-1.6,0.3c-1,0.1-1.3,0.1-1.7,0c-0.6,0-1.3-0.4-1.8-0.8c-0.3-0.3-0.6-0.6-1-1.1c-0.1-0.2-0.3-0.4-0.4-0.6
		c-0.3-0.5-0.4-0.9-0.5-1.5c-0.2-0.7-0.3-1.5-0.3-2.2c0-0.2,0-0.8,0.2-1.4c0,0,0,0,0,0c-0.1,0.3-0.2,1-0.2,1.4
		c0,0.5,0.1,1.6,0.3,2.2c0.2,1,0.5,1.4,0.9,2c0.3,0.4,0.5,0.8,0.9,1.1c0.3,0.2,0.6,0.4,0.9,0.5c0.6,0.3,1.4,0.3,2,0.3
		c0.8,0,1.2-0.1,1.5-0.2c0.4-0.1,0.7-0.2,1.2-0.4c0.4-0.2,0.7-0.4,0.9-0.5c0.3-0.2,0.5-0.4,0.8-0.7c0.1-0.1,0.3-0.3,0.7-0.7
		c0.2-0.2,0.4-0.4,0.5-0.5c0.2-0.2,0.5-0.6,0.5-0.7c0.1-0.1,0.1-0.3,0-0.6c-0.1-0.4-0.4-0.7-0.6-0.8c-0.2-0.1-0.2,0.1-0.2,0.2
		c-0.1,0.3-0.5,0.9-0.6,1.1c-0.8,1-2,1.9-3.1,2.3c-0.2,0.1-0.1,0.1,0,0.1c0.6-0.2,1-0.5,1.5-0.8c0.6-0.4,1.1-1,1.6-1.5
		c0.1-0.1,0.2-0.3,0.3-0.3c0,0,0,0.1-0.1,0.2c-0.1,0.2-0.7,0.7-0.9,1c-1.3,1.2-2.8,1.8-4.5,1.9c-0.8,0-1.8-0.4-2-0.6
		c-0.5-0.4-0.9-0.9-1.2-1.3c-0.3-0.5-0.4-0.9-0.5-1.4c0-0.1-0.1-0.1-0.1,0c0.1,0.5,0.2,1,0.5,1.5c0,0.1,0,0.1-0.1,0
		c-0.3-0.4-0.5-1.4-0.6-1.8c-0.1-0.7-0.2-1-0.2-1.7c0-1.1,0.4-2.4,0.7-3.5c0.3-0.9,1.4-3.1,1.9-3.7c1.6-2,3.6-3.4,6.1-2.9
		c1,0.2,2,0.7,2.7,1.8c0.2,0.3,0.4,0.6,0.5,0.7C-302.2,302.1-301.7,301.6-301.7,301.4z M-305.2,311.5
		C-305.2,311.6-305.1,311.6-305.2,311.5c0.4-0.4,0.6-0.7,0.6-0.8C-304.8,310.9-305.2,311.4-305.2,311.5z"/>
	<path class="st0" d="M-296.8,310.8c-0.6,0.1-0.9,0-0.9-0.1c0-0.1,0.1-0.2,0.1-0.2c0,0,0.1-0.2-0.1-0.1c-0.2,0.1-0.1-0.4,0-0.5
		c0.5-0.2,1.2-0.2,1.8-0.3c0.5-0.1,0.9-0.1,1.4-0.2c0.3,0,2.2-0.1,2.8-0.1c0,0,0,0.1-0.1,0.1c-0.4,0-0.8,0-1.2,0.1c-0.1,0-0.1,0,0,0
		c0.3,0,1.1,0,1.3,0c0.2,0.1,0.1,0.5,0,0.5c-0.3,0-0.6,0.1-1,0.1c-0.1,0,0,0,0,0c0.2,0,0.7,0,0.9,0c0.1,0-0.2,0.1-0.3,0.2
		C-293.6,310.3-295.4,310.6-296.8,310.8z M-298.2,311.3c0,0,0,0.1,0,0.1c-0.4,1.1-1.2,2.6-1.3,2.9c0,0.2,0.4,0,0.7-0.3
		c0.4-0.4,0.9-1.4,1.1-1.9c0.8-0.1,3.6-0.1,4.6-0.2c0.1,0,0.1-0.1,0-0.1c-1.1,0.1-1.3,0.1-2.2,0c-0.1,0-0.1-0.1,0-0.1
		c1,0,1.3,0,2.3-0.1c0.2,0,0.1,0.3,0.3,0.3c0.1,0,0.3,0,0.4,0c0,0.3,0.1,0.7,0.1,1c0,0.4,0.5,1.1,0.6,0.9c0-0.4,0-1.4,0-2.1
		c0-0.1,0-0.1,0.1,0c0.1,0.9,0.2,1.6,0.2,2.1c0,0.2,1.4,0.9,1.3,0.5c-0.5-2.4-2.7-13.6-2.9-16.3c-0.5,1.3-1.2,2.9-1.8,4.4
		c-0.5,1.3-1,2.6-1.6,3.9c-0.8,1.8-1.6,3.7-2.4,5.4c-0.3,0.7-1.3,2.5-1.4,2.8c-0.1,0.2,0.4,0.2,0.6-0.1
		C-299.5,314.1-298.7,312.4-298.2,311.3z M-291.8,309.1L-291.8,309.1c-0.2-0.5-0.4-2.5-0.6-3.4c0-0.1,0-0.2,0.1,0
		C-292.2,306.4-291.8,308.5-291.8,309.1z M-301.2,314.4c0.2-0.1,0.8-1.4,0.9-1.8c0.4-0.9,0.7-1.7,1.1-2.6c0,0,0,0.1,0.1,0
		c0.5-1,3.8-9,5.6-13.5c0.2-0.5-1.2-0.3-1.3,0.1c-0.4,0.9-5.2,11.5-5.1,11.4c0,0.1,0.1,0,0.1,0c0.4-1.1,1.9-4.1,2.5-5.4
		c0-0.1,0.2-0.1,0.1,0.1c-0.5,1.2-2,4.4-3,6.8c-0.1,0.1-0.3,0.1-0.3,0.1c-0.4,0.8-0.8,1.7-1.2,2.5c-0.2,0.4-0.1,1.2,0,1.1
		c1.2-1.5,2.6-4.7,3.1-6c0-0.1,0.1-0.1,0.1,0c-0.5,1.2-2.6,5.6-3.1,6.3C-301.7,313.7-301.4,314.5-301.2,314.4z M-294.4,311.2
		C-294.5,311.2-294.5,311.1-294.4,311.2c0.8-0.1,1.9-0.2,2.1-0.2c0,0,0,0.1,0,0.1C-293.1,311.1-293.8,311.2-294.4,311.2z
		 M-292.6,308.3c-0.2-1.7-0.5-3.3-0.9-5c0-0.1,0.1-0.2,0.1-0.1c0.3,1.6,0.7,3.5,0.9,5.1L-292.6,308.3z M-294.7,308.1
		c-0.3,0-0.7,0-1,0c0.7-1.5,1.2-2.4,2.1-4.7c0.4,2.1,0.6,3.2,0.8,4.8C-293.4,308.1-294,308.1-294.7,308.1z M-290.7,305.6
		c0.2,1.5,1.4,8.3,1.4,8.4c0,0.1,0.3-0.1,0.2-0.2c-0.2-1-0.4-2.6-0.6-3.7c0-0.1,0-0.1,0,0c0.2,1,0.5,2.6,0.7,3.6
		c0,0.1,0.3-0.2,0.4-0.4c0.1-0.5-0.1-1.8-0.2-2.4c-0.3-2.3-1-6.9-1.4-9.2c-0.3-1.8-0.6-3.4-0.9-4.8c-0.2-0.8-1.2-0.3-1.2-0.2
		c0,0.3,0.7,3.5,0.9,5.1C-291.2,303.1-290.9,304.4-290.7,305.6z"/>
	<path class="st0" d="M-281.4,301.7l0.6-3.5c0.8-0.3,3-0.7,4-0.5c0.3,0.1,0.8,0.4,0.9,0.8c0.2,0.8-0.4,2-1.3,2.6
		c-0.5,0.3-1.4,0.5-1.6,0.5c-0.1,0-0.1-0.1-0.1-0.1c0.4-0.1,1.2-0.3,1.6-0.6c0.9-0.6,1.3-1.3,1.2-2.4c0-0.1-0.1-0.1-0.1,0
		c0.1,0.6-0.1,1.4-0.7,1.9c-0.7,0.6-1.8,0.9-3.1,1C-280.5,301.7-281.3,301.7-281.4,301.7z M-283.2,303.5c0.4,0,1.4,0,1.8-0.1
		c2.4-0.3,2.4-0.7,2.7-0.5c0.1,0.1,0.2,0.1,0.4,0c1-0.3,2.1-0.9,2.6-1.6c0.3-0.4,0.6-0.8,0.8-1.2c0.4-1,0.4-2.5-0.6-3.2
		c-0.8-0.6-2.3-0.5-3.5-0.4c-0.9,0.1-1.7,0.2-2.2,0.3c-0.1,0,0.1,0.1,0,0.1c-0.3,0-0.3-0.1-0.5-0.1c-0.2,0-0.5,0.1-0.7,0.1
		c-0.2,1.2-0.4,2.5-0.5,3.3C-282.8,301.4-283.1,303-283.2,303.5z M-285.2,313.6c-0.1,0.2,0.6,0,0.6-0.2c0.1-0.2,0.6-2.2,0.7-3.3
		c0-0.1,0.1-0.1,0.1,0c-0.1,1.1-0.6,3.3-0.6,3.4c0,0.1,0.4-0.2,0.5-0.4c0.3-0.3,0.6-2.2,1.7-7.6c2.4-0.1,5.7-0.6,7.4-1.9
		c1.4-1,2.2-2.3,2.5-3.8c0.2-1.1,0.3-2.2-0.2-3.3c-0.5-1.2-1.8-2.1-3.3-2.3c-2-0.2-5.8,0.1-6.7,0.9c-0.4,0.4-0.4,1-0.3,1
		c0.5-0.1,2.7-0.5,3.2-0.6c2.9-0.3,4.9-0.2,5.7,1.8c0.3,0.8,0.2,1.7,0,2.5c-0.6,1.7-2.2,3.3-4.2,3.8c-2.6,0.7-3.8,0.5-4.8,0.5
		c-0.1,0-0.1-0.1,0-0.1c0.7,0,1,0,1.6-0.1c0.1,0,0.1-0.1,0-0.1c-0.4,0-1.2,0.1-1.6,0c-0.3,0-0.4,0-0.5,0c-0.1,0.6-0.2,1.1-0.3,1.7
		c-0.4,1.6-0.6,3.4-1,5C-284.6,311.3-285,313.3-285.2,313.6z M-278.7,304.3C-278.7,304.3-278.7,304.4-278.7,304.3
		c-1,0.3-2.2,0.4-3.2,0.4l0-0.2C-280.9,304.6-279.7,304.5-278.7,304.3z M-286.2,313.4c0.3-0.4,0.3-0.8,0.5-1.5c0,0-0.1,0-0.1,0
		c-0.1,0.3-0.2,0.6-0.2,0.8c0,0-0.1,0-0.1,0c0.1-0.2,0.2-0.5,0.2-0.8c0.2-0.7,0.4-1.7,0.6-2.4c0,0,0.1-0.1,0.1-0.1
		c0.5-2,0.9-4.1,1.3-6.4c0,0-0.1,0-0.1,0c-0.4,2.2-0.8,4.4-1.3,6.4c0,0-0.1,0-0.1,0c0.6-3.4,1-5.2,1.2-6.6c0.3-2.2,0.8-5,0.9-5.9
		c0-0.2-0.6,0-0.9,0.3c-0.3,0.4-0.4,1.1-0.5,1.6c-0.6,3.5-1.3,6.8-2,10.2c0,0,0.1,0,0.1,0c0.5-2.2,0.9-3.9,1.3-6.1
		c0-0.1,0.1,0,0.1,0c-0.4,2.3-1,5.7-1.4,6.5c0,0.1-0.3,0-0.3,0.1c-0.1,0.3-0.5,1.5-0.6,2.3c-0.1,0.7,0.2,1.1,0.3,1
		c0.8-2,1.4-5.4,1.8-7.3c0-0.1,0.1,0,0.1,0c-0.2,1-1.5,6.5-1.8,7.3C-286.8,313-286.3,313.6-286.2,313.4z"/>
	<path class="st0" d="M-270.5,308.5c0.1,0,0.2-0.1,0.3-0.5c0.3-1,0.4-1.8,0.6-2.7c0.6-2.4,1.4-7.9,1.7-9.5c0-0.2,0.1-0.5,0-0.5
		c-0.2,0-0.5,0-0.9,0.2c-0.4,0.2-0.7,0.7-0.9,1.3c-0.6,2.9-1,5.5-1.4,8.2c0,0,0.1,0.1,0.1,0c0.4-1.8,0.6-3.6,0.9-5.1
		c0,0,0.1,0,0.1,0c-0.1,1.2-0.7,5.3-0.9,5.4c-0.1,0.1-0.3-0.1-0.3,0c-0.2,0.5-0.3,1.2-0.4,1.8c-0.1,0.3,0,0.6,0.1,0.8
		c0.1,0.3,1.1-2.3,1.4-4.3c0-0.3,0.1-0.2,0.1-0.1c-0.3,1.9-1,3.9-1.3,4.3C-271.3,308-271,308.5-270.5,308.5z M-261.6,309.5
		c-1-0.3-2.5-0.3-3.6-0.3c-0.1,0-0.1-0.1,0-0.1c0.7-0.1,3.8,0.1,3.8,0c0.1-0.3,0.1-0.9,0-0.9c-0.1,0-0.6,0-2.6,0.2
		c-1.5,0.1-5.2,0.4-5.3,0.6c0,0-0.1,1.4,0.9,1.6c0.1,0,0.5,0.1,1.3,0c1.1-0.2,2.4-0.5,3.7-0.5c0,0,0-0.1,0-0.1c-1.3,0-2,0-3,0.1
		c-0.1,0-0.1-0.1,0-0.1c0.7-0.1,2.2-0.2,3.2-0.1c0,0-0.1,0.2,0,0.2c0.4,0,0.8,0,1.2,0C-261.8,309.9-261.6,309.5-261.6,309.5z
		 M-267.2,307.8c0.9-0.1,3.2-0.3,4.3-0.3c0.5,0,1.2,0,1.3-0.1c0-0.1,0-0.2-0.1-0.2c-0.4,0-1,0-1.6,0c-0.1,0-0.1-0.1,0-0.1
		c0.5,0.1,1.2,0,1.5-0.1c0.1,0-0.2-0.6-0.6-0.7c-0.4-0.1-2.1-0.1-2.9,0c-0.9,0.1-1.7,0.1-2.3,0.2c0.2-1.1,0.4-2.1,0.7-3.3
		c0.9-0.1,1.5-0.2,2.3-0.3c0.1,0,0.1-0.1,0-0.1c0,0-1.5,0-1.6,0c-0.1,0-0.1-0.1,0-0.1c0.6,0,1.9-0.2,1.9-0.1c0.1,0.1-0.1,0.3,0,0.3
		c0.1,0,0.4,0,0.8-0.1c0.1,0,0.3-0.2,0.2-0.3c-0.1-0.1-0.6-0.4-1.8-0.3c-0.1,0-0.1-0.1,0-0.1c1.5,0,1.7,0.2,1.9,0.2
		c0.1,0,0.2-0.4,0.2-0.8c0-0.4-0.1-0.3-0.8-0.2c-0.3,0-3.6,0.4-4.1,0.4c0,0.5-0.7,3.4-0.8,4.2c-0.2,0.9-0.3,1.5-0.4,2
		c0,0.2,0,0.2,0,0.2C-268.4,308-268,307.9-267.2,307.8z M-259.1,293.9c-0.2,0-0.4,0.1-1,0.2c-2.6,0.5-3.4,0.4-3.9,0.5
		c-0.1,0,0,0.1,0.1,0.1c0.4,0,3.1-0.4,4.5-0.6c0,0,0,0.1,0,0.1c-1.8,0.2-5.2,0.6-7,0.8c-0.2,0-0.3,0-0.5,0c-0.1,0-0.1,0.3-0.1,0.6
		c-0.2,1.5-0.7,4.3-0.8,5c0.6,0,1.1,0,2-0.1c0.5,0,1.8-0.1,2.4-0.3c0.1,0,0-0.3-0.1-0.3c-0.3,0-1.5-0.1-1.8-0.2
		c-0.1-0.1-0.1-0.1,0-0.1c0.5,0.1,0.9,0.1,1.8,0.1c0.1,0-0.2-0.5-0.4-0.5c-0.2-0.1-0.7,0-1.3,0c-0.4,0-1,0.1-1,0.1
		c0.1-0.7,0.3-1.7,0.4-2.4c0-0.2,0.1-0.4,0.1-0.5c1.6-0.3,3.5-0.5,4.2-0.5c0.1,0,0.1-0.1,0-0.1c-0.7,0-3.1,0.3-3.7,0.4
		c-0.1,0-0.1-0.1,0-0.1c1.4-0.3,3.9-0.6,4-0.5c0.1,0.1,0,0.3,0,0.3c0.6-0.1,0.9-0.1,1.5-0.2c0.3-0.1,0.5-0.5,0.4-0.5
		c-1.4-0.3-3-0.2-4.5,0c-0.1,0-0.1,0,0-0.1c0.6-0.1,1.5-0.2,2.1-0.2c0.8-0.1,1.6-0.1,2.4,0.1c0.1,0,0.2-0.1,0.2-0.3
		C-258.9,294.5-258.9,293.9-259.1,293.9z M-266.8,294.2c0,0.1,2.3-0.3,3.1-0.4c1-0.1,2.1-0.2,3.1-0.3c0,0,1.5-0.1,1.5-0.1
		c0-0.1-0.1-0.3-0.1-0.3c-0.6,0.1-1.4,0.2-2,0.1c-0.1,0-0.1-0.1,0-0.1c0.6,0,1.3-0.1,1.8-0.2c0.3-0.1-0.1-0.6-0.8-0.5
		c-0.8,0-2.2,0.2-3.1,0.3C-265.1,293.1-266.9,293.1-266.8,294.2z"/>
	<path class="st0" d="M-246.8,292c-0.8-0.9-3.3-1.3-5.9-0.8c-1.8,0.4-3.9,1.3-4.7,3.3c-0.7,1.7-0.5,3.3,0.4,4.6
		c0.7,1,1.8,1.5,2.7,1.8c1.2,0.4,2.4,0.4,3.6,0.8c0.6,0.2,0.9,0.7,0.6,1.4c-0.1,0.4-0.6,0.8-0.8,1c0,0,0,0.1,0,0.1
		c0.4-0.3,0.7-0.6,0.9-0.9c0.3-0.6,0.3-1.1-0.3-1.5c-0.6-0.4-1.3-0.4-1.9-0.6c-1.8-0.4-3.4-0.8-4.2-1.8c0,0,0-0.1,0.1-0.1
		c1,1,2.5,1.4,4.2,1.7c0.7,0.1,1.4,0.2,2,0.7c0.5,0.4,0.6,1,0.2,1.7c-0.2,0.3-0.6,0.7-1,1c-0.9,0.5-3.1,0.8-4.2,0.4
		c-0.3-0.1-0.7,0.1-0.6,0.1c1.1,0.5,2,0.5,3.4,0.3c1.4-0.2,2.3-0.9,2.7-1.5c0.3-0.4,0.4-0.9,0.3-1.3c-0.1-0.6-0.4-0.9-1-1
		c-0.1,0,0-0.1,0.1,0c0.6,0.2,0.8,0.4,0.9,1c0.1,0.4,0,1-0.2,1.5c-0.4,0.7-1.3,1.4-2.7,1.6c-1.6,0.3-2.3,0.3-3.7-0.2
		c-0.2-0.1-1.1,0.4-0.9,0.5c2.1,1,4.9,0.7,6.6-0.3c1-0.6,1.7-1.4,1.7-3.1c0-0.8-0.5-1.5-1.8-1.9c-2.1-0.7-3.5-0.6-4.6-1.4
		c-0.7-0.6-1.3-1.3-1.4-2.3c-0.1-1.3,0.7-2.4,1.7-3c2.1-1.3,5.7-1.8,7.9-0.3C-246.5,293.2-246.5,292.4-246.8,292z M-246.4,301.1
		c-0.7-2.4-2-2.9-5.4-3.7c-0.2,0-0.9-0.2-1.4-0.3c-0.6-0.2-0.8-1-0.6-1.3c0.5-0.9,2.1-1.4,3.6-1.4c0.8,0,1.6,0.2,1.9,0.3
		c0.7,0.2,1.8-0.7,1.3-0.9c-2.1-1.2-5.3-0.9-7.3,0.4c-0.9,0.6-1.5,1.7-1.1,2.9c0.4,1,1.5,1.5,3.6,1.9c2.5,0.5,3.7,1.1,3.9,3
		c0.2,1.8-0.9,3.3-2,4c-2.5,1.5-5.1,1.4-7.7,0.5c-0.1,0-0.1,0.6,0,0.7c0.7,0.4,3.6,1.1,5.7,0.6c2.6-0.7,3.4-1.5,4.3-2.9
		c0.5-0.7,0.6-1.7,0.8-2.6c0,0,0.1,0,0.1,0c-0.1,0.9-0.4,1.9-0.8,2.6c-0.8,1.3-1.7,2.2-4.4,3c-2,0.5-4.8-0.1-5.6-0.5
		c-0.2-0.1,0,0.3,0.2,0.4c3.4,1.4,7.5,0.4,9.2-1.5C-246.7,304.8-246,302.5-246.4,301.1z"/>
</g>
</svg>
