<?xml version="1.0" encoding="utf-8"?>
<!-- Generator: Adobe Illustrator 16.0.0, SVG Export Plug-In . SVG Version: 6.00 Build 0)  -->
<!DOCTYPE svg PUBLIC "-//W3C//DTD SVG 1.1//EN" "http://www.w3.org/Graphics/SVG/1.1/DTD/svg11.dtd">
<svg version="1.1" id="Layer_1" xmlns="http://www.w3.org/2000/svg" xmlns:xlink="http://www.w3.org/1999/xlink" x="0px" y="0px"
	 width="100px" height="100px" viewBox="0 0 100 100" enable-background="new 0 0 100 100" xml:space="preserve">
<g>
	<path fill="#F4F4F4" d="M38.2,28.7c2.9-3.2,6.7-4.9,11.3-4.8c4.7,0,8.4,1.8,11.2,5c0.2-0.1,0.399-0.3,0.7-0.4
		c0.199-0.1,0.5-0.2,0.699-0.2c1.101,0,2,0.4,2.801,1c0.1,0.1,0.199,0.2,0.3,0.3c0.3,0.3,0.7,0.3,1.1,0.4c0.9,0.2,1.7,0.5,2.4,1
		c0.3,0.2,0.6,0.4,1,0.5c0.3,0,0.5,0.1,0.8,0.2c0.6,0.1,1.1,0.4,1.6,0.7c0.5,0.3,0.9,0.6,1.5,0.7c0.2,0,0.301,0.1,0.5,0.1
		c0.801,0.1,1.5,0.3,2.103,0.6c0.698,0.3,1.3,0.7,1.897,1c0.603,0.3,1.2,0.7,1.801,0.8c0.399,0.1,0.899,0.1,1.302-0.1
		c0.5-0.3,0.5-0.6,0.3-1c-0.199-0.4-0.602-0.8-1-1.1c-0.398-0.4-0.898-0.8-1.3-1.2c-0.399-0.4-0.5-0.9-0.399-1.4
		c0.102-0.4,0.399-0.7,0.699-0.9c0.7-0.5,1.5-0.8,2.301-0.9c0.399-0.1,0.801-0.2,1-0.6c0.301-0.4,0.602-0.2,0.699,0.1
		c0.301,0.9,0.301,2.1-0.699,2.7c-0.301,0.2-0.699,0.3-1.101,0.4c-0.103,0-0.2,0.1-0.399,0.1c0.199,0.1,0.301,0.2,0.399,0.3
		c0.601,0.5,1.101,1.1,1.5,1.7C83.9,35,83.4,36.3,82.1,37c-0.699,0.4-1.5,0.5-2.397,0.5c-0.302,0-0.2,0-0.302,0.2
		c0,0.5,0,0.9-0.101,1.4c0,0.2-0.1,0.3-0.2,0.5C79,39.9,79.1,40,79.4,40c0.199,0,0.5,0,0.699,0c0.698,0.1,0.698,0.3,0.898,0.8
		c0.102,0.3,0.199,0.6,0.3,0.9c0,0.1,0.103,0.1,0.103,0.2c0.1-0.1,0.199-0.2,0.3-0.3c0.2-0.1,0.399-0.2,0.6-0.2c0.101,0,0.3,0,0.3,0
		c0.4,0.2,0.801,0.5,1.2,0.8l0.101,0.1c0,0.3,0.302,0.4,0.5,0.5c0.302,0.2,0.5,0.5,0.602,0.8c0,0.3,0.102,0.5,0.2,0.8
		c0.198,0.4,0.101,0.7-0.399,0.8c-0.301,0.1-0.699,0.2-1,0.2c-0.101,0-0.199,0-0.301,0s-0.199-0.1-0.398-0.1
		c-0.302,0-0.602,0-0.899,0c-0.601,0-1-0.2-1.3-0.6L80.8,44.6c-0.1-0.2-0.2-0.2-0.5-0.1c-0.6,0.2-1.1,0.1-1.6-0.3
		c-0.601-0.4-1.3-0.8-2-0.9c-0.4-0.1-0.7,0-1,0.1c-0.601,0.1-1.101,0-1.5-0.2c-0.4-0.3-0.9-0.5-1.3-0.8
		c-0.301-0.3-0.5-0.7-0.603-1.1c0-0.2-0.101-0.4-0.101-0.5c0-0.1-0.102-0.1-0.199-0.1c-0.398,0-0.898,0.1-1.301,0.1
		c-0.199,0-0.5-0.1-0.699-0.1c-0.602,0-1.102,0-1.7,0.1C67.5,40.9,66.7,41,65.9,41c-0.2,0-0.4,0-0.5,0.2c0.3,0.2,0.699,0.4,1.1,0.3
		c0.4,0,0.7,0,1.1,0c0.4,0,0.801,0.2,0.7,0.7v0.1c-0.3,0.4-0.6,0.8-0.899,1.1c-0.101,0.1-0.198,0.1-0.301,0.1
		c-0.1,0-0.199,0.1-0.199,0.2c-0.198,0.5-0.601,0.8-1.101,1.1c-0.3,0.1-0.7,0.1-1,0c-0.8-0.2-1.5-0.4-2.3-0.6
		c-0.2-0.1-0.4-0.2-0.5-0.3s-0.2-0.1-0.4-0.1c-0.199,0-0.5,0.1-0.699-0.1c-0.101-0.1-0.198-0.2-0.301-0.3c0,0-0.1-0.1-0.1-0.2
		C57.8,46.3,54,48,49.3,48c-4.7,0-8.4-1.8-11.3-5l-0.1,0.1c-0.2,0.3-0.5,0.6-1,0.6c-0.6,0-1.1,0.2-1.7,0.4c-0.6,0.2-1.2,0.4-1.8,0.6
		c-0.7,0.2-1.4,0-1.9-0.6c0,0,0,0,0-0.1c-0.2-0.3-0.4-0.5-0.8-0.5c-0.1,0-0.4-0.1-0.4-0.2c-0.3-0.4-0.6-0.7-0.8-1.1
		c-0.2-0.4,0-0.8,0.6-1c0.5-0.1,1-0.2,1.4-0.1c0.5,0.1,1-0.2,1.4-0.2c-0.2-0.1-0.4-0.4-0.8-0.3c-0.6,0.1-1.3,0-2,0
		c-0.3,0-0.6-0.1-0.9-0.1c-0.6-0.1-1.1,0-1.7,0.1c-0.3,0-0.5,0.1-0.8,0.1c-0.1,0-0.2,0-0.2,0.1c-0.3,0.5-0.5,0.9-0.8,1.4
		c-0.1,0.2-0.3,0.3-0.6,0.4c-0.4,0.2-0.8,0.4-1.2,0.6c-0.5,0.2-1,0.3-1.5,0.2c-0.4,0-0.8-0.1-1.1-0.1c-0.4,0-0.7,0.1-0.9,0.3
		c-0.4,0.4-1,0.6-1.5,0.8c-0.2,0.1-0.4,0-0.6,0c-0.1,0-0.3-0.1-0.4-0.1s-0.2,0.1-0.2,0.1c-0.2,0.2-0.3,0.4-0.5,0.6
		c-0.2,0.3-0.5,0.4-0.9,0.4c-0.5,0-1-0.1-1.4-0.1c-0.1,0-0.1,0-0.2,0c-0.3,0.2-0.6,0.1-0.9,0c-0.2-0.1-0.4-0.1-0.6-0.2
		c-0.3-0.1-0.5-0.5-0.3-0.7c0.2-0.3,0.3-0.6,0.3-0.9s0.3-0.6,0.6-0.8c0.2-0.1,0.4-0.2,0.6-0.5c0.1-0.2,0.4-0.4,0.7-0.5
		c0.2-0.1,0.4-0.2,0.6-0.3c0.3-0.1,0.6,0,0.8,0.1c0.1,0.1,0.2,0.2,0.4,0.3c0.1,0.1,0.3,0.1,0.3,0c0.1-0.2,0.2-0.3,0.3-0.5
		c0.1-0.3,0.3-0.5,0.4-0.8c0.2-0.3,0.6-0.3,0.9-0.3c0.4,0,0.8-0.1,1.2-0.3c0.2-0.1,0.2-0.2,0.1-0.4c-0.3-0.6-0.4-1.2-0.4-1.8v-0.1
		c-0.3,0-0.7,0-1,0.1c-0.7,0-1.3,0-1.9-0.3c-0.8-0.4-1.3-1-1.5-1.7c-0.3-0.8-0.1-1.6,0.5-2.4c0.5-0.6,1.1-1,1.7-1.5c0,0,0,0,0.1-0.1
		c-0.2,0-0.3,0-0.5-0.1c-0.9-0.1-1.8-0.8-2.1-1.5c-0.2-0.6-0.1-1.1,0.2-1.7c0.1-0.2,0.4-0.2,0.6-0.1c0.3,0.1,0.5,0.3,0.8,0.4
		c0.3,0.2,0.7,0.3,1.1,0.4c0.6,0.1,1.1,0.2,1.6,0.5c0.7,0.4,1.1,1.1,0.8,1.8c-0.2,0.7-0.8,1.1-1.4,1.5c-0.5,0.4-1,0.8-1.4,1.3
		c-0.4,0.6,0,1.3,0.7,1.5c0.6,0.2,1.2,0,1.7-0.2c0.9-0.4,1.7-0.9,2.4-1.4c0.5-0.3,1-0.5,1.6-0.6c0.4-0.1,0.9-0.1,1.3-0.2
		c0.6-0.1,1.1-0.3,1.5-0.7c0.6-0.5,1.2-0.9,2-1.1c0.3-0.1,0.7-0.1,1-0.1s0.5-0.1,0.7-0.3c0.5-0.5,1.2-0.9,1.9-1.1
		c0.7-0.2,1.4-0.4,2.1-0.7c0.4-0.1,0.7-0.4,1.1-0.6c0.7-0.3,1.4-0.5,2.2-0.3C37.8,28.6,38,28.6,38.2,28.7z"/>
	<path fill="#DDDDDE" d="M65.2,60.6c0.7,0.301,1.399,0.7,2,1.103C68.1,62.4,68.6,63.4,68.7,64.4c0.1,0.898,0.1,1.801-0.3,2.601
		c-0.801,1.7-2.2,2.7-4.103,3.2c-0.698,0.199-1.397,0.3-2.101,0.3c-2.899,0-5.801,0-8.699,0c-0.102,0-0.2,0-0.301,0
		c0-6.101,0-12.101,0-18.2c0.101,0,0.301,0,0.398,0c2.2,0,4.4,0,6.602,0c1,0,2,0.102,3,0.301C65,53,66,54,66.6,55.4
		c0.7,1.897,0.301,3.5-1.3,5C65.3,60.5,65.3,60.5,65.2,60.6z M57.8,55.6c0,3.9,0,7.7,0,11.603c0.101,0,0.101,0,0.101,0
		c1.199,0,2.5,0,3.699,0c0.4,0,0.9-0.103,1.301-0.302c1-0.5,1.302-1.301,1.302-2.301c-0.103-1-1.103-1.897-2.302-2
		c-0.898,0-1.801,0-2.698,0c-0.103,0-0.2,0-0.2,0c0-1.1,0-2.3,0-3.397c0.5,0,1,0,1.5,0c1.102,0,2-0.802,2.102-1.7
		c0.101-1-0.699-1.898-1.801-2C59.8,55.6,58.8,55.6,57.8,55.6z"/>
	<path fill="#DDDDDE" d="M3.1,52.3c0.1,0,0.1,0,0.1,0c2.6,0,5.2-0.1,7.9,0c2.9,0.101,5.2,1.9,5.8,4.3c0.7,2.9-1.4,5.603-4.5,6.301
		c0,0,0,0-0.1,0c2,2.5,4,5,6.1,7.602c-0.1,0-0.2,0-0.2,0c-1.6,0-3.3,0-4.9,0c-0.1,0-0.2,0-0.3-0.102c-1.4-1.898-2.8-3.801-4.2-5.698
		c0-0.103-0.1-0.2-0.1-0.2c0-1.398,0-2.8,0-4.102V60.3c0.4,0,0.8,0,1.1,0c1.2,0,2.1-0.5,2.6-1.399c0.7-1.301-0.2-2.801-1.7-3.101
		c-0.4-0.1-0.9-0.1-1.3-0.1c-0.6,0-1.1,0-1.7,0c0,5,0,10,0,15c-1.5,0-3,0-4.5,0C3.1,64.4,3.1,58.4,3.1,52.3z"/>
	<path fill="#DDDDDE" d="M47.7,70.5c-1.4,0-2.8,0-4.2,0c0-0.4,0-0.7,0-1.1c-0.1,0-0.1,0-0.1,0.1c-2.6,2.1-6.4,1.8-8.6-0.6
		C32.7,66.6,32.6,63.3,34.7,61c1.3-1.4,3-2.2,5-2.1c1.4,0.1,2.6,0.5,3.6,1.3c0,0,0.1,0,0.1,0.1c0-3,0-5.899,0-8.899
		c1.4,0,2.8,0,4.2,0C47.7,57.7,47.7,64.1,47.7,70.5z M40.4,61.9c-0.2,0.1-0.6,0.1-1,0.199c-2,0.801-2.4,3.398-0.8,4.801
		c1.2,1,2.9,0.897,4-0.103c0.9-0.897,1.2-2.3,0.5-3.397C42.6,62.5,41.7,62,40.4,61.9z"/>
	<path fill="#DDDDDE" d="M31.3,65.6c-3,0-6,0-9,0c-0.1,0.801,0.5,1.7,1.6,2.103c1.3,0.5,3,0.1,3.7-1.2c1.1,0.5,2.3,0.898,3.5,1.398
		c-0.3,0.302-0.5,0.602-0.7,0.899c-1.1,1.101-2.5,1.8-4.2,2c-1.5,0.2-3,0.101-4.4-0.399c-2.1-0.898-3.4-2.398-3.9-4.398
		c-0.6-2.602,0.8-5.3,3.4-6.602c1.4-0.698,2.9-0.898,4.4-0.698c1.3,0.198,2.4,0.5,3.4,1.3c1.2,0.898,1.8,2,2.1,3.3
		C31.3,64.1,31.4,64.8,31.3,65.6z M27.1,63.4C27,62.1,25.8,61.2,24.4,61.3C23,61.4,22.2,62.6,22.2,63.4
		C23.8,63.4,25.5,63.4,27.1,63.4z"/>
	<path fill="#DDDDDE" d="M78.9,59.3c1.397,0,2.8,0,4.199,0c0,0.101,0,0.101,0,0.2c0,2.4,0,4.7,0,7.1c0,1.2-0.602,2.103-1.5,2.9
		c-1.199,1-2.602,1.4-4.199,1.6C75.9,71.2,74.4,71,73,70.4c-1.1-0.5-2-1.2-2.5-2.301C70.3,67.7,70.2,67.2,70.2,66.7
		c0-2.4,0-4.8,0-7.2c0,0,0,0,0-0.1c1.399,0,2.8,0,4.2,0c0,0.397,0,0.8,0,1.199c0,1.801,0,3.601,0,5.398c0,1,1,1.8,2.1,1.898
		c1.3,0.102,2.2-0.698,2.4-1.398c0-0.2,0.1-0.3,0.1-0.5c0-2.102,0-4.3,0-6.398C78.9,59.5,78.9,59.4,78.9,59.3z"/>
	<path fill="#DDDDDE" d="M92.2,51.3c1.399,0,2.8,0,4.2,0c0,6.4,0,12.8,0,19.2c-1.4,0-2.801,0-4.2,0C92.2,64.1,92.2,57.8,92.2,51.3z"
		/>
	<path fill="#DDDDDE" d="M85.2,51.3c1.399,0,2.8,0,4.2,0c0,6.4,0,12.8,0,19.2c-1.4,0-2.801,0-4.2,0C85.2,64.1,85.2,57.8,85.2,51.3z"
		/>
	<g>
		<path fill="#DDDDDE" d="M83.3,43.7c0-0.1-0.1-0.1-0.2-0.1c-0.3,0-0.6-0.2-0.699-0.4c-0.301-0.3-0.601-0.6-1-0.9
			C81.3,42.2,81.1,42,81.1,41.9c-0.1-0.3-0.199-0.7-0.397-1C80.6,40.6,80.4,40.5,80.1,40.5c-0.199,0-0.5,0-0.699,0
			c-0.5-0.1-0.898-0.4-0.601-1c0.3-0.6,0.4-1.3,0.101-2c0-0.1,0-0.3,0-0.3c0-0.1,0.199,0,0.399,0c0.8,0.2,1.5,0.2,2.3-0.1
			c1-0.4,1.9-1.4,1.4-2.6c-0.3-0.7-0.7-1.2-1.3-1.7c-0.3-0.3-0.7-0.6-1-0.9C80.6,31.8,80.6,31.7,80.6,31.6s0.2-0.1,0.301-0.1
			c0.302,0,0.5-0.1,0.802-0.1c0.601-0.1,1-0.4,1.3-0.9c0.2-0.4,0.301-0.9,0.102-1.3c0-0.1-0.102-0.1-0.102-0.2
			c-0.102,0-0.199,0.1-0.199,0.1c-0.301,0.2-0.601,0.4-1,0.4c-0.699,0.1-1.398,0.3-1.898,0.7C79.1,30.7,79,31.3,79.6,32
			c0.301,0.4,0.7,0.7,1,1c0.5,0.4,1,0.8,1.2,1.3c0.4,0.8,0.2,1.3-0.6,1.7c-0.7,0.3-1.5,0.2-2.2-0.1c-0.8-0.4-1.6-0.9-2.4-1.3
			c-0.8-0.5-1.699-0.8-2.6-0.9c-0.7-0.1-1.4-0.3-1.9-0.7c-0.699-0.5-1.6-0.9-2.5-1c-0.199,0-0.5-0.2-0.699-0.3
			c-0.198-0.1-0.5-0.3-0.698-0.5c-0.802-0.5-1.7-0.7-2.603-0.9c-0.3-0.1-0.5-0.2-0.699-0.4c-0.398-0.4-0.898-0.7-1.398-0.9
			c-0.8-0.3-1.5-0.3-2.199,0.2c-0.801,0.6-1.601,1.1-2.398,1.7c-0.9,0.6-1.801,1.2-2.7,1.9c-1,0.7-1.7,1.6-2.101,2.8
			C53.7,36.8,53.3,38,52.9,39.3C52.6,40.1,52.3,40.9,51.6,41.5c-0.3,0.3-0.699,0.6-1.1,0.9c-0.1,0-0.1,0.1-0.1,0.2s0.1,0.1,0.2,0.1
			c0.7,0.1,1.301-0.2,1.603-0.7c0.3-0.4,0.698-0.8,1-1.2c0-0.1,0.101-0.1,0.198-0.1l0,0c0,0.1,0,0.1-0.101,0.2
			c-0.3,0.4-0.5,0.9-0.8,1.3c-0.3,0.3-0.6,0.6-0.9,0.9c-0.1,0.1-0.1,0.2-0.1,0.2c0.1,0,0.2,0.1,0.3,0.1c0.5,0,0.9-0.1,1.3-0.4
			c0.4-0.3,0.7-0.5,1.103-0.8c0.101-0.1,0.3-0.1,0.397,0c0.2,0.1,0.301,0.2,0.5,0.4c0.2,0.1,0.4,0.2,0.7,0.2c0.5-0.1,1-0.1,1.4,0
			c0.399,0.1,0.8,0.3,1.1,0.4c0.2,0.1,0.5,0.1,0.7,0.1c0.4-0.1,0.7-0.6,0.6-1c0-0.1,0-0.2-0.1-0.3c0.1,0,0.2,0,0.3,0
			c0.3,0,0.4-0.2,0.3-0.4C60,41.5,60,41.3,59.9,41.2c-0.2-0.3-0.301-0.5-0.5-0.8C59.3,40.2,59.1,40,59,39.8
			c-0.2-0.3-0.4-0.5-0.6-0.8c0-0.1-0.103-0.2-0.103-0.2s0,0,0.103,0c0.1,0.1,0.3,0.2,0.397,0.3c0.302,0.2,0.603,0.4,1,0.5
			c0.5,0.2,1.103,0.1,1.7,0.1c0.199,0,0.3-0.1,0.199-0.3c-0.199-0.4-0.399-0.9-0.602-1.3c-0.199-0.5-0.199-1-0.1-1.5
			c0-0.1,0.1-0.1,0.1-0.2c0,0.1,0.102,0.1,0.102,0.2c0,0.3,0.101,0.6,0.101,0.8c0.103,0.5,0.2,0.9,0.5,1.4c0.2,0.4,0.603,0.6,1,0.8
			c0.399,0.2,0.399,0.5,0.2,0.8c-0.2,0.3-0.5,0.6-0.7,0.9C62,41.6,61.9,42,61.9,42.4c0,0.1,0,0.1,0,0.2
			c-0.103-0.1-0.103-0.1-0.2-0.2c-0.2-0.4-0.3-0.8,0.1-1.2c0.2-0.3,0.5-0.6,0.7-0.9c0.2-0.2,0.2-0.3-0.1-0.4
			c-0.5-0.2-0.5-0.1-0.801,0.2c-0.302,0.4-0.5,0.8-0.802,1.2c-0.101,0.2-0.198,0.4-0.101,0.7c0.1,0.3,0.199,0.7,0.398,1
			c0.102,0.4,0.2,0.4,0.7,0.4c0.3,0,0.5,0,0.7,0.2c0.1,0.1,0.4,0.2,0.6,0.3c0.7,0.2,1.4,0.4,2.102,0.5c0.199,0.1,0.5,0,0.699,0
			c0.399-0.1,0.602-0.4,0.699-0.8c0-0.2,0.102-0.4,0.4-0.4c0.298,0,0.4-0.1,0.6-0.3c0.102-0.2,0.301-0.4,0.4-0.6
			c0.1-0.1,0.1-0.2,0.1-0.3s-0.199-0.1-0.3-0.1c-0.3,0-0.7,0-1,0c-0.399,0-0.601,0.1-0.8,0.4c-0.1,0.2-0.2,0.3-0.301,0.5
			c-0.1,0.2-0.299,0.3-0.5,0.3c-0.5,0-1.1-0.1-1.5-0.5c-0.299-0.2-0.299-0.5-0.1-0.7c0.198-0.2,0.5-0.4,0.698-0.7
			c0.103-0.1,0.2-0.2,0.399-0.2c0.5-0.1,0.898-0.4,1.199-0.8c0.102-0.1,0.102-0.3,0.199-0.5c0-0.1,0.102-0.1,0.2-0.2
			c0,0.1,0.101,0.1,0.101,0.2c0,0,0,0.1,0,0.2c-0.101,0.2-0.101,0.3-0.199,0.5c0.699,0,1.301,0,2-0.1c0.5-0.1,1.101-0.1,1.601-0.2
			c0.603,0,1.302,0,1.899,0c0.6,0,1.101-0.3,1.301-0.8c0.102-0.2,0.102-0.4,0.102-0.6c0-0.4-0.102-0.8-0.199-1.2
			c0-0.1,0-0.1,0.1-0.2c0.1,0,0.199,0.1,0.199,0.1c0.101,0.3,0.201,0.7,0.301,1c0.199,0.7,0.199,1.3,0.6,2
			c0.5,0.9,1.301,1.3,2.5,1.3c0.5,0,1.102-0.1,1.602,0c0.898,0.1,1.601,0.5,2.199,1.1c0,0,0,0.1,0.102,0.2c0,0,0,0-0.102,0
			c-0.301-0.2-0.5-0.3-0.801-0.5C78.8,42,77.9,41.8,76.9,41.9C76.3,42,75.8,42,75.2,41.7c-0.9-0.4-1.4-1-1.8-1.7
			c0-0.1-0.103-0.1-0.2-0.1C73.1,40,73.1,40,73.1,40.1c0,0.2,0,0.3,0.103,0.5c0.101,0.5,0.198,1,0.601,1.3
			c0.301,0.2,0.602,0.4,0.899,0.5c0.397,0.2,0.8,0.3,1.198,0.2c0.399-0.1,0.802-0.1,1.102,0c0.898,0.1,1.602,0.4,2.301,0.9
			c0.399,0.3,0.899,0.4,1.301,0.1c0.301-0.2,0.5-0.1,0.699,0.1c0.102,0.1,0.199,0.2,0.199,0.3c0.2,0.1,0.301,0.3,0.5,0.4
			c0.398,0.2,0.898,0.1,1.398,0.1c0,0,0.102-0.1,0.102-0.2C83.5,44.3,83.4,44,83.3,43.7z M56.8,41.6c-0.399,0-0.7-0.3-0.7-0.6
			c0-0.1,0.103-0.1,0.103-0.1c0.3-0.1,0.8,0.2,0.8,0.5C57.1,41.5,57,41.6,56.8,41.6z M57.2,38c-0.101,0-0.3,0-0.3-0.1
			c-0.301-0.3-0.4-0.4-0.801-0.1C55.7,38,55.3,38.3,55.2,38.7c0,0.1,0,0.2-0.101,0.3c0,0.1-0.102,0.1-0.199,0.2
			C54.8,39.1,54.8,39,54.7,39v-0.1c0-0.5,0.2-0.9,0.6-1.2c0.3-0.3,0.601-0.6,0.9-0.9c0.2-0.2,0.3-0.2,0.5,0
			c0.2,0.3,0.399,0.6,0.6,0.9C57.4,37.7,57.2,37.9,57.2,38z M62.3,31.7c-0.1,0.1-0.2,0.2-0.399,0.4c-0.601,0.5-1.198,1-1.601,1.7
			c0,0,0,0-0.1,0.1C60,33.7,60.1,33.6,60.1,33.4c0.2-0.7,0.7-1.3,1.301-1.7c0.102-0.1,0.302-0.2,0.5-0.2
			C62.3,31.3,62.4,31.5,62.3,31.7z"/>
		<path fill="#DDDDDE" d="M85.1,44.5C84.9,44.2,84.9,43.9,84.9,43.6c0-0.2-0.4-0.5-0.603-0.5s-0.5,0.3-0.5,0.5c0,0,0,0,0,0.1
			c0.103,0.4,0.2,0.8,0.399,1.2c0,0,0.101,0.1,0.199,0.1c0.199,0,0.399-0.1,0.602-0.2C85.1,44.7,85.1,44.6,85.1,44.5z"/>
		<path fill="#DDDDDE" d="M65,41.5L65,41.5c-0.2,0-0.3,0-0.5,0c-0.1,0-0.2,0-0.2,0.1c-0.1,0.2-0.2,0.3-0.2,0.5c0,0.2,0,0.3,0.2,0.4
			s0.5,0.1,0.8,0.1c0.103,0,0.301-0.1,0.301-0.2c0.102-0.2,0.199-0.5,0.302-0.8c0-0.1,0-0.2-0.2-0.2C65.3,41.5,65.2,41.5,65,41.5z"
			/>
		<path fill="#DDDDDE" d="M83.7,42.4c-0.3-0.2-0.601-0.4-0.9-0.6c-0.2-0.1-0.3,0-0.5,0.1c-0.1,0.1-0.2,0.2-0.1,0.4
			c0.2,0.2,0.3,0.4,0.5,0.6c0.1,0.1,0.2,0.1,0.399,0.2c0.198-0.1,0.398-0.2,0.5-0.3C83.8,42.7,83.8,42.6,83.7,42.4z"/>
	</g>
	<g>
		<path fill="#DDDDDE" d="M48.4,41.9c-0.6-0.2-0.9-0.6-1.2-1c-0.2-0.3-0.5-0.7-0.8-1c-0.2-0.2-0.4-0.3-0.4-0.6
			c-0.4-1.1-0.8-2.3-1-3.5c-0.1-0.5-0.2-1-0.5-1.4c-0.4-0.6-0.9-1.1-1.4-1.7c-0.4-0.5-0.8-0.9-1.3-1.3c-0.6-0.5-1.3-1-2-1.4
			c-0.5-0.3-0.9-0.7-1.5-0.9c-1-0.5-2-0.5-3,0.1c-0.7,0.4-1.5,0.8-2.3,1c-1,0.2-1.9,0.6-2.6,1.3c-0.3,0.3-0.7,0.4-1.1,0.4
			c-0.1,0-0.3,0-0.4,0c-0.7,0.1-1.4,0.4-1.9,0.9c-0.6,0.6-1.4,0.9-2.4,1c-0.6,0-1.2,0.1-1.8,0.4c-0.4,0.2-0.8,0.5-1.2,0.7
			C20.9,35.5,20,36,19,36.2c-0.4,0.1-0.9,0.1-1.3-0.1c-1.1-0.5-1.2-1.6-0.6-2.3c0.3-0.4,0.7-0.7,1.1-1c0.5-0.4,0.9-0.7,1.3-1.1
			c0.4-0.5,0.3-1.4-0.5-1.8c-0.5-0.2-0.9-0.3-1.4-0.4s-1-0.2-1.4-0.5c-0.2-0.1-0.4-0.3-0.7-0.4c-0.3,0.4-0.3,0.8-0.1,1.3
			c0.3,0.7,1.1,1.3,2,1.2c0.2,0,0.4,0,0.5,0s0.3,0.1,0.3,0.2c0.1,0.1,0,0.3-0.1,0.4c-0.2,0.1-0.4,0.3-0.6,0.5
			c-0.5,0.4-1,0.8-1.4,1.3c-0.5,0.6-0.6,1.3-0.4,2.1c0.3,1,1.5,1.7,2.6,1.7c0.6,0,1.1-0.1,1.7-0.2c0.2,0,0.3,0,0.3,0.2
			c0,0.1,0,0.1,0,0.2c0,0.4,0,0.8,0.1,1.2c0.1,0.3,0.2,0.7,0.4,1c0.1,0.2,0,0.3-0.2,0.5c-0.5,0.4-1.1,0.6-1.8,0.5
			c-0.2,0-0.3,0.1-0.4,0.2s-0.2,0.3-0.2,0.4c-0.1,0.2-0.2,0.5-0.3,0.7c-0.2,0.3-0.6,0.5-0.9,0.7c-0.2,0.1-0.3,0.2-0.4,0.4
			c-0.2,0.2-0.4,0.5-0.7,0.5c-0.3,0-0.4,0.2-0.5,0.4c-0.1,0.3-0.2,0.6-0.3,0.9l0.1,0.1c0.2,0.1,0.5,0.1,0.7,0.1
			c0.6,0.1,1.1-0.1,1.4-0.6c0.1-0.1,0.2-0.2,0.3-0.4c0.1-0.2,0.3-0.2,0.6-0.2c0.2,0,0.5,0.1,0.7,0.1c0.4-0.1,0.8-0.4,1.2-0.6
			c0.2-0.1,0.4-0.3,0.6-0.4c0.5-0.2,1-0.1,1.5,0c0.7,0.1,1.4,0.2,2-0.3c0.2-0.1,0.4-0.2,0.6-0.3c0.3-0.1,0.5-0.2,0.6-0.4
			c0.2-0.3,0.4-0.7,0.6-1c0-0.1,0.1-0.2,0.1-0.2c0-0.2-0.1-0.3-0.3-0.3c-0.1,0-0.2,0.1-0.2,0.2c-0.1,0.1-0.1,0.2-0.2,0.2
			c-0.5,0.7-1.2,1.2-2.1,1.3c-0.5,0.1-1.1,0.1-1.6,0.1c-1.2,0-2.3,0.4-3.2,1.2c0,0-0.1,0-0.2,0.1c0-0.1,0-0.1,0-0.2
			c0.5-0.7,1.2-1.1,2.1-1.2c0.6-0.1,1.2-0.1,1.8-0.2c0.8-0.1,1.5-0.2,2.1-0.7c0.5-0.4,0.9-0.9,1-1.4c0.1-0.6,0.2-1.2,0.4-1.8
			c0-0.1,0.1-0.1,0.2-0.1s0.1,0.1,0.1,0.2c-0.1,0.6-0.2,1.1,0,1.7c0.1,0.3,0.3,0.6,0.7,0.6c0.4,0,0.8,0,1.1,0c0.7-0.1,1.5-0.1,2.2,0
			c0.6,0.1,1.1,0.2,1.7,0.1c0.4,0,0.5-0.1,0.4-0.5c0-0.1-0.1-0.3-0.1-0.4c0-0.1,0.1-0.1,0.1-0.2c0.1,0.1,0.1,0.1,0.2,0.2
			c0.1,0.4,0.3,0.8,0.7,1c0.3,0.2,0.7,0.4,1,0.6c0.4,0.2,0.7,0.5,0.9,0.9c0.3,0.5,0.2,0.7-0.3,1c-0.3,0.1-0.5,0.2-0.8,0.3
			c-0.5,0.2-0.9,0-1.2-0.4c-0.1-0.2-0.3-0.4-0.4-0.6c-0.2-0.3-0.5-0.5-1-0.5c-0.3,0-0.6,0.1-0.9,0.1c-0.3,0-0.4,0.2-0.3,0.5
			c0.2,0.3,0.4,0.6,0.6,0.8c0.1,0.1,0.2,0.1,0.3,0.2c0.1,0,0.2,0,0.3,0c0.2,0,0.4,0.1,0.5,0.2c0.1,0.2,0.2,0.3,0.3,0.4
			c0.3,0.4,0.9,0.6,1.3,0.5c0.8-0.2,1.5-0.5,2.3-0.7c0.4-0.1,0.7-0.2,1.1-0.2c0.4,0,0.7-0.1,0.9-0.5c0.2-0.3,0.3-0.5,0.5-0.8
			c0.2-0.3,0.2-0.7,0-1c-0.2-0.3-0.4-0.7-0.6-1c-0.1-0.1-0.1-0.3-0.2-0.4c-0.2-0.1-0.5-0.2-0.8-0.1c-0.2,0.1-0.3,0.1-0.2,0.3
			c0.2,0.4,0.5,0.9,0.7,1.3c0.2,0.3,0.3,0.6,0.1,1c-0.2,0.3-0.3,0.5-0.6,0.7c0-0.1,0-0.2,0-0.3c0.2-0.5,0.3-0.9-0.1-1.4
			c-0.3-0.4-0.6-0.9-0.9-1.4c-0.2-0.3-0.1-0.4,0.3-0.5c0.1,0,0.3,0,0.4-0.1c0.2-0.1,0.6-0.2,0.7-0.3c0.4-0.5,0.6-1,0.7-1.6
			c0-0.1,0.1-0.2,0.1-0.3c0.1,0.1,0.1,0.1,0.1,0.2c0.1,0.4,0.1,0.8-0.1,1.1c-0.1,0.3-0.3,0.6-0.4,0.8c-0.1,0.2-0.1,0.3,0.2,0.3
			c0.2,0,0.4,0,0.6,0c0.4-0.1,0.7-0.2,1.1-0.2c0.1,0,0.2,0,0.3,0c0.2,0,0.4-0.1,0.7-0.1c-0.1,0.1-0.1,0.2-0.1,0.2
			c-0.1,0.2-0.3,0.5-0.4,0.7c-0.1,0.1-0.1,0.2-0.2,0.3c-0.1,0.1-0.3,0.2-0.4,0.3c-0.1,0.2-0.2,0.3-0.3,0.5c-0.1,0.2,0,0.3,0.2,0.2
			c0.1,0,0.2,0,0.3,0c0,0.1-0.1,0.2-0.1,0.3l-0.1,0.1c-0.2,0.2-0.2,0.4-0.1,0.6c0,0.1,0,0.2,0.1,0.3c0.1,0.3,0.3,0.4,0.6,0.4
			c0.4,0,0.9-0.1,1.2-0.2c0.7-0.3,1.4-0.3,2.2-0.2c0.1,0,0.1,0,0.2,0c0.4-0.1,0.7-0.3,1-0.5c0.3-0.2,0.5-0.2,0.8,0
			c0.1,0,0.1,0.1,0.2,0.1c0.6,0.6,1.4,0.8,2.3,0.8c0.1,0,0.2-0.1,0.3-0.1c-0.1-0.1-0.1-0.2-0.2-0.2c-0.2-0.1-0.4-0.2-0.5-0.3
			c-0.4-0.2-0.8-0.5-1-0.9c-0.1-0.3-0.3-0.6-0.4-0.8c-0.1-0.2-0.3-0.5-0.5-0.7l0,0c0.1,0,0.2,0.1,0.2,0.1c0.4,0.2,0.6,0.5,0.8,0.8
			c0.2,0.4,0.5,0.7,0.9,1c0.4,0.3,0.8,0.4,1.3,0.3c0.1,0,0.2-0.1,0.2-0.1C48.5,42,48.5,41.9,48.4,41.9z M38.1,34.2
			c0,0.1-0.1,0.1-0.1,0.2c0-0.1-0.1-0.1-0.1-0.2c-0.1-0.4-0.2-0.8-0.4-1.1c0-0.1-0.2-0.2-0.2-0.4c-0.1-0.2-0.2-0.4,0-0.5
			c0.2-0.1,0.3,0,0.5,0.2c0.3,0.3,0.4,0.7,0.4,1.2C38.2,33.8,38.2,34,38.1,34.2z M42.3,41.6c-0.1,0-0.2-0.1-0.4-0.1
			c0-0.1,0-0.3,0.1-0.3c0.2-0.2,0.4-0.3,0.6-0.4c0.2-0.1,0.4,0,0.4,0.2C43,41.4,42.8,41.5,42.3,41.6z M44.2,38.7
			c0,0.1-0.1,0.2-0.2,0.1c-0.1,0-0.1-0.1-0.1-0.2c0-0.4-0.2-0.8-0.5-1c-0.3-0.3-0.5-0.3-0.8,0c-0.1,0.1-0.2,0.2-0.3,0.3
			c-0.1-0.2-0.1-0.4,0-0.5c0.1-0.3,0.3-0.5,0.4-0.8c0.1-0.2,0.4-0.2,0.5-0.1c0.4,0.4,0.8,0.8,1.1,1.3C44.4,38.1,44.4,38.4,44.2,38.7
			z"/>
		<path fill="#DDDDDE" d="M32.9,42c0.1,0.1,0.2,0.3,0.2,0.5c0.1,0.2,0.2,0.3,0.5,0.3l0,0c0.2-0.1,0.5-0.2,0.7-0.3
			c0.1,0,0.1-0.2,0.1-0.2c-0.1-0.2-0.2-0.4-0.3-0.6c-0.1-0.1-0.2-0.2-0.4-0.2c-0.4,0-0.7,0-1.1,0.1c-0.1,0-0.2,0.1-0.2,0.1
			c0,0.1,0,0.1,0.1,0.2C32.7,41.8,32.8,41.9,32.9,42z"/>
		<path fill="#DDDDDE" d="M14.5,43.1c-0.2-0.1-0.3-0.1-0.4,0c-0.2,0.2-0.3,0.3-0.3,0.6c0,0.2,0,0.5-0.2,0.7c0,0,0,0.1-0.1,0.2
			l0.1,0.1c0.2,0.1,0.4,0.1,0.6,0.2c0.2,0.1,0.3,0,0.3-0.2c0.1-0.3,0.2-0.6,0.3-0.9C14.8,43.5,14.8,43.3,14.5,43.1z"/>
		<path fill="#DDDDDE" d="M15.3,43.1c0.1,0,0.3-0.1,0.3-0.1c0.2-0.2,0.4-0.4,0.6-0.6c0.1-0.1,0.1-0.3,0-0.4c-0.2-0.1-0.3-0.2-0.5,0
			c-0.2,0.1-0.4,0.3-0.7,0.4c-0.2,0.1-0.3,0.3-0.2,0.5C14.9,42.9,15.1,43.1,15.3,43.1z"/>
	</g>
	<path fill="#F4F4F4" d="M54.8,38.8c0-0.5,0.2-0.9,0.601-1.2c0.302-0.3,0.602-0.6,0.899-0.9c0.2-0.2,0.3-0.2,0.5,0
		c0.2,0.3,0.4,0.6,0.601,0.9c0,0.1-0.101,0.2-0.101,0.3c-0.1,0-0.3,0-0.3-0.1c-0.3-0.3-0.4-0.4-0.8-0.1c-0.4,0.2-0.8,0.5-0.9,0.9
		c0,0.1,0,0.2-0.1,0.3c0,0.1-0.101,0.1-0.2,0.2C54.9,39.1,54.8,39,54.8,38.8C54.8,38.9,54.8,38.9,54.8,38.8z"/>
	<path fill="#F4F4F4" d="M60.3,33.8c-0.2-0.2-0.1-0.3-0.1-0.5c0.2-0.7,0.7-1.3,1.3-1.7c0.1-0.1,0.3-0.2,0.5-0.2s0.4,0.2,0.3,0.4
		c-0.1,0.1-0.2,0.2-0.399,0.4C61.3,32.5,60.7,33,60.3,33.8C60.4,33.7,60.4,33.8,60.3,33.8z"/>
	<path fill="#F4F4F4" d="M56.8,41.6c-0.399,0-0.7-0.3-0.7-0.6c0-0.1,0.103-0.1,0.103-0.1c0.3-0.1,0.8,0.2,0.8,0.5
		C57.1,41.5,57,41.6,56.8,41.6z"/>
	<path fill="#F4F4F4" d="M42.3,37.9c-0.1-0.2-0.1-0.4,0-0.5c0.1-0.3,0.3-0.5,0.4-0.8c0.1-0.2,0.4-0.2,0.5-0.1
		c0.4,0.4,0.8,0.8,1.1,1.3c0.1,0.3,0.1,0.6,0,0.9c0,0.1-0.1,0.2-0.2,0.1c-0.1,0-0.1-0.1-0.1-0.2c0-0.4-0.2-0.8-0.5-1
		c-0.3-0.3-0.5-0.3-0.8,0C42.5,37.7,42.4,37.8,42.3,37.9z"/>
	<path fill="#F4F4F4" d="M38.2,33.7c0,0.2,0,0.4-0.1,0.6c0,0.1-0.1,0.1-0.1,0.2c0-0.1-0.1-0.1-0.1-0.2c-0.1-0.4-0.2-0.8-0.4-1.1
		c0-0.1-0.2-0.2-0.2-0.4c-0.1-0.2-0.2-0.4,0-0.5c0.2-0.1,0.3,0,0.5,0.2C38.1,32.8,38.2,33.1,38.2,33.7z"/>
	<path fill="#F4F4F4" d="M42.3,41.6c-0.1,0-0.2-0.1-0.4-0.1c0-0.1,0-0.3,0.1-0.3c0.2-0.2,0.4-0.3,0.6-0.4c0.2-0.1,0.4,0,0.4,0.2
		C43,41.4,42.8,41.5,42.3,41.6z"/>
</g>
</svg>
