<?xml version="1.0" encoding="utf-8"?>
<!-- Generator: Adobe Illustrator 19.0.0, SVG Export Plug-In . SVG Version: 6.00 Build 0)  -->
<svg version="1.1" id="Layer_1" xmlns="http://www.w3.org/2000/svg" xmlns:xlink="http://www.w3.org/1999/xlink" x="0px" y="0px"
	 viewBox="-255 347 100 100" style="enable-background:new -255 347 100 100;" xml:space="preserve">
<style type="text/css">
	.st0{fill:#FCFCFC;}
	.st1{fill:#C4C6C8;}
</style>
<path class="st0" d="M-227,368.1h44v33.7h-44V368.1z M-204.9,392.5c0.2-0.1,0.2-0.4,0.1-0.6l-4-6.7c0.9-0.2,1.7-0.6,2.4-1.3
	c0.8-0.8,1.7-2.1,1.7-4.4c0-1.1-0.5-2.3-1.3-3.2c-0.7-0.8-2.1-1.7-4.4-1.7h-7.5c-0.2,0-0.4,0.2-0.4,0.4v17c0,0.2,0.1,0.3,0.2,0.4
	c0.1,0,0.1,0.1,0.2,0.1c0.1,0,0.2-0.1,0.3-0.1l2.6-2.3l0.1-0.1c0.1-0.1,0.1-0.2,0.1-0.3v-4.6h5.1l4.3,7.1c0.1,0.1,0.2,0.2,0.4,0.2
	C-205.1,392.5-205,392.5-204.9,392.5 M-217.5,375.6h1.7v8.8h-1.7V375.6z M-215.8,385.2v4.4l-1.7,1.5v-5.9
	C-217.5,385.2-215.8,385.2-215.8,385.2z M-210.3,384.3h-4.5v-7.6L-210.3,384.3z M-207.1,383.2c-0.8,0.7-1.6,1-2.3,1.1l-5.3-8.7h4.1
	c2,0,3.1,0.8,3.8,1.4c0.8,0.8,1.1,1.9,1.1,2.5C-205.6,381.5-206.4,382.6-207.1,383.2 M-191.1,392.5c0.2-0.2,0.2-0.4,0.1-0.6
	l-5.3-8.2l5.3-8.4c0.1-0.2,0.1-0.5-0.1-0.6c-0.2-0.1-0.5-0.1-0.6,0.2l-5.3,8.4h-2v-8.2c0-0.2-0.2-0.4-0.5-0.4
	c-0.2,0-0.4,0.2-0.4,0.4v8.2h-1.7v-8.2c0-0.2-0.2-0.4-0.5-0.4c-0.2,0-0.4,0.2-0.4,0.4v17.1v0.1c0,0.1,0.1,0.2,0.2,0.3h0.1
	c0.1,0,0.1,0,0.1,0c0.2,0,0.3-0.1,0.4-0.2l5-7.8l5.1,7.8c0.1,0.1,0.2,0.2,0.4,0.2C-191.3,392.5-191.2,392.5-191.1,392.5
	 M-201.7,390.6v-6.4h4.1L-201.7,390.6z"/>
<path class="st1" d="M-190.4,397.7l7.5,2.7v23.5h-44v-23.5l7.6-2.7H-190.4z M-215,408.4l-1.4-2.7c0.8-0.1,1.4-0.7,1.4-1.6
	c0-1-0.7-1.6-1.7-1.6h-2.2v5.9h0.4v-2.7h1.6l1.4,2.7L-215,408.4L-215,408.4z M-216.7,402.9c0.8,0,1.3,0.4,1.3,1.2
	c0,0.8-0.5,1.2-1.3,1.2h-1.7v-2.4H-216.7 M-210.6,406.5v-0.2c0-1.2-0.6-1.9-1.6-1.9s-1.6,0.8-1.6,2c0,1.3,0.6,2,1.7,2
	c0.7,0,1-0.2,1.4-0.6l-0.3-0.2c-0.4,0.4-0.6,0.5-1.1,0.5c-0.8,0-1.3-0.5-1.3-1.6L-210.6,406.5L-210.6,406.5z M-211.2,405.4
	c0.1,0.2,0.1,0.4,0.1,0.8h-2.3c0-0.4,0.1-0.5,0.1-0.8c0.2-0.4,0.6-0.7,1-0.7C-211.8,404.8-211.4,405-211.2,405.4 M-207.8,404.8v-0.3
	h-0.9v-0.9c0-0.4,0.2-0.7,0.6-0.7h0.3v-0.4h-0.4c-0.6,0-1,0.4-1,1v0.8h-0.5v0.3h0.5v3.6h0.4v-3.6L-207.8,404.8L-207.8,404.8z
	 M-205.5,408.4v-0.4h-0.3c-0.5,0-0.6-0.2-0.6-0.7v-4.8h-0.4v4.8c0,0.6,0.3,1,1,1C-205.9,408.4-205.5,408.4-205.5,408.4z
	 M-201.7,406.5v-0.2c0-1.2-0.6-1.9-1.6-1.9c-1,0-1.6,0.8-1.6,2c0,1.3,0.6,2,1.7,2c0.7,0,1-0.2,1.4-0.6l-0.3-0.2
	c-0.4,0.4-0.7,0.5-1.1,0.5c-0.8,0-1.3-0.5-1.3-1.6L-201.7,406.5L-201.7,406.5z M-202.2,405.4c0.1,0.2,0.1,0.4,0.1,0.8h-2.3
	c0-0.4,0.1-0.5,0.1-0.8c0.2-0.4,0.6-0.7,1-0.7C-202.8,404.8-202.4,405-202.2,405.4 M-197.1,408.4l-1.6-2.5l1.3-1.5h-0.5l-2,2.3v-4.1
	h-0.4v5.9h0.4v-1.1l0.9-1.1l1.4,2.2H-197.1z M-194.6,408.4v-0.4h-0.3c-0.4,0-0.6-0.2-0.6-0.7v-2.6h0.9v-0.3h-0.9v-1.3h-0.4v1.3h-0.5
	v0.3h0.5v2.6c0,0.6,0.4,1,1,1H-194.6z M-190.9,408c0.4-0.4,0.5-1,0.5-1.6s-0.1-1.2-0.5-1.6c-0.3-0.3-0.7-0.4-1.1-0.4
	c-0.4,0-0.8,0.2-1.1,0.4c-0.4,0.4-0.5,1-0.5,1.6s0.1,1.2,0.5,1.6c0.3,0.3,0.7,0.4,1.1,0.4C-191.5,408.5-191.2,408.3-190.9,408
	 M-191.2,405.1c0.4,0.4,0.4,0.8,0.4,1.3c0,0.5,0,1-0.4,1.3c-0.2,0.2-0.5,0.4-0.8,0.4c-0.3,0-0.6-0.1-0.8-0.4
	c-0.4-0.4-0.4-0.9-0.4-1.3c0-0.5,0-1,0.4-1.3c0.2-0.2,0.5-0.4,0.8-0.4C-191.7,404.8-191.4,404.9-191.2,405.1 M-214.7,418.4l-2.1-3.6
	l1.8-2.3h-0.5l-3,3.6v-3.6h-0.4v5.9h0.4v-1.6l1.4-1.7l1.9,3.3C-215.2,418.4-214.7,418.4-214.7,418.4z M-211.2,414.7
	c-0.3-0.3-0.6-0.4-1-0.4c-0.5,0-1,0.2-1.1,0.6v-0.5h-0.4v4h0.4V416c0-0.7,0.4-1.2,1.1-1.2c0.4,0,0.5,0.1,0.8,0.3L-211.2,414.7z
	 M-207.7,416.4v-0.2c0-1.2-0.6-1.9-1.6-1.9c-1,0-1.6,0.8-1.6,2c0,1.3,0.6,2,1.7,2c0.7,0,1-0.2,1.4-0.6l-0.3-0.2
	c-0.4,0.4-0.6,0.5-1.1,0.5c-0.8,0-1.3-0.5-1.3-1.6L-207.7,416.4L-207.7,416.4z M-208.3,415.4c0.1,0.2,0.1,0.4,0.1,0.8h-2.3
	c0-0.4,0.1-0.5,0.1-0.8c0.2-0.4,0.6-0.7,1-0.7C-208.8,414.6-208.4,414.9-208.3,415.4 M-203.5,418.4v-2.7c0-0.8-0.5-1.3-1.6-1.3
	c-0.7,0-1.1,0.1-1.4,0.6l0.3,0.2c0.2-0.4,0.5-0.5,1.1-0.5c0.8,0,1.1,0.4,1.1,1v0.4h-1.3c-0.8,0-1.4,0.4-1.4,1.1
	c0,0.3,0.1,0.6,0.3,0.8c0.2,0.2,0.6,0.4,1.2,0.4c0.5,0,0.9-0.1,1.2-0.4v0.4L-203.5,418.4L-203.5,418.4z M-204,416.9
	c0,0.4-0.1,0.6-0.2,0.8c-0.3,0.3-0.7,0.3-1,0.3c-0.7,0-1-0.2-1-0.8c0-0.5,0.4-0.8,1-0.8h1.3C-204,416.4-204,416.9-204,416.9z
	 M-200.5,418.4V418h-0.3c-0.4,0-0.6-0.2-0.6-0.7v-2.7h0.9v-0.3h-0.9v-1.3h-0.4v1.3h-0.5v0.3h0.5v2.6c0,0.6,0.4,1,1,1L-200.5,418.4
	L-200.5,418.4z M-199.4,413h0.5v-0.5h-0.5V413z M-199.3,418.4h0.4v-4h-0.4V418.4z M-194.6,414.3h-0.5l-1.2,3.5l-1.2-3.5h-0.5l1.4,4
	h0.4L-194.6,414.3z M-191.3,417.9c0.4-0.4,0.5-1,0.5-1.6s-0.1-1.2-0.5-1.6c-0.3-0.3-0.7-0.4-1.1-0.4c-0.4,0-0.8,0.2-1.1,0.4
	c-0.4,0.4-0.5,1-0.5,1.6s0.1,1.2,0.5,1.6c0.3,0.3,0.7,0.4,1.1,0.4C-192,418.4-191.6,418.2-191.3,417.9 M-191.6,415
	c0.4,0.4,0.4,0.9,0.4,1.3c0,0.5,0,1-0.4,1.3c-0.2,0.2-0.5,0.4-0.8,0.4c-0.3,0-0.6-0.1-0.8-0.4c-0.4-0.4-0.4-0.8-0.4-1.3s0-1,0.4-1.3
	c0.2-0.2,0.5-0.4,0.8-0.4C-192.1,414.6-191.8,414.8-191.6,415"/>
</svg>
