<?xml version="1.0" encoding="utf-8"?>
<!-- Generator: Adobe Illustrator 21.0.2, SVG Export Plug-In . SVG Version: 6.00 Build 0)  -->
<svg version="1.1" id="Layer_1" xmlns="http://www.w3.org/2000/svg" xmlns:xlink="http://www.w3.org/1999/xlink" x="0px" y="0px"
	 viewBox="0 0 165 66.7" style="enable-background:new 0 0 165 66.7;" xml:space="preserve">
<style type="text/css">
	.st0{fill:#141414;}
</style>
<g>
	<g>
		<path class="st0" d="M70.8,28.5c0.1-0.1,0.1,0.1,0.2,0.1c0.2,0,0.4,0,0.5-0.1c0.1-0.1,0.1-0.1,0.2-0.1c0.1,0,0.2,0,0.3-0.2
			c0,0,0.1,0,0.1,0c0.1,0,0.1,0,0.2,0c-0.1,0.3-0.2,0.7-0.3,1c0,0,0,0.1-0.1,0.2c0,0.2,0,0.3,0,0.5c-0.1,0.3-0.2,0.6-0.1,0.9
			c0,0.4-0.1,0.9-0.3,1.3c0,0.1-0.1,0.2-0.1,0.3c0.1,0.2,0,0.5-0.1,0.7c0,0.1,0,0.2-0.1,0.4c-0.1,0.7-0.2,1.5-0.3,2.2
			c0,0.5-0.2,1.1,0,1.6c0,0.1,0,0.2-0.1,0.4c0,0.4-0.1,0.8,0.1,1.2c0.2,0.4,0.5,0.6,1.1,0.6c0.1,0,0.2,0,0.3,0.1
			c0.3,0.2,0.6,0.2,0.9,0.1c0.4-0.1,0.6-0.3,1-0.5c0.1-0.1,0.2-0.2,0.3-0.3c0.1-0.1,0.1-0.2-0.1-0.3c-0.2-0.1-0.2-0.3-0.2-0.4
			c0-0.2,0.1-0.4,0.2-0.6c0.1-0.1,0.1-0.2,0-0.3c0,0-0.1-0.1-0.1-0.2c0-0.3,0-0.6,0.1-0.9c0.1-0.1,0.1-0.2,0-0.2
			c-0.1-0.1,0-0.3,0-0.4c0-0.1-0.1-0.1-0.2,0l-0.1,0c0.1-0.4,0.1-0.7,0.1-1c0-0.4,0-0.8,0.1-1.2c0,0,0-0.1,0-0.2
			c0-0.3,0.1-0.5,0.2-0.8c0.1-0.2,0.2-0.5,0.2-0.7c0.1-0.2,0.1-0.3,0-0.5c-0.1-0.2-0.1-0.5,0.1-0.7c0.2-0.2,0.2-0.3,0.1-0.5
			c-0.1-0.4,0-0.9,0.2-1.3c0.1-0.2,0.1-0.3,0.1-0.5c-0.1-0.2,0-0.4,0-0.6c0,0,0,0,0,0c0.1,0,0.1,0,0.2-0.1c0.2-0.1,0.3-0.1,0.5-0.2
			c0.2-0.1,0.4-0.1,0.6-0.2c0.1,0,0.1,0,0.2-0.1c0.2-0.1,0.4-0.1,0.6-0.2l0.2,0c0,0,0.1,0,0.1-0.1c0.3-0.1,0.5-0.2,0.8-0.3
			c0,0,0,0,0.1,0c0,0,0,0,0,0c0,0,0.1-0.1,0.1,0c0,0,0.1,0,0.1,0c0,0,0.1,0,0.1,0c0,0,0-0.1,0-0.1c0,0,0.1,0,0.2,0
			c0,0.1,0.1,0.2,0.3,0.2c0.1,0,0.2,0,0.1,0.1c-0.1,0.2-0.1,0.4,0,0.6c0,0.2,0,0.4,0,0.6c0.1,0.2,0.2,0.4,0.2,0.6
			c0.1,0.2,0.1,0.5,0.1,0.7c0,0.1,0.1,0.1,0.2,0c0,0,0.1,0,0.1,0c0,0,0,0.1,0,0.1c-0.1,0.1-0.3,0.3-0.2,0.4c0.2,0.2,0.2,0.4,0.1,0.6
			c0,0.2,0.1,0.4,0.3,0.4c0.3,0,0.3,0.1,0.1,0.2c-0.1,0.1-0.1,0.2,0,0.2c0.1,0.2,0.1,0.5,0.2,0.7c0.1,0.5,0.2,1.1,0.3,1.6
			c0,0.3,0.2,0.5,0.5,0.6c0.3,0.1,0.8,0.1,1.1,0.3c0,0,0.1,0,0.1,0c0.7,0.2,1.1-0.3,1.7-0.5c0.1,0,0.1-0.1,0.1-0.1
			c0.1-0.2,0.1-0.4,0.1-0.6c-0.1-0.5-0.3-1.1-0.6-1.5c-0.1-0.1-0.1-0.2-0.1-0.3c0-0.2,0-0.4,0-0.6c0-0.3-0.1-0.5-0.1-0.8
			c-0.2-0.6-0.4-1.2-0.6-1.9c-0.1-0.2-0.1-0.5-0.4-0.6c-0.1-0.1-0.2-0.2-0.1-0.3c0.1-0.1,0-0.2,0-0.3c0-0.4-0.2-0.7-0.4-1.1
			c0,0,0-0.1,0-0.1c0-0.3-0.1-0.5-0.2-0.7c-0.1-0.3,0.1-0.5,0.4-0.6c0,0,0.1,0,0.1-0.1c0.2-0.1,0.2-0.2,0.2-0.4
			c-0.1-0.1-0.2-0.1-0.3-0.1c0,0-0.2,0-0.2,0c0,0,0,0,0,0c0,0,0-0.1,0-0.1c0-0.1,0-0.3-0.1-0.4c0,0-0.1-0.1-0.1-0.1
			c0-0.2-0.2-0.3-0.4-0.3c0,0,0,0,0,0c-0.1-0.1-0.2-0.2-0.3-0.3c-0.2-0.1-0.3-0.2-0.1-0.4c0.1-0.1,0-0.1,0-0.2
			c0-0.1-0.1-0.3-0.1-0.5c-0.1-0.3-0.1-0.6-0.2-0.9c0-0.2-0.1-0.3-0.3-0.5c-0.1-0.1-0.1-0.1-0.1-0.2c0.1-0.4-0.2-0.7-0.3-1.1
			c0-0.1-0.1-0.3-0.2-0.4c-0.1-0.3-0.3-0.5-0.4-0.8c0-0.1-0.1-0.2-0.2-0.3c-0.1-0.1-0.2-0.2-0.2-0.3c-0.2-0.5-0.5-1-0.7-1.4
			c0-0.1-0.1-0.2-0.2-0.2c-0.3-0.1-0.3-0.4-0.3-0.6c0-0.2-0.1-0.4-0.2-0.5c-0.2-0.3-0.5-0.6-0.8-0.7c-0.7-0.1-1.3,0-2,0.2
			c-0.1,0-0.1,0.1-0.2,0.1c-0.2,0.2-0.4,0.4-0.6,0.7c-0.1,0.1-0.2,0.2-0.1,0.4C74,15,74,15.1,74,15.3c0,0.1,0,0.3,0.1,0.4
			c0.1,0.1,0,0.1,0,0.2c0,0.8-0.1,1.5-0.2,2.3c0,0.2-0.2,0.4-0.1,0.6c0,0.3,0,0.5-0.1,0.7c-0.1,0.3-0.1,0.5-0.2,0.8
			c0,0.1,0,0.2-0.1,0.2c-0.1,0.2-0.2,0.5-0.1,0.7c0.1,0.5-0.2,0.9-0.2,1.4c0,0.2-0.1,0.4-0.1,0.5c-0.1,0.5-0.2,1-0.3,1.5
			c0,0.2-0.1,0.4-0.2,0.6c-0.1,0-0.1,0-0.2,0c0,0,0,0,0,0c0,0,0,0.1,0,0.1c0,0,0,0,0.1,0c-0.1,0.1-0.2,0.2-0.4,0.3 M70.6,26.3
			c0.1,0,0.1-0.1,0.1-0.2c-0.1-0.1-0.1-0.2-0.3-0.2 M72.8,25c-0.1,0-1.4,0.4-1.5,0.5c-0.2,0.1-0.3,0.1-0.5,0.2
			c-0.3,0.1-0.7,0.2-1,0.4c-0.1,0-0.2,0.1-0.3,0.1c-0.3,0.1-0.6,0.3-0.9,0.4c-0.1,0-0.1,0.1-0.2,0.1c-0.1,0.2-0.1,0.2-0.3,0.1
			c-0.1,0-0.2,0-0.3,0.1c-0.2,0.1-0.4,0.2-0.5,0.3c-0.1,0-0.3,0.1-0.4,0.1c-0.1,0.1-0.2,0.1-0.3,0.1c-0.3,0.2-0.7,0.3-1,0.5
			c-0.1,0.1-0.2,0.2-0.4,0.3c-0.2,0.1-0.3,0.2-0.5,0.3c-0.2,0.2-0.3,0.4-0.4,0.6c0,0,0,0.1,0,0.1c0,0.1,0.1,0.1,0.2,0.1
			c0.1,0,0.1,0.1,0.1,0.1c0,0.1,0,0.1,0,0.1c0,0.1,0.1,0.2,0.2,0.2c0,0,0.1,0,0.1,0c0.1,0,0.3,0,0.5,0c0.1,0.1,0.1,0.1,0.2,0
			c0.1-0.1,0.2-0.1,0.2,0c0,0.1,0,0.1,0,0.1c0,0,0.1,0,0.1,0c0.1-0.1,0.1-0.1,0-0.2c0-0.1,0-0.1,0-0.2c0,0,0-0.1,0-0.1
			c0,0,0.1,0,0.1,0c0.1,0.1,0.2,0.2,0.3,0.2c0.1,0,0.3,0.1,0.4,0.1c0.1,0.1,0.1,0.1,0.2,0.1c0.1,0,0.1,0,0.1,0.1
			c0,0,0.1,0.1,0.1,0.1c0,0,0.1,0,0.1,0c0,0,0,0,0-0.1c0,0,0,0,0-0.1c0,0,0-0.1,0-0.1c0,0,0.1,0,0.1,0c0.1,0.1,0.1,0.1,0.3,0.1
			c0.1,0,0.2-0.1,0.2-0.3c0,0,0-0.1,0-0.1c0-0.1,0.1-0.1,0.2-0.1c0,0,0.1,0,0.1-0.1c0,0,0-0.1,0-0.1c-0.1-0.1-0.1-0.2-0.2-0.2
			c-0.1,0-0.1-0.1-0.2-0.2c0-0.1,0-0.1-0.1,0c-0.1,0-0.1,0-0.1,0c0-0.1,0-0.2,0.1-0.3c0,0-0.1-0.1-0.1,0c0,0-0.1,0.1-0.1,0.1
			c-0.1,0-0.1-0.2-0.2-0.1l0,0c0,0,0,0,0,0c0.1-0.1,0.3-0.1,0.4-0.1c0.1,0,0.1,0.1,0.1,0.1c0,0,0,0,0,0c0,0,0,0.1,0.1,0.1
			c0,0,0,0.1,0.1,0c0,0,0,0,0-0.1c0,0,0.1,0,0.1,0.1c0.1,0.1,0.2,0.1,0.2,0.2c0,0,0.1,0.1,0.1,0.1c0,0,0,0,0,0c0,0,0,0-0.1,0
			c-0.1,0-0.1,0.1,0,0.1c0,0,0.1,0.1,0.1,0.1c0,0,0.1,0,0.1,0c0-0.1,0-0.1,0-0.2c0,0,0,0,0,0c0,0,0.1,0,0.1,0c0,0,0,0,0.1,0
			c0,0,0,0.1,0,0.1c0,0.1,0,0.1,0,0.2c0,0,0.1,0,0.1,0.1c0,0.1,0.1,0.1,0.1,0c0.1-0.1,0.1-0.1,0.2-0.1c0,0,0.1,0,0.1,0
			c0,0,0.1,0,0.1,0c0-0.1,0.1-0.1,0.1-0.2c0,0,0.1-0.1,0.1-0.1c0,0,0,0,0,0c0,0,0,0,0,0c0,0,0.1,0.1,0.1,0.1c0,0,0.1,0,0.1,0
			c0,0,0.1-0.1,0.1,0c0.2,0.1,0.3,0.1,0.5,0c0,0,0.1,0,0.1,0c0.1-0.1,0.3-0.1,0.4-0.2c0,0,0-0.1,0-0.2c0,0-0.1,0-0.1,0c0,0,0,0,0,0
			c0,0,0,0,0.1,0c0.1,0,0.2,0.1,0.3,0c0.1,0,0.3,0,0.4,0c0,0,0,0,0.1,0c0.2,0,0.4,0,0.6-0.2 M73.2,25c-0.4,0-1.3,0.8-2.1,1
			c-0.1,0-0.1,0.1-0.2,0.1c-0.1,0-0.1,0.1-0.2,0.1c0,0,0,0,0,0c0-0.1,0-0.1-0.1-0.1l0,0c0,0.1,0,0.1,0,0.1c0,0,0,0,0,0
			c-0.2,0.1-0.3,0.2-0.5,0.3c-0.2,0.1-0.4,0.3-0.6,0.4c0,0,0,0,0,0c-0.1,0-0.2,0-0.3,0.1c-0.1,0-0.1,0.1-0.1,0c0,0,0,0-0.1,0l0,0
			c0,0.2,0,0.2-0.2,0.2c0,0-0.1,0-0.1,0c-0.1,0.1-0.1,0.1-0.2,0.1c0,0-0.1,0-0.1,0c0,0,0,0,0,0c0,0,0,0,0,0.1l0,0l0,0c0,0,0,0-0.1,0
			c-0.1,0-0.1,0-0.2,0.1c0,0.1-0.1,0.1-0.1,0c0,0,0,0-0.1,0c-0.1,0-0.1,0-0.1,0.1c0,0.1,0,0.1-0.1,0.1c-0.1,0-0.3,0-0.4,0.1
			c0,0-0.1,0-0.1,0c0-0.1,0-0.1,0-0.1c0,0,0-0.1-0.1-0.1c0,0-0.1,0-0.1,0c0,0.1,0,0.1-0.1,0.2c0,0.1,0,0.1-0.1,0.1
			c-0.1,0-0.2,0-0.2,0.1c0,0.1-0.1,0.1-0.1,0.2c-0.1,0.1-0.2,0.2-0.3,0.1c-0.1,0-0.1,0-0.1,0c0,0-0.1,0-0.1,0c0,0,0,0,0-0.1
			c0,0,0,0.1-0.1,0.1c-0.1,0-0.1,0-0.2,0c-0.1,0-0.2,0-0.2,0.2c0,0.1-0.1,0.1-0.1,0.1c-0.1,0-0.1,0-0.2,0c-0.1,0.1-0.2,0.1-0.2,0
			c0,0,0,0,0,0c0,0-0.1,0-0.1,0.1c0,0.1,0,0.1-0.1,0.1c0,0-0.1,0-0.1,0c0,0,0-0.1,0.1-0.1c0,0,0.1-0.1,0.1-0.1
			c0.1-0.1,0.1-0.2,0.3-0.2c0.1,0,0.1-0.1,0.2-0.2c0.1,0,0.2-0.1,0.2-0.2c0.1-0.1,0.2,0,0.3,0c0,0,0-0.1,0.1-0.1c0,0,0,0,0.1,0
			c0.1,0,0.1,0,0.1-0.1c0-0.1,0.1-0.1,0.1-0.1c0.1,0,0.1,0.1,0.2,0c0.1-0.1,0.3-0.2,0.4-0.2c0.2-0.1,0.4-0.2,0.6-0.4
			c0,0,0.1,0,0.1,0c0,0,0-0.1,0-0.1c0,0,0,0,0.1,0c0.1,0,0.1,0,0.1,0.1c0,0,0.1,0,0.1,0c0.1-0.1,0.1-0.2,0.2-0.1
			c0.1,0,0.2-0.1,0.3-0.1c0,0,0.1-0.1,0.2-0.2c0.1,0,0.2,0,0.2,0c0.1-0.1,0.3-0.1,0.4-0.1c0.1,0,0.3-0.1,0.3-0.3c0,0,0-0.1,0.1-0.1
			c0,0,0.1-0.1,0.1,0c0.1,0.1,0.1,0.1,0.3,0c0.1,0,0.2-0.1,0.2-0.1c0.1,0,0.2,0,0.3,0.1c0,0,0,0,0.1,0c0,0,0,0,0,0
			c0-0.1,0-0.1,0.1-0.1c0.1,0,0.2,0,0.3-0.1c0.1,0,0.3-0.1,0.3-0.2c0.1,0,0.3,0,0.4,0 M66.1,28.9C66,28.9,66,28.8,66,28.8
			C66.1,28.8,66.1,28.8,66.1,28.9c0.1-0.1,0.1-0.1,0.1,0c0,0,0,0.1,0,0.1C66.2,29,66.2,29,66.1,28.9C66.1,29,66.1,28.9,66.1,28.9z
			 M66.4,29.5C66.3,29.5,66.3,29.5,66.4,29.5c-0.1-0.1-0.1-0.1,0-0.1C66.3,29.4,66.4,29.4,66.4,29.5C66.4,29.4,66.4,29.5,66.4,29.5
			C66.4,29.5,66.4,29.5,66.4,29.5z M66.5,29.2C66.5,29.2,66.5,29.2,66.5,29.2C66.4,29.2,66.4,29.1,66.5,29.2
			C66.5,29.1,66.5,29.1,66.5,29.2C66.5,29.1,66.5,29.2,66.5,29.2C66.5,29.2,66.5,29.2,66.5,29.2z M67.3,29.1
			C67.3,29.1,67.3,29.1,67.3,29.1c0.1-0.1,0.2-0.1,0.2,0c0,0,0,0.1,0,0.1c0,0,0,0,0,0c0,0-0.1,0-0.1,0
			C67.3,29.2,67.3,29.2,67.3,29.1C67.3,29.2,67.3,29.2,67.3,29.1z M67.1,29C67.1,29,67.1,29,67.1,29L67.1,29L67.1,29
			C67.1,29,67.1,29,67.1,29z M67.1,28.3L67.1,28.3L67.1,28.3C67.1,28.2,67.1,28.2,67.1,28.3C67.1,28.2,67.2,28.2,67.1,28.3z
			 M67.9,28c0,0,0.1,0,0.1,0c0,0,0,0.1-0.1,0.1C68,28.1,67.9,28.1,67.9,28C67.9,28,67.9,28,67.9,28z M67.8,27.9L67.8,27.9L67.8,27.9
			L67.8,27.9z M67.8,28.4C67.8,28.4,67.8,28.4,67.8,28.4C67.8,28.4,67.8,28.4,67.8,28.4c0.1-0.1,0.2-0.1,0.3,0c0,0,0,0.1,0.1,0.1
			c0,0,0,0.1-0.1,0.1c0,0,0,0,0,0C67.9,28.5,67.9,28.5,67.8,28.4z M70.1,28.1c0,0-0.1,0-0.1,0C70,28.1,70,28.1,70.1,28.1
			C70.1,28.1,70.1,28.1,70.1,28.1C70.1,28.1,70.1,28.1,70.1,28.1C70.1,28.1,70.1,28.2,70.1,28.1z M70.5,28c0,0,0,0.1,0,0.1
			c0,0.1,0,0-0.1,0c0-0.1-0.1-0.1-0.2-0.2c0.1,0,0.2-0.1,0.2-0.1C70.5,27.9,70.5,27.9,70.5,28z M71.4,27.4L71.4,27.4L71.4,27.4
			C71.4,27.4,71.4,27.3,71.4,27.4L71.4,27.4z M77.8,23.9L77.8,23.9C77.8,23.9,77.8,23.9,77.8,23.9C77.8,23.9,77.8,23.9,77.8,23.9z
			 M78.9,22.6c0,0.1,0.1,0.3,0.1,0.4c0,0,0,0-0.1,0.1c0,0-0.1,0-0.1,0c-0.1-0.1-0.1-0.1-0.1-0.2c0-0.1,0-0.1,0-0.2
			c0,0,0-0.1,0.1-0.2C78.8,22.5,78.9,22.6,78.9,22.6z M78.5,21.9C78.5,21.8,78.6,21.9,78.5,21.9c0.1,0.1,0.2,0.2,0.3,0.4
			c0,0,0,0.1,0,0.1c-0.1,0.1-0.1,0-0.1,0c-0.1-0.1-0.1-0.1-0.2-0.2C78.4,22.1,78.4,22,78.5,21.9C78.4,21.9,78.4,21.9,78.5,21.9z
			 M76.1,23.9c0.2-0.5,0.1-0.9,0.2-1.4c0.1-0.2,0-0.4,0-0.6c0-0.2,0-0.4,0.1-0.6c0.1-0.3,0.3-0.5,0.3-0.7c0-0.1,0-0.2,0.1-0.2
			c0,0,0.1-0.1,0.2,0c0,0,0,0,0.1,0.1c0,0.1,0,0.2,0,0.3c0,0.2,0,0.4,0.2,0.5c0.1,0.1,0.3,0.3,0.2,0.5c0,0.1,0,0.2,0.1,0.3
			c0.1,0.1,0.1,0.2,0.1,0.2c0,0.4,0.2,0.7,0.4,1c0,0,0.1,0.1,0.1,0.2c-0.2,0.1-0.4,0.2-0.7,0.2c-0.3,0.1-0.6,0.2-0.8,0.3
			c-0.2,0-0.4,0.1-0.6,0.2C76.1,24,76.1,24,76.1,23.9C76.1,23.9,76.1,23.9,76.1,23.9z M75.3,18.3C75.3,18.3,75.3,18.3,75.3,18.3
			c0.2,0.1,0.1,0.3,0,0.4c0,0.1-0.1,0.1-0.1,0.2c0,0-0.1-0.1-0.1-0.1c0,0,0-0.1,0-0.2C75.2,18.5,75.2,18.4,75.3,18.3z M75.2,19.2
			c0,0,0.1,0,0.2,0c0,0.1,0,0.1,0,0.1c-0.1,0.2-0.2,0.4-0.3,0.5c0,0-0.1,0.1-0.1,0.1c0,0-0.1-0.1-0.1-0.1
			C74.8,19.6,74.9,19.4,75.2,19.2z M74.7,20.8c0-0.1,0.1-0.3,0.1-0.4c0,0,0.1-0.1,0.1,0c0,0,0,0,0,0c0,0,0,0.1,0,0.1
			c0,0.1-0.1,0.2-0.1,0.4c0,0.1-0.1,0.2-0.1,0.2C74.6,21,74.7,20.9,74.7,20.8z M73.8,23.3C73.8,23.3,73.8,23.3,73.8,23.3L73.8,23.3
			L73.8,23.3z M74.1,23C74.1,23,74,23,74.1,23c-0.4,0-0.4-0.1-0.4-0.2c0-0.3,0.1-0.6,0.5-0.7c0.1,0,0.1-0.1,0.2-0.2
			c0-0.1,0-0.1,0-0.2c0-0.2,0.1-0.3,0.3-0.4c0.1,0,0.3,0.2,0.3,0.4c0,0.1,0,0.1,0,0.1c-0.1,0.1-0.2,0.2-0.2,0.3c0,0.1,0.1,0.2,0,0.3
			c-0.1,0.1,0,0.2,0.1,0.2c0,0,0,0.1,0,0.2c0,0.1-0.1,0.2-0.1,0.2c0,0.2-0.1,0.4-0.3,0.5c-0.2,0.2-0.2,0.4-0.2,0.6
			c0,0.1,0,0.2,0,0.3c0,0-0.1,0-0.1,0c-0.1,0-0.2,0.1-0.3,0.1c0.1-0.3,0.1-0.5-0.1-0.8C74.2,23.7,74.1,23.4,74.1,23z M73.3,24.6
			c0.1-0.4,0.2-0.8,0.4-1.2l0,0.4c-0.1,0.1-0.1,0.2-0.1,0.4c0,0.1,0,0.3,0,0.4c0,0,0,0.1-0.1,0.1c0,0,0,0,0,0c-0.1,0-0.1,0-0.2,0.1
			C73.3,24.8,73.3,24.7,73.3,24.6z M71.7,27.4c-0.1,0.1-0.1,0.1-0.2,0c0,0,0,0,0-0.1C71.5,27.4,71.6,27.4,71.7,27.4
			C71.7,27.4,71.7,27.4,71.7,27.4C71.7,27.4,71.7,27.4,71.7,27.4z M71.4,38.4L71.4,38.4L71.4,38.4L71.4,38.4z M71.4,38
			C71.4,38,71.4,38,71.4,38L71.4,38L71.4,38C71.4,38,71.4,38,71.4,38z M71.7,38.6L71.7,38.6C71.7,38.6,71.7,38.6,71.7,38.6
			L71.7,38.6L71.7,38.6z M71.9,37.3c-0.1,0.1-0.2,0.1-0.3,0.2c-0.2,0.1-0.2,0.1-0.3-0.1c-0.1-0.2-0.2-0.3,0-0.5c0,0,0-0.1,0-0.2
			c-0.1-0.3,0.1-0.7,0.3-1c0.1,0.3,0.1,0.5,0.1,0.8c0,0.2,0.1,0.3,0.3,0.4C72.1,36.9,72.1,37.2,71.9,37.3z M72,35.5c0,0,0-0.1,0-0.1
			c0,0,0.1-0.1,0.2-0.1c0,0,0,0.1,0,0.1c0,0,0,0.1-0.1,0.1C72.1,35.5,72,35.5,72,35.5z M72.3,36c0,0-0.1,0.1-0.1,0c0,0,0,0-0.1-0.1
			c0-0.1,0.1-0.2,0.1-0.3c0,0,0.1,0,0.1,0c0,0,0,0,0.1,0.1C72.3,35.8,72.3,35.9,72.3,36z M72.1,34.4L72.1,34.4
			C72.2,34.3,72.2,34.3,72.1,34.4C72.2,34.3,72.2,34.3,72.1,34.4C72.2,34.3,72.2,34.3,72.1,34.4z M72.3,33.7L72.3,33.7
			c0-0.1,0-0.1,0-0.1C72.4,33.6,72.4,33.6,72.3,33.7L72.3,33.7z M72.6,34.5L72.6,34.5l0.1-0.1L72.6,34.5z M72.8,33.8
			c0,0-0.1,0-0.1,0L72.8,33.8L72.8,33.8L72.8,33.8z M73.3,31.5c0,0-0.1,0.1-0.1,0.1c0,0-0.1-0.1-0.1-0.1c0.1-0.2,0.1-0.4,0.2-0.6
			c0,0,0,0,0-0.1l0,0c0,0,0,0,0,0.1C73.4,31.1,73.3,31.3,73.3,31.5z M73.5,30.2c-0.2,0.2-0.4,0.4-0.5,0.6c0,0,0,0.1-0.1,0.1
			c0,0-0.1,0-0.1,0c0,0,0,0-0.1-0.1c0.1-0.3,0.1-0.6,0.2-0.8c0-0.2,0.4-0.3,0.5-0.4c0,0,0.1,0.1,0.1,0.1
			C73.6,29.9,73.6,30.1,73.5,30.2z M73.7,28.4c-0.1,0.2-0.2,0.4-0.3,0.6c0,0-0.1,0-0.1,0c0,0,0,0,0-0.1c0,0,0-0.1,0-0.1
			c0,0-0.1-0.1-0.1-0.1c-0.1,0-0.1,0-0.2,0.1c0,0-0.1,0.1,0,0.1c-0.1,0.3-0.1,0.6-0.2,0.9c0,0.2-0.1,0.5-0.1,0.7
			c-0.1,0.1-0.1,0.3-0.1,0.4c0,0.1,0,0.2,0.2,0.1c0,0,0.1,0,0.1,0c0.2,0,0.2,0,0.2,0.2c0,0.1-0.1,0.2-0.1,0.2c0,0-0.1,0.1-0.1,0.1
			c-0.1-0.1-0.1-0.1-0.1-0.2c0,0,0,0-0.1-0.1c0,0-0.1,0-0.1,0.1c-0.1,0.3-0.1,0.7-0.4,1c0,0,0,0.1,0,0.2c0.1,0.2,0,0.5-0.1,0.7
			c-0.2,0.5-0.2,0.9-0.2,1.4c-0.1,0.3-0.1,0.6-0.3,0.9c-0.1-0.4-0.1-0.8,0-1.2c0.1-0.5,0.2-0.9,0.2-1.4c0.1-0.4,0.2-0.7,0.3-1
			c0-0.1,0-0.3,0.1-0.4c0.1-0.8,0.2-1.6,0.4-2.3c0.1-0.4,0.1-0.7,0.2-1.1c0,0,0-0.1,0-0.1c0.1-0.1,0.2-0.1,0.2-0.2
			c0-0.1,0.1-0.1,0.1,0c0.1,0.1,0.1,0.1,0.2,0.1c0.1-0.1,0.2-0.1,0.3-0.1c0.1,0,0.2-0.1,0.4-0.1C73.9,28,73.9,28.2,73.7,28.4z
			 M80.3,28c-0.1-0.2-0.1-0.3-0.2-0.5l-0.1,0c-0.1-0.3-0.1-0.6-0.1-0.9c0-0.2-0.2-0.4-0.3-0.6c0.2-0.1,0.4-0.1,0.7-0.2c0,0,0,0,0,0
			c0,0,0,0.1,0,0.1c-0.1,0.2-0.1,0.4,0,0.6c0,0.1,0.2,0.1,0.2,0.2c0.1,0.4,0.1,0.8,0,1.2c0,0-0.1,0.1-0.2,0.1
			C80.4,28.1,80.3,28,80.3,28z M81.1,30.4c-0.1-0.3-0.3-0.5-0.4-0.8c-0.1-0.3-0.2-0.7-0.3-1c0,0,0-0.1,0.1-0.1c0,0,0.1,0,0.2,0
			c0,0,0.1,0.1,0.2,0.1c0,0,0.1,0.1,0.1,0.1c-0.1,0.2,0.1,0.3,0.1,0.5c0.1,0.1,0.1,0.1,0.1,0.2c0,0.2,0.1,0.4,0.2,0.6
			c0.1,0.1,0.1,0.2,0.1,0.4c0,0-0.1,0.1-0.1,0.2C81.2,30.5,81.2,30.5,81.1,30.4z M81.2,30.9c0-0.1,0.1-0.1,0.1-0.2l0.1,0.1
			L81.2,30.9C81.3,31,81.2,31,81.2,30.9z M81.9,32.4c0,0-0.1,0.1-0.1,0.1c0,0-0.1,0-0.2-0.1c-0.1-0.1-0.2-0.3-0.2-0.5
			c0-0.2,0-0.4,0-0.7c0,0,0,0,0.1-0.1c0,0,0.1,0,0.1,0c0.1,0.2,0.3,0.3,0.2,0.5c0,0.2,0,0.3,0.1,0.4C81.9,32.2,81.9,32.3,81.9,32.4z
			"/>
		<rect x="66.4" y="29.1" transform="matrix(0.8818 -0.4717 0.4717 0.8818 -5.8695 34.7587)" class="st0" width="0" height="0"/>
		<path class="st0" d="M72.3,25.3C72.3,25.3,72.3,25.3,72.3,25.3c0-0.1-0.1-0.1-0.1-0.1c0,0,0,0.1,0,0.1
			C72.2,25.4,72.3,25.4,72.3,25.3z"/>
		<path class="st0" d="M71.1,25.9c0.1,0,0.1,0,0.1,0c0.1,0,0.3,0,0.4-0.1c0.1-0.1,0.2-0.1,0.3-0.1c0,0,0.1,0,0.1,0
			c0,0,0.1-0.1,0.1-0.1c0-0.1,0-0.1,0-0.1c0,0-0.1-0.1-0.1,0c0,0-0.1,0-0.1,0c-0.2,0.1-0.3,0.1-0.5,0.2c-0.1,0-0.2,0.1-0.4,0.1
			c0,0-0.1,0.1-0.1,0.1c0,0.1,0,0.1,0,0.2C70.9,25.9,71,25.9,71.1,25.9z"/>
		<path class="st0" d="M68.7,27.3C68.7,27.3,68.7,27.3,68.7,27.3L68.7,27.3C68.7,27.3,68.7,27.3,68.7,27.3
			C68.7,27.3,68.7,27.3,68.7,27.3z"/>
		<path class="st0" d="M67.1,27.6c0,0-0.1,0.1,0,0.1c0,0,0.1,0,0.1,0C67.2,27.7,67.2,27.7,67.1,27.6C67.2,27.6,67.1,27.6,67.1,27.6z
			"/>
		<path class="st0" d="M70.6,26.3L70.6,26.3C70.7,26.3,70.7,26.3,70.6,26.3C70.7,26.3,70.7,26.3,70.6,26.3L70.6,26.3z"/>
		<polygon class="st0" points="67.4,28 67.4,28 67.4,28 		"/>
		<path class="st0" d="M64.9,28.7c0.1,0.1,0.2,0.1,0.2,0.2c0,0,0,0,0,0c0-0.1,0-0.1-0.1-0.2C65,28.7,64.9,28.7,64.9,28.7
			C64.9,28.6,64.9,28.6,64.9,28.7C64.8,28.7,64.9,28.7,64.9,28.7z"/>
		<path class="st0" d="M64.5,29L64.5,29L64.5,29L64.5,29C64.5,28.9,64.5,29,64.5,29z"/>
	</g>
	<path class="st0" d="M68.9,22.7c0,0.2,0,0.3-0.1,0.4c-0.1,0.2-0.2,0.5-0.3,0.7c0,0.1-0.1,0.2,0,0.4c0,0.2,0,0.5-0.1,0.6
		c-0.1,0.1-0.1,0.2,0,0.4c0.1,0.1,0,0.2-0.1,0.3c-0.5,0.3-1,0.4-1.6,0.4c-0.6,0-0.9-0.3-0.9-0.8c-0.1-0.6,0-1.2,0-1.7
		c0-0.5,0-0.9-0.1-1.3c-0.1-0.7-0.1-0.1-0.2-0.7c-0.1-0.1,0-0.2-0.1-0.3c0-0.1,0-0.2,0-0.3c-0.1-0.4-0.3-0.9-0.4-1.4
		c0-0.1-0.1-0.2-0.2-0.4c-0.1-0.1-0.3-0.1-0.4,0c-0.3,0.3-0.5,0.7-0.2,1.1c0.1,0.1,0.2,0.3,0.1,0.4c-0.1,0.2-0.2,0.3-0.4,0.5
		c-0.3,0.3-0.6,0.6-0.9,0.9c-0.1,0.2-0.3,0.4-0.2,0.6c0.1,0.4-0.1,0.8-0.2,1.2c0,0.2-0.1,0.4,0,0.6c0,0.4,0,0.8-0.4,1.1
		C62,25.5,61.9,26,62,26.2c0,0.2,0.1,0.4-0.1,0.7c-0.1,0.1,0,0.3,0,0.5c0,0.1,0,0.3-0.1,0.4c-0.2,0.3-0.2,0.6-0.1,0.9
		c0,0.1,0,0.1,0,0.2c0,0.3,0.1,0.7-0.2,1c0,0.1,0,0.2,0,0.3c0,0.5,0,1,0.1,1.4c0,0.2,0,0.4,0,0.6c0,0.2,0,0.4,0,0.7
		c0,0.1,0,0.2,0,0.3c-0.2,0.5-0.2,1.1-0.1,1.6c0.1,0.4,0.1,0.8,0.1,1.2c0,0.3,0.1,0.6,0.2,1c0.1,0.3,0.1,0.6,0.2,0.9
		c0.1,0.5,0.3,1,0.7,1.4c0.3,0.2,0.5,0.5,0.9,0.6c0.2,0.1,0.5,0.1,0.7-0.1c0.4-0.2,0.7-0.4,1.1-0.7c0.5-0.3,0.9-0.7,1.1-1.1
		c0.1-0.1,0.1-0.2,0.3-0.3c0.4-0.3,0.5-0.6,0.6-0.9c0.1-0.3,0.3-0.5,0.4-0.8c0.1-0.2,0.3-0.2,0.5-0.1c0.1,0.1,0.2,0.2,0.4,0.2
		c0.1,0,0.1,0,0.1,0.1c0.2,0.2,0.3,0.4,0.5,0.5c0.1,0.1,0.1,0.1,0.1,0.2c0,0.1,0.1,0.2,0.2,0.2c0.3,0,0.5,0.2,0.8,0.3
		c0,0,0.1,0.2,0.1,0.2c-0.1,0.2-0.1,0.4-0.3,0.5C70,38.2,70,38.3,70,38.5c0,0.3-0.1,0.6-0.4,0.8c-0.5,0.3-1.1,0.7-1.6,1
		c-0.1,0.1-0.3,0.1-0.5,0.2l0,0c-0.5,0.1-1.1,0.3-1.6,0.4c-0.1,0-0.2,0-0.3,0.1c-0.2,0-0.4,0.1-0.5,0.1c-0.6,0-1.1,0.1-1.7,0.1
		c-0.1,0-0.2,0-0.3,0c-0.4,0-0.8-0.1-1.2,0.1c-0.1,0-0.2,0-0.3,0c-0.7-0.2-1.4-0.4-2-0.8c-0.1-0.1-0.3-0.1-0.4-0.2
		c-0.3-0.1-0.6-0.3-0.6-0.6c0-0.1-0.1-0.2-0.2-0.2c-0.2-0.1-0.4-0.3-0.3-0.4c0.1-0.2-0.1-0.3-0.2-0.5c-0.2-0.2-0.3-0.5-0.4-0.8
		c-0.2-0.7-0.3-1.3-0.4-1.9c-0.1-0.3,0-0.6,0-1c0-0.2,0-0.5,0-0.7c0-0.7,0.1-1.4,0.3-2.2c0.1-0.7,0.2-1.4,0.2-2.1
		c0-0.2,0.1-0.5,0.2-0.7c0-0.1,0-0.1,0-0.2c0-0.4,0.1-0.8,0.2-1.2c0.1-0.8,0.3-1.5,0.6-2.2c0.2-0.7,0.4-1.3,0.6-1.9
		c0.1-0.2,0.1-0.4,0.1-0.5c0.2-0.5,0.3-1.1,0.5-1.6c0.1-0.5,0.3-1,0.6-1.5c0.1-0.1,0.2-0.3,0.3-0.4c0.2-0.3,0.5-0.6,0.6-0.9
		c0.1-0.3,0.4-0.6,0.6-0.8c0.6-0.5,1.3-0.8,2-1.2c0.1,0,0.3-0.1,0.4-0.1c0.4-0.1,0.9,0,1.3-0.1c0.4-0.1,0.8,0.1,1.1,0.3
		c0.1,0,0.1,0.1,0.2,0.2c0.1,0.2,0.1,0.5,0.2,0.7c0.1,0.1,0.1,0.2,0.2,0.3c0.3,0.2,0.4,0.5,0.5,0.8c0.1,0.1,0.1,0.3,0.1,0.3
		c0.2,0.3,0.3,0.6,0.3,1c0,0.2,0.1,0.5,0.2,0.6c0.1,0.1,0.1,0.1,0,0.2c0,0.3,0.1,0.6,0.2,0.8c0.2,0.5,0-0.3,0.1,0.2
		C68.8,22.3,68.8,22.5,68.9,22.7z M59.7,27.7c-0.1,0.4-0.3,0.9-0.4,1.3c0,0.3-0.1,0.6-0.1,0.9c0,0.2,0,0.2-0.2,0.3
		c-0.1,0.1-0.2,0.1-0.3,0.2c-0.3,0-0.3,0.1-0.3,0.2c0,0.1,0,0.2,0,0.4c0,0.1,0,0.1,0.1,0.2c0.1,0.1,0.4-0.1,0.3-0.2c0,0,0-0.1,0-0.2
		c0,0,0-0.1,0-0.1c0.1,0,0.2,0,0.2,0c0.2,0.3,0.1,0.5-0.3,0.6c-0.3,0.1-0.5,0.2-0.5,0.4c0,0.1-0.1,0.1-0.1,0.2c0,0.1,0,0.2,0,0.2
		c0.2,0.3,0.1,0.6,0.1,0.9c0,0.2,0,0.5-0.1,0.7c-0.1,0.2,0,0.5,0,0.8l0.1,0c0,0,0.1,0,0.1-0.1c-0.1-0.4,0.2-0.8,0.4-1.2c0,0,0,0,0,0
		c0,0,0.1,0.1,0.1,0.1c0,0.1,0,0.2-0.1,0.2c-0.1,0.1-0.1,0.2-0.1,0.3c0.1,0.3,0.2,0.6,0,0.9c0,0.1,0,0.2,0,0.3
		c0.1,0.5,0.2,1,0.2,1.5c0,0.1,0,0.2,0.1,0.3c0,0.1,0.1,0.3,0.1,0.4c0.1,0.4,0.2,0.7,0.3,1c0,0,0,0,0.1,0c0,0,0,0,0,0
		c0,0,0-0.1,0-0.1c-0.2-0.8-0.3-1.5-0.2-2.3c0-0.4,0-0.7,0-1.1C58.9,34.4,59,34,59,33.6c0-0.1,0-0.2,0-0.2c0.2-0.6,0.3-1.1,0.3-1.7
		c0-0.3,0-0.7,0.1-1c0-0.1,0-0.2,0.1-0.3c0.1-0.1,0.3-0.1,0.3-0.2c0.1-0.2-0.2-0.1-0.2-0.2c0-0.1,0-0.1,0-0.2c0-0.2,0.2-0.5,0.2-0.8
		c-0.1-0.3,0-0.6,0.1-0.9c0-0.1,0.1-0.3,0.1-0.4c0-0.2,0.3-0.4-0.1-0.5C59.7,27.4,59.7,27.6,59.7,27.7z M58,34.9
		c-0.1,0.1-0.1,0.1-0.1,0.1c0,0.3,0,0.6,0,0.8c0,0.1,0.1,0.1,0.1,0.2c0-0.1,0.1-0.1,0.1-0.2c0-0.2-0.1-0.5,0-0.7c0,0,0-0.1,0-0.2
		C58.1,34.9,58,34.9,58,34.9z M58.7,29.2c0,0-0.1,0-0.1,0c-0.1,0.1-0.3,0.3-0.2,0.5c0,0,0.1,0.1,0.1,0.1c0,0,0,0,0.1,0
		C58.7,29.7,58.8,29.5,58.7,29.2C58.8,29.2,58.7,29.2,58.7,29.2z M59.2,27.1c0,0-0.1,0-0.1,0c0,0.1-0.1,0.3-0.2,0.4
		c0,0.1,0,0.2-0.1,0.3c-0.2,0.2-0.2,0.5-0.2,0.7c0,0.1,0.1,0.2,0.2,0.1c0.2-0.1,0.3-0.2,0.3-0.4c0-0.1,0-0.2,0-0.4
		c-0.1-0.2-0.1-0.3,0.1-0.5c0.1-0.1,0.1-0.2,0.1-0.3C59.2,27.1,59.2,27.1,59.2,27.1z M59.3,26.4c-0.1,0-0.2,0.2-0.1,0.3
		c0,0,0.1,0.1,0.1,0.1c0,0,0.1-0.1,0.1-0.1c0-0.1,0.1-0.2,0.1-0.2C59.4,26.4,59.3,26.3,59.3,26.4z M60,26.9L60,26.9
		C60,26.9,60,26.9,60,26.9L60,26.9z"/>
	<g>
		<g>
			<path class="st0" d="M43.2,41c0,0-0.1,0-0.2,0c-0.5,0.3-0.8,0.7-1.2,1c-0.8,0.8-1.6,1.5-2.4,2.2c-0.5,0.4-1,0.7-1.5,1.1
				c-0.4,0.2-0.8,0.5-1.2,0.7c-0.5,0.2-0.6,0.2-0.9-0.3c-0.1-0.1-0.1-0.2-0.2-0.3c-0.3-0.7-0.6-1.4-0.5-2.2c0-0.2-0.1-0.5-0.1-0.7
				c-0.1-0.4-0.2-0.8-0.1-1.3c0-0.1,0-0.2,0-0.3c0-0.3,0-0.7,0-1c0-0.1,0.1-0.2,0.1-0.2c0.3-0.1,0.7-0.3,1-0.4
				c0.2,0,0.3-0.1,0.5-0.2c0.5-0.4,1.1-0.7,1.8-0.7c0.5,0,0.8-0.4,1.3-0.5c0.2-0.3,0.5-0.5,0.8-0.6c0.3-0.2,0.6-0.4,0.9-0.7
				c0.1-0.1,0.2-0.3,0.3-0.5c0-0.4,0-0.8,0-1.1c0-0.5-0.4-0.8-0.8-0.5c-0.4,0.3-0.8,0.4-1.1,0.8c-0.1,0.1-0.2,0.1-0.2,0.2
				c-0.3,0.2-0.5,0.3-0.8,0.5c-0.4,0.3-0.8,0.6-1.3,0.8c-0.6,0.4-1.3,0.7-2,1c-0.2,0.1-0.3,0.1-0.3-0.2c-0.1-0.4-0.1-0.8,0-1.1
				C35,36,35,35.7,35,35.5c0-0.1,0-0.2,0-0.2c0.1-0.6,0.2-1.1,0.3-1.7c0-0.5,0.2-0.9,0.2-1.4c0-0.1,0.1-0.2,0.1-0.2
				c0.1-0.2,0.1-0.3,0.2-0.3c0-0.8,0-1.6-0.1-2.4c0,0-0.1-0.1-0.1-0.1c0-0.1-0.1-0.2-0.1-0.3c-0.1-0.1-0.2-0.2-0.3-0.4
				c0-0.1-0.2-0.3-0.3-0.4c-0.7-0.4-1.3-0.5-2.1-0.5c-0.4,0-0.6,0.3-1,0.4c-0.2,0.4-0.6,0.7-0.7,1.1c-0.2,0.6-0.5,1.2-0.5,1.9
				c0,0.2,0,0.4,0,0.6c-0.1,0.9-0.2,1.8-0.4,2.8c0,0.1,0,0.2,0,0.3c0.1,0.7,0.1,1.3-0.1,2c0,0.2-0.1,0.4-0.1,0.5
				c0,0.7,0,1.4,0.1,2.1c0,0.2,0.1,0.4,0.1,0.6c0,0.2,0,0.4,0.1,0.6c0,0.1,0,0.2,0,0.3c0.1,0.4,0.1,0.9,0.2,1.3
				c0,0.1,0.1,0.1,0.1,0.2c0.2,0.1,0.3-0.1,0.4-0.3c0.1,0,0.2,0,0.3,0.2c0,0.1,0,0.2,0,0.3c-0.2,0.1-0.2,0.3-0.4,0.2
				c-0.2-0.1-0.2,0.1-0.2,0.2c0,0.4,0.2,0.8,0.3,1.1c0.2,0.7,0.5,1.3,1,1.8c0.5,0.6,1.1,0.9,1.8,1.2c0.6,0.2,1.3,0.4,1.9,0.6
				c0.1,0,0.3,0.1,0.4,0c0.2-0.2,0.5,0,0.7,0c0.5,0,1-0.1,1.5-0.2c0.3-0.1,0.5-0.2,0.8-0.3c0.4-0.1,0.7-0.2,0.9-0.5
				c0.1-0.1,0.2-0.2,0.3-0.1c0.1,0,0.2,0,0.2-0.1c-0.1-0.3,0.1-0.4,0.3-0.5c0.3-0.2,0.5-0.4,0.5-0.7c0-0.1,0.1-0.2,0.2-0.3
				c0.4-0.4,0.6-0.9,1.1-1.2c0.2-0.1,0.2-0.3,0.2-0.5c0-0.5,0.1-0.9,0.3-1.3c0.1-0.2,0.1-0.4,0.2-0.6C43.3,41.1,43.2,41,43.2,41z
				 M31.3,34C31.4,33.9,31.4,33.9,31.3,34C31.4,33.9,31.4,34,31.3,34C31.3,34,31.3,34,31.3,34C31.3,34,31.3,34,31.3,34z M30.3,38.4
				c0,0,0-0.1,0-0.1c0.1,0,0.1-0.1,0.2-0.1c0.1,0,0.1,0,0.2,0.1c0,0-0.1,0.1-0.1,0.1C30.5,38.4,30.4,38.4,30.3,38.4z M31.3,41.2
				c0,0.3-0.1,0.4-0.3,0.6c-0.4-0.1-0.5-0.2-0.3-0.5c0.1-0.3,0.2-0.5,0.2-0.8c0-0.1,0.1-0.3,0.1-0.4c-0.3-0.1-0.1-0.4-0.2-0.5
				c-0.1-0.2-0.2-0.4-0.2-0.6c0-0.1,0-0.1,0-0.2c0.1,0,0.1,0,0.2,0.1c0,0,0.1,0,0.2,0c0,0,0-0.1,0-0.2c-0.1-0.1-0.1-0.2-0.1-0.4
				c0.1,0,0.2-0.1,0.1-0.2c-0.1-0.4-0.3-0.8-0.4-1.3c0-0.1,0-0.3,0-0.4c0.2-0.2,0.2-0.5,0.5-0.7c0.1-0.1,0.1-0.2,0-0.2
				c-0.2-0.1-0.2-0.2,0-0.4c0.1-0.1,0.2-0.2,0.2-0.3c0-0.2,0-0.5,0.1-0.7l0.1,0c0,0,0.1,0.1,0.1,0.1c0.1,0,0.3,0,0.4,0.1
				c0.1,0.1,0,0.2,0,0.4c-0.1,0.5-0.1,1-0.2,1.5c0,0.1,0,0.2,0.1,0.3c0,0.2,0.1,0.4,0.1,0.5c0.1,0.3,0,0.5-0.2,0.7
				c-0.2,0.2-0.3,0.4-0.2,0.8c0.1,0.3,0.1,0.7,0.1,1c0,0.1,0.1,0.3,0.1,0.4c0,0.1,0.2,0.2,0.2,0.3c0,0.1-0.2,0.2-0.3,0.3
				C31.3,40.6,31.2,41,31.3,41.2z M31.9,44.2c-0.1,0-0.2,0-0.2-0.1c0-0.2-0.1-0.2-0.3-0.1c0,0-0.1,0-0.1,0.1
				c-0.1-0.1-0.2-0.1-0.2-0.2c0,0,0-0.1,0.1-0.2c0.1-0.1,0.2-0.1,0.2-0.1c0.1,0,0.2,0,0.2,0c0.1,0,0.3-0.1,0.4,0.1
				c0.1,0.1,0.1,0.3,0,0.4C32.1,44.1,32,44.2,31.9,44.2z M32.2,44.5C32.2,44.5,32.1,44.5,32.2,44.5c-0.1-0.2-0.1-0.3,0-0.4
				C32.2,44.2,32.2,44.3,32.2,44.5C32.3,44.5,32.2,44.5,32.2,44.5z M32.5,45.2L32.5,45.2l0-0.2L32.5,45.2L32.5,45.2z"/>
		</g>
		<path class="st0" d="M43.8,25.1c0-0.1,0-0.1-0.1-0.1c-0.3-0.2-0.3-0.5-0.4-0.8c-0.1-0.2-0.2-0.2-0.3-0.3c-0.4-0.3-0.9-0.4-1.4-0.3
			c-0.5-0.1-0.9,0.2-1.4,0.3c-0.5,0.2-1,0.4-1.4,0.7c-0.2,0.1-0.4,0.2-0.7,0.3c-0.6,0.2-1.1,0.5-1.7,0.7c-0.4,0.2-0.9,0.4-1.4,0.6
			c-0.3,0.1-0.5,0.2-0.7,0.3c0,0-0.1,0-0.1,0.1c-0.3,0.4-0.8,0.5-1.3,0.7c-0.2,0.1-0.4,0.2-0.5,0.3c0.1-0.1,0.2-0.1,0.3-0.2
			c0,0,0.1,0,0.1,0c0.7,0,1.4,0.2,2.1,0.5c0.2,0.1,0.3,0.3,0.3,0.4c0,0.2,0.1,0.3,0.3,0.4c0,0.1,0.1,0.2,0.1,0.3c0,0,0,0.1,0.1,0.1
			c0,0.2,0,0.4,0,0.7c0.1-0.1,0.2-0.2,0.3-0.1c0.1,0,0.2-0.1,0.2-0.1c0-0.1,0.1-0.2,0.2-0.1c0.1,0,0.3,0,0.4-0.1
			c0,0,0.1-0.1,0.1-0.1c0.3,0.1,0.3-0.6,0.5-0.7c0.2-0.1,0.5,0.3,0.7,0.1c0.1-0.2,0.3-0.2,0.5-0.3c0.2,0,0.4-0.1,0.4-0.3
			c0,0,0-0.1,0-0.1c0.2,0,0.4-0.2,0.5-0.4c0,0,0.1,0,0.1,0c0.3,0.1,0.5,0,0.7-0.2c0.1-0.1,0.2-0.1,0.3,0c0.1,0.1,0.2,0,0.3,0
			c0.1,0,0.3-0.1,0.3-0.2c0.3-0.3,0.8-0.4,1.2-0.6c0.4-0.1,0.7-0.2,1-0.3c0.2,0,0.4-0.1,0.4-0.2C43.9,26,43.9,25.3,43.8,25.1z
			 M38.9,25.5C38.9,25.6,38.9,25.6,38.9,25.5c-0.1,0.1-0.2,0.1-0.2,0.1l0,0C38.8,25.5,38.8,25.5,38.9,25.5L38.9,25.5
			C38.9,25.5,38.9,25.5,38.9,25.5z"/>
	</g>
	<g>
		<g>
			<path class="st0" d="M109.5,21.3c0,0-0.1,0-0.2,0c-0.5,0.3-0.8,0.7-1.2,1c-0.8,0.8-1.6,1.5-2.4,2.2c-0.5,0.4-1,0.7-1.5,1.1
				c-0.4,0.2-0.8,0.5-1.2,0.7c-0.5,0.2-0.6,0.2-0.9-0.3c-0.1-0.1-0.1-0.2-0.2-0.3c-0.3-0.7-0.6-1.4-0.5-2.2c0-0.2-0.1-0.5-0.1-0.7
				c-0.1-0.4-0.2-0.8-0.1-1.3c0-0.1,0-0.2,0-0.3c0-0.3,0-0.7,0-1c0-0.1,0.1-0.2,0.1-0.2c0.3-0.1,0.7-0.3,1-0.4
				c0.2,0,0.3-0.1,0.5-0.2c0.5-0.4,1.1-0.7,1.8-0.7c0.5,0,0.8-0.4,1.3-0.5c0.2-0.3,0.5-0.5,0.8-0.6c0.3-0.2,0.6-0.4,0.9-0.7
				c0.1-0.1,0.2-0.3,0.3-0.5c0-0.4,0-0.8,0-1.1c0-0.5-0.4-0.8-0.8-0.5c-0.4,0.3-0.8,0.4-1.1,0.8c-0.1,0.1-0.2,0.1-0.2,0.2
				c-0.3,0.2-0.5,0.3-0.8,0.5c-0.4,0.3-0.8,0.6-1.3,0.8c-0.6,0.4-1.3,0.7-2,1c-0.2,0.1-0.3,0.1-0.3-0.2c-0.1-0.4-0.1-0.8,0-1.1
				c0.1-0.2,0.1-0.4,0.1-0.6c0-0.1,0-0.2,0-0.2c0.1-0.6,0.2-1.1,0.3-1.7c0-0.5,0.2-0.9,0.2-1.4c0-0.1,0.1-0.2,0.1-0.2
				c0.1-0.2,0.1-0.3,0.2-0.3c0-0.8,0-1.6-0.1-2.4c0,0-0.1-0.1-0.1-0.1c0-0.1-0.1-0.2-0.1-0.3c-0.1-0.1-0.2-0.2-0.3-0.4
				c0-0.1-0.2-0.3-0.3-0.4c-0.7-0.4-1.3-0.5-2.1-0.5c-0.4,0-0.6,0.3-1,0.4c-0.2,0.4-0.6,0.7-0.7,1.1c-0.2,0.6-0.5,1.2-0.5,1.9
				c0,0.2,0,0.4,0,0.6c-0.1,0.9-0.2,1.8-0.4,2.8c0,0.1,0,0.2,0,0.3c0.1,0.7,0.1,1.3-0.1,2c0,0.2-0.1,0.4-0.1,0.5
				c0,0.7,0,1.4,0.1,2.1c0,0.2,0.1,0.4,0.1,0.6c0,0.2,0,0.4,0.1,0.6c0,0.1,0,0.2,0,0.3c0.1,0.4,0.1,0.9,0.2,1.3
				c0,0.1,0.1,0.1,0.1,0.2c0.2,0.1,0.3-0.1,0.4-0.3c0.1,0,0.2,0,0.3,0.2c0,0.1,0,0.2,0,0.3c-0.2,0.1-0.2,0.3-0.4,0.2
				C97,22.8,97,23,97,23.1c0,0.4,0.2,0.8,0.3,1.1c0.2,0.7,0.5,1.3,1,1.8c0.5,0.6,1.1,0.9,1.8,1.2c0.6,0.2,1.3,0.4,1.9,0.6
				c0.1,0,0.3,0.1,0.4,0c0.2-0.2,0.5,0,0.7,0c0.5,0,1-0.1,1.5-0.2c0.3-0.1,0.5-0.2,0.8-0.3c0.4-0.1,0.7-0.2,0.9-0.5
				c0.1-0.1,0.2-0.2,0.3-0.1c0.1,0,0.2,0,0.2-0.1c-0.1-0.3,0.1-0.4,0.3-0.5c0.3-0.2,0.5-0.4,0.5-0.7c0-0.1,0.1-0.2,0.2-0.3
				c0.4-0.4,0.6-0.9,1.1-1.2c0.2-0.1,0.2-0.3,0.2-0.5c0-0.5,0.1-0.9,0.3-1.3c0.1-0.2,0.1-0.4,0.2-0.6
				C109.6,21.5,109.6,21.4,109.5,21.3z M97.7,14.3C97.7,14.3,97.7,14.3,97.7,14.3C97.7,14.3,97.7,14.4,97.7,14.3
				C97.7,14.4,97.6,14.4,97.7,14.3C97.6,14.4,97.6,14.4,97.7,14.3z M96.7,18.7c0,0,0-0.1,0-0.1c0.1,0,0.1-0.1,0.2-0.1
				c0.1,0,0.1,0,0.2,0.1c0,0-0.1,0.1-0.1,0.1C96.9,18.8,96.8,18.8,96.7,18.7z M97.6,21.6c0,0.3-0.1,0.4-0.3,0.6
				C97,22.1,96.8,22,97,21.7c0.1-0.3,0.2-0.5,0.2-0.8c0-0.1,0.1-0.3,0.1-0.4c-0.3-0.1-0.1-0.4-0.2-0.5c-0.1-0.2-0.2-0.4-0.2-0.6
				c0-0.1,0-0.1,0-0.2c0.1,0,0.1,0,0.2,0.1c0,0,0.1,0,0.2,0c0,0,0-0.1,0-0.2c-0.1-0.1-0.1-0.2-0.1-0.4c0.1,0,0.2-0.1,0.1-0.2
				c-0.1-0.4-0.3-0.8-0.4-1.3c0-0.1,0-0.3,0-0.4c0.2-0.2,0.2-0.5,0.5-0.7c0.1-0.1,0.1-0.2,0-0.2c-0.2-0.1-0.2-0.2,0-0.4
				c0.1-0.1,0.2-0.2,0.2-0.3c0-0.2,0-0.5,0.1-0.7l0.1,0c0,0,0.1,0.1,0.1,0.1c0.1,0,0.3,0,0.4,0.1c0.1,0.1,0,0.2,0,0.4
				c-0.1,0.5-0.1,1-0.2,1.5c0,0.1,0,0.2,0.1,0.3c0,0.2,0.1,0.4,0.1,0.5c0.1,0.3,0,0.5-0.2,0.7c-0.2,0.2-0.3,0.4-0.2,0.8
				c0.1,0.3,0.1,0.7,0.1,1c0,0.1,0.1,0.3,0.1,0.4c0,0.1,0.2,0.2,0.2,0.3c0,0.1-0.2,0.2-0.3,0.3C97.6,21,97.6,21.3,97.6,21.6z
				 M98.2,24.6c-0.1,0-0.2,0-0.2-0.1c0-0.2-0.1-0.2-0.3-0.1c0,0-0.1,0-0.1,0.1c-0.1-0.1-0.2-0.1-0.2-0.2c0,0,0-0.1,0.1-0.2
				c0.1-0.1,0.2-0.1,0.2-0.1c0.1,0,0.2,0,0.2,0c0.1,0,0.3-0.1,0.4,0.1c0.1,0.1,0.1,0.3,0,0.4C98.4,24.5,98.3,24.6,98.2,24.6z
				 M98.5,24.9C98.5,24.9,98.4,24.9,98.5,24.9c-0.1-0.2-0.1-0.3,0-0.4C98.5,24.6,98.6,24.7,98.5,24.9C98.6,24.9,98.5,24.9,98.5,24.9
				z M98.8,25.6L98.8,25.6l0-0.2L98.8,25.6L98.8,25.6z"/>
		</g>
		<path class="st0" d="M110.2,5.5c0-0.1,0-0.1-0.1-0.1c-0.3-0.2-0.3-0.5-0.4-0.8c-0.1-0.2-0.2-0.2-0.3-0.3C109,4,108.5,3.9,107.9,4
			c-0.5-0.1-0.9,0.2-1.4,0.3c-0.5,0.2-1,0.4-1.4,0.7c-0.2,0.1-0.4,0.2-0.7,0.3c-0.6,0.2-1.1,0.5-1.7,0.7c-0.4,0.2-0.9,0.4-1.4,0.6
			c-0.3,0.1-0.5,0.2-0.7,0.3c0,0-0.1,0-0.1,0.1c-0.3,0.4-0.8,0.5-1.3,0.7c-0.2,0.1-0.4,0.2-0.5,0.3c0.1-0.1,0.2-0.1,0.3-0.2
			c0,0,0.1,0,0.1,0c0.7,0,1.4,0.2,2.1,0.5c0.2,0.1,0.3,0.3,0.3,0.4c0,0.2,0.1,0.3,0.3,0.4c0,0.1,0.1,0.2,0.1,0.3c0,0,0,0.1,0.1,0.1
			c0,0.2,0,0.4,0,0.7c0.1-0.1,0.2-0.2,0.3-0.1c0.1,0,0.2-0.1,0.2-0.1c0-0.1,0.1-0.2,0.2-0.1c0.1,0,0.3,0,0.4-0.1
			c0,0,0.1-0.1,0.1-0.1c0.3,0.1,0.3-0.6,0.5-0.7c0.2-0.1,0.5,0.3,0.7,0.1c0.1-0.2,0.3-0.2,0.5-0.3c0.2,0,0.4-0.1,0.4-0.3
			c0,0,0-0.1,0-0.1c0.2,0,0.4-0.2,0.5-0.4c0,0,0.1,0,0.1,0c0.3,0.1,0.5,0,0.7-0.2c0.1-0.1,0.2-0.1,0.3,0c0.1,0.1,0.2,0,0.3,0
			c0.1,0,0.3-0.1,0.3-0.2c0.3-0.3,0.8-0.4,1.2-0.6c0.4-0.1,0.7-0.2,1-0.3c0.2,0,0.4-0.1,0.4-0.2C110.2,6.4,110.2,5.7,110.2,5.5z
			 M105.3,5.9C105.2,5.9,105.2,6,105.3,5.9C105.1,6,105.1,6,105.1,6l0,0C105.1,5.9,105.2,5.9,105.3,5.9L105.3,5.9
			C105.3,5.9,105.3,5.9,105.3,5.9z"/>
	</g>
	<g>
		<g>
			<path class="st0" d="M96.3,13.5c-0.1-0.1-0.1-0.2-0.1-0.4c0.1-0.2,0.1-0.3,0.1-0.5c0-0.1,0-0.2-0.1-0.4c0,0-0.1-0.1-0.1-0.2
				c0-0.2-0.1-0.4,0-0.6c0-0.1,0-0.2-0.2-0.3c-0.1,0-0.1,0-0.1-0.1c-0.1,0-0.2-0.1-0.1-0.2c0-0.3-0.1-0.4-0.2-0.6
				c-0.1-0.1-0.3-0.2-0.5-0.4c-0.1,0-0.1-0.1-0.2-0.1c-0.1,0.1-0.2,0-0.3-0.2c0,0-0.1-0.1-0.2-0.1c-0.1-0.1-0.2-0.1-0.4,0
				c-0.1,0-0.2,0-0.2-0.1c0-0.2-0.2-0.3-0.4-0.3c-0.1-0.1-0.3,0-0.5-0.1c-0.1,0-0.3,0-0.4-0.1c-0.2-0.1-0.5-0.2-0.7-0.2
				c-0.2,0-0.5,0-0.8-0.1c-0.1,0-0.3,0-0.4-0.1c-0.1-0.1-0.2-0.1-0.3,0c-0.2,0-0.4,0-0.6,0c-0.3,0-0.6-0.1-0.9,0
				c-0.4,0-0.9,0.1-1.3,0.1c-0.2,0-0.4,0-0.5,0.1c-0.1,0.1-0.1,0.1-0.2,0.1c-0.1,0-0.3,0-0.4,0.1C86.2,9,85.9,9,85.7,9
				c-0.2,0-0.3,0.1-0.4,0.1c-0.3,0.2-0.7,0.2-0.9,0.4l-0.1,0c-0.2,0-0.3,0-0.4,0.1c-0.2,0.1-0.4,0.1-0.6,0.3c0,0-0.1,0-0.1,0
				c-0.2,0-0.4,0-0.6,0.2c0,0-0.1,0-0.2,0.1c-0.2,0-0.4,0.1-0.6,0.2c-0.3,0.1-0.6,0.3-0.7,0.6c0,0.1,0,0.2,0,0.3
				c0.1,0.1,0.1,0.2,0.2,0.3c0.1,0.3,0.3,0.3,0.6,0.2c0.1-0.1,0.2-0.1,0.3-0.1c0.1,0,0.2,0,0.2,0c0.2,0,0.3,0,0.5,0
				c0.3-0.1,0.6,0.1,0.9,0c0.1,0,0.1,0.1,0.2,0.2c0,0.1,0,0.1,0,0.2c0,0.2-0.1,0.4-0.1,0.6c0,0.7,0,1.3,0,2c0,0.1,0,0.1,0,0.1
				c-0.1,0.2-0.1,0.4,0,0.6c0,0.2,0,0.3,0,0.5c0,0.3,0,0.6,0,0.9c0,0.4,0,0.8,0.1,1.2c0,0.1,0,0.2,0,0.3c0,0.1,0,0.2,0,0.3
				c0,0.2,0,0.4,0.1,0.7c0,0.1,0,0.2,0,0.2c0,0.1,0,0.2,0,0.4c0,0.2,0,0.4,0,0.6c0,0,0,0.1,0,0.1c0.1,0.2,0,0.4,0,0.6
				c-0.1,0.1,0,0.2,0,0.4c0,0.3,0,0.6,0,0.8c0,0.3,0,0.5,0.1,0.8c0,0.1,0.1,0.2,0.2,0.2c0,0,0,0,0.1,0c0,0.1,0,0.2,0,0.3
				c0,0,0,0,0,0c0,0-0.1-0.1-0.1-0.1c0,0-0.1,0-0.1,0c0,0,0,0-0.1,0.1c0,0.3,0,0.6,0,1c0,0.1,0.1,0.1,0.1,0.1
				c0.2,0.1,0.2,0.3,0.3,0.5c0.1,0.2,0,0.3-0.1,0.4c-0.2,0.1-0.2,0.2-0.2,0.4c0,0.3,0,0.5,0,0.7c0,0.1,0,0.1,0,0.2l0,0.1
				c0.1,0.1,0.3,0.1,0.4,0c0,0,0,0,0,0c0,0.3,0,0.5-0.1,0.8c0,0.1,0,0.1-0.1,0.1c-0.2,0.1-0.1,0.2-0.1,0.3c0.1,0.2,0.1,0,0.2,0
				c0,0,0.1,0,0.1,0c0,0.2,0.2,0.3,0.1,0.5c0,0.1,0,0.1,0,0.2c0.1,0.1,0.1,0.2,0.1,0.4c0,0.1,0,0.3,0,0.4c0.1,0.2,0,0.4,0,0.5
				c0,0,0,0,0,0c0,0,0,0,0,0l0,0c0,0,0,0-0.1,0c0-0.1,0-0.1-0.1-0.2c0-0.2-0.1-0.5-0.1-0.7c0-0.1,0-0.1-0.1-0.2c0,0,0,0-0.1,0
				c0,0-0.1,0-0.1,0c0,0,0,0.1,0,0.1c0,0.6,0.1,1.3,0.2,1.9c0,0.3,0.1,0.6,0.1,0.9c0,0.1,0,0.2,0.1,0.2c0.1,0.1,0.1,0.2,0.1,0.3
				c0,0.1,0,0.3,0,0.4c0.1,0.4,0.2,0.8,0.3,1.2c0,0.4,0.1,0.8,0.2,1.1c0,0.2,0.1,0.5,0.2,0.7c0.1,0.2,0.2,0.3,0.4,0.3
				c0.4,0.1,0.7,0.1,1-0.2c0.1,0,0.1-0.1,0.1-0.1c0-0.2,0.1-0.4,0.1-0.7c0-0.1,0-0.1-0.1-0.2c0,0-0.1-0.1-0.1-0.1
				c-0.1-0.1-0.1-0.2,0.1-0.3c0,0,0.1,0,0.1,0c0.1,0.1,0.2,0.2,0.2,0.3c0.1,0.1,0.1,0.2,0.2,0.3c0.1,0.1,0.2,0.1,0.3,0
				c0.1-0.2,0.1-0.3,0.2-0.5c0-0.2,0-0.4,0.1-0.5c0.1-0.1,0.1-0.2,0-0.3c0-0.1,0-0.3-0.1-0.4c0-0.1,0-0.3-0.1-0.4c0,0-0.1-0.1,0-0.2
				c0-0.2,0-0.4,0-0.7c0-0.2,0-0.5-0.1-0.7c-0.1-0.3-0.1-0.6,0-0.9c0-0.1,0-0.2,0-0.3c-0.1-0.3-0.1-0.6-0.1-0.9c0-0.1,0-0.3-0.1-0.4
				l0-1.9c0-0.1,0-0.2,0-0.2c0.1-0.1,0.1-0.2,0-0.2c-0.1-0.2-0.1-0.3-0.1-0.5c0-0.1,0-0.3,0-0.5c0-0.1,0-0.1,0-0.2
				c0.1,0,0.2-0.1,0.3-0.2c0.1,0,0.1-0.1,0.1-0.2c0-0.1,0.1-0.2,0.1-0.2c0.2-0.1,0.3-0.3,0.6-0.4c0.1,0,0.1-0.1,0.1-0.1l0.8-0.6
				c0.3-0.3,0.6-0.5,0.9-0.7c0.1,0,0.1-0.1,0.1-0.2c0-0.1,0.1-0.2,0.2-0.2c0.2-0.1,0.1-0.3-0.1-0.4c0,0,0-0.1,0.1-0.1
				c0.2-0.1,0.4-0.2,0.5-0.2c0.1,0,0.2-0.1,0.3-0.2c0.1-0.1,0.2-0.2,0.4-0.3c0.1-0.1,0.2-0.2,0.2-0.3c0-0.1,0-0.2,0.1-0.3
				c0-0.2,0.2-0.4,0.3-0.4c0.3-0.1,0.4-0.3,0.5-0.5c0.1-0.2,0.1-0.3,0.3-0.4c0.1,0,0.2-0.1,0.2-0.2c0-0.2,0.1-0.3,0.2-0.3
				c0.1-0.1,0.2-0.1,0.2-0.3c0-0.1,0-0.2-0.1-0.1c-0.1,0-0.1-0.1-0.1-0.1c0-0.1,0.1-0.1,0.1-0.2c0.2,0,0.3-0.1,0.4-0.3
				c0-0.1,0.1-0.1,0.1-0.1c0.1,0,0.1-0.1,0.2-0.2c0.1-0.2,0.1-0.3,0.3-0.4c0.1,0,0.1-0.2,0.1-0.3c0-0.1,0.1-0.3,0.2-0.4
				c0.1-0.2,0-0.3,0.1-0.5c0,0,0,0,0-0.1c0-0.1,0.1-0.2,0.2-0.2c0.1,0,0.2-0.1,0.2-0.2c0-0.1,0-0.1,0.1-0.1c0.1-0.1,0.2-0.2,0.2-0.3
				c0.1-0.1,0-0.3,0.1-0.4c0.1-0.1,0.2-0.2,0.2-0.3c0,0,0,0,0,0c0.1-0.2,0.1-0.4,0.2-0.6C96.4,13.7,96.5,13.7,96.3,13.5z M84.6,19.3
				c-0.1,0-0.2-0.1-0.2-0.1c-0.1-0.1-0.1-0.2,0-0.3c0.1-0.1,0.1-0.1,0.2-0.2c0-0.1,0.1-0.1,0.2-0.1c0,0,0,0,0.1,0
				c0.1,0.1,0.1,0.2,0.1,0.3c0,0.1,0,0.3,0,0.4C84.8,19.3,84.7,19.3,84.6,19.3z M84.2,15.3C84.2,15.2,84.2,15.2,84.2,15.3
				C84.2,15.2,84.2,15.3,84.2,15.3z M86.4,31.3C86.4,31.3,86.4,31.3,86.4,31.3C86.3,31.3,86.3,31.3,86.4,31.3
				C86.3,31.3,86.4,31.3,86.4,31.3C86.4,31.2,86.4,31.3,86.4,31.3z M84.2,14.4c0-0.1,0.1-0.1,0.1-0.1l0.1,0.1c0,0.1,0,0.2,0,0.3
				c0,0-0.1,0.1-0.1,0.1c0,0-0.1,0-0.1-0.1C84.1,14.6,84.1,14.5,84.2,14.4z M84.2,22.1L84.2,22.1L84.2,22.1L84.2,22.1
				C84.2,22.1,84.2,22.1,84.2,22.1z M84.9,31L84.9,31C84.9,31,84.9,31,84.9,31C84.9,31,84.9,31,84.9,31L84.9,31z M86,28.6
				C86,28.6,85.9,28.5,86,28.6c0-0.2,0.1-0.2,0.2-0.2c0,0,0.1,0,0.1,0.1C86.2,28.5,86.1,28.6,86,28.6z M86.5,31.8
				c-0.1,0-0.1,0-0.2-0.1c0,0,0.1-0.1,0.1-0.1c0.1,0,0.1,0,0.2,0.1C86.5,31.7,86.5,31.8,86.5,31.8z M86.8,33c0-0.2,0-0.3,0.1-0.4
				l0.1,0c0,0,0.1,0,0.1,0.1C87.1,32.8,87.1,32.9,86.8,33z M87.3,23.3C87.3,23.4,87.2,23.4,87.3,23.3c-0.1,0.1-0.1,0.1-0.1,0.1
				c0,0,0,0,0-0.1c0-0.1,0.1-0.2,0.1-0.2c0.2-0.1,0.3-0.4,0.6-0.4c0,0,0.1-0.1,0.1-0.1c0.1-0.1,0.2-0.2,0.3-0.2c0,0,0.1,0,0.1,0
				c0,0,0,0,0,0.1c-0.1,0.1-0.1,0.2-0.2,0.3C87.8,22.9,87.6,23.1,87.3,23.3z M88.3,24.4C88.3,24.4,88.3,24.4,88.3,24.4
				c-0.1,0.1-0.1,0.1-0.2,0.1c0,0,0,0,0,0C88.2,24.3,88.2,24.3,88.3,24.4C88.3,24.3,88.4,24.3,88.3,24.4
				C88.4,24.3,88.4,24.4,88.3,24.4z M88.6,23.3L88.6,23.3C88.6,23.3,88.6,23.2,88.6,23.3C88.6,23.2,88.6,23.2,88.6,23.3L88.6,23.3z
				 M88.7,22c0,0-0.1,0-0.1,0c0-0.1,0-0.1,0-0.1c0,0,0.1,0,0.1,0c0.2-0.1,0.3-0.2,0.3-0.4c0.1-0.1,0.1-0.2,0.3-0.2l0.1,0
				c0,0,0,0.1,0,0.1C89.1,21.6,88.9,21.8,88.7,22z M89.1,23.8L89.1,23.8c0-0.1,0-0.1,0-0.1L89.1,23.8C89.1,23.8,89.1,23.8,89.1,23.8
				z M89.6,22.7c0,0-0.1,0.1-0.1,0.1c-0.1,0-0.1,0-0.1-0.1c0,0,0.1-0.1,0.1-0.1c0,0,0,0,0.1,0c0,0,0,0,0.1,0
				C89.5,22.5,89.6,22.6,89.6,22.7C89.6,22.6,89.6,22.6,89.6,22.7z M89.9,22.5L89.9,22.5L89.9,22.5L89.9,22.5z M90.9,19.3
				c0,0.1,0,0.2,0,0.2c-0.2,0.3-0.4,0.5-0.6,0.8c-0.1,0.1-0.1,0.2-0.2,0.2c-0.1,0.1-0.2,0.2-0.3,0.3c0,0.1-0.1,0.1-0.2,0.1
				c-0.1,0-0.1,0-0.1,0c0,0,0-0.1,0-0.1c0.1-0.1,0.1-0.2,0.2-0.2c0.2-0.1,0.3-0.2,0.3-0.5c0,0,0-0.1,0-0.1c0.2-0.1,0.3-0.3,0.5-0.5
				c0,0,0-0.1,0.1-0.1C90.8,19.6,90.8,19.4,90.9,19.3L90.9,19.3C90.9,19.3,91,19.3,90.9,19.3z M91.4,18.8
				C91.4,18.8,91.3,18.8,91.4,18.8c-0.1,0-0.1-0.1-0.1-0.1c0-0.1,0.1-0.2,0.1-0.3c0,0,0,0,0-0.1l0.1,0.1
				C91.5,18.6,91.5,18.7,91.4,18.8z M92.3,15.8c0,0.1-0.1,0.1-0.1,0.2c-0.2,0.4-0.4,0.8-0.6,1.3c0,0.1-0.1,0.2-0.1,0.2
				c-0.2,0.3-0.5,0.5-0.6,0.9c0,0,0,0.1-0.1,0.1c0,0-0.1,0-0.1,0.1c-0.2,0.3-0.4,0.5-0.6,0.8c0,0-0.1,0.1-0.1,0.1
				c0.1,0.3-0.1,0.5-0.3,0.6c-0.3,0.4-0.6,0.8-1,1.2c-0.4,0.4-0.7,0.8-1.2,1.2c0,0-0.1,0.1-0.1,0.1c0,0-0.1,0-0.1,0c0,0,0,0,0,0
				c0-0.1,0-0.1,0.1-0.1c0.1-0.2,0.1-0.5,0-0.7c0-0.1,0-0.2,0-0.3c0-0.2,0-0.3,0-0.5c0-0.2,0-0.4,0-0.5c0-0.1,0-0.2,0-0.2
				c0-0.2-0.1-0.3-0.1-0.5c0,0,0-0.1,0-0.1c0,0,0-0.1,0-0.1c0.1-0.4,0.1-0.8,0-1.2c0-0.2-0.1-0.4-0.1-0.6c0-0.1,0-0.1,0-0.1
				C87,17.4,87,17.3,87,17.3c0,0,0-0.1,0-0.1c0-0.1,0-0.1,0.1-0.2c0-0.2,0.1-0.4,0.1-0.6c0-0.3,0-0.6,0-0.9c0-0.1,0-0.2,0-0.3
				c0-0.1,0-0.1,0-0.1c0.1-0.1,0.1-0.2,0.1-0.3c0-0.4,0.1-0.8,0.3-1.2c0.1-0.3,0.1-0.7-0.2-1c-0.1-0.2-0.2-0.4-0.1-0.6
				c0.1-0.4-0.1-0.8-0.4-1.1c0-0.1-0.1-0.1-0.2-0.2c-0.1-0.1-0.1-0.1,0-0.2c0.2-0.1,0.5-0.2,0.7-0.3c0.3-0.1,0.6-0.1,0.9-0.2
				c0.2,0,0.3-0.1,0.5-0.1c0.4,0,0.9-0.1,1.3-0.1c0.5,0,0.9,0,1.3,0.2c0.1,0.1,0.2,0.1,0.3,0.1c0.1,0,0.2,0.1,0.3,0.2
				c0.3,0.2,0.6,0.3,0.8,0.5c0.2,0.2,0.3,0.4,0.4,0.7c0,0.2,0.1,0.3,0.1,0.4c0.1,0.3,0.1,0.6,0,0.9c0,0.1,0,0.1,0,0.2
				c-0.1,0.5-0.2,1.1-0.4,1.6C92.7,15,92.4,15.4,92.3,15.8z M93.9,15.6c0,0-0.1,0-0.1,0l0.1-0.1C93.8,15.5,93.9,15.5,93.9,15.6
				C93.9,15.5,93.9,15.6,93.9,15.6z M94,14.7c0,0.1,0,0.1,0,0.2c0,0.1-0.1,0.3-0.2,0.3c0,0-0.1,0-0.1,0c-0.1,0.3-0.4,0.5-0.5,0.8
				c0,0,0,0.1,0,0.1c0.1,0,0.1,0,0.1,0c0.1,0,0.1-0.1,0.1-0.1c0.1,0,0.1-0.1,0.2-0.1c0,0.1-0.1,0.1-0.1,0.2
				c-0.1,0.3-0.2,0.5-0.2,0.8c0,0.2,0,0.3-0.2,0.4c-0.1,0-0.1,0.2-0.1,0.2c0,0.1,0,0.1-0.1,0.1c-0.1,0-0.1,0-0.2,0
				c-0.1-0.1-0.1-0.2-0.2-0.3c-0.1-0.1-0.2-0.3-0.1-0.4c0.1-0.1,0.2-0.3,0.2-0.5c0-0.1,0-0.2,0.1-0.3c0.1-0.4,0.2-0.8,0.4-1.2
				c0.1-0.3,0.1-0.6,0.2-0.9c0.1-0.1,0.1-0.2,0.1-0.3c0.1-0.1,0.1-0.2,0.1-0.3c0-0.2,0-0.3,0-0.5c0,0,0-0.1,0.1-0.1
				c0,0,0.1,0,0.1-0.1c0,0,0.1,0.1,0.1,0.1c0,0.2,0,0.3,0,0.4c0,0.1,0,0.2,0,0.2c0.1,0.1,0.1,0.1,0,0.2c-0.1,0,0,0.1,0,0.1
				C94.1,14.4,94.1,14.5,94,14.7z"/>
			<path class="st0" d="M84.6,29.2C84.6,29.2,84.7,29.2,84.6,29.2c0.1-0.1,0.1-0.3,0-0.4l-0.1,0C84.6,28.9,84.6,29,84.6,29.2
				C84.6,29.1,84.6,29.2,84.6,29.2z"/>
			<path class="st0" d="M84.8,30.1C84.8,30.1,84.8,30.1,84.8,30.1C84.8,30.1,84.8,30,84.8,30.1C84.8,30,84.7,30,84.8,30.1L84.8,30.1
				C84.7,30.1,84.7,30.1,84.8,30.1C84.8,30.1,84.8,30.1,84.8,30.1z"/>
		</g>
		<g>
			<path class="st0" d="M96.3,13.5c-0.1-0.1-0.1-0.2-0.1-0.4c0.1-0.2,0.1-0.3,0.1-0.5c0-0.1,0-0.2-0.1-0.4c0,0-0.1-0.1-0.1-0.2
				c0-0.2-0.1-0.4,0-0.6c0-0.1,0-0.2-0.2-0.3c-0.1,0-0.1,0-0.1-0.1c-0.1,0-0.2-0.1-0.1-0.2c0-0.3-0.1-0.4-0.2-0.6
				c-0.1-0.1-0.3-0.2-0.5-0.4c-0.1,0-0.1-0.1-0.2-0.1c-0.1,0.1-0.2,0-0.3-0.2c0,0-0.1-0.1-0.2-0.1c-0.1-0.1-0.2-0.1-0.4,0
				c-0.1,0-0.2,0-0.2-0.1c0-0.2-0.2-0.3-0.4-0.3c-0.1-0.1-0.3,0-0.5-0.1c-0.1,0-0.3,0-0.4-0.1c-0.2-0.1-0.5-0.2-0.7-0.2
				c-0.2,0-0.5,0-0.8-0.1c-0.1,0-0.3,0-0.4-0.1c-0.1-0.1-0.2-0.1-0.3,0c-0.2,0-0.4,0-0.6,0c-0.3,0-0.6-0.1-0.9,0
				c-0.4,0-0.9,0.1-1.3,0.1c-0.2,0-0.4,0-0.5,0.1c-0.1,0.1-0.1,0.1-0.2,0.1c-0.1,0-0.3,0-0.4,0.1C86.2,9,85.9,9,85.7,9
				c-0.2,0-0.3,0.1-0.4,0.1c-0.3,0.2-0.7,0.2-0.9,0.4l-0.1,0c-0.2,0-0.3,0-0.4,0.1c-0.2,0.1-0.4,0.1-0.6,0.3c0,0-0.1,0-0.1,0
				c-0.2,0-0.4,0-0.6,0.2c0,0-0.1,0-0.2,0.1c-0.2,0-0.4,0.1-0.6,0.2c-0.3,0.1-0.6,0.3-0.7,0.6c0,0.1,0,0.2,0,0.3
				c0.1,0.1,0.1,0.2,0.2,0.3c0.1,0.3,0.3,0.3,0.6,0.2c0.1-0.1,0.2-0.1,0.3-0.1c0.1,0,0.2,0,0.2,0c0.2,0,0.3,0,0.5,0
				c0.3-0.1,0.6,0.1,0.9,0c0.1,0,0.1,0.1,0.2,0.2c0,0.1,0,0.1,0,0.2c0,0.2-0.1,0.4-0.1,0.6c0,0.7,0,1.3,0,2c0,0.1,0,0.1,0,0.1
				c-0.1,0.2-0.1,0.4,0,0.6c0,0.2,0,0.3,0,0.5c0,0.3,0,0.6,0,0.9c0,0.4,0,0.8,0.1,1.2c0,0.1,0,0.2,0,0.3c0,0.1,0,0.2,0,0.3
				c0,0.2,0,0.4,0.1,0.7c0,0.1,0,0.2,0,0.2c0,0.1,0,0.2,0,0.4c0,0.2,0,0.4,0,0.6c0,0,0,0.1,0,0.1c0.1,0.2,0,0.4,0,0.6
				c-0.1,0.1,0,0.2,0,0.4c0,0.3,0,0.6,0,0.8c0,0.3,0,0.5,0.1,0.8c0,0.1,0.1,0.2,0.2,0.2c0,0,0,0,0.1,0c0,0.1,0,0.2,0,0.3
				c0,0,0,0,0,0c0,0-0.1-0.1-0.1-0.1c0,0-0.1,0-0.1,0c0,0,0,0-0.1,0.1c0,0.3,0,0.6,0,1c0,0.1,0.1,0.1,0.1,0.1
				c0.2,0.1,0.2,0.3,0.3,0.5c0.1,0.2,0,0.3-0.1,0.4c-0.2,0.1-0.2,0.2-0.2,0.4c0,0.3,0,0.5,0,0.7c0,0.1,0,0.1,0,0.2l0,0.1
				c0.1,0.1,0.3,0.1,0.4,0c0,0,0,0,0,0c0,0.3,0,0.5-0.1,0.8c0,0.1,0,0.1-0.1,0.1c-0.2,0.1-0.1,0.2-0.1,0.3c0.1,0.2,0.1,0,0.2,0
				c0,0,0.1,0,0.1,0c0,0.2,0.2,0.3,0.1,0.5c0,0.1,0,0.1,0,0.2c0.1,0.1,0.1,0.2,0.1,0.4c0,0.1,0,0.3,0,0.4c0.1,0.2,0,0.4,0,0.5
				c0,0,0,0,0,0c0,0,0,0,0,0l0,0c0,0,0,0-0.1,0c0-0.1,0-0.1-0.1-0.2c0-0.2-0.1-0.5-0.1-0.7c0-0.1,0-0.1-0.1-0.2c0,0,0,0-0.1,0
				c0,0-0.1,0-0.1,0c0,0,0,0.1,0,0.1c0,0.6,0.1,1.3,0.2,1.9c0,0.3,0.1,0.6,0.1,0.9c0,0.1,0,0.2,0.1,0.2c0.1,0.1,0.1,0.2,0.1,0.3
				c0,0.1,0,0.3,0,0.4c0.1,0.4,0.2,0.8,0.3,1.2c0,0.4,0.1,0.8,0.2,1.1c0,0.2,0.1,0.5,0.2,0.7c0.1,0.2,0.2,0.3,0.4,0.3
				c0.4,0.1,0.7,0.1,1-0.2c0.1,0,0.1-0.1,0.1-0.1c0-0.2,0.1-0.4,0.1-0.7c0-0.1,0-0.1-0.1-0.2c0,0-0.1-0.1-0.1-0.1
				c-0.1-0.1-0.1-0.2,0.1-0.3c0,0,0.1,0,0.1,0c0.1,0.1,0.2,0.2,0.2,0.3c0.1,0.1,0.1,0.2,0.2,0.3c0.1,0.1,0.2,0.1,0.3,0
				c0.1-0.2,0.1-0.3,0.2-0.5c0-0.2,0-0.4,0.1-0.5c0.1-0.1,0.1-0.2,0-0.3c0-0.1,0-0.3-0.1-0.4c0-0.1,0-0.3-0.1-0.4c0,0-0.1-0.1,0-0.2
				c0-0.2,0-0.4,0-0.7c0-0.2,0-0.5-0.1-0.7c-0.1-0.3-0.1-0.6,0-0.9c0-0.1,0-0.2,0-0.3c-0.1-0.3-0.1-0.6-0.1-0.9c0-0.1,0-0.3-0.1-0.4
				l0-1.9c0-0.1,0-0.2,0-0.2c0.1-0.1,0.1-0.2,0-0.2c-0.1-0.2-0.1-0.3-0.1-0.5c0-0.1,0-0.3,0-0.5c0-0.1,0-0.1,0-0.2
				c0.1,0,0.2-0.1,0.3-0.2c0.1,0,0.1-0.1,0.1-0.2c0-0.1,0.1-0.2,0.1-0.2c0.2-0.1,0.3-0.3,0.6-0.4c0.1,0,0.1-0.1,0.1-0.1l0.8-0.6
				c0.3-0.3,0.6-0.5,0.9-0.7c0.1,0,0.1-0.1,0.1-0.2c0-0.1,0.1-0.2,0.2-0.2c0.2-0.1,0.1-0.3-0.1-0.4c0,0,0-0.1,0.1-0.1
				c0.2-0.1,0.4-0.2,0.5-0.2c0.1,0,0.2-0.1,0.3-0.2c0.1-0.1,0.2-0.2,0.4-0.3c0.1-0.1,0.2-0.2,0.2-0.3c0-0.1,0-0.2,0.1-0.3
				c0-0.2,0.2-0.4,0.3-0.4c0.3-0.1,0.4-0.3,0.5-0.5c0.1-0.2,0.1-0.3,0.3-0.4c0.1,0,0.2-0.1,0.2-0.2c0-0.2,0.1-0.3,0.2-0.3
				c0.1-0.1,0.2-0.1,0.2-0.3c0-0.1,0-0.2-0.1-0.1c-0.1,0-0.1-0.1-0.1-0.1c0-0.1,0.1-0.1,0.1-0.2c0.2,0,0.3-0.1,0.4-0.3
				c0-0.1,0.1-0.1,0.1-0.1c0.1,0,0.1-0.1,0.2-0.2c0.1-0.2,0.1-0.3,0.3-0.4c0.1,0,0.1-0.2,0.1-0.3c0-0.1,0.1-0.3,0.2-0.4
				c0.1-0.2,0-0.3,0.1-0.5c0,0,0,0,0-0.1c0-0.1,0.1-0.2,0.2-0.2c0.1,0,0.2-0.1,0.2-0.2c0-0.1,0-0.1,0.1-0.1c0.1-0.1,0.2-0.2,0.2-0.3
				c0.1-0.1,0-0.3,0.1-0.4c0.1-0.1,0.2-0.2,0.2-0.3c0,0,0,0,0,0c0.1-0.2,0.1-0.4,0.2-0.6C96.4,13.7,96.5,13.7,96.3,13.5z M84.6,19.3
				c-0.1,0-0.2-0.1-0.2-0.1c-0.1-0.1-0.1-0.2,0-0.3c0.1-0.1,0.1-0.1,0.2-0.2c0-0.1,0.1-0.1,0.2-0.1c0,0,0,0,0.1,0
				c0.1,0.1,0.1,0.2,0.1,0.3c0,0.1,0,0.3,0,0.4C84.8,19.3,84.7,19.3,84.6,19.3z M84.2,15.3C84.2,15.2,84.2,15.2,84.2,15.3
				C84.2,15.2,84.2,15.3,84.2,15.3z M86.4,31.3C86.4,31.3,86.4,31.3,86.4,31.3C86.3,31.3,86.3,31.3,86.4,31.3
				C86.3,31.3,86.4,31.3,86.4,31.3C86.4,31.2,86.4,31.3,86.4,31.3z M84.2,14.4c0-0.1,0.1-0.1,0.1-0.1l0.1,0.1c0,0.1,0,0.2,0,0.3
				c0,0-0.1,0.1-0.1,0.1c0,0-0.1,0-0.1-0.1C84.1,14.6,84.1,14.5,84.2,14.4z M84.2,22.1L84.2,22.1L84.2,22.1L84.2,22.1
				C84.2,22.1,84.2,22.1,84.2,22.1z M84.9,31L84.9,31C84.9,31,84.9,31,84.9,31C84.9,31,84.9,31,84.9,31L84.9,31z M86,28.6
				C86,28.6,85.9,28.5,86,28.6c0-0.2,0.1-0.2,0.2-0.2c0,0,0.1,0,0.1,0.1C86.2,28.5,86.1,28.6,86,28.6z M86.5,31.8
				c-0.1,0-0.1,0-0.2-0.1c0,0,0.1-0.1,0.1-0.1c0.1,0,0.1,0,0.2,0.1C86.5,31.7,86.5,31.8,86.5,31.8z M86.8,33c0-0.2,0-0.3,0.1-0.4
				l0.1,0c0,0,0.1,0,0.1,0.1C87.1,32.8,87.1,32.9,86.8,33z M87.3,23.3C87.3,23.4,87.2,23.4,87.3,23.3c-0.1,0.1-0.1,0.1-0.1,0.1
				c0,0,0,0,0-0.1c0-0.1,0.1-0.2,0.1-0.2c0.2-0.1,0.3-0.4,0.6-0.4c0,0,0.1-0.1,0.1-0.1c0.1-0.1,0.2-0.2,0.3-0.2c0,0,0.1,0,0.1,0
				c0,0,0,0,0,0.1c-0.1,0.1-0.1,0.2-0.2,0.3C87.8,22.9,87.6,23.1,87.3,23.3z M88.3,24.4C88.3,24.4,88.3,24.4,88.3,24.4
				c-0.1,0.1-0.1,0.1-0.2,0.1c0,0,0,0,0,0C88.2,24.3,88.2,24.3,88.3,24.4C88.3,24.3,88.4,24.3,88.3,24.4
				C88.4,24.3,88.4,24.4,88.3,24.4z M88.6,23.3L88.6,23.3C88.6,23.3,88.6,23.2,88.6,23.3C88.6,23.2,88.6,23.2,88.6,23.3L88.6,23.3z
				 M88.7,22c0,0-0.1,0-0.1,0c0-0.1,0-0.1,0-0.1c0,0,0.1,0,0.1,0c0.2-0.1,0.3-0.2,0.3-0.4c0.1-0.1,0.1-0.2,0.3-0.2l0.1,0
				c0,0,0,0.1,0,0.1C89.1,21.6,88.9,21.8,88.7,22z M89.1,23.8L89.1,23.8c0-0.1,0-0.1,0-0.1L89.1,23.8C89.1,23.8,89.1,23.8,89.1,23.8
				z M89.6,22.7c0,0-0.1,0.1-0.1,0.1c-0.1,0-0.1,0-0.1-0.1c0,0,0.1-0.1,0.1-0.1c0,0,0,0,0.1,0c0,0,0,0,0.1,0
				C89.5,22.5,89.6,22.6,89.6,22.7C89.6,22.6,89.6,22.6,89.6,22.7z M89.9,22.5L89.9,22.5L89.9,22.5L89.9,22.5z M90.9,19.3
				c0,0.1,0,0.2,0,0.2c-0.2,0.3-0.4,0.5-0.6,0.8c-0.1,0.1-0.1,0.2-0.2,0.2c-0.1,0.1-0.2,0.2-0.3,0.3c0,0.1-0.1,0.1-0.2,0.1
				c-0.1,0-0.1,0-0.1,0c0,0,0-0.1,0-0.1c0.1-0.1,0.1-0.2,0.2-0.2c0.2-0.1,0.3-0.2,0.3-0.5c0,0,0-0.1,0-0.1c0.2-0.1,0.3-0.3,0.5-0.5
				c0,0,0-0.1,0.1-0.1C90.8,19.6,90.8,19.4,90.9,19.3L90.9,19.3C90.9,19.3,91,19.3,90.9,19.3z M91.4,18.8
				C91.4,18.8,91.3,18.8,91.4,18.8c-0.1,0-0.1-0.1-0.1-0.1c0-0.1,0.1-0.2,0.1-0.3c0,0,0,0,0-0.1l0.1,0.1
				C91.5,18.6,91.5,18.7,91.4,18.8z M92.3,15.8c0,0.1-0.1,0.1-0.1,0.2c-0.2,0.4-0.4,0.8-0.6,1.3c0,0.1-0.1,0.2-0.1,0.2
				c-0.2,0.3-0.5,0.5-0.6,0.9c0,0,0,0.1-0.1,0.1c0,0-0.1,0-0.1,0.1c-0.2,0.3-0.4,0.5-0.6,0.8c0,0-0.1,0.1-0.1,0.1
				c0.1,0.3-0.1,0.5-0.3,0.6c-0.3,0.4-0.6,0.8-1,1.2c-0.4,0.4-0.7,0.8-1.2,1.2c0,0-0.1,0.1-0.1,0.1c0,0-0.1,0-0.1,0c0,0,0,0,0,0
				c0-0.1,0-0.1,0.1-0.1c0.1-0.2,0.1-0.5,0-0.7c0-0.1,0-0.2,0-0.3c0-0.2,0-0.3,0-0.5c0-0.2,0-0.4,0-0.5c0-0.1,0-0.2,0-0.2
				c0-0.2-0.1-0.3-0.1-0.5c0,0,0-0.1,0-0.1c0,0,0-0.1,0-0.1c0.1-0.4,0.1-0.8,0-1.2c0-0.2-0.1-0.4-0.1-0.6c0-0.1,0-0.1,0-0.1
				C87,17.4,87,17.3,87,17.3c0,0,0-0.1,0-0.1c0-0.1,0-0.1,0.1-0.2c0-0.2,0.1-0.4,0.1-0.6c0-0.3,0-0.6,0-0.9c0-0.1,0-0.2,0-0.3
				c0-0.1,0-0.1,0-0.1c0.1-0.1,0.1-0.2,0.1-0.3c0-0.4,0.1-0.8,0.3-1.2c0.1-0.3,0.1-0.7-0.2-1c-0.1-0.2-0.2-0.4-0.1-0.6
				c0.1-0.4-0.1-0.8-0.4-1.1c0-0.1-0.1-0.1-0.2-0.2c-0.1-0.1-0.1-0.1,0-0.2c0.2-0.1,0.5-0.2,0.7-0.3c0.3-0.1,0.6-0.1,0.9-0.2
				c0.2,0,0.3-0.1,0.5-0.1c0.4,0,0.9-0.1,1.3-0.1c0.5,0,0.9,0,1.3,0.2c0.1,0.1,0.2,0.1,0.3,0.1c0.1,0,0.2,0.1,0.3,0.2
				c0.3,0.2,0.6,0.3,0.8,0.5c0.2,0.2,0.3,0.4,0.4,0.7c0,0.2,0.1,0.3,0.1,0.4c0.1,0.3,0.1,0.6,0,0.9c0,0.1,0,0.1,0,0.2
				c-0.1,0.5-0.2,1.1-0.4,1.6C92.7,15,92.4,15.4,92.3,15.8z M93.9,15.6c0,0-0.1,0-0.1,0l0.1-0.1C93.8,15.5,93.9,15.5,93.9,15.6
				C93.9,15.5,93.9,15.6,93.9,15.6z M94,14.7c0,0.1,0,0.1,0,0.2c0,0.1-0.1,0.3-0.2,0.3c0,0-0.1,0-0.1,0c-0.1,0.3-0.4,0.5-0.5,0.8
				c0,0,0,0.1,0,0.1c0.1,0,0.1,0,0.1,0c0.1,0,0.1-0.1,0.1-0.1c0.1,0,0.1-0.1,0.2-0.1c0,0.1-0.1,0.1-0.1,0.2
				c-0.1,0.3-0.2,0.5-0.2,0.8c0,0.2,0,0.3-0.2,0.4c-0.1,0-0.1,0.2-0.1,0.2c0,0.1,0,0.1-0.1,0.1c-0.1,0-0.1,0-0.2,0
				c-0.1-0.1-0.1-0.2-0.2-0.3c-0.1-0.1-0.2-0.3-0.1-0.4c0.1-0.1,0.2-0.3,0.2-0.5c0-0.1,0-0.2,0.1-0.3c0.1-0.4,0.2-0.8,0.4-1.2
				c0.1-0.3,0.1-0.6,0.2-0.9c0.1-0.1,0.1-0.2,0.1-0.3c0.1-0.1,0.1-0.2,0.1-0.3c0-0.2,0-0.3,0-0.5c0,0,0-0.1,0.1-0.1
				c0,0,0.1,0,0.1-0.1c0,0,0.1,0.1,0.1,0.1c0,0.2,0,0.3,0,0.4c0,0.1,0,0.2,0,0.2c0.1,0.1,0.1,0.1,0,0.2c-0.1,0,0,0.1,0,0.1
				C94.1,14.4,94.1,14.5,94,14.7z"/>
			<path class="st0" d="M84.6,29.2C84.6,29.2,84.7,29.2,84.6,29.2c0.1-0.1,0.1-0.3,0-0.4l-0.1,0C84.6,28.9,84.6,29,84.6,29.2
				C84.6,29.1,84.6,29.2,84.6,29.2z"/>
			<path class="st0" d="M84.8,30.1C84.8,30.1,84.8,30.1,84.8,30.1C84.8,30.1,84.8,30,84.8,30.1C84.8,30,84.7,30,84.8,30.1L84.8,30.1
				C84.7,30.1,84.7,30.1,84.8,30.1C84.8,30.1,84.8,30.1,84.8,30.1z"/>
		</g>
		<g>
			<path class="st0" d="M88.5,20.9L88.5,20.9C88.5,20.9,88.5,20.9,88.5,20.9L88.5,20.9L88.5,20.9z"/>
			<path class="st0" d="M85,9.8c0,0.2-0.3-0.5-0.3-0.3c0,0.7,0,1.4,0,2.1c0,0.1,0,0.1,0,0.1c-0.1,0.2-0.1,0.4,0,0.6
				c0,0.2,0,0.3,0,0.5c0,0.3,0,0.7,0,1c0,0.4,0,0.8,0.1,1.3c0,0.1,0,0.2,0,0.3c0,0.1,0,0.2,0,0.3c0,0.2,0,0.5,0.1,0.7
				c0,0.1,0,0.2,0,0.3c0,0.1,0,0.3,0,0.4c0,0.2,0,0.4,0,0.6c0,0,0,0.1,0,0.1c0.1,0.2,0,0.4,0,0.6c-0.1,0.1,0,0.2,0,0.4
				c0,0.3,0,0.6,0,0.9c0,0.3,0,0.5,0.1,0.8c0,0.1,0.1,0.2,0.2,0.3c0,0,0,0,0.1,0c0,0.1,0,0.2,0,0.3c0,0,0,0,0,0c0,0-0.1-0.1-0.1-0.1
				c0,0-0.1,0-0.1,0c0,0,0,0-0.1,0.1c0,0.3,0,0.7,0,1c0,0.1,0.1,0.1,0.1,0.2c0.2,0.1,0.2,0.3,0.3,0.5c0.1,0.2,0,0.3-0.1,0.4
				C85,23.3,85,23.5,85,23.7c0,0.3,0,0.5,0,0.8c0,0.1,0,0.2,0,0.2l0,0.2c0.1,0.1,0.3,0.1,0.4-0.1c0,0,0,0,0,0c0,0.3,0,0.5-0.1,0.8
				c0,0.1,0,0.1-0.1,0.2c-0.2,0.1-0.1,0.2-0.1,0.3c0.1,0.2,0.1,0,0.2,0c0,0,0.1,0,0.1,0c0,0.2,0.2,0.3,0.1,0.5c0,0.1,0,0.2,0,0.2
				c0.1,0.1,0.1,0.3,0.1,0.4c0,0.2,0,0.3,0,0.5c0.1,0.2,0,0.4,0,0.6c0,0,0,0,0,0c0,0,0,0,0,0l0,0c0,0,0,0-0.1,0c0-0.1,0-0.1-0.1-0.2
				c0-0.3-0.1-0.5-0.1-0.8c0-0.1,0-0.1-0.1-0.2c0,0,0,0-0.1,0c0,0-0.1,0-0.1,0.1c0,0,0,0.1,0,0.1c0,0.7,0.1,1.3,0.2,2
				c0,0.3,0.1,0.6,0.1,0.9c0,0.1,0,0.2,0.1,0.2c0.1,0.1,0.1,0.2,0.1,0.3c0,0.1,0,0.3,0,0.4c0.1,0.4,0.2,0.9,0.3,1.3
				c0,0.4,0.1,0.8,0.2,1.2c0,0.3,0.1,0.5,0.2,0.8c0.1,0.2,0.2,0.3,0.4,0.3c0.4,0.1,0.7,0.1,1-0.2c0.1,0,0.1-0.1,0.1-0.2
				c0-0.2,0.1-0.5,0.1-0.7c0-0.1,0-0.1-0.1-0.2c0,0-0.1-0.1-0.1-0.1c-0.1-0.1-0.1-0.3,0.1-0.3c0,0,0.1,0,0.1,0
				c0.1,0.1,0.2,0.2,0.2,0.3c0.1,0.1,0.1,0.2,0.2,0.3c0.1,0.1,0.2,0.1,0.3,0c0.1-0.2,0.1-0.3,0.2-0.5c0-0.2,0-0.4,0.1-0.5
				c0,0,0,0,0-0.1c0-0.1-0.1-0.3-0.1-0.4c0-0.1,0-0.3,0-0.4c0,0,0-0.1,0-0.1c0-0.1,0-0.2-0.1-0.2c0,0-0.1-0.1,0-0.2c0,0,0-0.1,0-0.1
				c0-0.3-0.1-0.6-0.1-0.9c0-0.1,0-0.3,0-0.4c0,0,0,0,0-0.1c-0.1-0.3-0.1-0.6,0-0.9c0-0.2,0-0.4,0-0.6c0,0,0-0.1,0-0.1
				c0-0.2,0-0.4-0.1-0.7c0-0.1,0-0.3-0.1-0.4l0-2c0-0.1,0-0.2,0-0.3c0.1-0.1,0.1-0.2,0-0.2c-0.1-0.2-0.1-0.4-0.1-0.6
				c0-0.2,0-0.3,0-0.5c0-0.1,0-0.1,0-0.2c0.1,0,0.1-0.1,0.2-0.1c0,0,0,0,0,0c0-0.4,0-0.7,0-1c0,0,0-0.1,0.1-0.1c0,0,0.1,0,0.1,0
				c0,0,0,0.1,0.1,0.1c0,0,0,0,0,0c0-0.1,0-0.2,0-0.3c0,0,0,0-0.1,0c-0.1,0-0.2-0.1-0.2-0.3c0-0.2,0-0.5,0-0.7c0,0-0.1,0.1-0.2,0.1
				c0,0,0,0-0.1,0c0,0-0.1,0-0.1,0c0,0,0-0.1,0-0.1c0-0.1,0.1-0.2,0.1-0.2c0.1,0,0.1-0.1,0.2-0.1c0-0.2,0-0.4,0-0.5c0,0-0.1,0-0.1,0
				c0,0-0.1,0-0.1,0c0,0,0,0,0-0.1c0-0.1,0-0.1,0.1-0.1c0.1-0.2,0.1-0.5,0-0.8c0-0.1,0-0.2,0-0.3c0-0.2,0-0.3,0-0.5
				c0-0.2,0-0.4,0-0.6c0-0.1,0-0.2,0-0.3c0-0.2-0.1-0.3-0.1-0.5c0-0.1,0-0.1,0-0.2c0-0.1,0-0.1,0-0.2c0.1-0.4,0.1-0.9,0-1.3
				c0-0.2-0.1-0.4-0.1-0.6c0-0.1,0-0.1,0-0.1c-0.1-0.1-0.1-0.1-0.1-0.2c0,0,0-0.1,0-0.1c0-0.1,0-0.2,0.1-0.2c0-0.2,0.1-0.4,0.1-0.6
				c0-0.3,0-0.6,0-0.9c0-0.1,0-0.2,0-0.3c0-0.1,0-0.1,0-0.1c0.1-0.1,0.1-0.2,0.1-0.4c0-0.4,0.1-0.8,0.3-1.2c0.1-0.4,0.1-0.7-0.2-1
				c0,0,0-0.1,0-0.1c-0.2,0-0.4-0.1-0.6-0.1c-0.2,0-0.3,0-0.5,0c-0.1,0-0.2,0-0.2,0c-0.1,0-0.2,0-0.3,0.1c-0.2,0.2-0.5,0.1-0.6-0.2
				c0-0.1-0.1-0.2-0.2-0.3 M85,19.8L85,19.8L85,19.8L85,19.8C85.1,19.8,85.1,19.8,85,19.8z M85.1,12.5
				C85.1,12.5,85.1,12.5,85.1,12.5C85.1,12.5,85.1,12.5,85.1,12.5z M85.1,11.9C85,11.8,85,11.7,85,11.5c0-0.1,0.1-0.1,0.1-0.1
				l0.1,0.1c0,0.1,0,0.3,0,0.4C85.3,11.9,85.2,12,85.1,11.9C85.2,12,85.1,12,85.1,11.9z M85.5,16.7c-0.1,0-0.2-0.1-0.2-0.1
				c-0.1-0.1-0.1-0.2,0-0.3c0.1-0.1,0.1-0.1,0.2-0.2c0-0.1,0.1-0.1,0.2-0.1c0,0,0,0,0.1,0c0.1,0.1,0.1,0.2,0.1,0.3
				c0,0.1,0,0.3,0,0.4C85.7,16.8,85.6,16.8,85.5,16.7z M85.8,29.3L85.8,29.3C85.8,29.3,85.8,29.3,85.8,29.3
				C85.8,29.3,85.8,29.3,85.8,29.3L85.8,29.3z M87.2,29.5C87.2,29.5,87.3,29.5,87.2,29.5C87.2,29.6,87.2,29.6,87.2,29.5
				C87.2,29.6,87.2,29.6,87.2,29.5C87.2,29.5,87.2,29.5,87.2,29.5z M86.8,26.7C86.8,26.7,86.8,26.6,86.8,26.7c0-0.2,0.1-0.3,0.2-0.2
				c0,0,0.1,0,0.1,0.1C87.1,26.6,87,26.7,86.8,26.7z M87.3,30.1c-0.1,0-0.1,0-0.2-0.1c0,0,0.1-0.1,0.1-0.1c0.1,0,0.1,0.1,0.2,0.1
				C87.4,30,87.4,30.1,87.3,30.1z M87.7,31.4c0-0.2,0-0.3,0.1-0.4l0.1,0c0,0,0.1,0,0.1,0.1C88,31.2,88,31.2,87.7,31.4z"/>
		</g>
	</g>
	<g>
		<g>
			<path class="st0" d="M49.9,22.1c0.1-0.1,0.3-0.2,0.3-0.3c0-0.6,0.2-1.1,0.4-1.7c0.1-0.4,0.3-0.9,0.1-1.3c-0.1-0.2,0-0.3,0.2-0.4
				l0-0.1c-0.1,0-0.1,0-0.1,0c-0.1,0-0.1,0.1-0.2,0.2c-0.4,0.5-0.5,1.2-1.1,1.5c-0.1,0,0,0.1,0,0.1c-0.1,0.5-0.2,1-0.4,1.5
				c-0.1,0.2,0.1,0.3,0.3,0.5C49.5,22,49.7,22,49.9,22.1z"/>
			<path class="st0" d="M50.1,22.8c-0.1,0-0.1,0-0.2,0.1c0,0.1,0,0.1,0.1,0.2c0.2,0.3,0.4,0.2,0.7,0.3
				C50.6,22.9,50.3,22.8,50.1,22.8z"/>
			<path class="st0" d="M48.9,26.5c0.2,0.1,0.2,0.2,0.3,0.2c0,0.1,0.1,0,0.2-0.1c-0.1,0-0.1-0.2-0.2-0.2
				C49.1,26.5,49.1,26.5,48.9,26.5z"/>
			<path class="st0" d="M48.5,25.7c0.2,0.1,0.3,0,0.5,0c0.3,0,0.3-0.1,0.3-0.3c-0.1-0.6,0-1.1,0.2-1.7c0-0.1,0.1-0.2,0.1-0.2
				c0-0.1-0.1-0.2-0.1-0.2c-0.1,0-0.2-0.1-0.3,0c-0.3,0.3-0.6,0.5-0.9,0.8c-0.1,0.1-0.1,0.2-0.1,0.3c0,0.3,0,0.6,0,0.8
				C48.2,25.5,48.4,25.7,48.5,25.7z"/>
			<path class="st0" d="M57.7,11.3c-0.3-0.3-0.6-0.4-1-0.6c-0.7-0.5-1.4-0.9-2.3-1.1c-0.1,0-0.3-0.1-0.4-0.1
				c-0.5-0.3-0.9-0.1-1.3,0.3c-0.9,1.1-1.3,2.3-1.5,3.7c-0.1,0.3,0.1,0.8-0.2,1.1c-0.1,0-0.1,0.2,0,0.2c0.1,0.3,0,0.5-0.2,0.6
				c-0.1,0.2-0.3,0.5-0.4,0.7c-0.1,0.2-0.2,0.4-0.3,0.6c0,0.3,0.3,0.7,0.5,0.7c0.2,0.1,0.4-0.2,0.5-0.4l0-0.1c0-0.1,0.1-0.2,0.1-0.3
				c0.1,0.1,0.2,0.1,0.3,0.2c0,0.1,0.2,0.3,0.3,0.4c0.1,0.2,0.3,0.4,0,0.6c-0.1,0-0.1,0.1-0.1,0.2c-0.2,0.4-0.2,0.4,0.1,0.8
				C52,18.9,52,19,52,19.1c-0.1,0.2-0.3,0.3-0.3,0.5c0,0.8-0.4,1.5-0.6,2.2c-0.1,0.5-0.3,0.9-0.5,1.5l0.1,0c0,0.4-0.1,0.9-0.2,1.3
				c-0.2,0.6-0.2,1.3-0.6,1.9c-0.1,0.2,0,0.4,0,0.6c-0.2,0.6-0.3,1.3-0.5,2c-0.1,0.4-0.3,0.7-0.3,1.1c0,0.3-0.1,0.5-0.2,0.8
				c0,0.1-0.2,0.2-0.3,0.2c-0.5,0-0.8-0.5-0.7-1c0.2-0.6,0.3-1.2,0.5-1.8c0.1-0.4,0-0.6-0.2-0.8c-0.1-0.2-0.2-0.3-0.5-0.3
				c-0.2,0-0.3,0.2-0.4,0.4c-0.1,0.2-0.1,0.3-0.1,0.5c-0.1,0.4-0.2,0.8-0.3,1.1c-0.3,0.8-1.4,4.4-1,4.5c0.3,0,0.4,0.3,0.4,0.6
				c0,0.2-0.1,0.4-0.5,0.4c-0.3,0-0.4,0.1-0.4,0.3c-0.1,0.4-0.1,0.9-0.3,1.2c-0.1,0.4-0.3,0.7-0.4,1.1c-0.3,0.7-0.7,1.4-0.9,2.2
				c-0.2,0.6-0.4,1.2-0.6,1.9c-0.1,0.4-0.3,0.7-0.4,1.2c-0.4,1.2-0.7,2.3-1,3.4c-0.6,1.8-1.2,3.5-1.7,5.3c-0.2,0.8-0.4,1.6-0.7,2.4
				c-0.1,0.4-0.3,0.7-0.3,1c-0.3,1.3-0.7,2.6-1,3.9c-0.3,1.1-0.5,2.1-0.9,3.2c-0.2,0.8-0.4,1.6-0.4,2.4c0,0.3,0,0.7,0.1,1
				c0.1,0.3,0.3,0.4,0.5,0.3c0.3-0.1,0.6-0.2,1-0.3c0.3-0.1,0.5-0.3,0.5-0.6c0-0.3,0.1-0.5,0.3-0.7c0.2-0.2,0.2-0.2-0.1-0.4
				c-0.5-0.3-0.5-0.3-0.4-0.8c0.1-0.3,0.2-0.6,0.1-0.9c0-0.3,0.2-0.6,0.5-0.8c0.2-0.1,0.4-0.2,0.6-0.4c0.3-0.5,0.7-0.6,1.3-0.6
				c0.4,0,0.5-0.1,0.4-0.5c-0.1-0.2-0.1-0.3-0.1-0.5c0-0.2,0-0.4,0-0.6c0-0.1-0.1-0.2-0.1-0.2c-0.1,0-0.2,0-0.2,0.1
				c-0.1,0.2-0.2,0.3-0.2,0.5c-0.1,0.3-0.1,0.3-0.5,0.3c-0.2,0-0.2,0.1-0.3,0.2c-0.1,0.2-0.4,0.3-0.6,0.3c-0.2-0.1-0.3-0.2-0.1-0.4
				c0.1-0.2,0.1-0.3,0.2-0.5c0.2-0.5,0.4-1,0.5-1.6c0-0.1,0.1-0.2,0.2-0.2c0.2-0.3,0.2-0.5,0-0.7c-0.2-0.1-0.3-0.4-0.1-0.5
				c0.4-0.5,0.3-1.1,0.8-1.6c0.1-0.2,0.2-0.4,0-0.6l-0.2-0.3c0.1,0,0.2-0.1,0.4-0.2c0-0.1,0.1-0.1,0.2-0.1c0.2-0.1,0.3-0.2,0.2-0.4
				C41,52,41,52,41,51.9c-0.2-0.4-0.2-0.5,0.2-0.8c0.4-0.3,0.7-0.8,0.8-1.4c0.1-0.7,0.4-1.3,0.6-2c0.1-0.2,0.1-0.3,0-0.5
				c0-0.1-0.1-0.1-0.1-0.2c-0.1-0.3,0-0.3,0.3-0.3c0.1,0,0.4,0.1,0.3-0.1c-0.2-0.7,0-1.2,0.2-1.8c0.1-0.4,0.3-0.7,0.3-1.1
				c0.1-0.2,0-0.5,0.1-0.7c0.1-0.2,0.3-0.4,0.4-0.5c0.1-0.1,0.1-0.2,0.1-0.4c0.2-0.7,0.4-1.3,0.6-2c0.2-0.6,0.5-1.2,0.6-1.8
				c0.2-0.6,0.3-1.3,0.5-1.9c0.1-0.3,0.2-0.7,0.3-1c0-0.1,0.1-0.1,0.2-0.1c0.2,0.1,0.5,0.2,0.6,0.4c0.1,0.1,0.1,0.3,0.1,0.4
				c-0.1,0.3-0.2,0.7-0.6,0.8c-0.4,0.1-0.3,0.6,0,0.7c0,0.1,0.1,0,0.2,0.1c0.5,0.2,0.5,0.3,0.2,0.7c-0.5,0.6-0.8,1.2-0.9,2
				c0,0.8-0.4,1.4-0.9,2c-0.1,0.1-0.2,0.2-0.1,0.4c0.2,0.5-0.1,0.9-0.2,1.3c-0.2,0.5-0.3,1.1-0.5,1.5c-0.1,0-0.1,0.1-0.1,0.2
				c0.1,0.4-0.1,0.7-0.1,1.1c-0.1,0.4-0.2,0.8-0.7,0.9c-0.1,0-0.1,0.3-0.1,0.3c0.3,0.3,0.4,0.6,0.1,0.9c-0.1,0.1-0.1,0.2-0.1,0.3
				c0,0.1,0.1,0.2,0.2,0.1c0.5,0,0.9,0.1,1.3,0.1c0.1,0,0.2-0.2,0.2-0.3c0-0.1-0.1-0.2-0.1-0.2c0-0.3,0-0.3,0.3-0.4
				c0.4,0,0.5,0,0.5,0.4c0,0.1,0,0.1,0,0.2c0,0.4-0.2,0.6-0.5,0.9c-0.3,0.2-0.5,0-0.7-0.2c-0.1-0.1-0.3-0.2-0.4-0.1
				c-0.3,0.2-0.6,0.2-1,0.3c-0.3,0.1-0.5,0.3-0.4,0.5c-0.1,0.7-0.3,1.2-0.7,1.8c-0.1,0.2-0.2,0.4-0.2,0.6c-0.1,0.7-0.1,1.4-0.5,2
				c-0.2,0.4-0.1,0.9,0.3,1.1c0.2,0.1,0.4,0.1,0.4-0.1c0-0.3,0.3-0.4,0.4-0.5c0.1-0.1,0.5-0.2,0.5-0.3c0-0.3-0.4-0.1-0.5-0.3
				c-0.1-0.2-0.1-0.3-0.1-0.4c0.1,0,0.2-0.1,0.3-0.1c0.3,0.2,0.5,0.1,0.7-0.2c0.2-0.2,0.3-0.6,0.5-0.9c0.1-0.2,0.2-0.2,0.4,0
				c0.1,0,0.1-0.1,0.2-0.1c0-0.1,0-0.2-0.1-0.2c-0.5-0.5,0.1-1.1-0.2-1.6c0,0,0.1-0.1,0.2-0.2c0.3-0.2,0.5-0.3,0.9-0.2
				c0.4,0.1,0.5,0,0.6-0.3c0-0.3,0.1-0.4,0.2-0.7c0.2-0.4,0.1-0.9,0.6-1.3c0-0.1-0.1-0.2,0-0.2c-0.1-0.3-0.1-0.7,0.1-0.9
				c0.1-0.2,0.1-0.3,0.1-0.4c0-0.3,0.1-0.6,0.3-0.9c0.1-0.2,0-0.3-0.2-0.3c-0.4,0.1-0.8,0.1-1.2,0.1c-0.1,0-0.2-0.1-0.2-0.1
				c0-0.1,0-0.2,0.1-0.2c0.3-0.1,0.4-0.4,0.4-0.7c0-0.2,0.1-0.4,0.3-0.3c0,0,0,0.2,0.1,0.4c0,0.1,0.1,0.2,0.2,0.3
				c0.1,0.1,0.2,0.1,0.4,0.2c0.2,0.1,0.3,0,0.5,0c0.2-0.1,0.2-0.3,0-0.5c-0.1-0.2-0.3-0.3-0.5-0.4c-0.2-0.3-0.1-0.4,0.2-0.6
				c0.1,0,0.2-0.1,0.3-0.1c0.3,0,0.5-0.1,0.8-0.3c0.4-0.3,0.4-0.4,0.2-0.8c-0.2-0.3-0.6-0.7,0-1c0-0.1-0.1-0.2-0.1-0.2
				c-0.1-0.2,0-0.2,0.1-0.3c0.1-0.1,0.2-0.1,0.3-0.1c0.3-0.1,0.4-0.1,0.3-0.6c0-0.2,0-0.4,0.2-0.5c0.6-0.2,0.7-0.6,0.8-1.2
				c0.1-0.3,0-0.7,0-1c0.1-0.4,0.4-0.8,0.5-1.2c0-0.1,1-3.9,1.1-4.3c0.1-0.4,0.2-0.8,0.4-1.2c0.1-0.3,0.1-0.4-0.3-0.4
				c-0.1,0-0.1,0-0.2,0c0-0.1,0.1-0.2,0.1-0.2c0.2,0,0.3-0.2,0.4-0.4c0.3-0.7,0.6-1.4,0.8-2.1c0.1-0.5,0.2-1,0-1.6
				c-0.1-0.3,0.1-0.5,0.3-0.7c0.5-0.5,0.9-1,1-1.6c0.3-0.9,0.5-1.9,0.8-2.8c0.1-0.7,0.3-1.4,0.6-2c0.1-0.3,0.2-0.5,0.2-0.8
				c0.1-0.5,0.3-0.9,0.6-1.3c0.3-0.4,0.6-0.8,0.6-1.3c0-0.5,0.2-1,0.4-1.5c0.1-0.4,0.3-0.8,0.5-1.2C58.7,12.7,58.4,11.8,57.7,11.3z
				 M39.2,59.8c0.2-0.1,0.3,0.1,0.3,0.3c0,0.1-0.1,0.2-0.2,0.2c-0.1,0.1-0.3-0.1-0.4-0.4C39,59.9,39.1,59.8,39.2,59.8z M46.2,46.8
				c0.1-0.1,0.2,0,0.3,0.2c0,0.1-0.1,0.2-0.2,0.2c-0.1,0-0.2-0.1-0.3-0.1C46.1,46.9,46.1,46.8,46.2,46.8z M46,47.6
				c0.4-0.1,0.5,0,0.5,0.2c0,0.3-0.1,0.3-0.5,0.3c-0.1,0-0.1,0-0.1,0c-0.1,0-0.2,0.1-0.3,0c-0.1,0-0.2-0.1-0.2-0.2
				c0-0.1,0.1-0.2,0.2-0.2C45.6,47.6,45.8,47.6,46,47.6z M47.2,43.2c-0.1,0.2-0.1,0.3-0.2,0.3c-0.1,0.1-0.3,0.2-0.4,0.1
				c0-0.1-0.1-0.2-0.1-0.4c0-0.1,0.1-0.3,0.1-0.4c-0.2-0.7,0.3-0.9,0.6-1.2c0.1,0,0.1,0,0.1,0c0,0.1,0.1,0.1,0.1,0.1
				C47.3,42.2,47.5,42.7,47.2,43.2z M48.1,40.3c-0.1,0-0.2-0.1-0.2-0.2c0,0,0.1-0.1,0.1-0.1c0.1,0,0.2,0.1,0.2,0.2
				C48.2,40.3,48.2,40.3,48.1,40.3z M47.4,28.7L47.4,28.7l0,0.1L47.4,28.7C47.4,28.7,47.4,28.7,47.4,28.7z M48.6,38.7
				c-0.1,0-0.2-0.1-0.3-0.2c-0.1-0.2,0.1-0.3,0.2-0.2c0.1,0,0.2,0.1,0.4,0.2C48.8,38.6,48.7,38.7,48.6,38.7z M50.6,31.4L50.6,31.4
				L50.6,31.4l0.1,0C50.6,31.3,50.6,31.3,50.6,31.4z"/>
			<path class="st0" d="M42.8,50.1c-0.2-0.1-0.2-0.1-0.2-0.1c-0.1,0.1-0.2,0.2-0.3,0.3c0,0,0.1,0.1,0.2,0.1L42.8,50.1z"/>
			<path class="st0" d="M50.7,23.3L50.7,23.3L50.7,23.3z"/>
		</g>
		<g>
			<path class="st0" d="M46.7,33.7c0.1,0.2,0.1,0.3,0.3,0.5c0.1,0.1,0.2,0.2,0.2,0.3c0.3,0.4,0.6,1,0.9,1.5c0,0.1,0.1,0.2,0.2,0.2
				c0.3,0.2,0.5,0.5,0.5,0.9c0,0.1,0.1,0.2,0.3,0.3c0.3,0.3,0.6,0.5,0.9,0.8c0.1,0.1,0.1,0.2,0.1,0.3c0,0.1,0,0.2,0,0.3
				c-0.1,0.2,0,0.3,0.2,0.4c0.1,0.1,0.2,0.2,0.3,0.3c0.2,0.3,0.4,0.7,0.6,1c0.2,0.4,0.3,0.7,0.4,1.1c0.1,0.2,0.2,0.4,0.3,0.5
				c0.3,0.3,0.5,0.8,0.9,1.1c0.2,0.2,0.4,0.5,0.5,0.8c0.1,0.3,0.2,0.6,0.3,0.8c0.1,0.2,0.3,0.5,0.4,0.7c0.3,0.5,0.6,1.2,0.9,1.7
				c0,0,0.1,0.1,0.1,0.1c0.1,0.1,0.3,0.3,0.2,0.4c0,0.2,0.1,0.4,0.2,0.6c0.1,0.1,0.1,0.3,0.2,0.4c0.2,0.2,0.3,0.5,0.5,0.7
				c0.3,0.3,0.4,0.5,0.5,0.9c0,0.2,0.2,0.4,0.3,0.7c0.2,0.3,0.3,0.6,0.1,0.9c-0.1,0-0.1,0.1-0.1,0.2c0,0.1,0,0.2,0,0.3
				c0,0.1,0.2,0.1,0.3,0.1c0.3,0.2,0.7,0.2,1,0.2c0.3,0,0.5-0.1,0.8-0.3c0.2-0.3,0.5-0.5,0.7-0.8c0.1-0.1,0.2-0.2,0.4-0.2
				c0.4-0.1,0.7-0.3,0.9-0.5c0-0.1,0.1-0.2,0.1-0.3c0.1-0.1,0.3-0.3,0.5-0.2c0.3,0,0.5-0.2,0.7-0.5c0.2-0.3,0.2-0.6,0.2-1
				c0-0.7-0.3-1.5-0.5-2.2c-0.1-0.5-0.4-1.1-0.6-1.7c-0.2-0.7-0.6-1.4-0.9-2c-0.3-0.5-0.5-1.1-0.9-1.7c-0.4-0.5-0.6-1.1-1-1.6
				c0-0.1-0.1-0.2-0.2-0.3c-0.1-0.1-0.3-0.1-0.5-0.1c-0.1,0.1-0.2,0.2,0,0.3c0.2,0.1,0.3,0.2,0.2,0.3c-0.1,0.2,0,0.2,0.2,0.4
				c0.3,0.3,0.6,0.7,0.5,1.2c0,0.1,0,0.2,0.2,0.2l0.1,0.1c0,0.3,0.4,0.5,0.4,0.8c0,0.1,0,0.1,0.1,0.2c0.2,0.2,0.3,0.4,0.3,0.6
				c0,0.1,0,0.2,0.1,0.2c0.3,0.1,0.2,0.4,0.3,0.5c0.1,0.4,0.2,0.7,0.3,0.9c0,0.1,0,0.1,0.1,0.2c0.3,0.3,0.4,0.5,0.3,0.8
				c0,0.1,0,0.3-0.1,0.4c0,0.1,0,0.3,0.2,0.4c0.1,0.1,0.1,0.4-0.1,0.6c0.1,0.1,0.2,0.1,0.3,0.1c0.3,0.2,0.3,0.2,0.4,0.5
				c0,0.3-0.2,0.7-0.1,1c0,0.1-0.1,0.2-0.3,0.1c-0.1,0-0.2-0.1-0.2-0.2c-0.1-0.2-0.1-0.3-0.3-0.3c-0.1,0,0-0.1-0.1-0.2
				c0-0.1,0-0.2,0-0.3c-0.1-0.3,0-0.6,0.3-0.9c-0.1-0.1-0.3-0.3-0.4-0.3c-0.2-0.1-0.4-0.2-0.4-0.4c0-0.1-0.1-0.2-0.1-0.1
				c-0.4-0.2-0.3-0.4-0.2-0.7c0.1-0.1,0-0.2-0.1-0.2c-0.1,0-0.2,0-0.2-0.2c0-0.4-0.3-0.8-0.6-1.1c0-0.1-0.2-0.3-0.2-0.4
				c0-0.2,0-0.3-0.1-0.5c-0.1-0.2-0.3-0.3-0.4-0.4c-0.1-0.1-0.2-0.4-0.4-0.5c-0.2-0.3-0.3-0.3-0.6-0.2c-0.2,0.1-0.5,0.1-0.7,0.1
				c-0.3-0.1-0.4,0-0.5,0.2c0,0-0.1,0-0.2,0c0-0.1,0-0.1-0.1-0.2c0.1-0.3,0.4-0.6,0.7-0.6c0.3,0,0.5,0,0.7,0.1
				c0.3,0.1,0.4-0.1,0.5-0.2c0.1-0.2,0-0.3-0.1-0.5c-0.1,0-0.2-0.1-0.3-0.2c-0.2-0.2-0.2-0.2-0.1-0.5c0.1-0.2,0.1-0.2-0.2-0.2
				c-0.2-0.1-0.2-0.1-0.3-0.3c-0.1-0.2-0.2-0.3-0.2-0.5c-0.1-0.2-0.3-0.4-0.5-0.6c-0.1-0.1-0.2-0.3-0.1-0.5c0.1-0.3-0.1-0.6-0.4-0.8
				c-0.1-0.1-0.1-0.1-0.1-0.3c0-0.1,0-0.1-0.2-0.2c-0.2-0.1-0.4-0.3-0.5-0.6c0,0,0,0,0-0.1c-0.2-0.2-0.4-0.3-0.5-0.5
				c0-0.2,0-0.5-0.1-0.8c0-0.1,0-0.2-0.1-0.3c0-0.1,0-0.1-0.1-0.1c-0.3,0-0.3-0.1-0.3-0.4c0-0.3-0.2-0.4-0.6-0.4c-0.1,0-0.2,0-0.3,0
				c-0.2,0-0.2,0.1-0.1,0.2c0.2,0.2,0.2,0.3,0,0.3c-0.1,0-0.2,0-0.4,0c-0.1,0-0.2-0.1-0.3-0.2c-0.1-0.1,0.1-0.2,0.1-0.2
				c0.1-0.2,0.2-0.4,0.4-0.4c0.3-0.1,0.4-0.2,0.3-0.4c0-0.2,0-0.3,0-0.5c0-0.2-0.1-0.3-0.4-0.2c-0.1,0-0.1,0-0.1,0
				c-0.2,0.1-0.2,0-0.2-0.1c0.1-0.2,0-0.2-0.1-0.3c-0.2-0.1-0.2-0.1-0.1-0.2c0.1,0,0.1,0,0.1-0.1c0.1-0.1,0.1-0.3,0-0.3
				c-0.2-0.3-0.4-0.4-0.7-0.5c-0.4-0.2-0.6-0.5-0.5-0.9c0-0.1,0.1-0.4-0.1-0.4c-0.3-0.2-0.3-0.3-0.2-0.6c0-0.1,0-0.1,0-0.1
				c-0.2-0.2-0.5-0.5-0.6-0.7c-0.5,0-0.4-0.3-0.6-0.5c-0.1-0.4-0.4-0.7-0.7-1c-0.1-0.1-0.2-0.2-0.1-0.4c0.1-0.2,0-0.5-0.2-0.6
				c-0.2-0.3-0.4-0.5-0.6-0.7c-0.1-0.1-0.1-0.3,0-0.3c0.2-0.2,0.5-0.3,0.7-0.5c0.1,0,0.2,0,0.3,0.1c0,0.1,0,0.1,0,0.2
				c-0.1,0.2,0,0.2,0.2,0.3c0.1,0,0.3,0,0.3,0.1c0.1,0.2,0.2,0.4,0.2,0.6c0.1,0.3,0.2,0.6,0.6,0.9c0.2,0.1,0.3,0.1,0.3,0.3
				c0,0.1,0,0.2,0.1,0.3c0.1,0.3,0.2,0.6-0.1,0.8l0,0.1c0.1,0,0.1,0.1,0.2,0.1c0.1,0,0.1,0,0.1,0c0.1,0,0.3-0.1,0.5,0
				c0,0.1,0,0.2,0.1,0.4c0,0.1,0.2,0.2,0.3,0.2c0.3,0,0.4-0.1,0.3-0.3c-0.2-0.3-0.3-0.5-0.4-0.8c-0.2-0.3-0.5-0.6-0.5-1
				c0-0.1-0.1-0.2-0.1-0.2c-0.3-0.3-0.5-0.6-0.7-0.9c-0.2-0.2-0.4-0.5-0.4-0.8c0-0.1-0.1-0.3-0.4-0.4c-0.1,0-0.2-0.1-0.2-0.2
				c-0.1-0.6-0.5-1.1-0.8-1.5c-0.3-0.4-0.6-0.8-0.9-1.1c0-0.1-0.1-0.2-0.1-0.3c-0.1-0.2-0.1-0.3-0.2-0.4c-0.5-0.6,0.9,2.5,0.4,1.9
				l-0.1-0.2l-0.1,0c-0.2-0.4-0.4-0.8-0.6-1.1c0-0.1-0.2-0.3-0.2-0.4c-0.2-0.2-0.4-0.4-0.5-0.6c-0.3-0.7-0.9-1.3-1.4-2
				c-0.2-0.2-0.4-0.4-0.5-0.6c0-0.4-0.3-0.6-0.5-0.9c-0.1-0.1-0.2-0.2-0.3-0.3c-0.3-0.3-0.6-0.7-0.7-1.1c-0.1-0.2-0.1-0.3-0.3-0.3
				c-0.4-0.3-0.8-0.5-1.2-0.7c-0.4-0.1-0.7-0.1-1.1,0c-0.2,0.1-0.5,0.2-0.8,0.1c-0.3,0-0.4,0.1-0.6,0.3c-0.3,0.3-0.6,0.6-0.8,1
				c-0.1,0.2-0.2,0.3-0.3,0.3c-0.4,0.2-0.8,0.3-1.2,0.5c-0.1,0-0.2,0-0.3,0.1c-0.4,0.2-0.7,0.5-1,0.8c-0.1,0.1-0.3,0.3-0.5,0.2
				c-0.2,0-0.3,0.1-0.5,0.1c0,0,0,0,0,0c0.3,0.1,0.6,0.3,0.9,0.5c0.2,0.1,0.2,0.2,0.3,0.3c0.1,0.4,0.4,0.8,0.7,1.1c0,0,0,0,0,0
				c0,0,0.1,0.1,0.1,0.1c0,0.1,0.1,0.1,0.1,0.2c0.1,0.2,0.3,0.4,0.4,0.7c0.1,0,0.1,0.1,0.2,0.1c0.3,0.1,0.5,0.3,0.6,0.6
				c0.2,0.3,0.4,0.6,0.7,0.9c0.1,0.1,0.2,0.2,0.2,0.3c0.2,0.4,0.5,0.8,0.8,1.1c0.1,0.1,0.3,0.2,0.4,0.3c-0.1-0.2-0.1-0.3,0.1-0.2
				c0.1,0.1,0.2,0.2,0.2,0.4c0.1,0.1,0.1,0.2,0.2,0.3c0.3,0.3,0.6,0.6,0.9,1c-0.4-1-1-2.4-0.8-2.3c0.1,0,0.2,0.2,0.2,0.3
				c0.1,0.4,0.3,0.7,0.5,1c0.2,0.3,0.3,0.6,0.3,0.9c0,0.2,0.2,0.5,0.4,0.7c0.3,0.3,0.7,0.4,0.7,0.8c0,0.1,0.1,0.1,0.2,0.1
				c0.2,0.1,0.2,0.2,0.3,0.3c0.2,0.7,0.7,1.3,1.1,2c0.3,0.4,0.6,0.8,0.9,1.2 M45.9,23.1c0.2-0.2-0.2-0.3-0.2-0.5
				c0-0.1-0.1-0.2-0.1-0.1c-0.1-0.4-0.2-0.7-0.1-0.6c0.1,0.1,0.1,0.1,0.1,0.2c-0.1,0.1,0,0.2,0.1,0.3c0.3,0.2,0.3,0.2,0.3,0.5
				c0,0.1,0,0.3,0.2,0.4c0.1,0,0.1,0.1,0.2,0.2c-0.1-0.1-0.2-0.2-0.3-0.2C46,23.3,45.9,23.2,45.9,23.1z M44.8,22.1
				c0-0.1,0-0.1,0-0.1c0-0.1-0.1-0.1-0.2-0.3c0-0.1,0.1-0.1,0.1-0.2c0.1,0,0.1,0,0.1,0c0.2,0.2,0.3,0.3,0.6,0.5l0,0.1
				C45.1,22.3,44.9,22.3,44.8,22.1z M46.2,24.3c0.2,0.1,0.3,0.3,0.3,0.4C46.6,24.9,46.4,24.7,46.2,24.3z M54.1,43.2l0,0.1l-0.1,0
				l0-0.1L54.1,43.2z M47.9,32.6C47.9,32.7,47.9,32.7,47.9,32.6c-0.1,0.2-0.1,0.1-0.1,0.1c0-0.1,0-0.1,0-0.1
				C47.8,32.6,47.8,32.6,47.9,32.6z M51.2,37.2c0.1,0,0.2-0.1,0.3-0.1c0.1,0,0.2,0,0.3,0.1c0.1,0,0,0.2-0.2,0.2c-0.1,0-0.2,0-0.4,0
				C51.3,37.4,51.2,37.3,51.2,37.2L51.2,37.2z M50.7,35.2c0.1,0,0.2,0.1,0.1,0.2c0,0.1-0.1,0.2-0.1,0.2l-0.1,0c-0.1,0-0.1,0-0.1,0
				c0-0.1-0.1-0.2-0.1-0.3C50.5,35.3,50.6,35.3,50.7,35.2z M50.3,35.1c-0.1,0-0.1,0-0.1,0c-0.1-0.1-0.1-0.3,0-0.3c0.1,0,0.2,0,0.2,0
				C50.5,34.9,50.5,35.1,50.3,35.1z M48.2,31.9l-0.1,0C48.1,31.9,48.1,31.9,48.2,31.9C48.1,31.9,48.2,31.8,48.2,31.9z M49.8,33.6
				L49.8,33.6c-0.1,0.2-0.2,0.2-0.3,0.3c-0.1,0-0.2,0.1-0.3,0.1c-0.1,0-0.2-0.1-0.1-0.1c0.1-0.2,0.1-0.2,0.2-0.4
				C49.3,33.3,49.7,33.5,49.8,33.6z M53.4,38.7c0.1,0,0.1-0.1,0.1-0.1c0-0.1,0.1,0,0.2-0.1c-0.1,0,0,0.1,0,0.1
				c-0.1,0.1-0.1,0.2-0.2,0.2c-0.1,0-0.1,0-0.1,0C53.4,38.8,53.4,38.8,53.4,38.7z M49.1,32.6L49.1,32.6l-0.2,0.1l0-0.1L49.1,32.6z
				 M46.4,28.4c0,0.1,0,0.1-0.1,0.2c-0.1-0.1-0.2-0.1-0.3-0.1c0-0.1,0-0.1,0.1-0.2C46.2,28.2,46.5,28.3,46.4,28.4z M51,34.4L51,34.4
				c-0.1,0-0.1,0-0.1,0s0-0.1,0-0.1L51,34.4z M43.9,23.3C43.9,23.2,43.9,23.2,43.9,23.3c0.1,0,0.1,0,0.1,0.1L43.9,23.3L43.9,23.3z
				 M43.9,22.8C43.9,22.8,43.9,22.8,43.9,22.8c-0.1,0-0.2,0.1-0.2,0c0-0.1,0-0.1,0-0.1C43.6,22.6,43.8,22.6,43.9,22.8z M44.5,22.5
				c0,0.1,0,0.2-0.1,0.2c0,0-0.1,0-0.2-0.1C44.3,22.7,44.4,22.6,44.5,22.5L44.5,22.5z M45.3,23.9c-0.1,0.1-0.2,0.2-0.3,0
				c-0.2-0.2-0.3-0.3-0.6-0.2c-0.1,0-0.2,0-0.2-0.1c0-0.1,0-0.1,0-0.2c0.1-0.1,0.2-0.2,0.2-0.2c0.3-0.1,0.4-0.1,0.5,0
				c0.2,0.1,0.3,0.2,0.4,0.3c0,0.1,0.1,0.2,0,0.2C45.4,23.7,45.4,23.8,45.3,23.9z M47.6,26.8c0.1,0.2,0.2,0.4,0.3,0.5
				c0,0.1-0.1,0.2-0.1,0.1c-0.2,0-0.4,0-0.6-0.1c-0.2-0.1-0.4-0.3-0.7-0.1c-0.2,0.1-0.2,0.1-0.4-0.2c-0.1,0-0.2-0.1-0.3-0.2l0-0.1
				c0.1,0,0.1,0,0.1,0c0.1,0,0.2,0,0.3,0c0.1,0,0.2-0.1,0.3-0.2c0-0.1-0.1-0.2-0.1-0.3c0-0.1,0-0.1,0-0.2c0-0.1-0.1-0.2-0.2-0.2
				c-0.1,0-0.2-0.1-0.2-0.1c-0.4,0-0.5-0.2-0.7-0.4C45,25.2,45,25.2,45,25.1c0.1-0.1,0.3-0.3,0.4-0.4c0.1-0.1,0.2-0.2,0.4-0.1
				c0.1,0,0.1,0,0.1,0c0,0.1,0,0.1-0.1,0.2c-0.1,0.1-0.2,0.2-0.3,0.3c0,0.1,0,0.1,0,0.1c0,0.1,0.1,0,0.1,0c0.1,0,0.2,0,0.3,0.1
				c0,0.1,0.1,0.2,0.2,0.1c0.1-0.1,0.1-0.1,0.2,0c0,0.1,0.1,0.2,0.2,0.2c0.3,0.1,0.4,0.3,0.6,0.5C47.3,26.3,47.4,26.5,47.6,26.8z
				 M52,33.2L52,33.2L52,33.2L52,33.2z M48.2,28.8c0,0.1-0.1,0.1-0.2,0.1c-0.3-0.2-0.6-0.6-0.5-0.7c0.2-0.2,0.5-0.2,0.8-0.2
				c0.1,0,0.1,0,0.1,0l0,0.1c0,0.1,0,0.1,0,0.1C48.4,28.3,48.3,28.5,48.2,28.8z M50.1,31.4c-0.1,0-0.3,0-0.3-0.1
				C49.7,31,49.6,31,49.4,31c-0.1,0-0.1-0.1-0.1-0.1c0.1-0.1,0.2-0.2,0.3-0.3c0.1-0.1,0.3,0,0.4,0.1c0,0.1,0.1,0.1,0.1,0.1
				c0,0.1,0.1,0.2,0.1,0.2C50.2,31.2,50.2,31.3,50.1,31.4z M50.6,32.4c-0.3,0.1-0.6,0.1-0.9,0.1c-0.1,0-0.2,0-0.2-0.1
				c0-0.1,0.1-0.2,0.1-0.2c0.2-0.1,0.5-0.2,0.7-0.3c0.2-0.1,0.4,0.1,0.4,0.2C50.8,32.3,50.7,32.3,50.6,32.4z M50.5,33.5
				c-0.1,0-0.2-0.1-0.2-0.1l0-0.1c0.1-0.1,0.3-0.2,0.5-0.3c0.2,0,0.4,0,0.5,0c0.1,0,0.1,0.1,0.1,0.1c0,0,0,0.1-0.1,0
				C51.1,33.4,50.8,33.5,50.5,33.5z M52.9,35.8c0,0,0.1,0,0.1,0.1c0,0.1,0,0.1-0.1,0.2c-0.2,0-0.5,0.1-0.7,0.1
				c-0.2,0.1-0.3,0-0.4-0.1c-0.3-0.2-0.3-0.3,0-0.5c0.1,0,0.2-0.2,0.2-0.2c0.1-0.1,0.3-0.1,0.4-0.1c0.2,0,0.3,0.1,0.2,0.2
				C52.6,35.7,52.7,35.8,52.9,35.8z M53.3,36.7L53.3,36.7l0-0.2l0.1,0L53.3,36.7L53.3,36.7z M55.3,39.8
				C55.3,39.8,55.3,39.8,55.3,39.8l0.1,0l0,0.1L55.3,39.8z M56.7,43.6L56.7,43.6L56.7,43.6L56.7,43.6z M56.7,42.9L56.6,43l-0.1,0
				c0.1,0,0-0.1,0.1-0.1C56.6,42.9,56.6,43,56.7,42.9z M58,44.4c0-0.1,0-0.1-0.1-0.1l0.1,0L58,44.4C58,44.3,58,44.3,58,44.4z
				 M58.2,45.7c0-0.1,0.1-0.2,0.2-0.2c0.1,0,0.3,0,0.4,0l0,0.1c-0.1,0-0.1,0.1-0.2,0.2c-0.1,0-0.1,0-0.2,0.1
				C58.4,45.9,58.2,45.8,58.2,45.7z M57.1,45L57.1,45c0.2-0.2,0.4-0.2,0.6-0.3c0.1,0,0.1,0,0.2,0c0.1,0,0.1,0.1,0.1,0.1
				c0,0.1,0,0.1,0,0.1c-0.1,0-0.2,0-0.3,0.1c-0.2,0.1-0.3,0.1-0.5,0.1C57.2,45.1,57.1,45.1,57.1,45z M52.9,39.8
				c0.1-0.3,0.4-0.3,0.7-0.3c0.5,0,0.8,0,1-0.4c0-0.1,0.1-0.2,0.3-0.1c0,0.1,0,0.1,0,0.2c0,0.2-0.1,0.3-0.3,0.3
				c-0.4,0-0.7,0.1-1,0.3C53.3,40.1,53.1,39.9,52.9,39.8z M52.6,39.8L52.6,39.8c0.1,0,0.2,0,0.3,0C52.8,39.8,52.7,39.8,52.6,39.8z
				 M48.6,34.6c0-0.1,0.1-0.2,0.2-0.2c0.1,0,0.1,0,0.3,0c0,0,0,0.1,0,0.1c0,0,0,0.1,0,0.1c0,0.1-0.1,0-0.1,0.1c0,0-0.1,0-0.1,0
				C48.8,34.7,48.7,34.7,48.6,34.6z M55.9,45.1c0.1,0,0.2,0,0.3,0.1l0.1,0c-0.1,0-0.1,0.1-0.2,0.1C56,45.3,55.9,45.3,55.9,45.1z
				 M56.5,47.2c0,0,0-0.1,0-0.1c0.1,0,0.2,0.1,0.2,0c0,0,0,0.1,0,0.1C56.6,47.2,56.6,47.2,56.5,47.2z M56.3,46.6L56.3,46.6
				c0-0.1,0-0.1,0-0.1l0.1,0L56.3,46.6z M55,45.1c0-0.1,0.1-0.1,0.1-0.1c0.2,0,0.5,0,0.7,0.2c-0.2,0.1-0.4,0.1-0.6,0.1
				C55.2,45.3,55.1,45.2,55,45.1z"/>
			<path class="st0" d="M53.1,33.6C53.1,33.6,53.1,33.6,53.1,33.6L53.1,33.6L53.1,33.6C53.1,33.6,53.1,33.6,53.1,33.6z"/>
			<path class="st0" d="M55.8,35.2c0.1,0.2-0.1,0.3-0.3,0.3c-0.2-0.1-0.3-0.1-0.3-0.3c0-0.2-0.2-0.4-0.4-0.7
				c-0.1-0.1-0.2-0.3-0.3-0.4c0-0.1-0.1-0.2,0-0.2c0-0.2-0.1-0.3-0.3-0.3c-0.2-0.1-0.2-0.2-0.2-0.4c0-0.2-0.1-0.4-0.2-0.6
				c-0.2-0.3-0.5-0.6-0.6-1c-0.2-0.2-0.1-0.4-0.4-0.4c-0.1,0-0.2-0.2-0.2-0.3c0.1-0.3-0.2-0.5-0.4-0.8c0,0-0.1-0.1-0.2-0.2
				c0-0.1-0.1-0.2,0-0.2c0.1-0.1,0.2-0.1,0.3-0.1c0.1,0,0.2,0.1,0.2,0.2c0,0.1,0,0.2,0.1,0.3c0.3,0.1,0.4,0.4,0.6,0.7
				c0,0.1,0.1,0.1,0.2,0.3c0.1,0.1,0.2,0.2,0.3,0.3c0.5,0.6,0.5,1.4,1.1,1.9c0.1,0,0.1,0,0,0.1c0.1,0.5,0.6,0.7,0.8,1.1
				C55.6,34.6,55.6,35,55.8,35.2z"/>
			<path class="st0" d="M57.5,38.9c-0.2-0.1-0.4-0.2-0.5-0.3c-0.2-0.1-0.3-0.3-0.3-0.5c-0.1-0.7-0.4-1.3-1-1.8
				c-0.1,0-0.1-0.1-0.1-0.2c0.1-0.1,0.1-0.2,0.2-0.3c0-0.1,0.1,0,0.2,0c0.1,0,0.2,0.1,0.3,0.1c0.3,0.3,0.5,0.6,0.8,1L57,37
				c0.1,0.2,0.3,0.4,0.3,0.6c0.2,0.4,0.4,0.8,0.5,1.2C57.8,38.9,57.6,39,57.5,38.9z"/>
		</g>
	</g>
	<g>
		<path class="st0" d="M107.8,27.2c0,0.1-0.1,0.2-0.1,0.2c-0.5,0.2-1,0.4-1.5,0.6c-0.2,0-0.4,0-0.6,0l-0.1,0
			c-0.2,0.1-0.4,0.2-0.6,0.4c-0.1,0.1-0.1,0.2-0.2,0.3c0.1,0,0.2,0.1,0.3,0.1c0.2,0,0.4-0.1,0.6-0.1c0.3-0.1,0.4-0.1,0.5,0.2
			c0.1,0.5,0.1,0.7-0.5,0.9c-0.4,0.2-0.9,0.3-1.4,0.4c-0.8,0.3-1.7,0.6-2.5,1c-0.3,0.2-0.6,0.4-0.9,0.6c-0.3,0.2-0.5,0.3-0.8,0.5
			c-0.1,0-0.2,0.1-0.2,0.1c0.1,0.4,0,0.4-0.3,0.2c-0.4-0.2-0.7,0.1-0.9,0.5c-0.2,0.3-0.4,0.4-0.7,0.6c-0.7,0.2-1.3,0.6-1.9,0.8
			c-0.3,0.2-0.6,0.4-0.9,0c-0.2-0.1-0.4,0-0.6,0.2c-0.5,0.3-1,0.7-1.6,1.1c-0.2,0.1-0.4,0.1-0.7,0.1c-0.2,0-0.4,0-0.5,0.3
			c-0.1,0.2-0.3,0.4-0.5,0.5c-0.8,0.3-1.5,0.6-2.3,1c0,0-0.1,0.1-0.2,0c-0.5-0.3-0.9,0.3-1.3,0.3C87.2,37.8,87,38,87,38
			c-0.1,0.4-0.3,0.4-0.6,0.5c-0.5,0.2-1,0.5-1.5,0.8c-0.2,0.1-0.3,0.2-0.4,0.3c-0.3,0.1-0.5,0.4-0.8,0.5c-0.9,0.2-1.6,0.9-2.4,1.4
			c-0.1,0.1-0.2,0.1-0.3,0.2c-0.9,0.4-1.9,0.9-2.6,1.7c-0.4,0.4-0.8,0.5-1.3,0.7c-0.8,0.5-1.6,0.9-2.4,1.5c-0.6,0.5-1.4,0.8-2,1.4
			c-0.8,0.8-1.9,1.2-2.6,2.1c0,0-0.1,0.1-0.1,0.1c-0.8,0.4-1.5,1-2.1,1.6c-0.1,0.1-0.3,0.1-0.4,0.2c-0.3,0-0.6,0-0.9,0.3
			c-0.2,0.2-0.4,0.1-0.6-0.1c-0.2-0.1-0.5-0.3-0.7-0.4c-0.1-0.1-0.2-0.1-0.3-0.2c-0.1-0.7-0.8-0.8-0.9-1.3c-0.1-0.3-0.1-0.7-0.2-1
			c-0.1-0.3,0.1-0.5,0.2-0.6c0.2-0.3,0.4-0.6,0.6-0.9c0.1-0.1,0.2-0.2,0.3-0.2c0.6-0.3,1.1-0.7,1.7-1.1c0.4-0.3,0.7-0.8,1.2-1
			c0.4-0.2,0.7-0.6,1.2-0.7c0.1,0,0.1-0.1,0.2-0.1c0.3-0.5,0.9-0.6,1.4-0.8c0.5-0.2,0.5-0.2,0.8-0.8c0.1-0.2,0.3-0.2,0.6-0.1
			c0,0,0.2,0,0.3,0c0.1-0.1,0.2-0.3,0.4-0.3c0.2-0.1,0.4-0.1,0.7-0.2c0,0.4-0.3,0.4-0.5,0.6c-0.4,0.3-0.8,0.5-1.2,0.8
			c-0.1,0.1-0.2,0.2-0.3,0.3c-0.1,0.1-0.1,0.3,0,0.4c0.1,0.2,0.3,0.1,0.4,0.1c0.6-0.5,1.3-0.9,1.9-1.3c0.2-0.1,0.4-0.3,0.6-0.4
			c0,0,0.1,0,0.1,0c0,0,0,0.1,0,0.1c-0.1,0.1-0.2,0.1-0.2,0.2c-0.2,0.3-0.6,0.3-0.6,0.7c0.3-0.1,0.6-0.1,0.9-0.3
			c0.3-0.1,0.5-0.3,0.8-0.5c0.5-0.2,0.9-0.6,1.3-0.8c1.3-0.8,2.6-1.5,3.9-2.2c1.8-1,3.5-2,5.3-2.9c1.4-0.7,2.9-1.3,4.3-2
			c0.6-0.3,1.2-0.6,1.8-0.9c1-0.4,2-0.8,3-1.2c0.3-0.1,0.7-0.2,1-0.4c0.8-0.5,1.8-0.7,2.7-1c0.1,0,0.2,0,0.2,0
			c0,0.1-0.1,0.1-0.2,0.2c-0.1,0.1-0.1,0.1,0,0.2c0.2,0.1,0,0.2-0.1,0.2c-0.1,0-0.2,0-0.3,0c-0.4-0.1-0.8,0-1,0.4
			c-0.2,0.2-0.4,0.4-0.8,0.2c-0.1-0.1-0.3,0-0.5,0c-0.2,0-0.2,0.1-0.1,0.3c0.1,0.2,0.1,0.3,0.1,0.5c0.1,0.4,0.2,0.4,0.4,0.1
			c0,0,0,0,0-0.1c0.2-0.1,0.5-0.1,0.7-0.2c0.2-0.1,0.4-0.3,0.7-0.4c0.3,0,0.6-0.2,1-0.3c0.2-0.1,0.5-0.3,0.7-0.3
			c0.9-0.2,1.6-0.8,2.2-1.5c0-0.1,0.1-0.1,0-0.2c0-0.1-0.1-0.1-0.2-0.1c0,0,0,0-0.1,0c-0.2,0-0.4,0.2-0.5-0.1c0,0,0.3-0.2,0.5-0.3
			c0.4-0.2,0.8-0.3,1.3-0.5c0,0,0.1,0,0.2,0.1c0,0.1-0.1,0.1-0.1,0.2c-0.1,0.1-0.2,0.1-0.2,0.2c-0.1,0.1-0.1,0.2-0.1,0.3
			c0.1,0.1,0.2,0.1,0.2,0.1c0.4-0.1,0.8-0.2,1.2-0.4c0.1,0,0.1-0.1,0.1-0.2c0-0.1-0.1-0.2-0.2-0.2c-0.1-0.1-0.1-0.1-0.2-0.1
			c0.1-0.1,0.1-0.1,0.2-0.1c0.5-0.3,0.9-0.6,1.5-0.5c0.1,0,0.2,0,0.3,0l0,0l0,0c0.5-0.2,0.9-0.5,1.4-0.7c0.2-0.1,0.4-0.1,0.6-0.2
			C107.6,27.1,107.7,27.2,107.8,27.2z M73.6,40.5c-0.1,0.1-0.1,0.2-0.2,0.2c0,0.1-0.1,0-0.2,0c0-0.1,0.1-0.1,0.1-0.2
			C73.4,40.5,73.5,40.5,73.6,40.5z M73.7,41c0,0-0.1,0.1-0.1,0.1c0,0-0.1-0.1-0.1-0.1c0,0,0-0.1,0.1-0.1C73.6,40.9,73.7,41,73.7,41z
			 M74.6,40.4C74.6,40.4,74.6,40.5,74.6,40.4c-0.1,0.1-0.1,0.1-0.1,0.1l0-0.1L74.6,40.4z M75.2,41.1c-0.1,0.2-0.2,0.3-0.3,0.4
			c-0.1,0-0.2-0.1-0.3-0.1c0.1-0.1,0.1-0.3,0.2-0.3C75,41.1,75,41.1,75.2,41.1z M75.3,39.4C75.3,39.4,75.3,39.4,75.3,39.4
			c-0.1,0.1-0.1,0.2-0.1,0.2c0,0,0-0.1,0-0.1C75.2,39.4,75.3,39.4,75.3,39.4z M76.6,39.1l-0.2,0.4c-0.3,0.1-0.5,0.2-0.7,0.3
			c0,0-0.1,0-0.1,0c0-0.1,0-0.1,0.1-0.1c0.1-0.3,0.3-0.4,0.6-0.5C76.4,39.1,76.5,39.1,76.6,39.1z M77.3,40c-0.1,0.1-0.2,0.3-0.3,0.3
			c-0.1,0.1-0.2,0-0.2-0.1c-0.1-0.3,0.2-0.3,0.3-0.3C77.1,39.9,77.2,39.9,77.3,40z M77.9,38.3c0,0,0,0.1-0.1,0.1c0,0,0,0,0,0
			L77.9,38.3L77.9,38.3z M78.7,37.9c0,0,0,0.1-0.1,0.1c0,0-0.1,0-0.1,0C78.6,37.9,78.6,37.9,78.7,37.9
			C78.7,37.9,78.7,37.9,78.7,37.9z M79.9,38.2c0,0.4-0.3,0.5-0.4,0.5c-0.3,0.2-0.3,0.3-0.4,0.3c-0.1,0-0.2,0-0.3-0.1
			c0-0.1,0-0.3,0.1-0.3c0.3,0,0.6-0.2,0.8-0.6c0,0,0.1,0,0.2,0C79.9,38.1,80,38.1,79.9,38.2z M79.4,36.9l-0.1,0.2L79.2,37l0.1-0.1
			L79.4,36.9z M79.6,37.4c-0.1,0.1-0.1,0.2-0.1,0.2c0,0-0.1,0-0.2-0.1c0-0.1,0.1-0.1,0.1-0.1C79.5,37.4,79.5,37.4,79.6,37.4z
			 M81.1,36.1L81.1,36.1L81,36.2C80.9,36.1,81,36.1,81.1,36.1C81,36,81,36.1,81.1,36.1z M82.7,38.8c-0.1,0-0.1,0-0.1,0
			c-0.1,0.1-0.1,0.2-0.2,0.2c0,0,0.1,0.1,0.1,0.1C82.6,39,82.6,38.9,82.7,38.8z M90.8,34.4c-0.5,0-0.9,0.1-1.2,0.5
			c-0.1,0.2-0.3,0.2-0.4,0.2c-0.1,0-0.2,0-0.3,0c-0.4,0.2-0.8,0.5-1.3,0.6c-0.9,0.4-1.7,1-2.6,1.4c-0.7,0.3-1,1-1.5,1.4
			c0,0,0,0.1,0,0.1c0,0,0.1,0.1,0.1,0c0.3-0.1,0.7-0.1,0.8-0.4c0.2-0.5,0.6-0.6,1-0.7c0.3-0.1,0.7-0.1,1-0.3
			c0.5-0.2,0.9-0.6,1.4-0.8c0.8-0.3,1.5-0.8,2.4-0.9C90.8,35.4,90.9,35.2,90.8,34.4z M85,34.5L85,34.5L85,34.5L85,34.5
			C85,34.5,85,34.5,85,34.5z M87.3,32.8L87.3,32.8L87.3,32.8C87.2,32.8,87.2,32.8,87.3,32.8L87.3,32.8L87.3,32.8z M87.9,33.2
			l-0.1,0.2l-0.3-0.1c0-0.1,0.1-0.1,0.1-0.1C87.6,33.1,87.7,33.1,87.9,33.2z M88.4,33.8L88.3,34l-0.2,0c0.1-0.1,0.1-0.2,0.2-0.2
			C88.4,33.7,88.4,33.7,88.4,33.8z M88.8,32.6c0,0,0,0.2,0,0.2c-0.2,0-0.3,0.1-0.5,0.1c0,0,0-0.1,0-0.2c0-0.1,0.1-0.1,0.2-0.2
			c0,0,0.1-0.1,0.2-0.1C88.7,32.5,88.8,32.5,88.8,32.6z M90.2,32.1L90.2,32.1L90.2,32.1L90.2,32.1z M90.2,31.5L90.2,31.5L90.2,31.5
			C90.1,31.5,90.1,31.5,90.2,31.5L90.2,31.5z M91.6,31.4c-0.1,0.1-0.2,0.2-0.2,0.3c-0.1,0.1-0.2,0.1-0.3,0.1c0,0.1-0.1,0-0.2,0
			c0-0.1,0.1-0.1,0.1-0.2c0.1,0,0.1-0.1,0.3-0.2L91.6,31.4z M91.3,34.6C91.2,34.6,91.2,34.7,91.3,34.6c-0.1,0.1-0.1,0.1,0,0.2
			C91.3,34.8,91.3,34.8,91.3,34.6C91.3,34.7,91.3,34.7,91.3,34.6z M94.8,33.4c0,0-0.1-0.1-0.1-0.2c-0.5-0.3-1-0.3-1.5-0.1
			c-0.3,0.1-0.6,0.2-0.9,0.4c-0.2,0.1-0.5,0.2-0.7,0.3c-0.2,0.2-0.4,0.4-0.2,0.7c0.2-0.1,0.4-0.3,0.5-0.2c0.3,0.2,0.5-0.1,0.6-0.2
			c0.5-0.3,1-0.6,1.6-0.5c0.2,0,0.4-0.1,0.6-0.2C94.7,33.5,94.8,33.5,94.8,33.4z M93.7,30.5L93.7,30.5l-0.2,0.1
			C93.5,30.5,93.5,30.4,93.7,30.5C93.6,30.4,93.6,30.4,93.7,30.5z M95.4,32.6c0-0.2-0.2-0.2-0.3-0.2c-0.2,0-0.3,0-0.5,0
			c0,0.1-0.1,0.2-0.1,0.2c0,0,0.1,0.2,0.2,0.1c0.1,0,0.3,0,0.4,0C95.2,32.7,95.4,32.7,95.4,32.6z M95.5,29.8L95.5,29.8L95.5,29.8
			L95.5,29.8z M96,29.5C96,29.5,96,29.5,96,29.5L96,29.5L96,29.5C96,29.5,96,29.5,96,29.5z M98.7,28.5c0,0,0,0.1-0.1,0.1
			c-0.2,0-0.3,0.1-0.5,0.1c0,0-0.1-0.1-0.1-0.1c0-0.1,0.1-0.1,0.1-0.2c0,0,0,0,0.1-0.1c0.1,0,0.2-0.1,0.3-0.1
			C98.6,28.4,98.6,28.4,98.7,28.5z M99.3,29.2C99.3,29.2,99.3,29.2,99.3,29.2L99.3,29.2L99.3,29.2C99.2,29.1,99.3,29.1,99.3,29.2z
			 M99.4,30.1L99.4,30.1l-0.1,0.1C99.3,30.2,99.3,30.1,99.4,30.1C99.3,30.1,99.4,30.1,99.4,30.1z M100,30.8
			c-0.1,0.1-0.1,0.2-0.1,0.2c0,0-0.1-0.1-0.2-0.1c0,0,0.1-0.1,0.1-0.2C99.8,30.7,99.8,30.8,100,30.8L100,30.8z M100.5,29.7
			c0.1,0.2,0,0.4,0,0.5l-0.6-0.1c0-0.1,0-0.2,0-0.3C100.1,29.7,100.4,29.6,100.5,29.7z M100.4,27.9
			C100.3,27.9,100.3,27.9,100.4,27.9L100.4,27.9l-0.1,0.1l0,0l-0.2,0c0,0,0-0.1,0-0.1c0,0,0.1,0,0.1,0.1l0,0L100.4,27.9L100.4,27.9z
			 M103,26.9c-0.1,0.2-0.1,0.2-0.2,0.3c-0.1,0-0.2,0-0.3,0c0,0,0-0.2,0-0.2C102.7,27,102.8,27,103,26.9z M102.9,30.3L102.9,30.3
			L102.9,30.3L102.9,30.3z M103.1,27.8c0,0.1,0,0.1-0.1,0.1c0,0,0,0,0,0c0,0,0,0,0-0.1L103.1,27.8z M104.3,26.3c0,0.1,0,0.2,0,0.2
			c-0.1,0-0.1,0-0.2,0c0,0,0-0.1,0-0.1C104.2,26.4,104.3,26.4,104.3,26.3z M105.7,26.1c-0.1,0.1-0.1,0.1-0.2,0.1c0,0,0,0-0.1-0.1
			c0-0.1,0.1-0.1,0.1-0.1C105.5,26,105.6,26,105.7,26.1L105.7,26.1z M105.8,26.9l0,0.2l-0.2,0.1c0-0.1,0-0.2,0.1-0.2
			C105.6,26.9,105.7,26.9,105.8,26.9z M116.5,26.2c0,0.2-0.6,0.3-0.8,0.2c0,0-0.1-0.2-0.1-0.2c0,0-0.1-0.1-0.2-0.1
			c-0.1,0.1-0.1,0.2-0.1,0.2c0.1,0.2,0.1,0.3-0.1,0.3c-0.4,0.1-0.8,0.2-1.2,0.3c-0.4,0.1-0.8,0.4-1.1,0c-0.3,0.2-0.7,0.4-1,0.5
			c-0.2,0.1-0.5,0.1-0.7-0.2c-0.2-0.1-0.3-0.1-0.3,0.1c0,0.4-0.2,0.5-0.5,0.6c-1.1,0.4-2.3,0.8-3.4,1.1c-0.1,0-0.2,0.1-0.3,0.1
			c-0.1,0-0.2-0.2-0.1-0.2c0.1-0.2,0.2-0.5,0.5-0.4c0.3,0,0.5,0,0.6-0.3c0-0.1,0.2-0.1,0.2-0.1c0.4,0.1,0.5-0.2,0.7-0.5
			c0.1-0.2,0.4-0.3,0.6-0.4c0.3-0.1,0.5-0.1,0.6,0.2c0.1,0.2,0.2,0,0.2-0.1c0-0.3,0.1-0.4,0.4-0.5c0.5-0.1,1.1-0.2,1.6-0.4
			c0.2-0.1,0.5-0.2,0.7-0.3c0.2,0,0.4-0.1,0.6-0.1c0.2-0.1,0.2,0.1,0.1,0.2c0,0,0.1,0.2,0.1,0.2c0.2,0,0.5-0.1,0.6-0.1
			c0.5-0.7,1.2-0.9,1.8-1.2c0.1-0.1,0.4-0.1,0.4,0C116.4,25.7,116.5,26,116.5,26.2z M107.8,25.4c-0.1,0.1-0.2,0.2-0.3,0.2
			c-0.1,0-0.3,0-0.3,0c0-0.1,0-0.2,0-0.2c0.1-0.1,0.2-0.1,0.3-0.1C107.6,25.3,107.7,25.4,107.8,25.4z M111.3,26.1L111.3,26.1
			L111.3,26.1c-0.6,0.6-1.4,0.7-2.1,0.9c-0.2,0-0.5,0.1-0.7,0.1c0,0-0.1,0-0.1-0.1c0,0,0.1-0.1,0.1-0.1c0.2-0.1,0.3-0.2,0.5-0.2
			c0.7-0.1,1.2-0.4,1.8-0.5C110.9,26.1,111.1,26.2,111.3,26.1L111.3,26.1z M109.3,28.1C109.3,28,109.3,28,109.3,28.1
			C109.3,28,109.2,28,109.3,28.1L109.3,28.1L109.3,28.1z M110.4,24.8c0,0-0.1,0-0.2,0c0,0-0.1-0.1-0.1-0.1c0.1-0.1,0.1-0.1,0.2-0.1
			C110.3,24.7,110.3,24.7,110.4,24.8L110.4,24.8L110.4,24.8L110.4,24.8z M110.4,24.8L110.4,24.8L110.4,24.8z M111.6,24.3L111.6,24.3
			L111.6,24.3l-0.2,0c0,0,0-0.1,0-0.1S111.5,24.3,111.6,24.3L111.6,24.3L111.6,24.3z M112.9,25.8c0,0,0,0.1-0.1,0.1
			c-0.2,0-0.4,0.1-0.6,0.2c-0.1,0-0.2-0.1-0.3-0.1c0.1-0.1,0.1-0.2,0.2-0.2c0.2,0,0.4-0.1,0.7-0.1C112.8,25.7,112.9,25.7,112.9,25.8
			z M114.6,25.3c0,0,0,0.1,0,0.1c-0.1,0.1-0.2,0.1-0.3,0.2c0,0-0.1-0.1-0.2-0.1l0.1-0.2C114.3,25.3,114.4,25.2,114.6,25.3
			C114.5,25.2,114.6,25.2,114.6,25.3z M115.5,25.1l-0.1,0.2l-0.3-0.1c0-0.1,0.1-0.1,0.1-0.2C115.3,25.1,115.4,25.1,115.5,25.1z
			 M125.1,23.3c-0.1,0.1-0.2,0.2-0.3,0.3c-0.5,0.2-1,0.4-1.5,0.6c-0.2,0-0.3,0.2-0.5,0.2c-0.3,0.1-0.6,0.3-1,0.3
			c-0.4-0.1-0.7,0.1-0.9,0.3c-0.3,0.5-0.7,0.5-1.1,0.6c0,0-0.1,0-0.1-0.1c0-0.1,0.1-0.1,0.1-0.1c0.1-0.1,0.1-0.1,0.2-0.2
			c0-0.1,0-0.3-0.1-0.3c-0.1,0-0.2-0.1-0.3-0.1c-0.2,0.1-0.3,0.2-0.4,0.4c-0.3,0.3-0.6,0.6-1,0.3c-0.1,0-0.3,0-0.4,0
			c-0.2,0-0.3,0-0.4-0.2c-0.1-0.4-0.4-0.4-0.7-0.4c0,0-0.1,0-0.2,0c-0.2,0-0.3,0.1-0.5,0.1c0.2-0.1,0.3-0.2,0.5-0.3
			c0.3-0.1,0.6-0.1,0.9-0.2c0.2-0.1,0.4-0.1,0.5,0.3c0.1,0.3,0.7,0.3,0.8-0.2c0.2-0.5,0.6-0.4,0.9-0.6c0,0,0.1,0.1,0.1,0.1
			c-0.1,0.3,0,0.4,0.2,0.4c0.2-0.1,0.5-0.1,0.7-0.1c0.4,0.1,0.4-0.4,0.7-0.3c0.3,0,0.5,0.1,0.8,0.1c0.1,0,0.3-0.1,0.3-0.2
			c0-0.1,0-0.3,0-0.4l0,0c-0.5,0.2-1,0.4-1.6,0.5c0,0-0.1-0.1-0.2-0.1c0-0.1,0.1-0.2,0.1-0.2c0.5-0.2,1.1-0.4,1.6-0.3l0,0
			c0.2-0.1,0.3-0.1,0.5,0.1c0.1,0.1,0.3,0,0.4-0.1l0.4-0.3l0.4,0.1l0.1-0.1l-0.1,0.1l-0.4-0.1l-0.3,0.3c0.5,0.2,1,0.1,1.6,0
			C124.8,23.3,125,23.3,125.1,23.3z M116.7,23C116.7,23.1,116.6,23.1,116.7,23c-0.1,0.1-0.1,0.1-0.1,0.1L116.7,23L116.7,23z
			 M119.5,22.4L119.5,22.4c-0.1,0.1-0.1,0.1-0.1,0.1l0-0.1l0,0.1C119.4,22.5,119.4,22.4,119.5,22.4
			C119.5,22.4,119.5,22.4,119.5,22.4z M120.3,22.1c0,0,0,0.1,0,0.1l-0.1,0C120.2,22.2,120.2,22.1,120.3,22.1L120.3,22.1z
			 M122.4,21.6L122.4,21.6L122.4,21.6L122.4,21.6L122.4,21.6z M125.7,22.8c0,0.1-0.1,0.1-0.1,0.1c-0.2,0-0.3,0-0.4,0l0,0l-0.4,0.2
			l-0.1-0.1l0.1,0l0.4-0.2l0,0C125.3,22.8,125.5,22.7,125.7,22.8C125.6,22.7,125.7,22.7,125.7,22.8z M126.6,22.7l-0.1,0.2
			c-0.1,0-0.2-0.1-0.2-0.1c0,0,0-0.1,0-0.2L126.6,22.7z M128.3,22.3c-0.1,0-0.2,0.1-0.2,0.3c0.1,0.3-0.1,0.3-0.2,0.2
			c-0.1-0.1-0.2-0.2-0.2-0.3c0.1-0.1,0.2-0.2,0.3-0.2C128.1,22.2,128.2,22.3,128.3,22.3L128.3,22.3z M129.9,22.1
			c-0.2,0-0.5,0.1-0.7,0.1c0,0-0.1-0.1-0.1-0.1l0-0.1c0.2-0.1,0.5-0.1,0.7-0.1C129.9,21.9,129.9,22,129.9,22.1z M131.3,21.8
			c-0.2,0.3-0.5,0.1-0.7,0.2c0,0-0.1-0.1-0.1-0.1c0,0,0-0.1,0-0.1C130.8,21.7,131,21.5,131.3,21.8C131.3,21.8,131.3,21.8,131.3,21.8
			z M132.6,20.1l-0.1,0.1l-0.2,0c0-0.1,0-0.1,0.1-0.1C132.4,20.1,132.5,20.1,132.6,20.1z M133.3,20.5L133.3,20.5
			c-0.2,0.2-0.4,0.2-0.6,0.1l0,0l0,0l0,0C132.9,20.5,133.1,20.5,133.3,20.5z M135.4,20.4l-0.1,0.1l-0.1,0c0-0.1,0.1-0.1,0.1-0.1
			C135.3,20.3,135.4,20.4,135.4,20.4z M135.4,19.9L135.4,19.9L135.4,19.9L135.4,19.9L135.4,19.9L135.4,19.9z M137.6,19.8L137.6,19.8
			l-0.1,0L137.6,19.8C137.6,19.8,137.6,19.8,137.6,19.8z M141.1,20c0,0.1-0.1,0.2-0.1,0.3c-0.6,0.5-1.3,0.7-2.1,0.6
			c-0.1,0-0.2-0.1-0.3-0.2c0-0.3-0.3-0.4-0.4-0.6l0,0c-0.1,0.1-0.1,0.1-0.1,0.1c-0.1,0-0.2,0-0.2,0.1c0.1-0.1,0.1-0.1,0.2-0.1
			c0.1,0,0.1,0,0.2,0l0,0l0.2-0.1l-0.1-0.2l0.2,0l-0.1,0.2l0,0l0,0c0.1,0.1,0.3,0.1,0.4,0.1c0.2-0.1,0.3-0.2,0.5-0.3
			c0.1,0.3,0.3,0.1,0.5,0.1c0.4-0.1,0.8,0,1.1,0C141.1,19.8,141.1,19.9,141.1,20z"/>
	</g>
	<path class="st0" d="M127.2,16.4c-0.1-0.9-0.4-2-1.1-2.6c-0.3-0.1-1.5-1.6-2.1-1.6c-0.6-0.3-0.9-0.4-1.5-0.5
		c-0.1,0-0.3,0.1-0.4,0.1l-0.2-0.1c-0.5,0-1,0-1.5,0c-0.1,0-0.2,0.1-0.3,0.1l-0.2,0.1c-0.9,0-2.5,1.1-3.2,1.2
		c-0.3,0-0.6,0.2-0.8,0.3c-0.2,0-0.4,0-0.6,0.2l-0.1,0c-0.3,0-0.6,0.2-1,0.2c-0.3,0-0.6,0.2-0.8,0.2c-0.1,0.1-0.2,0.2-0.3,0.2
		c-0.3,0.1-0.5,0.2-0.7,0.2c-0.1,0.1-0.2,0.1-0.3,0.1c-0.1,0-0.1,0-0.2,0c-0.1,0-0.1,0-0.2,0c-0.1,0-0.1,0-0.1,0
		c0-0.1-0.1-0.2-0.1-0.4c-0.1-1.2,0.3-1.5,0.4-2.3l0.1-0.2c0.3-0.2,0.5-0.6,0.6-1c0.1-0.1,0.1-0.1,0.2-0.2c0.1-0.1,0.2-0.3,0.2-0.4
		c0.3-0.4,0.9-0.6,1-1.1c0.1-0.1,0.1-0.3,0.3-0.4l0,0c0.4-0.3,0.8-0.7,1.1-1.1c0,0,0.1-0.1,0.1-0.1c0,0,0.1,0,0.1,0l0.2,0l0.2-0.2
		c0.2-0.1,0.3-0.2,0.4-0.3c1.4-1.1,2.9-2.2,4.6-2.7c0.1,0,0.1,0.1,0.1,0.1c-0.2,0.4-1.2,1.8-1.3,2.1c-0.3,0.3-0.3,0.7-0.6,1l0,0.1
		c0.1,0.2,0.4,0.9,0.6,0.8l0.1,0l0-0.1l-0.1-0.3l0,0l0.1,0.3l0,0.1c0.1,0.2,1,0.8,1.2,0.8c0.1,0,0.2-0.1,0.2-0.1l0.2,0
		c0.2-0.1,0.4,0,0.6,0c0.3,0,0-0.5,0.5-0.8c0.4-0.2,1.9-3,2.1-3.6l0-0.2c-0.2-1.8-3.8-2.9-5.3-2.8c-0.1,0-0.2,0-0.3,0.1
		c-0.6,0-1.1,0.5-1.7,0.5l0,0c-0.5,0.3-2.7,1.9-3.2,2.3c-0.3,0.3-0.5,0.5-0.8,0.8c-0.4,0.1-0.6,0.6-0.9,0.8
		c-0.4,0.5-1.1,1.3-1.6,1.8c-0.3,0.7-1.3,1.7-1.4,2.5c-0.1,0.1-0.2,0.2-0.2,0.4l0,0.2l0.1-0.1l0.1,0c0.1-0.5,0.4-1.1,0.8-1.3
		l-0.1-0.1c0.1-0.2,0.1-0.4,0.3-0.4l0.1,0c0.1,0.1,0.1,0.3,0.1,0.4c-0.1,0.1-0.3,0.1-0.4,0.2l0,0.2c0,0.1-0.1,0.1-0.1,0.2
		c0.1,0.1-0.3,0.6-0.4,0.7c0,0.3-0.1,0.3-0.3,0.3c0.1,0.2-0.1,0.3-0.1,0.5c-0.5,0.3-0.6,0.2-0.5,1c0.1,0.9,0.4,2,1.1,2.6
		c0.3,0.1,1.5,1.6,2.1,1.6c0.6,0.3,0.9,0.4,1.5,0.5c0.1,0,0.3-0.1,0.4-0.1l0.2,0.1c0.5,0,1,0,1.5,0c0.1,0,0.2-0.1,0.3-0.1L116,17
		c0.9,0,2.5-1.1,3.2-1.2c0.3,0,0.6-0.2,0.8-0.3c0.2,0,0.4,0,0.6-0.2l0.1,0c0.3,0,0.6-0.2,1-0.2c0.3,0,0.7-0.2,1.1-0.3l0,0
		c0.1-0.1,0.2-0.1,0.3-0.1c0.1-0.1,0.3-0.2,0.4-0.3c0,0.8-0.3,1.2-0.3,1.9l-0.1,0.2c-0.3,0.2-0.5,0.6-0.5,1
		c-0.1,0.1-0.1,0.1-0.2,0.2c-0.1,0.1-0.1,0.3-0.2,0.4c-0.3,0.4-0.8,0.7-1,1.2c-0.1,0.1-0.1,0.3-0.3,0.4l0,0c-0.4,0.3-0.8,0.7-1,1.1
		c0,0-0.1,0.1-0.1,0.1c0,0-0.1,0-0.1,0l-0.2,0l-0.2,0.2c-0.2,0.1-0.3,0.2-0.4,0.3c-1.1,1-2.2,1.9-3.5,2.5c0.4-0.6,0.9-1.3,0.9-1.6
		c0.3-0.3,0.3-0.7,0.6-1l0-0.1c-0.1-0.2-0.4-0.9-0.6-0.8l-0.1,0l0,0.1l0.1,0.3l0,0l-0.1-0.3l0-0.1c-0.1-0.2-1-0.8-1.2-0.8
		c-0.1,0-0.2,0.1-0.2,0.1l-0.2,0c-0.2,0.1-0.4,0-0.6,0c-0.3,0,0,0.5-0.5,0.8c-0.4,0.2-1.9,3-2.1,3.6l0,0.2c0.2,1.8,3.8,2.9,5.3,2.8
		c0.1,0,0.2,0,0.3-0.1c0.6,0,1.1-0.5,1.7-0.5l0,0c0.5-0.3,2.7-1.9,3.2-2.3c0.3-0.3,0.5-0.5,0.8-0.8c0.4-0.1,0.6-0.6,0.9-0.8
		c0.4-0.5,1.1-1.3,1.6-1.8c0.3-0.7,1.3-1.7,1.4-2.5c0.1-0.1,0.2-0.2,0.2-0.4l0-0.2l-0.1,0.1l-0.1,0c-0.1,0.5-0.4,1.1-0.8,1.3
		l0.1,0.1c-0.1,0.2-0.1,0.4-0.3,0.4l-0.1,0c-0.1-0.1-0.1-0.3-0.1-0.4c0.1-0.1,0.3-0.1,0.4-0.2l0-0.2c0-0.1,0.1-0.1,0.1-0.2
		c-0.1-0.1,0.3-0.6,0.4-0.7c0-0.3,0.1-0.3,0.3-0.3c-0.1-0.2,0.1-0.3,0.1-0.5C127.2,17,127.3,17.2,127.2,16.4z M127,16.9L127,16.9
		L127,16.9l-0.1,0.2l-0.1,0L127,16.9z M109,12.1L109,12.1L109,12.1l0.1-0.2l0.1,0L109,12.1z M115.1,4.9L115.1,4.9l0,0.2L115.1,4.9
		L115.1,4.9z M114.8,5l0.1,0.1l-0.1,0.1l-0.2-0.2L114.8,5z M111.7,7.7l0.4-0.4c0.6-0.6,1.4-1.3,2.1-1.8l0.3-0.1l0.1,0.1l0,0.1
		c-0.1,0.1-0.2,0.2-0.3,0.2c-0.2,0-0.3,0-0.2,0.2l0,0.1l0,0.2c-0.2,0.2-0.4,0.3-0.6,0.5L113,6.8c-0.1,0-0.2,0-0.2,0.1l0,0.1
		l-0.4,0.5c-0.1,0-0.2,0.1-0.2,0.2c-0.2,0.2-0.3,0.4-0.6,0.5c-0.1,0-0.2,0-0.3,0l0,0C111.4,7.9,111.5,7.8,111.7,7.7z M111.1,8.8
		l-0.1,0.1c-0.1,0-0.2,0-0.2,0c0.1,0.2,0.1,0.2-0.1,0.2c0-0.1,0-0.1,0.1-0.2c0.1-0.2,0.2-0.2,0.4-0.4l0.2-0.1l0.3,0.1l0,0.1l0,0
		C111.5,8.6,111.1,8.6,111.1,8.8z M120.8,24.1L120.8,24.1l0-0.2L120.8,24.1L120.8,24.1z M121.2,23.9l-0.1-0.1l0.1-0.1l0.2,0.2
		L121.2,23.9z M124.3,21.3l-0.4,0.4c-0.6,0.6-1.4,1.3-2.1,1.8l-0.3,0.1l-0.1-0.1l0-0.1c0.1-0.1,0.2-0.2,0.3-0.2c0.2,0,0.3,0,0.2-0.2
		l0-0.1l0-0.2c0.2-0.2,0.4-0.3,0.6-0.5l0.3-0.2c0.1,0,0.2,0,0.2-0.1l0-0.1l0.4-0.5c0.1,0,0.2-0.1,0.2-0.2c0.2-0.2,0.3-0.4,0.6-0.5
		c0.1,0,0.2,0,0.3,0l0,0C124.5,21,124.4,21.1,124.3,21.3z M125.4,19.8c0,0.1,0,0.1-0.1,0.2c-0.1,0.2-0.2,0.2-0.4,0.4l-0.2,0.1
		l-0.3-0.1l0-0.1l0,0c0.2,0,0.5,0,0.6-0.2L125,20c0.1,0,0.2,0,0.2,0C125.2,19.9,125.2,19.9,125.4,19.8z"/>
</g>
</svg>
