<?xml version="1.0" encoding="utf-8"?>
<!-- Generator: Adobe Illustrator 16.0.0, SVG Export Plug-In . SVG Version: 6.00 Build 0)  -->
<!DOCTYPE svg PUBLIC "-//W3C//DTD SVG 1.1//EN" "http://www.w3.org/Graphics/SVG/1.1/DTD/svg11.dtd">
<svg version="1.1" id="Layer_1" xmlns="http://www.w3.org/2000/svg" xmlns:xlink="http://www.w3.org/1999/xlink" x="0px" y="0px"
	 width="200px" height="66.715px" viewBox="0 0 200 66.715" enable-background="new 0 0 200 66.715" xml:space="preserve">
<g>
	<path fill-rule="evenodd" clip-rule="evenodd" fill="#FFFFFF" d="M78.843,37.282c1.419-0.621,2.787-1.471,4.27-1.8
		c1.693-0.376,2.582-1.272,3.493-2.691c1.778-2.771,4.376-4.494,7.844-4.445c1.719,0.024,2.808,0.766,3.224,2.126
		c0.436,1.428-0.013,2.688-1.25,3.369c-1.672,0.919-3.483,1.594-5.263,2.304c-0.214,0.084-0.768-0.211-0.869-0.453
		c-0.089-0.217,0.147-0.711,0.385-0.893c0.66-0.504,1.434-0.859,2.09-1.365c0.648-0.5,1.233-1.091,1.79-1.694
		c0.132-0.144,0.141-0.576,0.02-0.731c-0.123-0.16-0.564-0.281-0.712-0.183c-1.527,1.006-3.238,1.856-4.468,3.155
		c-1.26,1.332-0.521,3.174,1.277,3.666c0.862,0.234,1.874,0.293,2.735,0.086c2.575-0.617,4.847-1.787,6.319-4.146
		c0.635-1.019,1.314-2.011,2.011-2.989c1.657-2.327,3.719-2.948,5.938-1.257c1.891,1.44,3.277,1.2,4.884-0.168
		c0.484-0.413,1.105-0.673,1.686-0.963c2.365-1.185,2.891-1.155,4.869,0.755c0.798,0.771,1.481,1.001,2.426,0.407
		c0.391-0.246,0.807-0.459,1.229-0.644c0.798-0.348,1.63-0.604,2.169,0.378c0.488,0.893,0.052,2.115-0.989,2.529
		c-0.848,0.337-1.786,0.615-2.686,0.619c-1.86,0.008-2.873,1.043-3.628,2.537c-0.708,1.402-1.407,2.811-2.137,4.201
		c-0.494,0.941-1.314,1.395-2.306,0.961c-1.064-0.465-1.062-1.496-0.696-2.391c0.416-1.018,1.025-1.961,1.583-2.917
		c0.557-0.957,1.165-1.882,1.717-2.841c0.126-0.219,0.23-0.692,0.147-0.745c-0.281-0.182-0.688-0.378-0.978-0.302
		c-2.38,0.624-4.545,1.538-5.676,4.005c-0.574,1.257-1.322,2.446-2.087,3.604c-2.002,3.033-4.521,3.146-6.54,0.152
		c-0.789-1.17-1.31-1.316-2.367-0.486c-0.866,0.68-1.852,1.207-2.779,1.809c-3.33,2.168-5.755,1.76-8.239-0.729
		c-1.746-1.75-3.421-1.623-5.238-0.879c-2.133,0.873-4.161,2.014-6.192,3.115c-0.444,0.24-0.733,0.793-1.052,1.232
		c-3.909,5.367-7.718,10.811-11.764,16.072c-1.383,1.799-3.335,3.172-5.077,4.68c-0.477,0.412-1.107,0.762-1.716,0.877
		c-0.765,0.143-1.952,0.328-2.287-0.07c-0.488-0.576-0.67-1.74-0.458-2.508c0.362-1.305,0.968-2.621,1.77-3.713
		c1.529-2.082,3.175-4.098,4.938-5.986c3.095-3.309,6.182-6.646,10.004-9.176c0.458-0.303,0.854-0.711,1.24-1.105
		c0.184-0.189,0.279-0.465,0.414-0.701c-0.333-0.068-0.7-0.26-0.996-0.184c-2.849,0.74-5.655,1.688-8.536,2.252
		c-2.7,0.527-5.468,0.814-8.218,0.945c-5.937,0.281-8.064-3.367-8.562-8.354c-0.059-0.591-0.032-1.439-0.391-1.709
		c-2.55-1.921-2.875-4.357-1.923-7.173c0.051-0.061,0.103-0.122,0.154-0.182c-0.038,0.074-0.077,0.147-0.115,0.22
		c-1.367,1.245-2.691,2.544-4.133,3.697c-0.379,0.303-1.122,0.151-1.697,0.208c0.037-0.588-0.104-1.276,0.157-1.738
		c0.35-0.62,1.018-1.059,1.535-1.588c0.906-0.928,1.813-1.853,2.683-2.814c0.119-0.132,0.017-0.464,0.018-0.704
		c-0.163,0.049-0.359,0.055-0.483,0.153c-1.308,1.03-2.536,2.178-3.918,3.094c-2.926,1.94-5.945,3.739-8.896,5.642
		c-1.461,0.941-2.912,1.914-4.263,3.002c-0.97,0.781-1.864,0.646-2.812,0.162c-0.981-0.5-1.537-1.333-1.567-2.445
		c-0.032-1.147,0.783-1.486,1.705-1.867c7.729-3.199,14.863-7.44,21.398-12.642c2.381-1.895,4.483-4.14,6.719-6.219
		c0.473-0.44,0.91-1.03,1.476-1.225c0.498-0.171,1.243-0.039,1.718,0.236c0.653,0.378,1.115,1.055,0.576,1.872
		c-0.454,0.689-0.959,1.35-1.486,1.985c-0.826,0.997-1.7,1.954-2.528,2.948c-0.148,0.178-0.174,0.457-0.257,0.689
		c0.243-0.039,0.569,0.01,0.716-0.13c0.937-0.892,1.858-1.802,2.737-2.75c0.942-1.016,1.795-2.117,2.762-3.107
		c0.435-0.446,1.017-0.905,1.594-1.009c0.536-0.098,1.294,0.119,1.69,0.485c0.29,0.268,0.386,1.163,0.157,1.495
		c-0.726,1.052-1.58,2.036-2.5,2.926c-2.46,2.381-5.017,4.661-7.459,7.059c-1.052,1.032-1.965,2.218-2.838,3.411
		c-0.355,0.485-0.584,1.171-0.59,1.77c-0.005,0.47,0.422,0.945,0.657,1.417c0.296-0.302,0.634-0.573,0.881-0.91
		c1.91-2.606,3.641-5.361,5.73-7.812c5.162-6.052,11.816-10.1,19.059-13.1c3.195-1.323,6.685-2.133,10.119-2.617
		c2.204-0.31,4.598,0.195,6.821,0.708c2.632,0.606,3.848,2.795,4.437,5.229c0.983,4.061-2.397,9.142-6.5,9.916
		c-0.537,0.101-1.128,0.138-1.652,0.019c-1.009-0.229-2.012-0.614-2.201-1.818c-0.172-1.104,0.286-1.984,1.239-2.584
		c0.625-0.393,1.329-0.69,1.877-1.168c1.666-1.451,1.671-3.301,0.02-4.79c-1.454-1.309-3.218-1.645-5.122-1.461
		c-5.125,0.496-9.499,2.972-13.865,5.381c-5.72,3.157-10.882,7.04-14.875,12.311c-0.223,0.295-0.49,0.566-0.664,0.887
		c-0.11,0.204-0.085,0.48-0.12,0.724c0.242-0.045,0.542-0.016,0.719-0.149c2.284-1.724,4.574-3.441,6.808-5.228
		c0.79-0.632,1.416-1.465,2.152-2.168c0.396-0.378,0.825-0.811,1.319-0.97c0.459-0.149,1.189-0.151,1.493,0.123
		c0.26,0.234,0.241,1.019,0.062,1.438c-0.243,0.57-0.7,1.086-1.166,1.517c-0.812,0.75-1.769,1.351-2.525,2.146
		c-0.372,0.392-0.434,1.079-0.636,1.632c0.522,0.073,1.131,0.357,1.554,0.185c2.507-1.024,4.848-2.326,6.477-4.602
		c0.645-0.902,1.201-1.88,1.927-2.71c0.969-1.109,1.985-0.928,2.579,0.398c0.986,2.202,0.932,4.559,0.504,6.818
		c-0.17,0.896-1.193,1.936-2.083,2.328c-1.878,0.828-2.933-0.113-3.353-2.617c0.641-0.007,1.286,0.022,1.923-0.031
		c1.344-0.11,1.87-0.687,1.946-2.097c0.039-0.715-0.349-1.167-0.955-0.671c-1.037,0.852-1.928,1.882-2.879,2.838
		c-1.11,0.652-2.171,1.417-3.342,1.931c-1.81,0.792-3.687,1.026-5.681,0.478c-3.438-0.944-5.768,1.256-8.137,3.167
		c-0.242,0.196-0.186,0.829-0.176,1.255c0.083,3.5,3.1,5.695,6.809,5.914c6.142,0.361,11.624-1.654,16.722-4.859
		c1.637-1.029,3.127-2.297,4.647-3.501c0.411-0.326,0.688-0.821,1.026-1.239c-0.492-0.107-0.985-0.209-1.476-0.325
		c-0.793-0.186-1.678-0.226-2.341-0.629c-0.405-0.247-0.469-1.056-0.686-1.613c0.479-0.167,0.954-0.36,1.444-0.486
		c0.147-0.038,0.337,0.137,0.517,0.169c1.848,0.335,2.351-0.048,2.34-1.909c-0.003-0.498-0.281-0.994-0.432-1.491
		c-0.341,0.259-0.689,0.509-1.021,0.78c-0.427,0.347-0.791,0.875-1.273,1.018c-0.442,0.131-1.211,0.017-1.457-0.291
		c-0.246-0.307-0.227-1.153,0.032-1.481c1.133-1.431,2.357-2.797,3.638-4.099c0.318-0.324,1.063-0.553,1.444-0.402
		c0.371,0.148,0.696,0.819,0.748,1.292c0.252,2.287,0.416,4.583,0.587,6.877c0.047,0.642,0.253,0.81,0.812,0.422
		c0.683-0.473,1.333-1.036,2.086-1.343c0.411-0.167,1.16-0.052,1.474,0.239c0.325,0.302,0.565,1.087,0.396,1.456
		c-0.413,0.901-0.998,1.763-1.668,2.499c-1.738,1.912-3.559,3.75-5.347,5.615c-0.042,0.068-0.083,0.135-0.125,0.203
		C78.784,37.44,78.813,37.362,78.843,37.282z M107.648,32.146c-0.337-0.122-0.757-0.417-0.922-0.311
		c-1.452,0.927-2.896,1.878-4.24,2.948c-0.215,0.17-0.098,1.132,0.184,1.433c0.245,0.264,1.128,0.336,1.397,0.105
		c1.167-1.002,2.224-2.135,3.289-3.25C107.521,32.898,107.521,32.569,107.648,32.146z"/>
	<path fill-rule="evenodd" clip-rule="evenodd" fill="#FFFFFF" d="M175.314,28.994c-2.299-0.186-4.599-0.362-6.897-0.558
		c-1.825-0.157-3.199,0.47-4.207,2.07c-1.175,1.867-2.585,3.592-3.714,5.483c-0.682,1.143-0.24,1.873,1.001,2.289
		c1.811,0.602,3.385-0.156,3.973-1.963c0.257-0.787,0.344-1.634,0.63-2.408c1.107-2.993,5.039-4.887,7.965-3.879
		c1.455,0.502,2.163,1.76,1.357,3.007c-1.104,1.707-2.533,3.2-4.646,3.726c-0.226,0.055-0.599-0.039-0.73-0.201
		c-0.099-0.123-0.002-0.553,0.149-0.703c0.718-0.718,1.493-1.379,2.229-2.083c0.115-0.11,0.232-0.412,0.177-0.475
		c-0.16-0.182-0.398-0.389-0.621-0.406c-1.449-0.111-2.605,0.75-3.086,2.246c-0.438,1.356-0.006,3.081,1.006,3.753
		c0.542,0.361,1.112,0.592,1.747,0.008c0.677-0.621,1.417-1.197,2.209-1.656c0.4-0.232,0.977-0.158,1.474-0.223
		c0.049,0.523,0.306,1.146,0.109,1.547c-0.687,1.402-1.906,2.396-3.426,2.547c-1.899,0.188-3.894,0.441-5.669-0.697
		c-1.181-0.758-2.407-0.818-3.676-0.238c-0.168,0.078-0.35,0.178-0.524,0.178c-3.188-0.018-6.368-0.338-9.568,0.178
		c-0.836,0.135-1.989-0.568-2.724-1.203c-1.217-1.047-2.307-1.07-3.469-0.127c-1.449,1.178-3.134,1.084-4.775,0.859
		c-3.51-0.48-4.983-3.744-2.919-6.601c1.584-2.191,3.528-4.035,6.289-4.787c1.086-0.296,2.02-0.279,2.795,0.582
		c0.773,0.858,0.705,1.852,0.348,2.869c-0.621,1.766-2.316,2.963-4.275,2.965c-0.226,0-0.452-0.217-0.678-0.333
		c0.144-0.219,0.237-0.515,0.438-0.64c0.545-0.338,1.185-0.54,1.684-0.929c0.203-0.159,0.282-0.728,0.159-0.984
		c-0.118-0.244-0.582-0.465-0.883-0.451c-1.599,0.072-3.656,3.037-3.175,4.583c0.364,1.172,1.367,1.168,2.294,0.955
		c2.013-0.463,3.946-1.264,5.353-2.773c1.439-1.545,2.701-3.286,3.839-5.07c0.96-1.504,0.718-1.827-0.986-2.119
		c-0.09-0.016-0.204,0.026-0.274-0.015c-0.496-0.297-1.244-0.508-1.413-0.941c-0.255-0.651,0.917-1.582,1.762-1.147
		c2.784,1.431,3.711-0.411,4.889-2.302c0.602-0.966,1.57-1.809,2.557-2.402c1.212-0.729,1.981-0.169,1.768,1.279
		c-0.156,1.058-0.646,2.086-1.105,3.073c-0.287,0.618-0.6,1.025,0.45,0.902c0.643-0.075,1.297-0.18,1.937-0.138
		c0.995,0.067,1.513-0.437,1.928-1.249c0.507-0.988,1.038-1.97,1.653-2.892c0.623-0.933,1.78-1.215,2.662-0.711
		c1.04,0.595,0.893,1.51,0.538,2.428c-0.166,0.429-0.435,0.817-0.608,1.244c-0.189,0.463-0.322,0.949-0.479,1.425
		c0.538,0.038,1.103,0.197,1.612,0.092c2.58-0.535,5.137-0.586,7.68,0.17c0.438,0.13,0.928,0.231,1.269,0.503
		c0.32,0.255,0.728,0.793,0.645,1.071c-0.135,0.452-0.595,1.062-0.997,1.128c-0.99,0.162-2.025,0.053-3.041,0.053
		C175.317,28.932,175.315,28.963,175.314,28.994z M159.046,27.762c-0.436,0.194-1.624,0.354-2.163,1.032
		c-1.822,2.292-3.442,4.749-5.062,7.191c-0.239,0.361-0.265,1.186-0.018,1.467c0.281,0.314,0.985,0.355,1.497,0.332
		c0.433-0.018,0.908-0.219,1.271-0.473c3.086-2.164,5.053-5.263,6.904-8.438c0.1-0.171-0.231-0.801-0.5-0.929
		C160.591,27.758,160.078,27.837,159.046,27.762z"/>
	<path fill-rule="evenodd" clip-rule="evenodd" fill="#FFFFFF" d="M134.554,20.622c-2.238-0.133-4.885-1.449-6.669-3.722
		c-2.156-2.744-4.586-3.799-7.912-2.986c-0.265,0.064-0.57,0.102-0.826,0.034c-0.399-0.105-0.772-0.312-1.156-0.475
		c0.178-0.298,0.321-0.624,0.54-0.889c0.854-1.035,0.803-1.647-0.371-1.76c-2.076-0.199-4.064-1.006-6.28-0.472
		c-1.332,0.32-2.884-0.129-4.307-0.394c-0.666-0.125-0.728-0.77-0.296-1.309c0.989-1.233,2.411-1.562,3.867-1.9
		c6.037-1.402,11.447,0.523,16.67,3.193c1.362,0.696,2.31,0.646,3.543-0.163c2.154-1.415,4.348-2.817,6.666-3.929
		c5.34-2.56,10.876-2.612,16.441-0.735c0.702,0.237,1.92,0.455,1.569,1.499c-0.19,0.564-1.243,1.061-1.973,1.178
		c-1.906,0.305-3.849,0.522-5.776,0.528c-4.617,0.014-8.249,2.375-11.839,4.817c-0.6,0.408-1.331,1.58-1.137,1.988
		c0.32,0.673,1.32,1.058,2.084,1.468c0.293,0.157,0.763-0.04,1.084,0.093c0.251,0.104,0.575,0.48,0.557,0.71
		C138.866,19.48,137.499,20.655,134.554,20.622z"/>
	<path fill-rule="evenodd" clip-rule="evenodd" fill="#FFFFFF" d="M131.169,39.557c-0.899,0.17-1.793,0.393-2.698,0.496
		c-2.072,0.242-3.452-0.865-3.648-2.857c-0.38-3.891,4.128-8.573,8.007-8.28c0.531,0.041,1.224,0.123,1.53,0.464
		c0.445,0.494,0.836,1.256,0.803,1.88c-0.021,0.384-0.827,0.901-1.364,1.046c-1.15,0.312-2.38,0.335-3.531,0.644
		c-0.778,0.208-1.569,0.592-2.193,1.097c-0.927,0.747-0.941,1.75-0.243,2.705c0.639,0.875,1.435,1.148,2.387,0.541
		c0.771-0.49,1.528-1.016,2.246-1.582c0.504-0.398,0.894-0.945,1.406-1.328c0.722-0.541,1.646-0.764,2.235,0.004
		c0.37,0.482,0.491,1.385,0.325,1.99c-0.211,0.768-0.732,1.51-1.283,2.115c-2.831,3.104-4.916,6.6-6.395,10.561
		c-0.574,1.537-2.018,2.816-3.258,4.014c-0.706,0.682-1.819,0.967-2.831,0.35c-1.016-0.623-1.28-1.73-0.946-2.68
		c0.512-1.443,1.12-2.99,2.121-4.1c1.974-2.182,4.248-4.094,6.39-6.123c0.323-0.309,0.604-0.66,0.903-0.992
		c0.076-0.029,0.161-0.043,0.224-0.09c0.035-0.025,0.028-0.105,0.041-0.162C131.32,39.368,131.244,39.461,131.169,39.557z"/>
	<path fill-rule="evenodd" clip-rule="evenodd" fill="#FFFFFF" d="M43.273,26.768c0.039-0.073,0.077-0.146,0.115-0.22
		c-0.051,0.061-0.103,0.122-0.154,0.182L43.273,26.768z"/>
	<path fill-rule="evenodd" clip-rule="evenodd" fill="#FFFFFF" d="M78.843,37.282c-0.029,0.08-0.059,0.158-0.088,0.238
		c0.042-0.068,0.083-0.135,0.125-0.203L78.843,37.282z"/>
	<path fill-rule="evenodd" clip-rule="evenodd" fill="#FFFFFF" d="M131.169,39.557c0.075-0.096,0.151-0.189,0.227-0.287
		c-0.013,0.057-0.006,0.137-0.041,0.162c-0.062,0.047-0.147,0.061-0.224,0.09L131.169,39.557z"/>
</g>
</svg>
