<?xml version="1.0" encoding="utf-8"?>
<!-- Generator: Adobe Illustrator 16.0.0, SVG Export Plug-In . SVG Version: 6.00 Build 0)  -->
<!DOCTYPE svg PUBLIC "-//W3C//DTD SVG 1.1//EN" "http://www.w3.org/Graphics/SVG/1.1/DTD/svg11.dtd">
<svg version="1.1" id="Layer_1" xmlns="http://www.w3.org/2000/svg" xmlns:xlink="http://www.w3.org/1999/xlink" x="0px" y="0px"
	 width="200px" height="66.715px" viewBox="0 0 200 66.715" enable-background="new 0 0 200 66.715" xml:space="preserve">
<g>
	<g>
		<path fill="#EF3A3A" d="M20.739,27.047c0.102-0.034,0.068-0.068,0-0.068c-0.718,0.136-1.298,0.478-1.435,0.615
			c-0.103,0.103-0.068,0.136-0.034,0.273c0.034,0.137,0.103,0.273,0.136,0.205C19.509,27.935,20.124,27.32,20.739,27.047z
			 M17.392,51.502c0.171,0.033,0.103-0.308,0.205-0.99c0.239-1.674,0.513-3.178,0.888-4.852c0.957-4.199,2.425-13.697,2.971-16.564
			c0.069-0.41,0.171-0.786,0.069-0.786c-0.273,0-0.922,0.102-1.742,0.239c-0.274,0.034-0.444,0.204-0.684,0.581
			c-0.273,0.444-0.443,0.922-0.615,1.775c-1.025,5.09-1.741,9.6-2.493,14.312c0,0.068,0.206,0.104,0.24-0.034
			c0.751-3.106,0.956-6.216,1.502-8.915c0-0.068,0.205-0.068,0.205,0c-0.137,2.15-1.297,9.154-1.536,9.359
			c-0.137,0.136-0.479-0.205-0.546,0.033c-0.273,0.922-0.513,2.187-0.751,3.144c-0.205,0.513,0.034,0.989,0.239,1.433
			c0.239,0.514,1.879-4.027,2.528-7.648c0.067-0.444,0.17-0.273,0.136,0c-0.581,3.244-1.708,6.762-2.22,7.582
			C15.479,50.616,16.402,51.368,17.392,51.502z M32.282,53.142c-1.81-0.445-4.268-0.479-6.318-0.479c-0.102,0-0.102-0.172,0-0.205
			c1.229-0.238,6.557,0.138,6.625,0c0.206-0.479,0.104-1.537-0.034-1.604c-0.171-0.067-1.059,0.067-4.439,0.272
			c-2.562,0.172-8.777,0.89-8.879,1.06c-0.103,0.171,0.17,0.479,0,0.479c-0.752-0.035-0.581,1.092-0.513,1.811
			c0.034,0.238,0.957,0.205,1.059,0.376c0.068,0.136,0.785,0.034,1.161,0c2.902-0.24,5.943-0.923,8.162-0.923
			c0.068,0,0.068-0.172,0-0.172c-2.219-0.033-3.449-0.033-5.157,0.205c-0.103,0-0.17-0.137,0.069-0.17
			c1.195-0.24,3.825-0.308,5.601-0.172c0.067,0-0.137,0.273,0,0.273c0.751,0,1.468,0,2.151,0
			C32.009,53.893,32.418,53.174,32.282,53.142z M22.583,50.238c1.538-0.135,5.533-0.442,7.48-0.442c0.922,0,2.151-0.068,2.185-0.17
			c0.035-0.138-0.033-0.308-0.136-0.308c-0.717-0.036-1.81,0.065-2.732-0.069c-0.137-0.033-0.103-0.172,0.034-0.136
			c0.922,0.136,2.151-0.036,2.629-0.204c0.103-0.037-0.375-1.025-0.99-1.197c-0.649-0.17-3.689-0.104-5.055,0
			c-1.502,0.103-2.902,0.24-4.029,0.375c0.479-1.945,0.648-3.721,1.162-5.668c1.502-0.237,2.526-0.375,3.927-0.547
			c0.103,0,0.103-0.17,0-0.17c0.068,0-2.665,0-2.766,0c-0.103,0-0.103-0.172,0-0.172c1.024,0,3.244-0.273,3.279-0.203
			c0.103,0.17-0.103,0.442,0.033,0.442c0.103,0,0.752-0.067,1.333-0.17c0.205-0.036,0.444-0.343,0.341-0.444
			c-0.171-0.172-0.991-0.648-3.143-0.582c-0.102,0-0.102-0.135,0-0.135c2.595-0.035,2.869,0.34,3.245,0.408
			c0.17,0.033,0.341-0.684,0.272-1.469c-0.068-0.648-0.239-0.547-1.366-0.41c-0.479,0.068-6.181,0.648-7.035,0.648
			c-0.068,0.821-1.229,5.877-1.639,7.991c-0.206,0.957-0.479,2.46-0.615,2.769c-0.035,0.066-0.068,0.103-0.171,0.17
			c-0.103,0.068-0.034,0.172,0.034,0.138C20.124,50.375,21.148,50.375,22.583,50.238z M36.721,26.09
			c-0.307,0-0.717,0.206-1.708,0.376c-4.507,0.786-5.874,0.751-6.693,0.888c-0.171,0.034-0.068,0.204,0.103,0.204
			c0.75-0.068,5.464-0.614,7.787-0.99c0.068,0,0.068,0.239,0,0.239c-3.04,0.376-8.948,0.99-12.124,1.366
			c-0.307,0.035-0.546,0.035-0.854,0.068c-0.171,0.035-0.171,0.547-0.239,0.991c-0.342,2.63-1.196,7.447-1.436,8.677
			c1.128,0,1.981-0.033,3.552-0.172c0.922-0.066,3.21-0.203,4.167-0.443c0.136-0.035,0-0.58-0.104-0.58
			c-0.444,0-2.595-0.139-3.107-0.344c-0.239-0.102-0.171-0.135-0.034-0.102c0.854,0.205,1.605,0.205,3.073,0.205
			c0.103,0-0.307-0.82-0.615-0.922c-0.341-0.104-1.262,0-2.219,0.066c-0.615,0.034-1.673,0.139-1.776,0.104
			c0.205-1.161,0.58-2.903,0.854-4.201c0.034-0.308,0.102-0.615,0.068-0.854c2.699-0.444,6.114-0.786,7.343-0.921
			c0.205-0.034,0.102-0.206,0.034-0.206c-1.264,0.069-5.464,0.444-6.489,0.649c-0.137,0.034-0.206-0.137-0.069-0.171
			c2.493-0.479,6.83-0.956,6.933-0.82c0.137,0.171-0.033,0.513,0.069,0.513c0.956-0.137,1.571-0.137,2.526-0.308
			c0.513-0.102,0.922-0.785,0.752-0.82c-2.493-0.58-5.26-0.273-7.889,0.069c-0.103,0-0.137-0.069-0.034-0.103
			c1.092-0.205,2.561-0.342,3.653-0.41c1.435-0.103,2.767-0.137,4.235,0.17c0.239,0.034,0.341-0.205,0.41-0.513
			C37.062,27.082,36.961,26.09,36.721,26.09z M20.124,26.944c1.161-0.444,2.971-0.409,4.644-0.648
			c1.196-0.171,2.425-0.239,3.859-0.41c1.742-0.205,3.654-0.375,5.327-0.546c-0.033,0,2.597-0.103,2.63-0.205
			c0.034-0.102-0.102-0.512-0.17-0.512c-0.991,0.206-2.493,0.273-3.484,0.239c-0.17,0-0.17-0.103,0-0.103
			c0.991,0.034,2.255-0.103,3.21-0.308c0.513-0.136-0.272-0.922-1.024-0.99c-1.639-0.136-4.235,0.308-5.464,0.478
			c-2.356,0.342-3.79,0.376-5.123,0.581c-2.151,0.308-3.039,0.342-4.303,0.82c-0.785,0.307-1.161,0.99-1.059,1.981
			C19.202,27.525,19.441,27.184,20.124,26.944z"/>
	</g>
	<path fill="#EF3A3A" d="M48.212,36.51c-0.103-0.137-0.272-0.342-0.341-0.514c0.104-0.136,0.171-0.271,0.273-0.41
		c0.102,0.14,0.273,0.344,0.376,0.479C48.418,36.238,48.316,36.374,48.212,36.51z M45.754,32.65
		c-0.068-0.102,0.035-0.171,0.137-0.034c0.648,0.888,1.366,1.742,2.083,2.699c-0.104,0.137-0.206,0.309-0.309,0.443
		C47.052,34.667,46.437,33.777,45.754,32.65z M33.05,62.706c2.698-3.893,6.147-8.912,7.991-11.576
		c0.034-0.067-0.069-0.137-0.103-0.067c-1.81,2.597-5.737,8.229-6.727,9.63c-0.171,0.273-0.274,0.139-0.171-0.066
		c0,0.033,4.747-7.242,6.693-10.109c0.035-0.033,0.137,0.204,0.171,0.172c3.244-5.021,6.386-9.666,9.562-14.482
		c-3.074-5.056-6.728-10.35-9.392-14.856c-1.469-2.459-1.913-3.142-3.722-6.591c-0.274-0.547-2.084,0.922-1.64,1.708
		c0.478,0.854,2.22,3.996,3.825,6.591c2.869,4.644,5.26,8.572,7.991,12.943c-2.8,4.34-5.225,7.789-7.888,11.888
		c-0.035,0.067,0,0.137,0.068,0.067c2.903-4.199,5.191-7.513,7.957-11.715c0.103,0.17,0.171,0.307,0.274,0.442
		c-2.937,4.237-6.523,9.052-8.743,12.502c-0.069,0.138-0.479,0-0.615,0.206c-1.605,2.423-3.38,4.678-5.123,7.205
		c-0.683,0.99-1.605,3.619-1.264,3.449c0.308-0.17,10.86-15.096,15.983-22.68c0.068-0.066,0.205-0.033,0.137,0.035
		c-4.235,6.319-14.822,21.721-16.223,23.122C31.752,60.862,32.571,62.946,33.05,62.706z M62.967,50.241
		c-2.289-4.474-5.09-9.188-7.377-13.73c-2.732,4.543,9.528-14.754,11.816-18.921c0.136-0.238-0.137-0.273-0.035-0.478
		c0.239-0.479,2.049-3.142,2.459-4.304c0.341-0.956-1.058-1.674-1.161-1.604c-0.547,0.273-10.143,15.436-10.963,16.802
		c-1.708,2.698-3.482,5.396-5.259,8.095c-0.17-0.307,7.957,13.457,8.777,14.926c0.683,1.161,3.654,5.941,3.927,6.389
		c0.171,0.272,0.342-0.445,0.239-0.649c-0.683-1.265-1.913-3.347-3.005-5.362c-0.069-0.104,0.033-0.203,0.102-0.104
		c1.127,1.982,2.254,3.861,3.04,5.158c0.102,0.17,0.307-0.685,0.171-1.061C65.323,54.338,63.82,51.915,62.967,50.241z
		 M64.298,59.361c-0.068-0.14-1.571-2.802-2.254-3.896c-1.298-2.186-2.562-4.338-3.826-6.453c0-0.035,0.104-0.035,0.104-0.069
		c-3.552-5.636-0.308-0.272-6.934-11.271c-0.307,0.479-0.648,0.955-0.956,1.435c-3.45,5.021-7.035,10.588-10.519,15.574
		c-1.229,1.845-4.814,7.444-5.191,8.196c-0.136,0.271,0.82,0.137,0.957-0.068c0.205-0.307,3.449-5.122,5.532-8.096
		c0.068-0.102,0.171,0,0.102,0.104c-2.049,3.006-4.918,7.549-4.918,7.719c0,0.375,2.016-0.889,2.46-1.4
		c0.341-0.408,12.532-18.543,12.532-18.543c1.537,2.527,2.289,3.894,3.894,6.625c0.035,0.068,0.171,0.136,0.035-0.102
		c-1.366-2.494-2.459-4.304-3.791-6.695c0.069-0.103,0.171-0.205,0.239-0.308c1.468,2.731,3.005,5.497,4.85,8.163
		c-0.103,0.066-0.376,0.238-0.513,0.34c1.229,2.152,2.459,4.34,3.655,6.559c0.546,0.923,2.151,2.392,2.015,1.982
		c-0.444-1.367-7.172-13.425-9.494-17.693c0-0.066,0.034-0.066,0.067-0.135c1.025,1.639,9.495,16.938,10.007,18.236
		C62.454,59.801,64.742,60.11,64.298,59.361z M52.891,29.064c0.034-0.068,0.171-0.102,0.103,0.035
		c-0.136,0.307-0.649,1.4-0.751,1.639c-0.067-0.102-0.17-0.204-0.239-0.341C52.175,30.157,52.755,29.269,52.891,29.064z
		 M38.514,14.208c0.307,0.41,8.264,12.329,12.978,20.218c3.381-5.157,6.761-10.348,10.279-15.709
		c0.546-0.889,4.679-7.104,4.883-7.513c0.239-0.479-1.708-0.24-2.219,0.375c-0.854,0.991-3.108,4.44-4.85,7.035
		c-2.595,3.859-7.82,11.782-7.684,11.543c-2.39-3.552-6.215-10.006-10.382-15.88C40.938,13.423,38.104,13.662,38.514,14.208z"/>
	<path fill="#EF3A3A" d="M82.704,24.721c0.342,0.274,0.683,0.444,0.957,0.411c0.478-0.034,1.604-0.581,1.468-0.82
		c-0.82-1.366-1.81-2.322-3.279-2.971c-1.708-0.751-3.517-0.717-5.396-0.068c-2.527,0.888-4.953,3.961-6.181,6.215
		c-0.888,1.673-1.469,3.176-2.05,5.532c-0.58,2.391-0.819,4.168-0.272,6.732c0.341,1.604,1.058,3.142,2.22,3.857
		c1.263,0.751,3.142,0.684,4.815,0.41c0.888-0.137,1.399-0.309,2.186-0.719c0.409-0.203,0.819-0.442,1.229-0.784
		c0.205-0.171,0.956-0.888,1.366-1.332c-0.308,0.308,1.058-0.955,1.092-1.06c0.069-0.17-0.307-0.513-0.409-0.41
		c-0.103,0.103-0.888,0.785-1.333,1.229c-0.819,0.819-1.673,1.333-2.356,1.742c-0.41,0.239-0.648,0.376-1.264,0.614
		c-0.477,0.171-0.887,0.205-0.239,0c0.513-0.172,0.922-0.375,2.016-1.059c0.444-0.309,1.605-1.299,1.877-1.57
		c0.239-0.238,0.718-0.717,0.854-0.855c0.103-0.102,0.273-0.236,0.273-0.307c0-0.205-0.375-0.377-0.581-0.309
		c-0.341,0.104-0.819,0.444-1.297,0.924c-0.479,0.513-1.468,1.195-2.151,1.571c-0.922,0.513-1.708,0.546-2.665,0.546
		c-2.595,0-3.278-1.604-3.38-4.543c-0.034-1.06,0.341-3.246,0.649-4.271c1.298-4.064,2.903-7.855,6.421-9.357
		C79.254,23.218,81.167,23.185,82.704,24.721z M87.246,22.741c0.171-0.513-0.103-1.23-0.274-1.571
		c-0.546-1.059-1.297-2.049-2.458-2.801c-2.493-1.605-5.396-2.014-8.811-1.024c-2.766,0.82-5.361,2.801-7.48,5.293
		c-1.229,1.537-3.142,5.431-3.688,7.275c-0.341,1.195-0.649,2.219-0.854,3.381c-0.205,1.162-0.307,2.324-0.341,3.451
		c-0.034,1.436,0.171,2.803,0.443,4.201c0.239,1.094,0.683,2.631,1.4,3.62c0.546,0.786,0.99,1.127,0.479,0.479
		c-0.581-0.719-0.888-1.334-1.094-1.98c-0.375-1.161-0.648-2.254-0.921-4.031c-0.137-0.75-0.171-1.47-0.137-2.219
		c0.033-1.096,0.17-2.256,0.41-3.418c0.136-0.648,0.751-3.279,1.298-4.645c0.205-0.512,1.092-2.391,1.332-2.869
		c0.068-0.137,0.17-0.103,0.102,0.068c0,0.034-1.126,2.732-1.468,3.859c-0.204,0.717-0.75,2.698-0.922,3.586
		c-0.17,0.956-0.308,1.776-0.409,2.733c-0.103,0.99-0.103,1.707,0.068,2.869c0.068,0.479,0.171,0.922,0.341,1.812
		c0.171,0.955,0.718,2.491,0.99,3.004c0.376,0.685,1.059,1.606,1.708,2.254c0.615,0.685,0.991,1.095,1.572,1.435
		c0.648,0.377,1.536,0.752,2.698,0.89c0.512,0.067,1.092,0.103,1.673,0.103c0.103,0-0.239,0.239,0.069,0.205
		c1.263-0.137,1.571-0.17,1.878-0.205c1.708-0.17,2.834-0.613,4.405-1.298c0.785-0.341,1.263-0.683,1.674-0.956
		c0.409-0.273,1.058-0.921,1.297-1.195c0.274-0.308,0.581-0.648,0.786-0.989c0.102-0.171,0.341-0.513,0.444-0.649
		c0.034-0.068,0.171-0.238,0.375-0.648c0.205-0.375,0.308-0.717,0.308-0.819c0-0.067,0-0.103-0.034-0.067
		c-0.035,0.035-0.342,0.41-0.718,0.785c-0.409,0.41-0.615,0.615-0.785,0.786c-0.239,0.238-0.683,0.614-0.922,0.853
		c-0.99,0.854-1.366,1.093-1.742,1.367c-0.82,0.547-1.093,0.648-1.4,0.819c-0.615,0.376-1.332,0.685-1.64,0.751
		c-0.648,0.171-1.331,0.376-2.731,0.479c-1.776,0.138-2.187,0.102-2.903,0.068c-1.093-0.068-2.22-0.718-3.108-1.436
		c-0.546-0.443-1.059-1.127-1.708-1.98c-0.24-0.307-0.444-0.648-0.615-0.988c-0.444-0.89-0.614-1.537-0.888-2.631
		c-0.307-1.195-0.444-2.598-0.444-3.895c0-0.344,0.035-1.438,0.342-2.46c0-0.035,0.068-0.035,0.068,0
		c-0.102,0.58-0.272,1.741-0.272,2.46c0,0.854,0.239,2.699,0.512,3.826c0.41,1.773,0.786,2.492,1.537,3.517
		c0.512,0.683,0.922,1.366,1.605,1.981c0.444,0.41,1.093,0.684,1.503,0.888c1.024,0.513,2.356,0.513,3.518,0.442
		c1.469-0.067,2.083-0.203,2.561-0.307c0.615-0.137,1.264-0.273,2.117-0.683c0.615-0.308,1.161-0.649,1.537-0.888
		c0.512-0.344,0.922-0.685,1.469-1.162c0.239-0.205,0.58-0.512,1.298-1.229c0.307-0.307,0.614-0.614,0.921-0.888
		c0.376-0.309,0.787-0.957,0.923-1.266c0.103-0.236,0.171-0.545,0.034-0.955c-0.204-0.648-0.717-1.16-1.126-1.4
		c-0.307-0.171-0.307,0.104-0.376,0.309c-0.137,0.479-0.854,1.605-1.126,1.912c-1.435,1.674-3.518,3.348-5.328,4.03
		c-0.307,0.103-0.239,0.239,0,0.138c0.99-0.412,1.707-0.787,2.664-1.47c0.99-0.685,1.98-1.673,2.8-2.629
		c0.17-0.171,0.41-0.479,0.444-0.445c0.035,0-0.067,0.24-0.205,0.41c-0.239,0.308-1.161,1.3-1.64,1.776
		c-2.254,2.115-4.781,3.107-7.752,3.244c-1.434,0.066-3.107-0.648-3.518-0.989c-0.818-0.685-1.605-1.571-2.083-2.323
		c-0.478-0.785-0.683-1.641-0.854-2.425c-0.034-0.138-0.17-0.138-0.137,0c0.171,0.784,0.41,1.774,0.922,2.562
		c0.069,0.104-0.034,0.137-0.103,0.034c-0.478-0.718-0.922-2.356-1.024-3.177c-0.17-1.23-0.272-1.775-0.307-2.938
		c-0.068-1.847,0.683-4.101,1.264-6.15c0.478-1.502,2.459-5.327,3.381-6.454c2.8-3.518,6.25-5.942,10.519-5.089
		c1.741,0.341,3.415,1.298,4.712,3.176c0.307,0.444,0.648,1.059,0.854,1.298C86.392,23.833,87.144,23.048,87.246,22.741z
		 M81.167,40.263c0,0.069,0.104,0.103,0.171,0c0.478-0.753,0.785-1.265,0.922-1.399C81.816,39.17,81.167,39.958,81.167,40.263z"/>
	<path fill="#EF3A3A" d="M95.772,38.943c-1.024,0.103-1.503,0.067-1.571-0.205c-0.034-0.139,0.137-0.309,0.239-0.411
		c0.068-0.066,0.136-0.271-0.171-0.104c-0.307,0.172-0.239-0.717-0.034-0.785c0.854-0.273,2.049-0.273,3.143-0.479
		c0.785-0.137,1.57-0.238,2.355-0.308c0.513-0.034,3.896-0.205,4.852-0.237c0.033,0-0.035,0.135-0.103,0.135
		c-0.684,0.068-1.365,0.068-2.084,0.104c-0.104,0-0.104,0.068-0.034,0.068c0.513-0.033,1.981-0.068,2.254-0.068
		c0.409,0.139,0.138,0.924,0.069,0.924c-0.445,0.066-1.094,0.103-1.674,0.135c-0.103,0-0.068,0.035,0.033,0.035
		c0.342-0.035,1.161-0.035,1.641-0.067c0.205,0-0.309,0.237-0.547,0.274C101.34,38.157,98.128,38.704,95.772,38.943z M93.279,39.866
		c0.035-0.068,0.068,0.137,0.035,0.203c-0.752,1.879-2.153,4.576-2.221,4.952c-0.067,0.308,0.718-0.067,1.264-0.547
		c0.683-0.614,1.502-2.39,1.946-3.347c1.469-0.205,6.214-0.205,8.06-0.41c0.137,0,0.137-0.17,0-0.17
		c-1.914,0.205-2.289,0.138-3.826,0.035c-0.103,0-0.103-0.138-0.034-0.138c1.673-0.034,2.255,0,3.963-0.137
		c0.273-0.035,0.239,0.442,0.444,0.479c0.238,0.032,0.479,0,0.717,0.032c0.068,0.581,0.102,1.194,0.171,1.775
		c0.066,0.616,0.923,1.844,0.956,1.503c0.066-0.75,0.034-2.459-0.068-3.585c0-0.173,0.068-0.24,0.104-0.068
		c0.171,1.537,0.34,2.833,0.307,3.619c-0.033,0.409,2.459,1.571,2.287,0.821c-0.953-4.237-4.677-23.671-4.984-28.316
		c-0.922,2.322-2.152,5.055-3.177,7.65c-0.922,2.253-1.809,4.507-2.833,6.693c-1.366,3.04-2.767,6.42-4.167,9.428
		c-0.512,1.129-2.219,4.303-2.493,4.851c-0.17,0.341,0.648,0.274,0.99-0.103C91.059,44.713,92.494,41.743,93.279,39.866z
		 M104.445,36.038h-0.135c-0.137-0.922-0.615-4.27-0.889-5.841c-0.033-0.204,0.069-0.273,0.102,0
		C103.729,31.426,104.346,34.945,104.445,36.038z M88.088,45.226c0.342-0.205,1.366-2.39,1.639-3.04
		c0.648-1.501,1.298-2.971,1.947-4.439c0.034-0.035,0.068,0.17,0.137,0.035c0.82-1.71,6.59-15.712,9.802-23.431
		c0.342-0.819-2.017-0.444-2.29,0.171c-0.683,1.537-8.98,20.014-8.878,19.773c-0.035,0.104,0.137,0.068,0.17,0
		c0.752-1.844,3.313-7.137,4.27-9.425c0.033-0.102,0.307-0.102,0.205,0.103c-0.922,2.151-3.517,7.582-5.19,11.783
		c-0.103,0.24-0.513,0.139-0.547,0.205c-0.716,1.436-1.469,2.904-2.151,4.34c-0.307,0.613-0.205,2.05-0.068,1.878
		c2.015-2.63,4.542-8.231,5.464-10.351c0.034-0.103,0.205-0.136,0.136,0c-0.887,2.119-4.576,9.668-5.396,10.965
		C87.132,44.099,87.644,45.5,88.088,45.226z M99.8,39.694c-0.17,0-0.136-0.104,0-0.104c1.435-0.137,3.28-0.271,3.724-0.271
		c0.035,0,0.069,0.205,0,0.205C102.159,39.488,100.997,39.625,99.8,39.694z M103.014,34.706c-0.342-2.87-0.923-5.704-1.504-8.606
		c-0.033-0.103,0.172-0.375,0.204-0.24c0.548,2.835,1.229,6.045,1.571,8.882L103.014,34.706z M99.356,34.331
		c-0.58-0.035-1.16-0.035-1.707,0.067c1.263-2.665,2.015-4.099,3.725-8.128c0.717,3.688,1.022,5.498,1.468,8.4
		C101.545,34.331,100.52,34.398,99.356,34.331z M106.326,30.026c0.408,2.595,2.423,14.381,2.458,14.551
		c0.034,0.137,0.442-0.238,0.409-0.41c-0.342-1.775-0.717-4.576-1.024-6.353c-0.034-0.206,0.035-0.138,0.067,0
		c0.41,1.774,0.854,4.576,1.265,6.317c0.036,0.205,0.581-0.375,0.685-0.75c0.203-0.786-0.172-3.041-0.342-4.166
		c-0.58-3.93-1.777-12.059-2.461-16.021c-0.545-3.108-1.093-5.977-1.637-8.368c-0.344-1.469-2.085-0.581-2.085-0.272
		c0,0.512,1.161,6.147,1.537,8.878C105.505,25.621,105.982,27.806,106.326,30.026z"/>
	<path fill="#EF3A3A" d="M122.427,23.156l1.093-6.079c1.401-0.581,5.26-1.195,7.002-0.785c0.547,0.137,1.365,0.717,1.57,1.4
		c0.409,1.468-0.613,3.449-2.287,4.542c-0.785,0.512-2.357,0.819-2.699,0.888c-0.205,0.034-0.17-0.103-0.106-0.104
		c0.619-0.169,2.088-0.545,2.806-1.023c1.639-1.093,2.219-2.323,2.116-4.098c0-0.137-0.237-0.137-0.237,0
		c0.103,1.093-0.139,2.356-1.264,3.347c-1.298,1.126-3.143,1.57-5.328,1.81C123.998,23.156,122.562,23.19,122.427,23.156z
		 M119.389,26.264c0.752,0,2.424-0.034,3.209-0.136c4.166-0.547,4.201-1.297,4.61-0.922c0.205,0.206,0.409,0.103,0.683,0.034
		c1.707-0.512,3.621-1.605,4.576-2.8c0.582-0.718,1.094-1.366,1.436-2.151c0.75-1.776,0.718-4.405-0.957-5.566
		c-1.4-0.957-3.926-0.786-6.045-0.615c-1.569,0.137-2.971,0.376-3.791,0.547c-0.135,0.034,0.137,0.171,0.035,0.171
		c-0.443,0-0.443-0.171-0.854-0.103c-0.376,0.067-0.786,0.17-1.162,0.239c-0.342,2.049-0.648,4.406-0.854,5.703
		C119.968,22.61,119.49,25.444,119.389,26.264z M115.904,43.889c-0.137,0.271,0.988-0.068,1.127-0.377
		c0.169-0.375,1.023-3.858,1.264-5.771c0.034-0.171,0.104-0.103,0.104,0c-0.24,1.947-1.061,5.771-1.061,5.943
		c0,0.137,0.615-0.273,0.889-0.614c0.445-0.547,1.022-3.823,3.006-13.254c4.131-0.136,9.938-1.127,12.908-3.244
		c2.356-1.673,3.756-3.927,4.336-6.66c0.412-1.877,0.479-3.791-0.271-5.669c-0.854-2.083-3.074-3.654-5.738-3.927
		c-3.483-0.342-10.108,0.239-11.645,1.571c-0.751,0.648-0.751,1.775-0.444,1.708c0.921-0.206,4.609-0.922,5.6-1.024
		c4.953-0.513,8.472-0.342,9.871,3.039c0.547,1.366,0.41,2.937-0.067,4.405c-0.957,2.903-3.894,5.738-7.31,6.66
		c-4.474,1.195-6.592,0.82-8.332,0.82c-0.172,0-0.172-0.137-0.035-0.137c1.162,0,1.742-0.068,2.802-0.171
		c0.103,0,0.171-0.136,0.069-0.136c-0.649,0.068-2.018,0.102-2.836,0.068c-0.443-0.035-0.684,0-0.924,0.034
		c-0.171,0.99-0.341,1.981-0.512,2.971c-0.613,2.801-1.127,5.91-1.673,8.748C116.826,39.928,116.145,43.377,115.904,43.889z
		 M127.072,27.801c0.033,0,0.033,0.103,0,0.103c-1.742,0.375-3.827,0.581-5.533,0.615l0.068-0.273
		C123.314,28.312,125.363,28.142,127.072,27.801z M114.128,43.583c0.445-0.752,0.58-1.435,0.854-2.562c0-0.068-0.104-0.068-0.104,0
		c-0.138,0.547-0.273,0.99-0.408,1.398c-0.035,0.069-0.139,0.035-0.104-0.033c0.138-0.408,0.272-0.887,0.411-1.398
		c0.341-1.197,0.717-2.938,1.022-4.168c0.036-0.068,0.104-0.104,0.138-0.205c0.854-3.452,1.504-7.174,2.254-11.136
		c0-0.067-0.17-0.034-0.17,0.035c-0.752,3.824-1.469,7.649-2.254,11.065c-0.035,0.068-0.104,0.034-0.104,0
		c1.023-5.875,1.673-9.018,2.083-11.544c0.581-3.756,1.468-8.605,1.606-10.177c0.033-0.342-0.994,0-1.506,0.581
		c-0.545,0.649-0.683,1.913-0.817,2.766c-1.025,6.045-2.22,11.885-3.484,17.759c0,0.033,0.136,0.033,0.172-0.068
		c0.921-3.757,1.537-6.728,2.287-10.519c0.036-0.103,0.138-0.068,0.138,0.035c-0.615,4.029-1.811,9.869-2.354,11.237
		c-0.069,0.171-0.445,0.067-0.479,0.171c-0.139,0.441-0.785,2.528-0.992,3.928c-0.17,1.162,0.377,1.947,0.445,1.776
		c1.365-3.552,2.426-9.429,3.176-12.673c0.033-0.137,0.238-0.068,0.205,0.034c-0.307,1.674-2.562,11.341-3.041,12.708
		C113,42.866,113.992,43.821,114.128,43.583z"/>
	<path fill="#EF3A3A" d="M141.365,34.958c0.17-0.033,0.41-0.238,0.582-0.922c0.441-1.675,0.681-3.075,1.057-4.749
		c0.956-4.2,2.393-13.694,2.938-16.563c0.067-0.41,0.17-0.786,0.067-0.786c-0.272,0-0.817-0.034-1.536,0.308
		c-0.718,0.341-1.298,1.229-1.502,2.288c-1.022,5.089-1.742,9.598-2.494,14.31c0,0.068,0.207,0.103,0.24-0.034
		c0.752-3.108,0.956-6.216,1.501-8.914c0-0.068,0.205-0.068,0.205,0c-0.136,2.152-1.297,9.153-1.534,9.357
		c-0.139,0.137-0.479-0.205-0.549,0.034c-0.271,0.922-0.511,2.152-0.751,3.142c-0.137,0.547,0.035,0.99,0.24,1.435
		c0.237,0.512,1.844-3.927,2.491-7.548c0.068-0.444,0.205-0.375,0.172-0.103c-0.581,3.245-1.674,6.694-2.186,7.514
		C140,34.17,140.581,35.06,141.365,34.958z M156.768,36.768c-1.81-0.445-4.269-0.479-6.316-0.479c-0.104,0-0.104-0.172,0-0.205
		c1.229-0.239,6.557,0.137,6.624,0c0.206-0.479,0.102-1.537-0.034-1.605c-0.171-0.068-1.059,0.068-4.438,0.271
		c-2.562,0.172-8.981,0.649-9.188,1.026c0,0-0.104,2.392,1.57,2.698c0.137,0.035,0.785,0.171,2.186-0.066
		c1.878-0.344,4.201-0.854,6.421-0.854c0.066,0,0.066-0.205,0-0.205c-2.22-0.035-3.45,0-5.157,0.237
		c-0.103,0-0.172-0.137,0.068-0.17c1.195-0.238,3.825-0.342,5.602-0.205c0.067,0-0.137,0.308,0,0.308c0.75,0,1.468,0,2.15,0
		C156.495,37.519,156.904,36.801,156.768,36.768z M147.068,33.864c1.537-0.137,5.533-0.444,7.479-0.444
		c0.922,0,2.152-0.068,2.186-0.171c0.033-0.137-0.032-0.307-0.137-0.307c-0.718-0.034-1.81,0.068-2.73-0.068
		c-0.139-0.035-0.104-0.171,0.033-0.137c0.922,0.137,2.151-0.034,2.629-0.204c0.104-0.035-0.375-1.025-0.988-1.196
		c-0.65-0.17-3.689-0.102-5.055,0c-1.504,0.103-2.904,0.239-4.03,0.376c0.341-1.946,0.647-3.722,1.161-5.669
		c1.503-0.239,2.525-0.375,3.928-0.546c0.102,0,0.102-0.171,0-0.171c0.066,0-2.666,0-2.768,0c-0.104,0-0.104-0.171,0-0.171
		c1.024,0,3.246-0.273,3.279-0.205c0.102,0.171-0.104,0.444,0.031,0.444c0.104,0,0.753-0.068,1.334-0.171
		c0.204-0.034,0.444-0.341,0.342-0.444c-0.171-0.171-0.99-0.648-3.144-0.581c-0.103,0-0.103-0.137,0-0.137
		c2.597-0.034,2.87,0.341,3.246,0.41c0.169,0.034,0.34-0.684,0.272-1.469c-0.068-0.649-0.24-0.546-1.367-0.41
		c-0.479,0.068-6.182,0.649-7.035,0.649c-0.067,0.819-1.194,5.874-1.434,7.308c-0.273,1.503-0.548,2.664-0.683,3.451
		c-0.036,0.272,0,0.272,0.065,0.272C144.951,34.103,145.634,34,147.068,33.864z M161.208,9.719c-0.308,0-0.72,0.204-1.709,0.375
		c-4.508,0.785-5.874,0.751-6.692,0.888c-0.172,0.035-0.068,0.206,0.104,0.206c0.749-0.068,5.464-0.615,7.785-0.991
		c0.066,0,0.066,0.239,0,0.239c-3.041,0.376-8.947,0.991-12.125,1.366c-0.307,0.035-0.545,0.035-0.852,0.068
		c-0.172,0.034-0.172,0.547-0.24,0.99c-0.34,2.63-1.194,7.445-1.436,8.674c1.128,0,1.982-0.034,3.553-0.17
		c0.922-0.068,3.211-0.205,4.166-0.443c0.137-0.035,0-0.582-0.104-0.582c-0.442,0-2.596-0.136-3.106-0.341
		c-0.239-0.103-0.171-0.136-0.034-0.103c0.854,0.205,1.605,0.205,3.074,0.205c0.104,0-0.307-0.82-0.615-0.922
		c-0.342-0.103-1.263,0-2.22,0.068c-0.614,0.033-1.673,0.136-1.774,0.103c0.205-1.161,0.477-2.903,0.75-4.201
		c0.035-0.307,0.205-0.615,0.172-0.854c2.697-0.444,6.113-0.786,7.342-0.922c0.205-0.034,0.104-0.205,0.035-0.205
		c-1.264,0.068-5.465,0.444-6.489,0.648c-0.136,0.035-0.205-0.136-0.069-0.17c2.494-0.478,6.83-0.957,6.934-0.819
		c0.139,0.17-0.033,0.512,0.068,0.512c0.957-0.136,1.57-0.136,2.526-0.308c0.513-0.103,0.922-0.785,0.753-0.819
		c-2.495-0.581-5.261-0.273-7.891,0.068c-0.102,0-0.137-0.068-0.032-0.103c1.092-0.205,2.562-0.341,3.653-0.41
		c1.435-0.103,2.766-0.137,4.232,0.17c0.241,0.034,0.344-0.205,0.412-0.512C161.548,10.708,161.445,9.719,161.208,9.719z
		 M147.719,10.129c0,0.103,4.028-0.479,5.395-0.615c1.775-0.17,3.688-0.375,5.328-0.546c0.035,0,2.596-0.102,2.629-0.205
		c0.035-0.103-0.104-0.513-0.17-0.513c-0.991,0.205-2.493,0.273-3.483,0.239c-0.171,0-0.171-0.104,0-0.104
		c0.99,0.035,2.255-0.103,3.21-0.307c0.512-0.137-0.137-0.957-1.365-0.923c-1.332,0.034-3.791,0.342-5.432,0.581
		C150.757,8.182,147.684,8.216,147.719,10.129z"/>
	<path fill="#EF3A3A" d="M182.448,6.348c-1.366-1.605-5.771-2.254-10.21-1.333c-3.178,0.649-6.797,2.289-8.231,5.669
		c-1.229,2.903-0.819,5.703,0.72,7.958c1.16,1.708,3.071,2.664,4.678,3.176c2.015,0.648,4.234,0.75,6.316,1.434
		c1.059,0.341,1.572,1.196,1.094,2.459c-0.239,0.649-0.988,1.332-1.469,1.742c-0.068,0.069,0,0.137,0.067,0.103
		c0.649-0.512,1.229-1.093,1.537-1.639c0.581-0.99,0.548-1.946-0.442-2.664c-1.059-0.751-2.188-0.751-3.382-0.99
		c-3.039-0.615-5.942-1.333-7.31-3.074c-0.033-0.035,0.069-0.137,0.104-0.103c1.811,1.775,4.338,2.424,7.275,2.971
		c1.263,0.239,2.459,0.342,3.517,1.161c0.888,0.684,1.024,1.708,0.341,2.868c-0.341,0.547-1.092,1.298-1.809,1.742
		c-1.573,0.923-5.396,1.4-7.309,0.683c-0.479-0.171-1.129,0.205-1.025,0.24c1.945,0.853,3.482,0.819,5.873,0.444
		c2.355-0.376,3.963-1.537,4.613-2.664c0.441-0.751,0.612-1.537,0.511-2.322c-0.171-1.127-0.716-1.537-1.675-1.81
		c-0.102-0.035,0-0.103,0.104-0.069c0.989,0.307,1.399,0.648,1.64,1.673c0.17,0.751,0.066,1.741-0.41,2.527
		c-0.752,1.263-2.321,2.39-4.68,2.801c-2.767,0.478-3.962,0.478-6.419-0.342c-0.31-0.103-1.846,0.751-1.571,0.888
		c3.621,1.672,8.504,1.229,11.543-0.582c1.742-1.024,2.971-2.39,2.971-5.395c0-1.367-0.786-2.596-3.072-3.381
		c-3.654-1.264-6.113-1.059-7.992-2.459c-1.264-0.957-2.253-2.322-2.392-3.996c-0.17-2.322,1.162-4.132,3.006-5.293
		c3.655-2.254,9.835-3.04,13.66-0.581C183.1,8.499,183.029,7.03,182.448,6.348z M183.2,22.16c-1.298-4.201-3.552-5.055-9.357-6.387
		c-0.307-0.068-1.604-0.341-2.39-0.581c-1.061-0.307-1.366-1.742-1.061-2.254c0.89-1.537,3.689-2.356,6.25-2.425
		c1.469-0.034,2.836,0.376,3.277,0.478c1.23,0.273,3.107-1.161,2.323-1.639c-3.621-2.117-9.289-1.639-12.636,0.649
		c-1.537,1.059-2.664,2.868-1.844,4.985c0.715,1.811,2.629,2.596,6.281,3.313c4.27,0.854,6.489,1.98,6.83,5.123
		c0.343,3.142-1.604,5.772-3.48,6.864c-4.271,2.527-8.879,2.356-13.39,0.854c-0.237-0.068-0.103,1.127,0.068,1.229
		c1.229,0.718,6.25,1.947,9.972,0.99c4.439-1.161,5.979-2.664,7.48-5.021c0.817-1.297,1.059-2.937,1.332-4.473
		c0-0.035,0.136-0.035,0.136,0c-0.237,1.571-0.613,3.347-1.365,4.576c-1.366,2.22-2.868,3.859-7.583,5.123
		c-3.447,0.923-8.298-0.171-9.664-0.786c-0.271-0.137,0.035,0.546,0.344,0.683c5.94,2.459,12.977,0.649,15.946-2.562
		C182.758,28.648,183.952,24.618,183.2,22.16z"/>
</g>
</svg>
