<?xml version="1.0" encoding="utf-8"?>
<!-- Generator: Adobe Illustrator 21.0.2, SVG Export Plug-In . SVG Version: 6.00 Build 0)  -->
<svg version="1.1" id="Layer_1" xmlns="http://www.w3.org/2000/svg" xmlns:xlink="http://www.w3.org/1999/xlink" x="0px" y="0px"
	 viewBox="0 0 200 77.7" style="enable-background:new 0 0 200 77.7;" xml:space="preserve">
<style type="text/css">
	.st0{fill:#FFFFFF;}
</style>
<g>
	<g>
		<path class="st0" d="M13.4,32.4c1.8-0.1,2.8,0,2.8,1.3c0,11.3,0,11.3,0,11.3c-2.8,0-2.8,0-2.8,0c0-1.9,0-3.8,0-5.7s0-3.8,0-5.7
			c0-0.2-0.2-1.2-0.3-1.3h0.3V32.4z"/>
		<path class="st0" d="M18.2,32.4c1.8-0.1,2.8,0,2.8,1.3C21,45,21,45,21,45c-2.8,0-2.8,0-2.8,0c0-1.9,0-3.8,0-5.7s0-3.8,0-5.7
			c0-0.2-0.2-1.2-0.3-1.3h0.3V32.4z"/>
		<path class="st0" d="M8.4,32.4c1.8-0.1,2.8,0,2.8,1.3c0,11.3,0,11.3,0,11.3c-2.8,0-2.8,0-2.8,0C8.4,32.4,8.4,32.4,8.4,32.4z"/>
		<path class="st0" d="M8.4,27.5c0,2.9,0,2.9,0,2.9c11.4,0,11.4,0,11.4,0c1.9,0.2,3.3,1.7,3.3,3.6c0,11.2,0,11.2,0,11.2
			c2.8,0,2.8,0,2.8,0C26,34,26,34,26,34c-0.4-4.9-4-6.1-5.9-6.4C8.4,27.5,8.4,27.5,8.4,27.5z"/>
	</g>
</g>
<g>
	<g>
		<g>
			<path d="M162.1,44.7c0,0.2,0.2,0.5,0.2,0.7c0,0.5-0.2,0.7-0.5,0.9c-0.2,0.2-0.5,0.5-0.7,0.5c-0.9-0.2-1.4-0.9-1.8-2.3
				c-0.2-1.4-0.5-2.5-0.9-3.4c-0.7,0-1.1,0-1.8,0.2c-0.7,0-1.4,0.2-1.6,0.7c-0.2,0.7-0.5,1.6-0.9,3c-0.2,1.4-0.7,2.3-0.9,3
				c-0.2,0.2-0.5,0.5-0.9,0.2c-0.7-0.2-0.9-0.5-0.9-0.9c0-0.7,0.2-1.6,0.7-2.8c0.5-1.4,0.9-2.3,0.9-3c0-0.2,0-0.5-0.5-0.5
				c-0.2-0.2-0.5-0.5-0.5-0.5s0-0.2,0.2-0.2c0,0,0.2-0.2,0.7-0.2c0.2,0,0.5-0.2,0.5-0.2c0.2-0.9,0.9-2.8,1.6-5.3
				c0.7-2.3,1.1-3.9,1.6-5.1c0-0.2,0.2-0.5,0.7-0.5c0.2,0,0.5,0,0.7,0.2c0.5,0.5,0.9,1.1,0.9,2.1c0,0.7,0.2,1.6,0.2,2.3
				C160.2,38.2,161.1,41.9,162.1,44.7z M158.2,39.4c0-0.7-0.2-1.4-0.5-2.3c-0.2-0.7-0.5-1.4-0.5-2.3c-0.5,1.6-1.1,3-1.4,4.6
				C156.1,39.4,156.8,39.4,158.2,39.4z"/>
			<path d="M174.5,46.3v0.2c0,0.5-0.5,0.7-1.4,0.9c-0.9-0.7-2.3-1.8-3.7-3.4c-1.6-1.8-2.8-3-3.7-3.7c0,0.5-0.2,1.8-0.2,3.7
				c0,1.6-0.2,2.8-0.5,3.7c0,0-0.2,0-0.5,0.2c-0.2,0-0.5,0.2-0.5,0c-0.7-0.2-1.1-0.7-1.1-1.6c0-0.2,0-0.7,0-1.1s0.2-0.9,0.2-0.9
				c0-1.1,0.2-2.3,0.2-3.9v-3c0-2.5,0.2-4.6,0.5-6.4c0.2-1.1,1.4-1.6,3.2-1.6c0.9,0,1.8,0.5,2.5,1.6c0.7,0.9,0.9,1.8,0.9,3
				c0,0.9-0.2,1.8-0.9,2.5c-0.5,0.7-1.1,1.4-2.1,1.8c-0.2,0.2-0.5,0.5-0.5,0.7c0,0.2,0.2,0.5,0.7,0.9c0.2,0.2,0.7,0.5,0.9,0.7
				c0,0,1.1,0.9,3,2.8C173.1,44.2,174,45.4,174.5,46.3z M168.5,33.6c0-0.2,0-0.7,0-0.9c0-0.5-0.2-0.7-0.5-1.1
				c-0.2-0.2-0.7-0.5-1.4-0.5c-0.5,0-0.7,0.2-0.9,0.5c0,0.5-0.2,0.9-0.2,1.6c0,0.2,0,0.9,0,1.8c0,0.7,0,1.4,0,1.8
				C167.6,35.9,168.5,34.8,168.5,33.6z"/>
			<path d="M187.1,28.6c-0.2,0.7-0.5,1.1-0.9,1.1c-1.1,0.2-3.2,0.7-6.2,1.1c-0.5,4.6-0.5,8.5-0.5,11.5c0,1.1,0,2.3,0,3.4
				c0,0.5,0,0.7,0,0.9c-0.5,0.5-0.5,0.5-0.9,0.5c-0.5,0-0.9-0.2-1.4-0.7c-0.5-0.5-0.5-0.9-0.7-1.4c0-0.7,0-1.4,0-2.1
				c0-1.1,0-3.2,0.2-5.7s0.2-4.6,0.2-5.7c-0.5,0-1.1,0-2.1,0.2c-0.9,0.2-1.8,0.2-2.1,0.2c-0.9,0-1.6-0.2-2.3-0.7
				c-0.2-0.5-0.2-0.7-0.2-0.7c0-0.2,0-0.2,0.2-0.5c0.7-0.2,1.8-0.4,3.7-0.5c2.1,0,4.7-0.6,5.7-0.7c1.9-0.3,2.7-0.5,3.6-0.7
				c0.8-0.2,1.6-0.4,2-0.4c0.5,0,0.7,0,1.1,0.1C187,28,187.1,28.4,187.1,28.6z"/>
			<path d="M192.9,32c-0.7,0.2-1.6,0.7-3,0.9c-1.4,0.5-2.3,0.7-3,0.9c-0.2,0.5-0.2,1.6-0.5,3.2c0.2,0,0.7,0.2,0.9,0.2
				c0.2,0,0.7,0,1.4-0.2c0.7,0,0.9-0.2,1.4-0.2s0.9,0,1.4,0.2c0.2,0.5,0.5,0.7,0.5,0.7c0,0.2,0,0.2-0.2,0.2c0,0-0.2,0.2-0.5,0.5
				c-0.2,0.2-0.2,0.2-0.5,0.2c-0.5,0-1.1,0.2-2.1,0.2c-0.9,0-1.6,0.2-2.1,0.2c-0.5,1.4-0.5,2.5-0.5,3.2c0,0.5,0,0.9,0.2,1.4
				c0.9,0.7,2.3,0.9,4.6,0.7c0.2,0,0.2,0,0.5-0.2c0.2-0.2,0.2-0.2,0.5-0.2c0.5,0,0.9,0.2,0.9,1.1c0,0.2,0,0.5-0.2,0.9
				c-0.2,0.2-0.5,0.5-0.7,0.5c-2.3,0-4.1,0-5.7-0.5c-0.5-0.2-0.9-0.5-1.4-0.9c-0.5-0.5-0.7-0.9-0.7-1.6c-0.2-1.6-0.2-3,0-4.4
				c-0.5-0.5-0.7-0.7-0.7-0.9s0.2-0.2,0.5-0.5c0.2-0.2,0.5-0.2,0.5-0.5s0-0.9,0.2-2.8c-1.1-0.2-1.6-0.7-1.6-1.1s0.2-0.9,0.9-1.4
				c0.7-0.2,1.1-0.5,1.8-0.7c0.7-0.5,1.6-0.7,2.5-0.9c0.9-0.2,1.8-0.5,2.8-0.7h0.2c0.5,0,1.1,0.2,1.8,0.7c0,0,0,0.2,0.2,0.5
				c0,0.2,0,0.5,0,0.5C193.1,31.8,193.1,32,192.9,32z"/>
		</g>
	</g>
</g>
<g>
	<path d="M20,35.3h-5.8v10.9H12V35.3H6.2v-2H20V35.3z"/>
	<path d="M36,46.2h-2.2v-2.4c0-0.9-0.2-1.6-0.6-2c-0.4-0.4-1-0.6-1.9-0.6l-7.5,0v4.9h-2.1V33.3h9.4c1.6,0,2.7,0.3,3.4,0.9
		c0.7,0.7,1.1,1.7,1.1,3.3c0,1.4-0.4,2.3-1.2,2.7c1.1,0.3,1.6,1.2,1.6,2.8V46.2z M31.3,35.5h-7.5v3.6h7.5c1.4,0,2.1-0.6,2.1-1.8
		C33.5,36.1,32.8,35.5,31.3,35.5z"/>
	<path d="M51.1,40.5H40.6v5.7h-2.2v-7.7c0-2.1,0.4-3.6,1.3-4.3c0.8-0.6,2.3-1,4.5-1h3.3c2.2,0,3.6,0.3,4.5,1
		c0.9,0.7,1.4,2.2,1.4,4.3v7.7h-2.2V40.5z M40.6,38.6h10.5c0-1.5-0.3-2.4-0.9-2.8c-0.5-0.3-1.5-0.5-3.1-0.5h-2.6
		c-1.5,0-2.6,0.2-3,0.5C40.9,36.2,40.6,37.1,40.6,38.6z"/>
	<path d="M67.6,46.2v-7.7c0-1-0.3-1.8-0.9-2.4c-0.6-0.6-1.5-0.9-2.5-0.9h-2.7c-1,0-1.8,0.3-2.5,0.9c-0.7,0.6-1,1.4-1,2.3v7.7h-2.2
		V33.3H58V35c0.8-1.1,1.9-1.7,3.5-1.7h2.7c1.8,0,3.2,0.5,4.2,1.4c1,0.9,1.5,2.3,1.5,4v7.5H67.6z"/>
	<path d="M86.9,42.4c0,1.4-0.4,2.4-1.1,3c-0.7,0.5-1.7,0.8-3.1,0.8h-6.5c-2.8,0-4.2-1.2-4.2-3.7h2.2c0,1.1,0.8,1.7,2.4,1.7h5.6
		c0.8,0,1.3-0.1,1.7-0.3c0.5-0.3,0.8-0.8,0.8-1.5c0-0.8-0.4-1.4-1.3-1.7c-0.5-0.2-1.3-0.3-2.3-0.3c-0.4,0-1,0-1.9,0
		c-0.8,0-1.4,0-1.9,0c-1.6,0-2.9-0.2-3.7-0.6c-1.1-0.6-1.7-1.6-1.7-3.1c0-1.3,0.4-2.3,1.2-2.9c0.7-0.5,1.7-0.7,3.1-0.7h6.1
		c3,0,4.5,1.2,4.5,3.6h-2.3c0-1.1-0.8-1.7-2.4-1.7h-5.8c-1.3,0-2,0.6-2,1.7c0,1.2,1.2,1.7,3.7,1.7c0.4,0,0.9,0,1.7-0.1
		c0.8,0,1.3-0.1,1.7-0.1c1.7,0,2.9,0.2,3.8,0.7C86.3,39.8,86.9,40.9,86.9,42.4z"/>
	<path d="M97.3,41.5h-6.4v4.7h-2.2V33.3h8.7c1.7,0,2.9,0.3,3.5,0.9c0.6,0.6,1,1.8,1,3.5c0,1.5-0.4,2.5-1.3,3.1
		C100,41.3,98.9,41.5,97.3,41.5z M97.5,35.4h-6.5v3.9h6.6c0.8,0,1.3-0.1,1.6-0.3c0.4-0.3,0.6-0.8,0.6-1.5c0-0.8-0.2-1.4-0.5-1.7
		S98.3,35.4,97.5,35.4z"/>
	<path d="M118.9,40.5c0,1.7-0.2,3-0.6,3.8c-0.4,0.8-1.1,1.3-2.1,1.6c-0.8,0.2-2,0.3-3.8,0.3H110c-1.8,0-3.1-0.2-3.9-0.5
		c-0.9-0.3-1.5-0.9-1.9-1.8c-0.3-0.8-0.5-2.2-0.5-4c0-1.9,0.1-3.3,0.4-4.1c0.3-1,0.9-1.7,1.8-2c0.8-0.4,2.2-0.6,4.1-0.6h2.4
		c2,0,3.5,0.2,4.4,0.6c0.9,0.4,1.5,1.2,1.7,2.2C118.8,36.9,118.9,38.4,118.9,40.5z M116.7,40.4v-1.2c0-1.2-0.1-2.1-0.4-2.6
		c-0.2-0.5-0.7-0.9-1.3-1c-0.5-0.1-1.3-0.2-2.6-0.2h-2.1c-1.8,0-2.9,0.2-3.4,0.6c-0.6,0.5-0.8,1.5-0.8,3.3v1.2
		c0,1.7,0.3,2.7,0.9,3.2c0.5,0.3,1.6,0.5,3.3,0.5h2.2c1.3,0,2.1,0,2.6-0.1c0.7-0.1,1.1-0.5,1.4-1C116.5,42.5,116.7,41.6,116.7,40.4z
		"/>
	<path d="M135.8,46.2h-2.2v-2.4c0-0.9-0.2-1.6-0.6-2c-0.4-0.4-1-0.6-1.9-0.6l-7.5,0v4.9h-2.1V33.3h9.4c1.6,0,2.7,0.3,3.4,0.9
		c0.7,0.7,1.1,1.7,1.1,3.3c0,1.4-0.4,2.3-1.2,2.7c1.1,0.3,1.6,1.2,1.6,2.8V46.2z M131.2,35.5h-7.5v3.6h7.5c1.4,0,2.1-0.6,2.1-1.8
		C133.3,36.1,132.6,35.5,131.2,35.5z"/>
	<path d="M150.6,35.3h-5.8v10.9h-2.2V35.3h-5.8v-2h13.8V35.3z"/>
</g>
</svg>
