<?xml version="1.0" encoding="utf-8"?>
<!-- Generator: Adobe Illustrator 19.0.0, SVG Export Plug-In . SVG Version: 6.00 Build 0)  -->
<svg version="1.1" id="Layer_1" xmlns="http://www.w3.org/2000/svg" xmlns:xlink="http://www.w3.org/1999/xlink" x="0px" y="0px"
	 viewBox="-49 37.3 200 77.7" style="enable-background:new -49 37.3 200 77.7;" xml:space="preserve">
<style type="text/css">
	.st0{fill:#EB008B;}
	.st1{fill:#808184;}
	.st2{fill:#F37920;}
	.st3{fill:#FFFFFF;}
	.st4{fill-rule:evenodd;clip-rule:evenodd;fill:#F37920;}
	.st5{fill:#231F20;}
</style>
<g>
	<g>
		<circle class="st0" cx="94.9" cy="46.5" r="6.8"/>
		<path class="st0" d="M68.1,71.9l15.3-16.2c0,0,4.3-5,8.8,0s14.4,16.2,14.4,16.2l7.2-0.7c0,0,3.2-0.2,3.6,3
			c0.5,3.2-1.3,4.3-2.4,4.8c-1.2,0.5-9.9,1.6-9.9,1.6s-3.8,0.5-8.1-6.4c0,0-2.3,5-2,5.4c0.2,0.5,18,23.2,18,23.2
			c1.2,2,0.7,4.3-0.7,5.8c-1.4,1.5-4.2,2.1-6.1,0.2c-2.7-2.7-16-19.3-15.8-18.5c0.2,0.8,2.9,6,0.5,9c-2.6,3.1-13.1,14.2-13.1,14.2
			c-1.6,1.5-4.8,1.3-6.3-0.5c-1.3-1.5-2-3.6,0.4-6.6l9.3-11L68.1,79.1C68.1,79.1,66.3,73.8,68.1,71.9z"/>
	</g>
	<rect x="-13.8" y="71.2" class="st1" width="131.3" height="15.1"/>
	<path class="st2" d="M116.3,60.8L116.3,60.8c-0.6-0.6-7.2-7.2-7.8-7.8c-0.7,6.2-3.3,9.2-5.3,11.5c-2,2.3-6.5,6.8-7.4,7.8
		c0,0,0.4,0.4,0.8,0.8l3.3-3.3c0.7-0.7,1.6-1.2,2.6-1.5c0.9-0.8,1.7-1.6,2.4-2.2C107.1,64.1,110.1,61.5,116.3,60.8z"/>
	<g>
		<path class="st2" d="M99,85.9c0.2-0.2,1.1-1.1,1.3-1.3c-0.2-0.2-3.4-3.4-5.8-5.8l-1.3,1.3C95.6,82.5,98.8,85.7,99,85.9z"/>
		<path class="st2" d="M102,82.9c-0.1-0.1-1.6-1.6-3.3-3.3l-2.5-2.5l-1.3,1.3c2.4,2.4,5.6,5.6,5.8,5.8C101,84,101.8,83.1,102,82.9z"
			/>
		<path class="st2" d="M103.7,81.2l-1.5-1.5l0,0c-1.2-1.2-2.9-2.9-4.3-4.3l-1.3,1.3c2.4,2.4,5.6,5.6,5.8,5.8
			C102.6,82.3,103.5,81.5,103.7,81.2z"/>
		<g>
			<path class="st2" d="M101.6,71.7L98.2,75l0.9,0.9c1.3-1.3,3.3-3.3,5.1-5.1c-0.2,0-0.3,0-0.5,0C103,70.8,102.2,71.1,101.6,71.7z"
				/>
			<path class="st2" d="M102.6,79.4L106,76c0.7-0.7,1-1.7,0.9-2.7l-5.1,5.1L102.6,79.4z"/>
			<path class="st2" d="M106.3,68.8c0.9-0.9,1.6-1.6,1.6-1.6c0.8-0.8,2-0.9,2.8-0.2c0.3,0.3,0.5,0.7,0.5,1.1c0,0.7-0.5,1.4-0.7,1.6
				l-1.6,1.6c0.2,0.5,0.4,1,0.5,1.5l2.1-2.1c0.8-0.8,1.3-1.7,1.3-2.6c0-1.2-0.8-2.1-1-2.3c-0.5-0.5-1.2-0.8-2-0.8l0,0
				c-1,0-2,0.5-2.8,1.3c0,0-0.9,0.9-2.1,2.1C105.3,68.4,105.8,68.5,106.3,68.8z"/>
			<path class="st2" d="M87.3,82.3l3.7-3.7l-0.8-0.8c-0.8,0.8-1.4,1.4-1.4,1.4C87.9,80,87.4,81.1,87.3,82.3z"/>
			<path class="st2" d="M96.4,83.9c-0.8,0.8-1.4,1.4-1.4,1.4c-0.7,0.7-1.6,1-2.5,1c-1,0-1.8-0.4-2.5-1c-0.4-0.4-0.6-0.8-0.8-1.2
				l-1.2,1.2c0.2,0.4,0.5,0.8,0.9,1.2c1,1,2.3,1.5,3.7,1.5c1.4,0,2.7-0.5,3.7-1.5c0,0,0.7-0.7,1.4-1.4L96.4,83.9z"/>
			<path class="st2" d="M90.3,75.7c0.6-0.6,0.8-0.8,0.9-0.8c0,0,0,0,0,0s3-3,3.2-3.2c-0.1-0.2-0.5-0.5-0.6-0.7
				c-0.3,0.3-4.5,4.5-4.7,4.7c0.1,0.2,0.5,0.5,0.6,0.7C89.8,76.2,90.3,75.7,90.3,75.7z"/>
			<path class="st2" d="M92.7,76.9c-0.5-0.5-0.8-0.8-0.8-0.8c0,0-1.1,1.1-1.3,1.3c0.1,0.1,0.4,0.4,0.8,0.8L92.7,76.9z"/>
			<path class="st2" d="M93,76.6l1.3-1.3l-0.8-0.8c0,0-1.1,1.1-1.3,1.3C92.3,75.8,92.6,76.1,93,76.6z"/>
			<path class="st2" d="M93.9,74.1c0.1,0.1,0.4,0.4,0.8,0.8l1.3-1.3c-0.5-0.5-0.8-0.8-0.8-0.8S94.2,73.8,93.9,74.1z"/>
			<path class="st2" d="M100.1,70.2c0,0-15,15-16.8,16.8l1.1,1.1c2.4-2.4,16.8-16.8,16.8-16.8c0.7-0.7,1.6-1,2.5-1
				c1,0,1.8,0.4,2.5,1c0.7,0.7,1,1.6,1,2.5c0,0.9-0.3,1.8-1,2.5c0,0-3.1,3.1-3.4,3.4c0.2,0.2,0.9,0.9,1.1,1.1
				c0.7-0.7,3.4-3.4,3.4-3.4c1-1,1.5-2.3,1.5-3.7l0,0c0-1.4-0.5-2.7-1.5-3.7c-1-1-2.3-1.5-3.7-1.5C102.4,68.7,101.1,69.2,100.1,70.2
				z"/>
			<path class="st2" d="M84.1,88.4c-0.2-0.2-0.9-1-1.1-1.1c-0.2,0-0.9,0.2-1.4,0.3c0.4,0.4,1.7,1.7,2.1,2.1
				C83.9,89.3,84.1,88.6,84.1,88.4z"/>
		</g>
	</g>
	<path class="st0" d="M73.5,68.9l11.3,14.3c0,0,3.2,1.5,5.1,0c1.9-1.5,2.3-3.8,0-6.6c-2.3-2.8-10.6-12.1-10.6-12.1L73.5,68.9z"/>
	<g>
		<g>
			<path class="st3" d="M-4,77.6h-2.5v4.7h-0.9v-4.7H-10v-0.9h6V77.6z"/>
			<path class="st3" d="M0.3,77.6h-1.2c-0.4,0-0.8,0.1-1.1,0.4c-0.3,0.3-0.4,0.6-0.4,1v3.4h-0.9v-5.6h0.9v0.7
				c0.3-0.5,0.8-0.7,1.5-0.7h1.2c0.6,0,1.1,0.1,1.5,0.4c0.4,0.3,0.6,0.7,0.7,1.3H1.5C1.5,77.9,1,77.6,0.3,77.6z"/>
			<path class="st3" d="M9.8,82.3h-1v-0.5c-0.4,0.3-0.9,0.5-1.5,0.5H5.7c-0.8,0-1.4-0.1-1.7-0.3c-0.4-0.3-0.7-0.8-0.7-1.5h0
				c0-0.7,0.2-1.2,0.7-1.4c0.3-0.2,0.9-0.3,1.7-0.3h2c0.2,0,0.3,0,0.5,0.1c0.3,0.1,0.5,0.2,0.7,0.4c0-0.7-0.1-1.1-0.3-1.3
				c-0.2-0.2-0.6-0.4-1.3-0.4H5.7c-1,0-1.4,0.3-1.4,0.8h-1c0-0.7,0.3-1.2,0.9-1.5c0.4-0.2,0.9-0.3,1.5-0.3h1.7c1,0,1.7,0.3,2.1,0.8
				c0.3,0.3,0.4,0.7,0.4,1.2c0,0.1,0,0.2,0,0.3V82.3z M7.6,79.7H5.7c-0.4,0-0.7,0-0.9,0.1c-0.3,0.1-0.5,0.4-0.5,0.8
				c0,0.4,0.2,0.6,0.5,0.7c0.2,0.1,0.5,0.1,0.9,0.1h1.6c0.6,0,0.9-0.1,1.2-0.2c0.2-0.1,0.3-0.4,0.3-0.7C8.8,80,8.4,79.7,7.6,79.7z"
				/>
			<path class="st3" d="M14.4,76.7c0.8,0,1.4,0.2,1.8,0.6c0.4,0.4,0.6,1,0.6,1.8v3.2h-0.9V79c0-0.4-0.1-0.8-0.4-1
				c-0.3-0.2-0.6-0.4-1.1-0.4h-1.2c-0.5,0-0.8,0.1-1.1,0.4c-0.3,0.2-0.4,0.6-0.4,1v3.4h-0.9v-3.2c0-0.8,0.2-1.3,0.6-1.8
				c0.4-0.4,1-0.6,1.8-0.6H14.4z"/>
			<path class="st3" d="M24.3,80.7c0,0.6-0.2,1.1-0.5,1.3c-0.3,0.2-0.7,0.3-1.4,0.3h-2.8c-1.2,0-1.8-0.5-1.8-1.6h1
				c0,0.5,0.3,0.7,1,0.7h2.4c0.3,0,0.6,0,0.8-0.1c0.2-0.1,0.3-0.3,0.3-0.7c0-0.4-0.2-0.6-0.6-0.7c-0.2-0.1-0.6-0.1-1-0.1
				c-0.2,0-0.4,0-0.8,0c-0.4,0-0.6,0-0.8,0c-0.7,0-1.2-0.1-1.6-0.3c-0.5-0.2-0.7-0.7-0.7-1.3c0-0.6,0.2-1,0.5-1.2
				c0.3-0.2,0.7-0.3,1.3-0.3h2.7c1.3,0,2,0.5,2,1.6h-1c0-0.5-0.4-0.7-1.1-0.7h-2.5c-0.6,0-0.9,0.2-0.9,0.7c0,0.5,0.5,0.8,1.6,0.8
				c0.2,0,0.4,0,0.7,0c0.3,0,0.6,0,0.7,0c0.7,0,1.3,0.1,1.6,0.3C24,79.6,24.3,80,24.3,80.7z"/>
			<path class="st3" d="M28.8,80.3H26v2h-0.9v-5.6h3.8c0.7,0,1.2,0.1,1.5,0.4c0.3,0.3,0.4,0.8,0.4,1.5c0,0.7-0.2,1.1-0.6,1.3
				C29.9,80.2,29.5,80.3,28.8,80.3z M28.8,77.7H26v1.7h2.8c0.3,0,0.6,0,0.7-0.1c0.2-0.1,0.3-0.3,0.3-0.7c0-0.4-0.1-0.6-0.2-0.7
				C29.5,77.7,29.2,77.7,28.8,77.7z"/>
			<path class="st3" d="M38.1,79.8c0,0.7-0.1,1.3-0.3,1.6c-0.2,0.3-0.5,0.6-0.9,0.7c-0.3,0.1-0.9,0.1-1.6,0.1h-1
				c-0.8,0-1.4-0.1-1.7-0.2c-0.4-0.1-0.7-0.4-0.8-0.8c-0.1-0.4-0.2-0.9-0.2-1.7c0-0.8,0.1-1.4,0.2-1.8c0.1-0.4,0.4-0.7,0.8-0.9
				c0.4-0.2,1-0.2,1.8-0.2h1c0.9,0,1.5,0.1,1.9,0.3c0.4,0.2,0.6,0.5,0.8,1C38.1,78.3,38.1,78.9,38.1,79.8z M37.2,79.8v-0.5
				c0-0.5-0.1-0.9-0.2-1.1c-0.1-0.2-0.3-0.4-0.6-0.4c-0.2,0-0.6-0.1-1.1-0.1h-0.9c-0.8,0-1.3,0.1-1.5,0.2c-0.2,0.2-0.4,0.7-0.4,1.4
				v0.5c0,0.7,0.1,1.2,0.4,1.4c0.2,0.1,0.7,0.2,1.4,0.2h1c0.5,0,0.9,0,1.1-0.1c0.3-0.1,0.5-0.2,0.6-0.4
				C37.1,80.7,37.2,80.3,37.2,79.8z"/>
			<path class="st3" d="M42.7,77.6h-1.2c-0.4,0-0.8,0.1-1.1,0.4c-0.3,0.3-0.4,0.6-0.4,1v3.4H39v-5.6H40v0.7c0.3-0.5,0.8-0.7,1.5-0.7
				h1.2c0.6,0,1.1,0.1,1.5,0.4c0.4,0.3,0.6,0.7,0.7,1.3h-0.9C43.8,77.9,43.4,77.6,42.7,77.6z"/>
			<path class="st3" d="M48.7,77.6v2.7c0,0.4,0.1,0.7,0.3,0.9c0.2,0.1,0.4,0.2,0.8,0.2v0.8h-0.1c-0.7,0-1.3-0.2-1.6-0.5
				c-0.3-0.3-0.5-0.9-0.5-1.6v-2.7h-2.5v-0.9h6.3v0.8L48.7,77.6z"/>
		</g>
		<g>
			<path class="st3" d="M57.6,81.9c0,0.1,0.1,0.2,0.1,0.3c0,0.2-0.1,0.3-0.2,0.4c-0.1,0.1-0.2,0.2-0.3,0.2c-0.4-0.1-0.6-0.4-0.8-1
				c-0.1-0.6-0.2-1.1-0.4-1.5c-0.3,0-0.5,0-0.8,0.1c-0.3,0-0.6,0.1-0.7,0.3c-0.1,0.3-0.2,0.7-0.4,1.3c-0.1,0.6-0.3,1-0.4,1.3
				c-0.1,0.1-0.2,0.2-0.4,0.1c-0.3-0.1-0.4-0.2-0.4-0.4c0-0.3,0.1-0.7,0.3-1.2c0.2-0.6,0.4-1,0.4-1.3c0-0.1,0-0.2-0.2-0.2
				c-0.1-0.1-0.2-0.2-0.2-0.2c0,0,0-0.1,0.1-0.1c0,0,0.1-0.1,0.3-0.1c0.1,0,0.2-0.1,0.2-0.1c0.1-0.4,0.4-1.2,0.7-2.3
				c0.3-1,0.5-1.7,0.7-2.2c0-0.1,0.1-0.2,0.3-0.2c0.1,0,0.2,0,0.3,0.1c0.2,0.2,0.4,0.5,0.4,0.9c0,0.3,0.1,0.7,0.1,1
				C56.8,79.1,57.2,80.7,57.6,81.9z M55.9,79.6c0-0.3-0.1-0.6-0.2-1c-0.1-0.3-0.2-0.6-0.2-1c-0.2,0.7-0.5,1.3-0.6,2
				C55,79.6,55.3,79.6,55.9,79.6z"/>
			<path class="st3" d="M63,82.6c0,0,0,0.1,0,0.1c0,0.2-0.2,0.3-0.6,0.4c-0.4-0.3-1-0.8-1.6-1.5c-0.7-0.8-1.2-1.3-1.6-1.6
				c0,0.2-0.1,0.8-0.1,1.6c0,0.7-0.1,1.2-0.2,1.6c0,0-0.1,0-0.2,0.1c-0.1,0-0.2,0.1-0.2,0C58.2,83.2,58,83,58,82.6
				c0-0.1,0-0.3,0-0.5c0-0.2,0.1-0.4,0.1-0.4c0-0.5,0.1-1,0.1-1.7v-1.3c0-1.1,0.1-2,0.2-2.8c0.1-0.5,0.6-0.7,1.4-0.7
				c0.4,0,0.8,0.2,1.1,0.7c0.3,0.4,0.4,0.8,0.4,1.3c0,0.4-0.1,0.8-0.4,1.1c-0.2,0.3-0.5,0.6-0.9,0.8c-0.1,0.1-0.2,0.2-0.2,0.3
				c0,0.1,0.1,0.2,0.3,0.4c0.1,0.1,0.3,0.2,0.4,0.3c0,0,0.5,0.4,1.3,1.2C62.4,81.7,62.8,82.2,63,82.6z M60.4,77.1c0-0.1,0-0.3,0-0.4
				c0-0.2-0.1-0.3-0.2-0.5c-0.1-0.1-0.3-0.2-0.6-0.2c-0.2,0-0.3,0.1-0.4,0.2c0,0.2-0.1,0.4-0.1,0.7c0,0.1,0,0.4,0,0.8
				c0,0.3,0,0.6,0,0.8C60,78.1,60.4,77.6,60.4,77.1z"/>
			<path class="st3" d="M68.5,74.9c-0.1,0.3-0.2,0.5-0.4,0.5c-0.5,0.1-1.4,0.3-2.7,0.5c-0.2,2-0.2,3.7-0.2,5c0,0.5,0,1,0,1.5
				c0,0.2,0,0.3,0,0.4C65,83,65,83,64.8,83c-0.2,0-0.4-0.1-0.6-0.3c-0.2-0.2-0.2-0.4-0.3-0.6c0-0.3,0-0.6,0-0.9c0-0.5,0-1.4,0.1-2.5
				c0.1-1.1,0.1-2,0.1-2.5c-0.2,0-0.5,0-0.9,0.1c-0.4,0.1-0.8,0.1-0.9,0.1c-0.4,0-0.7-0.1-1-0.3c-0.1-0.2-0.1-0.3-0.1-0.3
				c0-0.1,0-0.1,0.1-0.2c0.3-0.1,0.8-0.2,1.6-0.2c0.7-0.1,1.2-0.2,1.6-0.4c0.3,0.1,0.6,0.1,1,0.1c0.4,0,0.7,0,1-0.1
				c0.1,0,0.3-0.1,0.7-0.2c0.3-0.1,0.5-0.1,0.7-0.1c0.1,0,0.2,0.1,0.2,0.2C68.4,74.7,68.5,74.8,68.5,74.9z"/>
			<path class="st3" d="M71,76.4c-0.3,0.1-0.7,0.3-1.3,0.4c-0.6,0.2-1,0.3-1.3,0.4c-0.1,0.2-0.1,0.7-0.2,1.4c0.1,0,0.3,0.1,0.4,0.1
				c0.1,0,0.3,0,0.6-0.1c0.3,0,0.4-0.1,0.6-0.1c0.2,0,0.4,0,0.6,0.1c0.1,0.2,0.2,0.3,0.2,0.3c0,0.1,0,0.1-0.1,0.1
				c0,0-0.1,0.1-0.2,0.2c-0.1,0.1-0.1,0.1-0.2,0.1c-0.2,0-0.5,0.1-0.9,0.1c-0.4,0-0.7,0.1-0.9,0.1c-0.2,0.6-0.2,1.1-0.2,1.4
				c0,0.2,0,0.4,0.1,0.6c0.4,0.3,1,0.4,2,0.3c0.1,0,0.1,0,0.2-0.1c0.1-0.1,0.1-0.1,0.2-0.1c0.2,0,0.4,0.1,0.4,0.5
				c0,0.1,0,0.2-0.1,0.4c-0.1,0.1-0.2,0.2-0.3,0.2c-1,0-1.8,0-2.5-0.2c-0.2-0.1-0.4-0.2-0.6-0.4c-0.2-0.2-0.3-0.4-0.3-0.7
				c-0.1-0.7-0.1-1.3,0-1.9c-0.2-0.2-0.3-0.3-0.3-0.4c0-0.1,0.1-0.1,0.2-0.2c0.1-0.1,0.2-0.1,0.2-0.2c0-0.1,0-0.4,0.1-1.2
				c-0.5-0.1-0.7-0.3-0.7-0.5c0-0.2,0.1-0.4,0.4-0.6c0.3-0.1,0.5-0.2,0.8-0.3c0.3-0.2,0.7-0.3,1.1-0.4c0.4-0.1,0.8-0.2,1.2-0.3
				c0,0,0.1,0,0.1,0c0.2,0,0.5,0.1,0.8,0.3c0,0,0,0.1,0.1,0.2c0,0.1,0,0.2,0,0.2C71.1,76.3,71.1,76.4,71,76.4z"/>
		</g>
	</g>
	<g>
		<g>
			<g>
				<path class="st3" d="M-4,77.6h-2.5v4.7h-0.9v-4.7H-10v-0.9h6V77.6z"/>
				<path class="st3" d="M0.3,77.6h-1.2c-0.4,0-0.8,0.1-1.1,0.4c-0.3,0.3-0.4,0.6-0.4,1v3.4h-0.9v-5.6h0.9v0.7
					c0.3-0.5,0.8-0.7,1.5-0.7h1.2c0.6,0,1.1,0.1,1.5,0.4c0.4,0.3,0.6,0.7,0.7,1.3H1.5C1.5,77.9,1,77.6,0.3,77.6z"/>
				<path class="st3" d="M9.8,82.3h-1v-0.5c-0.4,0.3-0.9,0.5-1.5,0.5H5.7c-0.8,0-1.4-0.1-1.7-0.3c-0.4-0.3-0.7-0.8-0.7-1.5h0
					c0-0.7,0.2-1.2,0.7-1.4c0.3-0.2,0.9-0.3,1.7-0.3h2c0.2,0,0.3,0,0.5,0.1c0.3,0.1,0.5,0.2,0.7,0.4c0-0.7-0.1-1.1-0.3-1.3
					c-0.2-0.2-0.6-0.4-1.3-0.4H5.7c-1,0-1.4,0.3-1.4,0.8h-1c0-0.7,0.3-1.2,0.9-1.5c0.4-0.2,0.9-0.3,1.5-0.3h1.7c1,0,1.7,0.3,2.1,0.8
					c0.3,0.3,0.4,0.7,0.4,1.2c0,0.1,0,0.2,0,0.3V82.3z M7.6,79.7H5.7c-0.4,0-0.7,0-0.9,0.1c-0.3,0.1-0.5,0.4-0.5,0.8
					c0,0.4,0.2,0.6,0.5,0.7c0.2,0.1,0.5,0.1,0.9,0.1h1.6c0.6,0,0.9-0.1,1.2-0.2c0.2-0.1,0.3-0.4,0.3-0.7C8.8,80,8.4,79.7,7.6,79.7z"
					/>
				<path class="st3" d="M14.4,76.7c0.8,0,1.4,0.2,1.8,0.6c0.4,0.4,0.6,1,0.6,1.8v3.2h-0.9V79c0-0.4-0.1-0.8-0.4-1
					c-0.3-0.2-0.6-0.4-1.1-0.4h-1.2c-0.5,0-0.8,0.1-1.1,0.4c-0.3,0.2-0.4,0.6-0.4,1v3.4h-0.9v-3.2c0-0.8,0.2-1.3,0.6-1.8
					c0.4-0.4,1-0.6,1.8-0.6H14.4z"/>
				<path class="st3" d="M24.3,80.7c0,0.6-0.2,1.1-0.5,1.3c-0.3,0.2-0.7,0.3-1.4,0.3h-2.8c-1.2,0-1.8-0.5-1.8-1.6h1
					c0,0.5,0.3,0.7,1,0.7h2.4c0.3,0,0.6,0,0.8-0.1c0.2-0.1,0.3-0.3,0.3-0.7c0-0.4-0.2-0.6-0.6-0.7c-0.2-0.1-0.6-0.1-1-0.1
					c-0.2,0-0.4,0-0.8,0c-0.4,0-0.6,0-0.8,0c-0.7,0-1.2-0.1-1.6-0.3c-0.5-0.2-0.7-0.7-0.7-1.3c0-0.6,0.2-1,0.5-1.2
					c0.3-0.2,0.7-0.3,1.3-0.3h2.7c1.3,0,2,0.5,2,1.6h-1c0-0.5-0.4-0.7-1.1-0.7h-2.5c-0.6,0-0.9,0.2-0.9,0.7c0,0.5,0.5,0.8,1.6,0.8
					c0.2,0,0.4,0,0.7,0c0.3,0,0.6,0,0.7,0c0.7,0,1.3,0.1,1.6,0.3C24,79.6,24.3,80,24.3,80.7z"/>
				<path class="st3" d="M28.8,80.3H26v2h-0.9v-5.6h3.8c0.7,0,1.2,0.1,1.5,0.4c0.3,0.3,0.4,0.8,0.4,1.5c0,0.7-0.2,1.1-0.6,1.3
					C29.9,80.2,29.5,80.3,28.8,80.3z M28.8,77.7H26v1.7h2.8c0.3,0,0.6,0,0.7-0.1c0.2-0.1,0.3-0.3,0.3-0.7c0-0.4-0.1-0.6-0.2-0.7
					C29.5,77.7,29.2,77.7,28.8,77.7z"/>
				<path class="st3" d="M38.1,79.8c0,0.7-0.1,1.3-0.3,1.6c-0.2,0.3-0.5,0.6-0.9,0.7c-0.3,0.1-0.9,0.1-1.6,0.1h-1
					c-0.8,0-1.4-0.1-1.7-0.2c-0.4-0.1-0.7-0.4-0.8-0.8c-0.1-0.4-0.2-0.9-0.2-1.7c0-0.8,0.1-1.4,0.2-1.8c0.1-0.4,0.4-0.7,0.8-0.9
					c0.4-0.2,1-0.2,1.8-0.2h1c0.9,0,1.5,0.1,1.9,0.3c0.4,0.2,0.6,0.5,0.8,1C38.1,78.3,38.1,78.9,38.1,79.8z M37.2,79.8v-0.5
					c0-0.5-0.1-0.9-0.2-1.1c-0.1-0.2-0.3-0.4-0.6-0.4c-0.2,0-0.6-0.1-1.1-0.1h-0.9c-0.8,0-1.3,0.1-1.5,0.2c-0.2,0.2-0.4,0.7-0.4,1.4
					v0.5c0,0.7,0.1,1.2,0.4,1.4c0.2,0.1,0.7,0.2,1.4,0.2h1c0.5,0,0.9,0,1.1-0.1c0.3-0.1,0.5-0.2,0.6-0.4
					C37.1,80.7,37.2,80.3,37.2,79.8z"/>
				<path class="st3" d="M42.7,77.6h-1.2c-0.4,0-0.8,0.1-1.1,0.4c-0.3,0.3-0.4,0.6-0.4,1v3.4H39v-5.6H40v0.7
					c0.3-0.5,0.8-0.7,1.5-0.7h1.2c0.6,0,1.1,0.1,1.5,0.4c0.4,0.3,0.6,0.7,0.7,1.3h-0.9C43.8,77.9,43.4,77.6,42.7,77.6z"/>
				<path class="st3" d="M48.7,77.6v2.7c0,0.4,0.1,0.7,0.3,0.9c0.2,0.1,0.4,0.2,0.8,0.2v0.8h-0.1c-0.7,0-1.3-0.2-1.6-0.5
					c-0.3-0.3-0.5-0.9-0.5-1.6v-2.7h-2.5v-0.9h6.3v0.8L48.7,77.6z"/>
			</g>
			<g>
				<path class="st3" d="M57.6,81.9c0,0.1,0.1,0.2,0.1,0.3c0,0.2-0.1,0.3-0.2,0.4c-0.1,0.1-0.2,0.2-0.3,0.2c-0.4-0.1-0.6-0.4-0.8-1
					c-0.1-0.6-0.2-1.1-0.4-1.5c-0.3,0-0.5,0-0.8,0.1c-0.3,0-0.6,0.1-0.7,0.3c-0.1,0.3-0.2,0.7-0.4,1.3c-0.1,0.6-0.3,1-0.4,1.3
					c-0.1,0.1-0.2,0.2-0.4,0.1c-0.3-0.1-0.4-0.2-0.4-0.4c0-0.3,0.1-0.7,0.3-1.2c0.2-0.6,0.4-1,0.4-1.3c0-0.1,0-0.2-0.2-0.2
					c-0.1-0.1-0.2-0.2-0.2-0.2c0,0,0-0.1,0.1-0.1c0,0,0.1-0.1,0.3-0.1c0.1,0,0.2-0.1,0.2-0.1c0.1-0.4,0.4-1.2,0.7-2.3
					c0.3-1,0.5-1.7,0.7-2.2c0-0.1,0.1-0.2,0.3-0.2c0.1,0,0.2,0,0.3,0.1c0.2,0.2,0.4,0.5,0.4,0.9c0,0.3,0.1,0.7,0.1,1
					C56.8,79.1,57.2,80.7,57.6,81.9z M55.9,79.6c0-0.3-0.1-0.6-0.2-1c-0.1-0.3-0.2-0.6-0.2-1c-0.2,0.7-0.5,1.3-0.6,2
					C55,79.6,55.3,79.6,55.9,79.6z"/>
				<path class="st3" d="M63,82.6c0,0,0,0.1,0,0.1c0,0.2-0.2,0.3-0.6,0.4c-0.4-0.3-1-0.8-1.6-1.5c-0.7-0.8-1.2-1.3-1.6-1.6
					c0,0.2-0.1,0.8-0.1,1.6c0,0.7-0.1,1.2-0.2,1.6c0,0-0.1,0-0.2,0.1c-0.1,0-0.2,0.1-0.2,0C58.2,83.2,58,83,58,82.6
					c0-0.1,0-0.3,0-0.5c0-0.2,0.1-0.4,0.1-0.4c0-0.5,0.1-1,0.1-1.7v-1.3c0-1.1,0.1-2,0.2-2.8c0.1-0.5,0.6-0.7,1.4-0.7
					c0.4,0,0.8,0.2,1.1,0.7c0.3,0.4,0.4,0.8,0.4,1.3c0,0.4-0.1,0.8-0.4,1.1c-0.2,0.3-0.5,0.6-0.9,0.8c-0.1,0.1-0.2,0.2-0.2,0.3
					c0,0.1,0.1,0.2,0.3,0.4c0.1,0.1,0.3,0.2,0.4,0.3c0,0,0.5,0.4,1.3,1.2C62.4,81.7,62.8,82.2,63,82.6z M60.4,77.1
					c0-0.1,0-0.3,0-0.4c0-0.2-0.1-0.3-0.2-0.5c-0.1-0.1-0.3-0.2-0.6-0.2c-0.2,0-0.3,0.1-0.4,0.2c0,0.2-0.1,0.4-0.1,0.7
					c0,0.1,0,0.4,0,0.8c0,0.3,0,0.6,0,0.8C60,78.1,60.4,77.6,60.4,77.1z"/>
				<path class="st3" d="M68.5,74.9c-0.1,0.3-0.2,0.5-0.4,0.5c-0.5,0.1-1.4,0.3-2.7,0.5c-0.2,2-0.2,3.7-0.2,5c0,0.5,0,1,0,1.5
					c0,0.2,0,0.3,0,0.4C65,83,65,83,64.8,83c-0.2,0-0.4-0.1-0.6-0.3c-0.2-0.2-0.2-0.4-0.3-0.6c0-0.3,0-0.6,0-0.9
					c0-0.5,0-1.4,0.1-2.5c0.1-1.1,0.1-2,0.1-2.5c-0.2,0-0.5,0-0.9,0.1c-0.4,0.1-0.8,0.1-0.9,0.1c-0.4,0-0.7-0.1-1-0.3
					c-0.1-0.2-0.1-0.3-0.1-0.3c0-0.1,0-0.1,0.1-0.2c0.3-0.1,0.8-0.2,1.6-0.2c0.7-0.1,1.2-0.2,1.6-0.4c0.3,0.1,0.6,0.1,1,0.1
					c0.4,0,0.7,0,1-0.1c0.1,0,0.3-0.1,0.7-0.2c0.3-0.1,0.5-0.1,0.7-0.1c0.1,0,0.2,0.1,0.2,0.2C68.4,74.7,68.5,74.8,68.5,74.9z"/>
				<path class="st3" d="M71,76.4c-0.3,0.1-0.7,0.3-1.3,0.4c-0.6,0.2-1,0.3-1.3,0.4c-0.1,0.2-0.1,0.7-0.2,1.4c0.1,0,0.3,0.1,0.4,0.1
					c0.1,0,0.3,0,0.6-0.1c0.3,0,0.4-0.1,0.6-0.1c0.2,0,0.4,0,0.6,0.1c0.1,0.2,0.2,0.3,0.2,0.3c0,0.1,0,0.1-0.1,0.1
					c0,0-0.1,0.1-0.2,0.2c-0.1,0.1-0.1,0.1-0.2,0.1c-0.2,0-0.5,0.1-0.9,0.1c-0.4,0-0.7,0.1-0.9,0.1c-0.2,0.6-0.2,1.1-0.2,1.4
					c0,0.2,0,0.4,0.1,0.6c0.4,0.3,1,0.4,2,0.3c0.1,0,0.1,0,0.2-0.1c0.1-0.1,0.1-0.1,0.2-0.1c0.2,0,0.4,0.1,0.4,0.5
					c0,0.1,0,0.2-0.1,0.4c-0.1,0.1-0.2,0.2-0.3,0.2c-1,0-1.8,0-2.5-0.2c-0.2-0.1-0.4-0.2-0.6-0.4c-0.2-0.2-0.3-0.4-0.3-0.7
					c-0.1-0.7-0.1-1.3,0-1.9c-0.2-0.2-0.3-0.3-0.3-0.4c0-0.1,0.1-0.1,0.2-0.2c0.1-0.1,0.2-0.1,0.2-0.2c0-0.1,0-0.4,0.1-1.2
					c-0.5-0.1-0.7-0.3-0.7-0.5c0-0.2,0.1-0.4,0.4-0.6c0.3-0.1,0.5-0.2,0.8-0.3c0.3-0.2,0.7-0.3,1.1-0.4c0.4-0.1,0.8-0.2,1.2-0.3
					c0,0,0.1,0,0.1,0c0.2,0,0.5,0.1,0.8,0.3c0,0,0,0.1,0.1,0.2c0,0.1,0,0.2,0,0.2C71.1,76.3,71.1,76.4,71,76.4z"/>
			</g>
		</g>
	</g>
	<g>
		<path class="st4" d="M-0.4,49c1.8-0.1,2.8,0,2.8,1.3c0,11.3,0,11.3,0,11.3c-2.8,0-2.8,0-2.8,0c0-1.9,0-3.8,0-5.7
			c0-1.9,0-3.8,0-5.7c0-0.2-0.2-1.2-0.3-1.3H-0.4z"/>
		<path class="st4" d="M4.5,49c1.8-0.1,2.8,0,2.8,1.3c0,11.3,0,11.3,0,11.3c-2.8,0-2.8,0-2.8,0c0-1.9,0-3.8,0-5.7c0-1.9,0-3.8,0-5.7
			c0-0.2-0.2-1.2-0.3-1.3H4.5z"/>
		<path class="st4" d="M-5.3,49c1.8-0.1,2.8,0,2.8,1.3c0,11.3,0,11.3,0,11.3c-2.8,0-2.8,0-2.8,0C-5.3,49-5.3,49-5.3,49z"/>
		<path class="st4" d="M-5.3,44.1c0,2.9,0,2.9,0,2.9c11.4,0,11.4,0,11.4,0c1.9,0.2,3.3,1.7,3.3,3.6c0,11.2,0,11.2,0,11.2
			c2.8,0,2.8,0,2.8,0c0-11.2,0-11.2,0-11.2c-0.4-4.9-4-6.1-5.9-6.4C-5.3,44.1-5.3,44.1-5.3,44.1z"/>
		<g>
			<path class="st5" d="M15.5,60.4l0.5,0.7h-0.4l-0.5-0.7h-0.4v0.7h-0.3v-1.9h0.7c0.3,0,0.5,0,0.6,0.1c0.1,0.1,0.2,0.3,0.2,0.5
				C15.9,60.1,15.8,60.3,15.5,60.4z M15.1,60.1c0.2,0,0.3,0,0.4-0.1c0.1-0.1,0.1-0.1,0.1-0.3c0-0.1,0-0.2-0.1-0.3
				c-0.1,0-0.2-0.1-0.4-0.1h-0.4v0.7H15.1z"/>
		</g>
		<g>
			<path d="M15.1,61.8c-0.9,0-1.7-0.7-1.7-1.7c0-0.9,0.8-1.7,1.7-1.7c0.9,0,1.7,0.7,1.7,1.7C16.8,61.1,16,61.8,15.1,61.8z
				 M15.1,58.8c-0.7,0-1.4,0.6-1.4,1.4c0,0.8,0.6,1.4,1.4,1.4c0.8,0,1.4-0.6,1.4-1.4C16.5,59.4,15.9,58.8,15.1,58.8z"/>
		</g>
		<path d="M31.8,58.8c0,1.7,0,1.7,0,1.7c0,0.3,0.1,0.6,0.3,0.9c0.2,0.2,0.5,0.3,0.8,0.3c1.7,0,1.7,0,1.7,0c0.3,0,0.6-0.1,0.8-0.3
			c0.2-0.2,0.4-0.5,0.4-0.9c0-0.2,0-0.2,0-0.2c-0.7,0-0.7,0-0.7,0c0,0.2,0,0.2,0,0.2c0,0.2,0,0.3-0.1,0.4c-0.1,0.1-0.2,0.2-0.4,0.2
			c-1.7,0-1.7,0-1.7,0c-0.1,0-0.2-0.1-0.4-0.2c-0.1-0.1-0.1-0.2-0.1-0.4c0-0.5,0-0.5,0-0.5c1.8,0,1.8,0,1.8,0c0-0.7,0-0.7,0-0.7
			c-1.8,0-1.8,0-1.8,0c0-0.5,0-0.5,0-0.5c0-0.1,0-0.2,0.1-0.3c0.1-0.1,0.2-0.2,0.4-0.2c1.7,0,1.7,0,1.7,0c0.1,0,0.2,0.1,0.4,0.2
			c0.1,0.1,0.1,0.2,0.1,0.3c0,0.2,0,0.2,0,0.2c0.7,0,0.7,0,0.7,0c0-0.2,0-0.2,0-0.2c0-0.3-0.1-0.6-0.4-0.8c-0.2-0.2-0.5-0.3-0.8-0.3
			c-1.7,0-1.7,0-1.7,0c-0.3,0-0.6,0.1-0.8,0.3C31.9,58.2,31.8,58.5,31.8,58.8z"/>
		<polygon points="27.9,57.6 27.2,57.6 27.2,61.7 31.2,61.7 31.2,61 27.9,61 		"/>
		<rect x="45.9" y="57.6" width="0.7" height="4"/>
		<path d="M26.2,58c-0.2-0.2-0.5-0.4-0.9-0.4c-1.7,0-1.7,0-1.7,0c-0.3,0-0.6,0.1-0.8,0.4c-0.2,0.2-0.4,0.5-0.4,0.8
			c0,1.7,0,1.7,0,1.7c0,0.3,0.1,0.6,0.4,0.9c0.2,0.2,0.5,0.3,0.8,0.3c1.7,0,1.7,0,1.7,0c0.3,0,0.6-0.1,0.9-0.3
			c0.2-0.2,0.3-0.5,0.3-0.9c0-1.7,0-1.7,0-1.7C26.5,58.5,26.4,58.2,26.2,58L26.2,58z M25.8,60.5c0,0.1-0.1,0.3-0.2,0.4
			c-0.1,0.1-0.2,0.2-0.4,0.2c-1.7,0-1.7,0-1.7,0c-0.1,0-0.2-0.1-0.4-0.2c-0.1-0.1-0.1-0.2-0.1-0.4c0-1.7,0-1.7,0-1.7
			c0-0.1,0-0.2,0.1-0.4c0.1-0.1,0.2-0.1,0.4-0.1c1.7,0,1.7,0,1.7,0c0.2,0,0.3,0,0.4,0.1c0.1,0.1,0.2,0.2,0.2,0.4V60.5z"/>
		<path d="M55.2,58c-0.2-0.2-0.5-0.4-0.8-0.4c-1.7,0-1.7,0-1.7,0c-0.3,0-0.6,0.1-0.8,0.4c-0.2,0.2-0.4,0.5-0.4,0.8
			c0,1.7,0,1.7,0,1.7c0,0.3,0.1,0.6,0.4,0.9c0.2,0.2,0.5,0.3,0.8,0.3c1.7,0,1.7,0,1.7,0c0.3,0,0.6-0.1,0.8-0.3
			c0.2-0.2,0.4-0.5,0.4-0.9c0-1.7,0-1.7,0-1.7C55.6,58.5,55.5,58.2,55.2,58L55.2,58z M54.9,60.5c0,0.1,0,0.3-0.1,0.4
			c-0.1,0.1-0.2,0.2-0.4,0.2c-1.7,0-1.7,0-1.7,0c-0.1,0-0.2-0.1-0.4-0.2c-0.1-0.1-0.1-0.2-0.1-0.4c0-1.7,0-1.7,0-1.7
			c0-0.1,0-0.2,0.1-0.4c0.1-0.1,0.2-0.1,0.4-0.1c1.7,0,1.7,0,1.7,0c0.1,0,0.2,0,0.4,0.1c0.1,0.1,0.1,0.2,0.1,0.4V60.5z"/>
		<polygon points="42.7,61.7 43.4,61.7 43.4,58.3 45,58.3 45,57.6 41,57.6 41,58.3 42.7,58.3 		"/>
		<polygon points="49.2,60.8 47.8,57.6 47.1,57.6 48.9,61.7 49.6,61.7 51.3,57.6 50.6,57.6 		"/>
		<path d="M19.2,58.3c1.6,0,1.6,0,1.6,0c0.2,0,0.3,0,0.4,0.2c0.1,0.1,0.2,0.2,0.2,0.3c0,0.2,0,0.2,0,0.2c0.7,0,0.7,0,0.7,0
			c0-0.2,0-0.2,0-0.2c0-0.3-0.1-0.6-0.3-0.8c-0.2-0.2-0.5-0.3-0.9-0.3c-1.6,0-1.6,0-1.6,0c-0.3,0-0.6,0.1-0.8,0.3
			c-0.2,0.2-0.4,0.5-0.4,0.8c0,1.7,0,1.7,0,1.7c0,0.3,0.1,0.6,0.4,0.8c0.2,0.2,0.5,0.4,0.8,0.4c1.6,0,1.6,0,1.6,0
			c0.3,0,0.6-0.1,0.9-0.4c0.2-0.2,0.3-0.5,0.3-0.8c0-0.2,0-0.2,0-0.2c-0.7,0-0.7,0-0.7,0c0,0.2,0,0.2,0,0.2c0,0.1-0.1,0.2-0.2,0.4
			C21.1,60.9,21,61,20.8,61c-1.6,0-1.6,0-1.6,0c-0.3,0-0.5-0.2-0.5-0.5c0-1.7,0-1.7,0-1.7c0-0.1,0-0.2,0.1-0.3
			C18.9,58.3,19,58.3,19.2,58.3z"/>
		<path d="M37.5,58.3c1.6,0,1.6,0,1.6,0c0.2,0,0.3,0,0.4,0.2c0.1,0.1,0.2,0.2,0.2,0.3c0,0.2,0,0.2,0,0.2c0.7,0,0.7,0,0.7,0
			c0-0.2,0-0.2,0-0.2c0-0.3-0.1-0.6-0.3-0.8c-0.2-0.2-0.5-0.3-0.9-0.3c-1.6,0-1.6,0-1.6,0c-0.3,0-0.6,0.1-0.8,0.3
			c-0.2,0.2-0.4,0.5-0.4,0.8c0,1.7,0,1.7,0,1.7c0,0.3,0.1,0.6,0.4,0.8c0.2,0.2,0.5,0.4,0.8,0.4c1.6,0,1.6,0,1.6,0
			c0.3,0,0.6-0.1,0.9-0.4c0.2-0.2,0.3-0.5,0.3-0.8c0-0.2,0-0.2,0-0.2c-0.7,0-0.7,0-0.7,0c0,0.2,0,0.2,0,0.2c0,0.1-0.1,0.2-0.2,0.4
			c-0.1,0.1-0.2,0.1-0.4,0.1c-1.6,0-1.6,0-1.6,0c-0.3,0-0.5-0.2-0.5-0.5c0-1.7,0-1.7,0-1.7c0-0.1,0-0.2,0.1-0.3
			C37.2,58.3,37.4,58.3,37.5,58.3z"/>
		<path d="M32.4,46.4c0,1.6,0,1.6,0,1.6c0,0.3,0.1,0.6,0.3,0.8c0.2,0.2,0.5,0.4,0.8,0.4c1.7,0,1.7,0,1.7,0c0.3,0,0.6-0.1,0.8-0.4
			c0.2-0.2,0.3-0.5,0.3-0.8c0-0.2,0-0.2,0-0.2c-0.7,0-0.7,0-0.7,0c0,0.2,0,0.2,0,0.2c0,0.1,0,0.3-0.2,0.4c-0.1,0.1-0.2,0.1-0.3,0.1
			c-1.7,0-1.7,0-1.7,0c-0.1,0-0.2,0-0.4-0.1c-0.1-0.1-0.1-0.2-0.1-0.4c0-0.5,0-0.5,0-0.5c1.8,0,1.8,0,1.8,0c0-0.7,0-0.7,0-0.7
			c-1.8,0-1.8,0-1.8,0c0-0.5,0-0.5,0-0.5c0-0.2,0-0.3,0.1-0.4c0.1-0.1,0.2-0.2,0.4-0.2c1.7,0,1.7,0,1.7,0c0.1,0,0.2,0.1,0.3,0.2
			c0.1,0.1,0.2,0.2,0.2,0.4c0,0.2,0,0.2,0,0.2c0.7,0,0.7,0,0.7,0c0-0.2,0-0.2,0-0.2c0-0.3-0.1-0.6-0.3-0.9c-0.2-0.2-0.5-0.3-0.8-0.3
			c-1.7,0-1.7,0-1.7,0c-0.3,0-0.6,0.1-0.8,0.3C32.5,45.8,32.4,46.1,32.4,46.4z"/>
		<path d="M41.7,46.4c0,2.9,0,2.9,0,2.9c0.7,0,0.7,0,0.7,0c0-2.9,0-2.9,0-2.9c0-0.3-0.1-0.6-0.4-0.8c-0.2-0.2-0.5-0.3-0.8-0.3
			c-0.7,0-0.7,0-0.7,0c-0.3,0-0.6,0.1-0.9,0.3c-0.2-0.2-0.5-0.3-0.8-0.3c-0.7,0-0.7,0-0.7,0c-0.2,0-0.4,0-0.5,0.1c0-0.1,0-0.1,0-0.1
			c-0.7,0-0.7,0-0.7,0c0,4,0,4,0,4c0.7,0,0.7,0,0.7,0c0-2.9,0-2.9,0-2.9c0-0.1,0-0.2,0.1-0.3c0.1-0.1,0.2-0.2,0.4-0.2
			c0.7,0,0.7,0,0.7,0c0.1,0,0.2,0,0.4,0.2c0.1,0.1,0.1,0.2,0.1,0.3c0,2.9,0,2.9,0,2.9c0.7,0,0.7,0,0.7,0c0-2.9,0-2.9,0-2.9
			c0-0.1,0-0.2,0.1-0.3c0.1-0.1,0.2-0.2,0.4-0.2c0.7,0,0.7,0,0.7,0c0.1,0,0.2,0,0.4,0.2C41.7,46.1,41.7,46.3,41.7,46.4z"/>
		<path d="M19.2,47.6c1.7,0,1.7,0,1.7,0c0.2,0,0.3,0.1,0.4,0.2c0.1,0.2,0.1,0.3,0,0.5c-0.1,0.2-0.2,0.2-0.4,0.2c-1.7,0-1.7,0-1.7,0
			c-0.1,0-0.2,0-0.4-0.2c-0.1-0.1-0.1-0.2-0.1-0.3c0-0.2,0-0.2,0-0.2c-0.7,0-0.7,0-0.7,0c0,0.2,0,0.2,0,0.2c0,0.3,0.1,0.6,0.3,0.8
			c0.2,0.2,0.5,0.3,0.8,0.3c1.7,0,1.7,0,1.7,0c0.4,0,0.8-0.2,1-0.6c0.2-0.4,0.2-0.8,0-1.1c-0.2-0.4-0.6-0.6-1-0.6
			c-1.7,0-1.7,0-1.7,0c-0.2,0-0.3-0.1-0.4-0.2c-0.1-0.1-0.1-0.3,0-0.5c0.1-0.2,0.3-0.2,0.4-0.2c1.7,0,1.7,0,1.7,0
			c0.1,0,0.2,0,0.3,0.2c0.1,0.1,0.2,0.2,0.2,0.3c0,0.2,0,0.2,0,0.2c0.7,0,0.7,0,0.7,0c0-0.2,0-0.2,0-0.2c0-0.3-0.1-0.6-0.3-0.8
			c-0.2-0.2-0.5-0.3-0.8-0.3c-1.7,0-1.7,0-1.7,0c-0.4,0-0.8,0.2-1,0.6c-0.2,0.4-0.2,0.8,0,1.2C18.4,47.3,18.8,47.6,19.2,47.6z"/>
		<path d="M25,47.6c1.7,0,1.7,0,1.7,0c0.2,0,0.3,0.1,0.4,0.2c0.1,0.2,0.1,0.3,0,0.5c-0.1,0.2-0.2,0.2-0.4,0.2c-1.7,0-1.7,0-1.7,0
			c-0.1,0-0.2,0-0.4-0.2c-0.1-0.1-0.1-0.2-0.1-0.3c0-0.2,0-0.2,0-0.2c-0.7,0-0.7,0-0.7,0c0,0.2,0,0.2,0,0.2c0,0.3,0.2,0.6,0.4,0.8
			c0.2,0.2,0.5,0.3,0.8,0.3c1.7,0,1.7,0,1.7,0c0.4,0,0.8-0.2,1-0.6c0.2-0.4,0.2-0.8,0-1.1c-0.2-0.4-0.6-0.6-1-0.6
			c-1.7,0-1.7,0-1.7,0c-0.2,0-0.3-0.1-0.4-0.2c-0.1-0.1-0.1-0.3,0-0.5c0.1-0.2,0.3-0.2,0.4-0.2c1.7,0,1.7,0,1.7,0
			c0.1,0,0.2,0,0.3,0.2c0.1,0.1,0.2,0.2,0.2,0.3c0,0.2,0,0.2,0,0.2c0.7,0,0.7,0,0.7,0c0-0.2,0-0.2,0-0.2c0-0.3-0.1-0.6-0.3-0.8
			c-0.2-0.2-0.5-0.3-0.8-0.3c-1.7,0-1.7,0-1.7,0c-0.4,0-0.8,0.2-1,0.6c-0.2,0.4-0.2,0.8,0,1.2C24.2,47.3,24.6,47.6,25,47.6z"/>
		<rect x="22.7" y="45.2" width="0.7" height="4"/>
		<polygon points="29.8,49.2 30.4,49.2 30.4,45.9 32.1,45.9 32.1,45.2 28.1,45.2 28.1,45.9 29.8,45.9 		"/>
		<path d="M47.2,49.2c0-2.8,0-2.8,0-2.8c0-0.3-0.1-0.6-0.4-0.8c-0.2-0.2-0.5-0.4-0.8-0.4c-1.6,0-1.6,0-1.6,0c-0.3,0-0.6,0.1-0.8,0.3
			c-0.2,0.2-0.4,0.5-0.4,0.9c0,2.8,0,2.8,0,2.8c0.7,0,0.7,0,0.7,0c0-1.7,0-1.7,0-1.7c2.7,0,2.7,0,2.7,0c0,1.7,0,1.7,0,1.7H47.2z
			 M43.9,46.9c0-0.5,0-0.5,0-0.5c0-0.2,0.1-0.3,0.2-0.4c0.1-0.1,0.2-0.2,0.4-0.2c1.6,0,1.6,0,1.6,0c0.2,0,0.3,0.1,0.4,0.2
			c0.1,0.1,0.1,0.2,0.1,0.4c0,0.5,0,0.5,0,0.5H43.9z"/>
		<path d="M43.6,51.4c-0.2,0-0.4,0-0.5,0.1c0-0.1,0-0.1,0-0.1c-0.7,0-0.7,0-0.7,0c0,4,0,4,0,4c0.7,0,0.7,0,0.7,0c0-2.8,0-2.8,0-2.8
			c0-0.1,0.1-0.3,0.2-0.4c0.1-0.1,0.2-0.1,0.4-0.1c1.6,0,1.6,0,1.6,0c0.2,0,0.3,0,0.4,0.1c0.1,0.1,0.2,0.2,0.2,0.4
			c0,2.8,0,2.8,0,2.8c0.7,0,0.7,0,0.7,0c0-2.8,0-2.8,0-2.8c0-0.3-0.1-0.6-0.3-0.8c-0.2-0.2-0.5-0.4-0.9-0.4H43.6z"/>
		<path d="M22.4,52.6c0,1.7,0,1.7,0,1.7c0,0.3,0.1,0.6,0.3,0.8c0.2,0.2,0.5,0.4,0.9,0.4c1.6,0,1.6,0,1.6,0c0.3,0,0.6-0.1,0.9-0.4
			c0.2-0.2,0.3-0.5,0.3-0.8c0-0.2,0-0.2,0-0.2c-0.7,0-0.7,0-0.7,0c0,0.2,0,0.2,0,0.2c0,0.1-0.1,0.2-0.2,0.4
			c-0.1,0.1-0.2,0.1-0.4,0.1c-1.6,0-1.6,0-1.6,0c-0.2,0-0.3,0-0.4-0.1c-0.1-0.1-0.2-0.2-0.2-0.4c0-0.5,0-0.5,0-0.5
			c1.8,0,1.8,0,1.8,0c0-0.7,0-0.7,0-0.7c-1.8,0-1.8,0-1.8,0c0-0.5,0-0.5,0-0.5c0-0.1,0-0.2,0.2-0.4c0.1-0.1,0.2-0.1,0.4-0.1
			c1.6,0,1.6,0,1.6,0c0.2,0,0.3,0,0.4,0.2c0.1,0.1,0.2,0.2,0.2,0.3c0,0.2,0,0.2,0,0.2c0.7,0,0.7,0,0.7,0c0-0.2,0-0.2,0-0.2
			c0-0.3-0.1-0.6-0.3-0.8c-0.2-0.2-0.5-0.3-0.9-0.3c-1.6,0-1.6,0-1.6,0c-0.3,0-0.6,0.1-0.9,0.3C22.5,52,22.4,52.3,22.4,52.6z"/>
		<path d="M69.9,52.5c0,1.7,0,1.7,0,1.7c0,0.3,0.1,0.6,0.3,0.8c0.2,0.2,0.5,0.3,0.8,0.3c1.7,0,1.7,0,1.7,0c0.3,0,0.6-0.1,0.8-0.3
			c0.2-0.2,0.4-0.5,0.4-0.8c0-0.2,0-0.2,0-0.2c-0.7,0-0.7,0-0.7,0c0,0.2,0,0.2,0,0.2c0,0.1,0,0.2-0.1,0.4c-0.1,0.1-0.2,0.1-0.4,0.1
			c-1.7,0-1.7,0-1.7,0c-0.1,0-0.2,0-0.3-0.1c-0.1-0.1-0.2-0.2-0.2-0.4c0-0.5,0-0.5,0-0.5c1.8,0,1.8,0,1.8,0c0-0.7,0-0.7,0-0.7
			c-1.8,0-1.8,0-1.8,0c0-0.5,0-0.5,0-0.5c0-0.1,0-0.2,0.2-0.4c0.1-0.1,0.2-0.1,0.3-0.1c1.7,0,1.7,0,1.7,0c0.1,0,0.3,0,0.4,0.1
			c0.1,0.1,0.1,0.2,0.1,0.4c0,0.2,0,0.2,0,0.2c0.7,0,0.7,0,0.7,0c0-0.2,0-0.2,0-0.2c0-0.3-0.1-0.6-0.4-0.8c-0.2-0.2-0.5-0.4-0.8-0.4
			c-1.7,0-1.7,0-1.7,0c-0.3,0-0.6,0.1-0.8,0.4C70,51.9,69.9,52.2,69.9,52.5z"/>
		<path d="M47.9,53.7c1.7,0,1.7,0,1.7,0c0.2,0,0.3,0.1,0.4,0.3c0.1,0.1,0.1,0.3,0,0.5c-0.1,0.2-0.2,0.2-0.4,0.2c-1.7,0-1.7,0-1.7,0
			c-0.1,0-0.3,0-0.4-0.2c-0.1-0.1-0.1-0.2-0.1-0.3c0-0.2,0-0.2,0-0.2c-0.7,0-0.7,0-0.7,0c0,0.2,0,0.2,0,0.2c0,0.3,0.1,0.6,0.4,0.8
			c0.2,0.2,0.5,0.3,0.8,0.3c1.7,0,1.7,0,1.7,0c0.4,0,0.8-0.2,1-0.6c0.2-0.4,0.2-0.8,0-1.2c-0.2-0.4-0.6-0.6-1-0.6
			c-1.7,0-1.7,0-1.7,0c-0.2,0-0.4-0.1-0.4-0.2c-0.1-0.2-0.1-0.3,0-0.5c0.1-0.2,0.2-0.2,0.4-0.2c1.7,0,1.7,0,1.7,0
			c0.1,0,0.2,0,0.3,0.1c0.1,0.1,0.2,0.2,0.2,0.4c0,0.2,0,0.2,0,0.2c0.7,0,0.7,0,0.7,0c0-0.2,0-0.2,0-0.2c0-0.3-0.1-0.6-0.3-0.8
			c-0.2-0.2-0.5-0.4-0.8-0.4c-1.7,0-1.7,0-1.7,0c-0.4,0-0.8,0.2-1,0.6c-0.2,0.3-0.2,0.8,0,1.1C47,53.5,47.4,53.7,47.9,53.7z"/>
		<path d="M21.7,51.8c-0.2-0.2-0.5-0.3-0.9-0.3c-2.8,0-2.8,0-2.8,0c0,4,0,4,0,4c2.8,0,2.8,0,2.8,0c0.3,0,0.6-0.1,0.9-0.4
			c0.2-0.2,0.3-0.5,0.3-0.8c0-1.7,0-1.7,0-1.7C22,52.3,21.9,52.1,21.7,51.8L21.7,51.8z M21.3,54.3c0,0.2,0,0.3-0.1,0.4
			c-0.1,0.1-0.2,0.2-0.4,0.2c-2.2,0-2.2,0-2.2,0c0-2.7,0-2.7,0-2.7c2.2,0,2.2,0,2.2,0c0.1,0,0.2,0,0.4,0.1c0.1,0.1,0.1,0.2,0.1,0.4
			V54.3z"/>
		<path d="M37.3,55.4c0-1.2,0-1.2,0-1.2c0-0.3-0.1-0.6-0.4-0.8c0.3-0.4,0.4-0.9,0.3-1.3c-0.2-0.4-0.6-0.7-1.1-0.7
			c-2.9,0-2.9,0-2.9,0c0,4,0,4,0,4c0.7,0,0.7,0,0.7,0c0-1.7,0-1.7,0-1.7c2.2,0,2.2,0,2.2,0c0.1,0,0.2,0,0.4,0.1
			c0.1,0.1,0.1,0.2,0.1,0.4c0,1.2,0,1.2,0,1.2H37.3z M36.6,52.8C36.5,53,36.3,53,36.1,53C34,53,34,53,34,53c0-1,0-1,0-1
			c2.2,0,2.2,0,2.2,0c0.2,0,0.3,0.1,0.4,0.2C36.7,52.5,36.7,52.6,36.6,52.8z"/>
		<path d="M64.3,53.4c0.3-0.3,0.4-0.8,0.2-1.3c-0.2-0.4-0.6-0.7-1.1-0.7c-2.9,0-2.9,0-2.9,0c0,4,0,4,0,4c0.7,0,0.7,0,0.7,0
			c0-1.7,0-1.7,0-1.7c2.2,0,2.2,0,2.2,0c0.1,0,0.2,0.1,0.3,0.2c0.1,0.1,0.2,0.2,0.2,0.4c0,1.1,0,1.1,0,1.1c0.7,0,0.7,0,0.7,0
			c0-1.1,0-1.1,0-1.1C64.6,53.9,64.5,53.6,64.3,53.4L64.3,53.4z M63.9,52.8C63.8,53,63.6,53,63.5,53c-2.2,0-2.2,0-2.2,0c0-1,0-1,0-1
			c2.2,0,2.2,0,2.2,0c0.2,0,0.3,0.1,0.4,0.3C64,52.4,64,52.6,63.9,52.8z"/>
		<path d="M59.5,51.7c-0.2-0.2-0.5-0.3-0.9-0.3c-1.7,0-1.7,0-1.7,0c-0.3,0-0.6,0.1-0.8,0.3c-0.2,0.2-0.3,0.5-0.3,0.9
			c0,1.7,0,1.7,0,1.7c0,0.3,0.1,0.6,0.3,0.8c0.2,0.2,0.5,0.4,0.8,0.3c1.7,0,1.7,0,1.7,0c0.3,0,0.6-0.1,0.9-0.3
			c0.2-0.2,0.3-0.5,0.3-0.8c0-1.7,0-1.7,0-1.7C59.9,52.2,59.7,51.9,59.5,51.7L59.5,51.7z M59.2,54.2c0,0.1-0.1,0.2-0.2,0.4
			c-0.1,0.1-0.2,0.1-0.4,0.1c-1.7,0-1.7,0-1.7,0c-0.1,0-0.2,0-0.3-0.1c-0.1-0.1-0.2-0.2-0.2-0.4c0-1.7,0-1.7,0-1.7
			c0-0.2,0-0.3,0.1-0.4c0.1-0.1,0.2-0.2,0.4-0.2c1.7,0,1.7,0,1.7,0c0.2,0,0.3,0.1,0.4,0.2c0.1,0.1,0.2,0.2,0.2,0.4V54.2z"/>
		<polygon points="30.6,55.4 31.2,55.4 31.2,52.1 32.9,52.1 32.9,51.4 28.9,51.4 28.9,52.1 30.6,52.1 		"/>
		<polygon points="67.2,55.4 67.8,55.4 67.8,52 69.5,52 69.5,51.4 65.5,51.4 65.5,52 67.2,52 		"/>
		<path d="M55.3,52c-0.2-0.3-0.6-0.6-1-0.6c-2.8,0-2.8,0-2.8,0c0,4,0,4,0,4c0.7,0,0.7,0,0.7,0c0-1.7,0-1.7,0-1.7c2.2,0,2.2,0,2.2,0
			c0.4,0,0.8-0.2,1-0.6C55.5,52.8,55.5,52.3,55.3,52L55.3,52z M54.8,52.8c-0.1,0.2-0.2,0.2-0.4,0.2c-2.2,0-2.2,0-2.2,0c0-1,0-1,0-1
			c2.2,0,2.2,0,2.2,0c0.2,0,0.4,0.1,0.4,0.3C54.8,52.5,54.8,52.7,54.8,52.8z"/>
		<path d="M41.7,55.4c0-2.8,0-2.8,0-2.8c0-0.3-0.1-0.6-0.3-0.8c-0.2-0.2-0.5-0.4-0.8-0.4c-1.7,0-1.7,0-1.7,0c-0.3,0-0.6,0.1-0.8,0.4
			c-0.2,0.2-0.3,0.5-0.3,0.8c0,2.8,0,2.8,0,2.8c0.7,0,0.7,0,0.7,0c0-1.7,0-1.7,0-1.7c2.7,0,2.7,0,2.7,0c0,1.7,0,1.7,0,1.7H41.7z
			 M38.4,53.1c0-0.5,0-0.5,0-0.5c0-0.1,0-0.3,0.2-0.4c0.1-0.1,0.2-0.1,0.3-0.1c1.7,0,1.7,0,1.7,0c0.1,0,0.2,0,0.3,0.1
			c0.1,0.1,0.2,0.2,0.2,0.4c0,0.5,0,0.5,0,0.5H38.4z"/>
	</g>
</g>
</svg>
