<?xml version="1.0" encoding="utf-8"?>
<!-- Generator: Adobe Illustrator 19.0.0, SVG Export Plug-In . SVG Version: 6.00 Build 0)  -->
<svg version="1.1" id="Layer_1" xmlns="http://www.w3.org/2000/svg" xmlns:xlink="http://www.w3.org/1999/xlink" x="0px" y="0px"
	 viewBox="-295 273.3 200 83" style="enable-background:new -295 273.3 200 83;" xml:space="preserve">
<style type="text/css">
	.st0{fill-rule:evenodd;clip-rule:evenodd;fill:#231F20;}
</style>
<path class="st0" d="M-206.1,316.3v-15.8c0-0.1,0-0.1-0.1-0.1h-30.6c0,0-0.1,0-0.1,0.1v15.8c0,0,0,0,0,0c0.1,5.5,1.7,10.7,4.5,14.9
	c2.8,4.1,6.6,7.1,10.8,8.2c0,0,0,0,0,0c4.2-1.2,8-4.1,10.8-8.2C-207.9,327-206.3,321.9-206.1,316.3
	C-206.1,316.3-206.1,316.3-206.1,316.3 M-206.8,316.2C-206.8,316.2-206.8,316.3-206.8,316.2c-0.3,11-6.3,20.3-14.7,22.7
	c-8.4-2.4-14.5-11.7-14.7-22.6c0,0,0-0.1,0-0.1V301h29.5V316.2z"/>
<path class="st0" d="M-221.5,335.2C-221.5,335.2-221.5,335.2-221.5,335.2c6.6-2.4,11.3-10.2,11.5-19c0-0.1,0-0.1,0-0.2v-11.5
	c0,0,0-0.1-0.1-0.1h-22.8c0,0-0.1,0-0.1,0.1V316c0,0,0,0.1,0,0.2C-232.8,324.9-228.1,332.7-221.5,335.2 M-221.5,334.5
	c-6.2-2.4-10.7-10-10.9-18.3c0-0.1,0-0.1,0-0.2c0,0,0-8.8,0-10.7c0.1,0.1,0.1,0.3,0.2,0.4c0.2,0.3,0.6,1,0.6,1s0,0.3-0.1,0.4
	c-0.1,0,0.2,0.2,0.3,0.4c0.1,0.1,0.3,0.5,0.5,0.6c0.2,0,0.2-0.2,0.1-0.4c-0.1-0.2-0.4-0.8-0.4-0.8s-0.1-0.3-0.2-0.6
	c-0.1-0.3-0.3-0.7-0.3-0.7s0.7,0.2,0.8,0.6c0,0.2,0.3,1.2,0.5,1.8c0.1,0.3,0.4,0.6,0.6,0.9c0.2,0.3,0.7,0.8,1.3,1
	c0.6,0.2,1.3-0.2,1.6,0c0.3,0.2,0.9,0.8,1.3,0.9c0.4,0.1,1.4,0.3,1.7,0.8c0.2,0.4,0.7,0.5,1,0.5c0.3,0,1.1,0.4,1.1,1.2l-0.7,1.4
	c0,0-0.5,0.6-0.6,1.1c-0.1,0.5-0.4,0.8,0.2,1.6c0.5,0.8,0.9,1.7,0.9,2.4c0,0.7,0.7,0.8,1.1,1.1c0.4,0.3,0,0.6-0.3,1.3
	c-0.3,0.7-0.1,2-0.4,2.9c-0.3,0.9-0.6,1.2-0.6,1.9c0,0.7,0,1.4-0.2,2c-0.3,0.6-0.1,1.2-0.1,1.8c0,0.7,0.1,1.4,0.6,2
	c0.4,0.6,1.4,0.8,1.3,0c-0.1-0.9,0-2,0.6-2.6l0.5-0.6c0,0-0.1-0.8,0.4-1.2c0.5-0.4,0.9-0.6,0.6-0.7c-0.3-0.1,0-0.4,0.3-0.4
	c0.3,0,0.4,0.1,1.1-0.7c0.7-0.8,0.9-1,1.6-1.4c0.7-0.4,1-1.2,1.4-1.6c0.4-0.4,1.2-0.8,1.7-0.9c0.5-0.1,0.7-0.6,0.7-1.1
	c0-0.6-0.2-1,0.2-1.6c0.4-0.6,0.2-0.7,0.5-1C-211.8,326.1-216,332.3-221.5,334.5 M-210.6,316c0,0,0,0.1,0,0.2c0,0.3,0,0.7-0.1,1
	c-0.3-0.3-0.8-0.5-1.1-0.9c-0.3-0.4-0.8-0.7-1-0.7c-0.2-0.1-0.3-0.3-0.7-0.2c-0.5,0.1-0.9,0-1-0.5c-0.1-0.5,0-1-0.5-1.2
	c-0.5-0.3-0.8-0.6-1.1-0.8c-0.3-0.3-0.7-0.7-0.8-0.8c-0.1,0-1,0-1,0s-0.5-0.5-1.3-0.3c0,0-0.5-0.7-1-0.3c-0.5,0.4-1,0.7-1.3,0.3
	c-0.3-0.4-0.8-0.2-1.2-0.2c-0.3,0-0.7-0.6-0.7-0.8c-0.1-0.3,0-0.7-0.1-0.7c-0.1,0-0.7,0.2-1-0.1c-0.4-0.3-0.2-0.5,0-0.7
	c0.1-0.2,0.3-1.1,0.2-1.3l-0.4,0c0,0-0.5-0.1-0.6,0.3c-0.1,0.4-0.7,0.7-1.2,0.6c-0.5-0.1-0.8-0.4-1-0.9c-0.2-0.5-0.1-0.8,0-1
	c0.1-0.3-0.3-0.7-0.4-0.9c-0.1-0.1-0.1,0.1-0.4-0.4c-0.1-0.2-0.3-0.4-0.5-0.6h18.4V316z"/>
<path class="st0" d="M-230,287.8c-0.6-0.3-1.2-0.2-1.5,0.1c-0.2,0.2-0.2,0.2-0.3,0.3c-0.1,0-1,0-1.4,0.4c-0.2,0.2-0.2,0.6-0.1,1
	c0.5,1.4,0.6,1.7,0.6,1.7c0,0,0,0,0,0c0,0,0.9,0.9,0.5,1.8c-0.4,0.9-0.4,1.2,0.2,1.4c0.4,0.2,0.6,0.5,0.6,1.4v0.1
	c0,0.6,0,1.2,0.3,1.5c0.2,0.2,0.4,0.2,0.7,0.2c0.2,0,0.4-0.1,0.5-0.2c0.4-0.5,0.3-1.7,0.2-2.3c-0.1-0.5-0.4-1.6,0-1.9
	c0.4-0.3,0.6-0.4,0.8-0.1c0,0,0,0,0.1,0c0.2,0,0.5-0.2,0.5-0.6c0-0.2-0.1-0.3-0.1-0.4c0,0,0,0,0,0c0,0,0.1,0,0.2,0
	c0.3,0.1,0.5,0,0.6-0.2c0.1-0.2,0.2-0.4,0.1-0.6c-0.2-0.4-0.8-1.5-1.3-1.9l-0.1-0.1c-0.3-0.3-0.3-0.3-0.3-0.5
	C-229.1,288.5-229.4,288.1-230,287.8 M-228.8,292.4C-228.8,292.4-228.7,292.5-228.8,292.4c-0.4-0.1-0.9,0.2-1.1,0.4
	c-0.6,0.5-0.4,1.5-0.2,2.5c0.2,0.7,0.2,1.6-0.1,1.8c0,0,0,0-0.1,0c-0.1,0-0.2,0-0.3-0.1c-0.1-0.1-0.1-0.7-0.1-1.1v-0.1
	c0-1-0.2-1.5-0.9-1.8c-0.1,0-0.1-0.1-0.1-0.1c0,0,0-0.2,0.2-0.6c0.5-1-0.3-2-0.6-2.3c-0.1-0.2-0.2-0.7-0.6-1.6
	c-0.1-0.2-0.1-0.4,0-0.5c0.1-0.2,0.7-0.2,0.9-0.2c0,0,0.1,0,0.1,0c0.1,0,0.3-0.1,0.6-0.4c0.1-0.1,0.4-0.2,0.8,0
	c0.5,0.2,0.6,0.4,0.6,0.5c0,0.5,0.1,0.6,0.4,0.9l0.1,0.1c0.4,0.4,1,1.3,1.2,1.7c0,0,0,0.1,0,0.1c0,0,0,0-0.1,0
	c-0.2-0.1-0.5-0.1-0.7,0.1C-228.9,292-228.8,292.3-228.8,292.4"/>
<path class="st0" d="M-231.1,289.8c-0.3,0-0.5,0.2-0.5,0.5c0,0.3,0.2,0.5,0.5,0.5c0.3,0,0.5-0.2,0.5-0.5
	C-230.6,290-230.8,289.8-231.1,289.8"/>
<path class="st0" d="M-235.9,290c-0.1,0-2.1,0.5-2.1,1.9c0,1.3,1.3,1.4,1.3,1.4c0,0,0.1,0,0.1,0c0,0,0-0.1,0-0.1
	c-0.2-0.2-0.3-0.4-0.2-0.6c0-0.2,0.2-0.3,0.4-0.4c0.2-0.1,0.5-0.3,0.5-0.6c-0.1-0.6,0.2-1.4,0.2-1.4
	C-235.8,290.1-235.8,290.1-235.9,290C-235.9,290-235.9,290-235.9,290 M-237.4,292.4c-0.1-0.1-0.1-0.3-0.1-0.5c0-0.5,0.5-0.8,1-1.1
	c0,0.3,0,0.5,0,0.7c0,0-0.2,0.1-0.2,0.1C-236.9,291.8-237.3,292-237.4,292.4"/>
<path class="st0" d="M-234.8,292.3c-0.8,0.4-1.4,0.8-1.4,0.8c0,0,0,0.1,0,0.1c0,0,0,0.1,0.1,0.1c0.3,0.1,2.6,0.6,3,0.5
	c0.2,0,0.7-0.2,0.9-0.7c0.2-0.4,0.1-0.9-0.3-1.5c-0.7-1.3-1.1-2.3-1.1-2.3c0,0-0.1-0.1-0.1,0c0,0-2.2,0.5-1.8,2.6c0,0,0,0.1,0.1,0.1
	h0.8c0.1,0,0.3,0.1,0.3,0.2C-234.5,292.1-234.5,292.2-234.8,292.3 M-234,292c-0.1-0.5-0.6-0.6-0.7-0.6c0,0-0.1,0-0.1,0h-0.3
	c0-0.8,0.7-1.3,1.1-1.5c0.2,0.4,0.5,1.1,0.9,1.9c0,0,0,0,0,0c0.2,0.3,0.4,0.7,0.3,1c-0.1,0.3-0.4,0.4-0.5,0.4
	c-0.1,0-0.8-0.1-1.6-0.3c0.1-0.1,0.2-0.1,0.4-0.2C-234.4,292.7-233.9,292.4-234,292"/>
<path class="st0" d="M-231.2,297.8c0-0.1-0.1-0.1-0.2-0.2l-0.5-0.3c0,0,0,0,0,0c0,0-0.3-0.1-0.6,0.2l-2.3,1.7
	c-0.1,0-0.3,0.2-0.2,0.4c0,0.1,0.1,0.1,0.2,0.1c0.3,0.1,1.3,0.2,1.4,0.2c0,0,0.5,0,0.7-0.2c0.2-0.2,1.2-1.4,1.3-1.5
	C-231.3,298.2-231.1,298-231.2,297.8 M-233,299.4c0,0-0.2,0-0.3,0l-0.6-0.1l1.8-1.3c0,0,0,0,0.1,0c0,0,0,0,0.1,0l0.2,0.1
	C-232.2,298.5-232.8,299.2-233,299.4"/>
<path class="st0" d="M-232.1,300c0.4,0,0.9,0.1,0.9,0.1c0.1,0,0.4,0,0.6-0.4l0.6-1.2c0,0,0.1-0.2,0.1-0.3c0-0.1-0.1-0.1-0.2-0.2
	c-0.3-0.1-0.4-0.1-0.4-0.1c0,0-0.4-0.1-0.5,0.1c-0.1,0.2-1.1,1.4-1.1,1.4c0,0-0.2,0.2-0.1,0.4C-232.3,300-232.2,300-232.1,300
	 M-231.2,299.6c0,0-0.2,0-0.5,0c0.3-0.3,0.7-0.9,0.9-1.1c0,0,0.1,0,0.2,0c-0.1,0.3-0.5,1-0.5,1
	C-231.1,299.6-231.1,299.6-231.2,299.6"/>
<path class="st0" d="M-229.8,300.2h0.7c0.2,0,0.5-0.1,0.5-0.5v-1.3c0,0,0,0,0,0c0,0-0.1-0.2-0.5-0.2c-0.3,0-0.4,0-0.4,0
	c0,0-0.3,0-0.4,0.3c-0.1,0.2-0.5,1.1-0.5,1.1c0,0-0.1,0.2,0,0.4C-230.2,300.1-230.1,300.2-229.8,300.2 M-229.1,299.6L-229.1,299.6
	l-0.7,0h0c0.1-0.2,0.3-0.7,0.4-1c0.1,0,0.2,0,0.3,0V299.6z"/>
<path class="st0" d="M-226.4,300.1l0.7-0.1c0,0,0.1,0,0.2-0.1c0.1-0.1,0.1-0.2,0-0.4c-0.2-0.4-0.9-2-1-2c0,0,0,0,0,0
	c0,0-0.2-0.2-0.3-0.1c0,0,0,0,0,0l-0.4,0.3c-0.1,0-0.2,0.2-0.1,0.4c0.1,0.3,0.5,1.7,0.5,1.7c0,0,0,0,0,0
	C-226.9,299.9-226.8,300.1-226.4,300.1 M-226.9,298c0.2,0.4,0.5,1.1,0.7,1.5c-0.1,0-0.3,0-0.3,0h0
	C-226.6,299.3-226.8,298.4-226.9,298L-226.9,298z"/>
<path class="st0" d="M-228.2,300.2c0.2,0,0.9,0,0.9,0c0,0,0.2,0,0.2-0.1c0.1-0.1,0.1-0.2,0-0.3l-0.6-1.6c0,0,0,0,0,0
	c0-0.1-0.2-0.3-0.4-0.2c-0.2,0.1-0.4,0.1-0.4,0.1c0,0,0,0,0,0c0,0-0.1,0.1-0.1,0.3c0,0.2,0.1,1.4,0.1,1.5
	C-228.5,300-228.4,300.2-228.2,300.2 M-228,299.6c0-0.4,0-0.9-0.1-1.2h0l0.4,1.2L-228,299.6z"/>
<path class="st0" d="M-225.1,300c0.3,0,0.6-0.1,0.7-0.1c0,0,0.2,0,0.3-0.2c0.1-0.1,0.1-0.3-0.1-0.6c-0.3-0.6-1.4-2.3-1.5-2.5
	c0,0-0.1-0.1-0.2-0.2c-0.1,0-0.2,0-0.2,0.1c0,0-0.4,0.4-0.4,0.4c-0.1,0.1-0.2,0.3-0.1,0.5c0.1,0.3,1,2.1,1,2.1c0,0,0,0,0,0
	C-225.5,299.8-225.3,300-225.1,300 M-226,297.4c0,0,0.1-0.1,0.2-0.1c0.3,0.5,1,1.7,1.3,2.1c-0.1,0-0.3,0.1-0.5,0.1
	C-225.2,299.2-225.9,297.7-226,297.4"/>
<path class="st0" d="M-239,318.9c-1.2-0.5-2.2-0.1-2.2,0.9c0,2.4,4.9,2,4.1-2.1c-0.5-2.4-1.9-5.4-2.2-9.8c-0.4-4.4,2-5.9,2-5.9V301
	c-3.7,1.8-3,9.9-1.9,13.6C-238.1,318.3-239,318.9-239,318.9"/>
<path class="st0" d="M-201.7,319.8c0-1-1.1-1.5-2.2-0.9c0,0-0.8-0.6,0.3-4.3c1.1-3.7,1.9-11.8-1.9-13.6v1.1c0,0,2.4,1.4,2,5.9
	c-0.4,4.4-1.8,7.4-2.2,9.8C-206.6,321.9-201.7,322.2-201.7,319.8"/>
<path class="st0" d="M-240.4,322.3l-2.3,1.9c-2.7-2.1-3.8,0.4-3.8,0.4c1-0.2,1.8,0.1,1.8,0.1c-2.1,0.6-1.5,1.9-1.5,1.9
	s2.1-1.3,3,0.2c1.1,1.9-0.3,3.3-0.3,3.3c3.5,0,2.3-4.7,2.3-4.7l3.1-3H-240.4z"/>
<path class="st0" d="M-196.9,324.5c0,0-1.2-2.4-3.8-0.4l-2.3-1.9h-2.2l3.1,3c0,0-1.2,4.7,2.3,4.7c0,0-1.4-1.4-0.3-3.3
	c0.9-1.4,3-0.2,3-0.2s0.5-1.3-1.5-1.9C-198.6,324.6-197.9,324.3-196.9,324.5"/>
<path class="st0" d="M-237.4,304.7l0-1.9c-0.1,0.4-0.4,0.6-0.7,0.8c-0.3,0.2-0.2,0.4-0.2,0.4C-237.6,304.1-237.4,304.7-237.4,304.7"
	/>
<path class="st0" d="M-237.8,309.6c0.1,1.3,0.5,0.8,0.5,0.8s-0.1-2.1-0.1-2.5c0-0.4-1.3-0.2-1.3,0.2c0,0.4,0.2,2.2,0.2,2.2l0.4-0.1
	l-0.1-1.6C-238.3,308.7-238,308.3-237.8,309.6"/>
<path class="st0" d="M-237.6,313.9c0.3,0.4,0.4-1.7,0.3-2.1c0,0-0.9-0.3-0.8,0.2C-238.1,312.5-238,313.4-237.6,313.9"/>
<path class="st0" d="M-238.8,305.9c0,0.4,1.3,0.2,1.3,0.2v-0.7C-237.5,305.4-238.8,305.2-238.8,305.9"/>
<path class="st0" d="M-237.5,307.1v-0.7c0,0-1.3-0.2-1.3,0.4C-238.8,307.3-237.5,307.1-237.5,307.1"/>
<path class="st0" d="M-234.1,330c0-0.2-0.2-0.4-0.4-0.4c-0.2,0-0.4,0.2-0.4,0.4c0,0.2,0.2,0.4,0.4,0.4
	C-234.3,330.4-234.1,330.2-234.1,330"/>
<path class="st0" d="M-204.5,325.8c-0.2,0-0.4,0.2-0.4,0.4c0,0.2,0.2,0.4,0.4,0.4c0.2,0,0.4-0.2,0.4-0.4
	C-204.2,326-204.3,325.8-204.5,325.8"/>
<path class="st0" d="M-205.5,326.4c0-0.2-0.2-0.4-0.4-0.4c-0.2,0-0.4,0.2-0.4,0.4c0,0.2,0.2,0.4,0.4,0.4
	C-205.6,326.8-205.5,326.6-205.5,326.4"/>
<path class="st0" d="M-206.6,326.6c0-0.2-0.2-0.4-0.4-0.4c-0.2,0-0.4,0.2-0.4,0.4c0,0.2,0.2,0.4,0.4,0.4
	C-206.8,326.9-206.6,326.8-206.6,326.6"/>
<path class="st0" d="M-238.1,333.4l0.2-2.3c0,0-0.2-0.5-0.9-0.1l-0.1,1.8c0,0-0.4,0.7-1.2-0.1l0.1-1.8c0,0-0.3-0.4-0.8-0.1l-0.1,2.4
	C-240.9,333.1-239.8,334.6-238.1,333.4"/>
<path class="st0" d="M-239.4,332.4c0.1,0,0.2-0.1,0.3-0.2l0-0.8c0-0.1-0.1-0.3-0.2-0.3c-0.1,0-0.2,0.1-0.3,0.2l0,0.8
	C-239.7,332.3-239.6,332.4-239.4,332.4"/>
<path class="st0" d="M-234.8,333.8l0.2-2.2c0,0-0.2-0.4-0.8-0.1l-0.1,1.7c0,0-0.4,0.6-1.2-0.1l0.1-1.7c0,0-0.3-0.4-0.8-0.1l-0.1,2.3
	C-237.6,333.6-236.5,335-234.8,333.8"/>
<path class="st0" d="M-236.1,333c0.1,0,0.2-0.1,0.2-0.2l0-0.7c0-0.1-0.1-0.2-0.2-0.2c-0.1,0-0.2,0.1-0.2,0.2l0,0.7
	C-236.3,332.8-236.2,332.9-236.1,333"/>
<path class="st0" d="M-231.9,334.1l0.1-1.2c0,0-0.1-0.6-0.7-0.2l-0.1,0.5c0,0-0.3,0.4-0.3-0.3l0.1-0.7c0,0-0.2-0.2-0.4,0.1l0,0.9
	c0,0-0.2,0.2-0.4,0l0.1-1.3c0,0-0.2-0.5-0.7-0.1l-0.1,2C-234.3,333.8-233.5,335.2-231.9,334.1"/>
<path class="st0" d="M-239.4,329.2c0-0.2-0.2-0.4-0.4-0.4c-0.2,0-0.4,0.2-0.4,0.4c0,0.2,0.2,0.4,0.4,0.4
	C-239.6,329.6-239.4,329.4-239.4,329.2"/>
<path class="st0" d="M-237.5,329.5c0-0.2-0.2-0.4-0.4-0.4c-0.2,0-0.4,0.2-0.4,0.4c0,0.2,0.2,0.4,0.4,0.4
	C-237.7,329.8-237.5,329.7-237.5,329.5"/>
<path class="st0" d="M-236,329.7c0-0.2-0.2-0.4-0.4-0.4c-0.2,0-0.4,0.2-0.4,0.4c0,0.2,0.2,0.4,0.4,0.4
	C-236.2,330.1-236,329.9-236,329.7"/>
<path class="st0" d="M-237.9,323l0,1.4l0.9,0.7C-237,325.1-236.5,323.4-237.9,323"/>
<path class="st0" d="M-236.6,326.6c-0.1,0.1-0.3,0.4-0.4-0.1c-0.1-0.5-0.5-0.4-0.7-0.4c-0.2,0-0.5,0.8-0.7,0.3
	c-0.2-0.6-0.3-0.9-1-0.8v1.4l3.6,0.8c0,0,0-1-0.2-1.1C-236.1,326.5-236.5,326.4-236.6,326.6"/>
<path class="st0" d="M-235.6,328.4c0,0-2.4-0.7-3.6-0.8l0,0.6l3.7,0.9C-235.5,329-235.4,328.9-235.6,328.4"/>
<path class="st0" d="M-202.3,333.1l-0.1-2.4c-0.5-0.3-0.8,0.1-0.8,0.1l0.1,1.8c-0.8,0.7-1.2,0.1-1.2,0.1l-0.1-1.8
	c-0.7-0.3-0.9,0.1-0.9,0.1l0.2,2.3C-203.4,334.6-202.3,333.1-202.3,333.1"/>
<path class="st0" d="M-204.1,332.2c0,0.1,0.1,0.2,0.3,0.2c0.1,0,0.2-0.1,0.2-0.2l0-0.8c0-0.1-0.1-0.2-0.3-0.2
	c-0.1,0-0.2,0.1-0.2,0.3L-204.1,332.2z"/>
<path class="st0" d="M-205.7,333.6l-0.1-2.3c-0.5-0.2-0.8,0.1-0.8,0.1l0.1,1.7c-0.8,0.7-1.2,0.1-1.2,0.1l-0.1-1.7
	c-0.6-0.3-0.8,0.1-0.8,0.1l0.2,2.2C-206.8,335-205.7,333.6-205.7,333.6"/>
<path class="st0" d="M-207.2,331.8c-0.1,0-0.2,0.1-0.2,0.2l0,0.7c0,0.1,0.1,0.2,0.2,0.2c0.1,0,0.2-0.1,0.2-0.2l0-0.7
	C-207,331.9-207.1,331.8-207.2,331.8"/>
<path class="st0" d="M-210.7,333.3l-0.1-0.5c-0.6-0.4-0.7,0.2-0.7,0.2l0.1,1.2c1.6,1.1,2.4-0.3,2.4-0.3l-0.1-2
	c-0.5-0.4-0.7,0.1-0.7,0.1l0.1,1.3c-0.3,0.2-0.4,0-0.4,0l0-0.9c-0.2-0.3-0.4-0.1-0.4-0.1l0,0.7
	C-210.4,333.7-210.7,333.3-210.7,333.3"/>
<path class="st0" d="M-249.8,288.3c0.3-0.1,0.5-0.3,0.4-0.7l-1.2-2.9l-0.3,0.1l1.1,2.8c0.1,0.2,0.1,0.3-0.1,0.4
	c-0.2,0.1-0.3,0-0.4-0.2l-1.1-2.8l-0.3,0.1l1.2,2.9C-250.4,288.4-250.1,288.4-249.8,288.3"/>
<polygon class="st0" points="-248.4,287.8 -249.4,284.7 -249.4,284.7 -248,287.7 -247.6,287.5 -248.6,284 -248.9,284.1 -248,287.1 
	-248,287.1 -249.3,284.2 -249.8,284.4 -248.7,287.9 "/>
<polygon class="st0" points="-246.7,287.3 -247.6,283.8 -247.9,283.8 -247,287.4 "/>
<polygon class="st0" points="-245.4,287 -245.8,283.4 -246.1,283.4 -245.7,286.7 -245.7,286.7 -246.8,283.6 -247.1,283.6 
	-245.9,287.1 "/>
<polygon class="st0" points="-243.7,286.7 -243.8,286.4 -244.3,286.5 -244.6,285.1 -244.1,285 -244.1,284.7 -244.6,284.8 
	-244.9,283.5 -244.4,283.4 -244.4,283.1 -245.3,283.3 -244.6,286.8 "/>
<path class="st0" d="M-242.9,286.5l-0.3-1.7l0.2,0c0.2,0,0.3,0,0.3,0.2l0.3,1.5l0.3-0.1l-0.3-1.5c0-0.2-0.2-0.3-0.4-0.3v0
	c0.3-0.1,0.3-0.2,0.3-0.5l-0.2-0.9c-0.1-0.4-0.3-0.4-0.6-0.3l-0.6,0.1l0.6,3.6L-242.9,286.5z M-243.4,283.2l0.2,0
	c0.2,0,0.3,0,0.3,0.2l0.1,0.8c0,0.2,0,0.3-0.2,0.3l-0.2,0L-243.4,283.2z"/>
<path class="st0" d="M-241.9,283.6c0,0.2,0.1,0.3,0.2,0.4l0.6,0.8c0.1,0.1,0.1,0.2,0.1,0.3l0.1,0.5c0,0.2,0,0.3-0.2,0.3
	c-0.1,0-0.2-0.1-0.3-0.2l-0.1-0.5l-0.3,0.1l0.1,0.5c0.1,0.4,0.3,0.5,0.6,0.4c0.3,0,0.5-0.3,0.5-0.6l-0.1-0.6c0-0.2-0.1-0.3-0.2-0.4
	l-0.7-0.8c-0.1-0.1-0.1-0.2-0.1-0.3l-0.1-0.4c0-0.1,0-0.3,0.2-0.3c0.2,0,0.2,0.1,0.2,0.2l0.1,0.4l0.3-0.1l-0.1-0.5
	c0-0.3-0.2-0.5-0.6-0.4c-0.3,0.1-0.5,0.3-0.4,0.6L-241.9,283.6z"/>
<polygon class="st0" points="-239.6,286 -240.1,282.4 -240.4,282.4 -239.9,286 "/>
<path class="st0" d="M-238.3,285.8c0.5-0.1,0.5-0.3,0.5-0.7l-0.3-2.4c0-0.4-0.2-0.6-0.6-0.5l-0.6,0.1l0.5,3.6L-238.3,285.8z
	 M-238.8,282.5c0.2,0,0.3,0,0.3,0.2l0.3,2.5c0,0.2,0,0.3-0.3,0.3l-0.2,0l-0.4-3.1L-238.8,282.5z"/>
<path class="st0" d="M-237,284.7l0.6-0.1l0.2,1l0.3,0l-0.9-3.6l-0.5,0.1l-0.1,3.7l0.3,0L-237,284.7z M-237,282.2L-237,282.2l0.5,2.1
	l-0.5,0.1L-237,282.2z"/>
<path class="st0" d="M-234.8,285.5c0.5,0,0.5-0.3,0.5-0.6l-0.2-2.5c0-0.4-0.2-0.6-0.6-0.5l-0.6,0.1l0.3,3.6L-234.8,285.5z
	 M-235.2,282.1c0.2,0,0.3,0,0.3,0.3l0.2,2.5c0,0.2,0,0.3-0.3,0.3l-0.2,0l-0.3-3.1L-235.2,282.1z"/>
<polygon class="st0" points="-232.5,285.3 -232.7,282 -232.7,282 -232.1,285.2 -231.6,285.2 -231.9,281.5 -232.2,281.6 
	-231.9,284.7 -231.9,284.7 -232.6,281.6 -233.1,281.6 -232.8,285.3 "/>
<path class="st0" d="M-230.7,284.1l0.6,0l0.2,1l0.3,0l-0.8-3.6l-0.5,0l-0.3,3.7l0.3,0L-230.7,284.1z M-230.6,281.7L-230.6,281.7
	l0.4,2.1l-0.5,0L-230.6,281.7z"/>
<path class="st0" d="M-228.7,285c0.3,0,0.5-0.2,0.5-0.5l0-0.5l-0.3,0l0,0.5c0,0.2,0,0.2-0.2,0.2c-0.1,0-0.2-0.1-0.2-0.2l-0.1-2.7
	c0-0.2,0-0.2,0.2-0.2c0.1,0,0.2,0.1,0.2,0.2l0,0.5l0.3,0l0-0.5c0-0.3-0.2-0.5-0.5-0.5c-0.4,0-0.5,0.2-0.5,0.5l0.1,2.7
	C-229.2,284.9-229,285.1-228.7,285"/>
<rect x="-229.4" y="283" transform="matrix(4.039446e-02 0.9992 -0.9992 4.039446e-02 64.5054 499.1063)" class="st0" width="3.7" height="0.3"/>
<path class="st0" d="M-226.1,284.9c0.5,0,0.6-0.3,0.6-0.6l-0.1-2.5c0-0.4-0.2-0.6-0.6-0.6c-0.5,0-0.6,0.3-0.6,0.6l0.1,2.5
	C-226.7,284.7-226.6,285-226.1,284.9 M-226.2,281.5c0.2,0,0.3,0.1,0.3,0.3l0.1,2.5c0,0.2,0,0.3-0.2,0.4c-0.2,0-0.3-0.1-0.3-0.3
	l-0.1-2.5C-226.5,281.7-226.4,281.5-226.2,281.5"/>
<polygon class="st0" points="-224.6,284.9 -224.7,281.6 -224.7,281.6 -224.2,284.9 -223.7,284.9 -223.8,281.2 -224.1,281.2 
	-224,284.3 -224,284.3 -224.5,281.2 -225,281.2 -224.9,284.9 "/>
<path class="st0" d="M-222.8,283.8l0.6,0l0.1,1h0.3l-0.6-3.7l-0.5,0l-0.5,3.7l0.3,0L-222.8,283.8z M-222.5,281.4L-222.5,281.4
	l0.3,2.1l-0.5,0L-222.5,281.4z"/>
<polygon class="st0" points="-220.4,284.6 -220.9,284.6 -220.9,281.2 -221.3,281.2 -221.3,284.8 -220.4,284.8 "/>
<path class="st0" d="M-218.8,283.9l0.6,0l0.1,1l0.3,0l-0.5-3.7l-0.5,0l-0.6,3.7l0.3,0L-218.8,283.9z M-218.5,281.5L-218.5,281.5
	l0.2,2.1l-0.5,0L-218.5,281.5z"/>
<path class="st0" d="M-216.8,284.9c0.3,0,0.6-0.1,0.6-0.5l0.1-3.2l-0.3,0l-0.1,3.1c0,0.3-0.1,0.3-0.3,0.3c-0.2,0-0.3-0.1-0.2-0.4
	l0.1-3.1l-0.3,0l-0.1,3.2C-217.4,284.8-217.1,284.9-216.8,284.9"/>
<polygon class="st0" points="-215.4,285 -215,285 -214.9,281.6 -214.5,281.6 -214.5,281.3 -215.6,281.3 -215.6,281.6 -215.2,281.6 
	"/>
<path class="st0" d="M-213.6,285.1c0.4,0,0.6-0.2,0.6-0.6l0.1-2.5c0-0.4-0.1-0.6-0.6-0.6c-0.4,0-0.6,0.2-0.6,0.6l-0.1,2.5
	C-214.1,284.8-214,285.1-213.6,285.1 M-213.8,284.4l0.1-2.5c0-0.2,0.1-0.3,0.3-0.3c0.2,0,0.2,0.2,0.2,0.4l-0.1,2.5
	c0,0.2-0.1,0.3-0.3,0.3C-213.8,284.8-213.8,284.7-213.8,284.4"/>
<polygon class="st0" points="-211.8,281.9 -211.8,281.9 -211.6,285.2 -211.2,285.2 -210.9,281.6 -211.2,281.5 -211.4,284.7 
	-211.4,284.7 -211.6,281.5 -212.1,281.5 -212.4,285.1 -212.1,285.1 "/>
<path class="st0" d="M-210,285.3c0.4,0,0.6-0.2,0.6-0.6l0.2-2.5c0-0.4-0.1-0.6-0.5-0.7c-0.5,0-0.6,0.2-0.6,0.6l-0.2,2.5
	C-210.5,285-210.4,285.3-210,285.3 M-210.2,284.7l0.2-2.5c0-0.2,0.1-0.3,0.3-0.3c0.2,0,0.2,0.2,0.2,0.4l-0.2,2.5
	c0,0.2-0.1,0.3-0.3,0.3C-210.2,285-210.2,284.9-210.2,284.7"/>
<polygon class="st0" points="-208.2,282.1 -208.2,282.1 -208.1,285.5 -207.7,285.5 -207,282.2 -207,282.2 -207.3,285.5 -207,285.6 
	-206.6,281.9 -207.2,281.9 -207.8,285.1 -207.9,285.1 -207.9,281.8 -208.4,281.8 -208.8,285.4 -208.5,285.4 "/>
<path class="st0" d="M-206,284.7l0.6,0.1l0,1l0.3,0l-0.1-3.7l-0.5-0.1l-1,3.6l0.3,0L-206,284.7z M-205.4,282.3L-205.4,282.3l0,2.1
	l-0.5-0.1L-205.4,282.3z"/>
<polygon class="st0" points="-200.4,283.1 -200.4,283.1 -200.6,286.5 -200.2,286.5 -199.2,283.3 -199.2,283.3 -199.8,286.6 
	-199.5,286.6 -198.9,283 -199.4,282.9 -200.3,286.1 -200.3,286.1 -200.1,282.8 -200.6,282.7 -201.3,286.3 -201,286.4 "/>
<polygon class="st0" points="-198,286.9 -198,286.7 -198.5,286.5 -198.2,285.1 -197.7,285.2 -197.6,284.9 -198.2,284.8 
	-197.9,283.5 -197.4,283.6 -197.3,283.4 -198.2,283.2 -198.9,286.8 "/>
<polygon class="st0" points="-197.7,287 -197.4,287.1 -196.7,285.7 -196.7,285.7 -196.8,287.2 -196.4,287.3 -196.5,285.4 
	-195.6,283.7 -196,283.7 -196.6,285 -196.6,285 -196.5,283.5 -196.9,283.4 -196.8,285.3 "/>
<polygon class="st0" points="-195.7,287.5 -194.8,284 -195.1,283.9 -196,287.4 "/>
<path class="st0" d="M-194.6,287.8c0.3,0.1,0.6,0,0.7-0.3l0.2-0.5l-0.3-0.1l-0.2,0.5c0,0.1-0.1,0.2-0.2,0.2c-0.1,0-0.2-0.1-0.1-0.3
	l0.8-2.6c0-0.2,0.1-0.2,0.2-0.2c0.1,0,0.2,0.1,0.1,0.3l-0.1,0.5l0.3,0.1l0.1-0.5c0.1-0.3,0-0.5-0.4-0.6c-0.3-0.1-0.6,0-0.7,0.3
	l-0.8,2.6C-195.1,287.5-195,287.7-194.6,287.8"/>
<path class="st0" d="M-193.2,288.3c0.4,0.2,0.6,0,0.8-0.4l0.9-2.3c0.1-0.3,0.1-0.6-0.3-0.8c-0.4-0.2-0.6,0-0.8,0.4l-0.9,2.3
	C-193.6,287.9-193.6,288.2-193.2,288.3 M-193.2,287.7l0.9-2.3c0.1-0.2,0.2-0.3,0.4-0.2c0.2,0.1,0.2,0.2,0.1,0.4l-0.9,2.3
	c-0.1,0.2-0.2,0.3-0.4,0.2C-193.3,288-193.3,287.9-193.2,287.7"/>
<path class="st0" d="M-253.3,287.4c0.6,0.9,0.8,1.1,0.8,1.9l0,0.2c0,0.6,0,1.2,0.4,1.6c0.4,0.4,0.9,0.5,1.8,0.5
	c0.6,0,1.5-0.2,2.6-0.4c1.6-0.3,3.5-0.7,5.3-0.5c-0.4,0.4-1.8,1.5-4.5,1.2c-2.7-0.3-5.7-0.4-6.7,1c-0.6,0.8-0.5,1.9,0.3,3.5
	c0,0,0.1,0.1,0.1,0c0,0,2.1-0.7,1.6-3.1c0.8,0.1,1.6,0.3,2.5,0.6c0.2,0.1,0.4,0.1,0.5,0.2c-1.7,0.5-3.1,1.2-3.1,2
	c0,0.5,0.5,0.6,1.8,1.2c1.3,0.6,2.5,1,3.6,1.6c3.2,1.6,5.5,2.9,5.8,2.6c0.5-0.4-7.1-3.5-5.3-6c1-1.5,2.7,0.5,1.3,0.8
	c-1.4,0.3,2,3.7,5.9,4.8c0,0,0.7-0.7,1.2-1c0,0,0.6-0.4-0.3-0.7c-0.9-0.2-6.2-1.9-4-3.9c0.7-0.6,0.7-1,0.4-1.3
	c0.8-0.3,1.4-0.7,1.8-1.1c0.5-0.5,0.7-1,0.7-1.5c0-1.4-1.7-3.3-2.4-4c5.1-0.8,11.8-1.4,19.6-1.4c8.1,0,15,0.6,20.1,1.5
	c-0.6,0.6-2.4,2.6-2.4,4c0,0.5,0.2,1,0.7,1.5c0.3,0.3,0.7,0.6,1.2,0.8c-0.6,0.3-0.9,0.7-0.9,1c0,1.2,1.1,1.6,1.1,1.6
	c0.1,1.4-3.2,2.9-4.1,3.2c0.2,0.1,0.6,0.3,1.1,0.6c3.1-0.9,4-2.5,4.6-3.4c0.7-0.9-1.1-0.4-1.1-1.4c0-0.9,2.7-1.6,2.2,0.9
	c-0.5,2.3-3.7,3.7-5.2,4.2c0.2,0.2,0.4,0.3,0.5,0.5c0.1,0.1,0.3,0.4,0.4,0.4c0.2-0.1,0-0.5,0.3-0.5c0.3,0.1,0.5,0.2,0.6-0.1
	c0.1-0.3,0.1-0.5,0.3-0.4c0.2,0.2,0.3,0.3,0.5,0.2c0.2-0.1-0.2-0.7,0.3-0.5c0.5,0.2,0.6-0.1,0.5-0.4c-0.1-0.3,0.2-0.1,0.5,0.1
	c0.3,0.2,0.4-0.2,0.2-0.5c-0.2-0.3,0-0.4,0.3-0.2c0.3,0.3,0.8,0.2,0.4-0.2c-0.4-0.4,0.1-0.8,0.5-0.4c0.4,0.3,0.4,0.1,0.1-0.3
	c-0.2-0.4,0-0.5,0.5-0.2c0.5,0.3,0.9,0.2,0.3-0.2c-0.6-0.4-0.3-0.7,0.3-0.4c0.6,0.3,1.3,0.5,0.6-0.1c-0.6-0.6-0.8-1-0.1-0.6
	c0.8,0.4,1.4,0.3,0.2-0.4c-1.2-0.7,0.6-0.1,1,0.3c0.4,0.3,0.5-0.2-0.3-0.7c-0.8-0.4-0.3-0.6,0.7-0.1c1.1,0.5,1.1,0,0.2-0.3
	c-0.9-0.3-1.2-1-0.2-0.4c1.1,0.5,2.2,0.6,1.1,0.1c-0.5-0.3-0.8-0.5-1-0.6c0.3-0.1,0.7,0,1.5,0.5c1.4,1,0.1,2.1-1.2,2.6
	c-1.8,0.7-2.5,1.4-4.5,2.8c-1.1,0.8-2.6,1.1-3.7,1.1c0.1,0.2,0.2,0.4,0.3,0.6c1.7-0.1,3.6-0.6,4.8-1.4c1.6-0.9,4.2-2.5,6.2-2.9
	c1.5-0.4,2.9-1.1,0.6-2.8c-0.8-0.6-1.6-1-2.3-1.4c0,0,0.1,0,0.1,0c0.9-0.3,1.7-0.5,2.5-0.6c-0.5,2.3,1.6,3.1,1.6,3.1
	c0,0,0.1,0,0.1,0c0.7-1.5,0.8-2.7,0.3-3.4c-1-1.4-3.9-1.3-6.7-1c-3.1,0.3-4.4-1-4.6-1.3c0.3,0,0.7,0,1.2,0c0.8,0.1,1.8,0.2,2.8,0.4
	c2.2,0.4,4.6,0.8,5.6,0c0.3-0.3,0.5-0.6,0.6-1.1c0.1-1,0.6-1.8,1-2.6c0.5-0.8,0.9-1.4,0.7-2c-0.1-0.4-0.5-0.7-1.2-1
	c-3-1.3-7.6-2.5-12.9-3.3c-5.9-0.9-12.5-1.4-19.2-1.4c-12.7,0-24.5,1.6-30.9,4.2c0,0-1.3,0.4-1.6,1.3c-0.1,0.4-0.1,0.9,0.3,1.3
	C-253.7,286.9-253.5,287.2-253.3,287.4 M-252.4,284.3C-252.4,284.3-252.4,284.3-252.4,284.3c6.3-2.6,18.1-4.2,30.7-4.2
	c15.5,0,26.9,2.5,31.9,4.7c0.5,0.2,0.8,0.5,0.9,0.7c0.1,0.4-0.2,1-0.6,1.6c-0.5,0.8-1,1.7-1.1,2.8c0,0.3-0.2,0.5-0.4,0.7
	c0,0,0,0,0,0c0-0.2-0.1-0.3-0.3-0.5c-2.1-2.1-15-4.5-30.1-4.5c-7.7,0-15.4,0.6-21.5,1.7c-2.7,0.5-5,1-6.5,1.6
	c-1.3,0.5-2.1,1-2.4,1.5c-0.1-0.3-0.1-0.6-0.1-1l0-0.2c0-0.9-0.2-1.2-0.9-2.2c-0.2-0.2-0.4-0.5-0.6-0.9c-0.2-0.3-0.3-0.6-0.2-0.9
	C-253.5,284.8-252.7,284.4-252.4,284.3 M-196.2,290.6c-1-0.2-2-0.3-2.8-0.4c-2.2-0.2-3.5,0.6-4.2,1.3c0.2-1.1,1.6-2.8,2.6-3.7
	c4.9,0.8,8.1,1.9,8.9,2.7c0.1,0.1,0.2,0.2,0.2,0.3c0,0,0,0.1,0,0.1C-192.7,291.2-194.6,290.9-196.2,290.6 M-200.9,291l0.2,0.1
	c0.3,0.3,1.8,1.9,5.1,1.5c1.4-0.1,4.5-0.5,5.8,0.4c-1.4-0.2-2.6,0.2-3.8,0.6c-0.2,0.1-0.5,0.2-0.7,0.2c-2.9-1.1-5.5-0.8-7-0.2
	c-0.6-0.3-1.1-0.6-1.4-0.9c-0.2-0.2-0.3-0.4-0.4-0.6c0.3-0.4,1.1-1.1,2.2-1.3C-200.9,290.9-200.9,290.9-200.9,291 M-190.4,293.5
	c0.4,0,0.8,0.1,1.2,0.2c0.2,0.5,0.1,1.3-0.3,2.2C-190.1,295.6-190.8,294.9-190.4,293.5 M-239.4,291.1c-2.5-1.5-5.9-0.8-8.5-0.4
	c-1,0.2-1.9,0.4-2.5,0.4c-0.4,0-0.8-0.1-1.1-0.2c0-0.1-0.1-0.1-0.1-0.1c0,0,0-0.1,0.2-0.3c0.9-0.9,4.2-2,9.4-2.8
	C-241,288.6-239.8,290-239.4,291.1 M-241.9,293.8c-1.1-0.3-3-0.3-4-0.2c-0.5,0.1-1.1,0.2-1.6,0.3c-0.5-0.1-0.9-0.3-1.4-0.4
	c-1.3-0.4-2.5-0.8-3.8-0.6c1.3-0.9,4.4-0.6,5.8-0.4c3.3,0.4,4.8-1.2,5.1-1.5l0.2-0.1c0,0,0,0,0,0c0.9,0.1,1.7,0.4,2.4,1
	C-239.5,292.6-240.4,293.4-241.9,293.8 M-253.1,295.8c-0.4-0.9-0.5-1.7-0.3-2.2c0.4-0.1,0.8-0.2,1.2-0.2
	C-251.8,294.8-252.6,295.5-253.1,295.8"/>
<path class="st0" d="M-219.6,298.2C-219.7,298.2-219.7,298.2-219.6,298.2C-219.7,298.2-219.7,298.2-219.6,298.2
	c-0.1,0.1,0.1,1.9,2,1.9c1.7,0,3.3-1.4,3.7-1.8c0.2,0.4,1.2,1.8,2,1.7c0.4,0,0.6-0.3,0.8-0.9c0.3,0.3,1,0.9,1.8,0.8
	c0.7-0.1,1.4-0.6,2-1.5c0,0,0-0.1,0-0.1c0,0-0.1,0-0.1,0c0,0-1.7,0.5-2.7-0.2c-0.6-0.4-0.8-1.1-0.8-2.1c0-1.5,0.1-2.3,0.3-2.9
	c0.5,0.3,1.1,0.5,1.7,0.5c1.9,0,2.2-1.1,2.2-1.1c0,0,0-0.1,0-0.1c0,0,0,0-0.1,0c-0.6,0.1-1.1,0-1.3,0c0.9-0.3,1.5-0.3,1.8,0
	c0.3,0.3,0.2,0.8,0.2,0.8c0,0,0,0.1,0,0.1c0,0,0.1,0,0.1,0c0.7-0.7,0.9-1.3,0.7-1.8c-0.3-0.9-1.7-1.2-3-1.5
	c-1.9-0.4-2.6-2.5-2.6-2.5c0,0,0,0-0.1-0.1c0,0-0.1,0-0.1,0c-0.5,0.3-0.8,0.6-1.1,0.9l-1.3-1.4c0,0,0,0-0.1,0c0,0,0,0-0.1,0
	c0,0-0.5,0.7-0.2,1.7c-0.2-0.3-0.6-0.7-0.6-1.2c0,0,0-0.1-0.1-0.1c0,0-0.1,0-0.1,0c0,0-1.3,1.2,0,3c-0.3,0.1-1.3,0.4-3.3-0.2
	c0,0,0,0-0.1,0c0,0,0,0,0,0.1c0,0-0.2,0.7,0.3,1.3c0.4,0.5,1.1,0.8,2,0.8c-0.3,0.2-1.2,0.7-3,0.2c0,0-0.1,0-0.1,0c0,0,0,0.1,0,0.1
	c0,0,0.5,2.1,3.3,1.8c-0.5,0.5-2.1,1.6-4.1,1.1c0,0-0.1,0-0.1,0c0,0,0,0,0,0.1c0,0.1,0,1.2,1,1.7c0.8,0.4,1.9,0.2,3.5-0.7
	C-215.4,297-216.2,298.5-219.6,298.2 M-215,292.3c0.1-0.1,0.1-0.3,0.1-0.5c-0.1-0.2-0.2-0.3-0.4-0.3c-0.9,0-1.5-0.2-1.8-0.6
	c-0.1-0.1-0.1-0.2-0.2-0.3c2.2,0.5,3.1,0,3.2-0.1c0.1-0.1,0.2-0.2,0.2-0.3c0-0.1,0-0.3-0.1-0.4c-0.5-0.7-0.6-1.3-0.5-1.7
	c0.3,0.5,0.7,0.8,0.7,0.8c0.2,0.1,0.4,0.1,0.6,0c0.2-0.1,0.2-0.4,0.1-0.5c-0.1-0.3-0.2-0.6-0.2-0.9l0.9,1c0,0.1-0.1,0.2-0.1,0.3
	c-0.1,0.6,0.1,1.1,0.2,1.2c-1.5,1-1.5,1.9-1.5,2.3c-0.2,0.3-0.8,1.1-1.8,1.3c-1.1,0.1-1.7-0.3-2.1-0.7
	C-215.8,293.3-215,292.4-215,292.3 M-211.1,288c0.1,0.3,0.4,0.6,0.7,1l-0.7,0.1l-0.5-0.5C-211.6,288.4-211.4,288.2-211.1,288
	 M-205.8,292c-0.1-0.1-0.1-0.1-0.2-0.2c-0.5-0.4-1.4-0.4-2.6,0c-0.2,0.1-0.3,0.2-0.3,0.4c0,0.2,0.1,0.3,0.2,0.4c0,0,0.3,0.1,0.7,0.2
	c-0.3,0.1-0.6,0.2-1,0.1c-0.6,0-1.1-0.2-1.5-0.4c0.2-0.3,0.4-0.4,0.6-0.6c0.1-0.1,0.2-0.1,0.2-0.2c0.4-0.3,0.8-1,1-1.5
	c0,0,0.1,0,0.1,0c0.7,0.2,2.4,0.5,2.6,1.1C-205.7,291.6-205.7,291.8-205.8,292 M-208.4,299c-0.3,0.2-0.6,0.4-0.8,0.4
	c-0.8,0.1-1.5-0.8-1.5-0.8c-0.1-0.1-0.1-0.1-0.2-0.1c-0.1-0.2-0.3-0.6-0.4-1.1c0.1,0,0.1,0,0.1,0c0.2,0.5,0.5,0.9,0.8,1.1
	C-209.8,298.9-209,299-208.4,299 M-211.9,289.1l0.3,0.4c0.1,0.1,0.2,0.1,0.3,0.1c0,0,0.3,0,0.6,0c-0.1,0.2-0.2,0.3-0.3,0.4
	c-0.2,0.1-0.5,0.1-0.8,0c0,0,0-0.1,0-0.1C-211.8,289.9-212,289.6-211.9,289.1 M-209.9,291.4c-0.1,0.1-0.2,0.1-0.2,0.2
	c-0.3,0.2-0.6,0.4-0.8,0.8c-0.1-0.1-0.2-0.1-0.2-0.2c0.2-0.3,0.6-0.7,1-0.9c0.6-0.3,0.6-0.9,0.6-1.3c0.1,0.1,0.3,0.1,0.4,0.2
	C-209.2,290.6-209.5,291.1-209.9,291.4 M-213.4,298c-0.1,0-0.3-0.3-0.3-1.3c0.4-0.2,0.6-0.5,0.8-0.8c0,0.5,0.1,0.9,0.3,1.1
	c0.1,0.1,0.1,0.1,0.2,0.1C-212.6,297.6-213.1,298.1-213.4,298 M-213.4,294.5C-213.4,294.5-213.4,294.5-213.4,294.5
	c0,0,0.5-0.2,0.9-0.5c0,0.1,0,0.3,0,0.5c-0.7,1.3-1.4,1.8-1.8,1.8C-214.3,296.1-213.9,295.3-213.4,294.5 M-211.4,296.7
	c-0.3,0.1-0.5,0-0.6-0.1c-0.3-0.3-0.1-1.2,0-1.8c0.2,0,0.4-0.1,0.6-0.2c0,0.4,0,0.8,0,1.3C-211.4,296.2-211.4,296.5-211.4,296.7
	 M-211.9,290.5c0.3,0.1,0.8,0.2,1.1,0c0.2-0.1,0.5-0.4,0.7-1c0,0,0.1,0,0.1,0l0,0.1l0,0c0,0,0.2,0.8-0.3,1.1c-0.5,0.3-0.9,0.6-1.2,1
	c-0.2-0.1-0.2-0.3-0.2-0.3c-0.1-0.1-0.3-0.2-0.5-0.1c-0.1,0-0.2,0.2-0.3,0.3c0,0-0.2,0.2-0.7,0.3
	C-213.2,291.7-212.9,291.2-211.9,290.5C-211.9,290.5-211.9,290.5-211.9,290.5 M-211.8,297.7c0.1,0.3,0.2,0.7,0.4,1c0,0,0,0.1,0,0.1
	c-0.1,0.4-0.3,0.6-0.4,0.7c-0.3,0-0.7-0.4-1.1-0.9C-212.6,298.3-212.2,298.1-211.8,297.7 M-211.9,294.2c-0.1-0.2-0.2-0.9-0.1-1.4
	c0,0,0-0.1,0-0.1c0,0-0.1,0-0.1,0c0,0-0.5,0.6-1,0.9c-0.1-0.1-0.2-0.4-0.2-0.9c0,0,0,0,0-0.1c0.9-0.2,1.2-0.5,1.3-0.6
	c0.2,0.2,0.5,0.5,1,0.8c-0.1,0.3-0.2,0.7-0.2,1.1C-211.5,294-211.7,294.1-211.9,294.2 M-214.8,294.4c0.1-0.1,0.1-0.2,0.1-0.3
	c0.2-0.1,0.5-0.2,0.8-0.5c0,0.1,0.1,0.3,0.1,0.5c-0.4,0.7-0.9,1.4-1.3,1.7c-0.1,0-0.1,0-0.2,0.1c-1.4,0.9-2.5,1.1-3.1,0.8
	c-0.3-0.2-0.5-0.4-0.5-0.7C-216.5,296.2-214.9,294.4-214.8,294.4 M-214.7,296.8c0.2,0.1,0.3,0.1,0.5,0.1c0,0.2,0.1,0.5,0.1,0.9
	c-0.1,0-0.1,0.1-0.1,0.1c0,0-1.7,1.7-3.4,1.7c-0.8,0-1.3-0.4-1.4-0.7C-216.1,298.8-215.1,297.5-214.7,296.8"/>
<path class="st0" d="M-248.8,331.9c0-0.2,0.1-0.5-0.1-0.6c-0.2-0.1-0.3,0.1-0.4,0.2c0,0,0,0,0,0v0c0,0-0.2,0.5-1,0.5
	c-0.5,0-1,0.2-1.2,0.6c-0.2,0.2-0.2,0.5-0.1,0.8c0.2,0.5,0.5,0.7,0.7,0.6c0,0,0.2-0.1,0.1-0.3l0-0.1c0-0.1,0-0.2,0-0.3
	c0,0,0.1,0,0.1,0.1c0.3,0.1,0.5,0.2,0.7,0c0.1,0,0.2-0.2,0.1-0.4c0-0.1-0.1-0.2-0.1-0.3c0-0.1-0.1-0.1-0.1-0.1c0,0,0.1,0,0.3-0.1
	C-249.1,332.4-248.9,332.4-248.8,331.9 M-250.7,332.7c0,0-0.1,0-0.1,0C-250.8,332.6-250.7,332.6-250.7,332.7
	C-250.7,332.6-250.7,332.6-250.7,332.7"/>
<path class="st0" d="M-187.9,331.2c-0.2,0-0.3-0.1-0.4-0.2c-0.2-0.1-0.3-0.3-0.8-0.3c-0.2,0-0.4,0.1-0.4,0.2
	c-0.1,0.2-0.1,0.6,0.2,1.2c0.1,0.1,0.1,0.2,0.1,0.3c-0.3-0.1-0.6-0.2-0.9-0.3c-0.2-0.1-0.4-0.1-0.5,0c-0.3,0.2-0.4,1-0.4,1.7
	c-0.8,0-1.5,0.6-2,1.1c0-0.3,0-0.7-0.2-0.8c-0.1-0.1-0.3-0.2-0.6-0.2c-0.3,0-0.6,0.1-1,0.3c0-0.2,0-0.4,0-0.5c0-0.1-0.2-0.2-0.3-0.3
	c-0.2-0.1-0.6,0-0.9,0.2c-0.1,0.1-0.2,0.3-0.1,0.4c0.1,0.3,0.4,0.6,0.7,0.7c0,0.1-0.1,0.1-0.1,0.2c-0.2,0.2-0.2,0.5-0.1,0.7
	c0.1,0.4,0.7,0.7,1.2,0.9c-0.7,0.7-1.6,1.3-2.5,1.1c-0.1-0.2-1.1-1.1-2.9-0.7l-0.2,0c-1.8,0.4-3.3,0.8-4,2.6c-0.2,0.6-0.4,0.8-0.6,1
	c-0.4,0.6-0.8,1-1.1,4.4c-0.3,0.1-1.6,0.5-2.5,1c-0.2,0.1-0.4,0.1-0.6,0.1c-0.5,0-1,0.1-1.6,0.8c-0.4,0.3-0.6,0.3-0.8,0.2
	c-0.2,0-0.5-0.1-0.9,0.2c-0.3,0.1-0.5,0.2-0.7,0.2c0.1-0.3,0.5-1.1,1.2-1.3c0.7-0.2,2.4-0.7,3.1-1.6c0,0,0,0,0,0
	c0.3-0.5,0.6-0.8,0.9-1.1c0.4-0.3,0.7-0.5,0.5-1.1c-0.2-0.4,0-0.8,0.2-1.2c0.1-0.4,0.3-0.8,0.1-1.1c0.3-0.1,1-0.3,1.2-0.6
	c0.1-0.1,0.1-0.2,0-0.3c0-0.2,0-0.4,0.1-0.7c0.1-0.5,0.2-0.9,0-1.2c-0.1-0.1-0.3-0.2-0.5-0.2c-0.1-0.1-0.2-0.4-0.6-0.5
	c-0.2-0.1-0.5,0.1-0.8,0.3c-0.1-0.1-0.6-0.2-0.8,0c-0.2,0.1-0.3,0.4-0.2,0.7l-0.6,0.9c-0.2-0.1-0.9-0.1-2,0.6l-0.5,0.3
	c-1.2,0.7-2.1,1.3-2.4,2.7c-0.1,0.7-0.3,1.1-0.3,1.3c-0.1-0.1-0.2-0.1-0.3-0.2c-0.3-0.2-0.6-0.3-0.8-0.4c-0.5-0.2-1-0.4-1.2-0.8
	c-0.6-0.8-1.4-0.8-2.5-0.2c-1.2,0.8-2.2,0.6-3.5,0.1c-0.2-0.1-0.5-0.2-0.8-0.3c-1.4-0.5-3.3-1.3-4-2.2c-0.1-0.2-0.2-0.4-0.4-0.5
	c-0.6-0.9-1.1-1.7-2.4-1.7c-0.1-0.1-0.9-0.4-1.8,0.3c0,0,0,0,0,0c0,0,0,0-0.1,0c0,0-0.1,0-0.2-0.1c-0.3-0.3-0.6-0.4-1.2,0.1
	c-0.1,0-1.1,0.8-1.5,1.6c0,0-0.1-0.1-0.1-0.1c-0.5-1.1-1-1.7-1.5-1.9c-0.5-0.1-0.8-0.5-1.2-1c-0.2-0.3-0.5-0.5-0.7-0.8
	c-0.2-0.2-0.4-0.3-0.6-0.2c-0.4,0-0.7,0.5-1,0.9l-0.1,0.1c-0.4,0.5-1,0.9-1.5,1.3c-0.2,0.2-0.4,0.3-0.6,0.5c0,0,0,0,0,0
	c-0.3-0.2-0.4-0.3-0.5-0.5c-0.3-0.8-0.9-1.6-1.3-2c0.1-0.5,0.1-1-0.3-1.4c0.4,0,0.7-0.2,0.9-0.7c0.1-0.2,0.1-0.4,0-0.6
	c-0.2-0.3-0.6-0.4-1.3-0.4c-0.6,0-1.1,0.5-1.3,0.7c-0.3,0-0.7,0.1-1.2,0.2c0.1-0.3,0-0.5-0.2-0.7c-0.8-0.7-2,0.5-2.6,1.1
	c-0.5,0.4-0.5,0.9-0.5,1.2h0c0,0-0.1,0-0.1,0c0,0-0.1,0-0.2,0c-0.2,0-0.4-0.1-0.7-0.1c-0.1-0.5-0.4-1.4-1.1-1.4c-0.1,0-0.2,0-0.3,0
	c0-0.1,0-0.1,0-0.2c0-0.2-0.1-0.4-0.2-0.6c-0.2-0.2-0.4-0.2-0.6-0.2c-0.5,0-0.8,0.4-0.8,0.8c0,0.2,0.1,0.4,0.2,0.6
	c0,0,0.1,0.1,0.2,0.1c-0.2,0.1-0.3,0.3-0.4,0.4c-0.1,0.2-0.1,0.4,0.2,0.7c0.2,0.2,0.5,0.5,0.9,0.8c-0.1,0.2-0.2,0.5-0.2,0.8
	c0,0,0,0,0,0c-0.2,0.1-0.4,0.2-0.4,0.5c0,0.2,0.2,0.4,0.4,0.6c0,0.4,0,0.8,0.1,1.2c-0.1,0.2-0.2,0.4-0.1,0.5
	c0.1,0.1,0.2,0.1,0.3,0.2c0,0.1,0.1,0.1,0.1,0.2c0.2,0.2,0.3,0.4,0.5,0.6c0,0,0.1,0.1,0.1,0.1c-0.1,0.3-0.1,0.7,0.2,0.7
	c0.2,0,0.4,0,0.6,0c0.1,0.1,0.3,0.2,0.5,0.3c0.2,0.1,0.4,0.3,0.7,0.4c0,0.3,0,0.7,0.3,0.6c0.2,0,0.3-0.1,0.4-0.1
	c0.6,0.5,1.1,0.9,1.1,1c-0.2,0.3-1,1.1-1.3,1.1c-0.1,0-0.3,0.1-0.3,0.2c-0.2,0.2-0.2,0.7,0,1.1c-0.2,0.1-0.7,0.6-0.5,1
	c0.1,0.1,0.2,0.2,0.3,0.3c0.1,0.1,0.3,0.3,0.3,0.4c0,0.1-0.1,0.1-0.2,0.2c-0.4,0.2-1,0.4-1.1,0.9c-0.1,0.4,0,0.8,0.4,1.2
	c0,0,0,0,0,0l-0.2,0.3c0,0-0.8,0.2-0.5,0.8c0.3,0.6,1.2,0.6,1-0.3l0.2-0.2c0.4,0.3,0.9,0.4,1.3,0.3c0.4-0.1,0.6-0.5,0.7-1
	c0.4,0.2,1.9,0.7,3.3,0.7c0.2,0.2,0.4,0.3,0.7,0.2c0.2-0.1,0.3-0.2,0.4-0.4c0.3,0,1.1,0,1.8,0c0.1,0.1,0.3,0.3,0.5,0.3
	c0.3,0,0.3-0.2,0.3-0.4c0.2,0,0.3-0.1,0.4-0.2c0.3-0.2,1-0.3,2.1-0.3c0,0.1,0.1,0.1,0.1,0.2c0.3,0.6,0.5,0.8,0.6,0.9
	c0.1,0.1,0.1,0.1,0,0.2c0,0.2-0.1,0.3,0,0.5c0.1,0.1,0.3,0.2,0.6,0.3h0c0.6,0.1,1,0.1,1.2,0.6l0,0.1c0.1,0.2,0.2,0.4,0.4,0.4
	c0.2,0,0.4,0,0.8-0.3c0.6-0.4,1.3,0,1.4,0c0.1,0.1,0.4,0.6,0.7,0.5c0.2,0,0.4-0.2,0.5-0.6c0.2-0.1,0.4-0.1,0.6-0.1
	c0.3,0,0.7,0,1.4-0.4c0,0,1.4-0.9,2.2-1.3c0.1,0.2,0.2,0.5,0.2,0.7c0.1,0.7-2.8,2.1-1.7,3.9c0.1,0.2,0.3,0.2,0.3,0.2s-0.2-0.6,0.1-1
	c0.3-0.4,1.9,0.1,2.7-0.9c0.2,1,1.4,1.1,1.4,1.1c0,0,0.1,0,0.1-0.1l0.4-2.7c0.1,0.3,0.4,0.6,0.6,0.7c0.3,0.2,0.6,0.1,0.8,0.1
	c0.8,1.3,1.9,1,2.1,0.9c0.5,0,0.8-0.1,0.8-0.3c0-0.1,0.1-0.3-0.8-0.8c-0.1-0.1-0.1-0.1-0.1-0.1c0,0,0.1-0.1,0.2-0.1
	c0.3,0,1.1,0.2,1.6,1.3c0.8,1.6,2.5,1.1,2.5,1.1c0,0,0.1,0,0.1-0.1c0,0,0-0.1-0.1-0.1c-0.4-0.1-0.5-0.6-0.5-0.8c1,0.8,1.9,1.1,2.7,1
	c0.9-0.1,1.4-0.7,1.4-0.8c0,0,0-0.1,0-0.1c0,0-0.1,0-0.1,0c-1,0.3-1.5-0.1-2-0.7c0.4-0.1,1.2-0.4,2.1-1.6c0.2-0.1,1.5-0.4,2.9,0
	c0.1,0,0.3,0.1,0.5,0.2c1.6,0.5,5.1,1.7,7.4-0.1c1.5-1.2,1.9-2,1.9-2.4c0-0.1,0-0.2,0-0.3c0.3,0.1,0.5,0.1,0.5,0.1c0,0,0,0,0,0
	c0.5,0.1,1.2,0.2,1.8,0.4c0.1,0,0.3,0.1,0.4,0.2c-0.1,0.2-0.4,0.6,0,0.8c0.4,0.2,1.5-0.4,1.5,0.2c0,0.6,0.5,0.5,1.4,0.1
	c0,0,0.4-0.1,0.5,0.1c0,0.2,0.3,0.5,0.6,0.5c0.2,0,0.4-0.3,0.6-0.5c0.3,0,0.6,0,0.9-0.1c0.3,0.2,0.6,0.3,0.8,0.1
	c0.1-0.1,0.2-0.3,0.2-0.4c0.4-0.2,0.7-0.5,0.9-0.9c0.3-0.5,0.2-1.1,0.1-1.4c0.1-0.1,0.3-0.3,0.3-0.6c0.1-0.4-0.4-0.4-0.7-0.8
	c-0.1-0.2-0.3-0.4-0.5-0.6c-0.1-0.1-0.1-0.3-0.1-0.6c-0.1-0.6-0.7-0.9-0.8-0.1c-1.6-0.8-3.8-0.7-5.3-0.3c-0.4,0.1-0.8,0.2-1.3,0.3
	c-1.3,0.4-2.5,0.7-3.1,0.1c0.1-0.2,0.4-1.2,2.2-1.8c1.3-0.5,4.4-1.8,5-3.7c0.6,0,5.1,0.2,6.1-1.3c1-1.4,1.8-2.5,0.8-3.7
	c0.4-0.3,0.8-0.7,1-1.1c0.2-0.3,0.2-0.5,0.1-0.7c-0.1-0.2-0.2-0.3-0.5-0.4c0.1-0.1,0.3-0.3,0.7-0.4c0.4-0.1,0.4-0.3,0.4-0.4
	C-187.2,331.6-187.5,331.3-187.9,331.2 M-244.8,332.9c0.4,0,0.6,0.1,0.7,0.1c-0.2,0.5-0.3,0.5-0.8,0.3c-0.1-0.1-0.3-0.1-0.4-0.2
	C-245.1,332.9-244.9,332.9-244.8,332.9 M-195.4,334.2c-0.1,0-0.1-0.1-0.2-0.1c0.1,0,0.1,0,0.1,0
	C-195.4,334.1-195.4,334.1-195.4,334.2 M-192.4,347.7c0,0.1,0,0.2,0,0.2c0,0,0.2,0.6,0,1.2c-0.2,0.4-0.5,0.6-1.1,0.8
	c-1.8,0.5-4.1-0.4-5.4-0.9c-0.2-0.1-0.3-0.1-0.5-0.2c-1.1-0.4-2.6-0.6-2.6-0.6c-0.1,0-0.1,0-0.2,0c-0.9-0.2-1-0.5-1-1.1
	c0-0.5,0.3-0.7,0.6-0.8c0.8,0.1,1.7-0.2,2.6-0.5c0.4-0.1,0.8-0.2,1.2-0.3c1.5-0.4,3.7-0.5,5.2,0.4
	C-192.3,346.6-192.4,347.6-192.4,347.7 M-202.5,348.9c0,0.1,0,0.7-1.7,2c-2,1.6-5.1,0.6-6.8,0l0,0c-0.2-0.1-0.3-0.1-0.4-0.1
	c-1.4-0.4-2.8-0.1-3.2,0c0-0.4,0-1-0.1-1.4c-0.1-0.4,0.3-0.8,0.6-1c0.5-0.1,0.9-0.2,1.2-0.3c0.2,0,0.5,0,0.9-0.2
	c-0.1,0.2-0.4,0.7-0.1,0.8c0.4,0.1,1.1,0.3,0.9-1c0.3,0,0.6,0,1.1-0.3c0,0,0.1,0,0.1-0.1c0.5-0.6,0.8-0.6,1.2-0.6
	c0.2,0,0.5,0,0.8-0.2c0,0,0,0,0,0c0.9-0.5,2.4-1,2.4-1c0,0,0,0,0,0c0.4,0.2,1.1,0.5,1.9,0.2c0,0,0,0,0,0c0.1,0.1,0.3,0.2,0.4,0.3
	c-0.3,0.2-0.4,0.6-0.5,1.1c0,0.3,0.1,0.7,0.3,0.9c0.2,0.3,0.6,0.5,0.9,0.6C-202.6,348.7-202.6,348.9-202.5,348.9 M-218.9,352.9
	c-0.2,0.1-0.3,0.3-0.3,0.5c0,0.2,0,0.4,0.1,0.6c-0.4-0.1-0.7-0.4-0.9-0.8c-0.7-1.3-1.7-1.7-2.3-1.6c-0.1,0-0.2,0.1-0.3,0.1
	c0.1-0.2,0.2-0.3,0.2-0.6c0.3,0,1.2,0.1,1.6-0.3c0,0,0.1,0.1,0.2,0.1c0.1,0,0.1,0,0.2,0c0.5,0.3,2.2,1.2,2.8,1.8
	c0.2,0.1,0.3,0.3,0.4,0.5c0.2,0.2,0.4,0.5,0.7,0.7c-0.6-0.1-1.2-0.4-1.9-1C-218.5,352.9-218.7,352.8-218.9,352.9 M-228,353
	C-228,353-228,353-228,353C-228,353-228,353-228,353 M-227.9,352.9C-227.9,352.9-227.9,352.9-227.9,352.9
	C-227.9,352.9-227.9,352.9-227.9,352.9 M-227,353.1c0-0.1,0-0.1-0.1-0.2c0.1-0.5,0.3-1.4,0.2-1.8c0-0.2-0.1-0.3-0.2-0.4
	c-0.2-0.1-0.4,0.1-0.4,0.1c0,0,0.3,2.1-1,2.6c-0.4,0.1-0.9,0.1-1.3,0.2c-0.3,0.1-0.6,0.2-0.6,0.2c0.1-1.1,1.9-1.4,1.9-2.5
	c0-0.9-0.9-1.8-1-1.9c-0.1-0.1-1.1-1.2-1.3-2.4c0,0,0-0.1,0-0.1c0-0.1,0-0.2-0.1-0.3c0-0.1,0-0.3,0-0.4c0.3-1.2,1.1-2.5,2.6-2.2
	c0.1,0.1,0.5,0.1,0.8,0.5c0.2,0.2,0.2,0.5,0.3,0.6c0.1,0.6-0.8,0.8-0.8,0.8c0,0,0-1.2-0.6-1.2c-0.5,0-1.1,0.5-1.3,1.1
	c-0.2,0.6,0.2,1.2,0.9,1.4c0.2,0.1,0.4,0.2,0.6,0.3c0.3,0.1,0.6,0.3,0.9,0.4c0,0-0.1,0-0.1,0c0,0-0.1,0-0.1,0.1c0,0,0,0.1,0.1,0.3
	c0.1,0.2,0.5,0.4,1,0.4c1.1,0.1,2.1,0.4,2.1,1.5c0,0.8-0.4,1.2-0.6,1.3c-0.1-0.4-0.6-1.5-2-2c-1.8-0.6-2.5-1.3-2.7-2.5
	c0,0,0-0.1,0-0.1c0,0-0.3-0.2-0.5,0c-0.1,0.1-0.1,0.2-0.1,0.4c0,0.1,0.3,1.4,1.6,2c0.2,0.1,0.5,0.2,0.7,0.3c0.9,0.4,1.8,0.8,2.1,1.5
	c-0.1,0.1-0.2,0.2-0.3,0.4l-0.3,2.4C-226.9,353.6-227,353.4-227,353.1 M-233.9,352.2C-234,352.1-234,352.1-233.9,352.2
	c-0.1-0.2-0.2-0.2-0.2-0.3c0,0-1-0.7-2.1-0.1c-0.1,0.1-0.2,0.1-0.3,0.2c0,0,0-0.1-0.1-0.1l0-0.1c-0.4-0.7-1.1-0.8-1.7-0.8
	c0,0,0,0,0,0c0,0-0.1,0-0.1,0c0.1-0.3,0-0.5-0.2-0.7c-0.1-0.1-0.2-0.3-0.5-0.8c-0.5-0.8,0.3-2.1,0.5-2.5c0.2-0.4,1.7-1.3,3.1-1.3
	c1.1,0,3.1,0.7,4,1.1c0.1,1.5,1.5,2.9,1.5,3c0,0,0.1,0.1,0.3,0.3c-0.8,0.4-1.9,1.2-2.1,1.3c-0.5,0.3-0.8,0.3-1.1,0.3
	c-0.3,0-0.5,0-0.9,0.2C-233.8,351.9-233.9,352-233.9,352.2C-233.9,352.1-233.9,352.2-233.9,352.2 M-245.1,349.7
	c-1.6,0.5-3.9-0.5-4-0.6c-0.2-0.1-0.3-0.1-0.5,0c-0.1,0.1-0.2,0.3-0.2,0.4c0,0.2,0,0.5-0.3,0.6c-0.3,0.1-0.7-0.1-1.2-0.6
	c-0.2-0.3-0.4-0.5-0.3-0.7c0-0.1,0.2-0.3,0.7-0.5c0.3-0.1,0.5-0.3,0.6-0.6c0.1-0.4-0.2-0.7-0.4-0.9c0,0-0.1-0.1-0.1-0.1
	c0.1-0.1,0.2-0.2,0.3-0.3c0.2-0.1,0.2-0.4,0.2-0.6c-0.1-0.3-0.1-0.5-0.1-0.6c0.7-0.1,1.7-1.3,1.7-1.3c0.1-0.1,0.1-0.3,0.1-0.5
	c-0.2-0.8-2.7-2.4-2.7-2.4c-0.5-0.3-0.8-0.7-1.2-1.1c-0.2-0.2-0.3-0.4-0.5-0.6c-0.2-0.2-0.3-1.5-0.2-2.6c0.1-0.6,0.3-1,0.6-1.2
	c0.5-0.3,1.2-0.2,1.6-0.1c0.2,0,0.3,0.1,0.4,0c0.1,0,0.1,0,0.2,0c0.1,0,0.2-0.1,0.2-0.1c0,0,0,0,0,0c0.1,0.2,0.1,0.2,0.2,0.3
	c0,0.1,0.1,0.2,0.2,0.5c0.1,0.2,0.5,0.7,0.9,1.2c0.3,0.4,0.6,0.8,0.8,1.1c0.3,0.4,0.8,1.4,1.5,2.9c0.1,0.2,0,1.1-0.2,1.9
	c0,0.1,0,0.2,0,0.3c-0.1,0.3-0.2,0.8-0.1,0.9c0.2,0.1,0.5,0.1,0.8-0.6c0.1,0,0.2-0.1,0.2-0.2v0c0,0,0.2-0.2,1.4,0.1l0.1,0
	c0.5,0.1,1.3,0.4,1.6,0.7c0.1,0.1,0.3,0.3,0.6,0.6c0.5,0.6,1.3,1.3,1.8,1.7c0.4,0.3,0.8,0.5,1.1,0.5c-0.2,0.5-0.5,1.1-0.5,1.8
	c-1.1,0-1.9,0.2-2.3,0.4c-0.3,0.2-1.7,0.3-2.8,0.2C-245,349.6-245.1,349.6-245.1,349.7 M-252.3,334.8c-0.2,0-0.5,0.1-0.7,0.3
	c-0.1,0.1-0.2,0.2-0.3,0.3c-0.3-0.3-0.5-0.5-0.8-0.7c0,0,0,0,0,0c0.1-0.2,0.8-0.6,1.4-0.6C-252.6,334-252.4,334.3-252.3,334.8
	 M-249.7,334.1c1.3-1.2,1.7-1.2,1.8-1.1c0,0.1,0,0.3-0.4,0.9c-0.2,0.4-0.5,0.8-0.4,1.1c-0.3,0.1-0.6,0.2-0.8,0.3
	c0-0.1-0.1-0.2-0.2-0.3c-0.1-0.1-0.2-0.2-0.3-0.2C-250,334.7-250,334.4-249.7,334.1 M-239.8,336.4l0.1-0.1c0.2-0.2,0.5-0.6,0.6-0.7
	c0,0,0.1,0,0.2,0.1c0.2,0.2,0.4,0.5,0.6,0.7c0.4,0.5,0.8,1,1.5,1.2c0.1,0,0.6,0.2,1.1,1.5c0.1,0.2,0.3,0.4,0.6,0.5
	c0,0.2,0.1,0.3,0.3,0.5c0.7,0.5,1.2,0.6,1.8,0.7c0.4,0,0.8,0.1,1,0.4c0.8,0.8,1.5,1.3,2.1,1.5c0.3,0.1,0.7,0.4,1,0.7
	c-1.2,0.1-2.2,1.1-2.5,2.7c0,0,0,0,0,0.1c-0.4-0.2-1-0.4-1.7-0.6c0-0.1,0-0.3-0.1-0.6c-0.2-0.5-0.9-1-0.7-0.5c0,0,0.1,0.2,0,0.5
	c0,0.1,0,0.3,0.1,0.4c-0.5-0.1-0.9-0.2-1.3-0.2c0-0.1-0.1-0.2-0.2-0.4c-0.3-0.4-0.3-0.3-0.4-0.1c0,0-0.1,0.3,0,0.5
	c-0.6,0-1.2,0.2-1.7,0.5c0-0.2,0-0.4-0.1-0.6c-0.1-0.3-0.1-0.6-0.2-0.4c0,0-0.3,0.3-0.2,0.7c0,0.3,0.1,0.4,0.2,0.5
	c-0.6,0.3-1.1,0.7-1.3,1c0,0,0,0,0,0c-0.3-0.1-0.7-0.2-1.1-0.5c-0.4-0.3-0.9-0.7-1.3-1.2c0.1-0.3,0.2-0.8,0-1
	c-0.2-0.2-0.4,0-0.5,0.4c-0.2-0.2-0.4-0.4-0.5-0.5c-0.1-0.1-0.2-0.1-0.3-0.2c0-0.2,0-0.6-0.1-0.7c-0.2,0-0.3,0.2-0.3,0.4
	c-0.4-0.2-0.8-0.3-1.2-0.4l-0.1,0c-0.1,0-0.1,0-0.2,0c0.1-0.2,0.2-0.6,0.1-0.6c-0.1,0-0.4,0.3-0.6,0.5c-0.4,0-0.9-0.1-1.1,0.1
	c0.1-0.4,0.2-1.1,0.2-1.6l0.1,0c0.8-0.6,3.5-2.7,4.1-3.2c0.2-0.1,0.4-0.3,0.6-0.5C-240.8,337.4-240.2,336.9-239.8,336.4
	 M-234.4,339.3C-234.4,339.3-234.3,339.2-234.4,339.3l0-0.1c0.2-0.4,0.8-0.9,1.2-1.3c0.2-0.1,0.3-0.2,0.3-0.2c0,0,0,0,0.1,0.1
	c0.3,0.3,0.5,0.3,0.7,0.3c0.2,0,0.3-0.1,0.4-0.2c0.7-0.5,1.2-0.2,1.2-0.2c0.1,0,0.1,0,0.2,0c1,0,1.3,0.5,1.9,1.4
	c0.1,0.2,0.2,0.4,0.4,0.6c0.6,0.9,2,1.5,3.3,2.1c0,0,0,0,0,0c0,0-0.2,0.2,0,0.4c0.2,0.3,0.8,1,0.9,0.8c0.1-0.2-0.1-0.8-0.2-1.1
	c0.1,0,0.3,0.1,0.4,0.1c0.3,0.1,0.5,0.2,0.7,0.3c1.5,0.6,2.6,0.8,4-0.1c1-0.6,1.4-0.4,1.7,0c0.4,0.5,0.9,0.7,1.5,1
	c0.3,0.1,0.5,0.2,0.8,0.4c0.3,0.2,0.3,0.3,0.3,0.3v0v0c0,0,0,0,0,0.1c0,0-0.3,1-0.6,2.3c-0.2,0.7-0.6,0.8-0.8,0.8
	c-2.3-0.9-3.7,0.2-4.7,0.9c-0.4,0.3-0.7,0.6-0.9,0.6c-0.2,0-0.3,0-0.5-0.2c0,0-0.1-0.1-0.1-0.1c-0.1-0.1-0.2-0.2-0.2-0.4
	c-0.1-0.1-0.1-0.2-0.2-0.3c-0.2-0.3-0.3-0.7-0.6-1c-0.6-0.8-2.6-2-3.7-2.6c-0.2-0.2-0.5-0.4-0.8-0.5c-0.4-0.4-1.2-1.1-1.8-1.3
	c-0.6-0.2-1.2-0.7-1.9-1.4c-0.2-0.2-0.5-0.4-0.8-0.4c-0.1-0.3-0.2-0.9-0.3-0.9c-0.2,0-0.4,0.5-0.5,0.8c-0.4,0-0.8-0.1-1.2-0.5
	c-0.1,0-0.1-0.1-0.1-0.1C-234.5,339.4-234.4,339.4-234.4,339.3L-234.4,339.3z M-209.3,339C-209.3,339-209.3,339-209.3,339
	c0,0,0.1,0,0.1,0c-0.1,0.2-0.2,0.5,0.2,0.5c0.5,0,0.9-0.3,0.4-0.9c0.2-0.3,0.5-0.8,0.5-0.8c0.1-0.1,0.1-0.2,0.1-0.3
	c0-0.1,0-0.1,0-0.2c0.1,0,0.2,0,0.3,0.1c0.2,0.1,0.4,0,0.6-0.1c0.2-0.2,0.3-0.2,0.3-0.2c0,0,0.1,0.1,0.1,0.2
	c0.1,0.2,0.3,0.3,0.5,0.3c0,0,0,0,0.1,0c0,0.1,0,0.3-0.1,0.7c-0.1,0.3-0.1,0.6-0.1,0.9c-0.1,0.1-0.5,0.3-0.9,0.4
	c-0.2,0-0.4,0.2-0.4,0.4c0,0.2,0.1,0.4,0.2,0.5c0,0.1-0.1,0.4-0.1,0.5c-0.2,0.5-0.4,1.1-0.1,1.7c0,0.1,0,0.1-0.3,0.4
	c-0.3,0.2-0.8,0.6-1.1,1.2c-0.4,0.5-1.5,1.1-2.8,1.4c-1.2,0.3-1.6,1.7-1.7,1.8c0,0.1,0,0.2,0,0.3c-0.5,0.2-1.7,0.5-1.9-0.3
	c0.3-0.2,0.6-0.5,0.7-1c0.3-1.2,0.6-2.2,0.6-2.3c0,0,0.1-0.2,0-0.3c0.2-0.2,0.3-0.7,0.6-1.7c0.2-1.1,1-1.6,2.1-2.3l0.5-0.3
	C-209.8,338.9-209.3,339-209.3,339 M-226.6,345c0,0,0-0.1,0-0.1c1.1,0.6,2.4,1.4,2.8,2c0,0,0,0,0,0c-0.4-0.1-0.8-0.1-1.3,0.1
	c-1.6,0.5-2.1,0.3-3-0.1c-0.2-0.1-0.4-0.2-0.7-0.3c-0.4-0.2-0.6-0.4-0.5-0.7c0.1-0.4,0.5-0.7,0.6-0.6c0,0,0.4,0.2,0.2,0.9
	c-0.1,0.3,0.9,0.3,1.4,0C-226.8,345.9-226.5,345.5-226.6,345 M-247.7,338.2c-0.2-0.3-0.5-0.7-0.8-1.1c-0.3-0.4-0.6-0.9-0.8-1.1
	c1.2-0.6,2.4-0.8,2.7-0.7l0,0c0.4,0.2,0.7,0.4,0.7,0.6c0,0.2-0.1,0.9-1.8,2.3C-247.7,338.2-247.7,338.2-247.7,338.2 M-224.9,347.5
	c1-0.3,1.4,0.1,1.8,0.7c0.1,0.2,0.2,0.4,0.4,0.6c0.3,0.5,0.7,0.9,1.3,1c0.3,0,0.4,0.1,0.5,0.1c0,0,0,0.1,0,0.1c0,0,0,0.1,0,0.1
	c0,0,0,0.1,0,0.1c-0.4,0.2-1.1,0.5-2.2,0.1c0,0,0,0-0.1,0c0,0-0.2,0.2-0.1,0.6c0,0.1,0,0.2,0,0.3c-0.1,0.1-0.3,0.1-0.6,0.2
	c-0.1,0-0.2,0-0.3,0c0.3-0.3,0.5-0.8,0.5-1.5c0-1.5-0.9-2-2.4-2.2C-225.8,347.8-225.4,347.7-224.9,347.5 M-246.3,340.9
	c-0.3-0.7-0.7-1.5-1-2.1c0.7-0.6,1.2-1.2,1.6-1.6c0.3,0,0.9,0,1.3-0.7c0.1-0.1,0.1-0.3,0.2-0.4c0.3,0.4,0.7,1,0.9,1.5
	c0.1,0.2,0.3,0.5,0.6,0.7C-243.9,339-245.6,340.4-246.3,340.9 M-245.1,336.3c-0.1,0.2-0.2,0.3-0.3,0.3c0.1-0.2,0.2-0.5,0.1-0.7
	c-0.1-0.6-0.6-0.8-1-1.1l0,0c-0.4-0.2-1.1-0.1-1.8,0.1c0.1-0.2,0.2-0.4,0.3-0.6c0.1-0.1,0.1-0.2,0.2-0.3c0.1,0,0.2-0.1,0.3-0.1
	c1.4-0.6,1.8-0.2,2.4,0.4C-244.6,334.6-244.7,335.2-245.1,336.3 M-222.9,352c0,0,0,0.1,0,0.1c0,0.1-0.1,0.5,0.4,0.8c0,0,0,0,0,0
	c-0.1,0-0.8,0.2-1.3-0.7C-223.6,352.3-223.2,352.2-222.9,352 M-216.9,352.4L-216.9,352.4C-216.9,352.4-216.9,352.4-216.9,352.4
	c0,0-0.2,0-0.3-0.1c-0.4-0.4-1-0.8-1.6-1.2c0-0.1,0-0.4,0-0.5c-0.1-0.2-0.6,0-0.8,0.1c-0.3-0.2-0.6-0.3-0.7-0.4c0,0,0,0,0,0
	c0,0,0,0,0-0.1c0-0.2,0.1-0.4,0-0.7c-0.1-0.2-0.4-0.3-0.9-0.4c-0.1,0-0.2,0-0.2-0.1c0.3-0.1,0.7-0.4,1.1-0.7c1-0.7,2.1-1.7,4.2-0.8
	c0,0,0,0,0,0c0,0,0.1,0,0.3,0c0.1,0.3,0.4,0.7,1.1,0.7c-0.3,0.4-0.4,0.7-0.3,1.3c0,0.4,0.1,1.1,0.1,1.5
	C-216.2,352.5-216.9,352.4-216.9,352.4 M-203.7,345.1c-0.3,0-1,0.1-1.5-0.2c0.3-3.2,0.6-3.6,0.9-4c0.2-0.3,0.4-0.6,0.7-1.2
	c0.6-1.5,1.8-1.8,3.5-2.2l0.2,0c1.2-0.3,1.9,0.2,2.2,0.4c-0.2,0.3-0.4,0.9-0.3,1.4c0.1,0.4,0.5,0.7,1.1,0.9c-0.6,1-2.2,2-4.4,2.8
	C-203.1,343.7-203.6,344.7-203.7,345.1 M-196.5,339.6c-0.4-0.1-0.7-0.3-0.8-0.5c-0.1-0.3,0.1-0.7,0.2-0.9c1.7,0.4,3-1.2,3.9-2.2
	c0.2-0.2,0.4-0.4,0.5-0.5c0.9-0.9,1.7-1.5,2.8-0.6c1.1,0.9,0.8,1.6-0.5,3.4c-0.7,0.9-3.7,1.2-5.7,1
	C-196.2,339.3-196.5,339.4-196.5,339.6 M-195.1,335.4c0.5-0.8,1.3-0.9,1.5-0.8c0,0.1,0,0.5,0,0.8c0,0.1,0,0.2,0,0.3
	c-0.1,0.1-0.3,0.3-0.4,0.4c-0.9-0.3-1.1-0.5-1.1-0.6C-195.2,335.5-195.2,335.4-195.1,335.4 M-189.5,334.4c-0.3-0.3-0.6-0.4-0.9-0.5
	c0-0.6,0-1.1,0.1-1.2c0.3,0.1,0.6,0.2,0.9,0.3c0.2,0.1,0.8,0.2,0.9,0.4c0,0,0,0.1-0.1,0.1C-188.7,333.8-189,334.1-189.5,334.4
	C-189.5,334.4-189.5,334.4-189.5,334.4 M-188.7,331.8c-0.1-0.3-0.2-0.4-0.2-0.5c0.1,0,0.2,0.1,0.3,0.1c0.1,0.1,0.3,0.2,0.6,0.3
	c0,0,0,0,0,0c-0.3,0.1-0.5,0.2-0.6,0.3C-188.7,332-188.7,331.9-188.7,331.8 M-254,333c0,0,0.1-0.1,0.2-0.1c0.1,0,0.1,0,0.2,0.1
	c0,0,0.1,0.1,0.1,0.2c0,0.1-0.1,0.2-0.2,0.2c-0.1,0-0.1,0-0.2-0.1c0,0-0.1-0.1-0.1-0.2C-254.1,333.1-254.1,333.1-254,333"/>
<path class="st0" d="M-241.9,338.8c-0.3,0.1-0.9,0.9-0.5,1c0,0,0.8-0.5,0.9-0.7C-241.3,338.9-241.6,338.7-241.9,338.8"/>
<path class="st0" d="M-241.2,340.1c0.4,0.1,0.5-0.2,0.7-0.5c0.2-0.3,0-0.8-0.3-0.4C-240.8,339.2-241.6,340-241.2,340.1"/>
<path class="st0" d="M-239.8,340.6c0.2-0.3,0.4-0.8,0.3-1.1c-0.1-0.3-0.3-0.2-0.3-0.2s-0.6,0.7-0.6,1
	C-240.3,340.6-240.1,340.9-239.8,340.6"/>
<path class="st0" d="M-238.2,340.9c0.3-0.1,0.2-0.5,0.1-0.9c-0.1-0.4-0.2-0.6-0.4-0.5c0,0-0.2,0.3-0.2,0.7
	C-238.6,340.6-238.5,341-238.2,340.9"/>
<path class="st0" d="M-229.2,293.9c0,0-0.4,0.1-0.3,0.6c0.1,0.5,0.2,0.8,0.8,0.7c0.6-0.1,0.2-1.2,0.1-1.3
	C-228.8,293.8-229.2,293.9-229.2,293.9 M-229,294.8c0,0,0-0.1-0.1-0.3c0-0.1,0-0.1,0-0.1c0,0,0.1,0,0.1,0c0.1,0.1,0.1,0.3,0.1,0.4
	C-228.9,294.8-229,294.8-229,294.8"/>
<path class="st0" d="M-229.2,295.5c0,0-0.2,0.2-0.2,0.5c0,0.3,0,0.7,0.5,0.6c0.5,0,0.6-0.4,0.5-0.8
	C-228.4,295.4-228.9,295.3-229.2,295.5 M-228.8,296.2C-228.8,296.2-228.9,296.2-228.8,296.2l-0.1,0c0,0,0-0.1,0-0.1c0,0,0-0.1,0-0.1
	c0,0,0-0.1,0-0.1c0,0,0.1,0,0.1,0c0,0,0,0,0,0.1C-228.8,296.1-228.8,296.1-228.8,296.2"/>
<path class="st0" d="M-229.2,296.9c0,0-0.6,0.6-0.2,0.8c0.4,0.2,0.7,0.3,0.9-0.3C-228.3,296.9-228.7,296.5-229.2,296.9
	 M-228.9,297.3c0,0,0,0.1,0,0.1c0,0,0,0-0.1,0c0-0.1,0.1-0.1,0.1-0.2c0,0,0,0,0,0C-228.9,297.2-228.9,297.2-228.9,297.3"/>
<path class="st0" d="M-228.3,293.3c0,0-0.3,0.1-0.2,0.4c0.1,0.4,0.3,0.9,0.8,0.8c0.5-0.2,0.4-0.5,0.2-1
	C-227.7,293-228,293.2-228.3,293.3 M-227.9,294.1C-227.9,294.1-227.9,294.1-227.9,294.1c0,0-0.1-0.1-0.2-0.4l0.1,0c0,0,0,0,0,0
	c0,0,0,0,0,0C-227.9,293.8-227.8,294-227.9,294.1C-227.9,294.1-227.9,294.1-227.9,294.1"/>
<path class="st0" d="M-228.2,295.2c0,0-0.2,0.8,0.3,0.8c0.5,0,0.8-0.1,0.7-0.7C-227.2,294.5-228.1,294.4-228.2,295.2 M-227.7,295.5
	c0,0-0.1,0-0.2,0c0-0.1,0-0.2,0-0.3c0,0,0,0,0,0c0-0.1,0-0.1,0-0.1c0,0,0,0,0,0c0,0,0.1,0.1,0.1,0.2
	C-227.6,295.5-227.7,295.5-227.7,295.5"/>
<path class="st0" d="M-227.8,296.2c0,0-0.4,0.1-0.4,0.4c0,0.3-0.2,0.9,0.3,0.8c0.5-0.1,0.9-0.2,0.8-0.9
	C-227.2,295.9-227.5,296.1-227.8,296.2 M-227.5,296.9c0,0-0.1,0.1-0.3,0.1c0,0,0-0.1,0-0.1c0-0.1,0-0.2,0-0.3c0,0,0.1,0,0.1-0.1
	c0,0,0.1,0,0.1,0c0,0,0,0.1,0,0.1C-227.5,296.8-227.5,296.9-227.5,296.9"/>
<path class="st0" d="M-227.3,292.3c0,0-0.4,0.3-0.2,0.8c0.2,0.6,0.5,0.6,0.8,0.5c0.2-0.1,0.4-0.3,0.2-0.9
	C-226.7,292.2-227,292-227.3,292.3 M-227,292.6L-227,292.6C-227,292.7-227,292.7-227,292.6C-227,292.7-227,292.7-227,292.6
	 M-226.9,293.2C-226.9,293.2-226.9,293.2-226.9,293.2L-226.9,293.2c-0.1,0-0.2,0-0.2-0.2c-0.1-0.2,0-0.3,0-0.4
	c0,0.1,0.1,0.1,0.1,0.2C-226.9,293.1-226.9,293.2-226.9,293.2"/>
<path class="st0" d="M-227.1,294.4c0.1,0.4,0,1,0.5,0.7c0.5-0.3,0.5-0.5,0.4-1C-226.3,293.4-227.2,294-227.1,294.4 M-226.6,294.6
	C-226.6,294.6-226.6,294.6-226.6,294.6c-0.1,0-0.1-0.1-0.1-0.2c0,0,0-0.1,0.1-0.1C-226.6,294.5-226.6,294.6-226.6,294.6"/>
<path class="st0" d="M-226.9,295.9c0,0.5,0,1,0.5,0.9c0.4-0.1,0.6-0.4,0.5-1C-226,294.9-227,295.4-226.9,295.9 M-226.5,296.3
	c0-0.1,0-0.3,0-0.4c0,0,0,0,0-0.1c0,0,0.1,0,0.1-0.1c0,0,0,0,0,0.1C-226.3,296.2-226.4,296.3-226.5,296.3"/>
<path class="st0" d="M-213.9,298.5c-0.1,0-0.3,0.1-0.5,0.3l-0.2,0.2c-0.3,0.3-1,1-1.2,1c0,0-0.1,0-0.1,0.1c0,0.1,0,0.1,0.1,0.1h2.8
	c0,0,0.1,0,0.1,0c0,0,0-0.1,0-0.1c-0.2-0.3-0.8-1.2-0.9-1.3C-213.7,298.6-213.8,298.5-213.9,298.5 M-214.3,299.6
	c0.1-0.1,0.2-0.2,0.2-0.2l0.1-0.1c0,0.1,0.1,0.1,0.2,0.2H-214.3z"/>
<path class="st0" d="M-252.5,326.1c1.7,5.6,2.9,6.6,2.5,3.4c-0.4-3.2-1-5.7-0.6-6.2c0.3-0.5,0.1-1.3,0-2.1c-0.2-0.8,0.3-1-0.3-3
	c-0.6-2,0.1-1.5,0-2.5c0-1-0.4-1-0.3-2.2c0.1-1.2,0.2-3,0.2-3s-1.1,0-1.2,0.7c-0.1,0.7-0.1,9.2,0.4,12.2c0.6,3-1,0.1-1.2-3.6
	c-0.2-3.7-0.1-7.9-0.1-7.9s0.2-1-1-1.2C-254.1,310.5-254.2,320.5-252.5,326.1"/>
<path class="st0" d="M-247.6,323.6c0-2.1-0.8-3-0.4-4.2c0.3-1.2,0.6-1.7-0.1-2.7c-0.6-1-0.4-0.9-0.2-2.2c0.2-1.3-0.2-3.2,0-4.2
	c0,0-0.6-0.5-0.7,0.1c-0.1,0.6,0.2,7.5,0.6,10.3c0.4,2.8-0.3,1.6-0.6-0.7c-0.2-1.6-0.6-9.4-0.6-9.4s-0.8-0.6-0.9,0
	c0,0-0.2,9.4,1.6,12.9C-247.3,326.9-247.6,325.7-247.6,323.6"/>
<path class="st0" d="M-245.2,321.4c-0.3-1.1-0.3-1.3-0.2-2.3c0.1-1-0.3-1.8-0.5-3.1c-0.2-1.3-0.3-4.5-0.3-6.3c0,0-0.3-0.3-0.7,0
	c0,0,0,4.7,0.3,6.4c0.2,1.7-0.7-0.1-0.7-3.1c0-3,0-3.6-0.6-3c0,0-0.2,9.1,2.4,11.9C-245.6,321.9-244.9,322.5-245.2,321.4"/>
<path class="st0" d="M-245.6,309.1c0,0-0.3,8.3,2,10.6c2.3,2.3,0.6,0.1,0.6-2.5c0-3.1-0.6-2.4-0.7-3.2c0,0-0.1-3.1-0.3-4.1
	c-0.1-0.9-0.8-1.4-0.6,0.1c0.2,1.5,0.6,5.4,0.1,5.5c-0.6,0-0.5-2.5-0.5-4C-245.1,310-244.9,309.1-245.6,309.1"/>
<path class="st0" d="M-242.4,308.8c0,0-0.4-0.3-0.3,1.1c0.1,1.5,0.4,2.9-0.1,2.8c-0.5,0-0.3-1.8-0.4-2.6c-0.1-0.7-0.2-1.6-0.5-1.1
	c0,0,0.1,5.6,1.6,7.9c1.5,2.3,1.5,0.6,0.8-0.8c-0.7-1.4-0.9-3.1-0.9-4.3C-242,310.6-242.4,308.8-242.4,308.8"/>
<path class="st0" d="M-240.9,314.2c1,1.4,0.7,0.2,0.5-1.2c-0.2-1.4-0.2-3.6-0.2-4.7c0,0-0.3-0.3-0.6,0c0,0,0.3,2.5,0,2.5
	c-0.3,0-0.3-0.9-0.4-1.8c-0.1-0.9-0.2-0.6-0.4-0.5C-242,308.5-241.9,312.9-240.9,314.2"/>
<path class="st0" d="M-253.5,301.8c0,0-0.3,1.8-0.4,4.4c-0.1,2.6,0.1,3.1,1.1,3.1c1.3,0.1,1.6-0.8,1.8-2.9c0.2-2.3,0.3-3.4,0.3-3.7
	c0-0.4-0.7-1.2-0.9,0.1c-0.1,1.4-0.1,5.7-0.9,5.5c-0.9-0.2-0.6-2.3-0.5-3.8c0.2-1.5,0.6-3.3,0.1-3.4
	C-253.5,300.9-253.5,301.8-253.5,301.8"/>
<path class="st0" d="M-250.3,302.7c0,0-1.1,6.4,0,6.4c1.7,0.1,1.5-1.8,1.6-3.8c0.2-2,0.4-2.6-0.1-2.6c-0.4,0-0.5,1.9-0.6,3
	c-0.1,1,0,2.4-0.5,2.3c-0.5-0.1-0.5-1.5-0.3-2.8C-249.7,302.4-249.9,302.1-250.3,302.7"/>
<path class="st0" d="M-247.7,303.4c0,0-0.1-0.3-0.4-0.2c0,0-0.2,2.2-0.3,3.5c-0.1,1.3,0.2,1.9,1,1.9c0.9,0,0.8-1.5,0.8-2.8
	c0-1.2,0.4-2.4,0-2.5c-0.4-0.1-0.4,0.8-0.4,1.6c0,0.8-0.1,2.6-0.5,2.6c-0.4,0-0.6-0.4-0.5-1.7C-247.8,304.6-247.7,303.4-247.7,303.4
	"/>
<path class="st0" d="M-222.8,308.7c0.3-0.1,0.2-0.3,0.5,0c0.3,0.3,0.3,0.3,0.6,0.2c0.3-0.1,0.7,0.1,0.9,0.3c0.2,0.2,0.4,0.2,0.4,0.3
	c0,0.2-0.3,0.4,0.4,0.5c0.7,0.1,0.9,0.2,1.1,0c0.2-0.2,0.5-0.2-0.1-0.6c-0.6-0.3-0.8-0.3-1.2-0.7c-0.5-0.5-0.4-0.5-0.7-0.6
	c-0.3-0.1-0.7-0.3-1.1-0.2c-0.5,0.1-1,0.1-1,0.1s-0.2,0.1-0.1,0.3C-223.1,308.6-223.1,308.8-222.8,308.7"/>
<path class="st0" d="M-219.8,310.4c-0.2,0-0.4-0.2-0.6-0.2c0,0-0.3,0-0.2,0.3c0.2,0.3,0.4,0.3,0.6,0.3
	C-219.8,310.7-219.6,310.4-219.8,310.4"/>
<path class="st0" d="M-218.2,310.6c0,0,0.5,0,0.7-0.2c0.2-0.1,0.4,0.1,0.7,0.1c0.2,0,0.4,0,0.5-0.2c0.2-0.3,0-0.4-0.2-0.6
	c-0.2-0.2-0.5-0.2-0.7-0.1c-0.2,0.1-0.2,0.2-0.4,0.2C-217.8,309.9-218.5,310.6-218.2,310.6"/>
<path class="st0" d="M-215.5,310.8c0.1,0,0.4,0.1,0.5,0c0.1,0,0.3,0,0.1-0.3c-0.2-0.3-0.1-0.4-0.5-0.3c-0.4,0.1-0.3,0.2-0.3,0.2
	S-215.6,310.8-215.5,310.8"/>
<path class="st0" d="M-214.1,314.9c0.1,0.1,0.2,0.2,0.3,0c0.1-0.2,0.1-0.6-0.4-0.5c0,0-0.2,0.1-0.1,0.2
	C-214.2,314.8-214.1,314.9-214.1,314.9"/>
<path class="st0" d="M-241.7,304.7c-0.5,3.9,1,2.5,1,2.5c0.1-1,0.2-2.3,0.2-2.3c-0.1-0.2-0.3-0.1-0.3,0.4c0,0.5-0.1,1.6-0.4,1.5
	c-0.4-0.1-0.1-2.1-0.2-2.2C-241.7,304.6-241.7,304.7-241.7,304.7"/>
<path class="st0" d="M-243.6,304.3c0,0-0.3,1.9-0.3,2.5c0,0.6,0.3,1,1.1,1c0.8-0.1,0.6-1.1,0.7-1.9c0.1-0.8,0.1-1.3,0.1-1.3
	c-0.4-0.1-0.3,0-0.5,1c-0.1,1.1-0.1,1.5-0.6,1.6c-0.5,0-0.2-2-0.2-2.5C-243.2,304.1-243.6,304.3-243.6,304.3"/>
<path class="st0" d="M-245.7,303.8c0,0-0.3,1.9-0.3,3.3c0,1.4,1.7,1,1.7,0c0.1-1.1,0.4-3,0.4-3c-0.5-0.4-0.6,0.7-0.7,1.7
	c-0.1,1-0.1,1.6-0.7,1.5c-0.5-0.1-0.2-2.7-0.1-3.2C-245.4,303.6-245.7,303.8-245.7,303.8"/>
<path class="st0" d="M-246.5,338.1c-0.3,0.5-0.1,0.6,0.2,0.7c0.3,0,0.4-0.8,0.4-0.8C-246,337.6-246.2,337.6-246.5,338.1"/>
<path class="st0" d="M-245.3,337.9c0,0-0.4-0.1-0.3,0.5c0.1,0.6,0.4,0.7,0.5,0.5c0.1-0.1,0.1-0.6,0.1-0.8
	C-245,338-245.2,337.7-245.3,337.9"/>
<path class="st0" d="M-244.5,337.7c0,0-0.1,0.5,0.1,0.8c0.2,0.3,0.6,0.5,0.5-0.2C-244,337.7-244.2,337.5-244.5,337.7"/>
<path class="st0" d="M-250.6,336.7c-0.1-0.1-0.3-0.1-0.4,0.1c0,0-0.1,0.4,0.2,0.4C-250.4,337.2-250.5,336.8-250.6,336.7"/>
<path class="st0" d="M-252.2,337.6L-252.2,337.6c0,0,0,0.3,0.2,0.3c0.2,0,0.2-0.1,0.2-0.2C-251.7,337.5-252.1,337.4-252.2,337.6"/>
<path class="st0" d="M-251.7,339.5c0,0-0.2,0.2,0.1,0.4c0.3,0.2,0.3,0.1,0.3-0.2C-251.4,339.4-251.5,339.4-251.7,339.5"/>
<path class="st0" d="M-250,339.5c0,0,0.2,0.1,0.3,0c0-0.1-0.1-0.2-0.1-0.2S-250.1,339.2-250,339.5"/>
<path class="st0" d="M-249.7,340.9c0,0-0.1,0.3,0.2,0.4c0.3,0,0.3-0.3,0.2-0.4C-249.4,340.8-249.7,340.9-249.7,340.9"/>
<path class="st0" d="M-248.2,341.4c0,0,0.3,0.1,0.3,0c0-0.1,0-0.2-0.1-0.3C-248.1,341-248.3,341.1-248.2,341.4"/>
<path class="st0" d="M-248.5,346.7c0,0,0.5-1.2-0.2-1c0,0-0.4,0.3-0.3,0.9c0,0-0.4-0.1-0.1,0.4c0.3,0.5,0.4,1,0.9,0.5
	C-247.7,347-248.5,346.7-248.5,346.7"/>
<path class="st0" d="M-246.6,347.6c0,0-0.4,0.3-0.3,0.5c0.1,0.2,0.7,0.2,0.7,0C-246.1,347.9-246.4,347.4-246.6,347.6"/>
<path class="st0" d="M-244.7,347.9c0,0-0.5,0.1-0.3,0.4c0.2,0.3,0.7,0.3,0.7,0.2C-244.2,348.5-244,347.8-244.7,347.9"/>
<path class="st0" d="M-246.2,345.7c0,0-0.5,0.3-0.3,0.5c0.2,0.2,0.6-0.2,0.6-0.2S-245.8,345.7-246.2,345.7"/>
<path class="st0" d="M-244.5,345.2c0.4,0.1,0.6-0.2,0.6-0.2s-0.3-0.7-0.6-0.4C-244.5,344.6-244.8,345-244.5,345.2"/>
<path class="st0" d="M-242.2,347.6c0.4,0.2,0.6,0,0.6,0s0.3-0.4-0.7-0.6C-242.3,347.1-242.5,347.5-242.2,347.6"/>
<path class="st0" d="M-236.7,347.4c0-0.4-0.4-0.2-0.4-0.2s-0.3,0.1-0.3,0.2c0,0.2,0.3,0.2,0.3,0.2S-236.7,347.8-236.7,347.4"/>
<path class="st0" d="M-236.7,349.6c-0.2-0.1-0.4,0.1-0.4,0.1s-0.1,0.5,0.3,0.5c0.5,0,0.5-0.3,0.5-0.3S-236.3,349.8-236.7,349.6"/>
<path class="st0" d="M-234.1,348.9c0-0.3-0.3-0.5-0.5-0.4c0,0-0.5,0-0.6,0.4c-0.1,0.4,0.7,0.4,0.7,0.4S-234.1,349.2-234.1,348.9"/>
<path class="st0" d="M-234.7,350.4c0,0,0,0.4,0.4,0.4c0.4,0,0.4-0.3,0.4-0.3S-234.6,350.1-234.7,350.4"/>
<path class="st0" d="M-232.2,349c0.5,0,0.3-0.4,0.3-0.4s-0.1-0.2-0.5-0.2c-0.3,0-0.4,0-0.4,0.3C-232.6,348.7-232.6,349-232.2,349"/>
<path class="st0" d="M-236.8,341.1c0.3,0,0.1-0.9,0.1-0.9s-0.2-0.5-0.4-0.5c0,0-0.4,0-0.3,0.7C-237.2,341-237.1,341.1-236.8,341.1"
	/>
<path class="st0" d="M-235.7,340.7c0.2,0.3,0.3,0.3,0.6,0.2c0.2-0.1-0.4-1.1-0.4-1.1s-0.6-0.3-0.6,0
	C-236.2,339.7-235.9,340.4-235.7,340.7"/>
<path class="st0" d="M-243.9,340.5c-0.2,0-0.9,0.5-0.6,0.6c0,0,0.4,0.1,0.6-0.2C-243.7,340.6-243.7,340.5-243.9,340.5"/>
<path class="st0" d="M-242.8,341c0,0-0.8,0.8-0.5,1c0.3,0.2,0.6-0.3,0.7-0.6C-242.5,341-242.6,340.9-242.8,341"/>
<path class="st0" d="M-242,342.3c0.1,0.2,0.3,0.6,0.6,0c0.2-0.6,0.1-0.7-0.1-0.5C-241.5,341.7-242.1,342-242,342.3"/>
<path class="st0" d="M-240,342.5c0.1-0.8,0-0.7-0.2-0.5c0,0-0.5,0.4-0.4,0.6C-240.4,342.9-240.1,343.3-240,342.5"/>
<path class="st0" d="M-238.5,343.6c0.4,0,0.3-0.6,0.2-1.1c-0.1-0.5-0.2-0.5-0.4-0.5c0,0-0.2,0-0.2,0.5
	C-238.9,343.1-238.9,343.6-238.5,343.6"/>
<path class="st0" d="M-237,342.3c0,0-0.4,0.9,0.1,1.2c0.6,0.4,0.4-0.3,0.2-0.7C-236.8,342.5-236.9,342.1-237,342.3"/>
<path class="st0" d="M-235.4,342.2c0,0-0.3,0-0.2,0.4c0.1,0.5,0.3,0.9,0.7,0.8C-234.4,343.3-235.1,342.4-235.4,342.2"/>
<path class="st0" d="M-232.9,343.3c0.2-0.5-1-1.4-1.2-1.3c0,0-0.4,0.2,0,0.6C-233.7,343.1-233.1,343.8-232.9,343.3"/>
<path class="st0" d="M-231.4,343.1c0.3-0.2-0.5-0.9-0.5-0.9s-0.6-0.6-0.7-0.4c0,0-0.3,0.3,0.1,0.8C-232,343-231.7,343.3-231.4,343.1
	"/>
<path class="st0" d="M-239.7,344.4c0,0-0.8,1.1-0.3,1.3c0.5,0.2,0.5-0.8,0.5-1.2C-239.5,344.1-239.7,344.4-239.7,344.4"/>
<path class="st0" d="M-232.3,344.1c0,0,0.3,0.6,0.3,0.8c0.1,0.2,0.3,0.6,0.5,0.3c0.2-0.4,0.1-0.5-0.2-0.8
	C-231.9,344.1-232.5,343.8-232.3,344.1"/>
<path class="st0" d="M-248.8,299.4c0,0-0.8-0.2-1.1,0.7c-0.3,0.9-0.1,1.2,0.1,1.2c0.2,0,0.3-0.9,0.5-0.8c0.2,0.1-0.3,0.8,0.1,0.9
	c0.3,0.1,0.4-0.8,0.7-0.8c0.2,0.1-0.2,0.8,0.1,0.9C-248.1,301.7-247.6,299.7-248.8,299.4"/>
<path class="st0" d="M-246.5,300.2c0,0-0.7-0.1-1,0.7c-0.2,0.8,0,1.1,0.1,1.1c0.2,0,0.2-0.8,0.4-0.7c0.2,0.1-0.2,0.8,0.1,0.8
	c0.3,0.1,0.4-0.8,0.6-0.7c0.2,0.1-0.2,0.8,0.1,0.8C-245.8,302.2-245.4,300.4-246.5,300.2"/>
<path class="st0" d="M-251,300.6c0.4,0.1,1.2-2.1-0.2-2.6c0,0-1-0.3-1.5,0.7c-0.5,1-0.2,1.5,0,1.4c0.2,0,0.4-1,0.7-0.9
	c0.3,0.1-0.4,1,0,1.1c0.4,0.1,0.6-1,0.9-0.8C-250.8,299.6-251.4,300.5-251,300.6"/>
<path class="st0" d="M-244.4,301c0,0-0.6-0.1-0.9,0.6c-0.2,0.7-0.1,1,0.1,0.9c0.1,0,0.2-0.7,0.4-0.6c0.2,0.1-0.2,0.7,0,0.7
	c0.2,0.1,0.3-0.7,0.5-0.6c0.2,0.1-0.2,0.7,0.1,0.7C-243.8,302.8-243.5,301.2-244.4,301"/>
<path class="st0" d="M-242.3,303.1c0.2,0.1,0.5-1.2-0.2-1.4c0,0-0.5-0.1-0.7,0.5c-0.2,0.6-0.1,0.8,0.1,0.8c0.1,0,0.2-0.6,0.3-0.5
	c0.1,0.1-0.2,0.5,0,0.6c0.2,0.1,0.3-0.5,0.4-0.5C-242.2,302.5-242.5,303-242.3,303.1"/>
<path class="st0" d="M-240.5,303.5c0.2,0,0.4-1.3-0.4-1.4c0,0-0.5,0-0.6,0.5c-0.1,0.6,0,0.8,0.2,0.8c0.1,0,0.1-0.6,0.3-0.6
	c0.2,0-0.1,0.6,0.1,0.6c0.2,0,0.2-0.6,0.4-0.5C-240.5,302.9-240.7,303.5-240.5,303.5"/>
<path class="st0" d="M-252.3,302.3c-0.1,0.7-0.7,5.1-0.3,5.2c0.4,0.1,0.3-1.9,0.4-2.9c0.1-1,0.3-2.5,0.3-2.5
	S-252.1,301.5-252.3,302.3"/>
<path class="st0" d="M-249.6,303.2c-0.1,0.6-0.5,4-0.3,4.1c0.3,0.1,0.3-1.5,0.3-2.3c0.1-0.8,0.2-2,0.2-2S-249.5,302.6-249.6,303.2"
	/>
<path class="st0" d="M-247.3,303.8c-0.1,0.5-0.4,3.2-0.1,3.2c0.3,0,0.2-1.2,0.2-1.8c0-0.6,0.1-1.6,0.1-1.6S-247.3,303.3-247.3,303.8
	"/>
<path class="st0" d="M-245,304.1c-0.1,0.4-0.4,2.4-0.1,2.5c0.3,0,0.2-0.9,0.3-1.4c0-0.5,0.1-1.2,0.1-1.2S-245,303.7-245,304.1"/>
<path class="st0" d="M-242.7,304.5c0,0-0.2-0.2-0.3,0.1c-0.1,0.3-0.3,1.9,0,1.9c0.3,0,0.2-0.7,0.2-1.1
	C-242.7,305.1-242.7,304.5-242.7,304.5"/>
<path class="st0" d="M-240.9,304.7c0,0-0.2-0.1-0.2,0.1c0,0.2-0.2,1.6,0,1.6c0.2,0,0.1-0.6,0.2-0.9
	C-241,305.2-240.9,304.7-240.9,304.7"/>
<path class="st0" d="M-205.5,302.9v1.4c0,0,0.7-0.1,0.7-0.2c0-0.2,0.3,0.1,0.3,0.1S-204.6,303.4-205.5,302.9"/>
<path class="st0" d="M-204.4,306.8c-0.3,0-0.5,0.1-0.5-0.6c0-0.7,0.1-1.1-0.5-0.9v2.1c0,0,0.9,0.7,1.5,0c0,0,0.2-1.3-0.2-2.2
	c0,0-0.1-0.1-0.3,0.1C-204.4,305.4-204.2,306.8-204.4,306.8"/>
<path class="st0" d="M-205.4,308.4c0,0-0.1,1.6,0,1.6c0.1,0,0.6,0,0.6-1C-204.9,308-205.2,308.1-205.4,308.4"/>
<path class="st0" d="M-204.3,308.1c0,0-0.2,0-0.2,0.6c0,0.7-0.2,1.1,0,1.1c0.2,0,0.4-0.6,0.5-1.1C-203.8,308.2-204,308-204.3,308.1"
	/>
<path class="st0" d="M-205.3,311.4c0.4,0,0.9,0,1-0.6c0.1-0.6-0.6-0.5-1.2,0.1C-205.4,310.8-205.6,311.3-205.3,311.4"/>
<path class="st0" d="M-205.4,312.1c0,0-0.1,1.8,0,1.7c0.1-0.1,0.7-1.2,0.8-1.6C-204.5,311.8-205.3,311.8-205.4,312.1"/>
<path class="st0" d="M-205.7,323.7c0.2,1.1,0.1,1-0.2,1c-0.2,0-0.5-1.5-0.9-0.5c-0.2,0.6-0.6,1.4,0.1,1.4c0.7-0.1,2.4,0.1,1.9-1.3
	C-205.4,322.9-206,322.6-205.7,323.7"/>
<path class="st0" d="M-204.2,328c0,0,0.2-0.2,0.1-0.6c-0.1-0.4-1.2-0.1-1.2-0.1l-2.5,0.1c0,0-0.3,0.5-0.2,0.6
	C-208,328.1-204.4,328.1-204.2,328"/>
<path class="st0" d="M-206.5,330.2c0-1-0.2-1.8-1-1.8c0,0-1.1-0.1-1.1,0.7c0,0.7-0.1,1.8,0.2,1.8c0.3,0,0.1-1.3,0.3-1.3
	c0.3,0,0.3,0.5,0.3,0.9c0,0.4,0.5,0.5,0.4,0c0-0.5-0.3-1,0-0.9c0.3,0.1,0.4,0.1,0.3,0.6C-207.1,330.6-206.5,331.2-206.5,330.2"/>
<path class="st0" d="M-205.4,329.4c0.2,0,0.3,0.5,0.3,0.8c0,0.3,0.4,0.5,0.4,0c0-0.5-0.2-0.9,0-0.8c0.3,0.1,0.3,0.1,0.3,0.6
	c0,0.5,0.5,1,0.5,0.1c0-0.9-0.2-1.7-0.9-1.7c0,0-1-0.1-1,0.6c0,0.7-0.1,1.6,0.2,1.6C-205.4,330.6-205.7,329.4-205.4,329.4"/>
<path class="st0" d="M-231.1,340.8c0.4,0,0.2-1.9-0.2-1.6c0,0-0.2,0.2-0.2,0.6C-231.7,340.3-231.5,340.8-231.1,340.8"/>
<path class="st0" d="M-229.6,340.7c-0.1-0.7-0.4-1.1-0.5-0.8c0,0-0.1,0.4,0,0.9C-230,341.3-229.5,341.4-229.6,340.7"/>
<path class="st0" d="M-228,340.9c0.1-0.1-0.5-1.2-0.7-0.9c0,0-0.3,0.1,0,0.6C-228.4,341-228.1,341-228,340.9"/>
<path class="st0" d="M-226.4,343.1c0-0.2-0.3-0.4-0.4-0.4c0,0-0.3,0.2,0,0.4C-226.6,343.4-226.4,343.3-226.4,343.1"/>
<path class="st0" d="M-225,343.2c0.4-0.2-0.4-0.8-0.8-0.8c0,0-0.2,0,0,0.4C-225.6,343.1-225.4,343.4-225,343.2"/>
<path class="st0" d="M-223.4,345.4c0.4,0.4,0.7,0.4,0.5-0.1c-0.2-0.5-0.4-0.8-0.6-0.6C-223.5,344.8-223.8,345.1-223.4,345.4"/>
<path class="st0" d="M-221.4,345c0.1-0.3-0.6-1.2-0.9-1.2c0,0-0.4,0,0,0.6C-222,345.1-221.5,345.3-221.4,345"/>
<path class="st0" d="M-220.3,344.7c0-0.3-0.5-1.4-0.6-1c0,0-0.2,0.7,0.1,1.1C-220.5,345.1-220.3,345-220.3,344.7"/>
<path class="st0" d="M-218.9,344.3c-0.1-0.4-0.4-1.1-0.6-0.9c0,0-0.3,0.2,0,0.6C-219.2,344.5-218.8,344.7-218.9,344.3"/>
<path class="st0" d="M-217.9,343.7c0.7,0-0.2-0.6-0.2-0.7c-0.1-0.1-0.4-0.2-0.4,0C-218.4,343-218.6,343.7-217.9,343.7"/>
<path class="st0" d="M-217.9,346c0-0.2-0.2-0.4-0.4-0.4c0,0-0.5,0-0.2,0.3C-218.1,346.3-217.8,346.3-217.9,346"/>
<path class="st0" d="M-216.6,345.8c-0.2-0.7-0.5-1-0.7-0.8c0,0-0.2,0.3,0.1,0.7C-216.9,346.2-216.3,346.5-216.6,345.8"/>
<path class="st0" d="M-215.7,344.9c-0.1-0.5-1-1.9-1-1.4c0,0-0.1,0.4,0.2,0.8C-216.2,344.8-215.6,345.5-215.7,344.9"/>
<path class="st0" d="M-218.6,347.8c-0.1,0.2-0.3,0.8,0.1,0.7c0,0,0.7-0.4,0.6-0.6C-218,347.7-218.5,347.6-218.6,347.8"/>
<path class="st0" d="M-217.3,349.2c-0.4,0.1-0.7,0.4-0.5,0.6c0,0,0.2,0.4,0.6,0C-216.7,349.4-217,349.1-217.3,349.2"/>
<path class="st0" d="M-211.6,349.8c0,0-0.8,0.6-0.1,0.7c0.7,0,0.8-0.2,0.6-0.5C-211.4,349.7-211.4,349.7-211.6,349.8"/>
<path class="st0" d="M-207.2,350.4c-0.2,0-0.8,0.4-0.6,0.6c0,0,0.5,0.2,0.8-0.2C-206.7,350.5-207.1,350.4-207.2,350.4"/>
<path class="st0" d="M-205.5,349.1c-0.3,0.1-0.5,0.4,0,0.6c0,0,0.3,0.1,0.5-0.3C-204.8,349.1-205.2,349-205.5,349.1"/>
<path class="st0" d="M-208.4,348.8c0,0-0.7,0.8,0,0.9c0.7,0,0.3-0.6,0.3-0.6S-208.3,348.6-208.4,348.8"/>
<path class="st0" d="M-208.4,347.4c-0.3-0.3-0.5-0.1-0.7,0.1c0,0-0.4,0.8,0.1,0.8C-208.4,348.2-208,347.7-208.4,347.4"/>
<path class="st0" d="M-205.8,347.3c-0.1-0.3-0.2-0.4-0.4-0.3c0,0-0.5,0.4-0.2,0.5C-206.1,347.7-205.7,347.5-205.8,347.3"/>
<path class="st0" d="M-213.6,345.4c0,0-0.2,0.4,0.2,0.4c0.4,0,0.4-0.2,0.4-0.4C-212.9,345.3-213.3,345.2-213.6,345.4"/>
<path class="st0" d="M-212.9,342.8c0,0-0.1,0.5,0.3,0.6c0.4,0.1,0.3-0.3,0.2-0.4C-212.4,343-212.9,342.6-212.9,342.8"/>
<path class="st0" d="M-210.7,343.9c0,0-0.4,0.4-0.1,0.5C-210.6,344.5-210.1,344-210.7,343.9"/>
<path class="st0" d="M-209.1,342.8c0.4,0,0.6-0.4,0.1-0.5C-209.1,342.3-209.5,342.8-209.1,342.8"/>
<path class="st0" d="M-211.1,342.7c0,0-0.5,0-0.2,0.3c0.3,0.3,0.4,0.3,0.5-0.1C-210.7,342.6-210.8,342.6-211.1,342.7"/>
<path class="st0" d="M-210.3,340.9c0,0-0.1,0.3,0.2,0.5c0.3,0.2,0.3,0,0.3-0.2C-209.8,341.1-210.3,340.7-210.3,340.9"/>
<path class="st0" d="M-210.8,340.2c0,0,0.2,0.1,0.4-0.1C-210.2,340-210.9,339.8-210.8,340.2"/>
<path class="st0" d="M-206.8,338.2c0.2-0.2-0.3-0.4-0.4-0.1C-207.2,338-207,338.4-206.8,338.2"/>
<path class="st0" d="M-193.9,349.2c0.5-0.2,0.9-1,0-0.8c0,0-0.4,0.4-0.4,0.6C-194.4,349.1-194.4,349.4-193.9,349.2"/>
<path class="st0" d="M-197.2,347.8c0,0-0.2,0.5,0.1,0.5c0.2,0,0.7-0.2,0.4-0.4C-197.1,347.6-197.2,347.7-197.2,347.8"/>
<path class="st0" d="M-198.8,347.1c0,0-0.5,0.2-0.5,0.4c0,0.2,0,0.5,0.4,0.2C-198.4,347.4-198.2,346.8-198.8,347.1"/>
<path class="st0" d="M-200.6,346.5c0,0-0.5,0.2-0.4,0.4c0.2,0.2,0.6,0.6,0.7,0.2C-200.1,346.6-200.2,346.3-200.6,346.5"/>
<path class="st0" d="M-196.7,345.8c0,0-0.4,0.2-0.4,0.3c0.1,0.2,0.3,0.4,0.5,0.1C-196.3,346-196.3,345.6-196.7,345.8"/>
<path class="st0" d="M-195.4,347.5c0.3-0.1,0.8-0.9,0.1-0.8c0,0-0.3,0.1-0.4,0.4C-195.8,347.3-195.7,347.6-195.4,347.5"/>
<path class="st0" d="M-203.4,340.6c0,0,0,0.6,0.4,0.4c0.4-0.1,0.2-0.4,0.2-0.4S-203.5,340.1-203.4,340.6"/>
<path class="st0" d="M-203.4,343.1c-0.3-0.2-0.4-0.2-0.5-0.1c0,0-0.3,0.5,0,0.6C-203.6,343.6-203.1,343.3-203.4,343.1"/>
<path class="st0" d="M-201.9,341.5c0.1-0.2-1.2,0.3-0.7,0.5c0,0,0.4,0.2,0.6,0.1C-201.8,342-202,341.7-201.9,341.5"/>
<path class="st0" d="M-200.8,339.2c0.3,0,0.3-0.3,0.2-0.5c-0.1-0.2-0.6-0.2-0.6,0.2C-201.2,338.8-201.1,339.2-200.8,339.2"/>
<path class="st0" d="M-200.6,340.2c0.7,0.4,0.5-0.7,0.1-0.5C-200.5,339.7-201,340-200.6,340.2"/>
<path class="st0" d="M-199.6,339.3c0.7,0,0.3-0.7,0.1-0.6c0,0-0.3,0.3-0.4,0.3C-199.9,339.1-200.2,339.3-199.6,339.3"/>
<path class="st0" d="M-200.4,341.4c0,0.2,0.2,0.3,0.5,0.2c0.3-0.1,0.3-0.5-0.1-0.4C-200,341.1-200.4,341.2-200.4,341.4"/>
<path class="st0" d="M-198.7,340.9c0.2-0.1,0.1-0.4,0.1-0.6c0-0.2-0.1-0.3-0.4-0.1c0,0-0.2,0-0.2,0.3
	C-199.1,340.7-198.9,341-198.7,340.9"/>
<path class="st0" d="M-192.5,337.2c0.3-0.2,0.4-0.6,0-0.7c0,0-0.3,0-0.3,0.3C-192.8,337.1-192.8,337.4-192.5,337.2"/>
<path class="st0" d="M-191.7,337.5c0,0,0.3,0.2,0.6,0.1c0.2,0,0.1-0.4-0.1-0.5C-191.4,337.1-192,337.4-191.7,337.5"/>
<path class="st0" d="M-190.5,336.1c0.6,0.1,0.7-0.6,0.4-0.5C-190.1,335.6-191,336-190.5,336.1"/>
<path class="st0" d="M-191.6,335.9c0.3,0,0.5-0.1,0.3-0.3c-0.2-0.1-0.4-0.4-0.4-0.3C-191.8,335.4-191.9,336-191.6,335.9"/>
<path class="st0" d="M-193.6,300.7c0-0.6-0.2-0.7-0.2-0.6c0,0-0.1,1.6,0,1.6C-193.6,301.7-193.5,301.2-193.6,300.7"/>
<path class="st0" d="M-201.4,304.3c-0.3,0-0.4-0.5-0.4-0.8c0-0.3-0.3-0.5-0.5-0.1c0,0,0.1,1.4,0.7,1.3c0.8-0.1,1-0.5,0.7-1.5
	c0,0-0.2-0.3-0.4-0.1C-201.6,303.3-201.1,304.2-201.4,304.3"/>
<path class="st0" d="M-200.4,302.8c0,0-0.1,1.5,0.5,1.5c0.8,0,1.1-0.4,0.9-1.6c0,0-0.1-0.4-0.4-0.2c-0.3,0.2,0.1,1.3-0.3,1.3
	c-0.3,0-0.4-0.5-0.3-0.9C-199.9,302.6-200.2,302.4-200.4,302.8"/>
<path class="st0" d="M-198.5,302.3c0,0-0.1,1.5,0.4,1.5c0.7,0,1-0.4,0.9-1.6c0,0-0.1-0.4-0.4-0.1c-0.3,0.2,0,1.3-0.3,1.3
	c-0.3,0-0.3-0.6-0.3-0.9C-198,302.2-198.3,301.9-198.5,302.3"/>
<path class="st0" d="M-196.7,301.5l0,1.3c0,0-0.1,0.9,0.8,0.9c0.9,0,0.7-1.2,0.7-1.7c0-0.5-0.1-1.3-0.3-1.2c-0.2,0-0.3,0.3-0.3,0.9
	c0,0.6,0.1,1.2-0.2,1.2c-0.3,0-0.3-0.4-0.3-1C-196.2,301.3-196.6,300.9-196.7,301.5"/>
<path class="st0" d="M-194.1,300.2c0,0-0.6-0.5-0.6,0.3c0,0.8-0.2,2.9,1,3c1.2,0.1,1.1-1.5,1.1-2.6c0-1,0.2-2.1-0.2-1.8
	c-0.4,0.3-0.5,0.6-0.5,1.3c0,0.7,0.2,1.9-0.2,2c-0.4,0.1-0.6-0.1-0.6-1.1C-194,300.4-194.1,300.2-194.1,300.2"/>
<path class="st0" d="M-191.3,301c-0.1-1.2,0-2-0.2-2c0,0-0.4,0-0.5,0.6c0,0.6-0.3,3,0.5,3.3c0.8,0.4,1.9,0.2,1.9-0.7
	c0-0.9,0-2.8,0-3.4c0-0.5-0.5-0.8-0.6,0c-0.1,0.7,0.3,3.6-0.3,3.5C-191.2,302.2-191.3,302.2-191.3,301"/>
<path class="st0" d="M-190.9,299.1c0,0-0.2,2.1,0.1,2.2c0.3,0.1,0.1-1.4,0.2-1.9C-190.6,299-190.8,298.7-190.9,299.1"/>
<path class="st0" d="M-194,332.3c0.5,0.1,2.1-3.6,2.5-5.9c0.4-2.3,0.5-2.9,1-4c0.5-1.1,1.1-5.4,1.1-7.5c0-2.2,0.1-4.1,0-4.5
	c-0.1-0.3-0.2-0.5-0.6-0.2c-0.4,0.3-0.8,0.1-0.8,1.1c0.1,1,0.1,7-0.2,8c-0.3,1-0.7,2.5-0.9,3.5c-0.3,1-0.6,2.1-0.4,0.1
	c0.2-2.1,0.6-2.1,0.7-3.4c0-1.3,0.3-2.7,0.3-4.5c-0.1-1.8,0.1-4.1,0.1-4.1s-0.9-1.2-0.9-0.1c0,1.1,0.1,6.8,0,7.5
	c-0.1,0.8-0.3,1.9-0.2,2.7c0.1,0.8-0.3,1-0.3,2.3c-0.1,1.2-0.4,6-1,7.2C-194.4,331.7-194.5,332.2-194,332.3"/>
<path class="st0" d="M-194.8,326.6c0.4-0.2,1.9-3.9,2-9.5c0.1-5.6,0.3-6.2,0.1-6.6c-0.2-0.4-0.8-0.5-0.7,0.6
	c0.1,1.2-0.2,9.2-0.6,9.2c-0.3,0.3,0.3-6.9,0.1-9.7l0-0.1c0,0-0.5-1.3-0.5-0.3c0,1-0.1,5.4-0.2,5.8c-0.1,0.3-0.6,2.2-0.5,3.6
	c0.2,1.3,0.3,4.7,0.1,5.6C-195.1,326.1-195.2,326.8-194.8,326.6"/>
<path class="st0" d="M-195.1,314c0.1-1.2,0.4-3.6,0.3-4.2c0,0-0.7-0.2-0.7,0.5c0,0.4,0,2.3-0.1,2.9c-0.1,0.6-0.1,3.4-0.5,3.4
	c-0.4,0-0.2-1.4-0.1-2.6c0.1-1.2,0.5-2.4,0.2-4.1c0,0-0.6-0.6-0.6-0.1c0,0.5,0.1,2-0.1,2.2c-0.2,0.2-0.3,1-0.3,1.9
	c0,0.9,0.2,2.3-0.2,2.9c-0.3,0.6-0.2,1.2-0.3,2c-0.1,0.7-0.3,2.4-0.9,3.4c-0.6,1,0.7,1.3,2.1-2.6C-195,315.9-195.2,315.2-195.1,314"
	/>
<path class="st0" d="M-198.8,310c0,0.6-0.1,4.5-0.4,5.2c-0.3,0.7-0.4,2-0.6,2.4c-0.2,0.4-0.9,2.1-1.2,2.6c-0.3,0.5-0.3,1.2,0.3,0.8
	c0.6-0.5,2.5-2.9,2.8-5c0.3-2.1,0.6-3.5,0.7-4.1c0.1-0.6,0.3-2.1,0.1-2.2c-0.2-0.1-0.5-0.2-0.5,0.3c0,0.6-0.2,2.6-0.5,3.6
	c-0.3,1-0.3,1.3-0.4,0.1c0-1.2,0.2-3.6,0.1-4.2C-198.4,309.5-198.8,309.4-198.8,310"/>
<path class="st0" d="M-200.8,309.4c0,0-0.1,0.5-0.1,2.2c0,2.1-1.1,4.3-1.7,5.6c-0.6,1.3,0.2,1,0.7,0.5c0.5-0.4,1.4-2,1.9-3
	c0.5-0.9,0.9-5.4,0.9-5.4c-0.1-0.2-0.5-0.3-0.6,0c-0.1,0.2-0.3,0.3-0.5,0.1C-200.3,309.2-200.8,309.4-200.8,309.4"/>
<path class="st0" d="M-201.6,313.5c0.3-0.7,0.4-4,0.4-4c0-0.5-0.2-0.9-0.3,0.1c-0.1,0.9-0.3,0.5-0.5-0.3c-0.2-0.8-0.4,1.5-0.3,2.3
	c0.1,0.8-0.7,2.9-1,4.3C-203.6,317.3-201.9,314.2-201.6,313.5"/>
<path class="st0" d="M-201.2,305.7c-0.1,1,0,1.5-0.3,1.3c-0.3-0.1,0-1.7-0.3-1.7c-0.3,0-0.2,0.6-0.3,1.1c0,0.4-0.1,1.7,0.5,1.7
	c1.1,0,0.8-2.1,0.8-2.4C-200.7,305.3-201.1,304.7-201.2,305.7"/>
<path class="st0" d="M-199,305c-0.3,0-0.4,0.1-0.4,0.7c0,0.6,0.1,1.2-0.2,1.1c-0.3-0.1-0.2-0.7-0.2-1.3c0-0.5-0.2-0.5-0.2-0.5
	s-0.3-0.1-0.3,0.5c0,0.6-0.1,2.5,0.5,2.5c0.6,0,0.9-0.5,1-1.7C-198.8,305-198.8,305-199,305"/>
<path class="st0" d="M-197.8,308.5c1,0.1,0.8-1.7,0.8-2.2c0-0.4,0.1-1.5-0.1-1.5c-0.2,0-0.2,0.3-0.2,0.8c0,0.5,0,1.7-0.3,1.7
	c-0.3,0-0.4-0.6-0.3-1.4c0.1-0.8,0.1-1-0.1-1c0,0-0.4,0-0.4,0.7C-198.4,306.2-198.8,308.4-197.8,308.5"/>
<path class="st0" d="M-194.9,304.6c-0.3-0.1-0.5,0-0.5,0.6c0,0.6,0.1,2.4-0.3,2.4c-0.3,0-0.4-0.5-0.4-1.5c0-0.9,0.2-1.5,0.1-1.5
	c0,0-0.5-0.3-0.5,0.6c0,0.9-0.2,3.4,0.6,3.5c0.7,0.1,1.2-0.8,1.1-2C-195,305.7-194.6,304.7-194.9,304.6"/>
<path class="st0" d="M-193.9,304.4c0,0-0.4-0.1-0.4,0.7c-0.1,0.7,0,2.1,0,2.8c0,0.7,0.1,1.3,0.7,1.3c0.6,0.1,1.1-1,1.1-2.1
	c0-1.1,0.3-2.8-0.2-2.9c-0.4-0.1-0.3,0.3-0.3,0.7c0,0.4,0,3.2-0.5,3.1c-0.5-0.1-0.6-1.2-0.4-2.5
	C-193.7,304.2-193.9,304.4-193.9,304.4"/>
<path class="st0" d="M-193.5,304.8c0,0-0.2-0.1-0.2,0.6c0,0.7-0.2,1.9,0.1,1.9c0.3,0,0.1-0.6,0.2-1.3
	C-193.3,305.4-193.3,304.8-193.5,304.8"/>
<path class="st0" d="M-189.4,303.9c-0.4,0-0.5-0.1-0.5,0.7c0,0.8-0.1,3.2-0.1,3.2s0.1,0.9-0.6,0.9c-0.6,0-0.6-0.4-0.6-1.3
	c0-0.9,0.2-3.2-0.3-3.2c0,0-0.4,0-0.4,0.8c0,0.8,0,3,0,3.4c0,0.4,0.2,1.3,1.2,1.5c1.1,0.1,1.4-1.4,1.4-2.9
	C-189.3,305.4-189.1,303.9-189.4,303.9"/>
<path class="st0" d="M-190.6,304.7c0,0-0.3-0.1-0.3,0.6c0,0.7-0.1,2.7,0.1,2.7c0.2,0,0.3-0.1,0.3-0.7
	C-190.6,305.6-190.4,304.7-190.6,304.7"/>
<path class="st0" d="M-202.6,285.5l0.3-2.5c0-0.4,0-0.6-0.5-0.7l-0.6-0.1l-0.5,3.6l0.6,0.1C-202.8,286.1-202.6,285.9-202.6,285.5
	 M-203.4,285.7l0.2-1.3l0.3,0l0-0.3l-0.3,0l0.2-1.4l0.2,0c0.2,0,0.3,0.1,0.3,0.3l-0.4,2.5c0,0.2-0.1,0.3-0.3,0.2L-203.4,285.7z"/>
<path class="st0" d="M-231.5,303.7c0,0-0.5,0-0.5-0.5v-0.5h1c0.4,0,0.7-0.3,0.7-0.7c0-0.4-0.3-0.7-0.7-0.7h-1h-0.4h-0.5v0.3
	c0,0,0.3-0.1,0.3,0.3v1.4c0,0-0.1,0.2-0.3,0.2v0.3h1.4L-231.5,303.7z M-231.3,301.7c0.2,0,0.3,0.2,0.3,0.3c0,0.2-0.2,0.3-0.3,0.3
	h-0.7v-0.7H-231.3z"/>
<path class="st0" d="M-235.3,318.9h1.4c0,0,0.2,0.1,0.2,0.3h0.3v-1.4l-0.2,0c0,0,0,0.5-0.5,0.5h-0.5v-1c0-0.4-0.3-0.7-0.7-0.7
	c-0.4,0-0.7,0.3-0.7,0.7v1v0.4v0.5h0.3C-235.6,319.2-235.6,318.9-235.3,318.9 M-235.6,317.7c0-0.2,0.2-0.3,0.4-0.3
	c0.2,0,0.4,0.2,0.4,0.3v0.7h-0.7V317.7z"/>
<path class="st0" d="M-211.3,329.9c0,0-0.1,0.3-0.4,0.1c-0.3-0.2-1.1-0.8-1.1-0.8s-0.2-0.2,0-0.4l-0.2-0.2l-0.9,1.2l-0.3,0.4
	c-0.3,0.4-0.2,0.8,0.1,1.1c0.2,0.2,0.5,0.2,0.8,0c0,0.2,0.1,0.4,0.3,0.5c0.3,0.2,0.7,0.1,1-0.2l0.6-0.8l0.1-0.1l0.2-0.2l0.3-0.4
	L-211.3,329.9z M-213.6,330.8c-0.2-0.1-0.2-0.4-0.1-0.5l0.4-0.5c0.1,0,0.2,0,0.3,0.1c0.1,0.1,0.2,0.2,0.4,0.3l-0.4,0.6
	C-213.2,330.8-213.5,330.9-213.6,330.8 M-212.2,331.2c-0.1,0.2-0.3,0.2-0.5,0.1c-0.2-0.1-0.2-0.3-0.1-0.5l0.4-0.5
	c0.2,0.2,0.4,0.3,0.6,0.4L-212.2,331.2z"/>
<path class="st0" d="M-228,301.4c-0.8,0-1.4,0.6-1.4,1.3c0,0.7,0.6,1.3,1.4,1.3c0.8,0,1.4-0.6,1.4-1.3
	C-226.6,302-227.3,301.4-228,301.4 M-228,303.6c-0.2,0-0.6-0.4-0.6-0.9c0-0.5,0.3-0.9,0.6-0.9c0.2,0,0.6,0.5,0.6,0.9
	C-227.5,303.2-227.8,303.6-228,303.6"/>
<path class="st0" d="M-224.2,303.7c0,0-0.5,0-0.5-0.5v-0.5h0.4l0.7,1.2c0,0,0.5,0.1,0.8-0.3l-0.1-0.2c0,0-0.3,0.2-0.5,0
	c-0.1-0.2-0.3-0.5-0.4-0.6c0.4,0,0.7-0.3,0.7-0.7c0-0.4-0.3-0.7-0.7-0.7h-1h-0.4h-0.5v0.3c0,0,0.3-0.1,0.3,0.3v1.4
	c0,0-0.1,0.2-0.3,0.2v0.3h1.4L-224.2,303.7z M-224.1,301.7c0.2,0,0.3,0.2,0.3,0.3c0,0.2-0.2,0.3-0.3,0.3h-0.7v-0.7H-224.1z"/>
<path class="st0" d="M-235.3,314.1h1.4c0,0,0.2,0.1,0.2,0.3h0.3V313l-0.2,0c0,0,0,0.5-0.5,0.5h-0.5v-0.4l1.2-0.7
	c0,0,0.1-0.5-0.3-0.8l-0.2,0.1c0,0,0.2,0.3,0,0.5c-0.2,0.1-0.5,0.3-0.6,0.4c0-0.4-0.3-0.7-0.7-0.7c-0.4,0-0.7,0.3-0.7,0.7v1v0.4v0.5
	h0.3C-235.6,314.3-235.7,314.1-235.3,314.1 M-235.7,312.8c0-0.2,0.2-0.3,0.4-0.3c0.2,0,0.3,0.1,0.3,0.3v0.7h-0.7V312.8z"/>
<path class="st0" d="M-222.2,335.8c0,0,0.5,0.1,0.4,0.6c0,0.1-0.1,0.3-0.1,0.4l-0.4-0.1l-0.4-1.3c0,0-0.4-0.2-0.9,0.1l0.1,0.2
	c0,0,0.4-0.1,0.4,0.2c0.1,0.2,0.1,0.6,0.2,0.7c-0.4-0.1-0.7,0.1-0.8,0.5c-0.1,0.4,0.1,0.7,0.5,0.8l1.3,0.4l0.5,0.1l0.1-0.3
	c0,0-0.3,0-0.2-0.3c0.1-0.3,0.4-1.3,0.4-1.3s0.1-0.2,0.4-0.1l0.1-0.2l-1.3-0.4L-222.2,335.8z M-223.1,337.2c0-0.2,0.2-0.3,0.4-0.2
	l0.6,0.2c-0.1,0.3-0.1,0.5-0.2,0.7l-0.6-0.2C-223.1,337.6-223.2,337.4-223.1,337.2"/>
<path class="st0" d="M-207.4,304.5c0,0,0.1,0.3-0.3,0.3h-1.4c0,0-0.2-0.1-0.2-0.3h-0.3v1.4l0.2,0c0,0,0-0.5,0.5-0.5h0.5v0.4
	l-1.2,0.7c0,0-0.1,0.5,0.3,0.8l0.2-0.1c0,0-0.2-0.3,0-0.5c0.2-0.1,0.5-0.3,0.6-0.4c0,0.4,0.3,0.7,0.7,0.7c0.4,0,0.7-0.3,0.7-0.7v-1
	v-0.4v-0.5H-207.4z M-207.3,305.9c0,0.2-0.2,0.3-0.3,0.3c-0.2,0-0.3-0.2-0.3-0.3v-0.7h0.7V305.9z"/>
<polygon class="st0" points="-217.5,303.7 -217.8,303.7 -216.9,302.3 -215.6,303.9 -214.4,302.6 -213.7,303.7 -214.1,303.7 
	-214.1,303.9 -212.4,303.9 -212.4,303.7 -212.6,303.7 -213.8,302 -213.7,302 -213.7,301.5 -214.3,301.5 -214.3,301.8 -215.3,302.8 
	-216.4,301.5 -217.6,301.5 -217.6,301.9 -217.3,301.9 -217.3,301.9 -218.5,303.7 -218.8,303.7 -218.8,303.9 -217.5,303.9 "/>
<polygon class="st0" points="-210.2,303.5 -210.4,303.5 -210.4,301.9 -210.2,301.9 -210.2,301.5 -211.3,301.5 -211.3,301.9 
	-211.1,301.9 -211.1,303.5 -211.3,303.5 -211.3,303.9 -210.2,303.9 "/>
<polygon class="st0" points="-235.5,310.8 -233.8,310.8 -233.8,311 -233.5,311 -233.5,309.8 -233.8,309.8 -233.8,310 -235.5,310 
	-235.5,309.8 -235.9,309.8 -235.9,311 -235.5,311 "/>
<polygon class="st0" points="-235.5,306.1 -233.4,304.7 -235.5,303 -235.5,302.6 -235.9,302.6 -235.9,303.8 -235.5,303.8 
	-235.5,303.5 -234.3,304.4 -235.5,305.2 -235.5,305.1 -235.9,305.1 -235.9,306.4 -235.5,306.4 "/>
<polygon class="st0" points="-235.7,309.3 -235.2,309.3 -235.2,309.1 -235.4,309.1 -235.4,308.4 -233.8,308.4 -233.8,308.8 
	-233.5,308.8 -233.5,307.1 -233.8,307.1 -233.8,307.6 -235.4,307.6 -235.4,306.9 -235.2,306.9 -235.2,306.7 -235.4,306.7 
	-235.9,306.7 -235.9,309.3 "/>
<polygon class="st0" points="-235.5,316.1 -233.8,316.1 -233.8,316.3 -233.5,316.3 -233.5,315.2 -233.8,315.2 -233.8,315.4 
	-235.5,315.4 -235.5,315.2 -235.9,315.2 -235.9,316.3 -235.5,316.3 "/>
<path class="st0" d="M-213.8,333c0,0-0.1-0.1-0.2-0.1l-1-1.1c0,0-0.1-0.1,0-0.1c0,0,0.1-0.1,0.2-0.2l-0.2-0.2l-1.9,1.8l0.3,0.6
	l0.2-0.2c-0.1-0.1,0-0.4,0-0.4c0,0,0-0.1,0.1-0.1l0.8-0.7l1.1,1.1c0,0,0.1,0.1,0.1,0.2c0,0-0.3,0.3-0.4,0.4l0.2,0.2l1.2-1.1
	l-0.2-0.2C-213.7,332.9-213.8,333-213.8,333"/>
<path class="st0" d="M-231.2,330l1.3-0.8c0,0,0.1,0,0.1,0c0,0,0.1,0.1,0.2,0.2l0.3-0.2l-1.4-2.2l-0.7,0.2l0.2,0.3
	c0.1,0,0.4,0.1,0.4,0.1c0,0,0.1,0,0.1,0.1l0.6,0.9l-1.3,0.8c-0.1,0-0.2,0.1-0.2,0.1c0,0-0.2-0.3-0.3-0.5l-0.3,0.2l0.9,1.4l0.3-0.2
	c-0.1-0.1-0.1-0.2-0.1-0.2C-231.4,330.1-231.3,330-231.2,330"/>
<path class="st0" d="M-229.9,329.9l0.2,0.3c0.1-0.1,0.2-0.1,0.2-0.1c0.1,0,0.1,0,0.1,0c0,0,0.2,0.1,0.2,0.2l0.5,0.6l-0.6,0.5
	l-0.6-0.7l-0.3,0.2l0.6,0.8l-0.5,0.4l-0.5-0.6c0,0,0,0,0,0c0,0,0-0.1,0-0.1c0,0,0,0,0-0.1l0.1-0.2l-0.2-0.3l-0.4,0.6l1.4,1.7
	l0.2-0.2c-0.1-0.1-0.1-0.1-0.1-0.1c0,0,0-0.1,0-0.1c0,0,0,0,0.1-0.1l1.3-1c0,0,0.1,0,0.1,0c0,0,0.1,0.1,0.2,0.2l0.2-0.2l-1.4-1.8
	L-229.9,329.9z"/>
<path class="st0" d="M-233.9,325l1.6-0.5c0.1,0,0.1,0,0.1,0c0,0,0.1,0.1,0.1,0.2l0.3-0.1l-0.7-2.2l-0.7,0.1l0.1,0.3
	c0.1,0,0.2,0,0.2,0c0.1,0,0.1,0,0.1,0c0,0,0.1,0.2,0.1,0.2l0.2,0.7l-0.8,0.3l-0.3-0.9l-0.3,0.1l0.3,0.9l-0.6,0.2l-0.3-0.8
	c0,0,0,0,0,0c0,0,0-0.1,0-0.1c0,0,0,0,0.1-0.1l0.2-0.1l-0.1-0.3l-0.6,0.4l0.7,2.1l0.3-0.1c0-0.1,0-0.1-0.1-0.2
	C-234,325-234,325-233.9,325C-234,325-234,325-233.9,325"/>
<path class="st0" d="M-234.7,322.3c0.3,0,0.5-0.3,0.6-0.8c0-0.2,0.1-0.3,0.1-0.5c0-0.2,0.1-0.4,0.1-0.5c0-0.1,0.1-0.1,0.2-0.1
	c0.1,0,0.1,0,0.2,0.1c0,0.1,0.1,0.2,0.1,0.3c0,0.2,0,0.5,0,0.6c-0.1,0.1-0.3,0.3-0.5,0.4l0.2,0.4c0.3-0.1,0.5-0.2,0.7-0.3
	c0.1-0.4,0.1-0.6,0.1-1c-0.1-0.5-0.2-0.8-0.4-1c-0.2-0.2-0.4-0.3-0.6-0.3c-0.2,0-0.3,0.1-0.4,0.3c-0.1,0.1-0.2,0.4-0.2,0.7
	c0,0.1,0,0.2-0.1,0.5c0,0.2-0.1,0.4-0.1,0.5c0,0-0.1,0.1-0.1,0.1c-0.1,0-0.2-0.1-0.3-0.3c0-0.2-0.1-0.8,0-0.9c0-0.1,0.3-0.2,0.5-0.3
	l-0.1-0.4c-0.3,0.1-0.5,0.2-0.7,0.2c-0.1,0.4-0.1,0.6-0.1,0.9c0,0.4,0.1,0.8,0.3,1C-235.1,322.2-234.9,322.4-234.7,322.3"/>
<path class="st0" d="M-207.8,312C-207.6,312.1-207.7,312.1-207.8,312c0.1,0.1,0.2,0.1,0.2,0.1c0,0,0,0.1,0,0.1v0.9l-1.8-1.6
	c0,0-0.3-0.3-0.3,0.2v2.4l0.7,0.2V314c-0.2-0.1-0.1-0.1-0.2-0.2c0,0-0.1-0.1-0.1-0.2v-0.8l1.8,1.5c0,0,0.2,0.2,0.2-0.2v-2.4
	l-0.7-0.2V312z"/>
<path class="st0" d="M-209.1,307.7c0,0,0-0.1,0-0.2h-0.4v1h0.4v-0.2v0l0.4,0.2v1.1c-0.3,0.2-0.4,0.2-0.4,0.2s0-0.4,0-0.4h-0.4v1.7
	h0.4c0-0.1,0-0.2,0-0.2c0,0,0-0.1,0.1-0.1l1.9-1.2v-0.7L-209.1,307.7C-209.1,307.8-209.1,307.7-209.1,307.7 M-208.4,308.8l0.5,0.3
	l-0.5,0.3V308.8z"/>
<path class="st0" d="M-209.2,315.1c0,0,0-0.1,0-0.2h-0.4v1h0.4v-0.2v0l0.4,0.2v1.1c-0.3,0.2-0.4,0.2-0.4,0.2s0-0.4,0-0.4h-0.4v1.7
	h0.4c0-0.1,0-0.2,0-0.2c0,0,0-0.1,0.1-0.1l1.9-1.2v-0.7L-209.2,315.1C-209.1,315.2-209.2,315.2-209.2,315.1 M-208.4,316.2l0.5,0.3
	l-0.5,0.3V316.2z"/>
<path class="st0" d="M-217.1,333.8l-0.2-0.4l-0.9,0.5l0.2,0.4c0.1-0.1,0.2-0.1,0.2-0.1c0,0,0,0,0,0l0,0.5l-0.9,0.6
	c-0.4-0.2-0.4-0.2-0.4-0.2s0.4-0.2,0.4-0.2l-0.2-0.4l-1.4,0.9l0.2,0.4c0.1-0.1,0.2-0.1,0.2-0.1c0,0,0.1,0,0.1,0l2,1l0.6-0.4
	l-0.2-2.3c0,0,0-0.1,0-0.1C-217.3,333.9-217.3,333.9-217.1,333.8 M-218.3,335.5l0.5-0.3l0.1,0.6L-218.3,335.5z"/>
<path class="st0" d="M-224.5,334.2l-0.2,0.3c0.1,0.1,0.2,0.1,0.2,0.1c0,0,0,0,0,0l-0.4,0.2l-0.9-0.6c0-0.4,0.1-0.5,0.1-0.5
	s0.3,0.2,0.4,0.3l0.2-0.3l-1.3-1l-0.2,0.3c0.1,0.1,0.2,0.1,0.2,0.1c0,0,0,0.1,0,0.1l-0.2,2.3l0.6,0.4l2-1c0,0,0.1,0,0.1,0
	c0,0,0.1,0.1,0.2,0.1l0.2-0.3L-224.5,334.2z M-226,335.3l0.1-0.6l0.5,0.3L-226,335.3z"/>
<path class="st0" d="M-210.9,325.3c0,0,0-0.1,0.1-0.2l-0.4-0.2l-0.4,0.9l0.4,0.2c0-0.1,0.1-0.2,0.1-0.2c0,0,0,0,0,0l0.3,0.4l-0.4,1
	c-0.4,0-0.5,0-0.5,0s0.2-0.4,0.2-0.4l-0.4-0.2l-0.7,1.5l0.4,0.2c0-0.1,0.1-0.2,0.1-0.2c0,0,0.1,0,0.1,0l2.3-0.3l0.3-0.6
	L-210.9,325.3C-210.9,325.3-210.9,325.3-210.9,325.3 M-210.2,327l-0.6,0.1l0.2-0.5L-210.2,327z"/>
<path class="st0" d="M-208,321.7C-208,321.8-208,321.8-208,321.7c-0.1,0.1-0.2,0.1-0.2,0.1l-1.5-0.4c-0.1,0-0.1,0-0.1-0.1
	c0,0,0-0.1,0.1-0.3l-0.3-0.1l-0.3,1.2l0.3,0.1c0-0.1,0-0.1,0-0.2c0,0,0-0.1,0-0.1c0,0,0,0,0.1,0l0.6,0.2l-0.3,1.1l-0.6-0.2
	c-0.1,0-0.1,0-0.1-0.1c0,0,0-0.1,0-0.2l-0.3-0.1l-0.3,1.2l0.3,0.1c0-0.1,0-0.1,0.1-0.2c0,0,0-0.1,0-0.1c0,0,0,0,0.1,0l1.5,0.4
	c0.1,0,0.2,0.1,0.2,0.1c0,0,0,0.1-0.1,0.3l0.3,0.1l0.3-1.2l-0.3-0.1c0,0.1,0,0.1,0,0.1c0,0,0,0.1,0,0.1c0,0-0.1,0-0.2,0l-0.5-0.1
	l0.3-1.1l0.5,0.1c0.1,0,0.2,0.1,0.2,0.1c0,0,0,0.1,0,0.2l0.3,0.1l0.3-1.2l-0.3-0.1C-208,321.7-208,321.7-208,321.7"/>
</svg>
