<?xml version="1.0" encoding="utf-8"?>
<!-- Generator: Adobe Illustrator 16.0.0, SVG Export Plug-In . SVG Version: 6.00 Build 0)  -->
<!DOCTYPE svg PUBLIC "-//W3C//DTD SVG 1.1//EN" "http://www.w3.org/Graphics/SVG/1.1/DTD/svg11.dtd">
<svg version="1.1" id="Layer_1" xmlns="http://www.w3.org/2000/svg" xmlns:xlink="http://www.w3.org/1999/xlink" x="0px" y="0px"
	 width="200px" height="66.715px" viewBox="0 0 200 66.715" enable-background="new 0 0 200 66.715" xml:space="preserve">
<g>
	<path fill="#7B265F" d="M78.843,37.282c1.419-0.621,2.787-1.472,4.27-1.8c1.693-0.377,2.582-1.272,3.493-2.691
		c1.778-2.771,4.376-4.494,7.844-4.445c1.719,0.024,2.808,0.766,3.224,2.126c0.436,1.428-0.013,2.688-1.25,3.369
		c-1.672,0.919-3.483,1.595-5.263,2.304c-0.214,0.084-0.768-0.211-0.869-0.453c-0.089-0.217,0.147-0.711,0.385-0.893
		c0.66-0.504,1.434-0.859,2.09-1.365c0.648-0.5,1.233-1.091,1.79-1.694c0.132-0.144,0.141-0.576,0.02-0.731
		c-0.123-0.16-0.564-0.281-0.712-0.183c-1.527,1.006-3.238,1.856-4.468,3.154c-1.26,1.332-0.521,3.174,1.277,3.666
		c0.862,0.234,1.874,0.293,2.735,0.086c2.575-0.616,4.847-1.787,6.319-4.146c0.635-1.019,1.314-2.011,2.01-2.989
		c1.658-2.327,3.72-2.948,5.938-1.257c1.892,1.44,3.277,1.2,4.884-0.168c0.484-0.413,1.105-0.673,1.687-0.963
		c2.364-1.185,2.892-1.155,4.869,0.755c0.798,0.771,1.481,1.001,2.426,0.407c0.392-0.246,0.808-0.459,1.229-0.644
		c0.797-0.348,1.629-0.604,2.168,0.378c0.488,0.893,0.053,2.115-0.988,2.529c-0.848,0.337-1.786,0.615-2.686,0.619
		c-1.861,0.008-2.873,1.043-3.629,2.537c-0.707,1.402-1.406,2.811-2.137,4.201c-0.494,0.941-1.314,1.395-2.307,0.961
		c-1.063-0.465-1.062-1.496-0.695-2.391c0.416-1.019,1.025-1.961,1.583-2.918c0.558-0.957,1.165-1.881,1.717-2.84
		c0.126-0.219,0.229-0.692,0.147-0.745c-0.281-0.182-0.688-0.378-0.979-0.302c-2.38,0.624-4.545,1.538-5.676,4.005
		c-0.574,1.258-1.322,2.446-2.087,3.604c-2.002,3.032-4.521,3.146-6.54,0.151c-0.789-1.17-1.31-1.315-2.367-0.485
		c-0.866,0.68-1.852,1.206-2.779,1.809c-3.33,2.168-5.755,1.761-8.239-0.729c-1.746-1.75-3.421-1.623-5.238-0.879
		c-2.133,0.873-4.161,2.015-6.192,3.115c-0.444,0.24-0.733,0.793-1.052,1.232c-3.909,5.367-7.718,10.811-11.764,16.072
		c-1.383,1.799-3.335,3.172-5.077,4.68c-0.477,0.412-1.107,0.762-1.716,0.877c-0.765,0.143-1.952,0.328-2.287-0.07
		c-0.488-0.576-0.67-1.74-0.458-2.508c0.362-1.305,0.968-2.621,1.77-3.713c1.529-2.082,3.175-4.098,4.938-5.986
		c3.095-3.309,6.182-6.646,10.004-9.176c0.458-0.303,0.854-0.711,1.24-1.105c0.184-0.188,0.279-0.465,0.414-0.7
		c-0.333-0.068-0.7-0.261-0.996-0.185c-2.849,0.74-5.655,1.688-8.536,2.252c-2.7,0.527-5.468,0.814-8.218,0.945
		c-5.937,0.281-8.064-3.367-8.562-8.354c-0.059-0.592-0.032-1.439-0.391-1.709c-2.55-1.921-2.875-4.357-1.923-7.173
		c0.051-0.061,0.103-0.122,0.154-0.182c-0.038,0.074-0.077,0.147-0.115,0.22c-1.367,1.245-2.691,2.544-4.133,3.697
		c-0.379,0.303-1.122,0.151-1.697,0.208c0.037-0.588-0.104-1.276,0.157-1.738c0.35-0.62,1.018-1.059,1.535-1.588
		c0.906-0.928,1.813-1.853,2.683-2.814c0.119-0.132,0.017-0.464,0.018-0.704c-0.163,0.049-0.359,0.055-0.483,0.153
		c-1.308,1.03-2.536,2.178-3.918,3.094c-2.926,1.94-5.945,3.739-8.896,5.642c-1.461,0.941-2.912,1.914-4.263,3.002
		c-0.97,0.781-1.864,0.646-2.812,0.162c-0.981-0.5-1.537-1.333-1.567-2.445c-0.032-1.147,0.783-1.486,1.705-1.867
		c7.729-3.199,14.863-7.44,21.398-12.642c2.381-1.895,4.483-4.14,6.719-6.219c0.473-0.44,0.91-1.03,1.476-1.225
		c0.498-0.171,1.243-0.039,1.718,0.236c0.653,0.378,1.115,1.055,0.576,1.872c-0.454,0.689-0.959,1.35-1.486,1.985
		c-0.826,0.997-1.7,1.954-2.528,2.948c-0.148,0.178-0.174,0.457-0.257,0.689c0.243-0.039,0.569,0.01,0.716-0.13
		c0.937-0.892,1.858-1.802,2.737-2.75c0.942-1.016,1.795-2.117,2.762-3.107c0.435-0.446,1.017-0.905,1.594-1.009
		c0.536-0.098,1.294,0.119,1.69,0.485c0.29,0.268,0.386,1.163,0.157,1.495c-0.726,1.052-1.58,2.036-2.5,2.926
		c-2.46,2.381-5.017,4.661-7.459,7.059c-1.052,1.032-1.965,2.218-2.838,3.411c-0.355,0.485-0.584,1.171-0.59,1.77
		c-0.005,0.47,0.422,0.945,0.657,1.417c0.296-0.302,0.634-0.573,0.881-0.91c1.91-2.606,3.641-5.361,5.73-7.812
		c5.162-6.052,11.816-10.1,19.059-13.1C75.01,7.633,78.5,6.823,81.934,6.339c2.204-0.31,4.598,0.195,6.821,0.708
		c2.632,0.606,3.848,2.795,4.437,5.229c0.983,4.061-2.397,9.142-6.5,9.916c-0.537,0.101-1.128,0.138-1.652,0.019
		c-1.009-0.229-2.012-0.614-2.201-1.818c-0.172-1.104,0.286-1.984,1.239-2.584c0.625-0.393,1.329-0.69,1.877-1.168
		c1.666-1.451,1.671-3.301,0.02-4.79c-1.454-1.309-3.218-1.645-5.122-1.461c-5.125,0.496-9.499,2.972-13.865,5.381
		c-5.72,3.157-10.882,7.04-14.875,12.311c-0.223,0.295-0.49,0.566-0.664,0.887c-0.11,0.204-0.085,0.48-0.12,0.724
		c0.242-0.045,0.542-0.016,0.719-0.149c2.284-1.724,4.574-3.441,6.808-5.228c0.79-0.632,1.416-1.465,2.152-2.168
		c0.396-0.378,0.825-0.811,1.319-0.97c0.459-0.149,1.189-0.151,1.493,0.123c0.26,0.234,0.241,1.019,0.062,1.438
		c-0.243,0.57-0.7,1.086-1.166,1.517c-0.812,0.75-1.769,1.351-2.525,2.146c-0.372,0.392-0.434,1.079-0.636,1.632
		c0.522,0.073,1.131,0.357,1.554,0.185c2.507-1.024,4.848-2.326,6.477-4.602c0.645-0.902,1.201-1.88,1.927-2.71
		c0.969-1.109,1.985-0.928,2.579,0.398c0.986,2.202,0.932,4.559,0.504,6.818c-0.17,0.896-1.193,1.936-2.083,2.328
		c-1.878,0.828-2.933-0.113-3.353-2.617c0.641-0.007,1.286,0.022,1.923-0.031c1.344-0.11,1.87-0.687,1.946-2.097
		c0.039-0.715-0.349-1.167-0.955-0.671c-1.037,0.852-1.928,1.882-2.879,2.838c-1.11,0.652-2.171,1.417-3.342,1.931
		c-1.81,0.792-3.687,1.026-5.681,0.478c-3.438-0.944-5.768,1.256-8.137,3.167c-0.242,0.196-0.186,0.828-0.176,1.255
		c0.083,3.5,3.1,5.694,6.809,5.914c6.142,0.36,11.624-1.654,16.722-4.859c1.637-1.028,3.127-2.297,4.647-3.501
		c0.411-0.326,0.688-0.821,1.026-1.239c-0.492-0.107-0.985-0.209-1.476-0.325c-0.793-0.186-1.678-0.226-2.341-0.629
		c-0.405-0.247-0.469-1.056-0.686-1.613c0.479-0.167,0.954-0.36,1.444-0.486c0.147-0.038,0.337,0.137,0.517,0.169
		c1.848,0.335,2.351-0.048,2.34-1.909c-0.003-0.498-0.281-0.994-0.432-1.491c-0.341,0.259-0.689,0.509-1.021,0.78
		c-0.427,0.347-0.791,0.875-1.273,1.018c-0.442,0.131-1.211,0.017-1.457-0.291c-0.246-0.307-0.227-1.153,0.032-1.481
		c1.133-1.431,2.357-2.797,3.638-4.099c0.318-0.324,1.063-0.553,1.444-0.402c0.371,0.148,0.696,0.819,0.748,1.292
		c0.252,2.287,0.416,4.583,0.587,6.877c0.047,0.642,0.253,0.81,0.812,0.422c0.683-0.473,1.333-1.036,2.086-1.343
		c0.411-0.167,1.16-0.052,1.474,0.239c0.325,0.302,0.565,1.087,0.396,1.456c-0.413,0.901-0.998,1.763-1.668,2.499
		c-1.738,1.912-3.559,3.75-5.347,5.614c-0.042,0.068-0.083,0.136-0.125,0.203C78.784,37.439,78.813,37.361,78.843,37.282z
		 M107.648,32.146c-0.338-0.122-0.758-0.417-0.922-0.311c-1.453,0.927-2.896,1.878-4.24,2.948c-0.215,0.17-0.098,1.132,0.184,1.433
		c0.245,0.265,1.128,0.336,1.396,0.104c1.168-1.002,2.225-2.135,3.289-3.25C107.521,32.898,107.521,32.569,107.648,32.146z"/>
	<path fill="#7B265F" d="M175.314,28.994c-2.299-0.186-4.6-0.362-6.897-0.558c-1.825-0.157-3.199,0.47-4.207,2.07
		c-1.175,1.867-2.585,3.592-3.714,5.483c-0.682,1.143-0.24,1.872,1.001,2.288c1.812,0.603,3.385-0.155,3.974-1.963
		c0.256-0.787,0.344-1.633,0.629-2.407c1.107-2.993,5.039-4.887,7.965-3.879c1.455,0.502,2.164,1.76,1.357,3.007
		c-1.104,1.707-2.533,3.199-4.646,3.726c-0.226,0.056-0.599-0.038-0.729-0.2c-0.099-0.123-0.002-0.554,0.149-0.703
		c0.718-0.719,1.492-1.379,2.229-2.083c0.115-0.11,0.232-0.412,0.178-0.475c-0.16-0.182-0.398-0.389-0.621-0.406
		c-1.449-0.111-2.605,0.75-3.086,2.246c-0.438,1.356-0.006,3.082,1.006,3.754c0.541,0.36,1.111,0.592,1.746,0.008
		c0.678-0.621,1.418-1.197,2.209-1.656c0.4-0.232,0.978-0.158,1.475-0.223c0.049,0.522,0.307,1.146,0.109,1.547
		c-0.688,1.402-1.906,2.396-3.426,2.547c-1.9,0.188-3.895,0.441-5.67-0.697c-1.181-0.758-2.406-0.818-3.676-0.238
		c-0.168,0.078-0.35,0.178-0.523,0.178c-3.188-0.018-6.369-0.338-9.568,0.179c-0.836,0.135-1.989-0.568-2.725-1.203
		c-1.217-1.047-2.307-1.069-3.469-0.127c-1.449,1.178-3.134,1.084-4.775,0.858c-3.51-0.479-4.982-3.744-2.918-6.601
		c1.584-2.191,3.527-4.035,6.289-4.787c1.086-0.296,2.02-0.279,2.795,0.582c0.772,0.858,0.705,1.852,0.348,2.869
		c-0.621,1.767-2.316,2.963-4.275,2.965c-0.226,0-0.451-0.217-0.678-0.333c0.145-0.219,0.237-0.515,0.438-0.64
		c0.545-0.338,1.186-0.54,1.685-0.929c0.203-0.159,0.282-0.728,0.159-0.984c-0.118-0.244-0.582-0.465-0.883-0.451
		c-1.6,0.072-3.656,3.037-3.176,4.583c0.364,1.173,1.367,1.168,2.295,0.955c2.013-0.463,3.945-1.264,5.353-2.772
		c1.438-1.545,2.701-3.287,3.839-5.07c0.96-1.504,0.719-1.827-0.986-2.119c-0.09-0.016-0.203,0.026-0.273-0.015
		c-0.496-0.297-1.244-0.508-1.413-0.941c-0.255-0.651,0.917-1.582,1.762-1.147c2.784,1.431,3.712-0.411,4.89-2.302
		c0.602-0.966,1.569-1.809,2.557-2.402c1.212-0.729,1.98-0.169,1.768,1.279c-0.156,1.058-0.646,2.086-1.104,3.073
		c-0.287,0.618-0.601,1.025,0.45,0.902c0.643-0.075,1.297-0.18,1.937-0.138c0.995,0.067,1.513-0.437,1.929-1.249
		c0.506-0.988,1.037-1.97,1.652-2.892c0.623-0.933,1.78-1.215,2.662-0.711c1.04,0.595,0.893,1.51,0.538,2.428
		c-0.166,0.429-0.435,0.817-0.608,1.244c-0.188,0.463-0.322,0.949-0.479,1.425c0.537,0.038,1.103,0.197,1.611,0.092
		c2.58-0.535,5.138-0.586,7.681,0.17c0.438,0.13,0.928,0.231,1.269,0.503c0.32,0.255,0.729,0.793,0.645,1.071
		c-0.135,0.452-0.594,1.062-0.996,1.128c-0.99,0.162-2.025,0.053-3.041,0.053C175.316,28.932,175.314,28.963,175.314,28.994z
		 M159.046,27.762c-0.437,0.194-1.624,0.354-2.163,1.032c-1.822,2.292-3.441,4.749-5.062,7.19c-0.238,0.361-0.264,1.187-0.018,1.468
		c0.281,0.313,0.985,0.354,1.497,0.332c0.433-0.019,0.908-0.22,1.271-0.474c3.087-2.164,5.054-5.263,6.904-8.438
		c0.101-0.171-0.23-0.801-0.5-0.929C160.591,27.758,160.078,27.837,159.046,27.762z"/>
	<path fill="#7B265F" d="M134.555,20.622c-2.238-0.133-4.886-1.449-6.67-3.722c-2.156-2.744-4.586-3.799-7.912-2.986
		c-0.265,0.064-0.57,0.102-0.826,0.034c-0.398-0.105-0.771-0.312-1.155-0.475c0.178-0.298,0.321-0.624,0.54-0.889
		c0.854-1.035,0.803-1.647-0.371-1.76c-2.076-0.199-4.064-1.006-6.28-0.472c-1.332,0.32-2.884-0.129-4.307-0.394
		c-0.666-0.125-0.728-0.77-0.296-1.309c0.988-1.233,2.41-1.562,3.867-1.9c6.037-1.402,11.446,0.523,16.67,3.193
		c1.361,0.696,2.31,0.646,3.543-0.163c2.154-1.415,4.348-2.817,6.666-3.929c5.34-2.56,10.875-2.612,16.44-0.735
		c0.702,0.237,1.92,0.455,1.569,1.499c-0.19,0.564-1.243,1.061-1.973,1.178c-1.906,0.305-3.85,0.522-5.776,0.528
		c-4.617,0.014-8.249,2.375-11.839,4.817c-0.6,0.408-1.332,1.58-1.137,1.988c0.319,0.673,1.319,1.058,2.084,1.468
		c0.293,0.157,0.762-0.04,1.084,0.093c0.25,0.104,0.574,0.48,0.557,0.71C138.866,19.48,137.499,20.655,134.555,20.622z"/>
	<path fill="#7B265F" d="M131.169,39.557c-0.899,0.17-1.793,0.394-2.698,0.496c-2.072,0.242-3.451-0.865-3.647-2.857
		c-0.38-3.89,4.128-8.572,8.007-8.279c0.531,0.041,1.225,0.123,1.529,0.464c0.445,0.494,0.836,1.256,0.804,1.88
		c-0.021,0.384-0.827,0.901-1.364,1.046c-1.15,0.312-2.38,0.335-3.531,0.644c-0.777,0.208-1.568,0.592-2.192,1.097
		c-0.927,0.747-0.941,1.75-0.243,2.705c0.639,0.875,1.436,1.148,2.387,0.541c0.771-0.49,1.528-1.016,2.246-1.582
		c0.504-0.398,0.895-0.945,1.406-1.328c0.722-0.541,1.646-0.764,2.234,0.004c0.371,0.482,0.492,1.385,0.326,1.99
		c-0.211,0.768-0.732,1.51-1.283,2.115c-2.832,3.104-4.916,6.6-6.396,10.561c-0.573,1.537-2.019,2.816-3.258,4.014
		c-0.706,0.683-1.819,0.968-2.831,0.351c-1.016-0.623-1.28-1.729-0.946-2.681c0.513-1.442,1.12-2.989,2.121-4.1
		c1.974-2.182,4.248-4.094,6.39-6.123c0.323-0.309,0.604-0.66,0.903-0.992c0.076-0.028,0.161-0.043,0.224-0.09
		c0.035-0.024,0.028-0.104,0.041-0.162C131.32,39.368,131.244,39.461,131.169,39.557z"/>
	<path fill="#7B265F" d="M43.273,26.768c0.039-0.073,0.077-0.146,0.115-0.22c-0.051,0.061-0.103,0.122-0.154,0.182L43.273,26.768z"
		/>
	<path fill="#7B265F" d="M78.843,37.282c-0.029,0.079-0.059,0.157-0.088,0.237c0.042-0.067,0.083-0.135,0.125-0.203L78.843,37.282z"
		/>
	<path fill="#7B265F" d="M131.169,39.557c0.075-0.096,0.151-0.188,0.228-0.287c-0.014,0.058-0.006,0.138-0.041,0.162
		c-0.062,0.047-0.147,0.062-0.225,0.09L131.169,39.557z"/>
</g>
</svg>
