<?xml version="1.0" encoding="utf-8"?>
<!-- Generator: Adobe Illustrator 21.0.2, SVG Export Plug-In . SVG Version: 6.00 Build 0)  -->
<svg version="1.1" id="Layer_1" xmlns="http://www.w3.org/2000/svg" xmlns:xlink="http://www.w3.org/1999/xlink" x="0px" y="0px"
	 viewBox="0 0 100 100" style="enable-background:new 0 0 100 100;" xml:space="preserve">
<style type="text/css">
	.st0{fill:#FCFCFC;}
</style>
<g>
	<g>
		<path class="st0" d="M40.5,45.5c0.1-0.1,0.1,0.1,0.2,0.1c0.2,0,0.4,0,0.5-0.1c0.1-0.1,0.1-0.1,0.2-0.1c0.1,0,0.2,0,0.3-0.2h0.1
			c0.1,0,0.1,0,0.2,0c-0.1,0.3-0.2,0.6-0.3,0.9c0,0,0,0.1-0.1,0.2c0,0.2,0,0.3,0,0.5c-0.1,0.3-0.2,0.6-0.1,0.8
			c0,0.4-0.1,0.8-0.3,1.2c0,0.1-0.1,0.2-0.1,0.3c0.1,0.2,0,0.5-0.1,0.6c0,0.1,0,0.2-0.1,0.4c-0.1,0.6-0.2,1.4-0.3,2
			c0,0.5-0.2,1,0,1.5c0,0.1,0,0.2-0.1,0.4c0,0.4-0.1,0.7,0.1,1.1c0.2,0.4,0.5,0.6,1,0.6c0.1,0,0.2,0,0.3,0.1
			c0.3,0.2,0.6,0.2,0.8,0.1c0.4-0.1,0.6-0.3,0.9-0.5c0.1-0.1,0.2-0.2,0.3-0.3c0.1-0.1,0.1-0.2-0.1-0.3c-0.2-0.1-0.2-0.3-0.2-0.4
			c0-0.2,0.1-0.4,0.2-0.6c0.1-0.1,0.1-0.2,0-0.3c0,0-0.1-0.1-0.1-0.2c0-0.3,0-0.6,0.1-0.8c0.1-0.1,0.1-0.2,0-0.2
			c-0.1-0.1,0-0.3,0-0.4c0-0.1-0.1-0.1-0.2,0h-0.1c0.1-0.4,0.1-0.6,0.1-0.9c0-0.4,0-0.7,0.1-1.1c0,0,0-0.1,0-0.2
			c0-0.3,0.1-0.5,0.2-0.7c0.1-0.2,0.2-0.5,0.2-0.6c0.1-0.2,0.1-0.3,0-0.5s-0.1-0.5,0.1-0.6c0.2-0.2,0.2-0.3,0.1-0.5
			c-0.1-0.4,0-0.8,0.2-1.2c0.1-0.2,0.1-0.3,0.1-0.5c-0.1-0.2,0-0.4,0-0.6l0,0c0.1,0,0.1,0,0.2-0.1c0.2-0.1,0.3-0.1,0.5-0.2
			c0.2-0.1,0.4-0.1,0.6-0.2c0.1,0,0.1,0,0.2-0.1c0.2-0.1,0.4-0.1,0.6-0.2h0.2c0,0,0.1,0,0.1-0.1c0.3-0.1,0.5-0.2,0.7-0.3
			c0,0,0,0,0.1,0l0,0c0,0,0.1-0.1,0.1,0h0.1h0.1v-0.1c0,0,0.1,0,0.2,0c0,0.1,0.1,0.2,0.3,0.2c0.1,0,0.2,0,0.1,0.1
			c-0.1,0.2-0.1,0.4,0,0.6c0,0.2,0,0.4,0,0.6c0.1,0.2,0.2,0.4,0.2,0.6c0.1,0.2,0.1,0.5,0.1,0.6c0,0.1,0.1,0.1,0.2,0H49v0.1
			c-0.1,0.1-0.3,0.3-0.2,0.4c0.2,0.2,0.2,0.4,0.1,0.6c0,0.2,0.1,0.4,0.3,0.4c0.3,0,0.3,0.1,0.1,0.2c-0.1,0.1-0.1,0.2,0,0.2
			c0.1,0.2,0.1,0.5,0.2,0.6c0.1,0.5,0.2,1,0.3,1.5c0,0.3,0.2,0.5,0.5,0.6c0.3,0.1,0.7,0.1,1,0.3h0.1c0.6,0.2,1-0.3,1.6-0.5
			c0.1,0,0.1-0.1,0.1-0.1C53,50,53,49.8,53,49.6c-0.1-0.5-0.3-1-0.6-1.4c-0.1-0.1-0.1-0.2-0.1-0.3c0-0.2,0-0.4,0-0.6
			c0-0.3-0.1-0.5-0.1-0.7c-0.2-0.6-0.4-1.1-0.6-1.7c-0.1-0.2-0.1-0.5-0.4-0.6c-0.1-0.1-0.2-0.2-0.1-0.3s0-0.2,0-0.3
			c0-0.4-0.2-0.6-0.4-1v-0.1c0-0.3-0.1-0.5-0.2-0.6c-0.1-0.3,0.1-0.5,0.4-0.6c0,0,0.1,0,0.1-0.1c0.2-0.1,0.2-0.2,0.2-0.4
			C51.2,41,51.2,41,51.1,41h-0.2l0,0v-0.1c0-0.1,0-0.3-0.1-0.4l-0.1-0.1c0-0.2-0.2-0.3-0.4-0.3l0,0c-0.1-0.1-0.2-0.2-0.3-0.3
			c-0.2-0.1-0.3-0.2-0.1-0.4c0.1-0.1,0-0.1,0-0.2c0-0.1-0.1-0.3-0.1-0.5c-0.1-0.3-0.1-0.6-0.2-0.8c0-0.2-0.1-0.3-0.3-0.5
			c-0.1-0.1-0.1-0.1-0.1-0.2c0.1-0.4-0.2-0.6-0.3-1c0-0.1-0.1-0.3-0.2-0.4c-0.1-0.3-0.3-0.5-0.4-0.7c0-0.1-0.1-0.2-0.2-0.3
			c-0.1-0.1-0.2-0.2-0.2-0.3c-0.2-0.5-0.5-0.9-0.6-1.3c0-0.1-0.1-0.2-0.2-0.2C47,33.2,47,32.9,47,32.7s-0.1-0.4-0.2-0.5
			c-0.2-0.3-0.5-0.6-0.7-0.6c-0.6-0.1-1.2,0-1.8,0.2c-0.1,0-0.1,0.1-0.2,0.1c-0.2,0.2-0.4,0.4-0.6,0.6c-0.1,0.1-0.2,0.2-0.1,0.4
			c0,0.2,0,0.3,0,0.5c0,0.1,0,0.3,0.1,0.4c0.1,0.1,0,0.1,0,0.2c0,0.7-0.1,1.4-0.2,2.1c0,0.2-0.2,0.4-0.1,0.6c0,0.3,0,0.5-0.1,0.6
			c-0.1,0.3-0.1,0.5-0.2,0.7c0,0.1,0,0.2-0.1,0.2c-0.1,0.2-0.2,0.5-0.1,0.6c0.1,0.5-0.2,0.8-0.2,1.3c0,0.2-0.1,0.4-0.1,0.5
			c-0.1,0.5-0.2,0.9-0.3,1.4c0,0.2-0.1,0.4-0.2,0.6c-0.1,0-0.1,0-0.2,0l0,0v0.1c0,0,0,0,0.1,0c-0.1,0.1-0.2,0.2-0.4,0.3 M40.3,43.5
			c0.1,0,0.1-0.1,0.1-0.2c-0.1-0.1-0.1-0.2-0.3-0.2 M42.3,42.3c-0.1,0-1.3,0.4-1.4,0.5c-0.2,0.1-0.3,0.1-0.5,0.2
			c-0.3,0.1-0.6,0.2-0.9,0.4c-0.1,0-0.2,0.1-0.3,0.1c-0.3,0.1-0.6,0.3-0.8,0.4c-0.1,0-0.1,0.1-0.2,0.1C38.2,44,38.2,44,38,43.9
			c-0.1,0-0.2,0-0.3,0.1c-0.2,0.1-0.4,0.2-0.5,0.3c-0.1,0-0.3,0.1-0.4,0.1c-0.1,0.1-0.2,0.1-0.3,0.1c-0.3,0.2-0.6,0.3-0.9,0.5
			c-0.1,0.1-0.2,0.2-0.4,0.3c-0.2,0.1-0.3,0.2-0.5,0.3c-0.2,0.2-0.3,0.4-0.4,0.6v0.1c0,0.1,0.1,0.1,0.2,0.1s0.1,0.1,0.1,0.1
			c0,0.1,0,0.1,0,0.1c0,0.1,0.1,0.2,0.2,0.2h0.1c0.1,0,0.3,0,0.5,0c0.1,0.1,0.1,0.1,0.2,0c0.1-0.1,0.2-0.1,0.2,0c0,0.1,0,0.1,0,0.1
			H36c0.1-0.1,0.1-0.1,0-0.2c0-0.1,0-0.1,0-0.2v-0.1h0.1c0.1,0.1,0.2,0.2,0.3,0.2c0.1,0,0.3,0.1,0.4,0.1c0.1,0.1,0.1,0.1,0.2,0.1
			c0.1,0,0.1,0,0.1,0.1l0.1,0.1h0.1c0,0,0,0,0-0.1c0,0,0,0,0-0.1v-0.1h0.1c0.1,0.1,0.1,0.1,0.3,0.1c0.1,0,0.2-0.1,0.2-0.3v-0.1
			c0-0.1,0.1-0.1,0.2-0.1c0,0,0.1,0,0.1-0.1V46c-0.1-0.1-0.1-0.2-0.2-0.2s-0.1-0.1-0.2-0.2c0-0.1,0-0.1-0.1,0c-0.1,0-0.1,0-0.1,0
			c0-0.1,0-0.2,0.1-0.3c0,0-0.1-0.1-0.1,0l-0.1,0.1c-0.1,0-0.1-0.2-0.2-0.1l0,0l0,0c0.1-0.1,0.3-0.1,0.4-0.1c0.1,0,0.1,0.1,0.1,0.1
			l0,0c0,0,0,0.1,0.1,0.1c0,0,0,0.1,0.1,0c0,0,0,0,0-0.1c0,0,0.1,0,0.1,0.1c0.1,0.1,0.2,0.1,0.2,0.2l0.1,0.1l0,0c0,0,0,0-0.1,0
			c-0.1,0-0.1,0.1,0,0.1l0.1,0.1h0.1c0-0.1,0-0.1,0-0.2l0,0h0.1c0,0,0,0,0.1,0v0.1c0,0.1,0,0.1,0,0.2c0,0,0.1,0,0.1,0.1
			c0,0.1,0.1,0.1,0.1,0c0.1-0.1,0.1-0.1,0.2-0.1h0.1H39c0-0.1,0.1-0.1,0.1-0.2l0.1-0.1l0,0l0,0l0.1,0.1h0.1c0,0,0.1-0.1,0.1,0
			c0.2,0.1,0.3,0.1,0.5,0H40c0.1-0.1,0.3-0.1,0.4-0.2c0,0,0-0.1,0-0.2h-0.1l0,0c0,0,0,0,0.1,0s0.2,0.1,0.3,0c0.1,0,0.3,0,0.4,0
			c0,0,0,0,0.1,0c0.2,0,0.4,0,0.6-0.2 M42.7,42.3c-0.4,0-1.2,0.7-1.9,0.9c-0.1,0-0.1,0.1-0.2,0.1s-0.1,0.1-0.2,0.1l0,0
			c0-0.1,0-0.1-0.1-0.1l0,0c0,0.1,0,0.1,0,0.1l0,0c-0.2,0.1-0.3,0.2-0.5,0.3c-0.2,0.1-0.4,0.3-0.6,0.4l0,0c-0.1,0-0.2,0-0.3,0.1
			c-0.1,0-0.1,0.1-0.1,0c0,0,0,0-0.1,0l0,0c0,0.2,0,0.2-0.2,0.2h-0.1c-0.1,0.1-0.1,0.1-0.2,0.1h-0.1l0,0c0,0,0,0,0,0.1l0,0l0,0
			c0,0,0,0-0.1,0c-0.1,0-0.1,0-0.2,0.1c0,0.1-0.1,0.1-0.1,0c0,0,0,0-0.1,0s-0.1,0-0.1,0.1c0,0.1,0,0.1-0.1,0.1c-0.1,0-0.3,0-0.4,0.1
			h-0.1c0-0.1,0-0.1,0-0.1s0-0.1-0.1-0.1H37c0,0.1,0,0.1-0.1,0.2c0,0.1,0,0.1-0.1,0.1s-0.2,0-0.2,0.1c0,0.1-0.1,0.1-0.1,0.2
			c-0.1,0.1-0.2,0.2-0.3,0.1c-0.1,0-0.1,0-0.1,0h-0.1c0,0,0,0,0-0.1c0,0,0,0.1-0.1,0.1s-0.1,0-0.2,0c-0.1,0-0.2,0-0.2,0.2
			c0,0.1-0.1,0.1-0.1,0.1c-0.1,0-0.1,0-0.2,0c-0.1,0.1-0.2,0.1-0.2,0l0,0c0,0-0.1,0-0.1,0.1c0,0.1,0,0.1-0.1,0.1h-0.1
			c0,0,0-0.1,0.1-0.1l0.1-0.1c0.1-0.1,0.1-0.2,0.3-0.2c0.1,0,0.1-0.1,0.2-0.2c0.1,0,0.2-0.1,0.2-0.2c0.1-0.1,0.2,0,0.3,0
			c0,0,0-0.1,0.1-0.1c0,0,0,0,0.1,0s0.1,0,0.1-0.1c0-0.1,0.1-0.1,0.1-0.1c0.1,0,0.1,0.1,0.2,0c0.1-0.1,0.3-0.2,0.4-0.2
			c0.2-0.1,0.4-0.2,0.6-0.4h0.1v-0.1c0,0,0,0,0.1,0s0.1,0,0.1,0.1h0.1c0.1-0.1,0.1-0.2,0.2-0.1c0.1,0,0.2-0.1,0.3-0.1
			c0,0,0.1-0.1,0.2-0.2c0.1,0,0.2,0,0.2,0c0.1-0.1,0.3-0.1,0.4-0.1s0.3-0.1,0.3-0.3c0,0,0-0.1,0.1-0.1c0,0,0.1-0.1,0.1,0
			c0.1,0.1,0.1,0.1,0.3,0c0.1,0,0.2-0.1,0.2-0.1c0.1,0,0.2,0,0.3,0.1c0,0,0,0,0.1,0l0,0c0-0.1,0-0.1,0.1-0.1s0.2,0,0.3-0.1
			c0.1,0,0.3-0.1,0.3-0.2c0.1,0,0.3,0,0.4,0 M36.2,45.9C36.1,45.9,36.1,45.8,36.2,45.9C36.2,45.8,36.2,45.8,36.2,45.9
			C36.3,45.8,36.3,45.8,36.2,45.9L36.2,45.9C36.3,46,36.3,46,36.2,45.9C36.2,46,36.2,45.9,36.2,45.9z M36.5,46.4
			C36.4,46.4,36.4,46.4,36.5,46.4C36.4,46.3,36.4,46.3,36.5,46.4C36.4,46.3,36.5,46.3,36.5,46.4C36.5,46.3,36.5,46.4,36.5,46.4
			L36.5,46.4z M36.5,46.1L36.5,46.1C36.5,46.1,36.5,46.1,36.5,46.1C36.5,46.1,36.5,46.1,36.5,46.1C36.5,46.1,36.5,46.1,36.5,46.1
			L36.5,46.1z M37.3,46.1L37.3,46.1c0.1-0.1,0.2-0.1,0.2,0v0.1l0,0L37.3,46.1C37.3,46.1,37.3,46.1,37.3,46.1
			C37.3,46.1,37.3,46.1,37.3,46.1z M37.1,46L37.1,46L37.1,46L37.1,46L37.1,46z M37.1,45.3L37.1,45.3L37.1,45.3
			C37.1,45.2,37.1,45.2,37.1,45.3C37.1,45.2,37.2,45.2,37.1,45.3z M37.8,45L37.8,45C37.9,45,37.9,45.1,37.8,45
			C37.9,45.1,37.8,45.1,37.8,45L37.8,45z M37.7,45L37.7,45L37.7,45L37.7,45z M37.7,45.4L37.7,45.4L37.7,45.4c0.1-0.1,0.2-0.1,0.3,0
			c0,0,0,0.1,0.1,0.1c0,0,0,0.1-0.1,0.1l0,0C37.8,45.5,37.8,45.5,37.7,45.4z M39.9,45.1L39.9,45.1C39.8,45.1,39.8,45.1,39.9,45.1
			L39.9,45.1L39.9,45.1C39.9,45.1,39.9,45.2,39.9,45.1z M40.2,45L40.2,45C40.2,45.2,40.2,45.1,40.2,45c-0.1,0-0.2,0-0.3-0.1
			c0.1,0,0.2-0.1,0.2-0.1C40.2,45,40.2,45,40.2,45z M41,44.5L41,44.5L41,44.5C41,44.5,41,44.4,41,44.5L41,44.5z M46.9,41.3
			L46.9,41.3L46.9,41.3L46.9,41.3z M47.9,40.1c0,0.1,0.1,0.3,0.1,0.4c0,0,0,0-0.1,0.1h-0.1c-0.1-0.1-0.1-0.1-0.1-0.2
			c0-0.1,0-0.1,0-0.2C47.8,40.2,47.8,40.1,47.9,40.1C47.8,40,47.9,40.1,47.9,40.1z M47.6,39.4C47.6,39.3,47.7,39.4,47.6,39.4
			c0.1,0.1,0.2,0.2,0.3,0.4v0.1c-0.1,0.1-0.1,0-0.1,0c-0.1-0.1-0.1-0.1-0.2-0.2C47.5,39.6,47.5,39.5,47.6,39.4
			C47.5,39.4,47.5,39.4,47.6,39.4z M45.4,41.3c0.2-0.5,0.1-0.8,0.2-1.3c0.1-0.2,0-0.4,0-0.6c0-0.2,0-0.4,0.1-0.6
			c0.1-0.3,0.3-0.5,0.3-0.6c0-0.1,0-0.2,0.1-0.2c0,0,0.1-0.1,0.2,0c0,0,0,0,0.1,0.1c0,0.1,0,0.2,0,0.3c0,0.2,0,0.4,0.2,0.5
			c0.1,0.1,0.3,0.3,0.2,0.5c0,0.1,0,0.2,0.1,0.3c0.1,0.1,0.1,0.2,0.1,0.2c0,0.4,0.2,0.6,0.4,0.9c0,0,0.1,0.1,0.1,0.2
			c-0.2,0.1-0.4,0.2-0.6,0.2c-0.3,0.1-0.6,0.2-0.7,0.3c-0.2,0-0.4,0.1-0.6,0.2C45.4,41.4,45.4,41.4,45.4,41.3L45.4,41.3z M44.6,36.1
			L44.6,36.1c0.2,0.1,0.1,0.3,0,0.4c0,0.1-0.1,0.1-0.1,0.2l-0.1-0.1c0,0,0-0.1,0-0.2C44.5,36.3,44.5,36.2,44.6,36.1z M44.5,37
			c0,0,0.1,0,0.2,0c0,0.1,0,0.1,0,0.1c-0.1,0.2-0.2,0.4-0.3,0.5l-0.1,0.1l-0.1-0.1C44.2,37.3,44.3,37.1,44.5,37z M44.1,38.4
			c0-0.1,0.1-0.3,0.1-0.4c0,0,0.1-0.1,0.1,0l0,0v0.1C44.3,38.2,44.2,38.3,44.1,38.4c0.1,0.2,0,0.3,0,0.3
			C44,38.6,44.1,38.5,44.1,38.4z M43.3,40.7L43.3,40.7L43.3,40.7L43.3,40.7z M43.5,40.4C43.5,40.4,43.4,40.4,43.5,40.4
			c-0.4,0-0.4-0.1-0.4-0.2c0-0.3,0.1-0.6,0.5-0.6c0.1,0,0.1-0.1,0.2-0.2c0-0.1,0-0.1,0-0.2c0-0.2,0.1-0.3,0.3-0.4
			c0.1,0,0.3,0.2,0.3,0.4c0,0.1,0,0.1,0,0.1c-0.1,0.1-0.2,0.2-0.2,0.3c0,0.1,0.1,0.2,0,0.3c-0.1,0.1,0,0.2,0.1,0.2c0,0,0,0.1,0,0.2
			c0,0.1-0.1,0.2-0.1,0.2c0,0.2-0.1,0.4-0.3,0.5c-0.2,0.2-0.2,0.4-0.2,0.6c0,0.1,0,0.2,0,0.3h-0.1c-0.1,0-0.2,0.1-0.3,0.1
			c0.1-0.3,0.1-0.5-0.1-0.7C43.6,41.1,43.5,40.8,43.5,40.4z M42.8,41.9c0.1-0.4,0.2-0.7,0.4-1.1v0.4c-0.1,0.1-0.1,0.2-0.1,0.4
			c0,0.1,0,0.3,0,0.4c0,0,0,0.1-0.1,0.1l0,0c-0.1,0-0.1,0-0.2,0.1C42.8,42.1,42.8,42,42.8,41.9z M41.3,44.5c-0.1,0.1-0.1,0.1-0.2,0
			c0,0,0,0,0-0.1C41.1,44.5,41.2,44.5,41.3,44.5L41.3,44.5L41.3,44.5z M41,54.6L41,54.6L41,54.6L41,54.6z M41,54.2L41,54.2L41,54.2
			L41,54.2L41,54.2z M41.3,54.8L41.3,54.8L41.3,54.8L41.3,54.8L41.3,54.8z M41.5,53.6c-0.1,0.1-0.2,0.1-0.3,0.2
			C41,53.9,41,53.9,41,53.7c-0.1-0.2-0.2-0.3,0-0.5c0,0,0-0.1,0-0.2c-0.1-0.3,0.1-0.6,0.3-0.9c0.1,0.3,0.1,0.5,0.1,0.7
			c0,0.2,0.1,0.3,0.3,0.4C41.7,53.2,41.7,53.5,41.5,53.6z M41.6,51.9L41.6,51.9c0-0.1,0.1-0.2,0.2-0.2v0.1
			C41.8,51.8,41.8,51.9,41.6,51.9L41.6,51.9z M41.9,52.4C41.9,52.4,41.8,52.5,41.9,52.4c-0.1,0-0.1,0-0.2-0.1c0-0.1,0.1-0.2,0.1-0.3
			h0.1c0,0,0,0,0.1,0.1C41.9,52.2,41.9,52.3,41.9,52.4z M41.7,50.9L41.7,50.9C41.8,50.8,41.8,50.8,41.7,50.9
			C41.8,50.8,41.8,50.8,41.7,50.9C41.8,50.8,41.8,50.8,41.7,50.9z M41.9,50.3L41.9,50.3C41.9,50.2,41.9,50.2,41.9,50.3
			C42,50.2,42,50.2,41.9,50.3L41.9,50.3z M42.2,51L42.2,51L42.2,51L42.2,51z M42.3,50.4L42.3,50.4L42.3,50.4L42.3,50.4L42.3,50.4z
			 M42.8,48.3L42.8,48.3h-0.2c0.1-0.2,0.1-0.4,0.2-0.6c0,0,0,0,0-0.1l0,0c0,0,0,0,0,0.1C42.9,47.9,42.8,48.1,42.8,48.3z M43,47.1
			c-0.2,0.2-0.4,0.4-0.5,0.6c0,0,0,0.1-0.1,0.1h-0.1c0,0,0,0-0.1-0.1c0.1-0.3,0.1-0.6,0.2-0.7c0-0.2,0.4-0.3,0.5-0.4l0.1,0.1
			C43.1,46.8,43.1,47,43,47.1z M43.2,45.4c-0.1,0.2-0.2,0.4-0.3,0.6h-0.1c0,0,0,0,0-0.1v-0.1l-0.1-0.1c-0.1,0-0.1,0-0.2,0.1
			c0,0-0.1,0.1,0,0.1c-0.1,0.3-0.1,0.6-0.2,0.8c0,0.2-0.1,0.5-0.1,0.6c-0.1,0.1-0.1,0.3-0.1,0.4c0,0.1,0,0.2,0.2,0.1h0.1
			c0.2,0,0.2,0,0.2,0.2c0,0.1-0.1,0.2-0.1,0.2l-0.1,0.1c-0.1-0.1-0.1-0.1-0.1-0.2c0,0,0,0-0.1-0.1c0,0-0.1,0-0.1,0.1
			c-0.1,0.3-0.1,0.6-0.4,0.9c0,0,0,0.1,0,0.2c0.1,0.2,0,0.5-0.1,0.6c-0.2,0.5-0.2,0.8-0.2,1.3c-0.1,0.3-0.1,0.6-0.3,0.8
			c-0.1-0.4-0.1-0.7,0-1.1c0.1-0.5,0.2-0.8,0.2-1.3c0.1-0.4,0.2-0.6,0.3-0.9c0-0.1,0-0.3,0.1-0.4c0.1-0.7,0.2-1.5,0.4-2.1
			c0.1-0.4,0.1-0.6,0.2-1V45c0.1-0.1,0.2-0.1,0.2-0.2s0.1-0.1,0.1,0c0.1,0.1,0.1,0.1,0.2,0.1c0.1-0.1,0.2-0.1,0.3-0.1
			c0.1,0,0.2-0.1,0.4-0.1C43.3,45,43.3,45.2,43.2,45.4z M49.2,45c-0.1-0.2-0.1-0.3-0.2-0.5H49c-0.1-0.3-0.1-0.6-0.1-0.8
			c0-0.2-0.2-0.4-0.3-0.6c0.2-0.1,0.4-0.1,0.6-0.2l0,0v0.1c-0.1,0.2-0.1,0.4,0,0.6c0,0.1,0.2,0.1,0.2,0.2c0.1,0.4,0.1,0.7,0,1.1
			C49.4,45,49.3,45,49.2,45C49.3,45.1,49.2,45,49.2,45z M50,47.2c-0.1-0.3-0.3-0.5-0.4-0.7c-0.1-0.3-0.2-0.6-0.3-0.9
			c0,0,0-0.1,0.1-0.1c0,0,0.1,0,0.2,0c0,0,0.1,0.1,0.2,0.1l0.1,0.1C49.8,45.9,50,46,50,46.1c0.1,0.1,0.1,0.1,0.1,0.2
			c0,0.2,0.1,0.4,0.2,0.6c0.1,0.1,0.1,0.2,0.1,0.4c0,0-0.1,0.1-0.1,0.2C50.1,47.3,50.1,47.3,50,47.2z M50.1,47.7
			c0-0.1,0.1-0.1,0.1-0.2l0.1,0.1L50.1,47.7C50.1,47.8,50.1,47.8,50.1,47.7z M50.7,49.1L50.7,49.1c-0.1,0.1-0.2,0.1-0.3,0
			c-0.1-0.1-0.2-0.3-0.2-0.5s0-0.4,0-0.6c0,0,0,0,0.1-0.1h0.1c0.1,0.2,0.3,0.3,0.2,0.5c0,0.2,0,0.3,0.1,0.4
			C50.7,48.9,50.7,49,50.7,49.1z"/>
		<polygon class="st0" points="36.5,46.1 36.5,46.1 36.5,46.1 		"/>
		<path class="st0" d="M41.9,42.6L41.9,42.6C41.9,42.5,41.8,42.5,41.9,42.6L41.9,42.6C41.8,42.7,41.9,42.7,41.9,42.6z"/>
		<path class="st0" d="M40.8,43.1C40.9,43.1,40.9,43.1,40.8,43.1c0.2,0,0.4,0,0.5-0.1c0.1-0.1,0.2-0.1,0.3-0.1h0.1l0.1-0.1
			c0-0.1,0-0.1,0-0.1s-0.1-0.1-0.1,0h-0.1c-0.2,0.1-0.3,0.1-0.5,0.2C41,42.9,40.9,43,40.8,43.1h-0.2c0,0.1,0,0.1,0,0.2
			C40.6,43.1,40.7,43.1,40.8,43.1z"/>
		<path class="st0" d="M38.6,44.4L38.6,44.4L38.6,44.4L38.6,44.4L38.6,44.4z"/>
		<path class="st0" d="M37.1,44.7C37.1,44.7,37,44.8,37.1,44.7L37.1,44.7C37.2,44.8,37.2,44.8,37.1,44.7
			C37.2,44.7,37.1,44.7,37.1,44.7z"/>
		<path class="st0" d="M40.3,43.5L40.3,43.5C40.4,43.5,40.4,43.5,40.3,43.5C40.4,43.5,40.4,43.5,40.3,43.5L40.3,43.5z"/>
		<path class="st0" d="M37.4,45L37.4,45L37.4,45z"/>
		<path class="st0" d="M35.1,45.7c0.1,0.1,0.2,0.1,0.2,0.2l0,0C35.3,45.8,35.3,45.8,35.1,45.7L35.1,45.7
			C35.1,45.6,35.1,45.6,35.1,45.7C35,45.7,35.1,45.7,35.1,45.7z"/>
		<path class="st0" d="M34.7,46L34.7,46L34.7,46L34.7,46C34.7,45.9,34.7,46,34.7,46z"/>
	</g>
	<path class="st0" d="M38.8,40.2c0,0.2,0,0.3-0.1,0.4c-0.1,0.2-0.2,0.5-0.3,0.6c0,0.1-0.1,0.2,0,0.4c0,0.2,0,0.5-0.1,0.6
		c-0.1,0.1-0.1,0.2,0,0.4c0.1,0.1,0,0.2-0.1,0.3c-0.5,0.3-0.9,0.4-1.5,0.4s-0.8-0.3-0.8-0.7c-0.1-0.6,0-1.1,0-1.6
		c0-0.5,0-0.8-0.1-1.2c-0.1-0.6-0.1-0.1-0.2-0.6c-0.1-0.1,0-0.2-0.1-0.3c0-0.1,0-0.2,0-0.3c-0.1-0.4-0.3-0.8-0.4-1.3
		c0-0.1-0.1-0.2-0.2-0.4c-0.1-0.1-0.3-0.1-0.4,0c-0.3,0.3-0.5,0.6-0.2,1c0.1,0.1,0.2,0.3,0.1,0.4c-0.1,0.2-0.2,0.3-0.4,0.5
		c-0.3,0.3-0.6,0.6-0.8,0.8c-0.1,0.2-0.3,0.4-0.2,0.6c0.1,0.4-0.1,0.7-0.2,1.1c0,0.2-0.1,0.4,0,0.6c0,0.4,0,0.7-0.4,1
		c-0.2,0.1-0.3,0.6-0.2,0.7c0,0.2,0.1,0.4-0.1,0.6c-0.1,0.1,0,0.3,0,0.5c0,0.1,0,0.3-0.1,0.4c-0.2,0.3-0.2,0.6-0.1,0.8
		c0,0.1,0,0.1,0,0.2c0,0.3,0.1,0.6-0.2,0.9c0,0.1,0,0.2,0,0.3c0,0.5,0,0.9,0.1,1.3c0,0.2,0,0.4,0,0.6c0,0.2,0,0.4,0,0.6
		c0,0.1,0,0.2,0,0.3c-0.2,0.5-0.2,1-0.1,1.5C32,51.7,32,52,32,52.4c0,0.3,0.1,0.6,0.2,0.9c0.1,0.3,0.1,0.6,0.2,0.8
		c0.1,0.5,0.3,0.9,0.6,1.3c0.3,0.2,0.5,0.5,0.8,0.6c0.2,0.1,0.5,0.1,0.6-0.1c0.4-0.2,0.6-0.4,1-0.6c0.5-0.3,0.8-0.6,1-1
		c0.1-0.1,0.1-0.2,0.3-0.3c0.4-0.3,0.5-0.6,0.6-0.8c0.1-0.3,0.3-0.5,0.4-0.7c0.1-0.2,0.3-0.2,0.5-0.1c0.1,0.1,0.2,0.2,0.4,0.2
		c0.1,0,0.1,0,0.1,0.1c0.2,0.2,0.3,0.4,0.5,0.5c0.1,0.1,0.1,0.1,0.1,0.2s0.1,0.2,0.2,0.2c0.3,0,0.5,0.2,0.7,0.3l0.1,0.2
		c-0.1,0.2-0.1,0.4-0.3,0.5c-0.2,0.1-0.2,0.2-0.2,0.4c0,0.3-0.1,0.6-0.4,0.7c-0.5,0.3-1,0.6-1.5,0.9c-0.1,0.1-0.3,0.1-0.5,0.2l0,0
		c-0.5,0.1-1,0.3-1.5,0.4c-0.1,0-0.2,0-0.3,0.1c-0.2,0-0.4,0.1-0.5,0.1c-0.6,0-1,0.1-1.6,0.1c-0.1,0-0.2,0-0.3,0
		c-0.4,0-0.7-0.1-1.1,0.1c-0.1,0-0.2,0-0.3,0c-0.6-0.2-1.3-0.4-1.8-0.7c-0.1-0.1-0.3-0.1-0.4-0.2c-0.3-0.1-0.6-0.3-0.6-0.6
		c0-0.1-0.1-0.2-0.2-0.2c-0.2-0.1-0.4-0.3-0.3-0.4c0.1-0.2-0.1-0.3-0.2-0.5c-0.2-0.2-0.3-0.5-0.4-0.7c-0.2-0.6-0.3-1.2-0.4-1.7
		c-0.1-0.3,0-0.6,0-0.9c0-0.2,0-0.5,0-0.6c0-0.6,0.1-1.3,0.3-2c0.1-0.6,0.2-1.3,0.2-1.9c0-0.2,0.1-0.5,0.2-0.6c0-0.1,0-0.1,0-0.2
		c0-0.4,0.1-0.7,0.2-1.1c0.1-0.7,0.3-1.4,0.6-2c0.2-0.6,0.4-1.2,0.6-1.7c0.1-0.2,0.1-0.4,0.1-0.5c0.2-0.5,0.3-1,0.5-1.5
		c0.1-0.5,0.3-0.9,0.6-1.4c0.1-0.1,0.2-0.3,0.3-0.4c0.2-0.3,0.5-0.6,0.6-0.8c0.1-0.3,0.4-0.6,0.6-0.7c0.6-0.5,1.2-0.7,1.8-1.1
		c0.1,0,0.3-0.1,0.4-0.1c0.4-0.1,0.8,0,1.2-0.1c0.4-0.1,0.7,0.1,1,0.3c0.1,0,0.1,0.1,0.2,0.2c0.1,0.2,0.1,0.5,0.2,0.6
		c0.1,0.1,0.1,0.2,0.2,0.3c0.3,0.2,0.4,0.5,0.5,0.7c0.1,0.1,0.1,0.3,0.1,0.3c0.2,0.3,0.3,0.6,0.3,0.9c0,0.2,0.1,0.5,0.2,0.6
		c0.1,0.1,0.1,0.1,0,0.2c0,0.3,0.1,0.6,0.2,0.7c0.2,0.5,0-0.3,0.1,0.2C38.7,39.8,38.7,40,38.8,40.2z M30.3,44.8
		c-0.1,0.4-0.3,0.8-0.4,1.2c0,0.3-0.1,0.6-0.1,0.8c0,0.2,0,0.2-0.2,0.3c-0.1,0.1-0.2,0.1-0.3,0.2c-0.3,0-0.3,0.1-0.3,0.2
		c0,0.1,0,0.2,0,0.4c0,0.1,0,0.1,0.1,0.2c0.1,0.1,0.4-0.1,0.3-0.2c0,0,0-0.1,0-0.2v-0.1c0.1,0,0.2,0,0.2,0c0.2,0.3,0.1,0.5-0.3,0.6
		c-0.3,0.1-0.5,0.2-0.5,0.4c0,0.1-0.1,0.1-0.1,0.2c0,0.1,0,0.2,0,0.2c0.2,0.3,0.1,0.6,0.1,0.8c0,0.2,0,0.5-0.1,0.6
		c-0.1,0.2,0,0.5,0,0.7h0.1c0,0,0.1,0,0.1-0.1c-0.1-0.4,0.2-0.7,0.4-1.1l0,0l0.1,0.1c0,0.1,0,0.2-0.1,0.2c-0.1,0.1-0.1,0.2-0.1,0.3
		c0.1,0.3,0.2,0.6,0,0.8c0,0.1,0,0.2,0,0.3c0.1,0.5,0.2,0.9,0.2,1.4c0,0.1,0,0.2,0.1,0.3c0,0.1,0.1,0.3,0.1,0.4
		c0.1,0.4,0.2,0.6,0.3,0.9c0,0,0,0,0.1,0l0,0v-0.1c-0.2-0.7-0.3-1.4-0.2-2.1c0-0.4,0-0.6,0-1c-0.3-0.3-0.2-0.6-0.2-1
		c0-0.1,0-0.2,0-0.2c0.2-0.6,0.3-1,0.3-1.6c0-0.3,0-0.6,0.1-0.9c0-0.1,0-0.2,0.1-0.3c0.1-0.1,0.3-0.1,0.3-0.2
		c0.1-0.2-0.2-0.1-0.2-0.2c0-0.1,0-0.1,0-0.2c0-0.2,0.2-0.5,0.2-0.7c-0.1-0.3,0-0.6,0.1-0.8c0-0.1,0.1-0.3,0.1-0.4
		c0-0.2,0.3-0.4-0.1-0.5C30.3,44.5,30.3,44.7,30.3,44.8z M28.7,51.4C28.6,51.5,28.6,51.5,28.7,51.4c-0.1,0.4-0.1,0.6-0.1,0.8
		c0,0.1,0.1,0.1,0.1,0.2c0-0.1,0.1-0.1,0.1-0.2c0-0.2-0.1-0.5,0-0.6C28.8,51.6,28.8,51.5,28.7,51.4C28.8,51.4,28.7,51.4,28.7,51.4z
		 M29.4,46.1L29.4,46.1c-0.2,0.1-0.4,0.3-0.3,0.5l0.1,0.1c0,0,0,0,0.1,0C29.4,46.6,29.5,46.4,29.4,46.1
		C29.5,46.1,29.4,46.1,29.4,46.1z M29.8,44.2L29.8,44.2c-0.1,0.1-0.2,0.3-0.3,0.4c0,0.1,0,0.2-0.1,0.3c-0.2,0.2-0.2,0.5-0.2,0.6
		c0,0.1,0.1,0.2,0.2,0.1c0.2-0.1,0.3-0.2,0.3-0.4c0-0.1,0-0.2,0-0.4c-0.1-0.2-0.1-0.3,0.1-0.5C29.9,44.3,29.9,44.2,29.8,44.2
		C29.8,44.2,29.8,44.2,29.8,44.2z M29.9,43.6c-0.1,0-0.2,0.2-0.1,0.3l0.1,0.1l0.1-0.1c0-0.1,0.1-0.2,0.1-0.2
		C30,43.6,29.9,43.5,29.9,43.6z M30.6,44L30.6,44L30.6,44L30.6,44z"/>
	<g>
		<g>
			<path class="st0" d="M15.1,57c0,0-0.1,0-0.2,0c-0.5,0.3-0.7,0.6-1.1,0.9c-0.7,0.7-1.5,1.4-2.2,2c-0.5,0.4-0.9,0.6-1.4,1
				c-0.4,0.2-0.7,0.5-1.1,0.6c-0.5,0.2-0.6,0.2-0.8-0.3c-0.1-0.1-0.1-0.2-0.2-0.3c-0.3-0.6-0.6-1.3-0.5-2c0-0.2-0.1-0.5-0.1-0.6
				c-0.1-0.4-0.2-0.7-0.1-1.2c0-0.1,0-0.2,0-0.3c0-0.3,0-0.6,0-0.9c0-0.1,0.1-0.2,0.1-0.2c0.3-0.1,0.6-0.3,0.9-0.4
				c0.2,0,0.3-0.1,0.5-0.2c0.5-0.4,1-0.6,1.7-0.6c0.5,0,0.7-0.4,1.2-0.5c0.2-0.3,0.5-0.5,0.7-0.6c0.3-0.2,0.6-0.4,0.8-0.6
				c0.1-0.1,0.2-0.3,0.3-0.5c0-0.4,0-0.7,0-1c0-0.5-0.4-0.7-0.7-0.5c-0.4,0.3-0.7,0.4-1,0.7c-0.1,0.1-0.2,0.1-0.2,0.2
				c-0.3,0.2-0.5,0.3-0.7,0.5c-0.4,0.3-0.7,0.6-1.2,0.7C9.2,53.5,8.6,53.8,8,54c-0.2,0.1-0.3,0.1-0.3-0.2c-0.1-0.4-0.1-0.7,0-1
				c-0.1-0.5-0.1-0.7-0.1-0.9c0-0.1,0-0.2,0-0.2c0.1-0.6,0.2-1,0.3-1.6c0-0.5,0.2-0.8,0.2-1.3c0-0.1,0.1-0.2,0.1-0.2
				c0.1-0.2,0.1-0.3,0.2-0.3c0-0.7,0-1.5-0.1-2.2l-0.1-0.1c0-0.1-0.1-0.2-0.1-0.3c-0.1-0.1-0.2-0.2-0.3-0.4c0-0.1-0.2-0.3-0.3-0.4
				c-0.6-0.4-1.2-0.5-1.9-0.5C5.2,44.7,5,45,4.7,45c-0.2,0.4-0.6,0.6-0.6,1c-0.2,0.6-0.5,1.1-0.5,1.7c0,0.2,0,0.4,0,0.6
				c-0.1,0.8-0.2,1.7-0.4,2.6c0,0.1,0,0.2,0,0.3c0.1,0.6,0.1,1.2-0.1,1.8c0,0.2-0.1,0.4-0.1,0.5c0,0.6,0,1.3,0.1,1.9
				c0,0.2,0.1,0.4,0.1,0.6c0,0.2,0,0.4,0.1,0.6c0,0.1,0,0.2,0,0.3c0.1,0.4,0.1,0.8,0.2,1.2c0,0.1,0.1,0.1,0.1,0.2
				c0.2,0.1,0.3-0.1,0.4-0.3c0.1,0,0.2,0,0.3,0.2c0,0.1,0,0.2,0,0.3C4,58.5,4,58.6,3.8,58.6c-0.2-0.1-0.2,0.1-0.2,0.2
				c0,0.4,0.2,0.7,0.3,1c0.2,0.6,0.5,1.2,0.9,1.7c0.5,0.6,1,0.8,1.7,1.1c0.6,0.2,1.2,0.4,1.7,0.6c0.1,0,0.3,0.1,0.4,0
				c0.2-0.2,0.5,0,0.6,0c0.5,0,0.9-0.1,1.4-0.2c0.3-0.1,0.5-0.2,0.7-0.3c0.4-0.1,0.6-0.2,0.8-0.5c0.1-0.1,0.2-0.2,0.3-0.1
				c0.1,0,0.2,0,0.2-0.1c-0.1-0.3,0.1-0.4,0.3-0.5c0.3-0.2,0.5-0.4,0.5-0.6c0-0.1,0.1-0.2,0.2-0.3c0.4-0.4,0.6-0.8,1-1.1
				c0.2-0.1,0.2-0.3,0.2-0.5c0-0.5,0.1-0.8,0.3-1.2c0.1-0.2,0.1-0.4,0.2-0.6C15.2,57.1,15.1,57,15.1,57z M4.2,50.6
				C4.3,50.5,4.3,50.5,4.2,50.6C4.3,50.5,4.3,50.6,4.2,50.6L4.2,50.6L4.2,50.6z M3.3,54.6L3.3,54.6c0.1-0.1,0.1-0.2,0.2-0.2
				s0.1,0,0.2,0.1l-0.1,0.1C3.5,54.6,3.4,54.6,3.3,54.6z M4.2,57.2c0,0.3-0.1,0.4-0.3,0.6c-0.4-0.1-0.5-0.2-0.3-0.5
				c0.1-0.3,0.2-0.5,0.2-0.7c0-0.1,0.1-0.3,0.1-0.4c-0.3-0.1-0.1-0.4-0.2-0.5c-0.1-0.2-0.2-0.4-0.2-0.6c0-0.1,0-0.1,0-0.2
				c0.1,0,0.1,0,0.2,0.1c0,0,0.1,0,0.2,0c0,0,0-0.1,0-0.2c-0.1-0.1-0.1-0.2-0.1-0.4c0.1,0,0.2-0.1,0.1-0.2c-0.1-0.4-0.3-0.7-0.4-1.2
				c0-0.1,0-0.3,0-0.4c0.2-0.2,0.2-0.5,0.5-0.6c0.1-0.1,0.1-0.2,0-0.2c-0.2-0.1-0.2-0.2,0-0.4c0.1-0.1,0.2-0.2,0.2-0.3
				c0-0.2,0-0.5,0.1-0.6h0.1l0.1,0.1c0.1,0,0.3,0,0.4,0.1c0.1,0.1,0,0.2,0,0.4c-0.1,0.5-0.1,0.9-0.2,1.4c0,0.1,0,0.2,0.1,0.3
				c0,0.2,0.1,0.4,0.1,0.5c0.1,0.3,0,0.5-0.2,0.6c-0.2,0.2-0.3,0.4-0.2,0.7c0.1,0.3,0.1,0.6,0.1,0.9c0,0.1,0.1,0.3,0.1,0.4
				c0,0.1,0.2,0.2,0.2,0.3s-0.2,0.2-0.3,0.3C4.2,56.6,4.1,57,4.2,57.2z M4.7,59.9c-0.1,0-0.2,0-0.2-0.1c0-0.2-0.1-0.2-0.3-0.1
				c0,0-0.1,0-0.1,0.1C4.1,59.7,4,59.7,4,59.7c0,0,0-0.1,0.1-0.2c0.1-0.1,0.2-0.1,0.2-0.1c0.1,0,0.2,0,0.2,0c0.1,0,0.3-0.1,0.4,0.1
				C4.9,59.6,4.9,59.7,4.7,59.9C4.9,59.8,4.8,59.9,4.7,59.9z M5,60.2C5,60.2,4.9,60.2,5,60.2c-0.1-0.2-0.1-0.3,0-0.4
				C5,59.9,5,60,5,60.2C5.1,60.2,5,60.2,5,60.2z M5.3,60.8L5.3,60.8v-0.2V60.8L5.3,60.8z"/>
		</g>
		<path class="st0" d="M15.7,42.4C15.7,42.3,15.7,42.3,15.7,42.4c-0.4-0.3-0.4-0.6-0.5-0.8c-0.1-0.2-0.2-0.2-0.3-0.3
			c-0.4-0.3-0.8-0.4-1.3-0.3c-0.5-0.1-0.8,0.2-1.3,0.3c-0.5,0.2-0.9,0.4-1.3,0.6c-0.2,0.1-0.4,0.2-0.6,0.3c-0.6,0.2-1,0.5-1.6,0.6
			c-0.4,0.2-0.8,0.4-1.3,0.6c-0.3,0.1-0.5,0.2-0.6,0.3c0,0-0.1,0-0.1,0.1c-0.3,0.4-0.7,0.5-1.2,0.6c-0.2,0.1-0.4,0.2-0.5,0.3
			c0.1-0.1,0.2-0.1,0.3-0.2h0.1c0.6,0,1.3,0.2,1.9,0.5c0.2,0.1,0.3,0.3,0.3,0.4c0,0.2,0.1,0.3,0.3,0.4c0,0.1,0.1,0.2,0.1,0.3
			c0,0,0,0.1,0.1,0.1c0,0.2,0,0.4,0,0.6c0.1-0.1,0.2-0.2,0.3-0.1c0.1,0,0.2-0.1,0.2-0.1c0-0.1,0.1-0.2,0.2-0.1c0.1,0,0.3,0,0.4-0.1
			l0.1-0.1c0.3,0.1,0.3-0.6,0.5-0.6c0.2-0.1,0.5,0.3,0.6,0.1c0.1-0.2,0.3-0.2,0.5-0.3c0.2,0,0.4-0.1,0.4-0.3V45
			c0.2,0,0.4-0.2,0.5-0.4h0.1c0.3,0.1,0.5,0,0.6-0.2c0.1-0.1,0.2-0.1,0.3,0c0.1,0.1,0.2,0,0.3,0c0.1,0,0.3-0.1,0.3-0.2
			c0.3-0.3,0.7-0.4,1.1-0.6c0.4-0.1,0.6-0.2,0.9-0.3c0.2,0,0.4-0.1,0.4-0.2C15.8,43.2,15.8,42.6,15.7,42.4z M11.2,42.7
			C11.2,42.8,11.2,42.8,11.2,42.7c-0.1,0.1-0.2,0.1-0.2,0.1l0,0C11.1,42.7,11.1,42.7,11.2,42.7L11.2,42.7L11.2,42.7z"/>
	</g>
	<g>
		<g>
			<path class="st0" d="M76.1,38.9c0,0-0.1,0-0.2,0c-0.5,0.3-0.7,0.6-1.1,0.9c-0.7,0.7-1.5,1.4-2.2,2c-0.5,0.4-0.9,0.6-1.4,1
				c-0.4,0.2-0.7,0.5-1.1,0.6c-0.5,0.2-0.6,0.2-0.8-0.3c-0.1-0.1-0.1-0.2-0.2-0.3c-0.3-0.6-0.6-1.3-0.5-2c0-0.2-0.1-0.5-0.1-0.6
				c-0.1-0.4-0.2-0.7-0.1-1.2c0-0.1,0-0.2,0-0.3c0-0.3,0-0.6,0-0.9c0-0.1,0.1-0.2,0.1-0.2c0.3-0.1,0.6-0.3,0.9-0.4
				c0.2,0,0.3-0.1,0.5-0.2c0.5-0.4,1-0.6,1.7-0.6c0.5,0,0.7-0.4,1.2-0.5c0.2-0.3,0.5-0.5,0.7-0.6c0.3-0.2,0.6-0.4,0.8-0.6
				c0.1-0.1,0.2-0.3,0.3-0.5c0-0.4,0-0.7,0-1c0-0.5-0.4-0.7-0.7-0.5c-0.4,0.3-0.7,0.4-1,0.7c-0.1,0.1-0.2,0.1-0.2,0.2
				c-0.3,0.2-0.5,0.3-0.7,0.5c-0.4,0.3-0.7,0.6-1.2,0.7c-0.6,0.4-1.2,0.6-1.8,0.9c-0.2,0.1-0.3,0.1-0.3-0.2c-0.1-0.4-0.1-0.7,0-1
				c0.1-0.2,0.1-0.4,0.1-0.6c0-0.1,0-0.2,0-0.2c0.1-0.6,0.2-1,0.3-1.6c0-0.5,0.2-0.8,0.2-1.3c0-0.1,0.1-0.2,0.1-0.2
				c0.1-0.2,0.1-0.3,0.2-0.3c0-0.7,0-1.5-0.1-2.2l-0.1-0.1c0-0.1-0.1-0.2-0.1-0.3c-0.1-0.1-0.2-0.2-0.3-0.4c0-0.1-0.2-0.3-0.3-0.4
				c-0.6-0.4-1.2-0.5-1.9-0.5c-0.4,0-0.6,0.3-0.9,0.4c-0.2,0.4-0.6,0.6-0.6,1c-0.2,0.6-0.5,1.1-0.5,1.7c0,0.2,0,0.4,0,0.6
				c-0.1,0.8-0.2,1.7-0.4,2.6c0,0.1,0,0.2,0,0.3c0.1,0.6,0.1,1.2-0.1,1.8c0,0.2-0.1,0.4-0.1,0.5c0,0.6,0,1.3,0.1,1.9
				c0,0.2,0.1,0.4,0.1,0.6c0,0.2,0,0.4,0.1,0.6c0,0.1,0,0.2,0,0.3c0.1,0.4,0.1,0.8,0.2,1.2c0,0.1,0.1,0.1,0.1,0.2
				c0.2,0.1,0.3-0.1,0.4-0.3c0.1,0,0.2,0,0.3,0.2c0,0.1,0,0.2,0,0.3c-0.2,0.1-0.2,0.3-0.4,0.2c-0.4-0.6-0.4-0.4-0.4-0.3
				c0,0.4,0.2,0.7,0.3,1c0.2,0.6,0.5,1.2,0.9,1.7c0.5,0.6,1,0.8,1.7,1.1c0.6,0.2,1.2,0.4,1.7,0.6c0.1,0,0.3,0.1,0.4,0
				c0.2-0.2,0.5,0,0.6,0c0.5,0,0.9-0.1,1.4-0.2c0.3-0.1,0.5-0.2,0.7-0.3c0.4-0.1,0.6-0.2,0.8-0.5c0.1-0.1,0.2-0.2,0.3-0.1
				c0.1,0,0.2,0,0.2-0.1c-0.1-0.3,0.1-0.4,0.3-0.5c0.3-0.2,0.5-0.4,0.5-0.6c0-0.1,0.1-0.2,0.2-0.3c0.4-0.4,0.6-0.8,1-1.1
				c0.2-0.1,0.2-0.3,0.2-0.5c0-0.5,0.1-0.8,0.3-1.2c0.1-0.2,0.1-0.4,0.2-0.6C76.2,39.1,76.2,39,76.1,38.9z M65.2,32.5L65.2,32.5
				C65.2,32.5,65.2,32.5,65.2,32.5C65.2,32.5,65.1,32.5,65.2,32.5C65.1,32.5,65.1,32.5,65.2,32.5z M64.3,36.5L64.3,36.5
				c0.1-0.1,0.1-0.2,0.2-0.2c0.1,0,0.1,0,0.2,0.1l-0.1,0.1C64.5,36.6,64.4,36.6,64.3,36.5z M65.1,39.2c0,0.3-0.1,0.4-0.3,0.6
				c-0.3-0.1-0.5-0.2-0.3-0.5c0.1-0.3,0.2-0.5,0.2-0.7c0-0.1,0.1-0.3,0.1-0.4c-0.3-0.1-0.1-0.4-0.2-0.5c-0.1-0.2-0.2-0.4-0.2-0.6
				c0-0.1,0-0.1,0-0.2c0.1,0,0.1,0,0.2,0.1c0,0,0.1,0,0.2,0c0,0,0-0.1,0-0.2c-0.1-0.1-0.1-0.2-0.1-0.4c0.1,0,0.2-0.1,0.1-0.2
				c-0.1-0.4-0.3-0.7-0.4-1.2c0-0.1,0-0.3,0-0.4c0.2-0.2,0.2-0.5,0.5-0.6c0.1-0.1,0.1-0.2,0-0.2c-0.2-0.1-0.2-0.2,0-0.4
				c0.1-0.1,0.2-0.2,0.2-0.3c0-0.2,0-0.5,0.1-0.6h0.1l0.1,0.1c0.1,0,0.3,0,0.4,0.1c0.1,0.1,0,0.2,0,0.4c-0.1,0.5-0.1,0.9-0.2,1.4
				c0,0.1,0,0.2,0.1,0.3c0,0.2,0.1,0.4,0.1,0.5c0.1,0.3,0,0.5-0.2,0.6s-0.3,0.4-0.2,0.7c0.1,0.3,0.1,0.6,0.1,0.9
				c0,0.1,0.1,0.3,0.1,0.4c0,0.1,0.2,0.2,0.2,0.3c0,0.1-0.2,0.2-0.3,0.3C65.1,38.6,65.1,38.9,65.1,39.2z M65.7,41.9
				c-0.1,0-0.2,0-0.2-0.1c0-0.2-0.1-0.2-0.3-0.1c0,0-0.1,0-0.1,0.1c-0.1-0.1-0.2-0.1-0.2-0.2c0,0,0-0.1,0.1-0.2
				c0.1-0.1,0.2-0.1,0.2-0.1c0.1,0,0.2,0,0.2,0c0.1,0,0.3-0.1,0.4,0.1C65.9,41.6,65.9,41.7,65.7,41.9C65.9,41.8,65.8,41.9,65.7,41.9
				z M66,42.2C66,42.2,65.9,42.2,66,42.2c-0.1-0.2-0.1-0.3,0-0.4C66,41.9,66,42,66,42.2C66,42.2,66,42.2,66,42.2z M66.2,42.8
				L66.2,42.8v-0.2V42.8L66.2,42.8z"/>
		</g>
		<path class="st0" d="M76.7,24.4C76.7,24.3,76.7,24.3,76.7,24.4c-0.4-0.3-0.4-0.6-0.5-0.8c-0.1-0.2-0.2-0.2-0.3-0.3
			c-0.4-0.3-0.8-0.4-1.4-0.3c-0.5-0.1-0.8,0.2-1.3,0.3c-0.5,0.2-0.9,0.4-1.3,0.6c-0.2,0.1-0.4,0.2-0.6,0.3c-0.6,0.2-1,0.5-1.6,0.6
			c-0.4,0.2-0.8,0.4-1.3,0.6c-0.3,0.1-0.5,0.2-0.6,0.3c0,0-0.1,0-0.1,0.1c-0.3,0.4-0.7,0.5-1.2,0.6c-0.2,0.1-0.4,0.2-0.5,0.3
			c0.1-0.1,0.2-0.1,0.3-0.2h0.1c0.6,0,1.3,0.2,1.9,0.5c0.2,0.1,0.3,0.3,0.3,0.4c0,0.2,0.1,0.3,0.3,0.4c0,0.1,0.1,0.2,0.1,0.3
			c0,0,0,0.1,0.1,0.1c0,0.2,0,0.4,0,0.6c0.1-0.1,0.2-0.2,0.3-0.1c0.1,0,0.2-0.1,0.2-0.1c0-0.1,0.1-0.2,0.2-0.1c0.1,0,0.3,0,0.4-0.1
			l0.1-0.1c0.3,0.1,0.3-0.6,0.5-0.6c0.2-0.1,0.5,0.3,0.6,0.1c0.1-0.2,0.3-0.2,0.5-0.3c0.2,0,0.4-0.1,0.4-0.3V27
			c0.2,0,0.4-0.2,0.5-0.4h0.1c0.3,0.1,0.5,0,0.6-0.2c0.1-0.1,0.2-0.1,0.3,0c0.1,0.1,0.2,0,0.3,0s0.3-0.1,0.3-0.2
			c0.3-0.3,0.7-0.4,1.1-0.6c0.4-0.1,0.6-0.2,0.9-0.3c0.2,0,0.4-0.1,0.4-0.2C76.7,25.2,76.7,24.5,76.7,24.4z M72.2,24.7
			C72.1,24.7,72.1,24.8,72.2,24.7C72,24.8,72,24.8,72,24.8l0,0C72,24.7,72.1,24.7,72.2,24.7L72.2,24.7L72.2,24.7z"/>
	</g>
	<g>
		<g>
			<path class="st0" d="M63.9,31.7c-0.1-0.1-0.1-0.2-0.1-0.4c0.1-0.2,0.1-0.3,0.1-0.5c0-0.1,0-0.2-0.1-0.4c0,0-0.1-0.1-0.1-0.2
				c0-0.2-0.1-0.4,0-0.6c0-0.1,0-0.2-0.2-0.3c-0.1,0-0.1,0-0.1-0.1c-0.1,0-0.2-0.1-0.1-0.2c0-0.3-0.1-0.4-0.2-0.6
				c-0.1-0.1-0.3-0.2-0.5-0.4c-0.1,0-0.1-0.1-0.2-0.1c-0.1,0.1-0.2,0-0.3-0.2c0,0-0.1-0.1-0.2-0.1c-0.1-0.1-0.2-0.1-0.4,0
				c-0.1,0-0.2,0-0.2-0.1c0-0.2-0.2-0.3-0.4-0.3c-0.1-0.1-0.3,0-0.5-0.1c-0.1,0-0.3,0-0.4-0.1c-0.2-0.1-0.5-0.2-0.6-0.2
				s-0.5,0-0.7-0.1c-0.1,0-0.3,0-0.4-0.1c-0.1-0.1-0.2-0.1-0.3,0c-0.2,0-0.4,0-0.6,0c-0.3,0-0.6-0.1-0.8,0c-0.4,0-0.8,0.1-1.2,0.1
				c-0.2,0-0.4,0-0.5,0.1s-0.1,0.1-0.2,0.1c-0.1,0-0.3,0-0.4,0.1c-0.1,0.2-0.4,0.2-0.6,0.2c-0.2,0-0.3,0.1-0.4,0.1
				c-0.3,0.2-0.6,0.2-0.8,0.4h-0.1c-0.2,0-0.3,0-0.4,0.1c-0.2,0.1-0.4,0.1-0.6,0.3h-0.1c-0.2,0-0.4,0-0.6,0.2c0,0-0.1,0-0.2,0.1
				c-0.2,0-0.4,0.1-0.6,0.2c-0.3,0.1-0.6,0.3-0.6,0.6c0,0.1,0,0.2,0,0.3c0.1,0.1,0.1,0.2,0.2,0.3c0.1,0.3,0.3,0.3,0.6,0.2
				c0.1-0.1,0.2-0.1,0.3-0.1c0.1,0,0.2,0,0.2,0c0.2,0,0.3,0,0.5,0c0.3-0.1,0.6,0.1,0.8,0c0.1,0,0.1,0.1,0.2,0.2c0,0.1,0,0.1,0,0.2
				c0,0.2-0.1,0.4-0.1,0.6c0,0.6,0,1.2,0,1.8c0,0.1,0,0.1,0,0.1c-0.1,0.2-0.1,0.4,0,0.6c0,0.2,0,0.3,0,0.5c0,0.3,0,0.6,0,0.8
				c0,0.4,0,0.7,0.1,1.1c0,0.1,0,0.2,0,0.3c0,0.1,0,0.2,0,0.3c0,0.2,0,0.4,0.1,0.6c0,0.1,0,0.2,0,0.2c0,0.1,0,0.2,0,0.4
				c0,0.2,0,0.4,0,0.6v0.1c0.1,0.2,0,0.4,0,0.6c-0.1,0.1,0,0.2,0,0.4c0,0.3,0,0.6,0,0.7c0,0.3,0,0.5,0.1,0.7c0,0.1,0.1,0.2,0.2,0.2
				c0,0,0,0,0.1,0c0,0.1,0,0.2,0,0.3l0,0L53,41h-0.1c0,0,0,0-0.1,0.1c0,0.3,0,0.6,0,0.9c0,0.1,0.1,0.1,0.1,0.1
				c0.2,0.1,0.2,0.3,0.3,0.5c0.1,0.2,0,0.3-0.1,0.4c-0.2,0.1-0.2,0.2-0.2,0.4c0,0.3,0,0.5,0,0.6c0,0.1,0,0.1,0,0.2v0.1
				c0.1,0.1,0.3,0.1,0.4,0l0,0c0,0.3,0,0.5-0.1,0.7c0,0.1,0,0.1-0.1,0.1c-0.2,0.1-0.1,0.2-0.1,0.3c0.1,0.2,0.1,0,0.2,0h0.1
				c0,0.2,0.2,0.3,0.1,0.5c0,0.1,0,0.1,0,0.2c0.1,0.1,0.1,0.2,0.1,0.4c0,0.1,0,0.3,0,0.4c0.1,0.2,0,0.4,0,0.5l0,0l0,0l0,0
				c0,0,0,0-0.1,0c0-0.1,0-0.1-0.1-0.2c0-0.2-0.1-0.5-0.1-0.6c0-0.1,0-0.1-0.1-0.2c0,0,0,0-0.1,0h-0.1v0.1c0,0.6,0.1,1.2,0.2,1.7
				c0,0.3,0.1,0.6,0.1,0.8c0,0.1,0,0.2,0.1,0.2c0.1,0.1,0.1,0.2,0.1,0.3s0,0.3,0,0.4c0.1,0.4,0.2,0.7,0.3,1.1c0,0.4,0.1,0.7,0.2,1
				c0,0.2,0.1,0.5,0.2,0.6c0.1,0.2,0.2,0.3,0.4,0.3c0.4,0.1,0.6,0.1,0.9-0.2c0.1,0,0.1-0.1,0.1-0.1c0-0.2,0.1-0.4,0.1-0.6
				c0-0.1,0-0.1-0.1-0.2l-0.1-0.1c-0.1-0.1-0.1-0.2,0.1-0.3h0.1c0.1,0.1,0.2,0.2,0.2,0.3c0.1,0.1,0.1,0.2,0.2,0.3
				c0.1,0.1,0.2,0.1,0.3,0c0.1-0.2,0.1-0.3,0.2-0.5c0-0.2,0-0.4,0.1-0.5s0.1-0.2,0-0.3c0-0.1,0-0.3-0.1-0.4c0-0.1,0-0.3-0.1-0.4
				c0,0-0.1-0.1,0-0.2c0-0.2,0-0.4,0-0.6c0-0.2,0-0.5-0.1-0.6c-0.1-0.3-0.1-0.6,0-0.8c0-0.1,0-0.2,0-0.3C56,47,56,46.7,56,46.4
				c0-0.1,0-0.3-0.1-0.4v-1.7c0-0.1,0-0.2,0-0.2c0.1-0.1,0.1-0.2,0-0.2c-0.1-0.2-0.1-0.3-0.1-0.5c0-0.1,0-0.3,0-0.5
				c0-0.1,0-0.1,0-0.2c0.1,0,0.2-0.1,0.3-0.2c0.1,0,0.1-0.1,0.1-0.2c0-0.1,0.1-0.2,0.1-0.2c0.2-0.1,0.3-0.3,0.6-0.4
				c0.1,0,0.1-0.1,0.1-0.1l0.7-0.6c0.3-0.3,0.6-0.5,0.8-0.6c0.1,0,0.1-0.1,0.1-0.2c0-0.1,0.1-0.2,0.2-0.2c0.2-0.1,0.1-0.3-0.1-0.4
				c0,0,0-0.1,0.1-0.1c0.2-0.1,0.4-0.2,0.5-0.2s0.2-0.1,0.3-0.2c0.1-0.1,0.2-0.2,0.4-0.3c0.1-0.1,0.2-0.2,0.2-0.3
				c0-0.1,0-0.2,0.1-0.3c0-0.2,0.2-0.4,0.3-0.4c0.3-0.1,0.4-0.3,0.5-0.5s0.1-0.3,0.3-0.4c0.1,0,0.2-0.1,0.2-0.2
				c0-0.2,0.1-0.3,0.2-0.3c0.1-0.1,0.2-0.1,0.2-0.3c0-0.1,0-0.2-0.1-0.1c-0.1,0-0.1-0.1-0.1-0.1c0-0.1,0.1-0.1,0.1-0.2
				c0.2,0,0.3-0.1,0.4-0.3c0-0.1,0.1-0.1,0.1-0.1c0.1,0,0.1-0.1,0.2-0.2c0.1-0.2,0.1-0.3,0.3-0.4c0.1,0,0.1-0.2,0.1-0.3
				c0-0.1,0.1-0.3,0.2-0.4c0.1-0.2,0-0.3,0.1-0.5c0,0,0,0,0-0.1c0-0.1,0.1-0.2,0.2-0.2c0.1,0,0.2-0.1,0.2-0.2c0-0.1,0-0.1,0.1-0.1
				c0.1-0.1,0.2-0.2,0.2-0.3c0.1-0.1,0-0.3,0.1-0.4c0.1-0.1,0.2-0.2,0.2-0.3l0,0c0.1-0.2,0.1-0.4,0.2-0.6
				C64,31.9,64.1,31.9,63.9,31.7z M53.2,37C53.1,37,53,37,53,37c-0.1-0.1-0.1-0.2,0-0.3c0.1-0.1,0.1-0.1,0.2-0.2
				c0-0.1,0.1-0.1,0.2-0.1c0,0,0,0,0.1,0c0.1,0.1,0.1,0.2,0.1,0.3c0,0.1,0,0.3,0,0.4C53.4,37,53.3,37,53.2,37z M52.8,33.4
				C52.8,33.3,52.8,33.3,52.8,33.4C52.8,33.3,52.8,33.4,52.8,33.4z M54.8,48.1L54.8,48.1C54.7,48.1,54.7,48.1,54.8,48.1
				C54.7,48.1,54.8,48.1,54.8,48.1C54.8,48,54.8,48.1,54.8,48.1z M52.8,32.5C52.8,32.5,52.9,32.5,52.8,32.5H53c0,0.1,0,0.2,0,0.3
				l-0.1,0.1c0,0-0.1,0-0.1-0.1C52.7,32.7,52.7,32.6,52.8,32.5z M52.8,39.6L52.8,39.6L52.8,39.6L52.8,39.6L52.8,39.6z M53.5,47.8
				L53.5,47.8L53.5,47.8L53.5,47.8L53.5,47.8z M54.5,45.6C54.5,45.6,54.4,45.5,54.5,45.6c0-0.2,0.1-0.2,0.2-0.2c0,0,0.1,0,0.1,0.1
				C54.6,45.5,54.6,45.6,54.5,45.6z M54.9,48.5c-0.1,0-0.1,0-0.2-0.1l0.1-0.1C54.9,48.4,54.9,48.4,54.9,48.5
				C54.9,48.4,54.9,48.5,54.9,48.5z M55.2,49.6c0-0.2,0-0.3,0.1-0.4h0.1c0,0,0.1,0,0.1,0.1C55.5,49.5,55.5,49.5,55.2,49.6z
				 M55.7,40.7C55.7,40.8,55.6,40.8,55.7,40.7C55.6,40.8,55.6,40.8,55.7,40.7C55.6,40.8,55.6,40.8,55.7,40.7c-0.1-0.1,0-0.2,0-0.2
				c0.2-0.1,0.3-0.4,0.6-0.4l0.1-0.1c0.1-0.1,0.2-0.2,0.3-0.2h0.1c0,0,0,0,0,0.1c-0.1,0.1-0.1,0.2-0.2,0.3
				C56.1,40.4,55.9,40.5,55.7,40.7z M56.6,41.7L56.6,41.7c-0.1,0.1-0.1,0.1-0.2,0.1l0,0C56.5,41.6,56.5,41.6,56.6,41.7
				C56.6,41.6,56.7,41.6,56.6,41.7C56.7,41.6,56.7,41.7,56.6,41.7z M56.9,40.7L56.9,40.7C56.9,40.7,56.9,40.6,56.9,40.7
				C56.9,40.6,56.9,40.6,56.9,40.7L56.9,40.7z M56.9,39.5L56.9,39.5C56.9,39.4,56.9,39.4,56.9,39.5L56.9,39.5
				c0.2-0.2,0.3-0.3,0.3-0.5c0.1-0.1,0.1-0.2,0.3-0.2h0.1V39C57.3,39.2,57.1,39.3,56.9,39.5z M57.3,41.2L57.3,41.2
				C57.3,41.1,57.3,41.1,57.3,41.2L57.3,41.2L57.3,41.2z M57.8,40.2L57.8,40.2c-0.2,0.1-0.2,0.1-0.2,0H57.8
				C57.7,40.1,57.7,40.1,57.8,40.2C57.8,40.1,57.8,40.1,57.8,40.2C57.7,40,57.8,40.1,57.8,40.2C57.8,40.1,57.8,40.1,57.8,40.2z
				 M58,40L58,40L58,40L58,40z M59,37c0,0.1,0,0.2,0,0.2c-0.2,0.3-0.4,0.5-0.6,0.7c-0.1,0.1-0.1,0.2-0.2,0.2
				c-0.1,0.1-0.2,0.2-0.3,0.3c0,0.1-0.1,0.1-0.2,0.1c-0.1,0-0.1,0-0.1,0v-0.1c0.1-0.1,0.1-0.2,0.2-0.2c0.2-0.1,0.3-0.2,0.3-0.5v-0.1
				c0.2-0.1,0.3-0.3,0.5-0.5c0,0,0-0.1,0.1-0.1C58.9,37.3,58.9,37.1,59,37L59,37C59,37,59.1,37,59,37z M59.4,36.6
				C59.4,36.6,59.3,36.6,59.4,36.6C59.3,36.6,59.3,36.5,59.4,36.6c-0.1-0.2,0-0.3,0-0.4c0,0,0,0,0-0.1l0.1,0.1
				C59.5,36.4,59.5,36.5,59.4,36.6z M60.3,33.8c0,0.1-0.1,0.1-0.1,0.2c-0.2,0.4-0.4,0.7-0.6,1.2c0,0.1-0.1,0.2-0.1,0.2
				c-0.2,0.3-0.5,0.5-0.6,0.8c0,0,0,0.1-0.1,0.1c0,0-0.1,0-0.1,0.1c-0.2,0.3-0.4,0.5-0.6,0.7l-0.1,0.1c0.1,0.3-0.1,0.5-0.3,0.6
				c-0.3,0.4-0.6,0.7-0.9,1.1c-0.4,0.4-0.6,0.7-1.1,1.1l-0.1,0.1h-0.1l0,0c0-0.1,0-0.1,0.1-0.1c0.1-0.2,0.1-0.5,0-0.6
				c0-0.1,0-0.2,0-0.3c0-0.2,0-0.3,0-0.5c0-0.2,0-0.4,0-0.5c0-0.1,0-0.2,0-0.2c0-0.2-0.1-0.3-0.1-0.5v-0.1v-0.1
				c0.1-0.4,0.1-0.7,0-1.1c0-0.2-0.1-0.4-0.1-0.6c0-0.1,0-0.1,0-0.1c-0.2-0.3-0.2-0.4-0.2-0.4v-0.1c0-0.1,0-0.1,0.1-0.2
				c0-0.2,0.1-0.4,0.1-0.6c0-0.3,0-0.6,0-0.8c0-0.1,0-0.2,0-0.3c0-0.1,0-0.1,0-0.1c0.1-0.1,0.1-0.2,0.1-0.3c0-0.4,0.1-0.7,0.3-1.1
				c0.1-0.3,0.1-0.6-0.2-0.9c-0.1-0.2-0.2-0.4-0.1-0.6c0.1-0.4-0.1-0.7-0.4-1c0-0.1-0.1-0.1-0.2-0.2s-0.1-0.1,0-0.2
				c0.2-0.1,0.5-0.2,0.6-0.3c0.3-0.1,0.6-0.1,0.8-0.2c0.2,0,0.3-0.1,0.5-0.1c0.4,0,0.8-0.1,1.2-0.1c0.5,0,0.8,0,1.2,0.2
				c0.1,0.1,0.2,0.1,0.3,0.1c0.1,0,0.2,0.1,0.3,0.2c0.3,0.2,0.6,0.3,0.7,0.5c0.2,0.2,0.3,0.4,0.4,0.6c0,0.2,0.1,0.3,0.1,0.4
				c0.1,0.3,0.1,0.6,0,0.8c0,0.1,0,0.1,0,0.2c-0.1,0.5-0.2,1-0.4,1.5C60.6,33.1,60.3,33.5,60.3,33.8z M61.7,33.6L61.7,33.6
				L61.7,33.6C61.6,33.6,61.7,33.6,61.7,33.6C61.7,33.6,61.7,33.6,61.7,33.6z M61.8,32.8c0,0.1,0,0.1,0,0.2c0,0.1-0.1,0.3-0.2,0.3
				h-0.1c-0.1,0.3-0.4,0.5-0.5,0.7v0.1c0.1,0,0.1,0,0.1,0c0.1,0,0.1-0.1,0.1-0.1c0.1,0,0.1-0.1,0.2-0.1c0,0.1-0.1,0.1-0.1,0.2
				c-0.1,0.3-0.2,0.5-0.2,0.7c0,0.2,0,0.3-0.2,0.4c-0.1,0-0.1,0.2-0.1,0.2c0,0.1,0,0.1-0.1,0.1s-0.1,0-0.2,0
				c-0.1-0.1-0.1-0.2-0.2-0.3c-0.1-0.1-0.2-0.3-0.1-0.4c0.1-0.1,0.2-0.3,0.2-0.5c0-0.1,0-0.2,0.1-0.3c0.1-0.4,0.2-0.7,0.4-1.1
				c0.1-0.3,0.1-0.6,0.2-0.8c0.1-0.1,0.1-0.2,0.1-0.3c0.1-0.1,0.1-0.2,0.1-0.3c0-0.2,0-0.3,0-0.5c0,0,0-0.1,0.1-0.1
				c0,0,0.1,0,0.1-0.1l0.1,0.1c0,0.2,0,0.3,0,0.4s0,0.2,0,0.2c0.1,0.1,0.1,0.1,0,0.2c-0.1,0,0,0.1,0,0.1
				C61.9,32.5,61.9,32.6,61.8,32.8z"/>
			<path class="st0" d="M53.2,46.1C53.2,46.1,53.3,46.1,53.2,46.1c0.1-0.1,0.1-0.3,0-0.4h-0.1C53.2,45.9,53.2,46,53.2,46.1
				C53.2,46.1,53.2,46.1,53.2,46.1z"/>
			<path class="st0" d="M53.4,47L53.4,47C53.4,47,53.4,46.9,53.4,47C53.4,46.9,53.3,46.9,53.4,47L53.4,47C53.3,47,53.3,47,53.4,47
				L53.4,47z"/>
		</g>
		<g>
			<path class="st0" d="M63.9,31.7c-0.1-0.1-0.1-0.2-0.1-0.4c0.1-0.2,0.1-0.3,0.1-0.5c0-0.1,0-0.2-0.1-0.4c0,0-0.1-0.1-0.1-0.2
				c0-0.2-0.1-0.4,0-0.6c0-0.1,0-0.2-0.2-0.3c-0.1,0-0.1,0-0.1-0.1c-0.1,0-0.2-0.1-0.1-0.2c0-0.3-0.1-0.4-0.2-0.6
				c-0.1-0.1-0.3-0.2-0.5-0.4c-0.1,0-0.1-0.1-0.2-0.1c-0.1,0.1-0.2,0-0.3-0.2c0,0-0.1-0.1-0.2-0.1c-0.1-0.1-0.2-0.1-0.4,0
				c-0.1,0-0.2,0-0.2-0.1c0-0.2-0.2-0.3-0.4-0.3c-0.1-0.1-0.3,0-0.5-0.1c-0.1,0-0.3,0-0.4-0.1c-0.2-0.1-0.5-0.2-0.6-0.2
				s-0.5,0-0.7-0.1c-0.1,0-0.3,0-0.4-0.1c-0.1-0.1-0.2-0.1-0.3,0c-0.2,0-0.4,0-0.6,0c-0.3,0-0.6-0.1-0.8,0c-0.4,0-0.8,0.1-1.2,0.1
				c-0.2,0-0.4,0-0.5,0.1s-0.1,0.1-0.2,0.1c-0.1,0-0.3,0-0.4,0.1c-0.1,0.2-0.4,0.2-0.6,0.2c-0.2,0-0.3,0.1-0.4,0.1
				c-0.3,0.2-0.6,0.2-0.8,0.4h-0.1c-0.2,0-0.3,0-0.4,0.1c-0.2,0.1-0.4,0.1-0.6,0.3h-0.1c-0.2,0-0.4,0-0.6,0.2c0,0-0.1,0-0.2,0.1
				c-0.2,0-0.4,0.1-0.6,0.2c-0.3,0.1-0.6,0.3-0.6,0.6c0,0.1,0,0.2,0,0.3c0.1,0.1,0.1,0.2,0.2,0.3c0.1,0.3,0.3,0.3,0.6,0.2
				c0.1-0.1,0.2-0.1,0.3-0.1c0.1,0,0.2,0,0.2,0c0.2,0,0.3,0,0.5,0c0.3-0.1,0.6,0.1,0.8,0c0.1,0,0.1,0.1,0.2,0.2c0,0.1,0,0.1,0,0.2
				c0,0.2-0.1,0.4-0.1,0.6c0,0.6,0,1.2,0,1.8c0,0.1,0,0.1,0,0.1c-0.1,0.2-0.1,0.4,0,0.6c0,0.2,0,0.3,0,0.5c0,0.3,0,0.6,0,0.8
				c0,0.4,0,0.7,0.1,1.1c0,0.1,0,0.2,0,0.3c0,0.1,0,0.2,0,0.3c0,0.2,0,0.4,0.1,0.6c0,0.1,0,0.2,0,0.2c0,0.1,0,0.2,0,0.4
				c0,0.2,0,0.4,0,0.6v0.1c0.1,0.2,0,0.4,0,0.6c-0.1,0.1,0,0.2,0,0.4c0,0.3,0,0.6,0,0.7c0,0.3,0,0.5,0.1,0.7c0,0.1,0.1,0.2,0.2,0.2
				c0,0,0,0,0.1,0c0,0.1,0,0.2,0,0.3l0,0L53,41h-0.1c0,0,0,0-0.1,0.1c0,0.3,0,0.6,0,0.9c0,0.1,0.1,0.1,0.1,0.1
				c0.2,0.1,0.2,0.3,0.3,0.5c0.1,0.2,0,0.3-0.1,0.4c-0.2,0.1-0.2,0.2-0.2,0.4c0,0.3,0,0.5,0,0.6c0,0.1,0,0.1,0,0.2v0.1
				c0.1,0.1,0.3,0.1,0.4,0l0,0c0,0.3,0,0.5-0.1,0.7c0,0.1,0,0.1-0.1,0.1c-0.2,0.1-0.1,0.2-0.1,0.3c0.1,0.2,0.1,0,0.2,0h0.1
				c0,0.2,0.2,0.3,0.1,0.5c0,0.1,0,0.1,0,0.2c0.1,0.1,0.1,0.2,0.1,0.4c0,0.1,0,0.3,0,0.4c0.1,0.2,0,0.4,0,0.5l0,0l0,0l0,0
				c0,0,0,0-0.1,0c0-0.1,0-0.1-0.1-0.2c0-0.2-0.1-0.5-0.1-0.6c0-0.1,0-0.1-0.1-0.2c0,0,0,0-0.1,0h-0.1v0.1c0,0.6,0.1,1.2,0.2,1.7
				c0,0.3,0.1,0.6,0.1,0.8c0,0.1,0,0.2,0.1,0.2c0.1,0.1,0.1,0.2,0.1,0.3s0,0.3,0,0.4c0.1,0.4,0.2,0.7,0.3,1.1c0,0.4,0.1,0.7,0.2,1
				c0,0.2,0.1,0.5,0.2,0.6c0.1,0.2,0.2,0.3,0.4,0.3c0.4,0.1,0.6,0.1,0.9-0.2c0.1,0,0.1-0.1,0.1-0.1c0-0.2,0.1-0.4,0.1-0.6
				c0-0.1,0-0.1-0.1-0.2l-0.1-0.1c-0.1-0.1-0.1-0.2,0.1-0.3h0.1c0.1,0.1,0.2,0.2,0.2,0.3c0.1,0.1,0.1,0.2,0.2,0.3
				c0.1,0.1,0.2,0.1,0.3,0c0.1-0.2,0.1-0.3,0.2-0.5c0-0.2,0-0.4,0.1-0.5s0.1-0.2,0-0.3c0-0.1,0-0.3-0.1-0.4c0-0.1,0-0.3-0.1-0.4
				c0,0-0.1-0.1,0-0.2c0-0.2,0-0.4,0-0.6c0-0.2,0-0.5-0.1-0.6c-0.1-0.3-0.1-0.6,0-0.8c0-0.1,0-0.2,0-0.3C56,47,56,46.7,56,46.4
				c0-0.1,0-0.3-0.1-0.4v-1.7c0-0.1,0-0.2,0-0.2c0.1-0.1,0.1-0.2,0-0.2c-0.1-0.2-0.1-0.3-0.1-0.5c0-0.1,0-0.3,0-0.5
				c0-0.1,0-0.1,0-0.2c0.1,0,0.2-0.1,0.3-0.2c0.1,0,0.1-0.1,0.1-0.2c0-0.1,0.1-0.2,0.1-0.2c0.2-0.1,0.3-0.3,0.6-0.4
				c0.1,0,0.1-0.1,0.1-0.1l0.7-0.6c0.3-0.3,0.6-0.5,0.8-0.6c0.1,0,0.1-0.1,0.1-0.2c0-0.1,0.1-0.2,0.2-0.2c0.2-0.1,0.1-0.3-0.1-0.4
				c0,0,0-0.1,0.1-0.1c0.2-0.1,0.4-0.2,0.5-0.2s0.2-0.1,0.3-0.2c0.1-0.1,0.2-0.2,0.4-0.3c0.1-0.1,0.2-0.2,0.2-0.3
				c0-0.1,0-0.2,0.1-0.3c0-0.2,0.2-0.4,0.3-0.4c0.3-0.1,0.4-0.3,0.5-0.5s0.1-0.3,0.3-0.4c0.1,0,0.2-0.1,0.2-0.2
				c0-0.2,0.1-0.3,0.2-0.3c0.1-0.1,0.2-0.1,0.2-0.3c0-0.1,0-0.2-0.1-0.1c-0.1,0-0.1-0.1-0.1-0.1c0-0.1,0.1-0.1,0.1-0.2
				c0.2,0,0.3-0.1,0.4-0.3c0-0.1,0.1-0.1,0.1-0.1c0.1,0,0.1-0.1,0.2-0.2c0.1-0.2,0.1-0.3,0.3-0.4c0.1,0,0.1-0.2,0.1-0.3
				c0-0.1,0.1-0.3,0.2-0.4c0.1-0.2,0-0.3,0.1-0.5c0,0,0,0,0-0.1c0-0.1,0.1-0.2,0.2-0.2c0.1,0,0.2-0.1,0.2-0.2c0-0.1,0-0.1,0.1-0.1
				c0.1-0.1,0.2-0.2,0.2-0.3c0.1-0.1,0-0.3,0.1-0.4c0.1-0.1,0.2-0.2,0.2-0.3l0,0c0.1-0.2,0.1-0.4,0.2-0.6
				C64,31.9,64.1,31.9,63.9,31.7z M53.2,37C53.1,37,53,37,53,37c-0.1-0.1-0.1-0.2,0-0.3c0.1-0.1,0.1-0.1,0.2-0.2
				c0-0.1,0.1-0.1,0.2-0.1c0,0,0,0,0.1,0c0.1,0.1,0.1,0.2,0.1,0.3c0,0.1,0,0.3,0,0.4C53.4,37,53.3,37,53.2,37z M52.8,33.4
				C52.8,33.3,52.8,33.3,52.8,33.4C52.8,33.3,52.8,33.4,52.8,33.4z M54.8,48.1L54.8,48.1C54.7,48.1,54.7,48.1,54.8,48.1
				C54.7,48.1,54.8,48.1,54.8,48.1C54.8,48,54.8,48.1,54.8,48.1z M52.8,32.5C52.8,32.5,52.9,32.5,52.8,32.5H53c0,0.1,0,0.2,0,0.3
				l-0.1,0.1c0,0-0.1,0-0.1-0.1C52.7,32.7,52.7,32.6,52.8,32.5z M52.8,39.6L52.8,39.6L52.8,39.6L52.8,39.6L52.8,39.6z M53.5,47.8
				L53.5,47.8L53.5,47.8L53.5,47.8L53.5,47.8z M54.5,45.6C54.5,45.6,54.4,45.5,54.5,45.6c0-0.2,0.1-0.2,0.2-0.2c0,0,0.1,0,0.1,0.1
				C54.6,45.5,54.6,45.6,54.5,45.6z M54.9,48.5c-0.1,0-0.1,0-0.2-0.1l0.1-0.1C54.9,48.4,54.9,48.4,54.9,48.5
				C54.9,48.4,54.9,48.5,54.9,48.5z M55.2,49.6c0-0.2,0-0.3,0.1-0.4h0.1c0,0,0.1,0,0.1,0.1C55.5,49.5,55.5,49.5,55.2,49.6z
				 M55.7,40.7C55.7,40.8,55.6,40.8,55.7,40.7C55.6,40.8,55.6,40.8,55.7,40.7C55.6,40.8,55.6,40.8,55.7,40.7c-0.1-0.1,0-0.2,0-0.2
				c0.2-0.1,0.3-0.4,0.6-0.4l0.1-0.1c0.1-0.1,0.2-0.2,0.3-0.2h0.1c0,0,0,0,0,0.1c-0.1,0.1-0.1,0.2-0.2,0.3
				C56.1,40.4,55.9,40.5,55.7,40.7z M56.6,41.7L56.6,41.7c-0.1,0.1-0.1,0.1-0.2,0.1l0,0C56.5,41.6,56.5,41.6,56.6,41.7
				C56.6,41.6,56.7,41.6,56.6,41.7C56.7,41.6,56.7,41.7,56.6,41.7z M56.9,40.7L56.9,40.7C56.9,40.7,56.9,40.6,56.9,40.7
				C56.9,40.6,56.9,40.6,56.9,40.7L56.9,40.7z M56.9,39.5L56.9,39.5C56.9,39.4,56.9,39.4,56.9,39.5L56.9,39.5
				c0.2-0.2,0.3-0.3,0.3-0.5c0.1-0.1,0.1-0.2,0.3-0.2h0.1V39C57.3,39.2,57.1,39.3,56.9,39.5z M57.3,41.2L57.3,41.2
				C57.3,41.1,57.3,41.1,57.3,41.2L57.3,41.2L57.3,41.2z M57.8,40.2L57.8,40.2c-0.2,0.1-0.2,0.1-0.2,0H57.8
				C57.7,40.1,57.7,40.1,57.8,40.2C57.8,40.1,57.8,40.1,57.8,40.2C57.7,40,57.8,40.1,57.8,40.2C57.8,40.1,57.8,40.1,57.8,40.2z
				 M58,40L58,40L58,40L58,40z M59,37c0,0.1,0,0.2,0,0.2c-0.2,0.3-0.4,0.5-0.6,0.7c-0.1,0.1-0.1,0.2-0.2,0.2
				c-0.1,0.1-0.2,0.2-0.3,0.3c0,0.1-0.1,0.1-0.2,0.1c-0.1,0-0.1,0-0.1,0v-0.1c0.1-0.1,0.1-0.2,0.2-0.2c0.2-0.1,0.3-0.2,0.3-0.5v-0.1
				c0.2-0.1,0.3-0.3,0.5-0.5c0,0,0-0.1,0.1-0.1C58.9,37.3,58.9,37.1,59,37L59,37C59,37,59.1,37,59,37z M59.4,36.6
				C59.4,36.6,59.3,36.6,59.4,36.6C59.3,36.6,59.3,36.5,59.4,36.6c-0.1-0.2,0-0.3,0-0.4c0,0,0,0,0-0.1l0.1,0.1
				C59.5,36.4,59.5,36.5,59.4,36.6z M60.3,33.8c0,0.1-0.1,0.1-0.1,0.2c-0.2,0.4-0.4,0.7-0.6,1.2c0,0.1-0.1,0.2-0.1,0.2
				c-0.2,0.3-0.5,0.5-0.6,0.8c0,0,0,0.1-0.1,0.1c0,0-0.1,0-0.1,0.1c-0.2,0.3-0.4,0.5-0.6,0.7l-0.1,0.1c0.1,0.3-0.1,0.5-0.3,0.6
				c-0.3,0.4-0.6,0.7-0.9,1.1c-0.4,0.4-0.6,0.7-1.1,1.1l-0.1,0.1h-0.1l0,0c0-0.1,0-0.1,0.1-0.1c0.1-0.2,0.1-0.5,0-0.6
				c0-0.1,0-0.2,0-0.3c0-0.2,0-0.3,0-0.5c0-0.2,0-0.4,0-0.5c0-0.1,0-0.2,0-0.2c0-0.2-0.1-0.3-0.1-0.5v-0.1v-0.1
				c0.1-0.4,0.1-0.7,0-1.1c0-0.2-0.1-0.4-0.1-0.6c0-0.1,0-0.1,0-0.1c-0.2-0.3-0.2-0.4-0.2-0.4v-0.1c0-0.1,0-0.1,0.1-0.2
				c0-0.2,0.1-0.4,0.1-0.6c0-0.3,0-0.6,0-0.8c0-0.1,0-0.2,0-0.3c0-0.1,0-0.1,0-0.1c0.1-0.1,0.1-0.2,0.1-0.3c0-0.4,0.1-0.7,0.3-1.1
				c0.1-0.3,0.1-0.6-0.2-0.9c-0.1-0.2-0.2-0.4-0.1-0.6c0.1-0.4-0.1-0.7-0.4-1c0-0.1-0.1-0.1-0.2-0.2s-0.1-0.1,0-0.2
				c0.2-0.1,0.5-0.2,0.6-0.3c0.3-0.1,0.6-0.1,0.8-0.2c0.2,0,0.3-0.1,0.5-0.1c0.4,0,0.8-0.1,1.2-0.1c0.5,0,0.8,0,1.2,0.2
				c0.1,0.1,0.2,0.1,0.3,0.1c0.1,0,0.2,0.1,0.3,0.2c0.3,0.2,0.6,0.3,0.7,0.5c0.2,0.2,0.3,0.4,0.4,0.6c0,0.2,0.1,0.3,0.1,0.4
				c0.1,0.3,0.1,0.6,0,0.8c0,0.1,0,0.1,0,0.2c-0.1,0.5-0.2,1-0.4,1.5C60.6,33.1,60.3,33.5,60.3,33.8z M61.7,33.6L61.7,33.6
				L61.7,33.6C61.6,33.6,61.7,33.6,61.7,33.6C61.7,33.6,61.7,33.6,61.7,33.6z M61.8,32.8c0,0.1,0,0.1,0,0.2c0,0.1-0.1,0.3-0.2,0.3
				h-0.1c-0.1,0.3-0.4,0.5-0.5,0.7v0.1c0.1,0,0.1,0,0.1,0c0.1,0,0.1-0.1,0.1-0.1c0.1,0,0.1-0.1,0.2-0.1c0,0.1-0.1,0.1-0.1,0.2
				c-0.1,0.3-0.2,0.5-0.2,0.7c0,0.2,0,0.3-0.2,0.4c-0.1,0-0.1,0.2-0.1,0.2c0,0.1,0,0.1-0.1,0.1s-0.1,0-0.2,0
				c-0.1-0.1-0.1-0.2-0.2-0.3c-0.1-0.1-0.2-0.3-0.1-0.4c0.1-0.1,0.2-0.3,0.2-0.5c0-0.1,0-0.2,0.1-0.3c0.1-0.4,0.2-0.7,0.4-1.1
				c0.1-0.3,0.1-0.6,0.2-0.8c0.1-0.1,0.1-0.2,0.1-0.3c0.1-0.1,0.1-0.2,0.1-0.3c0-0.2,0-0.3,0-0.5c0,0,0-0.1,0.1-0.1
				c0,0,0.1,0,0.1-0.1l0.1,0.1c0,0.2,0,0.3,0,0.4s0,0.2,0,0.2c0.1,0.1,0.1,0.1,0,0.2c-0.1,0,0,0.1,0,0.1
				C61.9,32.5,61.9,32.6,61.8,32.8z"/>
			<path class="st0" d="M53.2,46.1C53.2,46.1,53.3,46.1,53.2,46.1c0.1-0.1,0.1-0.3,0-0.4h-0.1C53.2,45.9,53.2,46,53.2,46.1
				C53.2,46.1,53.2,46.1,53.2,46.1z"/>
			<path class="st0" d="M53.4,47L53.4,47C53.4,47,53.4,46.9,53.4,47C53.4,46.9,53.3,46.9,53.4,47L53.4,47C53.3,47,53.3,47,53.4,47
				L53.4,47z"/>
		</g>
		<g>
			<path class="st0" d="M56.8,38.5L56.8,38.5L56.8,38.5L56.8,38.5L56.8,38.5z"/>
			<path class="st0" d="M53.5,28.3c0,0.2-0.3-0.5-0.3-0.3c0,0.6,0,1.3,0,1.9c0,0.1,0,0.1,0,0.1c-0.1,0.2-0.1,0.4,0,0.6
				c0,0.2,0,0.3,0,0.5c0,0.3,0,0.6,0,0.9c0,0.4,0,0.7,0.1,1.2c0,0.1,0,0.2,0,0.3c0,0.1,0,0.2,0,0.3c0,0.2,0,0.5,0.1,0.6
				c0,0.1,0,0.2,0,0.3c0,0.1,0,0.3,0,0.4c0,0.2,0,0.4,0,0.6v0.1c0.1,0.2,0,0.4,0,0.6c-0.1,0.1,0,0.2,0,0.4c0,0.3,0,0.6,0,0.8
				c0,0.3,0,0.5,0.1,0.7c0,0.1,0.1,0.2,0.2,0.3c0,0,0,0,0.1,0c0,0.1,0,0.2,0,0.3l0,0l-0.1-0.1h-0.1c0,0,0,0-0.1,0.1
				c0,0.3,0,0.6,0,0.9c0,0.1,0.1,0.1,0.1,0.2c0.2,0.1,0.2,0.3,0.3,0.5c0.1,0.2,0,0.3-0.1,0.4c-0.3,0.1-0.3,0.3-0.3,0.5
				c0,0.3,0,0.5,0,0.7c0,0.1,0,0.2,0,0.2v0.2c0.1,0.1,0.3,0.1,0.4-0.1l0,0c0,0.3,0,0.5-0.1,0.7c0,0.1,0,0.1-0.1,0.2
				c-0.2,0.1-0.1,0.2-0.1,0.3c0.1,0.2,0.1,0,0.2,0h0.1c0,0.2,0.2,0.3,0.1,0.5c0,0.1,0,0.2,0,0.2c0.1,0.1,0.1,0.3,0.1,0.4
				c0,0.2,0,0.3,0,0.5c0.1,0.2,0,0.4,0,0.6l0,0l0,0l0,0c0,0,0,0-0.1,0c0-0.1,0-0.1-0.1-0.2c0-0.3-0.1-0.5-0.1-0.7
				c0-0.1,0-0.1-0.1-0.2c0,0,0,0-0.1,0c0,0-0.1,0-0.1,0.1v0.1c0,0.6,0.1,1.2,0.2,1.8c0,0.3,0.1,0.6,0.1,0.8c0,0.1,0,0.2,0.1,0.2
				c0.1,0.1,0.1,0.2,0.1,0.3c0,0.1,0,0.3,0,0.4c0.1,0.4,0.2,0.8,0.3,1.2c0,0.4,0.1,0.7,0.2,1.1c0,0.3,0.1,0.5,0.2,0.7
				c0.1,0.2,0.2,0.3,0.4,0.3c0.4,0.1,0.6,0.1,0.9-0.2c0.1,0,0.1-0.1,0.1-0.2c0-0.2,0.1-0.5,0.1-0.6c0-0.1,0-0.1-0.1-0.2l-0.1-0.1
				c-0.1-0.1-0.1-0.3,0.1-0.3h0.1c0.1,0.1,0.2,0.2,0.2,0.3c0.1,0.1,0.1,0.2,0.2,0.3s0.2,0.1,0.3,0c0.1-0.2,0.1-0.3,0.2-0.5
				c0-0.2,0-0.4,0.1-0.5c0,0,0,0,0-0.1s-0.1-0.3-0.1-0.4c0-0.1,0-0.3,0-0.4v-0.1c0-0.1,0-0.2-0.1-0.2c0,0-0.1-0.1,0-0.2v-0.1
				c0-0.3-0.1-0.6-0.1-0.8c0-0.1,0-0.3,0-0.4c0,0,0,0,0-0.1c-0.1-0.3-0.1-0.6,0-0.8c0-0.2,0-0.4,0-0.6v-0.1c0-0.2,0-0.4-0.1-0.6
				c0-0.1,0-0.3-0.1-0.4v-1.8c0-0.1,0-0.2,0-0.3c0.1-0.1,0.1-0.2,0-0.2c-0.1-0.2-0.1-0.4-0.1-0.6s0-0.3,0-0.5c0-0.1,0-0.1,0-0.2
				c0.1,0,0.1-0.1,0.2-0.1l0,0c0-0.4,0-0.6,0-0.9c0,0,0-0.1,0.1-0.1h0.1c0,0,0,0.1,0.1,0.1l0,0c0-0.1,0-0.2,0-0.3c0,0,0,0-0.1,0
				c-0.1,0-0.2-0.1-0.2-0.3c0-0.2,0-0.5,0-0.6c0,0-0.1,0.1-0.2,0.1c0,0,0,0-0.1,0h-0.1v-0.1c0-0.1,0.1-0.2,0.1-0.2
				c0.1,0,0.1-0.1,0.2-0.1c0-0.2,0-0.4,0-0.5h-0.1h-0.1c0,0,0,0,0-0.1c0-0.1,0-0.1,0.1-0.1c0.1-0.2,0.1-0.5,0-0.7c0-0.1,0-0.2,0-0.3
				c0-0.2,0-0.3,0-0.5s0-0.4,0-0.6c0-0.1,0-0.2,0-0.3c0-0.2-0.1-0.3-0.1-0.5c0-0.1,0-0.1,0-0.2c0-0.1,0-0.1,0-0.2
				c0.1-0.4,0.1-0.8,0-1.2c0-0.2-0.1-0.4-0.1-0.6c0-0.1,0-0.1,0-0.1c-0.1-0.1-0.1-0.1-0.1-0.2v-0.1c0-0.1,0-0.2,0.1-0.2
				c0-0.2,0.1-0.4,0.1-0.6c0-0.3,0-0.6,0-0.8c0-0.1,0-0.2,0-0.3s0-0.1,0-0.1c0.1-0.1,0.1-0.2,0.1-0.4c0-0.4,0.1-0.7,0.3-1.1
				c0.1-0.4,0.1-0.6-0.2-0.9v-0.1c-0.2,0-0.4-0.1-0.6-0.1s-0.3,0-0.5,0c-0.1,0-0.2,0-0.2,0c-0.1,0-0.2,0-0.3,0.1
				c-0.2,0.2-0.5,0.1-0.6-0.2c0-0.1-0.1-0.2-0.2-0.3 M53.5,37.5L53.5,37.5L53.5,37.5L53.5,37.5C53.6,37.5,53.6,37.5,53.5,37.5z
				 M53.6,30.8L53.6,30.8L53.6,30.8z M53.6,30.2c-0.1-0.1-0.1-0.2-0.1-0.4c0-0.1,0.1-0.1,0.1-0.1l0.1,0.1
				C53.7,30,53.7,30.2,53.6,30.2C53.8,30.2,53.7,30.3,53.6,30.2C53.7,30.3,53.6,30.3,53.6,30.2z M54,34.7c-0.1,0-0.2-0.1-0.2-0.1
				c-0.1-0.1-0.1-0.2,0-0.3s0.1-0.1,0.2-0.2c0-0.1,0.1-0.1,0.2-0.1c0,0,0,0,0.1,0c0.1,0.1,0.1,0.2,0.1,0.3s0,0.3,0,0.4
				C54.2,34.7,54.1,34.7,54,34.7z M54.3,46.2L54.3,46.2L54.3,46.2L54.3,46.2L54.3,46.2z M55.6,46.4C55.6,46.4,55.7,46.4,55.6,46.4
				C55.6,46.5,55.6,46.5,55.6,46.4C55.6,46.5,55.6,46.5,55.6,46.4L55.6,46.4z M55.2,43.8C55.2,43.8,55.2,43.8,55.2,43.8
				c0-0.2,0.1-0.3,0.2-0.2c0,0,0.1,0,0.1,0.1C55.5,43.8,55.4,43.8,55.2,43.8z M55.7,47c-0.1,0-0.1,0-0.2-0.1l0.1-0.1
				C55.7,46.8,55.7,46.9,55.7,47C55.8,46.9,55.8,47,55.7,47z M56,48.2c0-0.2,0-0.3,0.1-0.4h0.1c0,0,0.1,0,0.1,0.1
				C56.3,48,56.3,48,56,48.2z"/>
		</g>
	</g>
	<g>
		<g>
			<path class="st0" d="M21.3,39.6c0.1-0.1,0.3-0.2,0.3-0.3c0-0.6,0.2-1,0.4-1.6c0.1-0.4,0.3-0.8,0.1-1.2c-0.1-0.2,0-0.3,0.2-0.4
				v-0.1c-0.1,0-0.1,0-0.1,0c-0.1,0-0.1,0.1-0.2,0.2c-0.4,0.5-0.5,1.1-1,1.4c-0.1,0,0,0.1,0,0.1c-0.1,0.5-0.2,0.9-0.4,1.4
				c-0.1,0.2,0.1,0.3,0.3,0.5C20.9,39.5,21.1,39.5,21.3,39.6z"/>
			<path class="st0" d="M21.5,40.3c-0.1,0-0.1,0-0.2,0.1c0,0.1,0,0.1,0.1,0.2c0.2,0.3,0.4,0.2,0.6,0.3
				C21.9,40.4,21.7,40.3,21.5,40.3z"/>
			<path class="st0" d="M20.4,43.7c0.2,0.1,0.2,0.2,0.3,0.2c0,0.1,0.1,0,0.2-0.1c-0.1,0-0.1-0.2-0.2-0.2
				C20.6,43.7,20.6,43.7,20.4,43.7z"/>
			<path class="st0" d="M20,42.9c0.2,0.1,0.3,0,0.5,0c0.3,0,0.3-0.1,0.3-0.3c-0.1-0.6,0-1,0.2-1.6c0-0.1,0.1-0.2,0.1-0.2
				c0-0.1-0.1-0.2-0.1-0.2c-0.1,0-0.2-0.1-0.3,0c-0.3,0.3-0.6,0.5-0.8,0.7c-0.1,0.1-0.1,0.2-0.1,0.3c0,0.3,0,0.6,0,0.7
				C19.7,42.7,19.9,42.9,20,42.9z"/>
			<path class="st0" d="M28.5,29.7c-0.3-0.3-0.6-0.4-0.9-0.6c-0.6-0.5-1.3-0.8-2.1-1c-0.1,0-0.3-0.1-0.4-0.1
				c-0.5-0.3-0.8-0.1-1.2,0.3c-0.8,1-1.2,2.1-1.4,3.4c-0.1,0.3,0.1,0.7-0.2,1c-0.1,0-0.1,0.2,0,0.2c0.1,0.3,0,0.5-0.2,0.6
				c-0.1,0.2-0.3,0.5-0.4,0.6c-0.1,0.2-0.2,0.4-0.3,0.6c0,0.3,0.3,0.6,0.5,0.6c0.2,0.1,0.4-0.2,0.5-0.4v-0.1c0-0.1,0.1-0.2,0.1-0.3
				c0.1,0.1,0.2,0.1,0.3,0.2c0,0.1,0.2,0.3,0.3,0.4c0.1,0.2,0.3,0.4,0,0.6c-0.1,0-0.1,0.1-0.1,0.2c-0.2,0.4-0.2,0.4,0.1,0.7
				c0.2,0.1,0.2,0.2,0.2,0.3c-0.1,0.2-0.3,0.3-0.3,0.5c0,0.7-0.4,1.4-0.6,2c-0.1,0.5-0.3,0.8-0.5,1.4H22c0,0.4-0.1,0.8-0.2,1.2
				c-0.2,0.6-0.2,1.2-0.6,1.7c-0.1,0.2,0,0.4,0,0.6c-0.2,0.6-0.3,1.2-0.5,1.8c-0.1,0.4-0.3,0.6-0.3,1c0,0.3-0.1,0.5-0.2,0.7
				c0,0.1-0.2,0.2-0.3,0.2c-0.5,0-0.7-0.5-0.6-0.9c0.2-0.6,0.3-1.1,0.5-1.7c0.1-0.4,0-0.6-0.2-0.7c-0.1-0.2-0.2-0.3-0.5-0.3
				c-0.2,0-0.3,0.2-0.4,0.4c-0.1,0.2-0.1,0.3-0.1,0.5c-0.1,0.4-0.2,0.7-0.3,1c-0.3,0.7-1.3,4-0.9,4.1c0.3,0,0.4,0.3,0.4,0.6
				c0,0.2-0.1,0.4-0.5,0.4c-0.3,0-0.4,0.1-0.4,0.3c-0.1,0.4-0.1,0.8-0.3,1.1c-0.1,0.4-0.3,0.6-0.4,1c-0.3,0.6-0.6,1.3-0.8,2
				c-0.2,0.6-0.4,1.1-0.6,1.7c-0.1,0.4-0.3,0.6-0.4,1.1c-0.4,1.1-0.6,2.1-0.9,3.1c-0.6,1.7-1.1,3.2-1.6,4.9
				c-0.2,0.7-0.4,1.5-0.6,2.2c-0.1,0.4-0.3,0.6-0.3,0.9c-0.3,1.2-0.6,2.4-0.9,3.6c-0.3,1-0.5,1.9-0.8,2.9c-0.2,0.7-0.4,1.5-0.4,2.2
				c0,0.3,0,0.6,0.1,0.9c0.1,0.3,0.3,0.4,0.5,0.3c0.3-0.1,0.6-0.2,0.9-0.3c0.3-0.1,0.5-0.3,0.5-0.6c0-0.3,0.1-0.5,0.3-0.6
				c0.2-0.2,0.2-0.2-0.1-0.4c-0.5-0.3-0.5-0.3-0.4-0.7c0.1-0.3,0.2-0.6,0.1-0.8c0-0.3,0.2-0.6,0.5-0.7c0.2-0.1,0.4-0.2,0.6-0.4
				c0.3-0.5,0.6-0.6,1.2-0.6c0.4,0,0.5-0.1,0.4-0.5c-0.1-0.2-0.1-0.3-0.1-0.5c0-0.2,0-0.4,0-0.6c0-0.1-0.1-0.2-0.1-0.2
				c-0.1,0-0.2,0-0.2,0.1c-0.1,0.2-0.2,0.3-0.2,0.5c-0.1,0.3-0.1,0.3-0.5,0.3c-0.2,0-0.2,0.1-0.3,0.2c-0.1,0.2-0.4,0.3-0.6,0.3
				c-0.2-0.1-0.3-0.2-0.1-0.4c0.1-0.2,0.1-0.3,0.2-0.5c0.2-0.5,0.4-0.9,0.5-1.5c0-0.1,0.1-0.2,0.2-0.2c0.2-0.3,0.2-0.5,0-0.6
				c-0.2-0.1-0.3-0.4-0.1-0.5c0.4-0.5,0.3-1,0.7-1.5c0.1-0.2,0.2-0.4,0-0.6L13,68.3c0.1,0,0.2-0.1,0.4-0.2c0-0.1,0.1-0.1,0.2-0.1
				c0.2-0.1,0.3-0.2,0.2-0.4c-0.6-0.6-0.6-0.6-0.6-0.6c-0.2-0.4-0.2-0.5,0.2-0.7s0.6-0.7,0.7-1.3c0.1-0.6,0.4-1.2,0.6-1.8
				c0.1-0.2,0.1-0.3,0-0.5c0-0.1-0.1-0.1-0.1-0.2c-0.1-0.3,0-0.3,0.3-0.3c0.1,0,0.4,0.1,0.3-0.1c-0.2-0.6,0-1.1,0.2-1.7
				c0.1-0.4,0.3-0.6,0.3-1c0.1-0.2,0-0.5,0.1-0.6c0.1-0.2,0.3-0.4,0.4-0.5c0.1-0.1,0.1-0.2,0.1-0.4c0.2-0.6,0.4-1.2,0.6-1.8
				c0.2-0.6,0.5-1.1,0.6-1.7c0.2-0.6,0.3-1.2,0.5-1.7c0.1-0.3,0.2-0.6,0.3-0.9c0-0.1,0.1-0.1,0.2-0.1c0.2,0.1,0.5,0.2,0.6,0.4
				c0.1,0.1,0.1,0.3,0.1,0.4c-0.1,0.3-0.2,0.6-0.6,0.7c-0.4,0.1-0.3,0.6,0,0.6c0,0.1,0.1,0,0.2,0.1c0.5,0.2,0.5,0.3,0.2,0.6
				c-0.5,0.6-0.7,1.1-0.8,1.8c0,0.7-0.4,1.3-0.8,1.8c-0.1,0.1-0.2,0.2-0.1,0.4c0.2,0.5-0.1,0.8-0.2,1.2c-0.2,0.5-0.3,1-0.5,1.4
				c-0.1,0-0.1,0.1-0.1,0.2c0.1,0.4-0.1,0.6-0.1,1c-0.1,0.4-0.2,0.7-0.6,0.8c-0.1,0-0.1,0.3-0.1,0.3c0.3,0.3,0.4,0.6,0.1,0.8
				c-0.1,0.1-0.1,0.2-0.1,0.3c0,0.1,0.1,0.2,0.2,0.1c0.5,0,0.8,0.1,1.2,0.1c0.1,0,0.2-0.2,0.2-0.3c0-0.1-0.1-0.2-0.1-0.2
				c0-0.3,0-0.3,0.3-0.4c0.4,0,0.5,0,0.5,0.4c0,0.1,0,0.1,0,0.2c0,0.4-0.2,0.6-0.5,0.8c-0.3,0.2-0.5,0-0.6-0.2
				c-0.1-0.1-0.3-0.2-0.4-0.1c-0.3,0.2-0.6,0.2-0.9,0.3c-0.3,0.1-0.5,0.3-0.4,0.5c-0.1,0.6-0.3,1.1-0.6,1.7
				c-0.1,0.2-0.2,0.4-0.2,0.6c-0.1,0.6-0.1,1.3-0.5,1.8c-0.2,0.4-0.1,0.8,0.3,1C13.8,71,14,71,14,70.8c0-0.3,0.3-0.4,0.4-0.5
				c0.1-0.1,0.5-0.2,0.5-0.3c0-0.3-0.4-0.1-0.5-0.3c-0.1-0.2-0.1-0.3-0.1-0.4c0.1,0,0.2-0.1,0.3-0.1c0.3,0.2,0.5,0.1,0.6-0.2
				c0.2-0.2,0.3-0.6,0.5-0.8c0.1-0.2,0.2-0.2,0.4,0c0.1,0,0.1-0.1,0.2-0.1c0-0.1,0-0.2-0.1-0.2c-0.5-0.5,0.1-1-0.2-1.5
				c0,0,0.1-0.1,0.2-0.2c0.3-0.2,0.5-0.3,0.8-0.2c0.4,0.1,0.5,0,0.6-0.3c0-0.3,0.1-0.4,0.2-0.6c0.2-0.4,0.1-0.8,0.6-1.2
				c0-0.1-0.1-0.2,0-0.2c-0.1-0.3-0.1-0.6,0.1-0.8c0.1-0.2,0.1-0.3,0.1-0.4c0-0.3,0.1-0.6,0.3-0.8c0.1-0.2,0-0.3-0.2-0.3
				c-0.4,0.1-0.7,0.1-1.1,0.1c-0.1,0-0.2-0.1-0.2-0.1c0-0.1,0-0.2,0.1-0.2c0.3-0.1,0.4-0.4,0.4-0.6c0-0.2,0.1-0.4,0.3-0.3
				c0,0,0,0.2,0.1,0.4c0,0.1,0.1,0.2,0.2,0.3c0.1,0.1,0.2,0.1,0.4,0.2c0.2,0.1,0.3,0,0.5,0c0.2-0.1,0.2-0.3,0-0.5
				c-0.1-0.2-0.3-0.3-0.5-0.4c-0.2-0.3-0.1-0.4,0.2-0.6c0.1,0,0.2-0.1,0.3-0.1c0.3,0,0.5-0.1,0.7-0.3c0.4-0.3,0.4-0.4,0.2-0.7
				c-0.2-0.3-0.6-0.6,0-0.9c0-0.1-0.1-0.2-0.1-0.2c-0.1-0.2,0-0.2,0.1-0.3c0.1-0.1,0.2-0.1,0.3-0.1c0.3-0.1,0.4-0.1,0.3-0.6
				c0-0.2,0-0.4,0.2-0.5c0.6-0.2,0.6-0.6,0.7-1.1c0.1-0.3,0-0.6,0-0.9c0.1-0.4,0.4-0.7,0.5-1.1c0-0.1,0.9-3.6,1-4
				c0.1-0.4,0.2-0.7,0.4-1.1c0.1-0.3,0.1-0.4-0.3-0.4c-0.1,0-0.1,0-0.2,0c0-0.1,0.1-0.2,0.1-0.2c0.2,0,0.3-0.2,0.4-0.4
				c0.3-0.6,0.6-1.3,0.7-1.9c0.1-0.5,0.2-0.9,0-1.5c-0.1-0.3,0.1-0.5,0.3-0.6c0.5-0.5,0.8-0.9,0.9-1.5c0.3-0.8,0.5-1.7,0.7-2.6
				c0.1-0.6,0.3-1.3,0.6-1.8c0.1-0.3,0.2-0.5,0.2-0.7c0.1-0.5,0.3-0.8,0.6-1.2s0.6-0.7,0.6-1.2s0.2-0.9,0.4-1.4
				c0.1-0.4,0.3-0.7,0.5-1.1C29.4,31,29.1,30.2,28.5,29.7z M11.5,74.3c0.2-0.1,0.3,0.1,0.3,0.3c0,0.1-0.1,0.2-0.2,0.2
				c-0.1,0.1-0.3-0.1-0.4-0.4C11.3,74.4,11.4,74.3,11.5,74.3z M17.9,62.3c0.1-0.1,0.2,0,0.3,0.2c0,0.1-0.1,0.2-0.2,0.2
				c-0.1,0-0.2-0.1-0.3-0.1C17.8,62.4,17.8,62.3,17.9,62.3z M17.7,63.1c0.4-0.1,0.5,0,0.5,0.2c0,0.3-0.1,0.3-0.5,0.3
				c-0.1,0-0.1,0-0.1,0c-0.1,0-0.2,0.1-0.3,0c-0.1,0-0.2-0.1-0.2-0.2c0-0.1,0.1-0.2,0.2-0.2C17.3,63.1,17.5,63.1,17.7,63.1z
				 M18.8,59c-0.1,0.2-0.1,0.3-0.2,0.3c-0.1,0.1-0.3,0.2-0.4,0.1c0-0.1-0.1-0.2-0.1-0.4c0-0.1,0.1-0.3,0.1-0.4
				c-0.2-0.6,0.3-0.8,0.6-1.1c0.1,0,0.1,0,0.1,0c0,0.1,0.1,0.1,0.1,0.1C18.9,58.1,19.1,58.6,18.8,59z M19.6,56.3
				c-0.1,0-0.2-0.1-0.2-0.2l0.1-0.1C19.6,56.1,19.7,56.2,19.6,56.3C19.7,56.3,19.7,56.3,19.6,56.3z M19,45.7L19,45.7L19,45.7
				L19,45.7L19,45.7z M20.1,54.9c-0.1,0-0.2-0.1-0.3-0.2c-0.1-0.2,0.1-0.3,0.2-0.2c0.1,0,0.2,0.1,0.4,0.2
				C20.3,54.8,20.2,54.9,20.1,54.9z M21.9,48.2L21.9,48.2L21.9,48.2L21.9,48.2C21.9,48.1,21.9,48.1,21.9,48.2z"/>
			<path class="st0" d="M14.8,65.4c-0.2-0.1-0.2-0.1-0.2-0.1c-0.1,0.1-0.2,0.2-0.3,0.3c0,0,0.1,0.1,0.2,0.1L14.8,65.4z"/>
			<path class="st0" d="M22,40.7L22,40.7L22,40.7z"/>
		</g>
		<g>
			<path class="st0" d="M18.3,50.3c0.1,0.2,0.1,0.3,0.3,0.5c0.1,0.1,0.2,0.2,0.2,0.3c0.3,0.4,0.6,0.9,0.8,1.4c0,0.1,0.1,0.2,0.2,0.2
				c0.3,0.2,0.5,0.5,0.5,0.8c0,0.1,0.1,0.2,0.3,0.3c0.3,0.3,0.6,0.5,0.8,0.7c0.1,0.1,0.1,0.2,0.1,0.3c0,0.1,0,0.2,0,0.3
				c-0.1,0.2,0,0.3,0.2,0.4c0.1,0.1,0.2,0.2,0.3,0.3c0.2,0.3,0.4,0.6,0.6,0.9c0.2,0.4,0.3,0.6,0.4,1c0.1,0.2,0.2,0.4,0.3,0.5
				c0.3,0.3,0.5,0.7,0.8,1c0.2,0.2,0.4,0.5,0.5,0.7c0.1,0.3,0.2,0.6,0.3,0.7c0.1,0.2,0.3,0.5,0.4,0.6c0.3,0.5,0.6,1.1,0.8,1.6
				l0.1,0.1c0.1,0.1,0.3,0.3,0.2,0.4c0,0.2,0.1,0.4,0.2,0.6c0.1,0.1,0.1,0.3,0.2,0.4c0.2,0.2,0.3,0.5,0.5,0.6
				c0.3,0.3,0.4,0.5,0.5,0.8c0,0.2,0.2,0.4,0.3,0.6c0.2,0.3,0.3,0.6,0.1,0.8c-0.1,0-0.1,0.1-0.1,0.2c0,0.1,0,0.2,0,0.3
				c0,0.1,0.2,0.1,0.3,0.1c0.3,0.2,0.6,0.2,0.9,0.2s0.5-0.1,0.7-0.3c0.2-0.3,0.5-0.5,0.6-0.7c0.1-0.1,0.2-0.2,0.4-0.2
				c0.4-0.1,0.6-0.3,0.8-0.5c0-0.1,0.1-0.2,0.1-0.3c0.1-0.1,0.3-0.3,0.5-0.2c0.3,0,0.5-0.2,0.6-0.5c0.2-0.3,0.2-0.6,0.2-0.9
				c0-0.6-0.3-1.4-0.5-2c-0.1-0.5-0.4-1-0.6-1.6c-0.2-0.6-0.6-1.3-0.8-1.8c-0.3-0.5-0.5-1-0.8-1.6c-0.4-0.5-0.6-1-0.9-1.5
				c0-0.1-0.1-0.2-0.2-0.3c-0.1-0.1-0.3-0.1-0.5-0.1c-0.1,0.1-0.2,0.2,0,0.3c0.2,0.1,0.3,0.2,0.2,0.3c-0.1,0.2,0,0.2,0.2,0.4
				c0.3,0.3,0.6,0.6,0.5,1.1c0,0.1,0,0.2,0.2,0.2l0.1,0.1c0,0.3,0.4,0.5,0.4,0.7c0,0.1,0,0.1,0.1,0.2c0.2,0.2,0.3,0.4,0.3,0.6
				c0,0.1,0,0.2,0.1,0.2c0.3,0.1,0.2,0.4,0.3,0.5c0.1,0.4,0.2,0.6,0.3,0.8c0,0.1,0,0.1,0.1,0.2c0.3,0.3,0.4,0.5,0.3,0.7
				c0,0.1,0,0.3-0.1,0.4c0,0.1,0,0.3,0.2,0.4c0.1,0.1,0.1,0.4-0.1,0.6c0.1,0.1,0.2,0.1,0.3,0.1c0.3,0.2,0.3,0.2,0.4,0.5
				c0,0.3-0.2,0.6-0.1,0.9c0,0.1-0.1,0.2-0.3,0.1c-0.1,0-0.2-0.1-0.2-0.2c-0.1-0.2-0.1-0.3-0.3-0.3c-0.1,0,0-0.1-0.1-0.2
				c0-0.1,0-0.2,0-0.3c-0.1-0.3,0-0.6,0.3-0.8c-0.1-0.1-0.3-0.3-0.4-0.3c-0.2-0.1-0.4-0.2-0.4-0.4c0-0.1-0.1-0.2-0.1-0.1
				c-0.4-0.2-0.3-0.4-0.2-0.6c0.1-0.1,0-0.2-0.1-0.2c-0.1,0-0.2,0-0.2-0.2c0-0.4-0.3-0.7-0.6-1c0-0.1-0.2-0.3-0.2-0.4
				c0-0.2,0-0.3-0.1-0.5c-0.1-0.2-0.3-0.3-0.4-0.4c-0.1-0.1-0.2-0.4-0.4-0.5c-0.2-0.3-0.3-0.3-0.6-0.2c-0.2,0.1-0.5,0.1-0.6,0.1
				c-0.3-0.1-0.4,0-0.5,0.2c0,0-0.1,0-0.2,0c0-0.1,0-0.1-0.1-0.2c0.1-0.3,0.4-0.6,0.6-0.6c0.3,0,0.5,0,0.6,0.1
				c0.3,0.1,0.4-0.1,0.5-0.2c0.1-0.2,0-0.3-0.1-0.5c-0.1,0-0.2-0.1-0.3-0.2c-0.2-0.2-0.2-0.2-0.1-0.5c0.1-0.2,0.1-0.2-0.2-0.2
				c-0.2-0.1-0.2-0.1-0.3-0.3c-0.1-0.2-0.2-0.3-0.2-0.5c-0.1-0.2-0.3-0.4-0.5-0.6c-0.1-0.1-0.2-0.3-0.1-0.5c0.1-0.3-0.1-0.6-0.4-0.7
				c-0.1-0.1-0.1-0.1-0.1-0.3c0-0.1,0-0.1-0.2-0.2c-0.2-0.1-0.4-0.3-0.5-0.6c0,0,0,0,0-0.1c-0.2-0.2-0.4-0.3-0.5-0.5
				c0-0.2,0-0.5-0.1-0.7c0-0.1,0-0.2-0.1-0.3c0-0.1,0-0.1-0.1-0.1c-0.3,0-0.3-0.1-0.3-0.4c0-0.3-0.2-0.4-0.6-0.4c-0.1,0-0.2,0-0.3,0
				c-0.2,0-0.2,0.1-0.1,0.2c0.2,0.2,0.2,0.3,0,0.3c-0.1,0-0.2,0-0.4,0c-0.1,0-0.2-0.1-0.3-0.2c-0.1-0.1,0.1-0.2,0.1-0.2
				c0.1-0.2,0.2-0.4,0.4-0.4c0.3-0.1,0.4-0.2,0.3-0.4c0-0.2,0-0.3,0-0.5s-0.1-0.3-0.4-0.2c-0.1,0-0.1,0-0.1,0
				c-0.2,0.1-0.2,0-0.2-0.1c0.1-0.2,0-0.2-0.1-0.3c-0.2-0.1-0.2-0.1-0.1-0.2c0.1,0,0.1,0,0.1-0.1c0.1-0.1,0.1-0.3,0-0.3
				c-0.2-0.3-0.4-0.4-0.6-0.5c-0.4-0.2-0.6-0.5-0.5-0.8c0-0.1,0.1-0.4-0.1-0.4c-0.3-0.2-0.3-0.3-0.2-0.6c0-0.1,0-0.1,0-0.1
				c-0.2-0.2-0.5-0.5-0.6-0.6c-0.5,0-0.4-0.3-0.6-0.5c-0.1-0.4-0.4-0.6-0.6-0.9c-0.1-0.1-0.2-0.2-0.1-0.4c0.1-0.2,0-0.5-0.2-0.6
				c-0.2-0.3-0.4-0.5-0.6-0.6c-0.1-0.1-0.1-0.3,0-0.3c0.2-0.2,0.5-0.3,0.6-0.5c0.1,0,0.2,0,0.3,0.1c0,0.1,0,0.1,0,0.2
				c-0.1,0.2,0,0.2,0.2,0.3c0.1,0,0.3,0,0.3,0.1c0.1,0.2,0.2,0.4,0.2,0.6c0.1,0.3,0.2,0.6,0.6,0.8c0.2,0.1,0.3,0.1,0.3,0.3
				c0,0.1,0,0.2,0.1,0.3c0.1,0.3,0.2,0.6-0.1,0.7V45c0.1,0,0.1,0.1,0.2,0.1c0.1,0,0.1,0,0.1,0c0.1,0,0.3-0.1,0.5,0
				c0,0.1,0,0.2,0.1,0.4c0,0.1,0.2,0.2,0.3,0.2c0.3,0,0.4-0.1,0.3-0.3c-0.2-0.3-0.3-0.5-0.4-0.7c-0.2-0.3-0.5-0.6-0.5-0.9
				c0-0.1-0.1-0.2-0.1-0.2c-0.3-0.3-0.5-0.6-0.6-0.8c-0.2-0.2-0.4-0.5-0.4-0.7c0-0.1-0.1-0.3-0.4-0.4c-0.1,0-0.2-0.1-0.2-0.2
				c-0.1-0.6-0.5-1-0.7-1.4c-0.3-0.4-0.6-0.7-0.8-1c0-0.1-0.1-0.2-0.1-0.3c-0.1-0.2-0.1-0.3-0.2-0.4c-0.5-0.6,0.8,2.3,0.4,1.7
				l-0.1-0.2h-0.1c-0.2-0.4-0.4-0.7-0.6-1c0-0.1-0.2-0.3-0.2-0.4c-0.2-0.2-0.4-0.4-0.5-0.6c-0.3-0.6-0.8-1.2-1.3-1.8
				c-0.2-0.2-0.4-0.4-0.5-0.6c0-0.4-0.3-0.6-0.5-0.8c-0.1-0.1-0.2-0.2-0.3-0.3c-0.3-0.3-0.6-0.6-0.6-1c-0.1-0.2-0.1-0.3-0.3-0.3
				c-0.4-0.3-0.7-0.5-1.1-0.6c-0.4-0.1-0.6-0.1-1,0c-0.2,0.1-0.5,0.2-0.7,0.1c-0.3,0-0.4,0.1-0.6,0.3c-0.3,0.3-0.6,0.6-0.7,0.9
				C10,34,9.9,34.1,9.8,34.1c-0.4,0.2-0.7,0.3-1.1,0.5c-0.1,0-0.2,0-0.3,0.1c-0.4,0.2-0.6,0.5-0.9,0.7c-0.1,0.1-0.3,0.3-0.5,0.2
				c-0.2,0-0.3,0.1-0.5,0.1l0,0c0.3,0.1,0.6,0.3,0.8,0.5c0.2,0.1,0.2,0.2,0.3,0.3c0.1,0.4,0.4,0.7,0.6,1l0,0l0.1,0.1
				c0,0.1,0.1,0.1,0.1,0.2c0.1,0.2,0.3,0.4,0.4,0.6c0.1,0,0.1,0.1,0.2,0.1c0.3,0.1,0.5,0.3,0.6,0.6c0.2,0.3,0.4,0.6,0.6,0.8
				c0.1,0.1,0.2,0.2,0.2,0.3c0.2,0.4,0.5,0.7,0.7,1c0.1,0.1,0.3,0.2,0.4,0.3c-0.1-0.2-0.1-0.3,0.1-0.2c0.1,0.1,0.2,0.2,0.2,0.4
				c0.1,0.1,0.1,0.2,0.2,0.3c0.3,0.3,0.6,0.6,0.8,0.9c-0.4-0.9-0.9-2.2-0.7-2.1c0.1,0,0.2,0.2,0.2,0.3c0.1,0.4,0.3,0.6,0.5,0.9
				c0.2,0.3,0.3,0.6,0.3,0.8c0,0.2,0.2,0.5,0.4,0.6c0.3,0.3,0.6,0.4,0.6,0.7c0,0.1,0.1,0.1,0.2,0.1c0.2,0.1,0.2,0.2,0.3,0.3
				c0.2,0.6,0.6,1.2,1,1.8c0.3,0.4,0.6,0.7,0.8,1.1 M17.6,40.5c0.2-0.2-0.2-0.3-0.2-0.5c0-0.1-0.1-0.2-0.1-0.1
				c-0.1-0.4-0.2-0.6-0.1-0.6c0.1,0.1,0.1,0.1,0.1,0.2c-0.1,0.1,0,0.2,0.1,0.3c0.3,0.2,0.3,0.2,0.3,0.5c0,0.1,0,0.3,0.2,0.4
				c0.1,0,0.1,0.1,0.2,0.2c-0.1-0.1-0.2-0.2-0.3-0.2C17.7,40.7,17.6,40.6,17.6,40.5z M16.6,39.6C16.6,39.5,16.6,39.5,16.6,39.6
				c0-0.2-0.1-0.2-0.2-0.4c0-0.1,0.1-0.1,0.1-0.2c0.1,0,0.1,0,0.1,0c0.2,0.2,0.3,0.3,0.6,0.5v0.1C16.9,39.8,16.7,39.8,16.6,39.6z
				 M17.9,41.6c0.2,0.1,0.3,0.3,0.3,0.4C18.3,42.2,18.1,42,17.9,41.6z M25.1,59L25.1,59L25.1,59L25.1,59L25.1,59z M19.5,49.3
				C19.5,49.4,19.5,49.4,19.5,49.3C19.4,49.5,19.4,49.4,19.5,49.3C19.4,49.3,19.4,49.3,19.5,49.3C19.4,49.3,19.4,49.3,19.5,49.3z
				 M22.5,53.5c0.1,0,0.2-0.1,0.3-0.1s0.2,0,0.3,0.1c0.1,0,0,0.2-0.2,0.2c-0.1,0-0.2,0-0.4,0C22.6,53.7,22.5,53.6,22.5,53.5
				L22.5,53.5z M22,51.7c0.1,0,0.2,0.1,0.1,0.2c0,0.1-0.1,0.2-0.1,0.2h-0.1c-0.1,0-0.1,0-0.1,0c0-0.1-0.1-0.2-0.1-0.3
				C21.8,51.8,21.9,51.8,22,51.7z M21.7,51.6C21.6,51.6,21.6,51.6,21.7,51.6c-0.2-0.1-0.2-0.3-0.1-0.3c0.1,0,0.2,0,0.2,0
				C21.8,51.4,21.8,51.6,21.7,51.6z M19.7,48.6L19.7,48.6C19.6,48.6,19.6,48.6,19.7,48.6C19.6,48.6,19.7,48.5,19.7,48.6z M21.2,50.2
				L21.2,50.2c-0.1,0.2-0.2,0.2-0.3,0.3c-0.1,0-0.2,0.1-0.3,0.1s-0.2-0.1-0.1-0.1c0.1-0.2,0.1-0.2,0.2-0.4
				C20.7,49.9,21.1,50.1,21.2,50.2z M24.5,54.9C24.6,54.9,24.6,54.8,24.5,54.9c0.1-0.2,0.2-0.1,0.3-0.2c-0.1,0,0,0.1,0,0.1
				C24.7,54.9,24.7,55,24.5,54.9C24.5,55,24.5,55,24.5,54.9C24.5,55,24.5,55,24.5,54.9z M20.6,49.3L20.6,49.3l-0.2,0.1v-0.1H20.6z
				 M18.1,45.4c0,0.1,0,0.1-0.1,0.2c-0.1-0.1-0.2-0.1-0.3-0.1c0-0.1,0-0.1,0.1-0.2C17.9,45.2,18.2,45.3,18.1,45.4z M22.3,50.9
				L22.3,50.9C22.2,50.9,22.2,50.9,22.3,50.9L22.3,50.9L22.3,50.9z M15.8,40.7C15.8,40.6,15.8,40.6,15.8,40.7
				C15.9,40.7,15.9,40.7,15.8,40.7L15.8,40.7L15.8,40.7z M15.8,40.3L15.8,40.3c-0.1,0-0.2,0.1-0.2,0c0-0.1,0-0.1,0-0.1
				C15.5,40.1,15.7,40.1,15.8,40.3z M16.3,40c0,0.1,0,0.2-0.1,0.2c0,0-0.1,0-0.2-0.1C16.1,40.2,16.2,40.1,16.3,40L16.3,40z
				 M17.1,41.3c-0.1,0.1-0.2,0.2-0.3,0c-0.2-0.2-0.3-0.3-0.6-0.2c-0.1,0-0.2,0-0.2-0.1c0-0.1,0-0.1,0-0.2c0.1-0.1,0.2-0.2,0.2-0.2
				c0.3-0.1,0.4-0.1,0.5,0c0.2,0.1,0.3,0.2,0.4,0.3c0,0.1,0.1,0.2,0,0.2C17.2,41.1,17.2,41.2,17.1,41.3z M19.2,43.9
				c0.1,0.2,0.2,0.4,0.3,0.5c0,0.1-0.1,0.2-0.1,0.1c-0.2,0-0.4,0-0.6-0.1c-0.2-0.1-0.4-0.3-0.6-0.1c-0.2,0.1-0.2,0.1-0.4-0.2
				c-0.1,0-0.2-0.1-0.3-0.2v-0.1c0.1,0,0.1,0,0.1,0c0.1,0,0.2,0,0.3,0c0.1,0,0.2-0.1,0.3-0.2c0-0.1-0.1-0.2-0.1-0.3
				c0-0.1,0-0.1,0-0.2c0-0.1-0.1-0.2-0.2-0.2c-0.1,0-0.2-0.1-0.2-0.1c-0.4,0-0.5-0.2-0.6-0.4c-0.3-0.1-0.3-0.1-0.3-0.2
				c0.1-0.1,0.3-0.3,0.4-0.4c0.1-0.1,0.2-0.2,0.4-0.1c0.1,0,0.1,0,0.1,0c0,0.1,0,0.1-0.1,0.2c-0.1,0.1-0.2,0.2-0.3,0.3
				c0,0.1,0,0.1,0,0.1c0,0.1,0.1,0,0.1,0c0.1,0,0.2,0,0.3,0.1c0,0.1,0.1,0.2,0.2,0.1c0.1-0.1,0.1-0.1,0.2,0c0,0.1,0.1,0.2,0.2,0.2
				c0.3,0.1,0.4,0.3,0.6,0.5C18.9,43.5,19,43.7,19.2,43.9z M23.2,49.8L23.2,49.8L23.2,49.8L23.2,49.8z M19.7,45.8
				c0,0.1-0.1,0.1-0.2,0.1c-0.3-0.2-0.6-0.6-0.5-0.6c0.2-0.2,0.5-0.2,0.7-0.2c0.1,0,0.1,0,0.1,0v0.1c0,0.1,0,0.1,0,0.1
				C19.9,45.3,19.8,45.5,19.7,45.8z M21.5,48.2c-0.1,0-0.3,0-0.3-0.1c-0.1-0.3-0.2-0.3-0.4-0.3c-0.1,0-0.1-0.1-0.1-0.1
				c0.1-0.1,0.2-0.2,0.3-0.3c0.1-0.1,0.3,0,0.4,0.1c0,0.1,0.1,0.1,0.1,0.1c0,0.1,0.1,0.2,0.1,0.2C21.6,48,21.6,48.1,21.5,48.2z
				 M21.9,49.1c-0.3,0.1-0.6,0.1-0.8,0.1c-0.1,0-0.2,0-0.2-0.1c0-0.1,0.1-0.2,0.1-0.2c0.2-0.1,0.5-0.2,0.6-0.3
				c0.2-0.1,0.4,0.1,0.4,0.2C22.1,49,22,49,21.9,49.1z M21.8,50.1c-0.1,0-0.2-0.1-0.2-0.1v-0.1c0.1-0.1,0.3-0.2,0.5-0.3
				c0.2,0,0.4,0,0.5,0c0.1,0,0.1,0.1,0.1,0.1s0,0.1-0.1,0C22.4,50,22.1,50.1,21.8,50.1z M24,52.2C24,52.2,24.1,52.2,24,52.2
				c0.1,0.2,0.1,0.2,0,0.3c-0.2,0-0.5,0.1-0.6,0.1c-0.2,0.1-0.3,0-0.4-0.1c-0.3-0.2-0.3-0.3,0-0.5c0.1,0,0.2-0.2,0.2-0.2
				c0.1-0.1,0.3-0.1,0.4-0.1c0.2,0,0.3,0.1,0.2,0.2C23.8,52.1,23.9,52.2,24,52.2z M24.4,53L24.4,53v-0.2h0.1L24.4,53L24.4,53z
				 M26.3,55.9L26.3,55.9L26.3,55.9L26.3,55.9L26.3,55.9z M27.5,59.4L27.5,59.4L27.5,59.4L27.5,59.4z M27.5,58.7L27.5,58.7l-0.2,0.1
				C27.4,58.8,27.4,58.7,27.5,58.7C27.4,58.7,27.4,58.8,27.5,58.7z M28.7,60.1C28.7,60,28.7,60,28.7,60.1L28.7,60.1L28.7,60.1
				C28.7,60,28.7,60,28.7,60.1z M28.9,61.3c0-0.1,0.1-0.2,0.2-0.2c0.1,0,0.3,0,0.4,0v0.1c-0.1,0-0.1,0.1-0.2,0.2
				c-0.1,0-0.1,0-0.2,0.1C29.1,61.5,28.9,61.4,28.9,61.3z M27.9,60.7L27.9,60.7c0.2-0.2,0.4-0.2,0.6-0.3c0.1,0,0.1,0,0.2,0
				c0.1,0,0.1,0.1,0.1,0.1c0,0.1,0,0.1,0,0.1c-0.1,0-0.2,0-0.3,0.1C28.3,60.8,28.2,60.8,27.9,60.7C28,60.8,27.9,60.8,27.9,60.7z
				 M24,55.9c0.1-0.3,0.4-0.3,0.6-0.3c0.5,0,0.7,0,0.9-0.4c0-0.1,0.1-0.2,0.3-0.1c0,0.1,0,0.1,0,0.2c0,0.2-0.1,0.3-0.3,0.3
				c-0.4,0-0.6,0.1-0.9,0.3C24.4,56.2,24.2,56,24,55.9z M23.8,55.9L23.8,55.9c0.1,0,0.2,0,0.3,0C24,55.9,23.9,55.9,23.8,55.9z
				 M20.1,51.1c0-0.1,0.1-0.2,0.2-0.2c0.1,0,0.1,0,0.3,0V51v0.1c0,0.1-0.1,0-0.1,0.1h-0.1C20.3,51.2,20.2,51.2,20.1,51.1z
				 M26.8,60.8c0.1,0,0.2,0,0.3,0.1h0.1c-0.1,0-0.1,0.1-0.2,0.1C26.9,60.9,26.8,60.9,26.8,60.8z M27.4,62.7L27.4,62.7
				c0.1-0.1,0.2,0,0.2-0.1v0.1C27.4,62.7,27.4,62.7,27.4,62.7z M27.2,62.1L27.2,62.1C27.2,62,27.2,62,27.2,62.1L27.2,62.1L27.2,62.1
				z M26,60.8C26,60.7,26.1,60.7,26,60.8c0.3-0.1,0.6-0.1,0.7,0.1c-0.2,0.1-0.4,0.1-0.6,0.1C26.2,60.9,26.1,60.8,26,60.8z"/>
			<path class="st0" d="M24.2,50.2L24.2,50.2L24.2,50.2L24.2,50.2L24.2,50.2z"/>
			<path class="st0" d="M26.7,51.7c0.1,0.2-0.1,0.3-0.3,0.3c-0.2-0.1-0.3-0.1-0.3-0.3S26,51.3,25.8,51c-0.1-0.1-0.2-0.3-0.3-0.4
				c0-0.1-0.1-0.2,0-0.2c0-0.2-0.1-0.3-0.3-0.3c-0.2-0.1-0.2-0.2-0.2-0.4c0-0.2-0.1-0.4-0.2-0.6c-0.2-0.3-0.5-0.6-0.6-0.9
				C24.1,48.2,24.2,48,24,48c-0.1,0-0.2-0.2-0.2-0.3c0.1-0.3-0.2-0.5-0.4-0.7c0,0-0.1-0.1-0.2-0.2c0-0.1-0.1-0.2,0-0.2
				c0.1-0.1,0.2-0.1,0.3-0.1c0.1,0,0.2,0.1,0.2,0.2c0,0.1,0,0.2,0.1,0.3c0.3,0.1,0.4,0.4,0.6,0.6c0,0.1,0.1,0.1,0.2,0.3
				c0.1,0.1,0.2,0.2,0.3,0.3c0.5,0.6,0.5,1.3,1,1.7c0.1,0,0.1,0,0,0.1c0.1,0.5,0.6,0.6,0.7,1C26.5,51.1,26.5,51.5,26.7,51.7z"/>
			<path class="st0" d="M28.3,55.1c-0.2-0.1-0.4-0.2-0.5-0.3c-0.2-0.1-0.3-0.3-0.3-0.5c-0.1-0.6-0.4-1.2-0.9-1.7
				c-0.1,0-0.1-0.1-0.1-0.2c0.1-0.1,0.1-0.2,0.2-0.3c0-0.1,0.1,0,0.2,0c0.1,0,0.2,0.1,0.3,0.1c0.3,0.3,0.5,0.6,0.7,0.9l-0.1,0.1
				c0.1,0.2,0.3,0.4,0.3,0.6c0.2,0.4,0.4,0.7,0.5,1.1C28.5,55.1,28.4,55.2,28.3,55.1z"/>
		</g>
	</g>
	<g>
		<path class="st0" d="M74.5,44.3c0,0.1-0.1,0.2-0.1,0.2c-0.5,0.2-0.9,0.4-1.4,0.6c-0.2,0-0.4,0-0.6,0h-0.1
			c-0.2,0.1-0.4,0.2-0.6,0.4c-0.1,0.1-0.1,0.2-0.2,0.3c0.1,0,0.2,0.1,0.3,0.1c0.2,0,0.4-0.1,0.6-0.1c0.3-0.1,0.4-0.1,0.5,0.2
			c0.1,0.5,0.1,0.6-0.5,0.8c-0.4,0.2-0.8,0.3-1.3,0.4c-0.7,0.3-1.6,0.6-2.3,0.9c-0.3,0.2-0.6,0.4-0.8,0.6s-0.5,0.3-0.7,0.5
			c-0.1,0-0.2,0.1-0.2,0.1c0.1,0.4,0,0.4-0.3,0.2c-0.4-0.2-0.6,0.1-0.8,0.5c-0.2,0.3-0.4,0.4-0.6,0.6c-0.6,0.2-1.2,0.6-1.7,0.7
			c-0.3,0.2-0.6,0.4-0.8,0c-0.2-0.1-0.4,0-0.6,0.2c-0.5,0.3-0.9,0.6-1.5,1c-0.2,0.1-0.4,0.1-0.6,0.1c-0.2,0-0.4,0-0.5,0.3
			c-0.1,0.2-0.3,0.4-0.5,0.5c-0.7,0.3-1.4,0.6-2.1,0.9c0,0-0.1,0.1-0.2,0c-0.5-0.3-0.8,0.3-1.2,0.3c-0.2-0.2-0.4,0-0.4,0
			c-0.1,0.4-0.3,0.4-0.6,0.5c-0.5,0.2-0.9,0.5-1.4,0.7c-0.2,0.1-0.3,0.2-0.4,0.3c-0.3,0.1-0.5,0.4-0.7,0.5c-0.8,0.2-1.5,0.8-2.2,1.3
			c-0.1,0.1-0.2,0.1-0.3,0.2c-0.8,0.4-1.7,0.8-2.4,1.6c-0.4,0.4-0.7,0.5-1.2,0.6c-0.7,0.5-1.5,0.8-2.2,1.4c-0.6,0.5-1.3,0.7-1.8,1.3
			c-0.7,0.7-1.7,1.1-2.4,1.9l-0.1,0.1c-0.7,0.4-1.4,0.9-1.9,1.5c-0.1,0.1-0.3,0.1-0.4,0.2c-0.3,0-0.6,0-0.8,0.3
			c-0.2,0.2-0.4,0.1-0.6-0.1c-0.2-0.1-0.5-0.3-0.6-0.4c-0.1-0.1-0.2-0.1-0.3-0.2c-0.1-0.6-0.7-0.7-0.8-1.2c-0.1-0.3-0.1-0.6-0.2-0.9
			c-0.1-0.3,0.1-0.5,0.2-0.6c0.2-0.3,0.4-0.6,0.6-0.8c0.1-0.1,0.2-0.2,0.3-0.2c0.6-0.3,1-0.6,1.6-1c0.4-0.3,0.6-0.7,1.1-0.9
			c0.4-0.2,0.6-0.6,1.1-0.6c0.1,0,0.1-0.1,0.2-0.1c0.3-0.5,0.8-0.6,1.3-0.7c0.5-0.2,0.5-0.2,0.7-0.7c0.1-0.2,0.3-0.2,0.6-0.1
			c0,0,0.2,0,0.3,0c0.1-0.1,0.2-0.3,0.4-0.3c0.2-0.1,0.4-0.1,0.6-0.2c0,0.4-0.3,0.4-0.5,0.6c-0.4,0.3-0.7,0.5-1.1,0.7
			c-0.1,0.1-0.2,0.2-0.3,0.3c-0.1,0.1-0.1,0.3,0,0.4c0.1,0.2,0.3,0.1,0.4,0.1c0.6-0.5,1.2-0.8,1.7-1.2c0.2-0.1,0.4-0.3,0.6-0.4h0.1
			V58c-0.1,0.1-0.2,0.1-0.2,0.2c-0.2,0.3-0.6,0.3-0.6,0.6c0.3-0.1,0.6-0.1,0.8-0.3c0.3-0.1,0.5-0.3,0.7-0.5c0.5-0.2,0.8-0.6,1.2-0.7
			c1.2-0.7,2.4-1.4,3.6-2c1.7-0.9,3.2-1.8,4.9-2.7c1.3-0.6,2.7-1.2,4-1.8c0.6-0.3,1.1-0.6,1.7-0.8c0.9-0.4,1.8-0.7,2.8-1.1
			c0.3-0.1,0.6-0.2,0.9-0.4c0.7-0.5,1.7-0.6,2.5-0.9c0.1,0,0.2,0,0.2,0c0,0.1-0.1,0.1-0.2,0.2c-0.1,0.1-0.1,0.1,0,0.2
			c0.2,0.1,0,0.2-0.1,0.2c-0.1,0-0.2,0-0.3,0c-0.4-0.1-0.7,0-0.9,0.4c-0.2,0.2-0.4,0.4-0.7,0.2c-0.1-0.1-0.3,0-0.5,0
			s-0.2,0.1-0.1,0.3c0.1,0.2,0.1,0.3,0.1,0.5c0.1,0.4,0.2,0.4,0.4,0.1c0,0,0,0,0-0.1c0.2-0.1,0.5-0.1,0.6-0.2
			c0.2-0.1,0.4-0.3,0.6-0.4c0.3,0,0.6-0.2,0.9-0.3c0.2-0.1,0.5-0.3,0.6-0.3c0.8-0.2,1.5-0.7,2-1.4c0-0.1,0.1-0.1,0-0.2
			c0-0.1-0.1-0.1-0.2-0.1c0,0,0,0-0.1,0c-0.2,0-0.4,0.2-0.5-0.1c0,0,0.3-0.2,0.5-0.3c0.4-0.2,0.7-0.3,1.2-0.5c0,0,0.1,0,0.2,0.1
			c0,0.1-0.1,0.1-0.1,0.2c-0.1,0.1-0.2,0.1-0.2,0.2c-0.1,0.1-0.1,0.2-0.1,0.3c0.1,0.1,0.2,0.1,0.2,0.1c0.4-0.1,0.7-0.2,1.1-0.4
			c0.1,0,0.1-0.1,0.1-0.2S70.9,46,70.8,46c-0.1-0.1-0.1-0.1-0.2-0.1c0.1-0.1,0.1-0.1,0.2-0.1c0.5-0.3,0.8-0.6,1.4-0.5
			c0.1,0,0.2,0,0.3,0l0,0l0,0c0.5-0.2,0.8-0.5,1.3-0.6c0.2-0.1,0.4-0.1,0.6-0.2C74.3,44.2,74.4,44.3,74.5,44.3z M43.1,56.5
			c-0.1,0.1-0.1,0.2-0.2,0.2c0,0.1-0.1,0-0.2,0c0-0.1,0.1-0.1,0.1-0.2C42.9,56.5,43,56.5,43.1,56.5z M43.2,57L43.2,57H43
			C43,57,43,56.9,43.2,57L43.2,57z M44,56.4C44,56.4,44,56.5,44,56.4C43.9,56.5,43.9,56.5,44,56.4L44,56.4L44,56.4z M44.5,57.1
			c-0.1,0.2-0.2,0.3-0.3,0.4c-0.1,0-0.2-0.1-0.3-0.1c0.1-0.1,0.1-0.3,0.2-0.3C44.4,57.1,44.4,57.1,44.5,57.1z M44.6,55.5L44.6,55.5
			c-0.1,0.1-0.1,0.2-0.1,0.2L44.6,55.5C44.5,55.5,44.6,55.5,44.6,55.5z M45.8,55.2l-0.2,0.4c-0.3,0.1-0.5,0.2-0.6,0.3h-0.1
			c0-0.1,0-0.1,0.1-0.1c0.1-0.3,0.3-0.4,0.6-0.5C45.6,55.2,45.7,55.2,45.8,55.2z M46.5,56.1c-0.1,0.1-0.2,0.3-0.3,0.3
			c-0.1,0.1-0.2,0-0.2-0.1C45.9,56,46.2,56,46.3,56C46.3,56,46.4,56,46.5,56.1z M47,54.5C47,54.5,47,54.6,47,54.5L47,54.5L47,54.5
			L47,54.5z M47.8,54.1C47.8,54.1,47.8,54.2,47.8,54.1l-0.2,0.1C47.7,54.1,47.7,54.1,47.8,54.1L47.8,54.1z M48.9,54.4
			c0,0.4-0.3,0.5-0.4,0.5c-0.3,0.2-0.3,0.3-0.4,0.3s-0.2,0-0.3-0.1c0-0.1,0-0.3,0.1-0.3c0.3,0,0.6-0.2,0.7-0.6c0,0,0.1,0,0.2,0
			C48.9,54.3,49,54.3,48.9,54.4z M48.4,53.2l-0.1,0.2l-0.1-0.1L48.4,53.2L48.4,53.2z M48.6,53.7c-0.1,0.1-0.1,0.2-0.1,0.2
			s-0.1,0-0.2-0.1c0-0.1,0.1-0.1,0.1-0.1C48.5,53.7,48.5,53.7,48.6,53.7z M50,52.5L50,52.5L50,52.5C49.8,52.5,49.9,52.5,50,52.5
			C49.9,52.4,49.9,52.5,50,52.5z M51.4,55C51.3,55,51.3,55,51.4,55c-0.2,0.1-0.2,0.2-0.3,0.2l0.1,0.1C51.3,55.2,51.3,55.1,51.4,55z
			 M58.9,50.9c-0.5,0-0.8,0.1-1.1,0.5c-0.1,0.2-0.3,0.2-0.4,0.2s-0.2,0-0.3,0c-0.4,0.2-0.7,0.5-1.2,0.6c-0.8,0.4-1.6,0.9-2.4,1.3
			c-0.6,0.3-0.9,0.9-1.4,1.3v0.1c0,0,0.1,0.1,0.1,0c0.3-0.1,0.6-0.1,0.7-0.4c0.2-0.5,0.6-0.6,0.9-0.6c0.3-0.1,0.6-0.1,0.9-0.3
			c0.5-0.2,0.8-0.6,1.3-0.7c0.7-0.3,1.4-0.7,2.2-0.8C58.9,51.8,59,51.7,58.9,50.9z M53.5,51L53.5,51L53.5,51L53.5,51L53.5,51z
			 M55.7,49.5L55.7,49.5L55.7,49.5C55.6,49.5,55.6,49.5,55.7,49.5L55.7,49.5L55.7,49.5z M56.2,49.8L56.1,50l-0.3-0.1
			c0-0.1,0.1-0.1,0.1-0.1C55.9,49.7,56,49.7,56.2,49.8z M56.7,50.4l-0.1,0.2h-0.2C56.5,50.5,56.5,50.4,56.7,50.4
			C56.7,50.3,56.7,50.3,56.7,50.4z M57,49.3v0.2c-0.2,0-0.3,0.1-0.5,0.1c0,0,0-0.1,0-0.2c0-0.1,0.1-0.1,0.2-0.2c0,0,0.1-0.1,0.2-0.1
			C56.9,49.2,57,49.2,57,49.3z M58.3,48.8L58.3,48.8L58.3,48.8L58.3,48.8z M58.3,48.3L58.3,48.3L58.3,48.3
			C58.2,48.3,58.2,48.3,58.3,48.3L58.3,48.3z M59.6,48.2c-0.1,0.1-0.2,0.2-0.2,0.3c-0.1,0.1-0.2,0.1-0.3,0.1c0,0.1-0.1,0-0.2,0
			c0-0.1,0.1-0.1,0.1-0.2c0.1,0,0.1-0.1,0.3-0.2L59.6,48.2z M59.3,51.1C59.2,51.1,59.2,51.2,59.3,51.1c-0.1,0.1-0.1,0.1,0,0.2
			C59.3,51.3,59.3,51.3,59.3,51.1C59.3,51.2,59.3,51.2,59.3,51.1z M62.6,50c0,0-0.1-0.1-0.1-0.2c-0.5-0.3-0.9-0.3-1.4-0.1
			c-0.3,0.1-0.6,0.2-0.8,0.4c-0.2,0.1-0.5,0.2-0.6,0.3c-0.2,0.2-0.4,0.4-0.2,0.6c0.2-0.1,0.4-0.3,0.5-0.2c0.3,0.2,0.5-0.1,0.6-0.2
			c0.5-0.3,0.9-0.6,1.5-0.5C62.1,50.2,62.3,50.1,62.6,50C62.5,50.1,62.6,50.1,62.6,50z M61.5,47.3L61.5,47.3l-0.2,0.1
			C61.4,47.3,61.4,47.2,61.5,47.3C61.5,47.2,61.5,47.2,61.5,47.3z M63.1,49.3c0-0.2-0.2-0.2-0.3-0.2c-0.2,0-0.3,0-0.5,0
			c0,0.1-0.1,0.2-0.1,0.2s0.1,0.2,0.2,0.1c0.1,0,0.3,0,0.4,0C62.9,49.4,63.1,49.4,63.1,49.3z M63.2,46.7L63.2,46.7L63.2,46.7
			L63.2,46.7z M63.7,46.4L63.7,46.4L63.7,46.4L63.7,46.4L63.7,46.4z M66.1,45.5C66.1,45.5,66.1,45.6,66.1,45.5
			c-0.3,0.1-0.4,0.2-0.6,0.2l-0.1-0.1c0-0.1,0.1-0.1,0.1-0.2c0,0,0,0,0.1-0.1c0.1,0,0.2-0.1,0.3-0.1C66,45.4,66,45.4,66.1,45.5z
			 M66.7,46.1L66.7,46.1L66.7,46.1L66.7,46.1C66.6,46.1,66.7,46.1,66.7,46.1z M66.8,47L66.8,47L66.8,47C66.7,47.1,66.7,47,66.8,47
			C66.7,47,66.8,47,66.8,47z M67.3,47.6c-0.1,0.1-0.1,0.2-0.1,0.2s-0.1-0.1-0.2-0.1c0,0,0.1-0.1,0.1-0.2
			C67.1,47.5,67.1,47.6,67.3,47.6L67.3,47.6z M67.8,46.6c0.1,0.2,0,0.4,0,0.5L67.2,47c0-0.1,0-0.2,0-0.3
			C67.4,46.6,67.7,46.5,67.8,46.6z M67.7,45C67.6,45,67.6,45,67.7,45L67.7,45L67.7,45L67.7,45L67.4,45V45c0,0,0.1,0,0.1,0.1l0,0
			L67.7,45L67.7,45z M70.1,44c-0.1,0.2-0.1,0.2-0.2,0.3c-0.1,0-0.2,0-0.3,0v-0.2C69.8,44.1,69.9,44.1,70.1,44z M70,47.2L70,47.2
			L70,47.2L70,47.2z M70.2,44.9C70.2,45,70.2,45,70.2,44.9L70.2,44.9C70.1,45,70.1,45,70.2,44.9L70.2,44.9z M71.3,43.5
			c0,0.1,0,0.2,0,0.2c-0.1,0-0.1,0-0.2,0v-0.1C71.2,43.6,71.3,43.6,71.3,43.5z M72.6,43.3c-0.1,0.1-0.1,0.1-0.2,0.1c0,0,0,0-0.1-0.1
			c0-0.1,0.1-0.1,0.1-0.1S72.5,43.2,72.6,43.3L72.6,43.3z M72.7,44v0.2l-0.2,0.1C72.5,44.2,72.5,44.1,72.7,44
			C72.5,44,72.6,44,72.7,44z M82.5,43.4c0,0.2-0.6,0.3-0.7,0.2l-0.1-0.2c0,0-0.1-0.1-0.2-0.1c-0.1,0.1-0.1,0.2-0.1,0.2
			c0.1,0.2,0.1,0.3-0.1,0.3c-0.4,0.1-0.7,0.2-1.1,0.3c-0.4,0.1-0.7,0.4-1,0c-0.3,0.2-0.6,0.4-0.9,0.5c-0.2,0.1-0.5,0.1-0.6-0.2
			c-0.2-0.1-0.3-0.1-0.3,0.1c0,0.4-0.2,0.5-0.5,0.6c-1,0.4-2.1,0.7-3.1,1c-0.1,0-0.2,0.1-0.3,0.1c-0.1,0-0.2-0.2-0.1-0.2
			c0.1-0.2,0.2-0.5,0.5-0.4c0.3,0,0.5,0,0.6-0.3c0-0.1,0.2-0.1,0.2-0.1c0.4,0.1,0.5-0.2,0.6-0.5c0.1-0.2,0.4-0.3,0.6-0.4
			c0.3-0.1,0.5-0.1,0.6,0.2c0.1,0.2,0.2,0,0.2-0.1c0-0.3,0.1-0.4,0.4-0.5c0.5-0.1,1-0.2,1.5-0.4c0.2-0.1,0.5-0.2,0.6-0.3
			c0.2,0,0.4-0.1,0.6-0.1c0.2-0.1,0.2,0.1,0.1,0.2l0.1,0.2c0.2,0,0.5-0.1,0.6-0.1c0.5-0.6,1.1-0.8,1.7-1.1c0.1-0.1,0.4-0.1,0.4,0
			C82.4,42.9,82.5,43.2,82.5,43.4z M74.5,42.7c-0.1,0.1-0.2,0.2-0.3,0.2c-0.1,0-0.3,0-0.3,0c0-0.1,0-0.2,0-0.2
			c0.1-0.1,0.2-0.1,0.3-0.1S74.4,42.7,74.5,42.7z M77.7,43.3L77.7,43.3L77.7,43.3c-0.6,0.6-1.3,0.6-1.9,0.8c-0.2,0-0.5,0.1-0.6,0.1
			c0,0-0.1,0-0.1-0.1l0.1-0.1c0.2-0.1,0.3-0.2,0.5-0.2c0.6-0.1,1.1-0.4,1.7-0.5C77.3,43.3,77.5,43.4,77.7,43.3L77.7,43.3z
			 M75.9,45.1C75.9,45,75.9,45,75.9,45.1C75.9,45,75.8,45,75.9,45.1L75.9,45.1L75.9,45.1z M76.9,42.1c0,0-0.1,0-0.2,0L76.6,42
			c0.1-0.1,0.1-0.1,0.2-0.1C76.8,42,76.8,42,76.9,42.1L76.9,42.1L76.9,42.1L76.9,42.1z M76.9,42.1L76.9,42.1L76.9,42.1z M78,41.6
			L78,41.6L78,41.6h-0.2v-0.1C77.8,41.6,77.9,41.6,78,41.6L78,41.6L78,41.6z M79.2,43C79.2,43,79.2,43.1,79.2,43
			c-0.3,0.1-0.5,0.2-0.6,0.3c-0.1,0-0.2-0.1-0.3-0.1c0.1-0.1,0.1-0.2,0.2-0.2C78.6,43,78.8,42.9,79.2,43
			C79.1,42.9,79.2,42.9,79.2,43z M80.7,42.6L80.7,42.6c-0.1,0.2-0.2,0.2-0.3,0.3c0,0-0.1-0.1-0.2-0.1l0.1-0.2
			C80.5,42.6,80.6,42.5,80.7,42.6C80.7,42.5,80.7,42.5,80.7,42.6z M81.6,42.4l-0.1,0.2l-0.3-0.1c0-0.1,0.1-0.1,0.1-0.2
			C81.4,42.4,81.5,42.4,81.6,42.4z M90.4,40.7c-0.1,0.1-0.2,0.2-0.3,0.3c-0.5,0.2-0.9,0.4-1.4,0.6c-0.2,0-0.3,0.2-0.5,0.2
			C88,41.8,87.7,42,87.4,42c-0.4-0.1-0.6,0.1-0.8,0.3c-0.3,0.5-0.6,0.5-1,0.6c0,0-0.1,0-0.1-0.1c0-0.1,0.1-0.1,0.1-0.1
			c0.1-0.1,0.1-0.1,0.2-0.2c0-0.1,0-0.3-0.1-0.3c-0.1,0-0.2-0.1-0.3-0.1c-0.2,0.1-0.3,0.2-0.4,0.4c-0.3,0.3-0.6,0.6-0.9,0.3
			c-0.1,0-0.3,0-0.4,0c-0.2,0-0.3,0-0.4-0.2c-0.1-0.4-0.4-0.4-0.6-0.4c0,0-0.1,0-0.2,0c-0.2,0-0.3,0.1-0.5,0.1
			c0.2-0.1,0.3-0.2,0.5-0.3c0.3-0.1,0.6-0.1,0.8-0.2c0.2-0.1,0.4-0.1,0.5,0.3c0.1,0.3,0.6,0.3,0.7-0.2c0.2-0.5,0.6-0.4,0.8-0.6
			l0.1,0.1c-0.1,0.3,0,0.4,0.2,0.4c0.2-0.1,0.5-0.1,0.6-0.1c0.4,0.1,0.4-0.4,0.6-0.3c0.3,0,0.5,0.1,0.7,0.1c0.1,0,0.3-0.1,0.3-0.2
			c0-0.1,0-0.3,0-0.4l0,0c-0.5,0.2-0.9,0.4-1.5,0.5c0,0-0.1-0.1-0.2-0.1c0-0.1,0.1-0.2,0.1-0.2c0.5-0.2,1-0.4,1.5-0.3l0,0
			c0.2-0.1,0.3-0.1,0.5,0.1c0.1,0.1,0.3,0,0.4-0.1l0.4-0.3l0.4,0.1l0.1-0.1l-0.1,0.1L89,40.6l-0.3,0.3c0.5,0.2,0.9,0.1,1.5,0
			C90.1,40.7,90.3,40.7,90.4,40.7z M82.7,40.4C82.7,40.5,82.6,40.5,82.7,40.4C82.6,40.5,82.6,40.5,82.7,40.4L82.7,40.4L82.7,40.4z
			 M85.3,39.9L85.3,39.9C85.2,40,85.2,40,85.3,39.9L85.3,39.9L85.3,39.9C85.2,40,85.2,39.9,85.3,39.9L85.3,39.9z M86,39.6L86,39.6
			L86,39.6C85.9,39.7,85.9,39.6,86,39.6L86,39.6z M87.9,39.2L87.9,39.2L87.9,39.2L87.9,39.2L87.9,39.2z M91,40.3
			C91,40.4,90.9,40.4,91,40.3c-0.3,0.1-0.4,0.1-0.5,0.1l0,0l-0.4,0.2L90,40.4h0.1l0.4-0.2l0,0C90.6,40.3,90.8,40.2,91,40.3
			C90.9,40.2,91,40.2,91,40.3z M91.8,40.2l-0.1,0.2c-0.1,0-0.2-0.1-0.2-0.1s0-0.1,0-0.2L91.8,40.2z M93.3,39.8
			c-0.1,0-0.2,0.1-0.2,0.3c0.1,0.3-0.1,0.3-0.2,0.2s-0.2-0.2-0.2-0.3c0.1-0.1,0.2-0.2,0.3-0.2C93.2,39.7,93.2,39.8,93.3,39.8
			L93.3,39.8z M94.8,39.6c-0.2,0-0.5,0.1-0.6,0.1l-0.1-0.1v-0.1c0.2-0.1,0.5-0.1,0.6-0.1C94.8,39.4,94.8,39.5,94.8,39.6z M96.1,39.3
			c-0.2,0.3-0.5,0.1-0.6,0.2l-0.1-0.1v-0.1C95.6,39.3,95.8,39.1,96.1,39.3L96.1,39.3z M97.3,37.8L97.3,37.8L97,37.9
			c0-0.1,0-0.1,0.1-0.1C97.1,37.8,97.2,37.8,97.3,37.8z M97.9,38.1L97.9,38.1c-0.2,0.2-0.4,0.2-0.6,0.1l0,0l0,0l0,0
			C97.6,38.1,97.8,38.1,97.9,38.1z"/>
	</g>
	<path class="st0" d="M92.3,34.4c-0.1-0.8-0.4-1.8-1-2.4c-0.3-0.1-1.4-1.5-1.9-1.5c-0.6-0.3-0.8-0.4-1.4-0.5c-0.1,0-0.3,0.1-0.4,0.1
		l-0.2-0.1c-0.5,0-0.9,0-1.4,0c-0.1,0-0.2,0.1-0.3,0.1l-0.2,0.1c-0.8,0-2.3,1-2.9,1.1c-0.3,0-0.6,0.2-0.7,0.3c-0.2,0-0.4,0-0.6,0.2
		h-0.1c-0.3,0-0.6,0.2-0.9,0.2c-0.3,0-0.6,0.2-0.7,0.2c-0.1,0.1-0.2,0.2-0.3,0.2c-0.3,0.1-0.5,0.2-0.6,0.2c-0.1,0.1-0.2,0.1-0.3,0.1
		c-0.1,0-0.1,0-0.2,0c-0.1,0-0.1,0-0.2,0c-0.1,0-0.1,0-0.1,0c0-0.1-0.1-0.2-0.1-0.4c-0.1-1.1,0.3-1.4,0.4-2.1l0.1-0.2
		c0.3-0.2,0.5-0.6,0.6-0.9C79,29,79,29,79.1,28.9s0.2-0.3,0.2-0.4c0.3-0.4,0.8-0.6,0.9-1c0.1-0.1,0.1-0.3,0.3-0.4l0,0
		c0.4-0.3,0.7-0.6,1-1l0.1-0.1h0.1h0.2l0.2-0.2c0.2-0.1,0.3-0.2,0.4-0.3c1.3-1,2.7-2,4.2-2.5c0.1,0,0.1,0.1,0.1,0.1
		c-0.2,0.4-1.1,1.7-1.2,1.9c-0.3,0.3-0.3,0.6-0.6,0.9v0.1c0.1,0.2,0.4,0.8,0.6,0.7h0.1v-0.1l-0.1-0.3l0,0l0.1,0.3v0.1
		c0.1,0.2,0.9,0.7,1.1,0.7c0.1,0,0.2-0.1,0.2-0.1h0.2c0.2-0.1,0.4,0,0.6,0c0.3,0,0-0.5,0.5-0.7c0.4-0.2,1.7-2.8,1.9-3.3v-0.2
		c-0.2-1.7-3.5-2.7-4.9-2.6c-0.1,0-0.2,0-0.3,0.1c-0.6,0-1,0.5-1.6,0.5l0,0c-0.5,0.3-2.5,1.7-2.9,2.1c-0.3,0.3-0.5,0.5-0.7,0.7
		c-0.4,0.1-0.6,0.6-0.8,0.7c-0.4,0.5-1,1.2-1.5,1.7c-0.3,0.6-1.2,1.6-1.3,2.3c-0.1,0.1-0.2,0.2-0.2,0.4v0.2l0.1-0.1h0.1
		c0.1-0.5,0.4-1,0.7-1.2l-0.1-0.1c0.1-0.2,0.1-0.4,0.3-0.4h0.1c0.1,0.1,0.1,0.3,0.1,0.4c-0.1,0.1-0.3,0.1-0.4,0.2v0.2
		c0,0.1-0.1,0.1-0.1,0.2c0.1,0.1-0.3,0.6-0.4,0.6c0,0.3-0.1,0.3-0.3,0.3c0.1,0.2-0.1,0.3-0.1,0.5c-0.5,0.3-0.6,0.2-0.5,0.9
		c0.1,0.8,0.4,1.8,1,2.4c0.3,0.1,1.4,1.5,1.9,1.5c0.6,0.3,0.8,0.4,1.4,0.5c0.1,0,0.3-0.1,0.4-0.1l0.2,0.1c0.5,0,0.9,0,1.4,0
		c0.1,0,0.2-0.1,0.3-0.1l0-0.1c0.8,0,2.3-1,2.9-1.1c0.3,0,0.6-0.2,0.7-0.3c0.2,0,0.4,0,0.6-0.2h0.1c0.3,0,0.6-0.2,0.9-0.2
		c0.3,0,0.6-0.2,1-0.3l0,0c0.1-0.1,0.2-0.1,0.3-0.1c0.1-0.1,0.3-0.2,0.4-0.3c0,0.7-0.3,1.1-0.3,1.7l-0.1,0.2
		c-0.3,0.2-0.5,0.6-0.5,0.9c-0.1,0.1-0.1,0.1-0.2,0.2c-0.1,0.1-0.1,0.3-0.2,0.4c-0.3,0.4-0.7,0.6-0.9,1.1c-0.1,0.1-0.1,0.3-0.3,0.4
		l0,0c-0.4,0.3-0.7,0.6-0.9,1l-0.1,0.1h-0.1h-0.2l-0.2,0.2c-0.2,0.1-0.3,0.2-0.4,0.3c-1,0.9-2,1.7-3.2,2.3c0.4-0.6,0.8-1.2,0.8-1.5
		c0.3-0.3,0.3-0.6,0.6-0.9v-0.1c-0.1-0.2-0.4-0.8-0.6-0.7h-0.1v0.1l0.1,0.3l0,0l-0.1-0.3v-0.1c-0.1-0.2-0.9-0.7-1.1-0.7
		c-0.1,0-0.2,0.1-0.2,0.1h-0.2c-0.2,0.1-0.4,0-0.6,0c-0.3,0,0,0.5-0.5,0.7c-0.4,0.2-1.7,2.8-1.9,3.3v0.2c0.2,1.7,3.5,2.7,4.9,2.6
		c0.1,0,0.2,0,0.3-0.1c0.6,0,1-0.5,1.6-0.5l0,0c0.5-0.3,2.5-1.7,2.9-2.1c0.3-0.3,0.5-0.5,0.7-0.7c0.4-0.1,0.6-0.6,0.8-0.7
		c0.4-0.5,1-1.2,1.5-1.7c0.3-0.6,1.2-1.6,1.3-2.3c0.1-0.1,0.2-0.2,0.2-0.4v-0.2l-0.1,0.1h-0.1c-0.1,0.5-0.4,1-0.7,1.2l0.1,0.1
		c-0.1,0.2-0.1,0.4-0.3,0.4h-0.1c-0.1-0.1-0.1-0.3-0.1-0.4c0.1-0.1,0.3-0.1,0.4-0.2v-0.2c0-0.1,0.1-0.1,0.1-0.2
		c-0.1-0.1,0.3-0.6,0.4-0.6c0-0.3,0.1-0.3,0.3-0.3c-0.1-0.2,0.1-0.3,0.1-0.5C92.3,34.9,92.4,35.1,92.3,34.4z M92.1,34.8L92.1,34.8
		L92.1,34.8L92.1,35H92L92.1,34.8z M75.6,30.4L75.6,30.4L75.6,30.4l0.1-0.2h0.1L75.6,30.4z M81.2,23.8L81.2,23.8V24V23.8L81.2,23.8z
		 M80.9,23.9L80.9,23.9v0.2l-0.2-0.2H80.9z M78.1,26.4l0.4-0.4c0.6-0.6,1.3-1.2,1.9-1.7l0.3-0.1l0.1,0.1v0.1
		c-0.1,0.1-0.2,0.2-0.3,0.2c-0.2,0-0.3,0-0.2,0.2v0.1v0.2c-0.2,0.2-0.4,0.3-0.6,0.5l-0.5,0c-0.1,0-0.2,0-0.2,0.1v0.1l-0.4,0.5
		c-0.1,0-0.2,0.1-0.2,0.2c-0.2,0.2-0.3,0.4-0.6,0.5c-0.1,0-0.2,0-0.3,0l0,0C77.8,26.6,77.9,26.5,78.1,26.4z M77.5,27.4L77.5,27.4
		c-0.2,0.1-0.3,0.1-0.3,0.1c0.1,0.2,0.1,0.2-0.1,0.2c0-0.1,0-0.1,0.1-0.2c0.1-0.2,0.2-0.2,0.4-0.4l0.2-0.1l0.3,0.1v0.1l0,0
		C77.9,27.2,77.5,27.2,77.5,27.4z M86.4,41.5L86.4,41.5v-0.2V41.5L86.4,41.5z M86.8,41.3L86.8,41.3v-0.2l0.2,0.2H86.8z M89.7,38.9
		l-0.4,0.4c-0.6,0.6-1.3,1.2-1.9,1.7L87.1,41L87,40.9v-0.1c0.1-0.1,0.2-0.2,0.3-0.2c0.2,0,0.3,0,0.2-0.2v-0.1v-0.2
		c0.2-0.2,0.4-0.3,0.6-0.5l0.3-0.2c0.1,0,0.2,0,0.2-0.1v-0.1l0.4-0.5c0.1,0,0.2-0.1,0.2-0.2c0.2-0.2,0.3-0.4,0.6-0.5
		c0.1,0,0.2,0,0.3,0l0,0C89.8,38.6,89.8,38.7,89.7,38.9z M90.7,37.5c0,0.1,0,0.1-0.1,0.2c-0.1,0.2-0.2,0.2-0.4,0.4L90,38.1l-0.3-0.1
		V38l0,0c0.2,0,0.5,0,0.6-0.2v-0.1c0.1,0,0.2,0,0.2,0C90.5,37.6,90.5,37.6,90.7,37.5z"/>
</g>
</svg>
