<?xml version="1.0" encoding="utf-8"?>
<!-- Generator: Adobe Illustrator 19.0.0, SVG Export Plug-In . SVG Version: 6.00 Build 0)  -->
<svg version="1.1" id="Layer_1" xmlns="http://www.w3.org/2000/svg" xmlns:xlink="http://www.w3.org/1999/xlink" x="0px" y="0px"
	 viewBox="-345 257 100 100" style="enable-background:new -345 257 100 100;" xml:space="preserve">
<style type="text/css">
	.st0{fill:#FCFCFC;}
</style>
<g>
	<path class="st0" d="M-306.3,309.9c0.8-0.4,1.6-0.8,2.5-1c1-0.2,1.5-0.7,2-1.5c1-1.6,2.5-2.6,4.5-2.6c1,0,1.6,0.4,1.9,1.2
		c0.3,0.8,0,1.5-0.7,1.9c-1,0.5-2,0.9-3,1.3c-0.1,0-0.4-0.1-0.5-0.3c-0.1-0.1,0.1-0.4,0.2-0.5c0.4-0.3,0.8-0.5,1.2-0.8
		c0.4-0.3,0.7-0.6,1-1c0.1-0.1,0.1-0.3,0-0.4c-0.1-0.1-0.3-0.2-0.4-0.1c-0.9,0.6-1.9,1.1-2.6,1.8c-0.7,0.8-0.3,1.8,0.7,2.1
		c0.5,0.1,1.1,0.2,1.6,0c1.5-0.4,2.8-1,3.6-2.4c0.4-0.6,0.8-1.2,1.2-1.7c1-1.3,2.1-1.7,3.4-0.7c1.1,0.8,1.9,0.7,2.8-0.1
		c0.3-0.2,0.6-0.4,1-0.6c1.4-0.7,1.7-0.7,2.8,0.4c0.5,0.4,0.8,0.6,1.4,0.2c0.2-0.1,0.5-0.3,0.7-0.4c0.5-0.2,0.9-0.3,1.2,0.2
		c0.3,0.5,0,1.2-0.6,1.5c-0.5,0.2-1,0.4-1.5,0.4c-1.1,0-1.6,0.6-2.1,1.5c-0.4,0.8-0.8,1.6-1.2,2.4c-0.3,0.5-0.8,0.8-1.3,0.6
		c-0.6-0.3-0.6-0.9-0.4-1.4c0.2-0.6,0.6-1.1,0.9-1.7c0.3-0.5,0.7-1.1,1-1.6c0.1-0.1,0.1-0.4,0.1-0.4c-0.2-0.1-0.4-0.2-0.6-0.2
		c-1.4,0.4-2.6,0.9-3.3,2.3c-0.3,0.7-0.8,1.4-1.2,2.1c-1.1,1.7-2.6,1.8-3.8,0.1c-0.5-0.7-0.8-0.8-1.4-0.3c-0.5,0.4-1.1,0.7-1.6,1
		c-1.9,1.2-3.3,1-4.7-0.4c-1-1-2-0.9-3-0.5c-1.2,0.5-2.4,1.2-3.6,1.8c-0.3,0.1-0.4,0.5-0.6,0.7c-2.2,3.1-4.4,6.2-6.8,9.2
		c-0.8,1-1.9,1.8-2.9,2.7c-0.3,0.2-0.6,0.4-1,0.5c-0.4,0.1-1.1,0.2-1.3,0c-0.3-0.3-0.4-1-0.3-1.4c0.2-0.7,0.6-1.5,1-2.1
		c0.9-1.2,1.8-2.4,2.8-3.4c1.8-1.9,3.5-3.8,5.7-5.3c0.3-0.2,0.5-0.4,0.7-0.6c0.1-0.1,0.2-0.3,0.2-0.4c-0.2,0-0.4-0.1-0.6-0.1
		c-1.6,0.4-3.2,1-4.9,1.3c-1.5,0.3-3.1,0.5-4.7,0.5c-3.4,0.2-4.6-1.9-4.9-4.8c0-0.3,0-0.8-0.2-1c-1.5-1.1-1.6-2.5-1.1-4.1
		c0,0,0.1-0.1,0.1-0.1c0,0,0,0.1-0.1,0.1c-0.8,0.7-1.5,1.5-2.4,2.1c-0.2,0.2-0.6,0.1-1,0.1c0-0.3-0.1-0.7,0.1-1
		c0.2-0.4,0.6-0.6,0.9-0.9c0.5-0.5,1-1.1,1.5-1.6c0.1-0.1,0-0.3,0-0.4c-0.1,0-0.2,0-0.3,0.1c-0.8,0.6-1.5,1.2-2.2,1.8
		c-1.7,1.1-3.4,2.1-5.1,3.2c-0.8,0.5-1.7,1.1-2.4,1.7c-0.6,0.4-1.1,0.4-1.6,0.1c-0.6-0.3-0.9-0.8-0.9-1.4c0-0.7,0.4-0.9,1-1.1
		c4.4-1.8,8.5-4.3,12.3-7.3c1.4-1.1,2.6-2.4,3.9-3.6c0.3-0.3,0.5-0.6,0.8-0.7c0.3-0.1,0.7,0,1,0.1c0.4,0.2,0.6,0.6,0.3,1.1
		c-0.3,0.4-0.6,0.8-0.9,1.1c-0.5,0.6-1,1.1-1.5,1.7c-0.1,0.1-0.1,0.3-0.1,0.4c0.1,0,0.3,0,0.4-0.1c0.5-0.5,1.1-1,1.6-1.6
		c0.5-0.6,1-1.2,1.6-1.8c0.2-0.3,0.6-0.5,0.9-0.6c0.3-0.1,0.7,0.1,1,0.3c0.2,0.2,0.2,0.7,0.1,0.9c-0.4,0.6-0.9,1.2-1.4,1.7
		c-1.4,1.4-2.9,2.7-4.3,4.1c-0.6,0.6-1.1,1.3-1.6,2c-0.2,0.3-0.3,0.7-0.3,1c0,0.3,0.2,0.5,0.4,0.8c0.2-0.2,0.4-0.3,0.5-0.5
		c1.1-1.5,2.1-3.1,3.3-4.5c3-3.5,6.8-5.8,10.9-7.5c1.8-0.8,3.8-1.2,5.8-1.5c1.3-0.2,2.6,0.1,3.9,0.4c1.5,0.3,2.2,1.6,2.5,3
		c0.6,2.3-1.4,5.2-3.7,5.7c-0.3,0.1-0.6,0.1-0.9,0c-0.6-0.1-1.2-0.4-1.3-1c-0.1-0.6,0.2-1.1,0.7-1.5c0.4-0.2,0.8-0.4,1.1-0.7
		c1-0.8,1-1.9,0-2.7c-0.8-0.8-1.8-0.9-2.9-0.8c-2.9,0.3-5.5,1.7-8,3.1c-3.3,1.8-6.2,4-8.5,7.1c-0.1,0.2-0.3,0.3-0.4,0.5
		c-0.1,0.1,0,0.3-0.1,0.4c0.1,0,0.3,0,0.4-0.1c1.3-1,2.6-2,3.9-3c0.5-0.4,0.8-0.8,1.2-1.2c0.2-0.2,0.5-0.5,0.8-0.6
		c0.3-0.1,0.7-0.1,0.9,0.1c0.1,0.1,0.1,0.6,0,0.8c-0.1,0.3-0.4,0.6-0.7,0.9c-0.5,0.4-1,0.8-1.4,1.2c-0.2,0.2-0.2,0.6-0.4,0.9
		c0.3,0,0.6,0.2,0.9,0.1c1.4-0.6,2.8-1.3,3.7-2.6c0.4-0.5,0.7-1.1,1.1-1.6c0.6-0.6,1.1-0.5,1.5,0.2c0.6,1.3,0.5,2.6,0.3,3.9
		c-0.1,0.5-0.7,1.1-1.2,1.3c-1.1,0.5-1.7-0.1-1.9-1.5c0.4,0,0.7,0,1.1,0c0.8-0.1,1.1-0.4,1.1-1.2c0-0.4-0.2-0.7-0.5-0.4
		c-0.6,0.5-1.1,1.1-1.7,1.6c-0.6,0.4-1.2,0.8-1.9,1.1c-1,0.5-2.1,0.6-3.3,0.3c-2-0.5-3.3,0.7-4.7,1.8c-0.1,0.1-0.1,0.5-0.1,0.7
		c0,2,1.8,3.3,3.9,3.4c3.5,0.2,6.7-0.9,9.6-2.8c0.9-0.6,1.8-1.3,2.7-2c0.2-0.2,0.4-0.5,0.6-0.7c-0.3-0.1-0.6-0.1-0.8-0.2
		c-0.5-0.1-1-0.1-1.3-0.4c-0.2-0.1-0.3-0.6-0.4-0.9c0.3-0.1,0.5-0.2,0.8-0.3c0.1,0,0.2,0.1,0.3,0.1c1.1,0.2,1.3,0,1.3-1.1
		c0-0.3-0.2-0.6-0.2-0.9c-0.2,0.1-0.4,0.3-0.6,0.4c-0.2,0.2-0.5,0.5-0.7,0.6c-0.3,0.1-0.7,0-0.8-0.2c-0.1-0.2-0.1-0.7,0-0.8
		c0.7-0.8,1.4-1.6,2.1-2.4c0.2-0.2,0.6-0.3,0.8-0.2c0.2,0.1,0.4,0.5,0.4,0.7c0.1,1.3,0.2,2.6,0.3,3.9c0,0.4,0.1,0.5,0.5,0.2
		c0.4-0.3,0.8-0.6,1.2-0.8c0.2-0.1,0.7,0,0.8,0.1c0.2,0.2,0.3,0.6,0.2,0.8c-0.2,0.5-0.6,1-1,1.4
		C-304.2,307.8-305.2,308.9-306.3,309.9c0,0.1,0,0.1-0.1,0.1C-306.3,310-306.3,310-306.3,309.9z M-289.8,307
		c-0.2-0.1-0.4-0.2-0.5-0.2c-0.8,0.5-1.7,1.1-2.4,1.7c-0.1,0.1-0.1,0.6,0.1,0.8c0.1,0.2,0.6,0.2,0.8,0.1c0.7-0.6,1.3-1.2,1.9-1.9
		C-289.8,307.4-289.8,307.2-289.8,307z"/>
	<path class="st0" d="M-250.9,305.2c-1.3-0.1-2.6-0.2-4-0.3c-1-0.1-1.8,0.3-2.4,1.2c-0.7,1.1-1.5,2.1-2.1,3.1
		c-0.4,0.7-0.1,1.1,0.6,1.3c1,0.3,1.9-0.1,2.3-1.1c0.1-0.5,0.2-0.9,0.4-1.4c0.6-1.7,2.9-2.8,4.6-2.2c0.8,0.3,1.2,1,0.8,1.7
		c-0.6,1-1.5,1.8-2.7,2.1c-0.1,0-0.3,0-0.4-0.1c-0.1-0.1,0-0.3,0.1-0.4c0.4-0.4,0.9-0.8,1.3-1.2c0.1-0.1,0.1-0.2,0.1-0.3
		c-0.1-0.1-0.2-0.2-0.4-0.2c-0.8-0.1-1.5,0.4-1.8,1.3c-0.3,0.8,0,1.8,0.6,2.2c0.3,0.2,0.6,0.3,1,0c0.4-0.4,0.8-0.7,1.3-1
		c0.2-0.1,0.6-0.1,0.8-0.1c0,0.3,0.2,0.7,0.1,0.9c-0.4,0.8-1.1,1.4-2,1.5c-1.1,0.1-2.2,0.3-3.3-0.4c-0.7-0.4-1.4-0.5-2.1-0.1
		c-0.1,0-0.2,0.1-0.3,0.1c-1.8,0-3.7-0.2-5.5,0.1c-0.5,0.1-1.1-0.3-1.6-0.7c-0.7-0.6-1.3-0.6-2-0.1c-0.8,0.7-1.8,0.6-2.7,0.5
		c-2-0.3-2.9-2.1-1.7-3.8c0.9-1.3,2-2.3,3.6-2.7c0.6-0.2,1.2-0.2,1.6,0.3c0.4,0.5,0.4,1.1,0.2,1.6c-0.4,1-1.3,1.7-2.5,1.7
		c-0.1,0-0.3-0.1-0.4-0.2c0.1-0.1,0.1-0.3,0.3-0.4c0.3-0.2,0.7-0.3,1-0.5c0.1-0.1,0.2-0.4,0.1-0.6c-0.1-0.1-0.3-0.3-0.5-0.3
		c-0.9,0-2.1,1.7-1.8,2.6c0.2,0.7,0.8,0.7,1.3,0.5c1.2-0.3,2.3-0.7,3.1-1.6c0.8-0.9,1.6-1.9,2.2-2.9c0.6-0.9,0.4-1-0.6-1.2
		c-0.1,0-0.1,0-0.2,0c-0.3-0.2-0.7-0.3-0.8-0.5c-0.1-0.4,0.5-0.9,1-0.7c1.6,0.8,2.1-0.2,2.8-1.3c0.3-0.6,0.9-1,1.5-1.4
		c0.7-0.4,1.1-0.1,1,0.7c-0.1,0.6-0.4,1.2-0.6,1.8c-0.2,0.4-0.3,0.6,0.3,0.5c0.4,0,0.7-0.1,1.1-0.1c0.6,0,0.9-0.3,1.1-0.7
		c0.3-0.6,0.6-1.1,0.9-1.7c0.4-0.5,1-0.7,1.5-0.4c0.6,0.3,0.5,0.9,0.3,1.4c-0.1,0.2-0.2,0.5-0.3,0.7c-0.1,0.3-0.2,0.5-0.3,0.8
		c0.3,0,0.6,0.1,0.9,0.1c1.5-0.3,2.9-0.3,4.4,0.1c0.3,0.1,0.5,0.1,0.7,0.3c0.2,0.1,0.4,0.5,0.4,0.6c-0.1,0.3-0.3,0.6-0.6,0.6
		C-249.7,305.2-250.3,305.1-250.9,305.2C-250.9,305.1-250.9,305.1-250.9,305.2z M-260.3,304.5c-0.3,0.1-0.9,0.2-1.2,0.6
		c-1,1.3-2,2.7-2.9,4.1c-0.1,0.2-0.2,0.7,0,0.8c0.2,0.2,0.6,0.2,0.9,0.2c0.2,0,0.5-0.1,0.7-0.3c1.8-1.2,2.9-3,4-4.8
		c0.1-0.1-0.1-0.5-0.3-0.5C-259.4,304.5-259.7,304.5-260.3,304.5z"/>
	<path class="st0" d="M-274.3,300.4c-1.3-0.1-2.8-0.8-3.8-2.1c-1.2-1.6-2.6-2.2-4.5-1.7c-0.2,0-0.3,0.1-0.5,0
		c-0.2-0.1-0.4-0.2-0.7-0.3c0.1-0.2,0.2-0.4,0.3-0.5c0.5-0.6,0.5-0.9-0.2-1c-1.2-0.1-2.3-0.6-3.6-0.3c-0.8,0.2-1.7-0.1-2.5-0.2
		c-0.4-0.1-0.4-0.4-0.2-0.8c0.6-0.7,1.4-0.9,2.2-1.1c3.5-0.8,6.6,0.3,9.6,1.8c0.8,0.4,1.3,0.4,2-0.1c1.2-0.8,2.5-1.6,3.8-2.3
		c3.1-1.5,6.2-1.5,9.4-0.4c0.4,0.1,1.1,0.3,0.9,0.9c-0.1,0.3-0.7,0.6-1.1,0.7c-1.1,0.2-2.2,0.3-3.3,0.3c-2.6,0-4.7,1.4-6.8,2.8
		c-0.3,0.2-0.8,0.9-0.7,1.1c0.2,0.4,0.8,0.6,1.2,0.8c0.2,0.1,0.4,0,0.6,0.1c0.1,0.1,0.3,0.3,0.3,0.4
		C-271.8,299.7-272.6,300.4-274.3,300.4z"/>
	<path class="st0" d="M-276.3,311.2c-0.5,0.1-1,0.2-1.5,0.3c-1.2,0.1-2-0.5-2.1-1.6c-0.2-2.2,2.4-4.9,4.6-4.8c0.3,0,0.7,0.1,0.9,0.3
		c0.3,0.3,0.5,0.7,0.5,1.1c0,0.2-0.5,0.5-0.8,0.6c-0.7,0.2-1.4,0.2-2,0.4c-0.4,0.1-0.9,0.3-1.3,0.6c-0.5,0.4-0.5,1-0.1,1.6
		c0.4,0.5,0.8,0.7,1.4,0.3c0.4-0.3,0.9-0.6,1.3-0.9c0.3-0.2,0.5-0.5,0.8-0.8c0.4-0.3,0.9-0.4,1.3,0c0.2,0.3,0.3,0.8,0.2,1.1
		c-0.1,0.4-0.4,0.9-0.7,1.2c-1.6,1.8-2.8,3.8-3.7,6.1c-0.3,0.9-1.2,1.6-1.9,2.3c-0.4,0.4-1,0.6-1.6,0.2c-0.6-0.4-0.7-1-0.5-1.5
		c0.3-0.8,0.6-1.7,1.2-2.4c1.1-1.3,2.4-2.3,3.7-3.5C-276.6,311.6-276.5,311.4-276.3,311.2c0,0,0.1,0,0.1-0.1c0,0,0-0.1,0-0.1
		C-276.2,311.1-276.2,311.2-276.3,311.2z"/>
	<path class="st0" d="M-326.7,303.9c0,0,0-0.1,0.1-0.1C-326.7,303.8-326.7,303.8-326.7,303.9L-326.7,303.9z"/>
	<path class="st0" d="M-306.3,309.9c0,0,0,0.1-0.1,0.1C-306.3,310-306.3,310-306.3,309.9L-306.3,309.9z"/>
	<path class="st0" d="M-276.3,311.2c0-0.1,0.1-0.1,0.1-0.2c0,0,0,0.1,0,0.1C-276.2,311.2-276.2,311.2-276.3,311.2L-276.3,311.2z"/>
</g>
</svg>
