<?xml version="1.0" encoding="utf-8"?>
<!-- Generator: Adobe Illustrator 19.0.0, SVG Export Plug-In . SVG Version: 6.00 Build 0)  -->
<svg version="1.1" id="Layer_1" xmlns="http://www.w3.org/2000/svg" xmlns:xlink="http://www.w3.org/1999/xlink" x="0px" y="0px"
	 viewBox="-345 257 100 100" style="enable-background:new -345 257 100 100;" xml:space="preserve">
<style type="text/css">
	.st0{fill-rule:evenodd;clip-rule:evenodd;fill:#FCFCFC;}
</style>
<path class="st0" d="M-280.1,306v-15.8c0-0.1,0-0.1-0.1-0.1h-30.6c0,0-0.1,0-0.1,0.1V306c0,0,0,0,0,0c0.1,5.5,1.7,10.7,4.5,14.9
	c2.8,4.1,6.6,7.1,10.8,8.2c0,0,0,0,0,0c4.2-1.2,8-4.1,10.8-8.2C-281.9,316.8-280.3,311.6-280.1,306C-280.1,306-280.1,306-280.1,306
	 M-280.8,305.9C-280.8,305.9-280.8,306-280.8,305.9c-0.3,11-6.3,20.3-14.7,22.7c-8.4-2.4-14.5-11.7-14.7-22.6c0,0,0-0.1,0-0.1v-15.2
	h29.5V305.9z"/>
<path class="st0" d="M-295.5,324.9C-295.5,324.9-295.5,324.9-295.5,324.9c6.6-2.4,11.3-10.2,11.5-19c0-0.1,0-0.1,0-0.2v-11.5
	c0,0,0-0.1-0.1-0.1h-22.8c0,0-0.1,0-0.1,0.1v11.5c0,0,0,0.1,0,0.2C-306.8,314.6-302.1,322.4-295.5,324.9 M-295.5,324.2
	c-6.2-2.4-10.7-10-10.9-18.3c0-0.1,0-0.1,0-0.2c0,0,0-8.8,0-10.7c0.1,0.1,0.1,0.3,0.2,0.4c0.2,0.3,0.6,1,0.6,1s0,0.3-0.1,0.4
	c-0.1,0,0.2,0.2,0.3,0.4c0.1,0.1,0.3,0.5,0.5,0.6c0.2,0,0.2-0.2,0.1-0.4c-0.1-0.2-0.4-0.8-0.4-0.8s-0.1-0.3-0.2-0.6
	c-0.1-0.3-0.3-0.7-0.3-0.7s0.7,0.2,0.8,0.6c0,0.2,0.3,1.2,0.5,1.8c0.1,0.3,0.4,0.6,0.6,0.9c0.2,0.3,0.7,0.8,1.3,1
	c0.6,0.2,1.3-0.2,1.6,0c0.3,0.2,0.9,0.8,1.3,0.9c0.4,0.1,1.4,0.3,1.7,0.8c0.2,0.4,0.7,0.5,1,0.5c0.3,0,1.1,0.4,1.1,1.2l-0.7,1.4
	c0,0-0.5,0.6-0.6,1.1c-0.1,0.5-0.4,0.8,0.2,1.6c0.5,0.8,0.9,1.7,0.9,2.4c0,0.7,0.7,0.8,1.1,1.1c0.4,0.3,0,0.6-0.3,1.3
	c-0.3,0.7-0.1,2-0.4,2.9c-0.3,0.9-0.6,1.2-0.6,1.9c0,0.7,0,1.4-0.2,2c-0.3,0.6-0.1,1.2-0.1,1.8c0,0.7,0.1,1.4,0.6,2
	c0.4,0.6,1.4,0.8,1.3,0c-0.1-0.9,0-2,0.6-2.6l0.5-0.6c0,0-0.1-0.8,0.4-1.2c0.5-0.4,0.9-0.6,0.6-0.7c-0.3-0.1,0-0.4,0.3-0.4
	c0.3,0,0.4,0.1,1.1-0.7c0.7-0.8,0.9-1,1.6-1.4c0.7-0.4,1-1.2,1.4-1.6c0.4-0.4,1.2-0.8,1.7-0.9c0.5-0.1,0.7-0.6,0.7-1.1
	c0-0.6-0.2-1,0.2-1.6c0.4-0.6,0.2-0.7,0.5-1C-285.8,315.8-290,322-295.5,324.2 M-284.6,305.7c0,0,0,0.1,0,0.2c0,0.3,0,0.7-0.1,1
	c-0.3-0.3-0.8-0.5-1.1-0.9c-0.3-0.4-0.8-0.7-1-0.7c-0.2-0.1-0.3-0.3-0.7-0.2c-0.5,0.1-0.9,0-1-0.5c-0.1-0.5,0-1-0.5-1.2
	c-0.5-0.3-0.8-0.6-1.1-0.8c-0.3-0.3-0.7-0.7-0.8-0.8c-0.1,0-1,0-1,0s-0.5-0.5-1.3-0.3c0,0-0.5-0.7-1-0.3c-0.5,0.4-1,0.7-1.3,0.3
	c-0.3-0.4-0.8-0.2-1.2-0.2c-0.3,0-0.7-0.6-0.7-0.8c-0.1-0.3,0-0.7-0.1-0.7c-0.1,0-0.7,0.2-1-0.1c-0.4-0.3-0.2-0.5,0-0.7
	c0.1-0.2,0.3-1.1,0.2-1.3l-0.4,0c0,0-0.5-0.1-0.6,0.3c-0.1,0.4-0.7,0.7-1.2,0.6c-0.5-0.1-0.8-0.4-1-0.9c-0.2-0.5-0.1-0.8,0-1
	c0.1-0.3-0.3-0.7-0.4-0.9c-0.1-0.1-0.1,0.1-0.4-0.4c-0.1-0.2-0.3-0.4-0.5-0.6h18.4V305.7z"/>
<path class="st0" d="M-304,277.5c-0.6-0.3-1.2-0.2-1.5,0.1c-0.2,0.2-0.2,0.2-0.3,0.3c-0.1,0-1,0-1.4,0.4c-0.2,0.2-0.2,0.6-0.1,1
	c0.5,1.4,0.6,1.7,0.6,1.7c0,0,0,0,0,0c0,0,0.9,0.9,0.5,1.8c-0.4,0.9-0.4,1.2,0.2,1.4c0.4,0.2,0.6,0.5,0.6,1.4v0.1
	c0,0.6,0,1.2,0.3,1.5c0.2,0.2,0.4,0.2,0.7,0.2c0.2,0,0.4-0.1,0.5-0.2c0.4-0.5,0.3-1.7,0.2-2.3c-0.1-0.5-0.4-1.6,0-1.9
	c0.4-0.3,0.6-0.4,0.8-0.1c0,0,0,0,0.1,0c0.2,0,0.5-0.2,0.5-0.6c0-0.2-0.1-0.3-0.1-0.4c0,0,0,0,0,0c0,0,0.1,0,0.2,0
	c0.3,0.1,0.5,0,0.6-0.2c0.1-0.2,0.2-0.4,0.1-0.6c-0.2-0.4-0.8-1.5-1.3-1.9l-0.1-0.1c-0.3-0.3-0.3-0.3-0.3-0.5
	C-303.1,278.2-303.4,277.8-304,277.5 M-302.8,282.1C-302.8,282.2-302.7,282.2-302.8,282.1c-0.4-0.1-0.9,0.2-1.1,0.4
	c-0.6,0.5-0.4,1.5-0.2,2.5c0.2,0.7,0.2,1.6-0.1,1.8c0,0,0,0-0.1,0c-0.1,0-0.2,0-0.3-0.1c-0.1-0.1-0.1-0.7-0.1-1.1v-0.1
	c0-1-0.2-1.5-0.9-1.8c-0.1,0-0.1-0.1-0.1-0.1c0,0,0-0.2,0.2-0.6c0.5-1-0.3-2-0.6-2.3c-0.1-0.2-0.2-0.7-0.6-1.6
	c-0.1-0.2-0.1-0.4,0-0.5c0.1-0.2,0.7-0.2,0.9-0.2c0,0,0.1,0,0.1,0c0.1,0,0.3-0.1,0.6-0.4c0.1-0.1,0.4-0.2,0.8,0
	c0.5,0.2,0.6,0.4,0.6,0.5c0,0.5,0.1,0.6,0.4,0.9l0.1,0.1c0.4,0.4,1,1.3,1.2,1.7c0,0,0,0.1,0,0.1c0,0,0,0-0.1,0
	c-0.2-0.1-0.5-0.1-0.7,0.1C-302.9,281.8-302.8,282-302.8,282.1"/>
<path class="st0" d="M-305.1,279.5c-0.3,0-0.5,0.2-0.5,0.5c0,0.3,0.2,0.5,0.5,0.5c0.3,0,0.5-0.2,0.5-0.5
	C-304.6,279.7-304.8,279.5-305.1,279.5"/>
<path class="st0" d="M-309.9,279.7c-0.1,0-2.1,0.5-2.1,1.9c0,1.3,1.3,1.4,1.3,1.4c0,0,0.1,0,0.1,0c0,0,0-0.1,0-0.1
	c-0.2-0.2-0.3-0.4-0.2-0.6c0-0.2,0.2-0.3,0.4-0.4c0.2-0.1,0.5-0.3,0.5-0.6c-0.1-0.6,0.2-1.4,0.2-1.4
	C-309.8,279.8-309.8,279.8-309.9,279.7C-309.9,279.7-309.9,279.7-309.9,279.7 M-311.4,282.1c-0.1-0.1-0.1-0.3-0.1-0.5
	c0-0.5,0.5-0.8,1-1.1c0,0.3,0,0.5,0,0.7c0,0-0.2,0.1-0.2,0.1C-310.9,281.5-311.3,281.7-311.4,282.1"/>
<path class="st0" d="M-308.8,282c-0.8,0.4-1.4,0.8-1.4,0.8c0,0,0,0.1,0,0.1c0,0,0,0.1,0.1,0.1c0.3,0.1,2.6,0.6,3,0.5
	c0.2,0,0.7-0.2,0.9-0.7c0.2-0.4,0.1-0.9-0.3-1.5c-0.7-1.3-1.1-2.3-1.1-2.3c0,0-0.1-0.1-0.1,0c0,0-2.2,0.5-1.8,2.6c0,0,0,0.1,0.1,0.1
	h0.8c0.1,0,0.3,0.1,0.3,0.2C-308.5,281.8-308.5,281.9-308.8,282 M-308,281.7c-0.1-0.5-0.6-0.6-0.7-0.6c0,0-0.1,0-0.1,0h-0.3
	c0-0.8,0.7-1.3,1.1-1.5c0.2,0.4,0.5,1.1,0.9,1.9c0,0,0,0,0,0c0.2,0.3,0.4,0.7,0.3,1c-0.1,0.3-0.4,0.4-0.5,0.4
	c-0.1,0-0.8-0.1-1.6-0.3c0.1-0.1,0.2-0.1,0.4-0.2C-308.4,282.4-307.9,282.2-308,281.7"/>
<path class="st0" d="M-305.2,287.6c0-0.1-0.1-0.1-0.2-0.2l-0.5-0.3c0,0,0,0,0,0c0,0-0.3-0.1-0.6,0.2l-2.3,1.7
	c-0.1,0-0.3,0.2-0.2,0.4c0,0.1,0.1,0.1,0.2,0.1c0.3,0.1,1.3,0.2,1.4,0.2c0,0,0.5,0,0.7-0.2c0.2-0.2,1.2-1.4,1.3-1.5
	C-305.3,288-305.1,287.7-305.2,287.6 M-307,289.1c0,0-0.2,0-0.3,0l-0.6-0.1l1.8-1.3c0,0,0,0,0.1,0c0,0,0,0,0.1,0l0.2,0.1
	C-306.2,288.2-306.8,288.9-307,289.1"/>
<path class="st0" d="M-306.1,289.8c0.4,0,0.9,0.1,0.9,0.1c0.1,0,0.4,0,0.6-0.4l0.6-1.2c0,0,0.1-0.2,0.1-0.3c0-0.1-0.1-0.1-0.2-0.2
	c-0.3-0.1-0.4-0.1-0.4-0.1c0,0-0.4-0.1-0.5,0.1c-0.1,0.2-1.1,1.4-1.1,1.4c0,0-0.2,0.2-0.1,0.4C-306.3,289.7-306.2,289.7-306.1,289.8
	 M-305.2,289.3c0,0-0.2,0-0.5,0c0.3-0.3,0.7-0.9,0.9-1.1c0,0,0.1,0,0.2,0c-0.1,0.3-0.5,1-0.5,1
	C-305.1,289.3-305.1,289.3-305.2,289.3"/>
<path class="st0" d="M-303.8,289.9h0.7c0.2,0,0.5-0.1,0.5-0.5v-1.3c0,0,0,0,0,0c0,0-0.1-0.2-0.5-0.2c-0.3,0-0.4,0-0.4,0
	c0,0-0.3,0-0.4,0.3c-0.1,0.2-0.5,1.1-0.5,1.1c0,0-0.1,0.2,0,0.4C-304.2,289.8-304.1,289.9-303.8,289.9 M-303.1,289.3L-303.1,289.3
	l-0.7,0h0c0.1-0.2,0.3-0.7,0.4-1c0.1,0,0.2,0,0.3,0V289.3z"/>
<path class="st0" d="M-300.4,289.8l0.7-0.1c0,0,0.1,0,0.2-0.1c0.1-0.1,0.1-0.2,0-0.4c-0.2-0.4-0.9-2-1-2c0,0,0,0,0,0
	c0,0-0.2-0.2-0.3-0.1c0,0,0,0,0,0l-0.4,0.3c-0.1,0-0.2,0.2-0.1,0.4c0.1,0.3,0.5,1.7,0.5,1.7c0,0,0,0,0,0
	C-300.9,289.6-300.8,289.8-300.4,289.8 M-300.9,287.7c0.2,0.4,0.5,1.1,0.7,1.5c-0.1,0-0.3,0-0.3,0h0
	C-300.6,289-300.8,288.1-300.9,287.7L-300.9,287.7z"/>
<path class="st0" d="M-302.2,289.9c0.2,0,0.9,0,0.9,0c0,0,0.2,0,0.2-0.1c0.1-0.1,0.1-0.2,0-0.3l-0.6-1.6c0,0,0,0,0,0
	c0-0.1-0.2-0.3-0.4-0.2c-0.2,0.1-0.4,0.1-0.4,0.1c0,0,0,0,0,0c0,0-0.1,0.1-0.1,0.3c0,0.2,0.1,1.4,0.1,1.5
	C-302.5,289.7-302.4,289.9-302.2,289.9 M-302,289.4c0-0.4,0-0.9-0.1-1.2h0l0.4,1.2L-302,289.4z"/>
<path class="st0" d="M-299.1,289.7c0.3,0,0.6-0.1,0.7-0.1c0,0,0.2,0,0.3-0.2c0.1-0.1,0.1-0.3-0.1-0.6c-0.3-0.6-1.4-2.3-1.5-2.5
	c0,0-0.1-0.1-0.2-0.2c-0.1,0-0.2,0-0.2,0.1c0,0-0.4,0.4-0.4,0.4c-0.1,0.1-0.2,0.3-0.1,0.5c0.1,0.3,1,2.1,1,2.1c0,0,0,0,0,0
	C-299.5,289.5-299.3,289.7-299.1,289.7 M-300,287.1c0,0,0.1-0.1,0.2-0.1c0.3,0.5,1,1.7,1.3,2.1c-0.1,0-0.3,0.1-0.5,0.1
	C-299.2,288.9-299.9,287.4-300,287.1"/>
<path class="st0" d="M-313,308.6c-1.2-0.5-2.2-0.1-2.2,0.9c0,2.4,4.9,2,4.1-2.1c-0.5-2.4-1.9-5.4-2.2-9.8c-0.4-4.4,2-5.9,2-5.9v-1.1
	c-3.7,1.8-3,9.9-1.9,13.6C-312.1,308-313,308.6-313,308.6"/>
<path class="st0" d="M-275.7,309.6c0-1-1.1-1.5-2.2-0.9c0,0-0.8-0.6,0.3-4.3c1.1-3.7,1.9-11.8-1.9-13.6v1.1c0,0,2.4,1.4,2,5.9
	c-0.4,4.4-1.8,7.4-2.2,9.8C-280.6,311.6-275.7,311.9-275.7,309.6"/>
<path class="st0" d="M-314.4,312l-2.3,1.9c-2.7-2.1-3.8,0.4-3.8,0.4c1-0.2,1.8,0.1,1.8,0.1c-2.1,0.6-1.5,1.9-1.5,1.9s2.1-1.3,3,0.2
	c1.1,1.9-0.3,3.3-0.3,3.3c3.5,0,2.3-4.7,2.3-4.7l3.1-3H-314.4z"/>
<path class="st0" d="M-270.9,314.2c0,0-1.2-2.4-3.8-0.4l-2.3-1.9h-2.2l3.1,3c0,0-1.2,4.7,2.3,4.7c0,0-1.4-1.4-0.3-3.3
	c0.9-1.4,3-0.2,3-0.2s0.5-1.3-1.5-1.9C-272.6,314.3-271.9,314-270.9,314.2"/>
<path class="st0" d="M-311.4,294.5l0-1.9c-0.1,0.4-0.4,0.6-0.7,0.8c-0.3,0.2-0.2,0.4-0.2,0.4C-311.6,293.8-311.4,294.5-311.4,294.5"
	/>
<path class="st0" d="M-311.8,299.3c0.1,1.3,0.5,0.8,0.5,0.8s-0.1-2.1-0.1-2.5c0-0.4-1.3-0.2-1.3,0.2c0,0.4,0.2,2.2,0.2,2.2l0.4-0.1
	l-0.1-1.6C-312.3,298.4-312,298-311.8,299.3"/>
<path class="st0" d="M-311.6,303.6c0.3,0.4,0.4-1.7,0.3-2.1c0,0-0.9-0.3-0.8,0.2C-312.1,302.2-312,303.1-311.6,303.6"/>
<path class="st0" d="M-312.8,295.6c0,0.4,1.3,0.2,1.3,0.2v-0.7C-311.5,295.2-312.8,295-312.8,295.6"/>
<path class="st0" d="M-311.5,296.9v-0.7c0,0-1.3-0.2-1.3,0.4C-312.8,297-311.5,296.9-311.5,296.9"/>
<path class="st0" d="M-308.1,319.7c0-0.2-0.2-0.4-0.4-0.4c-0.2,0-0.4,0.2-0.4,0.4c0,0.2,0.2,0.4,0.4,0.4
	C-308.3,320.1-308.1,319.9-308.1,319.7"/>
<path class="st0" d="M-278.5,315.5c-0.2,0-0.4,0.2-0.4,0.4c0,0.2,0.2,0.4,0.4,0.4c0.2,0,0.4-0.2,0.4-0.4
	C-278.2,315.7-278.3,315.5-278.5,315.5"/>
<path class="st0" d="M-279.5,316.1c0-0.2-0.2-0.4-0.4-0.4c-0.2,0-0.4,0.2-0.4,0.4c0,0.2,0.2,0.4,0.4,0.4
	C-279.6,316.5-279.5,316.3-279.5,316.1"/>
<path class="st0" d="M-280.6,316.3c0-0.2-0.2-0.4-0.4-0.4c-0.2,0-0.4,0.2-0.4,0.4c0,0.2,0.2,0.4,0.4,0.4
	C-280.8,316.7-280.6,316.5-280.6,316.3"/>
<path class="st0" d="M-312.1,323.1l0.2-2.3c0,0-0.2-0.5-0.9-0.1l-0.1,1.8c0,0-0.4,0.7-1.2-0.1l0.1-1.8c0,0-0.3-0.4-0.8-0.1l-0.1,2.4
	C-314.9,322.8-313.8,324.3-312.1,323.1"/>
<path class="st0" d="M-313.4,322.1c0.1,0,0.2-0.1,0.3-0.2l0-0.8c0-0.1-0.1-0.3-0.2-0.3c-0.1,0-0.2,0.1-0.3,0.2l0,0.8
	C-313.7,322-313.6,322.1-313.4,322.1"/>
<path class="st0" d="M-308.8,323.6l0.2-2.2c0,0-0.2-0.4-0.8-0.1l-0.1,1.7c0,0-0.4,0.6-1.2-0.1l0.1-1.7c0,0-0.3-0.4-0.8-0.1l-0.1,2.3
	C-311.6,323.3-310.5,324.7-308.8,323.6"/>
<path class="st0" d="M-310.1,322.7c0.1,0,0.2-0.1,0.2-0.2l0-0.7c0-0.1-0.1-0.2-0.2-0.2c-0.1,0-0.2,0.1-0.2,0.2l0,0.7
	C-310.3,322.5-310.2,322.7-310.1,322.7"/>
<path class="st0" d="M-305.9,323.8l0.1-1.2c0,0-0.1-0.6-0.7-0.2l-0.1,0.5c0,0-0.3,0.4-0.3-0.3l0.1-0.7c0,0-0.2-0.2-0.4,0.1l0,0.9
	c0,0-0.2,0.2-0.4,0l0.1-1.3c0,0-0.2-0.5-0.7-0.1l-0.1,2C-308.3,323.5-307.5,324.9-305.9,323.8"/>
<path class="st0" d="M-313.4,318.9c0-0.2-0.2-0.4-0.4-0.4c-0.2,0-0.4,0.2-0.4,0.4c0,0.2,0.2,0.4,0.4,0.4
	C-313.6,319.3-313.4,319.1-313.4,318.9"/>
<path class="st0" d="M-311.5,319.2c0-0.2-0.2-0.4-0.4-0.4c-0.2,0-0.4,0.2-0.4,0.4c0,0.2,0.2,0.4,0.4,0.4
	C-311.7,319.6-311.5,319.4-311.5,319.2"/>
<path class="st0" d="M-310,319.4c0-0.2-0.2-0.4-0.4-0.4c-0.2,0-0.4,0.2-0.4,0.4c0,0.2,0.2,0.4,0.4,0.4
	C-310.2,319.8-310,319.6-310,319.4"/>
<path class="st0" d="M-311.9,312.7l0,1.4l0.9,0.7C-311,314.9-310.5,313.2-311.9,312.7"/>
<path class="st0" d="M-310.6,316.3c-0.1,0.1-0.3,0.4-0.4-0.1c-0.1-0.5-0.5-0.4-0.7-0.4c-0.2,0-0.5,0.8-0.7,0.3
	c-0.2-0.6-0.3-0.9-1-0.8v1.4l3.6,0.8c0,0,0-1-0.2-1.1C-310.1,316.2-310.5,316.2-310.6,316.3"/>
<path class="st0" d="M-309.6,318.1c0,0-2.4-0.7-3.6-0.8l0,0.6l3.7,0.9C-309.5,318.7-309.4,318.6-309.6,318.1"/>
<path class="st0" d="M-276.3,322.8l-0.1-2.4c-0.5-0.3-0.8,0.1-0.8,0.1l0.1,1.8c-0.8,0.7-1.2,0.1-1.2,0.1l-0.1-1.8
	c-0.7-0.3-0.9,0.1-0.9,0.1l0.2,2.3C-277.4,324.3-276.3,322.8-276.3,322.8"/>
<path class="st0" d="M-278.1,321.9c0,0.1,0.1,0.2,0.3,0.2c0.1,0,0.2-0.1,0.2-0.2l0-0.8c0-0.1-0.1-0.2-0.3-0.2
	c-0.1,0-0.2,0.1-0.2,0.3L-278.1,321.9z"/>
<path class="st0" d="M-279.7,323.3l-0.1-2.3c-0.5-0.2-0.8,0.1-0.8,0.1l0.1,1.7c-0.8,0.7-1.2,0.1-1.2,0.1l-0.1-1.7
	c-0.6-0.3-0.8,0.1-0.8,0.1l0.2,2.2C-280.8,324.7-279.7,323.3-279.7,323.3"/>
<path class="st0" d="M-281.2,321.5c-0.1,0-0.2,0.1-0.2,0.2l0,0.7c0,0.1,0.1,0.2,0.2,0.2c0.1,0,0.2-0.1,0.2-0.2l0-0.7
	C-281,321.6-281.1,321.5-281.2,321.5"/>
<path class="st0" d="M-284.7,323l-0.1-0.5c-0.6-0.4-0.7,0.2-0.7,0.2l0.1,1.2c1.6,1.1,2.4-0.3,2.4-0.3l-0.1-2
	c-0.5-0.4-0.7,0.1-0.7,0.1l0.1,1.3c-0.3,0.2-0.4,0-0.4,0l0-0.9c-0.2-0.3-0.4-0.1-0.4-0.1l0,0.7C-284.4,323.4-284.7,323-284.7,323"/>
<path class="st0" d="M-323.8,278c0.3-0.1,0.5-0.3,0.4-0.7l-1.2-2.9l-0.3,0.1l1.1,2.8c0.1,0.2,0.1,0.3-0.1,0.4
	c-0.2,0.1-0.3,0-0.4-0.2l-1.1-2.8l-0.3,0.1l1.2,2.9C-324.4,278.1-324.1,278.1-323.8,278"/>
<polygon class="st0" points="-322.4,277.5 -323.4,274.4 -323.4,274.4 -322,277.4 -321.6,277.3 -322.6,273.8 -322.9,273.8 
	-322,276.8 -322,276.8 -323.3,274 -323.8,274.1 -322.7,277.6 "/>
<polygon class="st0" points="-320.7,277 -321.6,273.5 -321.9,273.6 -321,277.1 "/>
<polygon class="st0" points="-319.4,276.7 -319.8,273.1 -320.1,273.1 -319.7,276.5 -319.7,276.5 -320.8,273.3 -321.1,273.4 
	-319.9,276.8 "/>
<polygon class="st0" points="-317.7,276.4 -317.8,276.1 -318.3,276.2 -318.6,274.8 -318.1,274.7 -318.1,274.4 -318.6,274.5 
	-318.9,273.2 -318.4,273.1 -318.4,272.8 -319.3,273 -318.6,276.6 "/>
<path class="st0" d="M-316.9,276.2l-0.3-1.7l0.2,0c0.2,0,0.3,0,0.3,0.2l0.3,1.5l0.3-0.1l-0.3-1.5c0-0.2-0.2-0.3-0.4-0.3v0
	c0.3-0.1,0.3-0.2,0.3-0.5l-0.2-0.9c-0.1-0.4-0.3-0.4-0.6-0.3l-0.6,0.1l0.6,3.6L-316.9,276.2z M-317.4,272.9l0.2,0
	c0.2,0,0.3,0,0.3,0.2l0.1,0.8c0,0.2,0,0.3-0.2,0.3l-0.2,0L-317.4,272.9z"/>
<path class="st0" d="M-315.9,273.3c0,0.2,0.1,0.3,0.2,0.4l0.6,0.8c0.1,0.1,0.1,0.2,0.1,0.3l0.1,0.5c0,0.2,0,0.3-0.2,0.3
	c-0.1,0-0.2-0.1-0.3-0.2l-0.1-0.5l-0.3,0.1l0.1,0.5c0.1,0.4,0.3,0.5,0.6,0.4c0.3,0,0.5-0.3,0.5-0.6l-0.1-0.6c0-0.2-0.1-0.3-0.2-0.4
	l-0.7-0.8c-0.1-0.1-0.1-0.2-0.1-0.3l-0.1-0.4c0-0.1,0-0.3,0.2-0.3c0.2,0,0.2,0.1,0.2,0.2l0.1,0.4l0.3-0.1l-0.1-0.5
	c0-0.3-0.2-0.5-0.6-0.4c-0.3,0.1-0.5,0.3-0.4,0.6L-315.9,273.3z"/>
<polygon class="st0" points="-313.6,275.7 -314.1,272.1 -314.4,272.1 -313.9,275.8 "/>
<path class="st0" d="M-312.3,275.6c0.5-0.1,0.5-0.3,0.5-0.7l-0.3-2.4c0-0.4-0.2-0.6-0.6-0.5l-0.6,0.1l0.5,3.6L-312.3,275.6z
	 M-312.8,272.2c0.2,0,0.3,0,0.3,0.2l0.3,2.5c0,0.2,0,0.3-0.3,0.3l-0.2,0l-0.4-3.1L-312.8,272.2z"/>
<path class="st0" d="M-311,274.4l0.6-0.1l0.2,1l0.3,0l-0.9-3.6l-0.5,0.1l-0.1,3.7l0.3,0L-311,274.4z M-311,272L-311,272l0.5,2.1
	l-0.5,0.1L-311,272z"/>
<path class="st0" d="M-308.8,275.2c0.5,0,0.5-0.3,0.5-0.6l-0.2-2.5c0-0.4-0.2-0.6-0.6-0.5l-0.6,0.1l0.3,3.6L-308.8,275.2z
	 M-309.2,271.8c0.2,0,0.3,0,0.3,0.3l0.2,2.5c0,0.2,0,0.3-0.3,0.3l-0.2,0l-0.3-3.1L-309.2,271.8z"/>
<polygon class="st0" points="-306.5,275 -306.7,271.7 -306.7,271.7 -306.1,274.9 -305.6,274.9 -305.9,271.3 -306.2,271.3 
	-305.9,274.4 -305.9,274.4 -306.6,271.3 -307.1,271.3 -306.8,275 "/>
<path class="st0" d="M-304.7,273.8l0.6,0l0.2,1l0.3,0l-0.8-3.6l-0.5,0l-0.3,3.7l0.3,0L-304.7,273.8z M-304.6,271.4L-304.6,271.4
	l0.4,2.1l-0.5,0L-304.6,271.4z"/>
<path class="st0" d="M-302.7,274.8c0.3,0,0.5-0.2,0.5-0.5l0-0.5l-0.3,0l0,0.5c0,0.2,0,0.2-0.2,0.2c-0.1,0-0.2-0.1-0.2-0.2l-0.1-2.7
	c0-0.2,0-0.2,0.2-0.2c0.1,0,0.2,0.1,0.2,0.2l0,0.5l0.3,0l0-0.5c0-0.3-0.2-0.5-0.5-0.5c-0.4,0-0.5,0.2-0.5,0.5l0.1,2.7
	C-303.2,274.6-303,274.8-302.7,274.8"/>
<rect x="-303.4" y="272.7" transform="matrix(4.039446e-02 0.9992 -0.9992 4.039446e-02 -16.782 563.1764)" class="st0" width="3.7" height="0.3"/>
<path class="st0" d="M-300.1,274.7c0.5,0,0.6-0.3,0.6-0.6l-0.1-2.5c0-0.4-0.2-0.6-0.6-0.6c-0.5,0-0.6,0.3-0.6,0.6l0.1,2.5
	C-300.7,274.4-300.6,274.7-300.1,274.7 M-300.2,271.2c0.2,0,0.3,0.1,0.3,0.3l0.1,2.5c0,0.2,0,0.3-0.2,0.4c-0.2,0-0.3-0.1-0.3-0.3
	l-0.1-2.5C-300.5,271.4-300.4,271.2-300.2,271.2"/>
<polygon class="st0" points="-298.6,274.6 -298.7,271.3 -298.7,271.3 -298.2,274.6 -297.7,274.6 -297.8,270.9 -298.1,270.9 
	-298,274.1 -298,274.1 -298.5,270.9 -299,270.9 -298.9,274.6 "/>
<path class="st0" d="M-296.8,273.5l0.6,0l0.1,1h0.3l-0.6-3.7l-0.5,0l-0.5,3.7l0.3,0L-296.8,273.5z M-296.5,271.2L-296.5,271.2
	l0.3,2.1l-0.5,0L-296.5,271.2z"/>
<polygon class="st0" points="-294.4,274.3 -294.9,274.3 -294.9,270.9 -295.3,270.9 -295.3,274.6 -294.4,274.6 "/>
<path class="st0" d="M-292.8,273.6l0.6,0l0.1,1l0.3,0l-0.5-3.7l-0.5,0l-0.6,3.7l0.3,0L-292.8,273.6z M-292.5,271.2L-292.5,271.2
	l0.2,2.1l-0.5,0L-292.5,271.2z"/>
<path class="st0" d="M-290.8,274.7c0.3,0,0.6-0.1,0.6-0.5l0.1-3.2l-0.3,0l-0.1,3.1c0,0.3-0.1,0.3-0.3,0.3c-0.2,0-0.3-0.1-0.2-0.4
	l0.1-3.1l-0.3,0l-0.1,3.2C-291.4,274.5-291.1,274.7-290.8,274.7"/>
<polygon class="st0" points="-289.4,274.7 -289,274.7 -288.9,271.3 -288.5,271.3 -288.5,271.1 -289.6,271 -289.6,271.3 
	-289.2,271.3 "/>
<path class="st0" d="M-287.6,274.8c0.4,0,0.6-0.2,0.6-0.6l0.1-2.5c0-0.4-0.1-0.6-0.6-0.6c-0.4,0-0.6,0.2-0.6,0.6l-0.1,2.5
	C-288.1,274.5-288,274.8-287.6,274.8 M-287.8,274.2l0.1-2.5c0-0.2,0.1-0.3,0.3-0.3c0.2,0,0.2,0.2,0.2,0.4l-0.1,2.5
	c0,0.2-0.1,0.3-0.3,0.3C-287.8,274.5-287.8,274.4-287.8,274.2"/>
<polygon class="st0" points="-285.8,271.6 -285.8,271.6 -285.6,274.9 -285.2,274.9 -284.9,271.3 -285.2,271.3 -285.4,274.4 
	-285.4,274.4 -285.6,271.2 -286.1,271.2 -286.4,274.8 -286.1,274.9 "/>
<path class="st0" d="M-284,275c0.4,0,0.6-0.2,0.6-0.6l0.2-2.5c0-0.4-0.1-0.6-0.5-0.7c-0.5,0-0.6,0.2-0.6,0.6l-0.2,2.5
	C-284.5,274.7-284.4,275-284,275 M-284.2,274.4l0.2-2.5c0-0.2,0.1-0.3,0.3-0.3c0.2,0,0.2,0.2,0.2,0.4l-0.2,2.5
	c0,0.2-0.1,0.3-0.3,0.3C-284.2,274.7-284.2,274.6-284.2,274.4"/>
<polygon class="st0" points="-282.2,271.8 -282.2,271.8 -282.1,275.2 -281.7,275.2 -281,271.9 -281,271.9 -281.3,275.3 -281,275.3 
	-280.6,271.6 -281.2,271.6 -281.8,274.8 -281.9,274.8 -281.9,271.5 -282.4,271.5 -282.8,275.1 -282.5,275.1 "/>
<path class="st0" d="M-280,274.4l0.6,0.1l0,1l0.3,0l-0.1-3.7l-0.5-0.1l-1,3.6l0.3,0L-280,274.4z M-279.4,272L-279.4,272l0,2.1
	l-0.5-0.1L-279.4,272z"/>
<polygon class="st0" points="-274.4,272.8 -274.4,272.8 -274.6,276.2 -274.2,276.2 -273.2,273 -273.2,273 -273.8,276.3 
	-273.5,276.4 -272.9,272.8 -273.4,272.7 -274.3,275.8 -274.3,275.8 -274.1,272.5 -274.6,272.4 -275.3,276.1 -275,276.1 "/>
<polygon class="st0" points="-272,276.6 -272,276.4 -272.5,276.3 -272.2,274.8 -271.7,274.9 -271.6,274.6 -272.2,274.5 
	-271.9,273.2 -271.4,273.3 -271.3,273.1 -272.2,272.9 -272.9,276.5 "/>
<polygon class="st0" points="-271.7,276.7 -271.4,276.8 -270.7,275.4 -270.7,275.4 -270.8,276.9 -270.4,277 -270.5,275.1 
	-269.6,273.4 -270,273.4 -270.6,274.7 -270.6,274.7 -270.5,273.2 -270.9,273.2 -270.8,275 "/>
<polygon class="st0" points="-269.7,277.2 -268.8,273.7 -269.1,273.6 -270,277.1 "/>
<path class="st0" d="M-268.6,277.5c0.3,0.1,0.6,0,0.7-0.3l0.2-0.5l-0.3-0.1l-0.2,0.5c0,0.1-0.1,0.2-0.2,0.2c-0.1,0-0.2-0.1-0.1-0.3
	l0.8-2.6c0-0.2,0.1-0.2,0.2-0.2c0.1,0,0.2,0.1,0.1,0.3l-0.1,0.5l0.3,0.1l0.1-0.5c0.1-0.3,0-0.5-0.4-0.6c-0.3-0.1-0.6,0-0.7,0.3
	l-0.8,2.6C-269.1,277.2-269,277.5-268.6,277.5"/>
<path class="st0" d="M-267.2,278.1c0.4,0.2,0.6,0,0.8-0.4l0.9-2.3c0.1-0.3,0.1-0.6-0.3-0.8c-0.4-0.2-0.6,0-0.8,0.4l-0.9,2.3
	C-267.6,277.6-267.6,277.9-267.2,278.1 M-267.2,277.4l0.9-2.3c0.1-0.2,0.2-0.3,0.4-0.2c0.2,0.1,0.2,0.2,0.1,0.4l-0.9,2.3
	c-0.1,0.2-0.2,0.3-0.4,0.2C-267.3,277.7-267.3,277.6-267.2,277.4"/>
<path class="st0" d="M-327.3,277.1c0.6,0.9,0.8,1.1,0.8,1.9l0,0.2c0,0.6,0,1.2,0.4,1.6c0.4,0.4,0.9,0.5,1.8,0.5
	c0.6,0,1.5-0.2,2.6-0.4c1.6-0.3,3.5-0.7,5.3-0.5c-0.4,0.4-1.8,1.5-4.5,1.2c-2.7-0.3-5.7-0.4-6.7,1c-0.6,0.8-0.5,1.9,0.3,3.5
	c0,0,0.1,0.1,0.1,0c0,0,2.1-0.7,1.6-3.1c0.8,0.1,1.6,0.3,2.5,0.6c0.2,0.1,0.4,0.1,0.5,0.2c-1.7,0.5-3.1,1.2-3.1,2
	c0,0.5,0.5,0.6,1.8,1.2c1.3,0.6,2.5,1,3.6,1.6c3.2,1.6,5.5,2.9,5.8,2.6c0.5-0.4-7.1-3.5-5.3-6c1-1.5,2.7,0.5,1.3,0.8
	c-1.4,0.3,2,3.7,5.9,4.8c0,0,0.7-0.7,1.2-1c0,0,0.6-0.4-0.3-0.7c-0.9-0.2-6.2-1.9-4-3.9c0.7-0.6,0.7-1,0.4-1.3
	c0.8-0.3,1.4-0.7,1.8-1.1c0.5-0.5,0.7-1,0.7-1.5c0-1.4-1.7-3.3-2.4-4c5.1-0.8,11.8-1.4,19.6-1.4c8.1,0,15,0.6,20.1,1.5
	c-0.6,0.6-2.4,2.6-2.4,4c0,0.5,0.2,1,0.7,1.5c0.3,0.3,0.7,0.6,1.2,0.8c-0.6,0.3-0.9,0.7-0.9,1c0,1.2,1.1,1.6,1.1,1.6
	c0.1,1.4-3.2,2.9-4.1,3.2c0.2,0.1,0.6,0.3,1.1,0.6c3.1-0.9,4-2.5,4.6-3.4c0.7-0.9-1.1-0.4-1.1-1.4c0-0.9,2.7-1.6,2.2,0.9
	c-0.5,2.3-3.7,3.7-5.2,4.2c0.2,0.2,0.4,0.3,0.5,0.5c0.1,0.1,0.3,0.4,0.4,0.4c0.2-0.1,0-0.5,0.3-0.5c0.3,0.1,0.5,0.2,0.6-0.1
	c0.1-0.3,0.1-0.5,0.3-0.4c0.2,0.2,0.3,0.3,0.5,0.2c0.2-0.1-0.2-0.7,0.3-0.5c0.5,0.2,0.6-0.1,0.5-0.4c-0.1-0.3,0.2-0.1,0.5,0.1
	c0.3,0.2,0.4-0.2,0.2-0.5c-0.2-0.3,0-0.4,0.3-0.2c0.3,0.3,0.8,0.2,0.4-0.2c-0.4-0.4,0.1-0.8,0.5-0.4c0.4,0.3,0.4,0.1,0.1-0.3
	c-0.2-0.4,0-0.5,0.5-0.2c0.5,0.3,0.9,0.2,0.3-0.2c-0.6-0.4-0.3-0.7,0.3-0.4c0.6,0.3,1.3,0.5,0.6-0.1c-0.6-0.6-0.8-1-0.1-0.6
	c0.8,0.4,1.4,0.3,0.2-0.4c-1.2-0.7,0.6-0.1,1,0.3c0.4,0.3,0.5-0.2-0.3-0.7c-0.8-0.4-0.3-0.6,0.7-0.1c1.1,0.5,1.1,0,0.2-0.3
	c-0.9-0.3-1.2-1-0.2-0.4c1.1,0.5,2.2,0.6,1.1,0.1c-0.5-0.3-0.8-0.5-1-0.6c0.3-0.1,0.7,0,1.5,0.5c1.4,1,0.1,2.1-1.2,2.6
	c-1.8,0.7-2.5,1.4-4.5,2.8c-1.1,0.8-2.6,1.1-3.7,1.1c0.1,0.2,0.2,0.4,0.3,0.6c1.7-0.1,3.6-0.6,4.8-1.4c1.6-0.9,4.2-2.5,6.2-2.9
	c1.5-0.4,2.9-1.1,0.6-2.8c-0.8-0.6-1.6-1-2.3-1.4c0,0,0.1,0,0.1,0c0.9-0.3,1.7-0.5,2.5-0.6c-0.5,2.3,1.6,3.1,1.6,3.1
	c0,0,0.1,0,0.1,0c0.7-1.5,0.8-2.7,0.3-3.4c-1-1.4-3.9-1.3-6.7-1c-3.1,0.3-4.4-1-4.6-1.3c0.3,0,0.7,0,1.2,0c0.8,0.1,1.8,0.2,2.8,0.4
	c2.2,0.4,4.6,0.8,5.6,0c0.3-0.3,0.5-0.6,0.6-1.1c0.1-1,0.6-1.8,1-2.6c0.5-0.8,0.9-1.4,0.7-2c-0.1-0.4-0.5-0.7-1.2-1
	c-3-1.3-7.6-2.5-12.9-3.3c-5.9-0.9-12.5-1.4-19.2-1.4c-12.7,0-24.5,1.6-30.9,4.2c0,0-1.3,0.4-1.6,1.3c-0.1,0.4-0.1,0.9,0.3,1.3
	C-327.7,276.6-327.5,276.9-327.3,277.1 M-326.4,274.1C-326.4,274-326.4,274-326.4,274.1c6.3-2.6,18.1-4.2,30.7-4.2
	c15.5,0,26.9,2.5,31.9,4.7c0.5,0.2,0.8,0.5,0.9,0.7c0.1,0.4-0.2,1-0.6,1.6c-0.5,0.8-1,1.7-1.1,2.8c0,0.3-0.2,0.5-0.4,0.7
	c0,0,0,0,0,0c0-0.2-0.1-0.3-0.3-0.5c-2.1-2.1-15-4.5-30.1-4.5c-7.7,0-15.4,0.6-21.5,1.7c-2.7,0.5-5,1-6.5,1.6
	c-1.3,0.5-2.1,1-2.4,1.5c-0.1-0.3-0.1-0.6-0.1-1l0-0.2c0-0.9-0.2-1.2-0.9-2.2c-0.2-0.2-0.4-0.5-0.6-0.9c-0.2-0.3-0.3-0.6-0.2-0.9
	C-327.5,274.5-326.7,274.1-326.4,274.1 M-270.2,280.3c-1-0.2-2-0.3-2.8-0.4c-2.2-0.2-3.5,0.6-4.2,1.3c0.2-1.1,1.6-2.8,2.6-3.7
	c4.9,0.8,8.1,1.9,8.9,2.7c0.1,0.1,0.2,0.2,0.2,0.3c0,0,0,0.1,0,0.1C-266.7,280.9-268.6,280.6-270.2,280.3 M-274.9,280.7l0.2,0.1
	c0.3,0.3,1.8,1.9,5.1,1.5c1.4-0.1,4.5-0.5,5.8,0.4c-1.4-0.2-2.6,0.2-3.8,0.6c-0.2,0.1-0.5,0.2-0.7,0.2c-2.9-1.1-5.5-0.8-7-0.2
	c-0.6-0.3-1.1-0.6-1.4-0.9c-0.2-0.2-0.3-0.4-0.4-0.6c0.3-0.4,1.1-1.1,2.2-1.3C-274.9,280.6-274.9,280.7-274.9,280.7 M-264.4,283.2
	c0.4,0,0.8,0.1,1.2,0.2c0.2,0.5,0.1,1.3-0.3,2.2C-264.1,285.3-264.8,284.6-264.4,283.2 M-313.4,280.8c-2.5-1.5-5.9-0.8-8.5-0.4
	c-1,0.2-1.9,0.4-2.5,0.4c-0.4,0-0.8-0.1-1.1-0.2c0-0.1-0.1-0.1-0.1-0.1c0,0,0-0.1,0.2-0.3c0.9-0.9,4.2-2,9.4-2.8
	C-315,278.3-313.8,279.8-313.4,280.8 M-315.9,283.6c-1.1-0.3-3-0.3-4-0.2c-0.5,0.1-1.1,0.2-1.6,0.3c-0.5-0.1-0.9-0.3-1.4-0.4
	c-1.3-0.4-2.5-0.8-3.8-0.6c1.3-0.9,4.4-0.6,5.8-0.4c3.3,0.4,4.8-1.2,5.1-1.5l0.2-0.1c0,0,0,0,0,0c0.9,0.1,1.7,0.4,2.4,1
	C-313.5,282.3-314.4,283.1-315.9,283.6 M-327.1,285.5c-0.4-0.9-0.5-1.7-0.3-2.2c0.4-0.1,0.8-0.2,1.2-0.2
	C-325.8,284.5-326.6,285.2-327.1,285.5"/>
<path class="st0" d="M-293.6,287.9C-293.7,287.9-293.7,287.9-293.6,287.9C-293.7,287.9-293.7,287.9-293.6,287.9
	c-0.1,0.1,0.1,1.9,2,1.9c1.7,0,3.3-1.4,3.7-1.8c0.2,0.4,1.2,1.8,2,1.7c0.4,0,0.6-0.3,0.8-0.9c0.3,0.3,1,0.9,1.8,0.8
	c0.7-0.1,1.4-0.6,2-1.5c0,0,0-0.1,0-0.1c0,0-0.1,0-0.1,0c0,0-1.7,0.5-2.7-0.2c-0.6-0.4-0.8-1.1-0.8-2.1c0-1.5,0.1-2.3,0.3-2.9
	c0.5,0.3,1.1,0.5,1.7,0.5c1.9,0,2.2-1.1,2.2-1.1c0,0,0-0.1,0-0.1c0,0,0,0-0.1,0c-0.6,0.1-1.1,0-1.3,0c0.9-0.3,1.5-0.3,1.8,0
	c0.3,0.3,0.2,0.8,0.2,0.8c0,0,0,0.1,0,0.1c0,0,0.1,0,0.1,0c0.7-0.7,0.9-1.3,0.7-1.8c-0.3-0.9-1.7-1.2-3-1.5
	c-1.9-0.4-2.6-2.5-2.6-2.5c0,0,0,0-0.1-0.1c0,0-0.1,0-0.1,0c-0.5,0.3-0.8,0.6-1.1,0.9l-1.3-1.4c0,0,0,0-0.1,0c0,0,0,0-0.1,0
	c0,0-0.5,0.7-0.2,1.7c-0.2-0.3-0.6-0.7-0.6-1.2c0,0,0-0.1-0.1-0.1c0,0-0.1,0-0.1,0c0,0-1.3,1.2,0,3c-0.3,0.1-1.3,0.4-3.3-0.2
	c0,0,0,0-0.1,0c0,0,0,0,0,0.1c0,0-0.2,0.7,0.3,1.3c0.4,0.5,1.1,0.8,2,0.8c-0.3,0.2-1.2,0.7-3,0.2c0,0-0.1,0-0.1,0c0,0,0,0.1,0,0.1
	c0,0,0.5,2.1,3.3,1.8c-0.5,0.5-2.1,1.6-4.1,1.1c0,0-0.1,0-0.1,0c0,0,0,0,0,0.1c0,0.1,0,1.2,1,1.7c0.8,0.4,1.9,0.2,3.5-0.7
	C-289.4,286.7-290.2,288.2-293.6,287.9 M-289,282c0.1-0.1,0.1-0.3,0.1-0.5c-0.1-0.2-0.2-0.3-0.4-0.3c-0.9,0-1.5-0.2-1.8-0.6
	c-0.1-0.1-0.1-0.2-0.2-0.3c2.2,0.5,3.1,0,3.2-0.1c0.1-0.1,0.2-0.2,0.2-0.3c0-0.1,0-0.3-0.1-0.4c-0.5-0.7-0.6-1.3-0.5-1.7
	c0.3,0.5,0.7,0.8,0.7,0.8c0.2,0.1,0.4,0.1,0.6,0c0.2-0.1,0.2-0.4,0.1-0.5c-0.1-0.3-0.2-0.6-0.2-0.9l0.9,1c0,0.1-0.1,0.2-0.1,0.3
	c-0.1,0.6,0.1,1.1,0.2,1.2c-1.5,1-1.5,1.9-1.5,2.3c-0.2,0.3-0.8,1.1-1.8,1.3c-1.1,0.1-1.7-0.3-2.1-0.7C-289.8,283-289,282.1-289,282
	 M-285.1,277.7c0.1,0.3,0.4,0.6,0.7,1l-0.7,0.1l-0.5-0.5C-285.6,278.1-285.4,277.9-285.1,277.7 M-279.8,281.7
	c-0.1-0.1-0.1-0.1-0.2-0.2c-0.5-0.4-1.4-0.4-2.6,0c-0.2,0.1-0.3,0.2-0.3,0.4c0,0.2,0.1,0.3,0.2,0.4c0,0,0.3,0.1,0.7,0.2
	c-0.3,0.1-0.6,0.2-1,0.1c-0.6,0-1.1-0.2-1.5-0.4c0.2-0.3,0.4-0.4,0.6-0.6c0.1-0.1,0.2-0.1,0.2-0.2c0.4-0.3,0.8-1,1-1.5
	c0,0,0.1,0,0.1,0c0.7,0.2,2.4,0.5,2.6,1.1C-279.7,281.3-279.7,281.5-279.8,281.7 M-282.4,288.7c-0.3,0.2-0.6,0.4-0.8,0.4
	c-0.8,0.1-1.5-0.8-1.5-0.8c-0.1-0.1-0.1-0.1-0.2-0.1c-0.1-0.2-0.3-0.6-0.4-1.1c0.1,0,0.1,0,0.1,0c0.2,0.5,0.5,0.9,0.8,1.1
	C-283.8,288.6-283,288.7-282.4,288.7 M-285.9,278.8l0.3,0.4c0.1,0.1,0.2,0.1,0.3,0.1c0,0,0.3,0,0.6,0c-0.1,0.2-0.2,0.3-0.3,0.4
	c-0.2,0.1-0.5,0.1-0.8,0c0,0,0-0.1,0-0.1C-285.8,279.6-286,279.3-285.9,278.8 M-283.9,281.1c-0.1,0.1-0.2,0.1-0.2,0.2
	c-0.3,0.2-0.6,0.4-0.8,0.8c-0.1-0.1-0.2-0.1-0.2-0.2c0.2-0.3,0.6-0.7,1-0.9c0.6-0.3,0.6-0.9,0.6-1.3c0.1,0.1,0.3,0.1,0.4,0.2
	C-283.2,280.3-283.5,280.8-283.9,281.1 M-287.4,287.7c-0.1,0-0.3-0.3-0.3-1.3c0.4-0.2,0.6-0.5,0.8-0.8c0,0.5,0.1,0.9,0.3,1.1
	c0.1,0.1,0.1,0.1,0.2,0.1C-286.6,287.3-287.1,287.8-287.4,287.7 M-287.4,284.3C-287.4,284.3-287.4,284.3-287.4,284.3
	c0,0,0.5-0.2,0.9-0.5c0,0.1,0,0.3,0,0.5c-0.7,1.3-1.4,1.8-1.8,1.8C-288.3,285.8-287.9,285-287.4,284.3 M-285.4,286.4
	c-0.3,0.1-0.5,0-0.6-0.1c-0.3-0.3-0.1-1.2,0-1.8c0.2,0,0.4-0.1,0.6-0.2c0,0.4,0,0.8,0,1.3C-285.4,285.9-285.4,286.2-285.4,286.4
	 M-285.9,280.2c0.3,0.1,0.8,0.2,1.1,0c0.2-0.1,0.5-0.4,0.7-1c0,0,0.1,0,0.1,0l0,0.1l0,0c0,0,0.2,0.8-0.3,1.1c-0.5,0.3-0.9,0.6-1.2,1
	c-0.2-0.1-0.2-0.3-0.2-0.3c-0.1-0.1-0.3-0.2-0.5-0.1c-0.1,0-0.2,0.2-0.3,0.3c0,0-0.2,0.2-0.7,0.3
	C-287.2,281.4-286.9,280.9-285.9,280.2C-285.9,280.3-285.9,280.2-285.9,280.2 M-285.8,287.4c0.1,0.3,0.2,0.7,0.4,1c0,0,0,0.1,0,0.1
	c-0.1,0.4-0.3,0.6-0.4,0.7c-0.3,0-0.7-0.4-1.1-0.9C-286.6,288-286.2,287.8-285.8,287.4 M-285.9,283.9c-0.1-0.2-0.2-0.9-0.1-1.4
	c0,0,0-0.1,0-0.1c0,0-0.1,0-0.1,0c0,0-0.5,0.6-1,0.9c-0.1-0.1-0.2-0.4-0.2-0.9c0,0,0,0,0-0.1c0.9-0.2,1.2-0.5,1.3-0.6
	c0.2,0.2,0.5,0.5,1,0.8c-0.1,0.3-0.2,0.7-0.2,1.1C-285.5,283.7-285.7,283.8-285.9,283.9 M-288.8,284.1c0.1-0.1,0.1-0.2,0.1-0.3
	c0.2-0.1,0.5-0.2,0.8-0.5c0,0.1,0.1,0.3,0.1,0.5c-0.4,0.7-0.9,1.4-1.3,1.7c-0.1,0-0.1,0-0.2,0.1c-1.4,0.9-2.5,1.1-3.1,0.8
	c-0.3-0.2-0.5-0.4-0.5-0.7C-290.5,285.9-288.9,284.2-288.8,284.1 M-288.7,286.5c0.2,0.1,0.3,0.1,0.5,0.1c0,0.2,0.1,0.5,0.1,0.9
	c-0.1,0-0.1,0.1-0.1,0.1c0,0-1.7,1.7-3.4,1.7c-0.8,0-1.3-0.4-1.4-0.7C-290.1,288.6-289.1,287.2-288.7,286.5"/>
<path class="st0" d="M-322.8,321.6c0-0.2,0.1-0.5-0.1-0.6c-0.2-0.1-0.3,0.1-0.4,0.2c0,0,0,0,0,0v0c0,0-0.2,0.5-1,0.5
	c-0.5,0-1,0.2-1.2,0.6c-0.2,0.2-0.2,0.5-0.1,0.8c0.2,0.5,0.5,0.7,0.7,0.6c0,0,0.2-0.1,0.1-0.3l0-0.1c0-0.1,0-0.2,0-0.3
	c0,0,0.1,0,0.1,0.1c0.3,0.1,0.5,0.2,0.7,0c0.1,0,0.2-0.2,0.1-0.4c0-0.1-0.1-0.2-0.1-0.3c0-0.1-0.1-0.1-0.1-0.1c0,0,0.1,0,0.3-0.1
	C-323.1,322.1-322.9,322.1-322.8,321.6 M-324.7,322.4c0,0-0.1,0-0.1,0C-324.8,322.3-324.7,322.3-324.7,322.4
	C-324.7,322.3-324.7,322.4-324.7,322.4"/>
<path class="st0" d="M-261.9,320.9c-0.2,0-0.3-0.1-0.4-0.2c-0.2-0.1-0.3-0.3-0.8-0.3c-0.2,0-0.4,0.1-0.4,0.2
	c-0.1,0.2-0.1,0.6,0.2,1.2c0.1,0.1,0.1,0.2,0.1,0.3c-0.3-0.1-0.6-0.2-0.9-0.3c-0.2-0.1-0.4-0.1-0.5,0c-0.3,0.2-0.4,1-0.4,1.7
	c-0.8,0-1.5,0.6-2,1.1c0-0.3,0-0.7-0.2-0.8c-0.1-0.1-0.3-0.2-0.6-0.2c-0.3,0-0.6,0.1-1,0.3c0-0.2,0-0.4,0-0.5c0-0.1-0.2-0.2-0.3-0.3
	c-0.2-0.1-0.6,0-0.9,0.2c-0.1,0.1-0.2,0.3-0.1,0.4c0.1,0.3,0.4,0.6,0.7,0.7c0,0.1-0.1,0.1-0.1,0.2c-0.2,0.2-0.2,0.5-0.1,0.7
	c0.1,0.4,0.7,0.7,1.2,0.9c-0.7,0.7-1.6,1.3-2.5,1.1c-0.1-0.2-1.1-1.1-2.9-0.7l-0.2,0c-1.8,0.4-3.3,0.8-4,2.6c-0.2,0.6-0.4,0.8-0.6,1
	c-0.4,0.6-0.8,1-1.1,4.4c-0.3,0.1-1.6,0.5-2.5,1c-0.2,0.1-0.4,0.1-0.6,0.1c-0.5,0-1,0.1-1.6,0.8c-0.4,0.3-0.6,0.3-0.8,0.2
	c-0.2,0-0.5-0.1-0.9,0.2c-0.3,0.1-0.5,0.2-0.7,0.2c0.1-0.3,0.5-1.1,1.2-1.3c0.7-0.2,2.4-0.7,3.1-1.6c0,0,0,0,0,0
	c0.3-0.5,0.6-0.8,0.9-1.1c0.4-0.3,0.7-0.5,0.5-1.1c-0.2-0.4,0-0.8,0.2-1.2c0.1-0.4,0.3-0.8,0.1-1.1c0.3-0.1,1-0.3,1.2-0.6
	c0.1-0.1,0.1-0.2,0-0.3c0-0.2,0-0.4,0.1-0.7c0.1-0.5,0.2-0.9,0-1.2c-0.1-0.1-0.3-0.2-0.5-0.2c-0.1-0.1-0.2-0.4-0.6-0.5
	c-0.2-0.1-0.5,0.1-0.8,0.3c-0.1-0.1-0.6-0.2-0.8,0c-0.2,0.1-0.3,0.4-0.2,0.7l-0.6,0.9c-0.2-0.1-0.9-0.1-2,0.6l-0.5,0.3
	c-1.2,0.7-2.1,1.3-2.4,2.7c-0.1,0.7-0.3,1.1-0.3,1.3c-0.1-0.1-0.2-0.1-0.3-0.2c-0.3-0.2-0.6-0.3-0.8-0.4c-0.5-0.2-1-0.4-1.2-0.8
	c-0.6-0.8-1.4-0.8-2.5-0.2c-1.2,0.8-2.2,0.6-3.5,0.1c-0.2-0.1-0.5-0.2-0.8-0.3c-1.4-0.5-3.3-1.3-4-2.2c-0.1-0.2-0.2-0.4-0.4-0.5
	c-0.6-0.9-1.1-1.7-2.4-1.7c-0.1-0.1-0.9-0.4-1.8,0.3c0,0,0,0,0,0c0,0,0,0-0.1,0c0,0-0.1,0-0.2-0.1c-0.3-0.3-0.6-0.4-1.2,0.1
	c-0.1,0-1.1,0.8-1.5,1.6c0,0-0.1-0.1-0.1-0.1c-0.5-1.1-1-1.7-1.5-1.9c-0.5-0.1-0.8-0.5-1.2-1c-0.2-0.3-0.5-0.5-0.7-0.8
	c-0.2-0.2-0.4-0.3-0.6-0.2c-0.4,0-0.7,0.5-1,0.9l-0.1,0.1c-0.4,0.5-1,0.9-1.5,1.3c-0.2,0.2-0.4,0.3-0.6,0.5c0,0,0,0,0,0
	c-0.3-0.2-0.4-0.3-0.5-0.5c-0.3-0.8-0.9-1.6-1.3-2c0.1-0.5,0.1-1-0.3-1.4c0.4,0,0.7-0.2,0.9-0.7c0.1-0.2,0.1-0.4,0-0.6
	c-0.2-0.3-0.6-0.4-1.3-0.4c-0.6,0-1.1,0.5-1.3,0.7c-0.3,0-0.7,0.1-1.2,0.2c0.1-0.3,0-0.5-0.2-0.7c-0.8-0.7-2,0.5-2.6,1.1
	c-0.5,0.4-0.5,0.9-0.5,1.2h0c0,0-0.1,0-0.1,0c0,0-0.1,0-0.2,0c-0.2,0-0.4-0.1-0.7-0.1c-0.1-0.5-0.4-1.4-1.1-1.4c-0.1,0-0.2,0-0.3,0
	c0-0.1,0-0.1,0-0.2c0-0.2-0.1-0.4-0.2-0.6c-0.2-0.2-0.4-0.2-0.6-0.2c-0.5,0-0.8,0.4-0.8,0.8c0,0.2,0.1,0.4,0.2,0.6
	c0,0,0.1,0.1,0.2,0.1c-0.2,0.1-0.3,0.3-0.4,0.4c-0.1,0.2-0.1,0.4,0.2,0.7c0.2,0.2,0.5,0.5,0.9,0.8c-0.1,0.2-0.2,0.5-0.2,0.8
	c0,0,0,0,0,0c-0.2,0.1-0.4,0.2-0.4,0.5c0,0.2,0.2,0.4,0.4,0.6c0,0.4,0,0.8,0.1,1.2c-0.1,0.2-0.2,0.4-0.1,0.5
	c0.1,0.1,0.2,0.1,0.3,0.2c0,0.1,0.1,0.1,0.1,0.2c0.2,0.2,0.3,0.4,0.5,0.6c0,0,0.1,0.1,0.1,0.1c-0.1,0.3-0.1,0.7,0.2,0.7
	c0.2,0,0.4,0,0.6,0c0.1,0.1,0.3,0.2,0.5,0.3c0.2,0.1,0.4,0.3,0.7,0.4c0,0.3,0,0.7,0.3,0.6c0.2,0,0.3-0.1,0.4-0.1
	c0.6,0.5,1.1,0.9,1.1,1c-0.2,0.3-1,1.1-1.3,1.1c-0.1,0-0.3,0.1-0.3,0.2c-0.2,0.2-0.2,0.7,0,1.1c-0.2,0.1-0.7,0.6-0.5,1
	c0.1,0.1,0.2,0.2,0.3,0.3c0.1,0.1,0.3,0.3,0.3,0.4c0,0.1-0.1,0.1-0.2,0.2c-0.4,0.2-1,0.4-1.1,0.9c-0.1,0.4,0,0.8,0.4,1.2
	c0,0,0,0,0,0l-0.2,0.3c0,0-0.8,0.2-0.5,0.8c0.3,0.6,1.2,0.6,1-0.3l0.2-0.2c0.4,0.3,0.9,0.4,1.3,0.3c0.4-0.1,0.6-0.5,0.7-1
	c0.4,0.2,1.9,0.7,3.3,0.7c0.2,0.2,0.4,0.3,0.7,0.2c0.2-0.1,0.3-0.2,0.4-0.4c0.3,0,1.1,0,1.8,0c0.1,0.1,0.3,0.3,0.5,0.3
	c0.3,0,0.3-0.2,0.3-0.4c0.2,0,0.3-0.1,0.4-0.2c0.3-0.2,1-0.3,2.1-0.3c0,0.1,0.1,0.1,0.1,0.2c0.3,0.6,0.5,0.8,0.6,0.9
	c0.1,0.1,0.1,0.1,0,0.2c0,0.2-0.1,0.3,0,0.5c0.1,0.1,0.3,0.2,0.6,0.3h0c0.6,0.1,1,0.1,1.2,0.6l0,0.1c0.1,0.2,0.2,0.4,0.4,0.4
	c0.2,0,0.4,0,0.8-0.3c0.6-0.4,1.3,0,1.4,0c0.1,0.1,0.4,0.6,0.7,0.5c0.2,0,0.4-0.2,0.5-0.6c0.2-0.1,0.4-0.1,0.6-0.1
	c0.3,0,0.7,0,1.4-0.4c0,0,1.4-0.9,2.2-1.3c0.1,0.2,0.2,0.5,0.2,0.7c0.1,0.7-2.8,2.1-1.7,3.9c0.1,0.2,0.3,0.2,0.3,0.2s-0.2-0.6,0.1-1
	c0.3-0.4,1.9,0.1,2.7-0.9c0.2,1,1.4,1.1,1.4,1.1c0,0,0.1,0,0.1-0.1l0.4-2.7c0.1,0.3,0.4,0.6,0.6,0.7c0.3,0.2,0.6,0.1,0.8,0.1
	c0.8,1.3,1.9,1,2.1,0.9c0.5,0,0.8-0.1,0.8-0.3c0-0.1,0.1-0.3-0.8-0.8c-0.1-0.1-0.1-0.1-0.1-0.1c0,0,0.1-0.1,0.2-0.1
	c0.3,0,1.1,0.2,1.6,1.3c0.8,1.6,2.5,1.1,2.5,1.1c0,0,0.1,0,0.1-0.1c0,0,0-0.1-0.1-0.1c-0.4-0.1-0.5-0.6-0.5-0.8c1,0.8,1.9,1.1,2.7,1
	c0.9-0.1,1.4-0.7,1.4-0.8c0,0,0-0.1,0-0.1c0,0-0.1,0-0.1,0c-1,0.3-1.5-0.1-2-0.7c0.4-0.1,1.2-0.4,2.1-1.6c0.2-0.1,1.5-0.4,2.9,0
	c0.1,0,0.3,0.1,0.5,0.2c1.6,0.5,5.1,1.7,7.4-0.1c1.5-1.2,1.9-2,1.9-2.4c0-0.1,0-0.2,0-0.3c0.3,0.1,0.5,0.1,0.5,0.1c0,0,0,0,0,0
	c0.5,0.1,1.2,0.2,1.8,0.4c0.1,0,0.3,0.1,0.4,0.2c-0.1,0.2-0.4,0.6,0,0.8c0.4,0.2,1.5-0.4,1.5,0.2c0,0.6,0.5,0.5,1.4,0.1
	c0,0,0.4-0.1,0.5,0.1c0,0.2,0.3,0.5,0.6,0.5c0.2,0,0.4-0.3,0.6-0.5c0.3,0,0.6,0,0.9-0.1c0.3,0.2,0.6,0.3,0.8,0.1
	c0.1-0.1,0.2-0.3,0.2-0.4c0.4-0.2,0.7-0.5,0.9-0.9c0.3-0.5,0.2-1.1,0.1-1.4c0.1-0.1,0.3-0.3,0.3-0.6c0.1-0.4-0.4-0.4-0.7-0.8
	c-0.1-0.2-0.3-0.4-0.5-0.6c-0.1-0.1-0.1-0.3-0.1-0.6c-0.1-0.6-0.7-0.9-0.8-0.1c-1.6-0.8-3.8-0.7-5.3-0.3c-0.4,0.1-0.8,0.2-1.3,0.3
	c-1.3,0.4-2.5,0.7-3.1,0.1c0.1-0.2,0.4-1.2,2.2-1.8c1.3-0.5,4.4-1.8,5-3.7c0.6,0,5.1,0.2,6.1-1.3c1-1.4,1.8-2.5,0.8-3.7
	c0.4-0.3,0.8-0.7,1-1.1c0.2-0.3,0.2-0.5,0.1-0.7c-0.1-0.2-0.2-0.3-0.5-0.4c0.1-0.1,0.3-0.3,0.7-0.4c0.4-0.1,0.4-0.3,0.4-0.4
	C-261.2,321.3-261.5,321-261.9,320.9 M-318.8,322.6c0.4,0,0.6,0.1,0.7,0.1c-0.2,0.5-0.3,0.5-0.8,0.3c-0.1-0.1-0.3-0.1-0.4-0.2
	C-319.1,322.6-318.9,322.6-318.8,322.6 M-269.4,323.9c-0.1,0-0.1-0.1-0.2-0.1c0.1,0,0.1,0,0.1,0
	C-269.4,323.8-269.4,323.9-269.4,323.9 M-266.4,337.4c0,0.1,0,0.2,0,0.2c0,0,0.2,0.6,0,1.2c-0.2,0.4-0.5,0.6-1.1,0.8
	c-1.8,0.5-4.1-0.4-5.4-0.9c-0.2-0.1-0.3-0.1-0.5-0.2c-1.1-0.4-2.6-0.6-2.6-0.6c-0.1,0-0.1,0-0.2,0c-0.9-0.2-1-0.5-1-1.1
	c0-0.5,0.3-0.7,0.6-0.8c0.8,0.1,1.7-0.2,2.6-0.5c0.4-0.1,0.8-0.2,1.2-0.3c1.5-0.4,3.7-0.5,5.2,0.4
	C-266.3,336.3-266.4,337.3-266.4,337.4 M-276.5,338.7c0,0.1,0,0.7-1.7,2c-2,1.6-5.1,0.6-6.8,0l0,0c-0.2-0.1-0.3-0.1-0.4-0.1
	c-1.4-0.4-2.8-0.1-3.2,0c0-0.4,0-1-0.1-1.4c-0.1-0.4,0.3-0.8,0.6-1c0.5-0.1,0.9-0.2,1.2-0.3c0.2,0,0.5,0,0.9-0.2
	c-0.1,0.2-0.4,0.7-0.1,0.8c0.4,0.1,1.1,0.3,0.9-1c0.3,0,0.6,0,1.1-0.3c0,0,0.1,0,0.1-0.1c0.5-0.6,0.8-0.6,1.2-0.6
	c0.2,0,0.5,0,0.8-0.2c0,0,0,0,0,0c0.9-0.5,2.4-1,2.4-1c0,0,0,0,0,0c0.4,0.2,1.1,0.5,1.9,0.2c0,0,0,0,0,0c0.1,0.1,0.3,0.2,0.4,0.3
	c-0.3,0.2-0.4,0.6-0.5,1.1c0,0.3,0.1,0.7,0.3,0.9c0.2,0.3,0.6,0.5,0.9,0.6C-276.6,338.5-276.6,338.6-276.5,338.7 M-292.9,342.6
	c-0.2,0.1-0.3,0.3-0.3,0.5c0,0.2,0,0.4,0.1,0.6c-0.4-0.1-0.7-0.4-0.9-0.8c-0.7-1.3-1.7-1.7-2.3-1.6c-0.1,0-0.2,0.1-0.3,0.1
	c0.1-0.2,0.2-0.3,0.2-0.6c0.3,0,1.2,0.1,1.6-0.3c0,0,0.1,0.1,0.2,0.1c0.1,0,0.1,0,0.2,0c0.5,0.3,2.2,1.2,2.8,1.8
	c0.2,0.1,0.3,0.3,0.4,0.5c0.2,0.2,0.4,0.5,0.7,0.7c-0.6-0.1-1.2-0.4-1.9-1C-292.5,342.6-292.7,342.6-292.9,342.6 M-302,342.7
	C-302,342.7-302,342.7-302,342.7C-302,342.7-302,342.7-302,342.7 M-301.9,342.6C-301.9,342.6-301.9,342.6-301.9,342.6
	C-301.9,342.6-301.9,342.6-301.9,342.6 M-301,342.8c0-0.1,0-0.1-0.1-0.2c0.1-0.5,0.3-1.4,0.2-1.8c0-0.2-0.1-0.3-0.2-0.4
	c-0.2-0.1-0.4,0.1-0.4,0.1c0,0,0.3,2.1-1,2.6c-0.4,0.1-0.9,0.1-1.3,0.2c-0.3,0.1-0.6,0.2-0.6,0.2c0.1-1.1,1.9-1.4,1.9-2.5
	c0-0.9-0.9-1.8-1-1.9c-0.1-0.1-1.1-1.2-1.3-2.4c0,0,0-0.1,0-0.1c0-0.1,0-0.2-0.1-0.3c0-0.1,0-0.3,0-0.4c0.3-1.2,1.1-2.5,2.6-2.2
	c0.1,0.1,0.5,0.1,0.8,0.5c0.2,0.2,0.2,0.5,0.3,0.6c0.1,0.6-0.8,0.8-0.8,0.8c0,0,0-1.2-0.6-1.2c-0.5,0-1.1,0.5-1.3,1.1
	c-0.2,0.6,0.2,1.2,0.9,1.4c0.2,0.1,0.4,0.2,0.6,0.3c0.3,0.1,0.6,0.3,0.9,0.4c0,0-0.1,0-0.1,0c0,0-0.1,0-0.1,0.1c0,0,0,0.1,0.1,0.3
	c0.1,0.2,0.5,0.4,1,0.4c1.1,0.1,2.1,0.4,2.1,1.5c0,0.8-0.4,1.2-0.6,1.3c-0.1-0.4-0.6-1.5-2-2c-1.8-0.6-2.5-1.3-2.7-2.5
	c0,0,0-0.1,0-0.1c0,0-0.3-0.2-0.5,0c-0.1,0.1-0.1,0.2-0.1,0.4c0,0.1,0.3,1.4,1.6,2c0.2,0.1,0.5,0.2,0.7,0.3c0.9,0.4,1.8,0.8,2.1,1.5
	c-0.1,0.1-0.2,0.2-0.3,0.4l-0.3,2.4C-300.9,343.3-301,343.1-301,342.8 M-307.9,341.9C-308,341.9-308,341.8-307.9,341.9
	c-0.1-0.2-0.2-0.2-0.2-0.3c0,0-1-0.7-2.1-0.1c-0.1,0.1-0.2,0.1-0.3,0.2c0,0,0-0.1-0.1-0.1l0-0.1c-0.4-0.7-1.1-0.8-1.7-0.8
	c0,0,0,0,0,0c0,0-0.1,0-0.1,0c0.1-0.3,0-0.5-0.2-0.7c-0.1-0.1-0.2-0.3-0.5-0.8c-0.5-0.8,0.3-2.1,0.5-2.5c0.2-0.4,1.7-1.3,3.1-1.3
	c1.1,0,3.1,0.7,4,1.1c0.1,1.5,1.5,2.9,1.5,3c0,0,0.1,0.1,0.3,0.3c-0.8,0.4-1.9,1.2-2.1,1.3c-0.5,0.3-0.8,0.3-1.1,0.3
	c-0.3,0-0.5,0-0.9,0.2C-307.8,341.6-307.9,341.7-307.9,341.9C-307.9,341.9-307.9,341.9-307.9,341.9 M-319.1,339.4
	c-1.6,0.5-3.9-0.5-4-0.6c-0.2-0.1-0.3-0.1-0.5,0c-0.1,0.1-0.2,0.3-0.2,0.4c0,0.2,0,0.5-0.3,0.6c-0.3,0.1-0.7-0.1-1.2-0.6
	c-0.2-0.3-0.4-0.5-0.3-0.7c0-0.1,0.2-0.3,0.7-0.5c0.3-0.1,0.5-0.3,0.6-0.6c0.1-0.4-0.2-0.7-0.4-0.9c0,0-0.1-0.1-0.1-0.1
	c0.1-0.1,0.2-0.2,0.3-0.3c0.2-0.1,0.2-0.4,0.2-0.6c-0.1-0.3-0.1-0.5-0.1-0.6c0.7-0.1,1.7-1.3,1.7-1.3c0.1-0.1,0.1-0.3,0.1-0.5
	c-0.2-0.8-2.7-2.4-2.7-2.4c-0.5-0.3-0.8-0.7-1.2-1.1c-0.2-0.2-0.3-0.4-0.5-0.6c-0.2-0.2-0.3-1.5-0.2-2.6c0.1-0.6,0.3-1,0.6-1.2
	c0.5-0.3,1.2-0.2,1.6-0.1c0.2,0,0.3,0.1,0.4,0c0.1,0,0.1,0,0.2,0c0.1,0,0.2-0.1,0.2-0.1c0,0,0,0,0,0c0.1,0.2,0.1,0.2,0.2,0.3
	c0,0.1,0.1,0.2,0.2,0.5c0.1,0.2,0.5,0.7,0.9,1.2c0.3,0.4,0.6,0.8,0.8,1.1c0.3,0.4,0.8,1.4,1.5,2.9c0.1,0.2,0,1.1-0.2,1.9
	c0,0.1,0,0.2,0,0.3c-0.1,0.3-0.2,0.8-0.1,0.9c0.2,0.1,0.5,0.1,0.8-0.6c0.1,0,0.2-0.1,0.2-0.2v0c0,0,0.2-0.2,1.4,0.1l0.1,0
	c0.5,0.1,1.3,0.4,1.6,0.7c0.1,0.1,0.3,0.3,0.6,0.6c0.5,0.6,1.3,1.3,1.8,1.7c0.4,0.3,0.8,0.5,1.1,0.5c-0.2,0.5-0.5,1.1-0.5,1.8
	c-1.1,0-1.9,0.2-2.3,0.4c-0.3,0.2-1.7,0.3-2.8,0.2C-319,339.4-319.1,339.4-319.1,339.4 M-326.3,324.5c-0.2,0-0.5,0.1-0.7,0.3
	c-0.1,0.1-0.2,0.2-0.3,0.3c-0.3-0.3-0.5-0.5-0.8-0.7c0,0,0,0,0,0c0.1-0.2,0.8-0.6,1.4-0.6C-326.6,323.7-326.4,324-326.3,324.5
	 M-323.7,323.8c1.3-1.2,1.7-1.2,1.8-1.1c0,0.1,0,0.3-0.4,0.9c-0.2,0.4-0.5,0.8-0.4,1.1c-0.3,0.1-0.6,0.2-0.8,0.3
	c0-0.1-0.1-0.2-0.2-0.3c-0.1-0.1-0.2-0.2-0.3-0.2C-324,324.4-324,324.1-323.7,323.8 M-313.8,326.1l0.1-0.1c0.2-0.2,0.5-0.6,0.6-0.7
	c0,0,0.1,0,0.2,0.1c0.2,0.2,0.4,0.5,0.6,0.7c0.4,0.5,0.8,1,1.5,1.2c0.1,0,0.6,0.2,1.1,1.5c0.1,0.2,0.3,0.4,0.6,0.5
	c0,0.2,0.1,0.3,0.3,0.5c0.6,0.5,1.2,0.6,1.8,0.7c0.4,0,0.8,0.1,1,0.4c0.8,0.8,1.5,1.3,2.1,1.5c0.3,0.1,0.7,0.4,1,0.7
	c-1.2,0.1-2.2,1.1-2.5,2.7c0,0,0,0,0,0.1c-0.4-0.2-1-0.4-1.7-0.6c0-0.1,0-0.3-0.1-0.6c-0.2-0.5-0.9-1-0.7-0.5c0,0,0.1,0.2,0,0.5
	c0,0.1,0,0.3,0.1,0.4c-0.5-0.1-0.9-0.2-1.3-0.2c0-0.1-0.1-0.2-0.2-0.4c-0.3-0.4-0.3-0.3-0.4-0.1c0,0-0.1,0.3,0,0.5
	c-0.6,0-1.2,0.2-1.7,0.5c0-0.2,0-0.4-0.1-0.6c-0.1-0.3-0.1-0.6-0.2-0.4c0,0-0.3,0.3-0.2,0.7c0,0.3,0.1,0.4,0.2,0.5
	c-0.6,0.3-1.1,0.7-1.3,1c0,0,0,0,0,0c-0.3-0.1-0.7-0.2-1.1-0.5c-0.4-0.3-0.9-0.7-1.3-1.2c0.1-0.3,0.2-0.8,0-1
	c-0.2-0.2-0.4,0-0.5,0.4c-0.2-0.2-0.4-0.4-0.5-0.5c-0.1-0.1-0.2-0.1-0.3-0.2c0-0.2,0-0.6-0.1-0.7c-0.2,0-0.3,0.2-0.3,0.4
	c-0.4-0.2-0.8-0.3-1.2-0.4l-0.1,0c-0.1,0-0.1,0-0.2,0c0.1-0.2,0.2-0.6,0.1-0.6c-0.1,0-0.4,0.3-0.6,0.5c-0.4,0-0.9-0.1-1.1,0.1
	c0.1-0.4,0.2-1.1,0.2-1.6l0.1,0c0.8-0.6,3.5-2.7,4.1-3.2c0.2-0.1,0.4-0.3,0.6-0.5C-314.8,327.1-314.2,326.6-313.8,326.1 M-308.4,329
	C-308.4,329-308.3,329-308.4,329l0-0.1c0.2-0.4,0.8-0.9,1.2-1.3c0.2-0.1,0.3-0.2,0.3-0.2c0,0,0,0,0.1,0.1c0.3,0.3,0.5,0.3,0.7,0.3
	c0.2,0,0.3-0.1,0.4-0.2c0.7-0.5,1.2-0.2,1.2-0.2c0.1,0,0.1,0,0.2,0c1,0,1.3,0.5,1.9,1.4c0.1,0.2,0.2,0.4,0.4,0.6
	c0.6,0.9,2,1.5,3.3,2.1c0,0,0,0,0,0c0,0-0.2,0.2,0,0.4c0.2,0.3,0.8,1,0.9,0.8c0.1-0.2-0.1-0.8-0.2-1.1c0.1,0,0.3,0.1,0.4,0.1
	c0.3,0.1,0.5,0.2,0.7,0.3c1.5,0.6,2.6,0.8,4-0.1c1-0.6,1.4-0.4,1.7,0c0.4,0.5,0.9,0.7,1.5,1c0.3,0.1,0.5,0.2,0.8,0.4
	c0.3,0.2,0.3,0.3,0.3,0.3v0v0c0,0,0,0,0,0.1c0,0-0.3,1-0.7,2.3c-0.2,0.7-0.6,0.8-0.8,0.8c-2.3-0.9-3.7,0.2-4.7,0.9
	c-0.4,0.3-0.7,0.6-0.9,0.6c-0.2,0-0.3,0-0.5-0.2c0,0-0.1-0.1-0.1-0.1c-0.1-0.1-0.2-0.2-0.2-0.4c-0.1-0.1-0.1-0.2-0.2-0.3
	c-0.2-0.3-0.3-0.7-0.6-1c-0.6-0.8-2.6-2-3.7-2.6c-0.2-0.2-0.5-0.4-0.8-0.5c-0.4-0.4-1.2-1.1-1.8-1.3c-0.6-0.2-1.2-0.7-1.9-1.4
	c-0.2-0.2-0.5-0.4-0.8-0.4c-0.1-0.3-0.2-0.9-0.3-0.9c-0.2,0-0.4,0.5-0.5,0.8c-0.4,0-0.8-0.1-1.2-0.5c-0.1,0-0.1-0.1-0.1-0.1
	C-308.5,329.2-308.4,329.1-308.4,329L-308.4,329z M-283.3,328.7C-283.3,328.7-283.3,328.7-283.3,328.7c0,0,0.1,0,0.1,0
	c-0.1,0.2-0.2,0.5,0.2,0.5c0.5,0,0.9-0.3,0.4-0.9c0.2-0.3,0.5-0.8,0.5-0.8c0.1-0.1,0.1-0.2,0.1-0.3c0-0.1,0-0.1,0-0.2
	c0.1,0,0.2,0,0.3,0.1c0.2,0.1,0.4,0,0.6-0.1c0.2-0.2,0.3-0.2,0.3-0.2c0,0,0.1,0.1,0.1,0.2c0.1,0.2,0.3,0.3,0.5,0.3c0,0,0,0,0.1,0
	c0,0.1,0,0.3-0.1,0.7c-0.1,0.3-0.1,0.6-0.1,0.9c-0.1,0.1-0.5,0.3-0.9,0.4c-0.2,0-0.4,0.2-0.4,0.4c0,0.2,0.1,0.4,0.2,0.5
	c0,0.1-0.1,0.4-0.1,0.5c-0.2,0.5-0.4,1.1-0.1,1.7c0,0.1,0,0.1-0.3,0.4c-0.3,0.2-0.8,0.6-1.1,1.2c-0.4,0.5-1.5,1.1-2.8,1.4
	c-1.2,0.3-1.6,1.7-1.7,1.8c0,0.1,0,0.2,0,0.3c-0.5,0.2-1.7,0.5-1.9-0.3c0.3-0.2,0.6-0.5,0.7-1c0.3-1.2,0.6-2.2,0.6-2.3
	c0,0,0.1-0.2,0-0.3c0.2-0.2,0.3-0.7,0.6-1.7c0.2-1.1,1-1.6,2.1-2.3l0.5-0.3C-283.8,328.6-283.3,328.7-283.3,328.7 M-300.6,334.7
	c0,0,0-0.1,0-0.1c1.1,0.6,2.4,1.4,2.8,2c0,0,0,0,0,0c-0.4-0.1-0.8-0.1-1.3,0.1c-1.6,0.5-2.1,0.3-3-0.1c-0.2-0.1-0.4-0.2-0.7-0.3
	c-0.4-0.2-0.6-0.4-0.5-0.7c0.1-0.4,0.5-0.7,0.6-0.6c0,0,0.4,0.2,0.2,0.9c-0.1,0.3,0.9,0.3,1.4,0
	C-300.8,335.6-300.5,335.2-300.6,334.7 M-321.7,327.9c-0.2-0.3-0.5-0.7-0.8-1.1c-0.3-0.4-0.6-0.9-0.8-1.1c1.2-0.6,2.4-0.8,2.7-0.7
	l0,0c0.4,0.2,0.7,0.4,0.7,0.6c0,0.2-0.1,0.9-1.8,2.3C-321.7,327.9-321.7,327.9-321.7,327.9 M-298.9,337.2c1-0.3,1.4,0.1,1.8,0.7
	c0.1,0.2,0.2,0.4,0.4,0.6c0.3,0.5,0.7,0.9,1.3,1c0.3,0,0.4,0.1,0.5,0.1c0,0,0,0.1,0,0.1c0,0,0,0.1,0,0.1c0,0,0,0.1,0,0.1
	c-0.4,0.2-1.1,0.5-2.2,0.1c0,0,0,0-0.1,0c0,0-0.2,0.2-0.1,0.6c0,0.1,0,0.2,0,0.3c-0.1,0.1-0.3,0.1-0.6,0.2c-0.1,0-0.2,0-0.3,0
	c0.3-0.3,0.5-0.8,0.5-1.5c0-1.5-0.9-2-2.4-2.2C-299.8,337.5-299.4,337.4-298.9,337.2 M-320.3,330.6c-0.3-0.7-0.7-1.5-1-2.1
	c0.7-0.6,1.2-1.2,1.6-1.6c0.3,0,0.9,0,1.3-0.7c0.1-0.1,0.1-0.3,0.2-0.4c0.3,0.4,0.7,1,0.9,1.5c0.1,0.2,0.3,0.5,0.6,0.7
	C-317.9,328.7-319.6,330.1-320.3,330.6 M-319.1,326c-0.1,0.2-0.2,0.3-0.3,0.3c0.1-0.2,0.2-0.5,0.1-0.7c-0.1-0.6-0.6-0.8-1-1.1l0,0
	c-0.4-0.2-1.1-0.1-1.8,0.1c0.1-0.2,0.2-0.4,0.3-0.6c0.1-0.1,0.1-0.2,0.2-0.3c0.1,0,0.2-0.1,0.3-0.1c1.4-0.6,1.8-0.2,2.4,0.4
	C-318.6,324.3-318.7,325-319.1,326 M-296.9,341.8c0,0,0,0.1,0,0.1c0,0.1-0.1,0.5,0.4,0.8c0,0,0,0,0,0c-0.1,0-0.8,0.2-1.3-0.7
	C-297.6,342-297.2,342-296.9,341.8 M-290.9,342.1L-290.9,342.1C-290.9,342.1-290.9,342.1-290.9,342.1c0,0-0.2,0-0.3-0.1
	c-0.4-0.4-1-0.8-1.6-1.2c0-0.1,0-0.4,0-0.5c-0.1-0.2-0.6,0-0.8,0.1c-0.3-0.2-0.6-0.3-0.7-0.4c0,0,0,0,0,0c0,0,0,0,0-0.1
	c0-0.2,0.1-0.4,0-0.7c-0.1-0.2-0.4-0.3-0.9-0.4c-0.1,0-0.2,0-0.2-0.1c0.3-0.1,0.7-0.4,1.1-0.7c1-0.7,2.1-1.7,4.2-0.8c0,0,0,0,0,0
	c0,0,0.1,0,0.3,0c0.1,0.3,0.4,0.7,1.1,0.7c-0.3,0.4-0.4,0.7-0.3,1.3c0,0.4,0.1,1.1,0.1,1.5C-290.2,342.3-290.9,342.1-290.9,342.1
	 M-277.7,334.8c-0.3,0-1,0.1-1.5-0.2c0.3-3.2,0.6-3.6,0.9-4c0.2-0.3,0.4-0.6,0.7-1.2c0.6-1.5,1.8-1.8,3.5-2.2l0.2,0
	c1.2-0.3,1.9,0.2,2.2,0.4c-0.2,0.3-0.4,0.9-0.3,1.4c0.1,0.4,0.5,0.7,1.1,0.9c-0.6,1-2.2,2-4.4,2.8
	C-277.1,333.4-277.6,334.4-277.7,334.8 M-270.5,329.3c-0.4-0.1-0.7-0.3-0.8-0.5c-0.1-0.3,0.1-0.7,0.2-0.9c1.7,0.4,3-1.2,3.9-2.2
	c0.2-0.2,0.4-0.4,0.5-0.5c0.9-0.9,1.7-1.5,2.8-0.6c1.1,0.9,0.8,1.6-0.5,3.4c-0.7,0.9-3.7,1.2-5.7,1
	C-270.2,329-270.5,329.1-270.5,329.3 M-269.1,325.1c0.5-0.8,1.3-0.9,1.5-0.8c0,0.1,0,0.5,0,0.8c0,0.1,0,0.2,0,0.3
	c-0.1,0.1-0.3,0.3-0.4,0.4c-0.9-0.3-1.1-0.5-1.1-0.6C-269.2,325.2-269.2,325.1-269.1,325.1 M-263.5,324.1c-0.3-0.3-0.6-0.4-0.9-0.5
	c0-0.6,0-1.1,0.1-1.2c0.3,0.1,0.6,0.2,0.9,0.3c0.2,0.1,0.8,0.2,0.9,0.4c0,0,0,0.1-0.1,0.1C-262.7,323.5-263,323.8-263.5,324.1
	C-263.5,324.1-263.5,324.1-263.5,324.1 M-262.7,321.5c-0.1-0.3-0.2-0.4-0.2-0.5c0.1,0,0.2,0.1,0.3,0.1c0.1,0.1,0.3,0.2,0.6,0.3
	c0,0,0,0,0,0c-0.3,0.1-0.5,0.2-0.6,0.3C-262.7,321.7-262.7,321.6-262.7,321.5 M-328,322.8c0,0,0.1-0.1,0.2-0.1c0.1,0,0.1,0,0.2,0.1
	c0,0,0.1,0.1,0.1,0.2c0,0.1-0.1,0.2-0.2,0.2c-0.1,0-0.1,0-0.2-0.1c0,0-0.1-0.1-0.1-0.2C-328.1,322.9-328.1,322.8-328,322.8"/>
<path class="st0" d="M-315.9,328.5c-0.3,0.1-0.9,0.9-0.5,1c0,0,0.8-0.5,0.9-0.7C-315.3,328.6-315.6,328.5-315.9,328.5"/>
<path class="st0" d="M-315.2,329.8c0.4,0.1,0.5-0.2,0.7-0.5c0.2-0.3,0-0.8-0.3-0.4C-314.8,328.9-315.6,329.7-315.2,329.8"/>
<path class="st0" d="M-313.8,330.3c0.2-0.3,0.4-0.8,0.3-1.1c-0.1-0.3-0.3-0.2-0.3-0.2s-0.6,0.7-0.6,1
	C-314.3,330.3-314.1,330.6-313.8,330.3"/>
<path class="st0" d="M-312.2,330.6c0.3-0.1,0.2-0.5,0.1-0.9c-0.1-0.4-0.2-0.6-0.4-0.5c0,0-0.2,0.3-0.2,0.7
	C-312.6,330.3-312.5,330.7-312.2,330.6"/>
<path class="st0" d="M-303.2,283.7c0,0-0.4,0.1-0.3,0.6c0.1,0.5,0.2,0.8,0.8,0.7c0.6-0.1,0.2-1.2,0.1-1.3
	C-302.8,283.5-303.2,283.7-303.2,283.7 M-303,284.5c0,0,0-0.1-0.1-0.3c0-0.1,0-0.1,0-0.1c0,0,0.1,0,0.1,0c0.1,0.1,0.1,0.3,0.1,0.4
	C-302.9,284.5-303,284.5-303,284.5"/>
<path class="st0" d="M-303.2,285.2c0,0-0.2,0.2-0.2,0.5c0,0.3,0,0.7,0.5,0.6c0.5,0,0.6-0.4,0.5-0.8
	C-302.4,285.1-302.9,285-303.2,285.2 M-302.8,285.9C-302.8,285.9-302.9,285.9-302.8,285.9l-0.1,0c0,0,0-0.1,0-0.1c0,0,0-0.1,0-0.1
	c0,0,0-0.1,0-0.1c0,0,0.1,0,0.1,0c0,0,0,0,0,0.1C-302.8,285.8-302.8,285.8-302.8,285.9"/>
<path class="st0" d="M-303.2,286.6c0,0-0.6,0.6-0.2,0.8c0.4,0.2,0.7,0.3,0.9-0.3C-302.3,286.6-302.7,286.2-303.2,286.6 M-302.9,287
	c0,0,0,0.1,0,0.1c0,0,0,0-0.1,0c0-0.1,0.1-0.1,0.1-0.2c0,0,0,0,0,0C-302.9,286.9-302.9,286.9-302.9,287"/>
<path class="st0" d="M-302.3,283c0,0-0.3,0.1-0.2,0.4c0.1,0.4,0.3,0.9,0.8,0.8c0.5-0.2,0.4-0.5,0.2-1
	C-301.7,282.7-302,282.9-302.3,283 M-301.9,283.9C-301.9,283.9-301.9,283.9-301.9,283.9c0,0-0.1-0.1-0.2-0.4l0.1,0c0,0,0,0,0,0
	c0,0,0,0,0,0C-301.9,283.5-301.8,283.7-301.9,283.9C-301.9,283.8-301.9,283.9-301.9,283.9"/>
<path class="st0" d="M-302.2,284.9c0,0-0.2,0.8,0.3,0.8c0.5,0,0.8-0.1,0.7-0.7C-301.2,284.2-302.1,284.1-302.2,284.9 M-301.7,285.3
	c0,0-0.1,0-0.2,0c0-0.1,0-0.2,0-0.3c0,0,0,0,0,0c0-0.1,0-0.1,0-0.1c0,0,0,0,0,0c0,0,0.1,0.1,0.1,0.2
	C-301.6,285.2-301.7,285.2-301.7,285.3"/>
<path class="st0" d="M-301.8,285.9c0,0-0.4,0.1-0.4,0.4c0,0.3-0.2,0.9,0.3,0.8c0.5-0.1,0.9-0.2,0.8-0.9
	C-301.2,285.6-301.5,285.8-301.8,285.9 M-301.5,286.6c0,0-0.1,0.1-0.3,0.1c0,0,0-0.1,0-0.1c0-0.1,0-0.2,0-0.3c0,0,0.1,0,0.1-0.1
	c0,0,0.1,0,0.1,0c0,0,0,0.1,0,0.1C-301.5,286.5-301.5,286.6-301.5,286.6"/>
<path class="st0" d="M-301.3,282c0,0-0.4,0.3-0.2,0.8c0.2,0.6,0.5,0.6,0.8,0.5c0.2-0.1,0.4-0.3,0.2-0.9
	C-300.7,281.9-301,281.7-301.3,282 M-301,282.4L-301,282.4C-301,282.4-301,282.4-301,282.4C-301,282.4-301,282.4-301,282.4
	 M-300.9,282.9C-300.9,282.9-300.9,282.9-300.9,282.9L-300.9,282.9c-0.1,0-0.2,0-0.2-0.2c-0.1-0.2,0-0.3,0-0.4
	c0,0.1,0.1,0.1,0.1,0.2C-300.9,282.8-300.9,282.9-300.9,282.9"/>
<path class="st0" d="M-301.1,284.1c0.1,0.4,0,1,0.5,0.7c0.5-0.3,0.5-0.5,0.4-1C-300.3,283.1-301.2,283.7-301.1,284.1 M-300.6,284.3
	C-300.6,284.3-300.6,284.3-300.6,284.3c-0.1,0-0.1-0.1-0.1-0.2c0,0,0-0.1,0.1-0.1C-300.6,284.2-300.6,284.3-300.6,284.3"/>
<path class="st0" d="M-300.9,285.6c0,0.5,0,1,0.5,0.9c0.4-0.1,0.6-0.4,0.5-1C-300,284.6-301,285.1-300.9,285.6 M-300.5,286
	c0-0.1,0-0.3,0-0.4c0,0,0,0,0-0.1c0,0,0.1,0,0.1-0.1c0,0,0,0,0,0.1C-300.3,285.9-300.4,286-300.5,286"/>
<path class="st0" d="M-287.9,288.2c-0.1,0-0.3,0.1-0.5,0.3l-0.2,0.2c-0.3,0.3-1,1-1.2,1c0,0-0.1,0-0.1,0.1c0,0.1,0,0.1,0.1,0.1h2.8
	c0,0,0.1,0,0.1,0c0,0,0-0.1,0-0.1c-0.2-0.3-0.8-1.2-0.9-1.3C-287.7,288.3-287.8,288.2-287.9,288.2 M-288.3,289.3
	c0.1-0.1,0.2-0.2,0.2-0.2l0.1-0.1c0,0.1,0.1,0.1,0.2,0.2H-288.3z"/>
<path class="st0" d="M-326.5,315.8c1.7,5.6,2.9,6.6,2.5,3.4c-0.4-3.2-1-5.7-0.6-6.2c0.3-0.5,0.1-1.3,0-2.1c-0.2-0.8,0.3-1-0.3-3
	c-0.6-2,0.1-1.5,0-2.5c0-1-0.4-1-0.3-2.2c0.1-1.2,0.2-3,0.2-3s-1.1,0-1.2,0.7c-0.1,0.7-0.1,9.2,0.4,12.2c0.6,3-1,0.1-1.2-3.6
	c-0.2-3.7-0.1-7.9-0.1-7.9s0.2-1-1-1.2C-328.1,300.2-328.2,310.2-326.5,315.8"/>
<path class="st0" d="M-321.6,313.3c0-2.1-0.8-3-0.4-4.2c0.3-1.2,0.6-1.7-0.1-2.7c-0.6-1-0.4-0.9-0.2-2.2c0.2-1.3-0.2-3.2,0-4.2
	c0,0-0.6-0.5-0.7,0.1c-0.1,0.6,0.2,7.5,0.6,10.3c0.4,2.8-0.3,1.6-0.6-0.7c-0.2-1.6-0.6-9.4-0.6-9.4s-0.8-0.6-0.9,0
	c0,0-0.2,9.4,1.6,12.9C-321.3,316.7-321.6,315.4-321.6,313.3"/>
<path class="st0" d="M-319.2,311.1c-0.3-1.1-0.3-1.3-0.2-2.3c0.1-1-0.3-1.8-0.5-3.1c-0.2-1.3-0.3-4.5-0.3-6.3c0,0-0.3-0.3-0.7,0
	c0,0,0,4.7,0.3,6.4c0.2,1.7-0.7-0.1-0.7-3.1c0-3,0-3.6-0.6-3c0,0-0.2,9.1,2.4,11.9C-319.6,311.6-318.9,312.2-319.2,311.1"/>
<path class="st0" d="M-319.6,298.8c0,0-0.3,8.3,2,10.6c2.3,2.3,0.6,0.1,0.6-2.5c0-3.1-0.6-2.4-0.7-3.2c0,0-0.1-3.1-0.3-4.1
	c-0.1-0.9-0.8-1.4-0.6,0.1c0.2,1.5,0.6,5.4,0.1,5.5c-0.6,0-0.5-2.5-0.5-4C-319.1,299.7-318.9,298.9-319.6,298.8"/>
<path class="st0" d="M-316.4,298.5c0,0-0.4-0.3-0.3,1.1c0.1,1.5,0.4,2.9-0.1,2.8c-0.5,0-0.3-1.8-0.4-2.6c-0.1-0.7-0.2-1.6-0.5-1.1
	c0,0,0.1,5.6,1.6,7.9c1.5,2.3,1.5,0.6,0.8-0.8c-0.7-1.4-0.9-3.1-0.9-4.3C-316,300.3-316.4,298.5-316.4,298.5"/>
<path class="st0" d="M-314.9,304c1,1.4,0.7,0.2,0.5-1.2c-0.2-1.4-0.2-3.6-0.2-4.7c0,0-0.3-0.3-0.6,0c0,0,0.3,2.5,0,2.5
	c-0.3,0-0.3-0.9-0.4-1.8c-0.1-0.9-0.2-0.6-0.4-0.5C-316,298.3-315.9,302.6-314.9,304"/>
<path class="st0" d="M-327.5,291.5c0,0-0.3,1.8-0.4,4.4c-0.1,2.6,0.1,3.1,1.1,3.1c1.3,0.1,1.6-0.8,1.8-2.9c0.2-2.3,0.3-3.4,0.3-3.7
	c0-0.4-0.7-1.2-0.9,0.1c-0.1,1.4-0.1,5.7-0.9,5.5c-0.9-0.2-0.6-2.3-0.5-3.8c0.2-1.5,0.6-3.3,0.1-3.4
	C-327.5,290.6-327.5,291.5-327.5,291.5"/>
<path class="st0" d="M-324.3,292.4c0,0-1.1,6.4,0,6.4c1.7,0.1,1.5-1.8,1.6-3.8c0.2-2,0.4-2.6-0.1-2.6c-0.4,0-0.5,1.9-0.6,3
	c-0.1,1,0,2.4-0.5,2.3c-0.5-0.1-0.5-1.5-0.3-2.8C-323.7,292.1-323.9,291.8-324.3,292.4"/>
<path class="st0" d="M-321.7,293.1c0,0-0.1-0.3-0.4-0.2c0,0-0.2,2.2-0.3,3.5c-0.1,1.3,0.2,1.9,1,1.9c0.9,0,0.8-1.5,0.8-2.8
	c0-1.2,0.4-2.4,0-2.5c-0.4-0.1-0.4,0.8-0.4,1.6c0,0.8-0.1,2.6-0.5,2.6c-0.4,0-0.6-0.4-0.5-1.7C-321.8,294.3-321.7,293.1-321.7,293.1
	"/>
<path class="st0" d="M-296.8,298.4c0.3-0.1,0.2-0.3,0.5,0c0.3,0.3,0.3,0.3,0.6,0.2c0.3-0.1,0.7,0.1,0.9,0.3c0.2,0.2,0.4,0.2,0.4,0.3
	c0,0.2-0.3,0.4,0.4,0.5c0.7,0.1,0.9,0.2,1.1,0c0.2-0.2,0.5-0.2-0.1-0.6c-0.6-0.3-0.8-0.3-1.2-0.7c-0.5-0.5-0.4-0.5-0.7-0.6
	c-0.3-0.1-0.7-0.3-1.1-0.2c-0.5,0.1-1,0.1-1,0.1s-0.2,0.1-0.1,0.3C-297.1,298.3-297.1,298.5-296.8,298.4"/>
<path class="st0" d="M-293.8,300.1c-0.2,0-0.4-0.2-0.6-0.2c0,0-0.3,0-0.2,0.3c0.2,0.3,0.4,0.3,0.6,0.3
	C-293.8,300.4-293.6,300.2-293.8,300.1"/>
<path class="st0" d="M-292.2,300.3c0,0,0.5,0,0.7-0.2c0.2-0.1,0.4,0.1,0.7,0.1c0.2,0,0.4,0,0.5-0.2c0.2-0.3,0-0.4-0.2-0.6
	c-0.2-0.2-0.5-0.2-0.7-0.1c-0.2,0.1-0.2,0.2-0.4,0.2C-291.8,299.6-292.5,300.3-292.2,300.3"/>
<path class="st0" d="M-289.5,300.5c0.1,0,0.4,0.1,0.5,0c0.1,0,0.3,0,0.1-0.3c-0.2-0.3-0.1-0.4-0.5-0.3c-0.4,0.1-0.3,0.2-0.3,0.2
	S-289.6,300.5-289.5,300.5"/>
<path class="st0" d="M-288.1,304.7c0.1,0.1,0.2,0.2,0.3,0c0.1-0.2,0.1-0.6-0.4-0.5c0,0-0.2,0.1-0.1,0.2
	C-288.2,304.5-288.1,304.6-288.1,304.7"/>
<path class="st0" d="M-315.7,294.4c-0.5,3.9,1,2.5,1,2.5c0.1-1,0.2-2.3,0.2-2.3c-0.1-0.2-0.3-0.1-0.3,0.4c0,0.5-0.1,1.6-0.4,1.5
	c-0.4-0.1-0.1-2.1-0.2-2.2C-315.7,294.3-315.7,294.4-315.7,294.4"/>
<path class="st0" d="M-317.6,294c0,0-0.3,1.9-0.3,2.5c0,0.6,0.3,1,1.1,1c0.8-0.1,0.6-1.1,0.7-1.9c0.1-0.8,0.1-1.3,0.1-1.3
	c-0.4-0.1-0.3,0-0.5,1c-0.1,1.1-0.1,1.5-0.6,1.6c-0.5,0-0.2-2-0.2-2.5C-317.2,293.8-317.6,294-317.6,294"/>
<path class="st0" d="M-319.7,293.5c0,0-0.3,1.9-0.3,3.3c0,1.4,1.7,1,1.7,0c0.1-1.1,0.4-3,0.4-3c-0.5-0.4-0.6,0.7-0.7,1.7
	c-0.1,1-0.1,1.6-0.7,1.5c-0.5-0.1-0.2-2.7-0.1-3.2C-319.4,293.3-319.7,293.5-319.7,293.5"/>
<path class="st0" d="M-320.5,327.8c-0.3,0.5-0.1,0.6,0.2,0.7c0.3,0,0.4-0.8,0.4-0.8C-320,327.3-320.2,327.3-320.5,327.8"/>
<path class="st0" d="M-319.3,327.6c0,0-0.4-0.1-0.3,0.5c0.1,0.6,0.4,0.7,0.5,0.5c0.1-0.1,0.1-0.6,0.1-0.8
	C-319,327.8-319.2,327.4-319.3,327.6"/>
<path class="st0" d="M-318.5,327.5c0,0-0.1,0.5,0.1,0.8c0.2,0.3,0.6,0.5,0.5-0.2C-318,327.4-318.2,327.2-318.5,327.5"/>
<path class="st0" d="M-324.6,326.4c-0.1-0.1-0.3-0.1-0.4,0.1c0,0-0.1,0.4,0.2,0.4C-324.4,326.9-324.5,326.5-324.6,326.4"/>
<path class="st0" d="M-326.2,327.3L-326.2,327.3c0,0,0,0.3,0.2,0.3c0.2,0,0.2-0.1,0.2-0.2C-325.7,327.3-326.1,327.1-326.2,327.3"/>
<path class="st0" d="M-325.7,329.3c0,0-0.2,0.2,0.1,0.4c0.3,0.2,0.3,0.1,0.3-0.2C-325.4,329.1-325.5,329.1-325.7,329.3"/>
<path class="st0" d="M-324,329.2c0,0,0.2,0.1,0.3,0c0-0.1-0.1-0.2-0.1-0.2S-324.1,328.9-324,329.2"/>
<path class="st0" d="M-323.7,330.7c0,0-0.1,0.3,0.2,0.4c0.3,0,0.3-0.3,0.2-0.4C-323.4,330.6-323.7,330.6-323.7,330.7"/>
<path class="st0" d="M-322.2,331.1c0,0,0.3,0.1,0.3,0c0-0.1,0-0.2-0.1-0.3C-322.1,330.8-322.3,330.9-322.2,331.1"/>
<path class="st0" d="M-322.5,336.4c0,0,0.5-1.2-0.2-1c0,0-0.4,0.3-0.3,0.9c0,0-0.4-0.1-0.1,0.4c0.3,0.5,0.4,1,0.9,0.5
	C-321.7,336.7-322.5,336.4-322.5,336.4"/>
<path class="st0" d="M-320.6,337.3c0,0-0.4,0.3-0.3,0.5c0.1,0.2,0.7,0.2,0.7,0C-320.1,337.6-320.4,337.1-320.6,337.3"/>
<path class="st0" d="M-318.7,337.6c0,0-0.5,0.1-0.3,0.4c0.2,0.3,0.7,0.3,0.7,0.2C-318.2,338.2-318,337.5-318.7,337.6"/>
<path class="st0" d="M-320.2,335.5c0,0-0.5,0.3-0.3,0.5c0.2,0.2,0.6-0.2,0.6-0.2S-319.8,335.4-320.2,335.5"/>
<path class="st0" d="M-318.5,334.9c0.4,0.1,0.6-0.2,0.6-0.2s-0.3-0.7-0.6-0.4C-318.5,334.3-318.8,334.7-318.5,334.9"/>
<path class="st0" d="M-316.2,337.3c0.4,0.2,0.6,0,0.6,0s0.3-0.4-0.7-0.6C-316.3,336.8-316.5,337.2-316.2,337.3"/>
<path class="st0" d="M-310.7,337.1c0-0.4-0.4-0.2-0.4-0.2s-0.3,0.1-0.3,0.2c0,0.2,0.3,0.2,0.3,0.2S-310.7,337.5-310.7,337.1"/>
<path class="st0" d="M-310.7,339.3c-0.2-0.1-0.4,0.1-0.4,0.1s-0.1,0.5,0.3,0.5c0.5,0,0.5-0.3,0.5-0.3S-310.3,339.6-310.7,339.3"/>
<path class="st0" d="M-308.1,338.6c0-0.3-0.3-0.5-0.5-0.4c0,0-0.5,0-0.6,0.4c-0.1,0.4,0.7,0.4,0.7,0.4S-308.1,338.9-308.1,338.6"/>
<path class="st0" d="M-308.7,340.1c0,0,0,0.4,0.4,0.4c0.4,0,0.4-0.3,0.4-0.3S-308.6,339.8-308.7,340.1"/>
<path class="st0" d="M-306.2,338.7c0.5,0,0.3-0.4,0.3-0.4s-0.1-0.2-0.5-0.2c-0.3,0-0.4,0-0.4,0.3
	C-306.6,338.4-306.6,338.7-306.2,338.7"/>
<path class="st0" d="M-310.8,330.8c0.3,0,0.1-0.9,0.1-0.9s-0.2-0.5-0.4-0.5c0,0-0.4,0-0.3,0.7C-311.2,330.8-311.1,330.8-310.8,330.8
	"/>
<path class="st0" d="M-309.7,330.4c0.2,0.3,0.3,0.3,0.6,0.2c0.2-0.1-0.4-1.1-0.4-1.1s-0.6-0.3-0.6,0
	C-310.2,329.4-309.9,330.1-309.7,330.4"/>
<path class="st0" d="M-317.9,330.2c-0.2,0-0.9,0.5-0.6,0.6c0,0,0.4,0.1,0.6-0.2C-317.7,330.4-317.7,330.2-317.9,330.2"/>
<path class="st0" d="M-316.8,330.7c0,0-0.8,0.8-0.5,1c0.3,0.2,0.6-0.3,0.7-0.6C-316.5,330.7-316.6,330.6-316.8,330.7"/>
<path class="st0" d="M-316,332c0.1,0.2,0.3,0.6,0.6,0c0.2-0.6,0.1-0.7-0.1-0.5C-315.5,331.4-316.1,331.7-316,332"/>
<path class="st0" d="M-314,332.2c0.1-0.8,0-0.7-0.2-0.5c0,0-0.5,0.4-0.4,0.6C-314.4,332.6-314.1,333-314,332.2"/>
<path class="st0" d="M-312.5,333.3c0.4,0,0.3-0.6,0.2-1.1c-0.1-0.5-0.2-0.5-0.4-0.5c0,0-0.2,0-0.2,0.5
	C-312.9,332.8-312.9,333.3-312.5,333.3"/>
<path class="st0" d="M-311,332.1c0,0-0.4,0.9,0.1,1.2c0.6,0.4,0.4-0.3,0.2-0.7C-310.8,332.2-310.9,331.8-311,332.1"/>
<path class="st0" d="M-309.4,331.9c0,0-0.3,0-0.2,0.4c0.1,0.5,0.3,0.9,0.7,0.8C-308.4,333.1-309.1,332.1-309.4,331.9"/>
<path class="st0" d="M-306.9,333.1c0.2-0.5-1-1.4-1.2-1.3c0,0-0.4,0.2,0,0.6C-307.7,332.8-307.1,333.5-306.9,333.1"/>
<path class="st0" d="M-305.4,332.8c0.3-0.2-0.5-0.9-0.5-0.9s-0.6-0.6-0.7-0.4c0,0-0.3,0.3,0.1,0.8C-306,332.7-305.7,333-305.4,332.8
	"/>
<path class="st0" d="M-313.7,334.1c0,0-0.8,1.1-0.3,1.3c0.5,0.2,0.5-0.8,0.5-1.2C-313.5,333.8-313.7,334.1-313.7,334.1"/>
<path class="st0" d="M-306.3,333.9c0,0,0.3,0.6,0.3,0.8c0.1,0.2,0.3,0.6,0.5,0.3c0.2-0.4,0.1-0.5-0.2-0.8
	C-305.9,333.8-306.5,333.5-306.3,333.9"/>
<path class="st0" d="M-322.8,289.1c0,0-0.8-0.2-1.1,0.7c-0.3,0.9-0.1,1.2,0.1,1.2c0.2,0,0.3-0.9,0.5-0.8c0.2,0.1-0.3,0.8,0.1,0.9
	c0.3,0.1,0.4-0.8,0.7-0.8c0.2,0.1-0.2,0.8,0.1,0.9C-322.1,291.4-321.6,289.4-322.8,289.1"/>
<path class="st0" d="M-320.5,289.9c0,0-0.7-0.1-1,0.7c-0.2,0.8,0,1.1,0.1,1.1c0.2,0,0.2-0.8,0.4-0.7c0.2,0.1-0.2,0.8,0.1,0.8
	c0.3,0.1,0.4-0.8,0.6-0.7c0.2,0.1-0.2,0.8,0.1,0.8C-319.8,291.9-319.4,290.2-320.5,289.9"/>
<path class="st0" d="M-325,290.3c0.4,0.1,1.2-2.1-0.2-2.6c0,0-1-0.3-1.5,0.7c-0.5,1-0.2,1.5,0,1.4c0.2,0,0.4-1,0.7-0.9
	c0.3,0.1-0.4,1,0,1.1c0.4,0.1,0.6-1,0.9-0.8C-324.8,289.3-325.4,290.2-325,290.3"/>
<path class="st0" d="M-318.4,290.7c0,0-0.6-0.1-0.9,0.6c-0.2,0.7-0.1,1,0.1,0.9c0.1,0,0.2-0.7,0.4-0.6c0.2,0.1-0.2,0.7,0,0.7
	c0.2,0.1,0.3-0.7,0.5-0.6c0.2,0.1-0.2,0.7,0.1,0.7C-317.8,292.5-317.5,290.9-318.4,290.7"/>
<path class="st0" d="M-316.3,292.8c0.2,0.1,0.5-1.2-0.2-1.4c0,0-0.5-0.1-0.7,0.5c-0.2,0.6-0.1,0.8,0.1,0.8c0.1,0,0.2-0.6,0.3-0.5
	c0.1,0.1-0.2,0.5,0,0.6c0.2,0.1,0.3-0.5,0.4-0.5C-316.2,292.2-316.5,292.7-316.3,292.8"/>
<path class="st0" d="M-314.5,293.2c0.2,0,0.4-1.3-0.4-1.4c0,0-0.5,0-0.6,0.5c-0.1,0.6,0,0.8,0.2,0.8c0.1,0,0.1-0.6,0.3-0.6
	c0.2,0-0.1,0.6,0.1,0.6c0.2,0,0.2-0.6,0.4-0.5C-314.5,292.6-314.7,293.2-314.5,293.2"/>
<path class="st0" d="M-326.3,292c-0.1,0.7-0.7,5.1-0.3,5.2c0.4,0.1,0.3-1.9,0.4-2.9c0.1-1,0.3-2.5,0.3-2.5S-326.1,291.2-326.3,292"
	/>
<path class="st0" d="M-323.6,292.9c-0.1,0.6-0.5,4-0.3,4.1c0.3,0.1,0.3-1.5,0.3-2.3c0.1-0.8,0.2-2,0.2-2S-323.5,292.3-323.6,292.9"
	/>
<path class="st0" d="M-321.3,293.5c-0.1,0.5-0.4,3.2-0.1,3.2c0.3,0,0.2-1.2,0.2-1.8c0-0.6,0.1-1.6,0.1-1.6S-321.3,293-321.3,293.5"
	/>
<path class="st0" d="M-319,293.8c-0.1,0.4-0.4,2.4-0.1,2.5c0.3,0,0.2-0.9,0.3-1.4c0-0.5,0.1-1.2,0.1-1.2S-319,293.4-319,293.8"/>
<path class="st0" d="M-316.7,294.2c0,0-0.2-0.2-0.3,0.1c-0.1,0.3-0.3,1.9,0,1.9c0.3,0,0.2-0.7,0.2-1.1
	C-316.7,294.8-316.7,294.2-316.7,294.2"/>
<path class="st0" d="M-314.9,294.4c0,0-0.2-0.1-0.2,0.1c0,0.2-0.2,1.6,0,1.6c0.2,0,0.1-0.6,0.2-0.9
	C-315,294.9-314.9,294.4-314.9,294.4"/>
<path class="st0" d="M-279.5,292.7v1.4c0,0,0.7-0.1,0.7-0.2c0-0.2,0.3,0.1,0.3,0.1S-278.6,293.1-279.5,292.7"/>
<path class="st0" d="M-278.4,296.5c-0.3,0-0.5,0.1-0.5-0.6c0-0.7,0.1-1.1-0.5-0.9v2.1c0,0,0.9,0.7,1.5,0c0,0,0.2-1.3-0.2-2.2
	c0,0-0.1-0.1-0.3,0.1C-278.4,295.1-278.2,296.5-278.4,296.5"/>
<path class="st0" d="M-279.4,298.1c0,0-0.1,1.6,0,1.6c0.1,0,0.6,0,0.6-1C-278.9,297.7-279.2,297.8-279.4,298.1"/>
<path class="st0" d="M-278.3,297.9c0,0-0.2,0-0.2,0.6c0,0.7-0.2,1.1,0,1.1c0.2,0,0.4-0.6,0.5-1.1
	C-277.8,297.9-278,297.7-278.3,297.9"/>
<path class="st0" d="M-279.3,301.1c0.4,0,0.9,0,1-0.6c0.1-0.6-0.6-0.5-1.2,0.1C-279.4,300.5-279.6,301.1-279.3,301.1"/>
<path class="st0" d="M-279.4,301.9c0,0-0.1,1.8,0,1.7c0.1-0.1,0.7-1.2,0.8-1.6C-278.5,301.5-279.3,301.5-279.4,301.9"/>
<path class="st0" d="M-279.7,313.4c0.2,1.1,0.1,1-0.2,1c-0.2,0-0.5-1.5-0.9-0.5c-0.2,0.6-0.6,1.4,0.1,1.4c0.7-0.1,2.4,0.1,1.9-1.3
	C-279.4,312.6-280,312.4-279.7,313.4"/>
<path class="st0" d="M-278.2,317.7c0,0,0.2-0.2,0.1-0.6c-0.1-0.4-1.2-0.1-1.2-0.1l-2.5,0.1c0,0-0.3,0.5-0.2,0.6
	C-282,317.8-278.4,317.9-278.2,317.7"/>
<path class="st0" d="M-280.5,319.9c0-1-0.2-1.8-1-1.8c0,0-1.1-0.1-1.1,0.7c0,0.7-0.1,1.8,0.2,1.8c0.3,0,0.1-1.3,0.3-1.3
	c0.3,0,0.3,0.5,0.3,0.9c0,0.4,0.5,0.5,0.4,0c0-0.5-0.3-1,0-0.9c0.3,0.1,0.4,0.1,0.3,0.6C-281.1,320.3-280.5,320.9-280.5,319.9"/>
<path class="st0" d="M-279.4,319.1c0.2,0,0.3,0.5,0.3,0.8c0,0.3,0.4,0.5,0.4,0c0-0.5-0.2-0.9,0-0.8c0.3,0.1,0.3,0.1,0.3,0.6
	c0,0.5,0.5,1,0.5,0.1c0-0.9-0.2-1.7-0.9-1.7c0,0-1-0.1-1,0.6c0,0.7-0.1,1.6,0.2,1.6C-279.4,320.3-279.7,319.1-279.4,319.1"/>
<path class="st0" d="M-305.1,330.5c0.4,0,0.2-1.9-0.2-1.6c0,0-0.2,0.2-0.2,0.6C-305.7,330.1-305.5,330.5-305.1,330.5"/>
<path class="st0" d="M-303.6,330.4c-0.1-0.7-0.4-1.1-0.5-0.8c0,0-0.1,0.4,0,0.9C-304,331-303.5,331.1-303.6,330.4"/>
<path class="st0" d="M-302,330.6c0.1-0.1-0.5-1.2-0.7-0.9c0,0-0.3,0.1,0,0.6C-302.4,330.7-302.1,330.7-302,330.6"/>
<path class="st0" d="M-300.4,332.8c0-0.2-0.3-0.4-0.4-0.4c0,0-0.3,0.2,0,0.4C-300.6,333.1-300.4,333-300.4,332.8"/>
<path class="st0" d="M-299,332.9c0.4-0.2-0.4-0.8-0.8-0.8c0,0-0.2,0,0,0.4C-299.6,332.8-299.4,333.1-299,332.9"/>
<path class="st0" d="M-297.4,335.1c0.4,0.4,0.7,0.4,0.5-0.1c-0.2-0.5-0.4-0.8-0.6-0.6C-297.5,334.5-297.8,334.8-297.4,335.1"/>
<path class="st0" d="M-295.4,334.8c0.1-0.3-0.6-1.2-0.9-1.2c0,0-0.4,0,0,0.6C-296,334.8-295.5,335.1-295.4,334.8"/>
<path class="st0" d="M-294.3,334.4c0-0.3-0.5-1.4-0.6-1c0,0-0.2,0.7,0.1,1.1C-294.5,334.8-294.3,334.7-294.3,334.4"/>
<path class="st0" d="M-292.9,334c-0.1-0.4-0.4-1.1-0.6-0.9c0,0-0.3,0.2,0,0.6C-293.2,334.2-292.8,334.4-292.9,334"/>
<path class="st0" d="M-291.9,333.4c0.7,0-0.2-0.6-0.2-0.7c-0.1-0.1-0.4-0.2-0.4,0C-292.4,332.8-292.6,333.4-291.9,333.4"/>
<path class="st0" d="M-291.9,335.7c0-0.2-0.2-0.4-0.4-0.4c0,0-0.5,0-0.2,0.3C-292.1,336.1-291.8,336-291.9,335.7"/>
<path class="st0" d="M-290.6,335.5c-0.2-0.7-0.5-1-0.7-0.8c0,0-0.2,0.3,0.1,0.7C-290.9,335.9-290.3,336.2-290.6,335.5"/>
<path class="st0" d="M-289.7,334.7c-0.1-0.5-1-1.9-1-1.4c0,0-0.1,0.4,0.2,0.8C-290.2,334.6-289.6,335.2-289.7,334.7"/>
<path class="st0" d="M-292.6,337.5c-0.1,0.2-0.3,0.8,0.1,0.7c0,0,0.7-0.4,0.6-0.6C-292,337.4-292.5,337.3-292.6,337.5"/>
<path class="st0" d="M-291.3,338.9c-0.4,0.1-0.7,0.4-0.5,0.6c0,0,0.2,0.4,0.6,0C-290.7,339.2-291,338.8-291.3,338.9"/>
<path class="st0" d="M-285.6,339.6c0,0-0.8,0.6-0.1,0.7c0.7,0,0.8-0.2,0.6-0.5C-285.4,339.4-285.4,339.4-285.6,339.6"/>
<path class="st0" d="M-281.2,340.1c-0.2,0-0.8,0.4-0.6,0.6c0,0,0.5,0.2,0.8-0.2C-280.7,340.2-281.1,340.1-281.2,340.1"/>
<path class="st0" d="M-279.5,338.8c-0.3,0.1-0.5,0.4,0,0.6c0,0,0.3,0.1,0.5-0.3C-278.8,338.8-279.2,338.7-279.5,338.8"/>
<path class="st0" d="M-282.4,338.5c0,0-0.7,0.8,0,0.9c0.7,0,0.3-0.6,0.3-0.6S-282.3,338.3-282.4,338.5"/>
<path class="st0" d="M-282.4,337.1c-0.3-0.3-0.5-0.1-0.7,0.1c0,0-0.4,0.8,0.1,0.8C-282.4,337.9-282,337.4-282.4,337.1"/>
<path class="st0" d="M-279.8,337c-0.1-0.3-0.2-0.4-0.4-0.3c0,0-0.5,0.4-0.2,0.5C-280.1,337.4-279.7,337.3-279.8,337"/>
<path class="st0" d="M-287.6,335.1c0,0-0.2,0.4,0.2,0.4c0.4,0,0.4-0.2,0.4-0.4C-286.9,335.1-287.3,334.9-287.6,335.1"/>
<path class="st0" d="M-286.9,332.6c0,0-0.1,0.5,0.3,0.6c0.4,0.1,0.3-0.3,0.2-0.4C-286.4,332.7-286.9,332.3-286.9,332.6"/>
<path class="st0" d="M-284.7,333.6c0,0-0.4,0.4-0.1,0.5C-284.6,334.2-284.1,333.7-284.7,333.6"/>
<path class="st0" d="M-283.1,332.5c0.4,0,0.6-0.4,0.1-0.5C-283.1,332-283.5,332.5-283.1,332.5"/>
<path class="st0" d="M-285.1,332.4c0,0-0.5,0-0.2,0.3c0.3,0.3,0.4,0.3,0.5-0.1C-284.7,332.3-284.8,332.3-285.1,332.4"/>
<path class="st0" d="M-284.3,330.7c0,0-0.1,0.3,0.2,0.5c0.3,0.2,0.3,0,0.3-0.2C-283.8,330.8-284.3,330.4-284.3,330.7"/>
<path class="st0" d="M-284.8,329.9c0,0,0.2,0.1,0.4-0.1C-284.2,329.7-284.9,329.5-284.8,329.9"/>
<path class="st0" d="M-280.8,327.9c0.2-0.2-0.3-0.4-0.4-0.1C-281.2,327.7-281,328.1-280.8,327.9"/>
<path class="st0" d="M-267.9,338.9c0.5-0.2,0.9-1,0-0.8c0,0-0.4,0.4-0.4,0.6C-268.4,338.8-268.4,339.1-267.9,338.9"/>
<path class="st0" d="M-271.2,337.5c0,0-0.2,0.5,0.1,0.5c0.2,0,0.7-0.2,0.4-0.4C-271.1,337.3-271.2,337.4-271.2,337.5"/>
<path class="st0" d="M-272.8,336.8c0,0-0.5,0.2-0.5,0.4c0,0.2,0,0.5,0.4,0.2C-272.4,337.1-272.2,336.5-272.8,336.8"/>
<path class="st0" d="M-274.6,336.2c0,0-0.5,0.2-0.4,0.4c0.2,0.2,0.6,0.6,0.7,0.2C-274.1,336.3-274.2,336-274.6,336.2"/>
<path class="st0" d="M-270.7,335.5c0,0-0.4,0.2-0.4,0.3c0.1,0.2,0.3,0.4,0.5,0.1C-270.3,335.7-270.3,335.3-270.7,335.5"/>
<path class="st0" d="M-269.4,337.2c0.3-0.1,0.8-0.9,0.1-0.8c0,0-0.3,0.1-0.4,0.4C-269.8,337.1-269.7,337.3-269.4,337.2"/>
<path class="st0" d="M-277.4,330.3c0,0,0,0.6,0.4,0.4c0.4-0.1,0.2-0.4,0.2-0.4S-277.5,329.9-277.4,330.3"/>
<path class="st0" d="M-277.4,332.8c-0.3-0.2-0.4-0.2-0.5-0.1c0,0-0.3,0.5,0,0.6C-277.6,333.3-277.1,333-277.4,332.8"/>
<path class="st0" d="M-275.9,331.2c0.1-0.2-1.2,0.3-0.7,0.5c0,0,0.4,0.2,0.6,0.1C-275.8,331.7-276,331.4-275.9,331.2"/>
<path class="st0" d="M-274.8,328.9c0.3,0,0.3-0.3,0.2-0.5c-0.1-0.2-0.6-0.2-0.6,0.2C-275.2,328.6-275.1,328.9-274.8,328.9"/>
<path class="st0" d="M-274.6,329.9c0.7,0.4,0.5-0.7,0.1-0.5C-274.5,329.4-275,329.7-274.6,329.9"/>
<path class="st0" d="M-273.6,329.1c0.7,0,0.3-0.7,0.1-0.6c0,0-0.3,0.3-0.4,0.3C-273.9,328.9-274.2,329.1-273.6,329.1"/>
<path class="st0" d="M-274.4,331.1c0,0.2,0.2,0.3,0.5,0.2c0.3-0.1,0.3-0.5-0.1-0.4C-274,330.9-274.4,331-274.4,331.1"/>
<path class="st0" d="M-272.7,330.6c0.2-0.1,0.1-0.4,0.1-0.6c0-0.2-0.1-0.3-0.4-0.1c0,0-0.2,0-0.2,0.3
	C-273.1,330.4-272.9,330.7-272.7,330.6"/>
<path class="st0" d="M-266.5,326.9c0.3-0.2,0.4-0.6,0-0.7c0,0-0.3,0-0.3,0.3C-266.8,326.8-266.8,327.1-266.5,326.9"/>
<path class="st0" d="M-265.7,327.2c0,0,0.3,0.2,0.6,0.1c0.2,0,0.1-0.4-0.1-0.5C-265.4,326.8-266,327.2-265.7,327.2"/>
<path class="st0" d="M-264.5,325.8c0.6,0.1,0.7-0.6,0.4-0.5C-264.1,325.3-265,325.7-264.5,325.8"/>
<path class="st0" d="M-265.6,325.7c0.3,0,0.5-0.1,0.3-0.3c-0.2-0.1-0.4-0.4-0.4-0.3C-265.8,325.1-265.9,325.7-265.6,325.7"/>
<path class="st0" d="M-267.6,290.4c0-0.6-0.2-0.7-0.2-0.6c0,0-0.1,1.6,0,1.6C-267.6,291.4-267.5,291-267.6,290.4"/>
<path class="st0" d="M-275.4,294c-0.3,0-0.4-0.5-0.4-0.8c0-0.3-0.3-0.5-0.5-0.1c0,0,0.1,1.4,0.7,1.3c0.8-0.1,1-0.5,0.7-1.5
	c0,0-0.2-0.3-0.4-0.1C-275.6,293-275.1,293.9-275.4,294"/>
<path class="st0" d="M-274.4,292.5c0,0-0.1,1.5,0.5,1.5c0.8,0,1.1-0.4,0.9-1.6c0,0-0.1-0.4-0.4-0.2c-0.3,0.2,0.1,1.3-0.3,1.3
	c-0.3,0-0.4-0.5-0.3-0.9C-273.9,292.3-274.2,292.1-274.4,292.5"/>
<path class="st0" d="M-272.5,292.1c0,0-0.1,1.5,0.4,1.5c0.7,0,1-0.4,0.9-1.6c0,0-0.1-0.4-0.4-0.1c-0.3,0.2,0,1.3-0.3,1.3
	c-0.3,0-0.3-0.6-0.3-0.9C-272,291.9-272.3,291.6-272.5,292.1"/>
<path class="st0" d="M-270.7,291.2l0,1.3c0,0-0.1,0.9,0.8,0.9c0.9,0,0.7-1.2,0.7-1.7c0-0.5-0.1-1.3-0.3-1.2c-0.2,0-0.3,0.3-0.3,0.9
	c0,0.6,0.1,1.2-0.2,1.2c-0.3,0-0.3-0.4-0.3-1C-270.2,291-270.6,290.6-270.7,291.2"/>
<path class="st0" d="M-268.1,289.9c0,0-0.6-0.5-0.6,0.3c0,0.8-0.2,2.9,1,3c1.2,0.1,1.1-1.5,1.1-2.6c0-1,0.2-2.1-0.2-1.8
	c-0.4,0.3-0.5,0.6-0.5,1.3c0,0.7,0.2,1.9-0.2,2c-0.4,0.1-0.6-0.1-0.6-1.1C-268,290.1-268.1,289.9-268.1,289.9"/>
<path class="st0" d="M-265.3,290.7c-0.1-1.2,0-2-0.2-2c0,0-0.4,0-0.5,0.6c0,0.6-0.3,3,0.5,3.3c0.8,0.4,1.9,0.2,1.9-0.7
	c0-0.9,0-2.8,0-3.4c0-0.5-0.5-0.8-0.6,0c-0.1,0.7,0.3,3.6-0.3,3.5C-265.2,291.9-265.3,291.9-265.3,290.7"/>
<path class="st0" d="M-264.9,288.8c0,0-0.2,2.1,0.1,2.2c0.3,0.1,0.1-1.4,0.2-1.9C-264.6,288.7-264.8,288.4-264.9,288.8"/>
<path class="st0" d="M-268,322c0.5,0.1,2.1-3.6,2.5-5.9c0.4-2.3,0.5-2.9,1-4c0.5-1.1,1.1-5.4,1.1-7.5c0-2.2,0.1-4.1,0-4.5
	c-0.1-0.3-0.2-0.5-0.6-0.2c-0.4,0.3-0.8,0.1-0.8,1.1c0.1,1,0.1,7-0.2,8c-0.3,1-0.7,2.5-0.9,3.5c-0.3,1-0.6,2.1-0.4,0.1
	c0.2-2.1,0.6-2.1,0.7-3.4c0-1.3,0.3-2.7,0.3-4.5c-0.1-1.8,0.1-4.1,0.1-4.1s-0.9-1.2-0.9-0.1c0,1.1,0.1,6.8,0,7.5
	c-0.1,0.8-0.3,1.9-0.2,2.7c0.1,0.8-0.3,1-0.3,2.3c-0.1,1.2-0.4,6-1,7.2C-268.4,321.4-268.5,321.9-268,322"/>
<path class="st0" d="M-268.8,316.3c0.4-0.2,1.9-3.9,2-9.5c0.1-5.6,0.3-6.2,0.1-6.6c-0.2-0.4-0.8-0.5-0.7,0.6
	c0.1,1.2-0.2,9.2-0.6,9.2c-0.3,0.3,0.3-6.9,0.1-9.7l0-0.1c0,0-0.5-1.3-0.5-0.3c0,1-0.1,5.4-0.2,5.8c-0.1,0.3-0.6,2.2-0.5,3.6
	c0.2,1.3,0.3,4.7,0.1,5.6C-269.1,315.8-269.2,316.5-268.8,316.3"/>
<path class="st0" d="M-269.1,303.7c0.1-1.2,0.4-3.6,0.3-4.2c0,0-0.7-0.2-0.7,0.5c0,0.4,0,2.3-0.1,2.9c-0.1,0.6-0.1,3.4-0.5,3.4
	c-0.4,0-0.2-1.4-0.1-2.6c0.1-1.2,0.5-2.4,0.2-4.1c0,0-0.6-0.6-0.6-0.1c0,0.5,0.1,2-0.1,2.2c-0.2,0.2-0.3,1-0.3,1.9
	c0,0.9,0.2,2.3-0.2,2.9c-0.3,0.6-0.2,1.2-0.3,2c-0.1,0.7-0.3,2.4-0.9,3.4c-0.6,1,0.7,1.3,2.1-2.6
	C-269,305.6-269.2,304.9-269.1,303.7"/>
<path class="st0" d="M-272.8,299.7c0,0.6-0.1,4.5-0.4,5.2c-0.3,0.7-0.4,2-0.6,2.4c-0.2,0.4-0.9,2.1-1.2,2.6
	c-0.3,0.5-0.3,1.2,0.3,0.8c0.6-0.5,2.5-2.9,2.8-5c0.3-2.1,0.6-3.5,0.7-4.1c0.1-0.6,0.3-2.1,0.1-2.2c-0.2-0.1-0.5-0.2-0.5,0.3
	c0,0.6-0.2,2.6-0.5,3.6c-0.3,1-0.3,1.3-0.4,0.1c0-1.2,0.2-3.6,0.1-4.2C-272.4,299.2-272.8,299.1-272.8,299.7"/>
<path class="st0" d="M-274.8,299.1c0,0-0.1,0.5-0.1,2.2c0,2.1-1.1,4.3-1.7,5.6c-0.6,1.3,0.2,1,0.7,0.5c0.5-0.4,1.4-2,1.9-3
	c0.5-0.9,0.9-5.4,0.9-5.4c-0.1-0.2-0.5-0.3-0.6,0c-0.1,0.2-0.3,0.3-0.5,0.1C-274.3,298.9-274.8,299.1-274.8,299.1"/>
<path class="st0" d="M-275.6,303.2c0.3-0.7,0.4-4,0.4-4c0-0.5-0.2-0.9-0.3,0.1c-0.1,0.9-0.3,0.5-0.5-0.3c-0.2-0.8-0.4,1.5-0.3,2.3
	c0.1,0.8-0.7,2.9-1,4.3C-277.6,307-275.9,304-275.6,303.2"/>
<path class="st0" d="M-275.2,295.4c-0.1,1,0,1.5-0.3,1.3c-0.3-0.1,0-1.7-0.3-1.7c-0.3,0-0.2,0.6-0.3,1.1c0,0.4-0.1,1.7,0.5,1.7
	c1.1,0,0.8-2.1,0.8-2.4C-274.7,295-275.1,294.4-275.2,295.4"/>
<path class="st0" d="M-273,294.7c-0.3,0-0.4,0.1-0.4,0.7c0,0.6,0.1,1.2-0.2,1.1c-0.3-0.1-0.2-0.7-0.2-1.3c0-0.5-0.2-0.5-0.2-0.5
	s-0.3-0.1-0.3,0.5c0,0.6-0.1,2.5,0.5,2.5c0.6,0,0.9-0.5,1-1.7C-272.8,294.7-272.8,294.7-273,294.7"/>
<path class="st0" d="M-271.8,298.2c1,0.1,0.8-1.7,0.8-2.2c0-0.4,0.1-1.5-0.1-1.5c-0.2,0-0.2,0.3-0.2,0.8c0,0.5,0,1.7-0.3,1.7
	c-0.3,0-0.4-0.6-0.3-1.4c0.1-0.8,0.1-1-0.1-1c0,0-0.4,0-0.4,0.7C-272.4,295.9-272.8,298.1-271.8,298.2"/>
<path class="st0" d="M-268.9,294.3c-0.3-0.1-0.5,0-0.5,0.6c0,0.6,0.1,2.4-0.3,2.4c-0.3,0-0.4-0.5-0.4-1.5c0-0.9,0.2-1.5,0.1-1.5
	c0,0-0.5-0.3-0.5,0.6c0,0.9-0.2,3.4,0.6,3.5c0.7,0.1,1.2-0.8,1.1-2C-269,295.4-268.6,294.4-268.9,294.3"/>
<path class="st0" d="M-267.9,294.1c0,0-0.4-0.1-0.4,0.7c-0.1,0.7,0,2.1,0,2.8c0,0.7,0.1,1.3,0.7,1.3c0.6,0.1,1.1-1,1.1-2.1
	c0-1.1,0.3-2.8-0.2-2.9c-0.4-0.1-0.3,0.3-0.3,0.7c0,0.4,0,3.2-0.5,3.1c-0.5-0.1-0.6-1.2-0.4-2.5
	C-267.7,293.9-267.9,294.1-267.9,294.1"/>
<path class="st0" d="M-267.5,294.6c0,0-0.2-0.1-0.2,0.6c0,0.7-0.2,1.9,0.1,1.9c0.3,0,0.1-0.6,0.2-1.3
	C-267.3,295.1-267.3,294.6-267.5,294.6"/>
<path class="st0" d="M-263.4,293.6c-0.4,0-0.5-0.1-0.5,0.7c0,0.8-0.1,3.2-0.1,3.2s0.1,0.9-0.6,0.9c-0.6,0-0.6-0.4-0.6-1.3
	c0-0.9,0.2-3.2-0.3-3.2c0,0-0.4,0-0.4,0.8c0,0.8,0,3,0,3.4c0,0.4,0.2,1.3,1.2,1.5c1.1,0.1,1.4-1.4,1.4-2.9
	C-263.3,295.1-263.1,293.6-263.4,293.6"/>
<path class="st0" d="M-264.6,294.4c0,0-0.3-0.1-0.3,0.6c0,0.7-0.1,2.7,0.1,2.7c0.2,0,0.3-0.1,0.3-0.7
	C-264.6,295.3-264.4,294.4-264.6,294.4"/>
<path class="st0" d="M-276.6,275.2l0.3-2.5c0-0.4,0-0.6-0.5-0.7l-0.6-0.1l-0.5,3.6l0.6,0.1C-276.8,275.8-276.6,275.6-276.6,275.2
	 M-277.4,275.4l0.2-1.3l0.3,0l0-0.3l-0.3,0l0.2-1.4l0.2,0c0.2,0,0.3,0.1,0.3,0.3l-0.4,2.5c0,0.2-0.1,0.3-0.3,0.2L-277.4,275.4z"/>
<path class="st0" d="M-305.5,293.4c0,0-0.5,0-0.5-0.5v-0.5h1c0.4,0,0.7-0.3,0.7-0.7c0-0.4-0.3-0.7-0.7-0.7h-1h-0.4h-0.5v0.3
	c0,0,0.3-0.1,0.3,0.3v1.4c0,0-0.1,0.2-0.3,0.2v0.3h1.4L-305.5,293.4z M-305.3,291.4c0.2,0,0.3,0.2,0.3,0.3c0,0.2-0.2,0.3-0.3,0.3
	h-0.7v-0.7H-305.3z"/>
<path class="st0" d="M-309.3,308.7h1.4c0,0,0.2,0.1,0.2,0.3h0.3v-1.4l-0.2,0c0,0,0,0.5-0.5,0.5h-0.5v-1c0-0.4-0.3-0.7-0.7-0.7
	c-0.4,0-0.7,0.3-0.7,0.7v1v0.4v0.5h0.3C-309.6,308.9-309.6,308.7-309.3,308.7 M-309.6,307.4c0-0.2,0.2-0.3,0.4-0.3
	c0.2,0,0.4,0.2,0.4,0.3v0.7h-0.7V307.4z"/>
<path class="st0" d="M-285.3,319.6c0,0-0.1,0.3-0.4,0.1c-0.3-0.2-1.1-0.8-1.1-0.8s-0.2-0.2,0-0.4l-0.2-0.2l-0.9,1.2l-0.3,0.4
	c-0.3,0.4-0.2,0.8,0.1,1.1c0.2,0.2,0.5,0.2,0.8,0c0,0.2,0.1,0.4,0.3,0.5c0.3,0.2,0.7,0.1,1-0.2l0.6-0.8l0.1-0.1l0.2-0.2l0.3-0.4
	L-285.3,319.6z M-287.6,320.5c-0.2-0.1-0.2-0.4-0.1-0.5l0.4-0.5c0.1,0,0.2,0,0.3,0.1c0.1,0.1,0.2,0.2,0.4,0.3l-0.4,0.6
	C-287.2,320.6-287.5,320.6-287.6,320.5 M-286.2,320.9c-0.1,0.2-0.3,0.2-0.5,0.1c-0.2-0.1-0.2-0.3-0.1-0.5l0.4-0.5
	c0.2,0.2,0.4,0.3,0.6,0.4L-286.2,320.9z"/>
<path class="st0" d="M-302,291.1c-0.8,0-1.4,0.6-1.4,1.3c0,0.7,0.6,1.3,1.4,1.3s1.4-0.6,1.4-1.3C-300.6,291.7-301.3,291.1-302,291.1
	 M-302,293.3c-0.2,0-0.6-0.4-0.6-0.9c0-0.5,0.3-0.9,0.6-0.9c0.2,0,0.6,0.5,0.6,0.9C-301.5,292.9-301.8,293.3-302,293.3"/>
<path class="st0" d="M-298.2,293.4c0,0-0.5,0-0.5-0.5v-0.5h0.4l0.7,1.2c0,0,0.5,0.1,0.8-0.3l-0.1-0.2c0,0-0.3,0.2-0.5,0
	c-0.1-0.2-0.3-0.5-0.4-0.6c0.4,0,0.7-0.3,0.7-0.7c0-0.4-0.3-0.7-0.7-0.7h-1h-0.4h-0.5v0.3c0,0,0.3-0.1,0.3,0.3v1.4
	c0,0-0.1,0.2-0.3,0.2v0.3h1.4L-298.2,293.4z M-298.1,291.4c0.2,0,0.3,0.2,0.3,0.3c0,0.2-0.2,0.3-0.3,0.3h-0.7v-0.7H-298.1z"/>
<path class="st0" d="M-309.3,303.8h1.4c0,0,0.2,0.1,0.2,0.3h0.3v-1.4l-0.2,0c0,0,0,0.5-0.5,0.5h-0.5v-0.4l1.2-0.7
	c0,0,0.1-0.5-0.3-0.8l-0.2,0.1c0,0,0.2,0.3,0,0.5c-0.2,0.1-0.5,0.3-0.6,0.4c0-0.4-0.3-0.7-0.7-0.7c-0.4,0-0.7,0.3-0.7,0.7v1v0.4v0.5
	h0.3C-309.6,304-309.7,303.8-309.3,303.8 M-309.7,302.5c0-0.2,0.2-0.3,0.4-0.3c0.2,0,0.3,0.1,0.3,0.3v0.7h-0.7V302.5z"/>
<path class="st0" d="M-296.2,325.5c0,0,0.5,0.1,0.4,0.6c0,0.1-0.1,0.3-0.1,0.4l-0.4-0.1l-0.4-1.3c0,0-0.4-0.2-0.9,0.1l0.1,0.2
	c0,0,0.4-0.1,0.4,0.2c0.1,0.2,0.1,0.6,0.2,0.7c-0.4-0.1-0.7,0.1-0.8,0.5c-0.1,0.4,0.1,0.7,0.5,0.8l1.3,0.4l0.5,0.1l0.1-0.3
	c0,0-0.3,0-0.2-0.3c0.1-0.3,0.4-1.3,0.4-1.3s0.1-0.2,0.4-0.1l0.1-0.2l-1.3-0.4L-296.2,325.5z M-297.1,326.9c0-0.2,0.2-0.3,0.4-0.2
	l0.6,0.2c-0.1,0.3-0.1,0.5-0.2,0.7l-0.6-0.2C-297.1,327.3-297.2,327.1-297.1,326.9"/>
<path class="st0" d="M-281.4,294.2c0,0,0.1,0.3-0.3,0.3h-1.4c0,0-0.2-0.1-0.2-0.3h-0.3v1.4l0.2,0c0,0,0-0.5,0.5-0.5h0.5v0.4
	l-1.2,0.7c0,0-0.1,0.5,0.3,0.8l0.2-0.1c0,0-0.2-0.3,0-0.5c0.2-0.1,0.5-0.3,0.6-0.4c0,0.4,0.3,0.7,0.7,0.7c0.4,0,0.7-0.3,0.7-0.7v-1
	v-0.4v-0.5H-281.4z M-281.3,295.7c0,0.2-0.2,0.3-0.3,0.3c-0.2,0-0.3-0.2-0.3-0.3V295h0.7V295.7z"/>
<polygon class="st0" points="-291.5,293.4 -291.8,293.4 -290.9,292 -289.6,293.6 -288.4,292.4 -287.7,293.4 -288.1,293.4 
	-288.1,293.6 -286.4,293.6 -286.4,293.4 -286.6,293.4 -287.8,291.7 -287.7,291.7 -287.7,291.2 -288.3,291.2 -288.3,291.5 
	-289.3,292.6 -290.4,291.2 -291.6,291.2 -291.6,291.6 -291.3,291.6 -291.3,291.6 -292.5,293.4 -292.8,293.4 -292.8,293.6 
	-291.5,293.6 "/>
<polygon class="st0" points="-284.2,293.2 -284.4,293.2 -284.4,291.6 -284.2,291.6 -284.2,291.2 -285.3,291.2 -285.3,291.6 
	-285.1,291.6 -285.1,293.2 -285.3,293.2 -285.3,293.6 -284.2,293.6 "/>
<polygon class="st0" points="-309.5,300.5 -307.8,300.5 -307.8,300.7 -307.5,300.7 -307.5,299.5 -307.8,299.5 -307.8,299.7 
	-309.5,299.7 -309.5,299.5 -309.9,299.5 -309.9,300.7 -309.5,300.7 "/>
<polygon class="st0" points="-309.5,295.8 -307.4,294.4 -309.5,292.8 -309.5,292.3 -309.9,292.3 -309.9,293.5 -309.5,293.5 
	-309.5,293.2 -308.3,294.1 -309.5,294.9 -309.5,294.8 -309.9,294.8 -309.9,296.2 -309.5,296.2 "/>
<polygon class="st0" points="-309.7,299 -309.2,299 -309.2,298.8 -309.4,298.8 -309.4,298.1 -307.8,298.1 -307.8,298.5 
	-307.5,298.5 -307.5,296.9 -307.8,296.9 -307.8,297.3 -309.4,297.3 -309.4,296.6 -309.2,296.6 -309.2,296.4 -309.4,296.4 
	-309.9,296.4 -309.9,299 "/>
<polygon class="st0" points="-309.5,305.9 -307.8,305.9 -307.8,306.1 -307.5,306.1 -307.5,304.9 -307.8,304.9 -307.8,305.1 
	-309.5,305.1 -309.5,304.9 -309.9,304.9 -309.9,306.1 -309.5,306.1 "/>
<path class="st0" d="M-287.8,322.7c0,0-0.1-0.1-0.2-0.1l-1-1.1c0,0-0.1-0.1,0-0.1c0,0,0.1-0.1,0.2-0.2l-0.2-0.2l-1.9,1.8l0.3,0.6
	l0.2-0.2c-0.1-0.1,0-0.4,0-0.4c0,0,0-0.1,0.1-0.1l0.8-0.7l1.1,1.1c0,0,0.1,0.1,0.1,0.2c0,0-0.3,0.3-0.4,0.4l0.2,0.2l1.2-1.1
	l-0.2-0.2C-287.7,322.6-287.8,322.7-287.8,322.7"/>
<path class="st0" d="M-305.2,319.7l1.3-0.8c0,0,0.1,0,0.1,0c0,0,0.1,0.1,0.2,0.2l0.3-0.2l-1.4-2.2l-0.7,0.2l0.2,0.3
	c0.1,0,0.4,0.1,0.4,0.1c0,0,0.1,0,0.1,0.1l0.6,0.9l-1.3,0.8c-0.1,0-0.2,0.1-0.2,0.1c0,0-0.2-0.3-0.3-0.5l-0.3,0.2l0.9,1.4l0.3-0.2
	c-0.1-0.1-0.1-0.2-0.1-0.2C-305.4,319.8-305.3,319.7-305.2,319.7"/>
<path class="st0" d="M-303.9,319.6l0.2,0.3c0.1-0.1,0.2-0.1,0.2-0.1c0.1,0,0.1,0,0.1,0c0,0,0.2,0.1,0.2,0.2l0.5,0.6l-0.6,0.5
	l-0.6-0.7l-0.3,0.2l0.6,0.8l-0.5,0.4l-0.5-0.6c0,0,0,0,0,0c0,0,0-0.1,0-0.1c0,0,0,0,0-0.1l0.1-0.2l-0.2-0.3l-0.4,0.6l1.4,1.7
	l0.2-0.2c-0.1-0.1-0.1-0.1-0.1-0.1c0,0,0-0.1,0-0.1c0,0,0,0,0.1-0.1l1.3-1c0,0,0.1,0,0.1,0c0,0,0.1,0.1,0.2,0.2l0.2-0.2l-1.4-1.8
	L-303.9,319.6z"/>
<path class="st0" d="M-307.9,314.7l1.6-0.5c0.1,0,0.1,0,0.1,0c0,0,0.1,0.1,0.1,0.2l0.3-0.1l-0.7-2.2l-0.7,0.1l0.1,0.3
	c0.1,0,0.2,0,0.2,0c0.1,0,0.1,0,0.1,0c0,0,0.1,0.2,0.1,0.2l0.2,0.7l-0.8,0.3l-0.3-0.9l-0.3,0.1l0.3,0.9l-0.6,0.2l-0.3-0.8
	c0,0,0,0,0,0c0,0,0-0.1,0-0.1c0,0,0,0,0.1-0.1l0.2-0.1l-0.1-0.3l-0.6,0.4l0.7,2.1l0.3-0.1c0-0.1,0-0.1-0.1-0.2
	C-308,314.8-308,314.7-307.9,314.7C-308,314.7-308,314.7-307.9,314.7"/>
<path class="st0" d="M-308.7,312c0.3,0,0.5-0.3,0.6-0.8c0-0.2,0.1-0.3,0.1-0.5c0-0.2,0.1-0.4,0.1-0.5c0-0.1,0.1-0.1,0.2-0.1
	c0.1,0,0.1,0,0.2,0.1c0,0.1,0.1,0.2,0.1,0.3c0,0.2,0,0.5,0,0.6c-0.1,0.1-0.3,0.3-0.5,0.4l0.2,0.4c0.3-0.1,0.5-0.2,0.7-0.3
	c0.1-0.4,0.1-0.6,0.1-1c-0.1-0.5-0.2-0.8-0.4-1c-0.2-0.2-0.4-0.3-0.6-0.3c-0.2,0-0.3,0.1-0.4,0.3c-0.1,0.1-0.2,0.4-0.2,0.7
	c0,0.1,0,0.2-0.1,0.5c0,0.2-0.1,0.4-0.1,0.5c0,0-0.1,0.1-0.1,0.1c-0.1,0-0.2-0.1-0.3-0.3c0-0.2-0.1-0.8,0-0.9c0-0.1,0.3-0.2,0.5-0.3
	l-0.1-0.4c-0.3,0.1-0.5,0.2-0.7,0.2c-0.1,0.4-0.1,0.6-0.1,0.9c0,0.4,0.1,0.8,0.3,1C-309.1,311.9-308.9,312.1-308.7,312"/>
<path class="st0" d="M-281.8,301.8C-281.6,301.8-281.7,301.8-281.8,301.8c0.1,0.1,0.2,0.1,0.2,0.1c0,0,0,0.1,0,0.1v0.9l-1.8-1.6
	c0,0-0.3-0.3-0.3,0.2v2.4l0.7,0.2v-0.5c-0.2-0.1-0.1-0.1-0.2-0.2c0,0-0.1-0.1-0.1-0.2v-0.8l1.8,1.5c0,0,0.2,0.2,0.2-0.2v-2.4
	l-0.7-0.2V301.8z"/>
<path class="st0" d="M-283.1,297.4c0,0,0-0.1,0-0.2h-0.4v1h0.4V298v0l0.4,0.2v1.1c-0.3,0.2-0.4,0.2-0.4,0.2s0-0.4,0-0.4h-0.4v1.7
	h0.4c0-0.1,0-0.2,0-0.2c0,0,0-0.1,0.1-0.1l1.9-1.2v-0.7L-283.1,297.4C-283.1,297.5-283.1,297.4-283.1,297.4 M-282.4,298.5l0.5,0.3
	l-0.5,0.3V298.5z"/>
<path class="st0" d="M-283.2,304.9c0,0,0-0.1,0-0.2h-0.4v1h0.4v-0.2v0l0.4,0.2v1.1c-0.3,0.2-0.4,0.2-0.4,0.2s0-0.4,0-0.4h-0.4v1.7
	h0.4c0-0.1,0-0.2,0-0.2c0,0,0-0.1,0.1-0.1l1.9-1.2V306L-283.2,304.9C-283.1,304.9-283.2,304.9-283.2,304.9 M-282.4,305.9l0.5,0.3
	l-0.5,0.3V305.9z"/>
<path class="st0" d="M-291.1,323.5l-0.2-0.4l-0.9,0.5l0.2,0.4c0.1-0.1,0.2-0.1,0.2-0.1c0,0,0,0,0,0l0,0.5l-0.9,0.6
	c-0.4-0.2-0.4-0.2-0.4-0.2s0.4-0.2,0.4-0.2l-0.2-0.4l-1.4,0.9l0.2,0.4c0.1-0.1,0.2-0.1,0.2-0.1c0,0,0.1,0,0.1,0l2,1l0.6-0.4
	l-0.2-2.3c0,0,0-0.1,0-0.1C-291.3,323.6-291.3,323.6-291.1,323.5 M-292.3,325.2l0.5-0.3l0.1,0.6L-292.3,325.2z"/>
<path class="st0" d="M-298.5,323.9l-0.2,0.3c0.1,0.1,0.2,0.1,0.2,0.1c0,0,0,0,0,0l-0.4,0.2l-0.9-0.6c0-0.4,0.1-0.5,0.1-0.5
	s0.3,0.2,0.4,0.3l0.2-0.3l-1.3-1l-0.2,0.3c0.1,0.1,0.2,0.1,0.2,0.1c0,0,0,0.1,0,0.1l-0.2,2.3l0.6,0.4l2-1c0,0,0.1,0,0.1,0
	c0,0,0.1,0.1,0.2,0.1l0.2-0.3L-298.5,323.9z M-300,325l0.1-0.6l0.5,0.3L-300,325z"/>
<path class="st0" d="M-284.9,315c0,0,0-0.1,0.1-0.2l-0.4-0.2l-0.4,0.9l0.4,0.2c0-0.1,0.1-0.2,0.1-0.2c0,0,0,0,0,0l0.3,0.4l-0.4,1
	c-0.4,0-0.5,0-0.5,0s0.2-0.4,0.2-0.4l-0.4-0.2l-0.7,1.5l0.4,0.2c0-0.1,0.1-0.2,0.1-0.2c0,0,0.1,0,0.1,0l2.3-0.3l0.3-0.6L-284.9,315
	C-284.9,315-284.9,315-284.9,315 M-284.2,316.7l-0.6,0.1l0.2-0.5L-284.2,316.7z"/>
<path class="st0" d="M-282,311.5C-282,311.5-282,311.5-282,311.5c-0.1,0.1-0.2,0.1-0.2,0.1l-1.5-0.4c-0.1,0-0.1,0-0.1-0.1
	c0,0,0-0.1,0.1-0.3l-0.3-0.1l-0.3,1.2l0.3,0.1c0-0.1,0-0.1,0-0.2c0,0,0-0.1,0-0.1c0,0,0,0,0.1,0l0.6,0.2l-0.3,1.1l-0.6-0.2
	c-0.1,0-0.1,0-0.1-0.1c0,0,0-0.1,0-0.2l-0.3-0.1l-0.3,1.2l0.3,0.1c0-0.1,0-0.1,0.1-0.2c0,0,0-0.1,0-0.1c0,0,0,0,0.1,0l1.5,0.4
	c0.1,0,0.2,0.1,0.2,0.1c0,0,0,0.1-0.1,0.3l0.3,0.1l0.3-1.2l-0.3-0.1c0,0.1,0,0.1,0,0.1c0,0,0,0.1,0,0.1c0,0-0.1,0-0.2,0l-0.5-0.1
	l0.3-1.1l0.5,0.1c0.1,0,0.2,0.1,0.2,0.1c0,0,0,0.1,0,0.2l0.3,0.1l0.3-1.2l-0.3-0.1C-282,311.4-282,311.4-282,311.5"/>
</svg>
