<?xml version="1.0" encoding="utf-8"?>
<!-- Generator: Adobe Illustrator 19.0.0, SVG Export Plug-In . SVG Version: 6.00 Build 0)  -->
<svg version="1.1" id="Layer_1" xmlns="http://www.w3.org/2000/svg" xmlns:xlink="http://www.w3.org/1999/xlink" x="0px" y="0px"
	 viewBox="-255 347 100 100" style="enable-background:new -255 347 100 100;" xml:space="preserve">
<style type="text/css">
	.st0{fill:#FCFCFC;}
</style>
<path class="st0" d="M-193.4,396.2v-11.5c0-0.1,0-0.1-0.1-0.1h-22.3c0,0-0.1,0-0.1,0.1v11.5l0,0c0.1,4,1.2,7.8,3.3,10.8
	c2,3,4.8,5.2,7.9,6l0,0c3.1-0.9,5.8-3,7.9-6C-194.7,404-193.6,400.2-193.4,396.2L-193.4,396.2 M-193.9,396.1
	C-193.9,396.1-193.9,396.2-193.9,396.1c-0.2,8-4.6,14.8-10.7,16.5c-6.1-1.7-10.6-8.5-10.7-16.5v-0.1V385h21.5L-193.9,396.1
	L-193.9,396.1z"/>
<path class="st0" d="M-204.6,409.9L-204.6,409.9c4.8-1.7,8.2-7.4,8.4-13.8c0-0.1,0-0.1,0-0.1v-8.4c0,0,0-0.1-0.1-0.1h-16.6
	c0,0-0.1,0-0.1,0.1v8.4c0,0,0,0.1,0,0.1C-212.9,402.4-209.4,408.1-204.6,409.9 M-204.6,409.4c-4.5-1.7-7.8-7.3-7.9-13.3
	c0-0.1,0-0.1,0-0.1c0,0,0-6.4,0-7.8c0.1,0.1,0.1,0.2,0.1,0.3c0.1,0.2,0.4,0.7,0.4,0.7s0,0.2-0.1,0.3c-0.1,0,0.1,0.1,0.2,0.3
	c0.1,0.1,0.2,0.4,0.4,0.4c0.1,0,0.1-0.1,0.1-0.3c-0.1-0.1-0.3-0.6-0.3-0.6s-0.1-0.2-0.1-0.4s-0.2-0.5-0.2-0.5s0.5,0.1,0.6,0.4
	c0,0.1,0.2,0.9,0.4,1.3c0.1,0.2,0.3,0.4,0.4,0.7c0.1,0.2,0.5,0.6,0.9,0.7c0.4,0.1,0.9-0.1,1.2,0c0.2,0.1,0.7,0.6,0.9,0.7
	s1,0.2,1.2,0.6c0.1,0.3,0.5,0.4,0.7,0.4s0.8,0.3,0.8,0.9l-0.5,1c0,0-0.4,0.4-0.4,0.8c-0.1,0.4-0.3,0.6,0.1,1.2
	c0.4,0.6,0.7,1.2,0.7,1.7s0.5,0.6,0.8,0.8c0.3,0.2,0,0.4-0.2,0.9c-0.2,0.5-0.1,1.5-0.3,2.1c-0.2,0.7-0.4,0.9-0.4,1.4s0,1-0.1,1.5
	c-0.2,0.4-0.1,0.9-0.1,1.3c0,0.5,0.1,1,0.4,1.5c0.3,0.4,1,0.6,0.9,0c-0.1-0.7,0-1.5,0.4-1.9l0.4-0.4c0,0-0.1-0.6,0.3-0.9
	s0.7-0.4,0.4-0.5c-0.2-0.1,0-0.3,0.2-0.3s0.3,0.1,0.8-0.5c0.5-0.6,0.7-0.7,1.2-1s0.7-0.9,1-1.2s0.9-0.6,1.2-0.7
	c0.4-0.1,0.5-0.4,0.5-0.8c0-0.4-0.1-0.7,0.1-1.2c0.3-0.4,0.1-0.5,0.4-0.7C-197.6,403.3-200.6,407.8-204.6,409.4 M-196.7,395.9
	c0,0,0,0.1,0,0.1c0,0.2,0,0.5-0.1,0.7c-0.2-0.2-0.6-0.4-0.8-0.7c-0.2-0.3-0.6-0.5-0.7-0.5c-0.1-0.1-0.2-0.2-0.5-0.1
	c-0.4,0.1-0.7,0-0.7-0.4c-0.1-0.4,0-0.7-0.4-0.9c-0.4-0.2-0.6-0.4-0.8-0.6c-0.2-0.2-0.5-0.5-0.6-0.6c-0.1,0-0.7,0-0.7,0
	s-0.4-0.4-0.9-0.2c0,0-0.4-0.5-0.7-0.2c-0.4,0.3-0.7,0.5-0.9,0.2c-0.2-0.3-0.6-0.1-0.9-0.1c-0.2,0-0.5-0.4-0.5-0.6
	c-0.1-0.2,0-0.5-0.1-0.5s-0.5,0.1-0.7-0.1c-0.3-0.2-0.1-0.4,0-0.5c0.1-0.1,0.2-0.8,0.1-0.9h-0.3c0,0-0.4-0.1-0.4,0.2
	c-0.1,0.3-0.5,0.5-0.9,0.4c-0.4-0.1-0.6-0.3-0.7-0.7c-0.1-0.4-0.1-0.6,0-0.7c0.1-0.2-0.2-0.5-0.3-0.7c-0.1-0.1-0.1,0.1-0.3-0.3
	c-0.1-0.1-0.2-0.3-0.4-0.4h13.4v7.9H-196.7z"/>
<path class="st0" d="M-210.8,375.4c-0.4-0.2-0.9-0.1-1.1,0.1c-0.1,0.1-0.1,0.1-0.2,0.2c-0.1,0-0.7,0-1,0.3c-0.1,0.1-0.1,0.4-0.1,0.7
	c0.4,1,0.4,1.2,0.4,1.2l0,0c0,0,0.7,0.7,0.4,1.3c-0.3,0.7-0.3,0.9,0.1,1c0.3,0.1,0.4,0.4,0.4,1v0.1c0,0.4,0,0.9,0.2,1.1
	c0.1,0.1,0.3,0.1,0.5,0.1c0.1,0,0.3-0.1,0.4-0.1c0.3-0.4,0.2-1.2,0.1-1.7c-0.1-0.4-0.3-1.2,0-1.4s0.4-0.3,0.6-0.1c0,0,0,0,0.1,0
	c0.1,0,0.4-0.1,0.4-0.4c0-0.1-0.1-0.2-0.1-0.3l0,0c0,0,0.1,0,0.1,0c0.2,0.1,0.4,0,0.4-0.1s0.1-0.3,0.1-0.4c-0.1-0.3-0.6-1.1-0.9-1.4
	l-0.1-0.1c-0.2-0.2-0.2-0.2-0.2-0.4C-210.2,375.9-210.4,375.6-210.8,375.4 M-209.9,378.8C-209.9,378.8-209.9,378.8-209.9,378.8
	c-0.3-0.1-0.7,0.1-0.8,0.3c-0.4,0.4-0.3,1.1-0.1,1.8c0.1,0.5,0.1,1.2-0.1,1.3c0,0,0,0-0.1,0s-0.1,0-0.2-0.1
	c-0.1-0.1-0.1-0.5-0.1-0.8v-0.1c0-0.7-0.1-1.1-0.7-1.3c-0.1,0-0.1-0.1-0.1-0.1s0-0.1,0.1-0.4c0.4-0.7-0.2-1.5-0.4-1.7
	c-0.1-0.1-0.1-0.5-0.4-1.2c-0.1-0.1-0.1-0.3,0-0.4c0.1-0.1,0.5-0.1,0.7-0.1h0.1c0.1,0,0.2-0.1,0.4-0.3c0.1-0.1,0.3-0.1,0.6,0
	c0.4,0.1,0.4,0.3,0.4,0.4c0,0.4,0.1,0.4,0.3,0.7l0.1,0.1c0.3,0.3,0.7,0.9,0.9,1.2v0.1c0,0,0,0-0.1,0c-0.1-0.1-0.4-0.1-0.5,0.1
	C-210,378.5-209.9,378.7-209.9,378.8"/>
<path class="st0" d="M-211.6,376.9c-0.2,0-0.4,0.1-0.4,0.4c0,0.2,0.1,0.4,0.4,0.4s0.4-0.1,0.4-0.4
	C-211.3,377-211.4,376.9-211.6,376.9"/>
<path class="st0" d="M-215.1,377c-0.1,0-1.5,0.4-1.5,1.4c0,0.9,0.9,1,0.9,1h0.1v-0.1c-0.1-0.1-0.2-0.3-0.1-0.4
	c0-0.1,0.1-0.2,0.3-0.3c0.1-0.1,0.4-0.2,0.4-0.4c-0.1-0.4,0.1-1,0.1-1C-215,377.1-215,377.1-215.1,377L-215.1,377 M-216.2,378.8
	c-0.1-0.1-0.1-0.2-0.1-0.4c0-0.4,0.4-0.6,0.7-0.8c0,0.2,0,0.4,0,0.5l-0.1,0.1C-215.8,378.3-216.1,378.5-216.2,378.8"/>
<path class="st0" d="M-214.3,378.7c-0.6,0.3-1,0.6-1,0.6v0.1c0,0,0,0.1,0.1,0.1c0.2,0.1,1.9,0.4,2.2,0.4c0.1,0,0.5-0.1,0.7-0.5
	c0.1-0.3,0.1-0.7-0.2-1.1c-0.5-0.9-0.8-1.7-0.8-1.7s-0.1-0.1-0.1,0c0,0-1.6,0.4-1.3,1.9c0,0,0,0.1,0.1,0.1h0.6
	c0.1,0,0.2,0.1,0.2,0.1C-214.1,378.5-214.1,378.6-214.3,378.7 M-213.7,378.5c-0.1-0.4-0.4-0.4-0.5-0.4h-0.1h-0.2
	c0-0.6,0.5-0.9,0.8-1.1c0.1,0.3,0.4,0.8,0.7,1.4l0,0c0.1,0.2,0.3,0.5,0.2,0.7c-0.1,0.2-0.3,0.3-0.4,0.3s-0.6-0.1-1.2-0.2
	c0.1-0.1,0.1-0.1,0.3-0.1C-214,379-213.7,378.8-213.7,378.5"/>
<path class="st0" d="M-211.7,382.8c0-0.1-0.1-0.1-0.1-0.1l-0.4-0.2l0,0c0,0-0.2-0.1-0.4,0.1l-1.7,1.2c-0.1,0-0.2,0.1-0.1,0.3
	c0,0.1,0.1,0.1,0.1,0.1c0.2,0.1,0.9,0.1,1,0.1c0,0,0.4,0,0.5-0.1c0.1-0.1,0.9-1,0.9-1.1C-211.8,383.1-211.6,382.8-211.7,382.8
	 M-213,383.9c0,0-0.1,0-0.2,0l-0.4-0.1l1.3-0.9c0,0,0,0,0.1,0c0,0,0,0,0.1,0l0.1,0.1C-212.4,383.2-212.9,383.7-213,383.9"/>
<path class="st0" d="M-212.3,384.4c0.3,0,0.7,0.1,0.7,0.1c0.1,0,0.3,0,0.4-0.3l0.4-0.9c0,0,0.1-0.1,0.1-0.2s-0.1-0.1-0.1-0.1
	c-0.2-0.1-0.3-0.1-0.3-0.1s-0.3-0.1-0.4,0.1s-0.8,1-0.8,1s-0.1,0.1-0.1,0.3C-212.5,384.3-212.4,384.3-212.3,384.4 M-211.7,384
	c0,0-0.1,0-0.4,0c0.2-0.2,0.5-0.7,0.7-0.8c0,0,0.1,0,0.1,0C-211.3,383.4-211.6,383.9-211.7,384C-211.6,384-211.6,384-211.7,384"/>
<path class="st0" d="M-210.7,384.4h0.5c0.1,0,0.4-0.1,0.4-0.4v-0.9l0,0c0,0-0.1-0.1-0.4-0.1c-0.2,0-0.3,0-0.3,0s-0.2,0-0.3,0.2
	c-0.1,0.1-0.4,0.8-0.4,0.8s-0.1,0.1,0,0.3C-211,384.4-210.9,384.4-210.7,384.4 M-210.2,384L-210.2,384h-0.5l0,0
	c0.1-0.1,0.2-0.5,0.3-0.7c0.1,0,0.1,0,0.2,0L-210.2,384L-210.2,384z"/>
<path class="st0" d="M-208.2,384.4l0.5-0.1c0,0,0.1,0,0.1-0.1c0.1-0.1,0.1-0.1,0-0.3c-0.1-0.3-0.7-1.5-0.7-1.5l0,0
	c0,0-0.1-0.1-0.2-0.1l0,0l-0.3,0.2c-0.1,0-0.1,0.1-0.1,0.3c0.1,0.2,0.4,1.2,0.4,1.2l0,0C-208.6,384.2-208.5,384.4-208.2,384.4
	 M-208.6,382.8c0.1,0.3,0.4,0.8,0.5,1.1c-0.1,0-0.2,0-0.2,0l0,0C-208.3,383.8-208.5,383.1-208.6,382.8L-208.6,382.8z"/>
<path class="st0" d="M-209.5,384.4c0.1,0,0.7,0,0.7,0s0.1,0,0.1-0.1c0.1-0.1,0.1-0.1,0-0.2l-0.4-1.2l0,0c0-0.1-0.1-0.2-0.3-0.1
	c-0.1,0.1-0.3,0.1-0.3,0.1l0,0c0,0-0.1,0.1-0.1,0.2c0,0.1,0.1,1,0.1,1.1C-209.7,384.3-209.7,384.4-209.5,384.4 M-209.4,384.1
	c0-0.3,0-0.7-0.1-0.9l0,0l0.3,0.9H-209.4z"/>
<path class="st0" d="M-207.3,384.3c0.2,0,0.4-0.1,0.5-0.1c0,0,0.1,0,0.2-0.1c0.1-0.1,0.1-0.2-0.1-0.4c-0.2-0.4-1-1.7-1.1-1.8
	c0,0-0.1-0.1-0.1-0.1c-0.1,0-0.1,0-0.1,0.1l-0.3,0.3c-0.1,0.1-0.1,0.2-0.1,0.4c0.1,0.2,0.7,1.5,0.7,1.5l0,0
	C-207.5,384.2-207.4,384.3-207.3,384.3 M-207.9,382.4c0,0,0.1-0.1,0.1-0.1c0.2,0.4,0.7,1.2,0.9,1.5c-0.1,0-0.2,0.1-0.4,0.1
	C-207.3,383.7-207.8,382.6-207.9,382.4"/>
<path class="st0" d="M-217.4,398.1c-0.9-0.4-1.6-0.1-1.6,0.7c0,1.7,3.6,1.5,3-1.5c-0.4-1.7-1.4-3.9-1.6-7.1
	c-0.3-3.2,1.5-4.3,1.5-4.3V385c-2.7,1.3-2.2,7.2-1.4,9.9C-216.7,397.6-217.4,398.1-217.4,398.1"/>
<path class="st0" d="M-190.2,398.8c0-0.7-0.8-1.1-1.6-0.7c0,0-0.6-0.4,0.2-3.1c0.8-2.7,1.4-8.6-1.4-9.9v0.8c0,0,1.7,1,1.5,4.3
	c-0.3,3.2-1.3,5.4-1.6,7.1C-193.8,400.2-190.2,400.5-190.2,398.8"/>
<path class="st0" d="M-218.4,400.5l-1.7,1.4c-2-1.5-2.8,0.3-2.8,0.3c0.7-0.1,1.3,0.1,1.3,0.1c-1.5,0.4-1.1,1.4-1.1,1.4
	s1.5-0.9,2.2,0.1c0.8,1.4-0.2,2.4-0.2,2.4c2.5,0,1.7-3.4,1.7-3.4l2.3-2.2L-218.4,400.5L-218.4,400.5z"/>
<path class="st0" d="M-186.7,402.1c0,0-0.9-1.7-2.8-0.3l-1.7-1.4h-1.6l2.3,2.2c0,0-0.9,3.4,1.7,3.4c0,0-1-1-0.2-2.4
	c0.7-1,2.2-0.1,2.2-0.1s0.4-0.9-1.1-1.4C-188,402.2-187.5,402-186.7,402.1"/>
<path class="st0" d="M-216.2,387.8v-1.4c-0.1,0.3-0.3,0.4-0.5,0.6c-0.2,0.1-0.1,0.3-0.1,0.3C-216.4,387.3-216.2,387.8-216.2,387.8"
	/>
<path class="st0" d="M-216.5,391.3c0.1,0.9,0.4,0.6,0.4,0.6s-0.1-1.5-0.1-1.8s-0.9-0.1-0.9,0.1c0,0.3,0.1,1.6,0.1,1.6l0.3-0.1
	l-0.1-1.2C-216.9,390.6-216.6,390.3-216.5,391.3"/>
<path class="st0" d="M-216.4,394.4c0.2,0.3,0.3-1.2,0.2-1.5c0,0-0.7-0.2-0.6,0.1C-216.7,393.4-216.6,394.1-216.4,394.4"/>
<path class="st0" d="M-217.2,388.6c0,0.3,0.9,0.1,0.9,0.1v-0.5C-216.3,388.3-217.2,388.2-217.2,388.6"/>
<path class="st0" d="M-216.3,389.5V389c0,0-0.9-0.1-0.9,0.3C-217.2,389.6-216.3,389.5-216.3,389.5"/>
<path class="st0" d="M-213.8,406.1c0-0.1-0.1-0.3-0.3-0.3c-0.1,0-0.3,0.1-0.3,0.3c0,0.1,0.1,0.3,0.3,0.3
	C-214,406.4-213.8,406.3-213.8,406.1"/>
<path class="st0" d="M-192.3,403.1c-0.1,0-0.3,0.1-0.3,0.3c0,0.1,0.1,0.3,0.3,0.3c0.1,0,0.3-0.1,0.3-0.3
	C-192,403.2-192.1,403.1-192.3,403.1"/>
<path class="st0" d="M-193,403.5c0-0.1-0.1-0.3-0.3-0.3c-0.1,0-0.3,0.1-0.3,0.3c0,0.1,0.1,0.3,0.3,0.3
	C-193.1,403.8-193,403.7-193,403.5"/>
<path class="st0" d="M-193.8,403.7c0-0.1-0.1-0.3-0.3-0.3s-0.3,0.1-0.3,0.3c0,0.1,0.1,0.3,0.3,0.3
	C-193.9,404-193.8,403.8-193.8,403.7"/>
<path class="st0" d="M-216.7,408.6l0.1-1.7c0,0-0.1-0.4-0.7-0.1l-0.1,1.3c0,0-0.3,0.5-0.9-0.1l0.1-1.3c0,0-0.2-0.3-0.6-0.1l-0.1,1.7
	C-218.8,408.4-218,409.5-216.7,408.6"/>
<path class="st0" d="M-217.7,407.9c0.1,0,0.1-0.1,0.2-0.1v-0.6c0-0.1-0.1-0.2-0.1-0.2s-0.1,0.1-0.2,0.1v0.6
	C-217.9,407.8-217.8,407.9-217.7,407.9"/>
<path class="st0" d="M-214.3,409l0.1-1.6c0,0-0.1-0.3-0.6-0.1l-0.1,1.2c0,0-0.3,0.4-0.9-0.1l0.1-1.2c0,0-0.2-0.3-0.6-0.1l-0.1,1.7
	C-216.4,408.8-215.6,409.8-214.3,409"/>
<path class="st0" d="M-215.3,408.3c0.1,0,0.1-0.1,0.1-0.1v-0.5c0-0.1-0.1-0.1-0.1-0.1c-0.1,0-0.1,0.1-0.1,0.1v0.5
	C-215.4,408.2-215.3,408.3-215.3,408.3"/>
<path class="st0" d="M-212.2,409.1l0.1-0.9c0,0-0.1-0.4-0.5-0.1l-0.1,0.4c0,0-0.2,0.3-0.2-0.2l0.1-0.5c0,0-0.1-0.1-0.3,0.1v0.7
	c0,0-0.1,0.1-0.3,0l0.1-0.9c0,0-0.1-0.4-0.5-0.1l-0.1,1.5C-214,408.9-213.4,409.9-212.2,409.1"/>
<path class="st0" d="M-217.7,405.6c0-0.1-0.1-0.3-0.3-0.3s-0.3,0.1-0.3,0.3c0,0.1,0.1,0.3,0.3,0.3
	C-217.8,405.8-217.7,405.7-217.7,405.6"/>
<path class="st0" d="M-216.3,405.8c0-0.1-0.1-0.3-0.3-0.3c-0.1,0-0.3,0.1-0.3,0.3c0,0.1,0.1,0.3,0.3,0.3S-216.3,405.9-216.3,405.8"
	/>
<path class="st0" d="M-215.2,405.9c0-0.1-0.1-0.3-0.3-0.3c-0.1,0-0.3,0.1-0.3,0.3c0,0.1,0.1,0.3,0.3,0.3
	C-215.3,406.2-215.2,406.1-215.2,405.9"/>
<path class="st0" d="M-216.6,401v1l0.7,0.5C-215.9,402.6-215.6,401.4-216.6,401"/>
<path class="st0" d="M-215.6,403.7c-0.1,0.1-0.2,0.3-0.3-0.1c-0.1-0.4-0.4-0.3-0.5-0.3c-0.1,0-0.4,0.6-0.5,0.2
	c-0.1-0.4-0.2-0.7-0.7-0.6v1l2.6,0.6c0,0,0-0.7-0.1-0.8C-215.3,403.6-215.6,403.6-215.6,403.7"/>
<path class="st0" d="M-214.9,405c0,0-1.7-0.5-2.6-0.6v0.4l2.7,0.7C-214.8,405.4-214.8,405.3-214.9,405"/>
<path class="st0" d="M-190.7,408.4l-0.1-1.7c-0.4-0.2-0.6,0.1-0.6,0.1l0.1,1.3c-0.6,0.5-0.9,0.1-0.9,0.1l-0.1-1.3
	c-0.5-0.2-0.7,0.1-0.7,0.1l0.1,1.7C-191.5,409.5-190.7,408.4-190.7,408.4"/>
<path class="st0" d="M-192,407.7c0,0.1,0.1,0.1,0.2,0.1c0.1,0,0.1-0.1,0.1-0.1v-0.6c0-0.1-0.1-0.1-0.2-0.1c-0.1,0-0.1,0.1-0.1,0.2
	V407.7z"/>
<path class="st0" d="M-193.1,408.8l-0.1-1.7c-0.4-0.1-0.6,0.1-0.6,0.1l0.1,1.2c-0.6,0.5-0.9,0.1-0.9,0.1l-0.1-1.2
	c-0.4-0.2-0.6,0.1-0.6,0.1l0.1,1.6C-193.9,409.8-193.1,408.8-193.1,408.8"/>
<path class="st0" d="M-194.2,407.4c-0.1,0-0.1,0.1-0.1,0.1v0.5c0,0.1,0.1,0.1,0.1,0.1c0.1,0,0.1-0.1,0.1-0.1v-0.5
	C-194.1,407.5-194.2,407.4-194.2,407.4"/>
<path class="st0" d="M-196.8,408.5l-0.1-0.4c-0.4-0.3-0.5,0.1-0.5,0.1l0.1,0.9c1.2,0.8,1.7-0.2,1.7-0.2l-0.1-1.5
	c-0.4-0.3-0.5,0.1-0.5,0.1l0.1,0.9c-0.2,0.1-0.3,0-0.3,0v-0.7c-0.1-0.2-0.3-0.1-0.3-0.1v0.5C-196.6,408.8-196.8,408.5-196.8,408.5"
	/>
<path class="st0" d="M-225.2,375.8c0.2-0.1,0.4-0.2,0.3-0.5l-0.9-2.1l-0.2,0.1l0.8,2c0.1,0.1,0.1,0.2-0.1,0.3
	c-0.1,0.1-0.2,0-0.3-0.1l-0.8-2l-0.2,0.1l0.9,2.1C-225.7,375.9-225.5,375.9-225.2,375.8"/>
<polygon class="st0" points="-224.2,375.4 -224.9,373.2 -224.9,373.2 -223.9,375.3 -223.6,375.3 -224.4,372.7 -224.6,372.7 
	-223.9,374.9 -223.9,374.9 -224.9,372.9 -225.2,372.9 -224.4,375.5 "/>
<polygon class="st0" points="-223,375.1 -223.6,372.5 -223.9,372.6 -223.2,375.1 "/>
<polygon class="st0" points="-222,374.8 -222.3,372.2 -222.5,372.2 -222.2,374.7 -222.2,374.7 -223,372.4 -223.3,372.4 
	-222.4,374.9 "/>
<polygon class="st0" points="-220.8,374.6 -220.9,374.4 -221.2,374.5 -221.4,373.5 -221.1,373.4 -221.1,373.2 -221.4,373.2 
	-221.7,372.3 -221.3,372.2 -221.3,372 -222,372.1 -221.4,374.8 "/>
<path class="st0" d="M-220.2,374.5l-0.2-1.2h0.1c0.1,0,0.2,0,0.2,0.1l0.2,1.1l0.2-0.1l-0.2-1.1c0-0.1-0.1-0.2-0.3-0.2l0,0
	c0.2-0.1,0.2-0.1,0.2-0.4l-0.1-0.7c-0.1-0.3-0.2-0.3-0.4-0.2l-0.4,0.1l0.4,2.6L-220.2,374.5z M-220.6,372.1h0.1c0.1,0,0.2,0,0.2,0.1
	l0.1,0.6c0,0.1,0,0.2-0.1,0.2h-0.1L-220.6,372.1z"/>
<path class="st0" d="M-219.5,372.4c0,0.1,0.1,0.2,0.1,0.3l0.4,0.6c0.1,0.1,0.1,0.1,0.1,0.2l0.1,0.4c0,0.1,0,0.2-0.1,0.2
	c-0.1,0-0.1-0.1-0.2-0.1l-0.1-0.4l-0.2,0.1l0.1,0.4c0.1,0.3,0.2,0.4,0.4,0.3c0.2,0,0.4-0.2,0.4-0.4l-0.1-0.4c0-0.1-0.1-0.2-0.1-0.3
	l-0.5-0.6c-0.1-0.1-0.1-0.1-0.1-0.2l-0.1-0.3c0-0.1,0-0.2,0.1-0.2s0.1,0.1,0.1,0.1l0.1,0.3l0.2-0.1l-0.1-0.4c0-0.2-0.1-0.4-0.4-0.3
	c-0.2,0.1-0.4,0.2-0.3,0.4L-219.5,372.4z"/>
<polygon class="st0" points="-217.8,374.1 -218.2,371.5 -218.4,371.5 -218,374.2 "/>
<path class="st0" d="M-216.9,374c0.4-0.1,0.4-0.2,0.4-0.5l-0.2-1.7c0-0.3-0.1-0.4-0.4-0.4l-0.4,0.1l0.4,2.6L-216.9,374z
	 M-217.2,371.6c0.1,0,0.2,0,0.2,0.1l0.2,1.8c0,0.1,0,0.2-0.2,0.2h-0.1l-0.3-2.3L-217.2,371.6z"/>
<path class="st0" d="M-215.9,373.2l0.4-0.1l0.1,0.7h0.2l-0.7-2.6l-0.4,0.1l-0.1,2.7h0.2L-215.9,373.2z M-215.9,371.4L-215.9,371.4
	l0.4,1.5l-0.4,0.1V371.4z"/>
<path class="st0" d="M-214.3,373.7c0.4,0,0.4-0.2,0.4-0.4l-0.1-1.8c0-0.3-0.1-0.4-0.4-0.4l-0.4,0.1l0.2,2.6L-214.3,373.7z
	 M-214.6,371.3c0.1,0,0.2,0,0.2,0.2l0.1,1.8c0,0.1,0,0.2-0.2,0.2h-0.1l-0.2-2.3L-214.6,371.3z"/>
<polygon class="st0" points="-212.6,373.6 -212.8,371.2 -212.8,371.2 -212.3,373.5 -212,373.5 -212.2,370.9 -212.4,370.9 
	-212.2,373.2 -212.2,373.2 -212.7,370.9 -213.1,370.9 -212.9,373.6 "/>
<path class="st0" d="M-211.3,372.7h0.4l0.1,0.7h0.2l-0.6-2.6h-0.4l-0.2,2.7h0.2L-211.3,372.7z M-211.3,371L-211.3,371l0.3,1.5h-0.4
	L-211.3,371z"/>
<path class="st0" d="M-209.9,373.5c0.2,0,0.4-0.1,0.4-0.4v-0.4h-0.2v0.4c0,0.1,0,0.1-0.1,0.1c-0.1,0-0.1-0.1-0.1-0.1l-0.1-2
	c0-0.1,0-0.1,0.1-0.1c0.1,0,0.1,0.1,0.1,0.1v0.4h0.2v-0.4c0-0.2-0.1-0.4-0.4-0.4c-0.3,0-0.4,0.1-0.4,0.4l0.1,2
	C-210.2,373.3-210.1,373.5-209.9,373.5"/>
<rect x="-210.4" y="372" transform="matrix(-4.039381e-02 -0.9992 0.9992 -4.039381e-02 -589.2713 178.1908)" class="st0" width="2.7" height="0.2"/>
<path class="st0" d="M-208,373.4c0.4,0,0.4-0.2,0.4-0.4l-0.1-1.8c0-0.3-0.1-0.4-0.4-0.4c-0.4,0-0.4,0.2-0.4,0.4l0.1,1.8
	C-208.4,373.2-208.3,373.4-208,373.4 M-208.1,370.8c0.1,0,0.2,0.1,0.2,0.2l0.1,1.8c0,0.1,0,0.2-0.1,0.3c-0.1,0-0.2-0.1-0.2-0.2
	l-0.1-1.8C-208.3,371-208.2,370.8-208.1,370.8"/>
<polygon class="st0" points="-206.9,373.3 -207,370.9 -207,370.9 -206.6,373.3 -206.2,373.3 -206.3,370.6 -206.5,370.6 
	-206.5,372.9 -206.5,372.9 -206.8,370.6 -207.2,370.6 -207.1,373.3 "/>
<path class="st0" d="M-205.6,372.5h0.4l0.1,0.7h0.2l-0.4-2.7h-0.4l-0.4,2.7h0.2L-205.6,372.5z M-205.4,370.8L-205.4,370.8l0.2,1.5
	h-0.4L-205.4,370.8z"/>
<polygon class="st0" points="-203.8,373.1 -204.2,373.1 -204.2,370.6 -204.5,370.6 -204.5,373.3 -203.8,373.3 "/>
<path class="st0" d="M-202.7,372.6h0.4l0.1,0.7h0.2l-0.4-2.7h-0.4l-0.4,2.7h0.2L-202.7,372.6z M-202.4,370.8L-202.4,370.8l0.1,1.5
	h-0.4L-202.4,370.8z"/>
<path class="st0" d="M-201.2,373.4c0.2,0,0.4-0.1,0.4-0.4l0.1-2.3h-0.2l-0.1,2.3c0,0.2-0.1,0.2-0.2,0.2c-0.1,0-0.2-0.1-0.1-0.3
	l0.1-2.3h-0.2l-0.1,2.3C-201.6,373.2-201.4,373.4-201.2,373.4"/>
<polygon class="st0" points="-200.2,373.4 -199.9,373.4 -199.8,370.9 -199.5,370.9 -199.5,370.8 -200.3,370.7 -200.3,370.9 
	-200,370.9 "/>
<path class="st0" d="M-198.9,373.5c0.3,0,0.4-0.1,0.4-0.4l0.1-1.8c0-0.3-0.1-0.4-0.4-0.4c-0.3,0-0.4,0.1-0.4,0.4l-0.1,1.8
	C-199.2,373.2-199.2,373.5-198.9,373.5 M-199,373l0.1-1.8c0-0.1,0.1-0.2,0.2-0.2c0.1,0,0.1,0.1,0.1,0.3l-0.1,1.8
	c0,0.1-0.1,0.2-0.2,0.2C-199,373.2-199,373.2-199,373"/>
<polygon class="st0" points="-197.6,371.1 -197.6,371.1 -197.4,373.5 -197.1,373.5 -196.9,370.9 -197.1,370.9 -197.3,373.2 
	-197.3,373.2 -197.4,370.8 -197.8,370.8 -198,373.5 -197.8,373.5 "/>
<path class="st0" d="M-196.3,373.6c0.3,0,0.4-0.1,0.4-0.4l0.1-1.8c0-0.3-0.1-0.4-0.4-0.5c-0.4,0-0.4,0.1-0.4,0.4l-0.1,1.8
	C-196.6,373.4-196.6,373.6-196.3,373.6 M-196.4,373.2l0.1-1.8c0-0.1,0.1-0.2,0.2-0.2c0.1,0,0.1,0.1,0.1,0.3l-0.1,1.8
	c0,0.1-0.1,0.2-0.2,0.2C-196.4,373.4-196.4,373.3-196.4,373.2"/>
<polygon class="st0" points="-195,371.3 -195,371.3 -194.9,373.7 -194.6,373.7 -194.1,371.3 -194.1,371.3 -194.3,373.8 
	-194.1,373.8 -193.8,371.1 -194.2,371.1 -194.7,373.5 -194.7,373.5 -194.7,371 -195.1,371 -195.4,373.7 -195.2,373.7 "/>
<path class="st0" d="M-193.3,373.2l0.4,0.1v0.7h0.2l-0.1-2.7l-0.4-0.1l-0.7,2.6h0.2L-193.3,373.2z M-192.9,371.4L-192.9,371.4v1.5
	l-0.4-0.1L-192.9,371.4z"/>
<polygon class="st0" points="-189.3,372 -189.3,372 -189.4,374.5 -189.1,374.5 -188.4,372.1 -188.4,372.1 -188.8,374.5 
	-188.6,374.6 -188.2,372 -188.5,371.9 -189.2,374.2 -189.2,374.2 -189.1,371.8 -189.4,371.7 -189.9,374.4 -189.7,374.4 "/>
<polygon class="st0" points="-187.5,374.8 -187.5,374.6 -187.9,374.5 -187.7,373.5 -187.3,373.5 -187.2,373.3 -187.7,373.2 
	-187.5,372.3 -187.1,372.4 -187,372.2 -187.7,372.1 -188.2,374.7 "/>
<polygon class="st0" points="-187.3,374.8 -187.1,374.9 -186.6,373.9 -186.6,373.9 -186.7,375 -186.4,375.1 -186.4,373.7 
	-185.8,372.4 -186.1,372.4 -186.5,373.4 -186.5,373.4 -186.4,372.3 -186.7,372.3 -186.7,373.6 "/>
<polygon class="st0" points="-185.9,375.2 -185.2,372.7 -185.4,372.6 -186.1,375.1 "/>
<path class="st0" d="M-185.1,375.4c0.2,0.1,0.4,0,0.5-0.2l0.1-0.4l-0.2-0.1l-0.1,0.4c0,0.1-0.1,0.1-0.1,0.1s-0.1-0.1-0.1-0.2
	l0.6-1.9c0-0.1,0.1-0.1,0.1-0.1s0.1,0.1,0.1,0.2l-0.1,0.4l0.2,0.1l0.1-0.4c0.1-0.2,0-0.4-0.3-0.4c-0.2-0.1-0.4,0-0.5,0.2l-0.6,1.9
	C-185.4,375.2-185.3,375.4-185.1,375.4"/>
<path class="st0" d="M-184,375.9c0.3,0.1,0.4,0,0.6-0.3l0.7-1.7c0.1-0.2,0.1-0.4-0.2-0.6c-0.3-0.1-0.4,0-0.6,0.3l-0.7,1.7
	C-184.3,375.5-184.3,375.7-184,375.9 M-184,375.3l0.7-1.7c0.1-0.1,0.1-0.2,0.3-0.1c0.1,0.1,0.1,0.1,0.1,0.3l-0.7,1.7
	c-0.1,0.1-0.1,0.2-0.3,0.1S-184.1,375.5-184,375.3"/>
<path class="st0" d="M-227.8,375.1c0.4,0.7,0.6,0.8,0.6,1.4v0.1c0,0.4,0,0.9,0.3,1.2s0.7,0.4,1.3,0.4c0.4,0,1.1-0.1,1.9-0.3
	c1.2-0.2,2.5-0.5,3.9-0.4c-0.3,0.3-1.3,1.1-3.3,0.9c-2-0.2-4.1-0.3-4.9,0.7c-0.4,0.6-0.4,1.4,0.2,2.5c0,0,0.1,0.1,0.1,0
	c0,0,1.5-0.5,1.2-2.3c0.6,0.1,1.2,0.2,1.8,0.4c0.1,0.1,0.3,0.1,0.4,0.1c-1.2,0.4-2.3,0.9-2.3,1.5c0,0.4,0.4,0.4,1.3,0.9
	s1.8,0.7,2.6,1.2c2.3,1.2,4,2.1,4.2,1.9c0.4-0.3-5.2-2.5-3.9-4.4c0.7-1.1,2,0.4,0.9,0.6c-1,0.2,1.5,2.7,4.3,3.5c0,0,0.5-0.5,0.9-0.7
	c0,0,0.4-0.3-0.2-0.5c-0.7-0.1-4.5-1.4-2.9-2.8c0.5-0.4,0.5-0.7,0.3-0.9c0.6-0.2,1-0.5,1.3-0.8c0.4-0.4,0.5-0.7,0.5-1.1
	c0-1-1.2-2.4-1.7-2.9c3.7-0.6,8.6-1,14.3-1c5.9,0,10.9,0.4,14.6,1.1c-0.4,0.4-1.7,1.9-1.7,2.9c0,0.4,0.1,0.7,0.5,1.1
	c0.2,0.2,0.5,0.4,0.9,0.6c-0.4,0.2-0.7,0.5-0.7,0.7c0,0.9,0.8,1.2,0.8,1.2c0.1,1-2.3,2.1-3,2.3c0.1,0.1,0.4,0.2,0.8,0.4
	c2.3-0.7,2.9-1.8,3.3-2.5c0.5-0.7-0.8-0.3-0.8-1c0-0.7,2-1.2,1.6,0.7c-0.4,1.7-2.7,2.7-3.8,3.1c0.1,0.1,0.3,0.2,0.4,0.4
	c0.1,0.1,0.2,0.3,0.3,0.3c0.1-0.1,0-0.4,0.2-0.4c0.2,0.1,0.4,0.1,0.4-0.1s0.1-0.4,0.2-0.3c0.1,0.1,0.2,0.2,0.4,0.1s-0.1-0.5,0.2-0.4
	s0.4-0.1,0.4-0.3s0.1-0.1,0.4,0.1c0.2,0.1,0.3-0.1,0.1-0.4c-0.1-0.2,0-0.3,0.2-0.1c0.2,0.2,0.6,0.1,0.3-0.1
	c-0.3-0.3,0.1-0.6,0.4-0.3c0.3,0.2,0.3,0.1,0.1-0.2c-0.1-0.3,0-0.4,0.4-0.1s0.7,0.1,0.2-0.1c-0.4-0.3-0.2-0.5,0.2-0.3
	c0.4,0.2,0.9,0.4,0.4-0.1c-0.4-0.4-0.6-0.7-0.1-0.4c0.6,0.3,1,0.2,0.1-0.3c-0.9-0.5,0.4-0.1,0.7,0.2c0.3,0.2,0.4-0.1-0.2-0.5
	c-0.6-0.3-0.2-0.4,0.5-0.1c0.8,0.4,0.8,0,0.1-0.2c-0.7-0.2-0.9-0.7-0.1-0.3c0.8,0.4,1.6,0.4,0.8,0.1c-0.4-0.2-0.6-0.4-0.7-0.4
	c0.2-0.1,0.5,0,1.1,0.4c1,0.7,0.1,1.5-0.9,1.9c-1.3,0.5-1.8,1-3.3,2c-0.8,0.6-1.9,0.8-2.7,0.8c0.1,0.1,0.1,0.3,0.2,0.4
	c1.2-0.1,2.6-0.4,3.5-1c1.2-0.7,3.1-1.8,4.5-2.1c1.1-0.3,2.1-0.8,0.4-2c-0.6-0.4-1.2-0.7-1.7-1h0.1c0.7-0.2,1.2-0.4,1.8-0.4
	c-0.4,1.7,1.2,2.3,1.2,2.3h0.1c0.5-1.1,0.6-2,0.2-2.5c-0.7-1-2.8-0.9-4.9-0.7c-2.3,0.2-3.2-0.7-3.3-0.9c0.2,0,0.5,0,0.9,0
	c0.6,0.1,1.3,0.1,2,0.3c1.6,0.3,3.3,0.6,4.1,0c0.2-0.2,0.4-0.4,0.4-0.8c0.1-0.7,0.4-1.3,0.7-1.9c0.4-0.6,0.7-1,0.5-1.5
	c-0.1-0.3-0.4-0.5-0.9-0.7c-2.2-0.9-5.5-1.8-9.4-2.4c-4.3-0.7-9.1-1-14-1c-9.2,0-17.8,1.2-22.5,3.1c0,0-0.9,0.3-1.2,0.9
	c-0.1,0.3-0.1,0.7,0.2,0.9C-228.1,374.8-227.9,375-227.8,375.1 M-227.1,372.9C-227.1,372.9-227.1,372.9-227.1,372.9
	c4.6-1.9,13.2-3.1,22.3-3.1c11.3,0,19.6,1.8,23.2,3.4c0.4,0.1,0.6,0.4,0.7,0.5c0.1,0.3-0.1,0.7-0.4,1.2c-0.4,0.6-0.7,1.2-0.8,2
	c0,0.2-0.1,0.4-0.3,0.5l0,0c0-0.1-0.1-0.2-0.2-0.4c-1.5-1.5-10.9-3.3-21.9-3.3c-5.6,0-11.2,0.4-15.7,1.2c-2,0.4-3.6,0.7-4.7,1.2
	c-0.9,0.4-1.5,0.7-1.7,1.1c-0.1-0.2-0.1-0.4-0.1-0.7v-0.1c0-0.7-0.1-0.9-0.7-1.6c-0.1-0.1-0.3-0.4-0.4-0.7c-0.1-0.2-0.2-0.4-0.1-0.7
	C-227.9,373.2-227.3,372.9-227.1,372.9 M-186.2,377.5c-0.7-0.1-1.5-0.2-2-0.3c-1.6-0.1-2.5,0.4-3.1,0.9c0.1-0.8,1.2-2,1.9-2.7
	c3.6,0.6,5.9,1.4,6.5,2c0.1,0.1,0.1,0.1,0.1,0.2v0.1C-183.7,377.9-185.1,377.7-186.2,377.5 M-189.6,377.7l0.1,0.1
	c0.2,0.2,1.3,1.4,3.7,1.1c1-0.1,3.3-0.4,4.2,0.3c-1-0.1-1.9,0.1-2.8,0.4c-0.1,0.1-0.4,0.1-0.5,0.1c-2.1-0.8-4-0.6-5.1-0.1
	c-0.4-0.2-0.8-0.4-1-0.7c-0.1-0.1-0.2-0.3-0.3-0.4c0.2-0.3,0.8-0.8,1.6-0.9C-189.6,377.7-189.6,377.7-189.6,377.7 M-182,379.6
	c0.3,0,0.6,0.1,0.9,0.1c0.1,0.4,0.1,0.9-0.2,1.6C-181.8,381.1-182.3,380.6-182,379.6 M-217.7,377.8c-1.8-1.1-4.3-0.6-6.2-0.3
	c-0.7,0.1-1.4,0.3-1.8,0.3c-0.3,0-0.6-0.1-0.8-0.1c0-0.1-0.1-0.1-0.1-0.1s0-0.1,0.1-0.2c0.7-0.7,3.1-1.5,6.8-2
	C-218.8,376-218,377.1-217.7,377.8 M-219.5,379.9c-0.8-0.2-2.2-0.2-2.9-0.1c-0.4,0.1-0.8,0.1-1.2,0.2c-0.4-0.1-0.7-0.2-1-0.3
	c-0.9-0.3-1.8-0.6-2.8-0.4c0.9-0.7,3.2-0.4,4.2-0.3c2.4,0.3,3.5-0.9,3.7-1.1l0.1-0.1l0,0c0.7,0.1,1.2,0.3,1.7,0.7
	C-217.7,378.9-218.4,379.5-219.5,379.9 M-227.6,381.2c-0.3-0.7-0.4-1.2-0.2-1.6c0.3-0.1,0.6-0.1,0.9-0.1
	C-226.7,380.5-227.3,381-227.6,381.2"/>
<path class="st0" d="M-203.2,383C-203.3,383-203.3,383-203.2,383C-203.3,383-203.3,383-203.2,383c-0.1,0.1,0.1,1.4,1.5,1.4
	c1.2,0,2.4-1,2.7-1.3c0.1,0.3,0.9,1.3,1.5,1.2c0.3,0,0.4-0.2,0.6-0.7c0.2,0.2,0.7,0.7,1.3,0.6c0.5-0.1,1-0.4,1.5-1.1v-0.1h-0.1
	c0,0-1.2,0.4-2-0.1c-0.4-0.3-0.6-0.8-0.6-1.5c0-1.1,0.1-1.7,0.2-2.1c0.4,0.2,0.8,0.4,1.2,0.4c1.4,0,1.6-0.8,1.6-0.8v-0.1
	c0,0,0,0-0.1,0c-0.4,0.1-0.8,0-0.9,0c0.7-0.2,1.1-0.2,1.3,0c0.2,0.2,0.1,0.6,0.1,0.6v0.1h0.1c0.5-0.5,0.7-0.9,0.5-1.3
	c-0.2-0.7-1.2-0.9-2.2-1.1c-1.4-0.3-1.9-1.8-1.9-1.8s0,0-0.1-0.1h-0.1c-0.4,0.2-0.6,0.4-0.8,0.7l-0.9-1c0,0,0,0-0.1,0c0,0,0,0-0.1,0
	c0,0-0.4,0.5-0.1,1.2c-0.1-0.2-0.4-0.5-0.4-0.9c0,0,0-0.1-0.1-0.1h-0.1c0,0-0.9,0.9,0,2.2c-0.2,0.1-0.9,0.3-2.4-0.1c0,0,0,0-0.1,0
	c0,0,0,0,0,0.1c0,0-0.1,0.5,0.2,0.9c0.3,0.4,0.8,0.6,1.5,0.6c-0.2,0.1-0.9,0.5-2.2,0.1h-0.1v0.1c0,0,0.4,1.5,2.4,1.3
	c-0.4,0.4-1.5,1.2-3,0.8h-0.1c0,0,0,0,0,0.1c0,0.1,0,0.9,0.7,1.2c0.6,0.3,1.4,0.1,2.5-0.5C-200.2,382.1-200.8,383.2-203.2,383
	 M-199.9,378.7c0.1-0.1,0.1-0.2,0.1-0.4c-0.1-0.1-0.1-0.2-0.3-0.2c-0.7,0-1.1-0.1-1.3-0.4c-0.1-0.1-0.1-0.1-0.1-0.2
	c1.6,0.4,2.3,0,2.3-0.1c0.1-0.1,0.1-0.1,0.1-0.2c0-0.1,0-0.2-0.1-0.3c-0.4-0.5-0.4-0.9-0.4-1.2c0.2,0.4,0.5,0.6,0.5,0.6
	c0.1,0.1,0.3,0.1,0.4,0c0.1-0.1,0.1-0.3,0.1-0.4c-0.1-0.2-0.1-0.4-0.1-0.7l0.7,0.7c0,0.1-0.1,0.1-0.1,0.2c-0.1,0.4,0.1,0.8,0.1,0.9
	c-1.1,0.7-1.1,1.4-1.1,1.7c-0.1,0.2-0.6,0.8-1.3,0.9c-0.8,0.1-1.2-0.2-1.5-0.5C-200.5,379.4-199.9,378.8-199.9,378.7 M-197.1,375.6
	c0.1,0.2,0.3,0.4,0.5,0.7l-0.5,0.1l-0.4-0.4C-197.4,375.9-197.3,375.7-197.1,375.6 M-193.2,378.5c-0.1-0.1-0.1-0.1-0.1-0.1
	c-0.4-0.3-1-0.3-1.9,0c-0.1,0.1-0.2,0.1-0.2,0.3c0,0.1,0.1,0.2,0.1,0.3c0,0,0.2,0.1,0.5,0.1c-0.2,0.1-0.4,0.1-0.7,0.1
	c-0.4,0-0.8-0.1-1.1-0.3c0.1-0.2,0.3-0.3,0.4-0.4c0.1-0.1,0.1-0.1,0.1-0.1c0.3-0.2,0.6-0.7,0.7-1.1h0.1c0.5,0.1,1.7,0.4,1.9,0.8
	C-193.1,378.2-193.1,378.3-193.2,378.5 M-195.1,383.6c-0.2,0.1-0.4,0.3-0.6,0.3c-0.6,0.1-1.1-0.6-1.1-0.6c-0.1-0.1-0.1-0.1-0.1-0.1
	c-0.1-0.1-0.2-0.4-0.3-0.8c0.1,0,0.1,0,0.1,0c0.1,0.4,0.4,0.7,0.6,0.8C-196.1,383.5-195.5,383.6-195.1,383.6 M-197.6,376.4l0.2,0.3
	c0.1,0.1,0.1,0.1,0.2,0.1c0,0,0.2,0,0.4,0c-0.1,0.1-0.1,0.2-0.2,0.3c-0.1,0.1-0.4,0.1-0.6,0v-0.1
	C-197.6,376.9-197.7,376.7-197.6,376.4 M-196.2,378c-0.1,0.1-0.1,0.1-0.1,0.1c-0.2,0.1-0.4,0.3-0.6,0.6c-0.1-0.1-0.1-0.1-0.1-0.1
	c0.1-0.2,0.4-0.5,0.7-0.7c0.4-0.2,0.4-0.7,0.4-0.9c0.1,0.1,0.2,0.1,0.3,0.1C-195.7,377.5-195.9,377.8-196.2,378 M-198.7,382.8
	c-0.1,0-0.2-0.2-0.2-0.9c0.3-0.1,0.4-0.4,0.6-0.6c0,0.4,0.1,0.7,0.2,0.8c0.1,0.1,0.1,0.1,0.1,0.1
	C-198.2,382.6-198.5,382.9-198.7,382.8 M-198.7,380.4L-198.7,380.4c0,0,0.4-0.1,0.7-0.4c0,0.1,0,0.2,0,0.4c-0.5,0.9-1,1.3-1.3,1.3
	C-199.4,381.5-199.1,380.9-198.7,380.4 M-197.3,381.9c-0.2,0.1-0.4,0-0.4-0.1c-0.2-0.2-0.1-0.9,0-1.3c0.1,0,0.3-0.1,0.4-0.1
	c0,0.3,0,0.6,0,0.9C-197.3,381.5-197.3,381.7-197.3,381.9 M-197.6,377.4c0.2,0.1,0.6,0.1,0.8,0c0.1-0.1,0.4-0.3,0.5-0.7h0.1v0.1l0,0
	c0,0,0.1,0.6-0.2,0.8c-0.4,0.2-0.7,0.4-0.9,0.7c-0.1-0.1-0.1-0.2-0.1-0.2c-0.1-0.1-0.2-0.1-0.4-0.1c-0.1,0-0.1,0.1-0.2,0.2
	c0,0-0.1,0.1-0.5,0.2C-198.6,378.3-198.4,377.9-197.6,377.4C-197.6,377.5-197.6,377.4-197.6,377.4 M-197.6,382.6
	c0.1,0.2,0.1,0.5,0.3,0.7v0.1c-0.1,0.3-0.2,0.4-0.3,0.5c-0.2,0-0.5-0.3-0.8-0.7C-198.2,383.1-197.9,382.9-197.6,382.6 M-197.6,380.1
	c-0.1-0.1-0.1-0.7-0.1-1V379h-0.1c0,0-0.4,0.4-0.7,0.7c-0.1-0.1-0.1-0.3-0.1-0.7c0,0,0,0,0-0.1c0.7-0.1,0.9-0.4,0.9-0.4
	c0.1,0.1,0.4,0.4,0.7,0.6c-0.1,0.2-0.1,0.5-0.1,0.8C-197.4,379.9-197.5,380-197.6,380.1 M-199.8,380.2c0.1-0.1,0.1-0.1,0.1-0.2
	c0.1-0.1,0.4-0.1,0.6-0.4c0,0.1,0.1,0.2,0.1,0.4c-0.3,0.5-0.7,1-0.9,1.2c-0.1,0-0.1,0-0.1,0.1c-1,0.7-1.8,0.8-2.3,0.6
	c-0.2-0.1-0.4-0.3-0.4-0.5C-201,381.5-199.8,380.3-199.8,380.2 M-199.7,382c0.1,0.1,0.2,0.1,0.4,0.1c0,0.1,0.1,0.4,0.1,0.7
	c-0.1,0-0.1,0.1-0.1,0.1s-1.2,1.2-2.5,1.2c-0.6,0-0.9-0.3-1-0.5C-200.7,383.5-200,382.5-199.7,382"/>
<path class="st0" d="M-224.5,407.5c0-0.1,0.1-0.4-0.1-0.4c-0.1-0.1-0.2,0.1-0.3,0.1l0,0l0,0c0,0-0.1,0.4-0.7,0.4
	c-0.4,0-0.7,0.1-0.9,0.4c-0.1,0.1-0.1,0.4-0.1,0.6c0.1,0.4,0.4,0.5,0.5,0.4c0,0,0.1-0.1,0.1-0.2v-0.1c0-0.1,0-0.1,0-0.2
	c0,0,0.1,0,0.1,0.1c0.2,0.1,0.4,0.1,0.5,0c0.1,0,0.1-0.1,0.1-0.3c0-0.1-0.1-0.1-0.1-0.2s-0.1-0.1-0.1-0.1s0.1,0,0.2-0.1
	C-224.7,407.9-224.6,407.9-224.5,407.5 M-225.9,408.1L-225.9,408.1C-226,408-225.9,408-225.9,408.1
	C-225.9,408-225.9,408.1-225.9,408.1"/>
<path class="st0" d="M-180.2,407c-0.1,0-0.2-0.1-0.3-0.1c-0.1-0.1-0.2-0.2-0.6-0.2c-0.1,0-0.3,0.1-0.3,0.1c-0.1,0.1-0.1,0.4,0.1,0.9
	c0.1,0.1,0.1,0.1,0.1,0.2c-0.2-0.1-0.4-0.1-0.7-0.2c-0.1-0.1-0.3-0.1-0.4,0c-0.2,0.1-0.3,0.7-0.3,1.2c-0.6,0-1.1,0.4-1.5,0.8
	c0-0.2,0-0.5-0.1-0.6c-0.1-0.1-0.2-0.1-0.4-0.1c-0.2,0-0.4,0.1-0.7,0.2c0-0.1,0-0.3,0-0.4c0-0.1-0.1-0.1-0.2-0.2
	c-0.1-0.1-0.4,0-0.7,0.1c-0.1,0.1-0.1,0.2-0.1,0.3c0.1,0.2,0.3,0.4,0.5,0.5c0,0.1-0.1,0.1-0.1,0.1c-0.1,0.1-0.1,0.4-0.1,0.5
	c0.1,0.3,0.5,0.5,0.9,0.7c-0.5,0.5-1.2,0.9-1.8,0.8c-0.1-0.1-0.8-0.8-2.1-0.5h-0.1c-1.3,0.3-2.4,0.6-2.9,1.9
	c-0.1,0.4-0.3,0.6-0.4,0.7c-0.3,0.4-0.6,0.7-0.8,3.2c-0.2,0.1-1.2,0.4-1.8,0.7c-0.1,0.1-0.3,0.1-0.4,0.1c-0.4,0-0.7,0.1-1.2,0.6
	c-0.3,0.2-0.4,0.2-0.6,0.1c-0.1,0-0.4-0.1-0.7,0.1c-0.2,0.1-0.4,0.1-0.5,0.1c0.1-0.2,0.4-0.8,0.9-0.9c0.5-0.1,1.7-0.5,2.3-1.2l0,0
	c0.2-0.4,0.4-0.6,0.7-0.8c0.3-0.2,0.5-0.4,0.4-0.8c-0.1-0.3,0-0.6,0.1-0.9c0.1-0.3,0.2-0.6,0.1-0.8c0.2-0.1,0.7-0.2,0.9-0.4
	c0.1-0.1,0.1-0.1,0-0.2c0-0.1,0-0.3,0.1-0.5c0.1-0.4,0.1-0.7,0-0.9c-0.1-0.1-0.2-0.1-0.4-0.1c-0.1-0.1-0.1-0.3-0.4-0.4
	c-0.1-0.1-0.4,0.1-0.6,0.2c-0.1-0.1-0.4-0.1-0.6,0c-0.1,0.1-0.2,0.3-0.1,0.5l-0.4,0.7c-0.1-0.1-0.7-0.1-1.5,0.4l-0.4,0.2
	c-0.9,0.5-1.5,0.9-1.7,2c-0.1,0.5-0.2,0.8-0.2,0.9c-0.1-0.1-0.1-0.1-0.2-0.1c-0.2-0.1-0.4-0.2-0.6-0.3c-0.4-0.1-0.7-0.3-0.9-0.6
	c-0.4-0.6-1-0.6-1.8-0.1c-0.9,0.6-1.6,0.4-2.5,0.1c-0.1-0.1-0.4-0.1-0.6-0.2c-1-0.4-2.4-0.9-2.9-1.6c-0.1-0.1-0.1-0.3-0.3-0.4
	c-0.4-0.7-0.8-1.2-1.7-1.2c-0.1-0.1-0.7-0.3-1.3,0.2l0,0c0,0,0,0-0.1,0c0,0-0.1,0-0.1-0.1c-0.2-0.2-0.4-0.3-0.9,0.1
	c-0.1,0-0.8,0.6-1.1,1.2l-0.1-0.1c-0.4-0.8-0.7-1.2-1.1-1.4c-0.4-0.1-0.6-0.4-0.9-0.7c-0.1-0.2-0.4-0.4-0.5-0.6
	c-0.1-0.1-0.3-0.2-0.4-0.1c-0.3,0-0.5,0.4-0.7,0.7l-0.1,0.1c-0.3,0.4-0.7,0.7-1.1,0.9c-0.1,0.1-0.3,0.2-0.4,0.4l0,0
	c-0.2-0.1-0.3-0.2-0.4-0.4c-0.2-0.6-0.7-1.2-0.9-1.5c0.1-0.4,0.1-0.7-0.2-1c0.3,0,0.5-0.1,0.7-0.5c0.1-0.1,0.1-0.3,0-0.4
	c-0.1-0.2-0.4-0.3-0.9-0.3c-0.4,0-0.8,0.4-0.9,0.5c-0.2,0-0.5,0.1-0.9,0.1c0.1-0.2,0-0.4-0.1-0.5c-0.6-0.5-1.5,0.4-1.9,0.8
	c-0.4,0.3-0.4,0.7-0.4,0.9l0,0h-0.1c0,0-0.1,0-0.1,0c-0.1,0-0.3-0.1-0.5-0.1c-0.1-0.4-0.3-1-0.8-1c-0.1,0-0.1,0-0.2,0
	c0-0.1,0-0.1,0-0.1c0-0.1-0.1-0.3-0.1-0.4c-0.1-0.1-0.3-0.1-0.4-0.1c-0.4,0-0.6,0.3-0.6,0.6c0,0.1,0.1,0.3,0.1,0.4
	c0,0,0.1,0.1,0.1,0.1c-0.1,0.1-0.2,0.2-0.3,0.3c-0.1,0.1-0.1,0.3,0.1,0.5c0.1,0.1,0.4,0.4,0.7,0.6c-0.1,0.1-0.1,0.4-0.1,0.6l0,0
	c-0.1,0.1-0.3,0.1-0.3,0.4c0,0.1,0.1,0.3,0.3,0.4c0,0.3,0,0.6,0.1,0.9c-0.1,0.1-0.1,0.3-0.1,0.4c0.1,0.1,0.1,0.1,0.2,0.1
	c0,0.1,0.1,0.1,0.1,0.1c0.1,0.1,0.2,0.3,0.4,0.4l0.1,0.1c-0.1,0.2-0.1,0.5,0.1,0.5c0.1,0,0.3,0,0.4,0c0.1,0.1,0.2,0.1,0.4,0.2
	c0.1,0.1,0.3,0.2,0.5,0.3c0,0.2,0,0.5,0.2,0.4c0.1,0,0.2-0.1,0.3-0.1c0.4,0.4,0.8,0.7,0.8,0.7c-0.1,0.2-0.7,0.8-0.9,0.8
	c-0.1,0-0.2,0.1-0.2,0.1c-0.1,0.1-0.1,0.5,0,0.8c-0.1,0.1-0.5,0.4-0.4,0.7c0.1,0.1,0.1,0.1,0.2,0.2c0.1,0.1,0.2,0.2,0.2,0.3
	c0,0.1-0.1,0.1-0.1,0.1c-0.3,0.1-0.7,0.3-0.8,0.7c-0.1,0.3,0,0.6,0.3,0.9l0,0l-0.1,0.2c0,0-0.6,0.1-0.4,0.6s0.9,0.4,0.7-0.2l0.1-0.1
	c0.3,0.2,0.7,0.3,0.9,0.2c0.3-0.1,0.4-0.4,0.5-0.7c0.3,0.1,1.4,0.5,2.4,0.5c0.1,0.1,0.3,0.2,0.5,0.1c0.1-0.1,0.2-0.1,0.3-0.3
	c0.2,0,0.8,0,1.3,0c0.1,0.1,0.2,0.2,0.4,0.2c0.2,0,0.2-0.1,0.2-0.3c0.1,0,0.2-0.1,0.3-0.1c0.2-0.1,0.7-0.2,1.5-0.2
	c0,0.1,0.1,0.1,0.1,0.1c0.2,0.4,0.4,0.6,0.4,0.7c0.1,0.1,0.1,0.1,0,0.1c0,0.1-0.1,0.2,0,0.4c0.1,0.1,0.2,0.1,0.4,0.2l0,0
	c0.4,0.1,0.7,0.1,0.9,0.4v0.1c0.1,0.1,0.1,0.3,0.3,0.3c0.1,0,0.3,0,0.6-0.2c0.4-0.3,0.9,0,1,0c0.1,0.1,0.3,0.4,0.5,0.4
	c0.1,0,0.3-0.1,0.4-0.4c0.1-0.1,0.3-0.1,0.4-0.1c0.2,0,0.5,0,1-0.3c0,0,1-0.7,1.6-0.9c0.1,0.1,0.1,0.4,0.1,0.5
	c0.1,0.5-2,1.5-1.2,2.8c0.1,0.1,0.2,0.1,0.2,0.1s-0.1-0.4,0.1-0.7c0.2-0.3,1.4,0.1,2-0.7c0.1,0.7,1,0.8,1,0.8s0.1,0,0.1-0.1l0.3-2
	c0.1,0.2,0.3,0.4,0.4,0.5c0.2,0.1,0.4,0.1,0.6,0.1c0.6,0.9,1.4,0.7,1.5,0.7c0.4,0,0.6-0.1,0.6-0.2c0-0.1,0.1-0.2-0.6-0.6
	c-0.1-0.1-0.1-0.1-0.1-0.1s0.1-0.1,0.1-0.1c0.2,0,0.8,0.1,1.2,0.9c0.6,1.2,1.8,0.8,1.8,0.8s0.1,0,0.1-0.1c0,0,0-0.1-0.1-0.1
	c-0.3-0.1-0.4-0.4-0.4-0.6c0.7,0.6,1.4,0.8,2,0.7c0.7-0.1,1-0.5,1-0.6v-0.1h-0.1c-0.7,0.2-1.1-0.1-1.5-0.5c0.3-0.1,0.9-0.3,1.5-1.2
	c0.1-0.1,1.1-0.3,2.1,0c0.1,0,0.2,0.1,0.4,0.1c1.2,0.4,3.7,1.2,5.4-0.1c1.1-0.9,1.4-1.5,1.4-1.7c0-0.1,0-0.1,0-0.2
	c0.2,0.1,0.4,0.1,0.4,0.1l0,0c0.4,0.1,0.9,0.1,1.3,0.3c0.1,0,0.2,0.1,0.3,0.1c-0.1,0.1-0.3,0.4,0,0.6c0.3,0.1,1.1-0.3,1.1,0.1
	s0.4,0.4,1,0.1c0,0,0.3-0.1,0.4,0.1c0,0.1,0.2,0.4,0.4,0.4c0.1,0,0.3-0.2,0.4-0.4c0.2,0,0.4,0,0.7-0.1c0.2,0.1,0.4,0.2,0.6,0.1
	c0.1-0.1,0.1-0.2,0.1-0.3c0.3-0.1,0.5-0.4,0.7-0.7c0.2-0.4,0.1-0.8,0.1-1c0.1-0.1,0.2-0.2,0.2-0.4c0.1-0.3-0.3-0.3-0.5-0.6
	c-0.1-0.1-0.2-0.3-0.4-0.4c-0.1-0.1-0.1-0.2-0.1-0.4c-0.1-0.4-0.5-0.7-0.6-0.1c-1.2-0.6-2.8-0.5-3.9-0.2c-0.3,0.1-0.6,0.1-0.9,0.2
	c-0.9,0.3-1.8,0.5-2.3,0.1c0.1-0.1,0.3-0.9,1.6-1.3c0.9-0.4,3.2-1.3,3.6-2.7c0.4,0,3.7,0.1,4.4-0.9c0.7-1,1.3-1.8,0.6-2.7
	c0.3-0.2,0.6-0.5,0.7-0.8c0.1-0.2,0.1-0.4,0.1-0.5c-0.1-0.1-0.1-0.2-0.4-0.3c0.1-0.1,0.2-0.2,0.5-0.3c0.3-0.1,0.3-0.2,0.3-0.3
	C-179.7,407.3-179.9,407.1-180.2,407 M-221.6,408.2c0.3,0,0.4,0.1,0.5,0.1c-0.1,0.4-0.2,0.4-0.6,0.2c-0.1-0.1-0.2-0.1-0.3-0.1
	C-221.8,408.2-221.7,408.2-221.6,408.2 M-185.6,409.2c-0.1,0-0.1-0.1-0.1-0.1C-185.7,409.1-185.7,409.1-185.6,409.2
	C-185.6,409.1-185.6,409.2-185.6,409.2 M-183.5,419c0,0.1,0,0.1,0,0.1s0.1,0.4,0,0.9c-0.1,0.3-0.4,0.4-0.8,0.6
	c-1.3,0.4-3-0.3-3.9-0.7c-0.1-0.1-0.2-0.1-0.4-0.1c-0.8-0.3-1.9-0.4-1.9-0.4c-0.1,0-0.1,0-0.1,0c-0.7-0.1-0.7-0.4-0.7-0.8
	c0-0.4,0.2-0.5,0.4-0.6c0.6,0.1,1.2-0.1,1.9-0.4c0.3-0.1,0.6-0.1,0.9-0.2c1.1-0.3,2.7-0.4,3.8,0.3
	C-183.4,418.2-183.5,418.9-183.5,419 M-190.8,420c0,0.1,0,0.5-1.2,1.5c-1.5,1.2-3.7,0.4-4.9,0l0,0c-0.1-0.1-0.2-0.1-0.3-0.1
	c-1-0.3-2-0.1-2.3,0c0-0.3,0-0.7-0.1-1s0.2-0.6,0.4-0.7c0.4-0.1,0.7-0.1,0.9-0.2c0.1,0,0.4,0,0.7-0.1c-0.1,0.1-0.3,0.5-0.1,0.6
	c0.3,0.1,0.8,0.2,0.7-0.7c0.2,0,0.4,0,0.8-0.2c0,0,0.1,0,0.1-0.1c0.4-0.4,0.6-0.4,0.9-0.4c0.1,0,0.4,0,0.6-0.1l0,0
	c0.7-0.4,1.7-0.7,1.7-0.7l0,0c0.3,0.1,0.8,0.4,1.4,0.1l0,0c0.1,0.1,0.2,0.1,0.3,0.2c-0.2,0.1-0.3,0.4-0.4,0.8c0,0.2,0.1,0.5,0.2,0.7
	c0.1,0.2,0.4,0.4,0.7,0.4C-190.9,419.8-190.9,419.9-190.8,420 M-202.7,422.8c-0.1,0.1-0.2,0.2-0.2,0.4s0,0.3,0.1,0.4
	c-0.3-0.1-0.5-0.3-0.7-0.6c-0.5-0.9-1.2-1.2-1.7-1.2c-0.1,0-0.1,0.1-0.2,0.1c0.1-0.1,0.1-0.2,0.1-0.4c0.2,0,0.9,0.1,1.2-0.2
	c0,0,0.1,0.1,0.1,0.1s0.1,0,0.1,0c0.4,0.2,1.6,0.9,2,1.3c0.1,0.1,0.2,0.2,0.3,0.4c0.1,0.1,0.3,0.4,0.5,0.5c-0.4-0.1-0.9-0.3-1.4-0.7
	C-202.4,422.8-202.6,422.8-202.7,422.8 M-209.4,422.9L-209.4,422.9L-209.4,422.9 M-209.3,422.8L-209.3,422.8L-209.3,422.8
	 M-208.6,423c0-0.1,0-0.1-0.1-0.1c0.1-0.4,0.2-1,0.1-1.3c0-0.1-0.1-0.2-0.1-0.3c-0.1-0.1-0.3,0.1-0.3,0.1s0.2,1.5-0.7,1.9
	c-0.3,0.1-0.7,0.1-0.9,0.1c-0.2,0.1-0.4,0.1-0.4,0.1c0.1-0.8,1.4-1,1.4-1.8c0-0.7-0.7-1.3-0.7-1.4c-0.1-0.1-0.8-0.9-0.9-1.7v-0.1
	c0-0.1,0-0.1-0.1-0.2c0-0.1,0-0.2,0-0.3c0.2-0.9,0.8-1.8,1.9-1.6c0.1,0.1,0.4,0.1,0.6,0.4c0.1,0.1,0.1,0.4,0.2,0.4
	c0.1,0.4-0.6,0.6-0.6,0.6s0-0.9-0.4-0.9c-0.4,0-0.8,0.4-0.9,0.8s0.1,0.9,0.7,1c0.1,0.1,0.3,0.1,0.4,0.2c0.2,0.1,0.4,0.2,0.7,0.3
	h-0.1c0,0-0.1,0-0.1,0.1c0,0,0,0.1,0.1,0.2c0.1,0.1,0.4,0.3,0.7,0.3c0.8,0.1,1.5,0.3,1.5,1.1c0,0.6-0.3,0.9-0.4,0.9
	c-0.1-0.3-0.4-1.1-1.5-1.5c-1.3-0.4-1.8-0.9-2-1.8v-0.1c0,0-0.2-0.1-0.4,0c-0.1,0.1-0.1,0.1-0.1,0.3c0,0.1,0.2,1,1.2,1.5
	c0.1,0.1,0.4,0.1,0.5,0.2c0.7,0.3,1.3,0.6,1.5,1.1c-0.1,0.1-0.1,0.1-0.2,0.3l-0.2,1.7C-208.6,423.3-208.6,423.2-208.6,423
	 M-213.7,422.3C-213.7,422.3-213.7,422.2-213.7,422.3c-0.1-0.1-0.1-0.1-0.1-0.2c0,0-0.7-0.5-1.5-0.1c-0.1,0.1-0.1,0.1-0.2,0.1
	c0,0,0-0.1-0.1-0.1V422c-0.3-0.5-0.8-0.6-1.2-0.6l0,0h-0.1c0.1-0.2,0-0.4-0.1-0.5c-0.1-0.1-0.1-0.2-0.4-0.6
	c-0.4-0.6,0.2-1.5,0.4-1.8s1.2-0.9,2.3-0.9c0.8,0,2.3,0.5,2.9,0.8c0.1,1.1,1.1,2.1,1.1,2.2c0,0,0.1,0.1,0.2,0.2
	c-0.6,0.3-1.4,0.9-1.5,0.9c-0.4,0.2-0.6,0.2-0.8,0.2c-0.2,0-0.4,0-0.7,0.1C-213.6,422.1-213.7,422.1-213.7,422.3L-213.7,422.3
	 M-221.8,420.5c-1.2,0.4-2.8-0.4-2.9-0.4c-0.1-0.1-0.2-0.1-0.4,0c-0.1,0.1-0.1,0.2-0.1,0.3c0,0.1,0,0.4-0.2,0.4s-0.5-0.1-0.9-0.4
	c-0.1-0.2-0.3-0.4-0.2-0.5c0-0.1,0.1-0.2,0.5-0.4c0.2-0.1,0.4-0.2,0.4-0.4c0.1-0.3-0.1-0.5-0.3-0.7l-0.1-0.1
	c0.1-0.1,0.1-0.1,0.2-0.2c0.1-0.1,0.1-0.3,0.1-0.4c-0.1-0.2-0.1-0.4-0.1-0.4c0.5-0.1,1.2-0.9,1.2-0.9c0.1-0.1,0.1-0.2,0.1-0.4
	c-0.1-0.6-2-1.7-2-1.7c-0.4-0.2-0.6-0.5-0.9-0.8c-0.1-0.1-0.2-0.3-0.4-0.4s-0.2-1.1-0.1-1.9c0.1-0.4,0.2-0.7,0.4-0.9
	c0.4-0.2,0.9-0.1,1.2-0.1c0.1,0,0.2,0.1,0.3,0c0.1,0,0.1,0,0.1,0s0.1-0.1,0.1-0.1l0,0c0.1,0.1,0.1,0.1,0.1,0.2
	c0,0.1,0.1,0.1,0.1,0.4c0.1,0.1,0.4,0.5,0.7,0.9c0.2,0.3,0.4,0.6,0.6,0.8c0.2,0.3,0.6,1,1.1,2.1c0.1,0.1,0,0.8-0.1,1.4
	c0,0.1,0,0.1,0,0.2c-0.1,0.2-0.1,0.6-0.1,0.7c0.1,0.1,0.4,0.1,0.6-0.4c0.1,0,0.1-0.1,0.1-0.1l0,0c0,0,0.1-0.1,1,0.1h0.1
	c0.4,0.1,0.9,0.3,1.2,0.5c0.1,0.1,0.2,0.2,0.4,0.4c0.4,0.4,0.9,0.9,1.3,1.2c0.3,0.2,0.6,0.4,0.8,0.4c-0.1,0.4-0.4,0.8-0.4,1.3
	c-0.8,0-1.4,0.1-1.7,0.3c-0.2,0.1-1.2,0.2-2,0.1C-221.7,420.5-221.8,420.5-221.8,420.5 M-227.1,409.6c-0.1,0-0.4,0.1-0.5,0.2
	c-0.1,0.1-0.1,0.1-0.2,0.2c-0.2-0.2-0.4-0.4-0.6-0.5l0,0c0.1-0.1,0.6-0.4,1-0.4C-227.3,409-227.1,409.3-227.1,409.6 M-225.2,409.1
	c0.9-0.9,1.2-0.9,1.3-0.8c0,0.1,0,0.2-0.3,0.7c-0.1,0.3-0.4,0.6-0.3,0.8c-0.2,0.1-0.4,0.1-0.6,0.2c0-0.1-0.1-0.1-0.1-0.2
	s-0.1-0.1-0.2-0.1C-225.4,409.6-225.4,409.3-225.2,409.1 M-218,410.8L-218,410.8c0.2-0.2,0.4-0.5,0.5-0.6c0,0,0.1,0,0.1,0.1
	c0.1,0.1,0.3,0.4,0.4,0.5c0.3,0.4,0.6,0.7,1.1,0.9c0.1,0,0.4,0.1,0.8,1.1c0.1,0.1,0.2,0.3,0.4,0.4c0,0.1,0.1,0.2,0.2,0.4
	c0.4,0.4,0.9,0.4,1.3,0.5c0.3,0,0.6,0.1,0.7,0.3c0.6,0.6,1.1,0.9,1.5,1.1c0.2,0.1,0.5,0.3,0.7,0.5c-0.9,0.1-1.6,0.8-1.8,2
	c0,0,0,0,0,0.1c-0.3-0.1-0.7-0.3-1.2-0.4c0-0.1,0-0.2-0.1-0.4c-0.1-0.4-0.7-0.7-0.5-0.4c0,0,0.1,0.1,0,0.4c0,0.1,0,0.2,0.1,0.3
	c-0.4-0.1-0.7-0.1-0.9-0.1c0-0.1-0.1-0.1-0.1-0.3c-0.2-0.3-0.2-0.2-0.3-0.1c0,0-0.1,0.2,0,0.4c-0.4,0-0.9,0.1-1.2,0.4
	c0-0.1,0-0.3-0.1-0.4c-0.1-0.2-0.1-0.4-0.1-0.3c0,0-0.2,0.2-0.1,0.5c0,0.2,0.1,0.3,0.1,0.4c-0.4,0.2-0.8,0.5-0.9,0.7l0,0
	c-0.2-0.1-0.5-0.1-0.8-0.4c-0.3-0.2-0.7-0.5-0.9-0.9c0.1-0.2,0.1-0.6,0-0.7s-0.3,0-0.4,0.3c-0.1-0.1-0.3-0.3-0.4-0.4
	c-0.1-0.1-0.1-0.1-0.2-0.1c0-0.1,0-0.4-0.1-0.5c-0.1,0-0.2,0.1-0.2,0.3c-0.3-0.1-0.6-0.2-0.9-0.3h-0.1c-0.1,0-0.1,0-0.1,0
	c0.1-0.1,0.1-0.4,0.1-0.4s-0.3,0.2-0.4,0.4c-0.3,0-0.7-0.1-0.8,0.1c0.1-0.3,0.1-0.8,0.1-1.2h0.1c0.6-0.4,2.5-2,3-2.3
	c0.1-0.1,0.3-0.2,0.4-0.4C-218.7,411.5-218.2,411.2-218,410.8 M-214,412.9C-214,412.9-214,412.9-214,412.9L-214,412.9
	c0.1-0.4,0.6-0.7,0.9-1c0.1-0.1,0.2-0.1,0.2-0.1s0,0,0.1,0.1c0.2,0.2,0.4,0.2,0.5,0.2s0.2-0.1,0.3-0.1c0.5-0.4,0.9-0.1,0.9-0.1
	c0.1,0,0.1,0,0.1,0c0.7,0,0.9,0.4,1.4,1c0.1,0.1,0.1,0.3,0.3,0.4c0.4,0.7,1.5,1.1,2.4,1.5l0,0c0,0-0.1,0.1,0,0.3
	c0.1,0.2,0.6,0.7,0.7,0.6c0.1-0.1-0.1-0.6-0.1-0.8c0.1,0,0.2,0.1,0.3,0.1c0.2,0.1,0.4,0.1,0.5,0.2c1.1,0.4,1.9,0.6,2.9-0.1
	c0.7-0.4,1-0.3,1.2,0c0.3,0.4,0.7,0.5,1.1,0.7c0.2,0.1,0.4,0.1,0.6,0.3c0.2,0.1,0.2,0.2,0.2,0.2l0,0l0,0c0,0,0,0,0,0.1
	c0,0-0.2,0.7-0.5,1.7c-0.1,0.5-0.4,0.6-0.6,0.6c-1.7-0.7-2.7,0.1-3.4,0.7c-0.3,0.2-0.5,0.4-0.7,0.4c-0.1,0-0.2,0-0.4-0.1l-0.1-0.1
	c-0.1-0.1-0.1-0.1-0.1-0.3c-0.1-0.1-0.1-0.1-0.1-0.2c-0.1-0.2-0.2-0.5-0.4-0.7c-0.4-0.6-1.9-1.5-2.7-1.9c-0.1-0.1-0.4-0.3-0.6-0.4
	c-0.3-0.3-0.9-0.8-1.3-0.9c-0.4-0.1-0.9-0.5-1.4-1c-0.1-0.1-0.4-0.3-0.6-0.3c-0.1-0.2-0.1-0.7-0.2-0.7c-0.1,0-0.3,0.4-0.4,0.6
	c-0.3,0-0.6-0.1-0.9-0.4c-0.1,0-0.1-0.1-0.1-0.1C-214.1,413.1-214,413-214,412.9L-214,412.9z M-195.8,412.7L-195.8,412.7
	L-195.8,412.7c0,0.1-0.1,0.4,0.2,0.4c0.4,0,0.7-0.2,0.3-0.7c0.1-0.2,0.4-0.6,0.4-0.6c0.1-0.1,0.1-0.1,0.1-0.2c0-0.1,0-0.1,0-0.1
	c0.1,0,0.1,0,0.2,0.1c0.1,0.1,0.3,0,0.4-0.1c0.1-0.1,0.2-0.1,0.2-0.1s0.1,0.1,0.1,0.1c0.1,0.1,0.2,0.2,0.4,0.2c0,0,0,0,0.1,0
	c0,0.1,0,0.2-0.1,0.5c-0.1,0.2-0.1,0.4-0.1,0.7c-0.1,0.1-0.4,0.2-0.7,0.3c-0.1,0-0.3,0.1-0.3,0.3c0,0.1,0.1,0.3,0.1,0.4
	c0,0.1-0.1,0.3-0.1,0.4c-0.1,0.4-0.3,0.8-0.1,1.2c0,0.1,0,0.1-0.2,0.3c-0.2,0.1-0.6,0.4-0.8,0.9c-0.3,0.4-1.1,0.8-2,1
	c-0.9,0.2-1.2,1.2-1.2,1.3c0,0.1,0,0.1,0,0.2c-0.4,0.1-1.2,0.4-1.4-0.2c0.2-0.1,0.4-0.4,0.5-0.7c0.2-0.9,0.4-1.6,0.4-1.7
	c0,0,0.1-0.1,0-0.2c0.1-0.1,0.2-0.5,0.4-1.2c0.1-0.8,0.7-1.2,1.5-1.7l0.4-0.2C-196.1,412.6-195.8,412.7-195.8,412.7 M-208.3,417.1
	L-208.3,417.1c0.8,0.4,1.7,0.9,2,1.4l0,0c-0.3-0.1-0.6-0.1-0.9,0.1c-1.2,0.4-1.5,0.2-2.2-0.1c-0.1-0.1-0.3-0.1-0.5-0.2
	c-0.3-0.1-0.4-0.3-0.4-0.5c0.1-0.3,0.4-0.5,0.4-0.4c0,0,0.3,0.1,0.1,0.7c-0.1,0.2,0.7,0.2,1,0C-208.5,417.7-208.3,417.4-208.3,417.1
	 M-223.7,412.1c-0.1-0.2-0.4-0.5-0.6-0.8c-0.2-0.3-0.4-0.7-0.6-0.8c0.9-0.4,1.7-0.6,2-0.5l0,0c0.3,0.1,0.5,0.3,0.5,0.4
	C-222.4,410.6-222.5,411.1-223.7,412.1C-223.7,412.1-223.7,412.1-223.7,412.1 M-207.1,418.9c0.7-0.2,1,0.1,1.3,0.5
	c0.1,0.1,0.1,0.3,0.3,0.4c0.2,0.4,0.5,0.7,0.9,0.7c0.2,0,0.3,0.1,0.4,0.1v0.1v0.1v0.1c-0.3,0.1-0.8,0.4-1.6,0.1c0,0,0,0-0.1,0
	c0,0-0.1,0.1-0.1,0.4c0,0.1,0,0.1,0,0.2c-0.1,0.1-0.2,0.1-0.4,0.1c-0.1,0-0.1,0-0.2,0c0.2-0.2,0.4-0.6,0.4-1.1
	c0-1.1-0.7-1.5-1.7-1.6C-207.8,419.1-207.5,419-207.1,418.9 M-222.7,414.1c-0.2-0.5-0.5-1.1-0.7-1.5c0.5-0.4,0.9-0.9,1.2-1.2
	c0.2,0,0.7,0,0.9-0.5c0.1-0.1,0.1-0.2,0.1-0.3c0.2,0.3,0.5,0.7,0.7,1.1c0.1,0.1,0.2,0.4,0.4,0.5
	C-220.9,412.7-222.2,413.7-222.7,414.1 M-221.8,410.7c-0.1,0.1-0.1,0.2-0.2,0.2c0.1-0.1,0.1-0.4,0.1-0.5c-0.1-0.4-0.4-0.6-0.7-0.8
	l0,0c-0.3-0.1-0.8-0.1-1.3,0.1c0.1-0.1,0.1-0.3,0.2-0.4c0.1-0.1,0.1-0.1,0.1-0.2c0.1,0,0.1-0.1,0.2-0.1c1-0.4,1.3-0.1,1.7,0.3
	C-221.4,409.5-221.5,410-221.8,410.7 M-205.7,422.2L-205.7,422.2c0,0.1-0.1,0.4,0.3,0.7l0,0c-0.1,0-0.6,0.1-0.9-0.5
	C-206.2,422.4-205.9,422.4-205.7,422.2 M-201.3,422.4L-201.3,422.4L-201.3,422.4c0,0-0.1,0-0.2-0.1c-0.3-0.3-0.7-0.6-1.2-0.9
	c0-0.1,0-0.3,0-0.4c-0.1-0.1-0.4,0-0.6,0.1c-0.2-0.1-0.4-0.2-0.5-0.3l0,0c0,0,0,0,0-0.1c0-0.1,0.1-0.3,0-0.5
	c-0.1-0.1-0.3-0.2-0.7-0.3c-0.1,0-0.1,0-0.1-0.1c0.2-0.1,0.5-0.3,0.8-0.5c0.7-0.5,1.5-1.2,3.1-0.6l0,0c0,0,0.1,0,0.2,0
	c0.1,0.2,0.3,0.5,0.8,0.5c-0.2,0.3-0.3,0.5-0.2,0.9c0,0.3,0.1,0.8,0.1,1.1C-200.8,422.6-201.3,422.4-201.3,422.4 M-191.7,417.1
	c-0.2,0-0.7,0.1-1.1-0.1c0.2-2.3,0.4-2.6,0.7-2.9c0.1-0.2,0.3-0.4,0.5-0.9c0.4-1.1,1.3-1.3,2.5-1.6h0.1c0.9-0.2,1.4,0.1,1.6,0.3
	c-0.1,0.2-0.3,0.7-0.2,1c0.1,0.3,0.4,0.5,0.8,0.7c-0.4,0.7-1.6,1.5-3.2,2C-191.2,416.1-191.6,416.8-191.7,417.1 M-186.4,413.1
	c-0.3-0.1-0.5-0.2-0.6-0.4c-0.1-0.2,0.1-0.5,0.1-0.7c1.2,0.3,2.2-0.9,2.8-1.6c0.1-0.1,0.3-0.3,0.4-0.4c0.7-0.7,1.2-1.1,2-0.4
	c0.8,0.7,0.6,1.2-0.4,2.5c-0.5,0.7-2.7,0.9-4.1,0.7C-186.2,412.9-186.4,413-186.4,413.1 M-185.4,410.1c0.4-0.6,0.9-0.7,1.1-0.6
	c0,0.1,0,0.4,0,0.6c0,0.1,0,0.1,0,0.2c-0.1,0.1-0.2,0.2-0.3,0.3C-185.3,410.4-185.4,410.2-185.4,410.1
	C-185.5,410.1-185.5,410.1-185.4,410.1 M-181.3,409.3c-0.2-0.2-0.4-0.3-0.7-0.4c0-0.4,0-0.8,0.1-0.9c0.2,0.1,0.4,0.1,0.7,0.2
	c0.1,0.1,0.6,0.1,0.7,0.3c0,0,0,0.1-0.1,0.1C-180.8,408.9-181,409.1-181.3,409.3L-181.3,409.3 M-180.8,407.4
	c-0.1-0.2-0.1-0.3-0.1-0.4c0.1,0,0.1,0.1,0.2,0.1c0.1,0.1,0.2,0.1,0.4,0.2l0,0c-0.2,0.1-0.4,0.1-0.4,0.2
	C-180.8,407.6-180.8,407.5-180.8,407.4 M-228.3,408.4c0,0,0.1-0.1,0.1-0.1s0.1,0,0.1,0.1c0,0,0.1,0.1,0.1,0.1c0,0.1-0.1,0.1-0.1,0.1
	s-0.1,0-0.1-0.1C-228.2,408.6-228.3,408.5-228.3,408.4C-228.4,408.5-228.4,408.4-228.3,408.4"/>
<path class="st0" d="M-219.5,412.5c-0.2,0.1-0.7,0.7-0.4,0.7c0,0,0.6-0.4,0.7-0.5C-219,412.6-219.3,412.5-219.5,412.5"/>
<path class="st0" d="M-219,413.5c0.3,0.1,0.4-0.1,0.5-0.4c0.1-0.2,0-0.6-0.2-0.3C-218.7,412.8-219.3,413.4-219,413.5"/>
<path class="st0" d="M-218,413.9c0.1-0.2,0.3-0.6,0.2-0.8c-0.1-0.2-0.2-0.1-0.2-0.1s-0.4,0.5-0.4,0.7
	C-218.3,413.9-218.2,414.1-218,413.9"/>
<path class="st0" d="M-216.8,414.1c0.2-0.1,0.1-0.4,0.1-0.7s-0.1-0.4-0.3-0.4c0,0-0.1,0.2-0.1,0.5
	C-217.1,413.9-217,414.1-216.8,414.1"/>
<path class="st0" d="M-210.2,379.9c0,0-0.3,0.1-0.2,0.4c0.1,0.4,0.1,0.6,0.6,0.5c0.4-0.1,0.1-0.9,0.1-0.9
	C-209.9,379.8-210.2,379.9-210.2,379.9 M-210.1,380.5c0,0,0-0.1-0.1-0.2c0-0.1,0-0.1,0-0.1h0.1C-210,380.3-210,380.4-210.1,380.5
	L-210.1,380.5"/>
<path class="st0" d="M-210.2,381c0,0-0.1,0.1-0.1,0.4s0,0.5,0.4,0.4c0.4,0,0.4-0.3,0.4-0.6C-209.7,380.9-210,380.9-210.2,381
	 M-209.9,381.5C-209.9,381.5-210,381.5-209.9,381.5L-209.9,381.5L-209.9,381.5l-0.1-0.1v-0.1h0.1c0,0,0,0,0,0.1
	C-209.9,381.5-209.9,381.5-209.9,381.5"/>
<path class="st0" d="M-210.2,382c0,0-0.4,0.4-0.1,0.6c0.3,0.1,0.5,0.2,0.7-0.2C-209.6,382-209.9,381.7-210.2,382 M-210,382.3
	L-210,382.3C-210,382.4-210,382.4-210,382.3C-210.1,382.3-210,382.3-210,382.3L-210,382.3C-210,382.3-210,382.3-210,382.3"/>
<path class="st0" d="M-209.6,379.4c0,0-0.2,0.1-0.1,0.3c0.1,0.3,0.2,0.7,0.6,0.6c0.4-0.1,0.3-0.4,0.1-0.7
	C-209.1,379.2-209.4,379.3-209.6,379.4 M-209.3,380.1L-209.3,380.1c0,0-0.1-0.1-0.1-0.3h0.1l0,0l0,0
	C-209.3,379.8-209.2,379.9-209.3,380.1C-209.3,380-209.3,380.1-209.3,380.1"/>
<path class="st0" d="M-209.5,380.8c0,0-0.1,0.6,0.2,0.6c0.4,0,0.6-0.1,0.5-0.5C-208.8,380.3-209.4,380.2-209.5,380.8 M-209.1,381.1
	c0,0-0.1,0-0.1,0c0-0.1,0-0.1,0-0.2l0,0c0-0.1,0-0.1,0-0.1l0,0c0,0,0.1,0.1,0.1,0.1C-209.1,381-209.1,381-209.1,381.1"/>
<path class="st0" d="M-209.2,381.5c0,0-0.3,0.1-0.3,0.3c0,0.2-0.1,0.7,0.2,0.6s0.7-0.1,0.6-0.7C-208.8,381.3-209,381.5-209.2,381.5
	 M-209,382c0,0-0.1,0.1-0.2,0.1V382c0-0.1,0-0.1,0-0.2c0,0,0.1,0,0.1-0.1h0.1v0.1C-209,382-209,382-209,382"/>
<path class="st0" d="M-208.9,378.7c0,0-0.3,0.2-0.1,0.6c0.1,0.4,0.4,0.4,0.6,0.4c0.1-0.1,0.3-0.2,0.1-0.7
	C-208.4,378.6-208.6,378.5-208.9,378.7 M-208.6,379L-208.6,379L-208.6,379L-208.6,379 M-208.6,379.3L-208.6,379.3L-208.6,379.3
	c-0.1,0-0.1,0-0.1-0.1c-0.1-0.1,0-0.2,0-0.3c0,0.1,0.1,0.1,0.1,0.1C-208.6,379.3-208.6,379.3-208.6,379.3"/>
<path class="st0" d="M-208.7,380.2c0.1,0.3,0,0.7,0.4,0.5c0.4-0.2,0.4-0.4,0.3-0.7C-208.1,379.5-208.8,379.9-208.7,380.2
	 M-208.3,380.4L-208.3,380.4c-0.1,0-0.1-0.1-0.1-0.1c0,0,0-0.1,0.1-0.1C-208.3,380.3-208.3,380.4-208.3,380.4"/>
<path class="st0" d="M-208.6,381.3c0,0.4,0,0.7,0.4,0.7c0.3-0.1,0.4-0.3,0.4-0.7C-207.9,380.6-208.6,380.9-208.6,381.3
	 M-208.3,381.6c0-0.1,0-0.2,0-0.3c0,0,0,0,0-0.1c0,0,0.1,0,0.1-0.1c0,0,0,0,0,0.1C-208.1,381.5-208.2,381.6-208.3,381.6"/>
<path class="st0" d="M-199.1,383.2c-0.1,0-0.2,0.1-0.4,0.2l-0.1,0.1c-0.2,0.2-0.7,0.7-0.9,0.7c0,0-0.1,0-0.1,0.1
	c0,0.1,0,0.1,0.1,0.1h2h0.1v-0.1c-0.1-0.2-0.6-0.9-0.7-0.9C-199,383.3-199,383.2-199.1,383.2 M-199.4,384c0.1-0.1,0.1-0.1,0.1-0.1
	l0.1-0.1c0,0.1,0.1,0.1,0.1,0.1L-199.4,384L-199.4,384z"/>
<path class="st0" d="M-227.2,403.3c1.2,4.1,2.1,4.8,1.8,2.5c-0.3-2.3-0.7-4.1-0.4-4.5c0.2-0.4,0.1-0.9,0-1.5
	c-0.1-0.6,0.2-0.7-0.2-2.2c-0.4-1.5,0.1-1.1,0-1.8c0-0.7-0.3-0.7-0.2-1.6c0.1-0.9,0.1-2.2,0.1-2.2s-0.8,0-0.9,0.5s-0.1,6.7,0.3,8.9
	c0.4,2.2-0.7,0.1-0.9-2.6c-0.1-2.7-0.1-5.8-0.1-5.8s0.1-0.7-0.7-0.9C-228.4,391.9-228.4,399.2-227.2,403.3"/>
<path class="st0" d="M-223.6,401.5c0-1.5-0.6-2.2-0.3-3.1c0.2-0.9,0.4-1.2-0.1-2c-0.4-0.7-0.3-0.7-0.1-1.6c0.1-0.9-0.1-2.3,0-3.1
	c0,0-0.4-0.4-0.5,0.1s0.1,5.5,0.4,7.5c0.3,2-0.2,1.2-0.4-0.5c-0.1-1.2-0.4-6.8-0.4-6.8s-0.6-0.4-0.7,0c0,0-0.1,6.8,1.2,9.4
	C-223.4,404-223.6,403-223.6,401.5"/>
<path class="st0" d="M-221.9,399.9c-0.2-0.8-0.2-0.9-0.1-1.7c0.1-0.7-0.2-1.3-0.4-2.3s-0.2-3.3-0.2-4.6c0,0-0.2-0.2-0.5,0
	c0,0,0,3.4,0.2,4.7c0.1,1.2-0.5-0.1-0.5-2.3c0-2.2,0-2.6-0.4-2.2c0,0-0.1,6.6,1.7,8.7C-222.2,400.2-221.7,400.7-221.9,399.9"/>
<path class="st0" d="M-222.2,390.9c0,0-0.2,6,1.5,7.7c1.7,1.7,0.4,0.1,0.4-1.8c0-2.3-0.4-1.7-0.5-2.3c0,0-0.1-2.3-0.2-3
	c-0.1-0.7-0.6-1-0.4,0.1c0.1,1.1,0.4,3.9,0.1,4c-0.4,0-0.4-1.8-0.4-2.9C-221.8,391.6-221.7,391-222.2,390.9"/>
<path class="st0" d="M-219.8,390.7c0,0-0.3-0.2-0.2,0.8c0.1,1.1,0.3,2.1-0.1,2c-0.4,0-0.2-1.3-0.3-1.9c-0.1-0.5-0.1-1.2-0.4-0.8
	c0,0,0.1,4.1,1.2,5.8c1.1,1.7,1.1,0.4,0.6-0.6c-0.5-1-0.7-2.3-0.7-3.1C-219.6,392-219.8,390.7-219.8,390.7"/>
<path class="st0" d="M-218.8,394.7c0.7,1,0.5,0.1,0.4-0.9s-0.1-2.6-0.1-3.4c0,0-0.2-0.2-0.4,0c0,0,0.2,1.8,0,1.8s-0.2-0.7-0.3-1.3
	c-0.1-0.7-0.1-0.4-0.3-0.4C-219.6,390.6-219.5,393.7-218.8,394.7"/>
<path class="st0" d="M-227.9,385.6c0,0-0.2,1.3-0.3,3.2c-0.1,1.9,0.1,2.3,0.8,2.3c0.9,0.1,1.2-0.6,1.3-2.1c0.1-1.7,0.2-2.5,0.2-2.7
	c0-0.3-0.5-0.9-0.7,0.1c-0.1,1-0.1,4.1-0.7,4c-0.7-0.1-0.4-1.7-0.4-2.8c0.1-1.1,0.4-2.4,0.1-2.5C-227.9,385-227.9,385.6-227.9,385.6
	"/>
<path class="st0" d="M-225.6,386.3c0,0-0.8,4.7,0,4.7c1.2,0.1,1.1-1.3,1.2-2.8c0.1-1.5,0.3-1.9-0.1-1.9c-0.3,0-0.4,1.4-0.4,2.2
	c-0.1,0.7,0,1.7-0.4,1.7c-0.4-0.1-0.4-1.1-0.2-2C-225.2,386-225.3,385.8-225.6,386.3"/>
<path class="st0" d="M-223.7,386.8c0,0-0.1-0.2-0.3-0.1c0,0-0.1,1.6-0.2,2.5c-0.1,0.9,0.1,1.4,0.7,1.4c0.7,0,0.6-1.1,0.6-2
	c0-0.9,0.3-1.7,0-1.8c-0.3-0.1-0.3,0.6-0.3,1.2c0,0.6-0.1,1.9-0.4,1.9s-0.4-0.3-0.4-1.2C-223.8,387.6-223.7,386.8-223.7,386.8"/>
<path class="st0" d="M-205.6,390.6c0.2-0.1,0.1-0.2,0.4,0c0.2,0.2,0.2,0.2,0.4,0.1c0.2-0.1,0.5,0.1,0.7,0.2c0.1,0.1,0.3,0.1,0.3,0.2
	c0,0.1-0.2,0.3,0.3,0.4c0.5,0.1,0.7,0.1,0.8,0s0.4-0.1-0.1-0.4c-0.4-0.2-0.6-0.2-0.9-0.5c-0.4-0.4-0.3-0.4-0.5-0.4
	c-0.2-0.1-0.5-0.2-0.8-0.1c-0.4,0.1-0.7,0.1-0.7,0.1s-0.1,0.1-0.1,0.2C-205.8,390.6-205.8,390.7-205.6,390.6"/>
<path class="st0" d="M-203.4,391.9c-0.1,0-0.3-0.1-0.4-0.1c0,0-0.2,0-0.1,0.2c0.1,0.2,0.3,0.2,0.4,0.2
	C-203.4,392.1-203.2,391.9-203.4,391.9"/>
<path class="st0" d="M-202.2,392c0,0,0.4,0,0.5-0.1c0.1-0.1,0.3,0.1,0.5,0.1c0.1,0,0.3,0,0.4-0.1c0.1-0.2,0-0.3-0.1-0.4
	c-0.1-0.1-0.4-0.1-0.5-0.1c-0.1,0.1-0.1,0.1-0.3,0.1C-201.9,391.5-202.4,392-202.2,392"/>
<path class="st0" d="M-200.3,392.2c0.1,0,0.3,0.1,0.4,0c0.1,0,0.2,0,0.1-0.2c-0.1-0.2-0.1-0.3-0.4-0.2c-0.3,0.1-0.2,0.1-0.2,0.1
	S-200.3,392.2-200.3,392.2"/>
<path class="st0" d="M-199.2,395.2c0.1,0.1,0.1,0.1,0.2,0c0.1-0.1,0.1-0.4-0.3-0.4c0,0-0.1,0.1-0.1,0.1S-199.2,395.1-199.2,395.2"/>
<path class="st0" d="M-219.3,387.7c-0.4,2.8,0.7,1.8,0.7,1.8c0.1-0.7,0.1-1.7,0.1-1.7c-0.1-0.1-0.2-0.1-0.2,0.3s-0.1,1.2-0.3,1.1
	c-0.3-0.1-0.1-1.5-0.1-1.6C-219.3,387.6-219.3,387.7-219.3,387.7"/>
<path class="st0" d="M-220.7,387.4c0,0-0.2,1.4-0.2,1.8s0.2,0.7,0.8,0.7c0.6-0.1,0.4-0.8,0.5-1.4s0.1-0.9,0.1-0.9
	c-0.3-0.1-0.2,0-0.4,0.7c-0.1,0.8-0.1,1.1-0.4,1.2c-0.4,0-0.1-1.5-0.1-1.8C-220.4,387.3-220.7,387.4-220.7,387.4"/>
<path class="st0" d="M-222.2,387.1c0,0-0.2,1.4-0.2,2.4s1.2,0.7,1.2,0c0.1-0.8,0.3-2.2,0.3-2.2c-0.4-0.3-0.4,0.5-0.5,1.2
	c-0.1,0.7-0.1,1.2-0.5,1.1c-0.4-0.1-0.1-2-0.1-2.3C-222,386.9-222.2,387.1-222.2,387.1"/>
<path class="st0" d="M-222.8,412c-0.2,0.4-0.1,0.4,0.1,0.5c0.2,0,0.3-0.6,0.3-0.6C-222.5,411.7-222.6,411.7-222.8,412"/>
<path class="st0" d="M-222,411.9c0,0-0.3-0.1-0.2,0.4s0.3,0.5,0.4,0.4c0.1-0.1,0.1-0.4,0.1-0.6C-221.7,412-221.9,411.7-222,411.9"/>
<path class="st0" d="M-221.4,411.8c0,0-0.1,0.4,0.1,0.6c0.1,0.2,0.4,0.4,0.4-0.1S-221.2,411.6-221.4,411.8"/>
<path class="st0" d="M-225.8,411c-0.1-0.1-0.2-0.1-0.3,0.1c0,0-0.1,0.3,0.1,0.3C-225.7,411.4-225.7,411.1-225.8,411"/>
<path class="st0" d="M-227,411.7L-227,411.7c0,0,0,0.2,0.1,0.2c0.1,0,0.1-0.1,0.1-0.1C-226.6,411.7-226.9,411.5-227,411.7"/>
<path class="st0" d="M-226.6,413.1c0,0-0.1,0.1,0.1,0.3c0.2,0.1,0.2,0.1,0.2-0.1C-226.4,413-226.5,413-226.6,413.1"/>
<path class="st0" d="M-225.4,413.1c0,0,0.1,0.1,0.2,0c0-0.1-0.1-0.1-0.1-0.1S-225.5,412.8-225.4,413.1"/>
<path class="st0" d="M-225.2,414.1c0,0-0.1,0.2,0.1,0.3c0.2,0,0.2-0.2,0.1-0.3C-224.9,414.1-225.2,414.1-225.2,414.1"/>
<path class="st0" d="M-224.1,414.4c0,0,0.2,0.1,0.2,0c0-0.1,0-0.1-0.1-0.2C-224,414.2-224.1,414.3-224.1,414.4"/>
<path class="st0" d="M-224.3,418.3c0,0,0.4-0.9-0.1-0.7c0,0-0.3,0.2-0.2,0.7c0,0-0.3-0.1-0.1,0.3c0.2,0.4,0.3,0.7,0.7,0.4
	C-223.7,418.5-224.3,418.3-224.3,418.3"/>
<path class="st0" d="M-222.9,418.9c0,0-0.3,0.2-0.2,0.4c0.1,0.1,0.5,0.1,0.5,0C-222.5,419.2-222.8,418.8-222.9,418.9"/>
<path class="st0" d="M-221.5,419.2c0,0-0.4,0.1-0.2,0.3c0.1,0.2,0.5,0.2,0.5,0.1C-221.2,419.6-221,419.1-221.5,419.2"/>
<path class="st0" d="M-222.6,417.6c0,0-0.4,0.2-0.2,0.4c0.1,0.1,0.4-0.1,0.4-0.1S-222.3,417.6-222.6,417.6"/>
<path class="st0" d="M-221.4,417.2c0.3,0.1,0.4-0.1,0.4-0.1s-0.2-0.5-0.4-0.3C-221.4,416.8-221.6,417.1-221.4,417.2"/>
<path class="st0" d="M-219.7,418.9c0.3,0.1,0.4,0,0.4,0s0.2-0.3-0.5-0.4C-219.8,418.6-219.9,418.9-219.7,418.9"/>
<path class="st0" d="M-215.7,418.8c0-0.3-0.3-0.1-0.3-0.1s-0.2,0.1-0.2,0.1c0,0.1,0.2,0.1,0.2,0.1S-215.7,419.1-215.7,418.8"/>
<path class="st0" d="M-215.7,420.4c-0.1-0.1-0.3,0.1-0.3,0.1s-0.1,0.4,0.2,0.4c0.4,0,0.4-0.2,0.4-0.2S-215.4,420.6-215.7,420.4"/>
<path class="st0" d="M-213.8,419.9c0-0.2-0.2-0.4-0.4-0.3c0,0-0.4,0-0.4,0.3c-0.1,0.3,0.5,0.3,0.5,0.3S-213.8,420.1-213.8,419.9"/>
<path class="st0" d="M-214.2,421c0,0,0,0.3,0.3,0.3s0.3-0.2,0.3-0.2S-214.2,420.8-214.2,421"/>
<path class="st0" d="M-212.4,420c0.4,0,0.2-0.3,0.2-0.3s-0.1-0.1-0.4-0.1c-0.2,0-0.3,0-0.3,0.2C-212.7,419.7-212.7,420-212.4,420"/>
<path class="st0" d="M-215.8,414.2c0.2,0,0.1-0.7,0.1-0.7s-0.1-0.4-0.3-0.4c0,0-0.3,0-0.2,0.5C-216.1,414.2-216,414.2-215.8,414.2"
	/>
<path class="st0" d="M-215,413.9c0.1,0.2,0.2,0.2,0.4,0.1c0.1-0.1-0.3-0.8-0.3-0.8s-0.4-0.2-0.4,0
	C-215.3,413.2-215.1,413.7-215,413.9"/>
<path class="st0" d="M-220.9,413.8c-0.1,0-0.7,0.4-0.4,0.4c0,0,0.3,0.1,0.4-0.1C-220.8,413.9-220.8,413.8-220.9,413.8"/>
<path class="st0" d="M-220.1,414.1c0,0-0.6,0.6-0.4,0.7c0.2,0.1,0.4-0.2,0.5-0.4C-219.9,414.1-220,414.1-220.1,414.1"/>
<path class="st0" d="M-219.6,415.1c0.1,0.1,0.2,0.4,0.4,0c0.1-0.4,0.1-0.5-0.1-0.4C-219.2,414.7-219.6,414.9-219.6,415.1"/>
<path class="st0" d="M-218.1,415.2c0.1-0.6,0-0.5-0.1-0.4c0,0-0.4,0.3-0.3,0.4C-218.4,415.5-218.2,415.8-218.1,415.2"/>
<path class="st0" d="M-217,416c0.3,0,0.2-0.4,0.1-0.8c-0.1-0.4-0.1-0.4-0.3-0.4c0,0-0.1,0-0.1,0.4C-217.3,415.7-217.3,416-217,416"
	/>
<path class="st0" d="M-215.9,415.2c0,0-0.3,0.7,0.1,0.9c0.4,0.3,0.3-0.2,0.1-0.5C-215.8,415.2-215.8,414.9-215.9,415.2"/>
<path class="st0" d="M-214.8,415c0,0-0.2,0-0.1,0.3c0.1,0.4,0.2,0.7,0.5,0.6C-214,415.9-214.5,415.2-214.8,415"/>
<path class="st0" d="M-212.9,415.9c0.1-0.4-0.7-1-0.9-0.9c0,0-0.3,0.1,0,0.4C-213.5,415.7-213.1,416.2-212.9,415.9"/>
<path class="st0" d="M-211.8,415.7c0.2-0.1-0.4-0.7-0.4-0.7s-0.4-0.4-0.5-0.3c0,0-0.2,0.2,0.1,0.6
	C-212.3,415.6-212.1,415.8-211.8,415.7"/>
<path class="st0" d="M-217.9,416.6c0,0-0.6,0.8-0.2,0.9c0.4,0.1,0.4-0.6,0.4-0.9C-217.7,416.4-217.9,416.6-217.9,416.6"/>
<path class="st0" d="M-212.5,416.5c0,0,0.2,0.4,0.2,0.6c0.1,0.1,0.2,0.4,0.4,0.2c0.1-0.3,0.1-0.4-0.1-0.6
	C-212.2,416.4-212.6,416.2-212.5,416.5"/>
<path class="st0" d="M-224.5,383.9c0,0-0.6-0.1-0.8,0.5c-0.2,0.7-0.1,0.9,0.1,0.9c0.1,0,0.2-0.7,0.4-0.6c0.1,0.1-0.2,0.6,0.1,0.7
	c0.2,0.1,0.3-0.6,0.5-0.6c0.1,0.1-0.1,0.6,0.1,0.7C-224,385.5-223.6,384.1-224.5,383.9"/>
<path class="st0" d="M-222.8,384.4c0,0-0.5-0.1-0.7,0.5c-0.1,0.6,0,0.8,0.1,0.8c0.1,0,0.1-0.6,0.3-0.5c0.1,0.1-0.1,0.6,0.1,0.6
	c0.2,0.1,0.3-0.6,0.4-0.5c0.1,0.1-0.1,0.6,0.1,0.6C-222.3,385.9-222,384.7-222.8,384.4"/>
<path class="st0" d="M-226.1,384.7c0.3,0.1,0.9-1.5-0.1-1.9c0,0-0.7-0.2-1.1,0.5s-0.1,1.1,0,1c0.1,0,0.3-0.7,0.5-0.7
	c0.2,0.1-0.3,0.7,0,0.8c0.3,0.1,0.4-0.7,0.7-0.6C-226,384-226.4,384.7-226.1,384.7"/>
<path class="st0" d="M-221.3,385c0,0-0.4-0.1-0.7,0.4c-0.1,0.5-0.1,0.7,0.1,0.7c0.1,0,0.1-0.5,0.3-0.4c0.1,0.1-0.1,0.5,0,0.5
	c0.1,0.1,0.2-0.5,0.4-0.4s-0.1,0.5,0.1,0.5C-220.9,386.3-220.6,385.2-221.3,385"/>
<path class="st0" d="M-219.8,386.6c0.1,0.1,0.4-0.9-0.1-1c0,0-0.4-0.1-0.5,0.4s-0.1,0.6,0.1,0.6c0.1,0,0.1-0.4,0.2-0.4
	c0.1,0.1-0.1,0.4,0,0.4c0.1,0.1,0.2-0.4,0.3-0.4C-219.7,386.1-219.9,386.5-219.8,386.6"/>
<path class="st0" d="M-218.5,386.8c0.1,0,0.3-0.9-0.3-1c0,0-0.4,0-0.4,0.4c-0.1,0.4,0,0.6,0.1,0.6c0.1,0,0.1-0.4,0.2-0.4
	c0.1,0-0.1,0.4,0.1,0.4s0.1-0.4,0.3-0.4C-218.5,386.4-218.6,386.8-218.5,386.8"/>
<path class="st0" d="M-227.1,386c-0.1,0.5-0.5,3.7-0.2,3.8c0.3,0.1,0.2-1.4,0.3-2.1c0.1-0.7,0.2-1.8,0.2-1.8S-226.9,385.4-227.1,386
	"/>
<path class="st0" d="M-225.1,386.6c-0.1,0.4-0.4,2.9-0.2,3c0.2,0.1,0.2-1.1,0.2-1.7c0.1-0.6,0.1-1.5,0.1-1.5S-225,386.2-225.1,386.6
	"/>
<path class="st0" d="M-223.4,387.1c-0.1,0.4-0.3,2.3-0.1,2.3s0.1-0.9,0.1-1.3s0.1-1.2,0.1-1.2S-223.4,386.7-223.4,387.1"/>
<path class="st0" d="M-221.7,387.3c-0.1,0.3-0.3,1.7-0.1,1.8c0.2,0,0.1-0.7,0.2-1c0-0.4,0.1-0.9,0.1-0.9S-221.7,387-221.7,387.3"/>
<path class="st0" d="M-220.1,387.6c0,0-0.1-0.1-0.2,0.1c-0.1,0.2-0.2,1.4,0,1.4s0.1-0.5,0.1-0.8C-220.1,388-220.1,387.6-220.1,387.6
	"/>
<path class="st0" d="M-218.8,387.7c0,0-0.1-0.1-0.1,0.1s-0.1,1.2,0,1.2c0.1,0,0.1-0.4,0.1-0.7C-218.8,388.1-218.8,387.7-218.8,387.7
	"/>
<path class="st0" d="M-193,386.5v1c0,0,0.5-0.1,0.5-0.1c0-0.1,0.2,0.1,0.2,0.1S-192.3,386.8-193,386.5"/>
<path class="st0" d="M-192.2,389.2c-0.2,0-0.4,0.1-0.4-0.4c0-0.5,0.1-0.8-0.4-0.7v1.5c0,0,0.7,0.5,1.1,0c0,0,0.1-0.9-0.1-1.6
	c0,0-0.1-0.1-0.2,0.1C-192.2,388.2-192,389.2-192.2,389.2"/>
<path class="st0" d="M-192.9,390.4c0,0-0.1,1.2,0,1.2s0.4,0,0.4-0.7C-192.5,390.1-192.8,390.2-192.9,390.4"/>
<path class="st0" d="M-192.1,390.3c0,0-0.1,0-0.1,0.4c0,0.5-0.1,0.8,0,0.8c0.1,0,0.3-0.4,0.4-0.8
	C-191.7,390.3-191.9,390.1-192.1,390.3"/>
<path class="st0" d="M-192.8,392.6c0.3,0,0.7,0,0.7-0.4s-0.4-0.4-0.9,0.1C-192.9,392.2-193.1,392.6-192.8,392.6"/>
<path class="st0" d="M-192.9,393.2c0,0-0.1,1.3,0,1.2c0.1-0.1,0.5-0.9,0.6-1.2C-192.3,392.9-192.8,392.9-192.9,393.2"/>
<path class="st0" d="M-193.1,401.5c0.1,0.8,0.1,0.7-0.1,0.7c-0.1,0-0.4-1.1-0.7-0.4c-0.1,0.4-0.4,1,0.1,1c0.5-0.1,1.7,0.1,1.4-0.9
	C-192.9,401-193.3,400.8-193.1,401.5"/>
<path class="st0" d="M-192,404.7c0,0,0.1-0.1,0.1-0.4c-0.1-0.3-0.9-0.1-0.9-0.1l-1.8,0.1c0,0-0.2,0.4-0.1,0.4
	C-194.8,404.8-192.2,404.8-192,404.7"/>
<path class="st0" d="M-193.7,406.3c0-0.7-0.1-1.3-0.7-1.3c0,0-0.8-0.1-0.8,0.5c0,0.5-0.1,1.3,0.1,1.3c0.2,0,0.1-0.9,0.2-0.9
	c0.2,0,0.2,0.4,0.2,0.7s0.4,0.4,0.3,0c0-0.4-0.2-0.7,0-0.7c0.2,0.1,0.3,0.1,0.2,0.4C-194.2,406.6-193.7,407-193.7,406.3"/>
<path class="st0" d="M-192.9,405.7c0.1,0,0.2,0.4,0.2,0.6c0,0.2,0.3,0.4,0.3,0c0-0.4-0.1-0.7,0-0.6c0.2,0.1,0.2,0.1,0.2,0.4
	c0,0.4,0.4,0.7,0.4,0.1s-0.1-1.2-0.7-1.2c0,0-0.7-0.1-0.7,0.4c0,0.5-0.1,1.2,0.1,1.2C-192.9,406.6-193.1,405.7-192.9,405.7"/>
<path class="st0" d="M-211.6,414c0.3,0,0.1-1.4-0.1-1.2c0,0-0.1,0.1-0.1,0.4C-212.1,413.7-211.9,414-211.6,414"/>
<path class="st0" d="M-210.5,413.9c-0.1-0.5-0.3-0.8-0.4-0.6c0,0-0.1,0.3,0,0.7C-210.8,414.4-210.5,414.4-210.5,413.9"/>
<path class="st0" d="M-209.4,414.1c0.1-0.1-0.4-0.9-0.5-0.7c0,0-0.2,0.1,0,0.4C-209.7,414.1-209.4,414.1-209.4,414.1"/>
<path class="st0" d="M-208.2,415.7c0-0.1-0.2-0.3-0.3-0.3c0,0-0.2,0.1,0,0.3C-208.3,415.9-208.2,415.8-208.2,415.7"/>
<path class="st0" d="M-207.2,415.7c0.3-0.1-0.3-0.6-0.6-0.6c0,0-0.1,0,0,0.3C-207.6,415.7-207.5,415.9-207.2,415.7"/>
<path class="st0" d="M-206,417.3c0.3,0.3,0.5,0.3,0.4-0.1c-0.1-0.4-0.3-0.6-0.4-0.4C-206.1,416.9-206.3,417.1-206,417.3"/>
<path class="st0" d="M-204.6,417.1c0.1-0.2-0.4-0.9-0.7-0.9c0,0-0.3,0,0,0.4C-205,417.1-204.6,417.3-204.6,417.1"/>
<path class="st0" d="M-203.8,416.8c0-0.2-0.4-1-0.4-0.7c0,0-0.1,0.5,0.1,0.8C-203.9,417.1-203.8,417.1-203.8,416.8"/>
<path class="st0" d="M-202.7,416.5c-0.1-0.3-0.3-0.8-0.4-0.7c0,0-0.2,0.1,0,0.4C-203,416.7-202.7,416.8-202.7,416.5"/>
<path class="st0" d="M-202,416.1c0.5,0-0.1-0.4-0.1-0.5c-0.1-0.1-0.3-0.1-0.3,0C-202.4,415.7-202.5,416.1-202,416.1"/>
<path class="st0" d="M-202,417.8c0-0.1-0.1-0.3-0.3-0.3c0,0-0.4,0-0.1,0.2C-202.2,418.1-201.9,418-202,417.8"/>
<path class="st0" d="M-201.1,417.6c-0.1-0.5-0.4-0.7-0.5-0.6c0,0-0.1,0.2,0.1,0.5C-201.3,417.9-200.8,418.1-201.1,417.6"/>
<path class="st0" d="M-200.4,417.1c-0.1-0.4-0.7-1.4-0.7-1c0,0-0.1,0.3,0.1,0.6C-200.8,417-200.3,417.4-200.4,417.1"/>
<path class="st0" d="M-202.5,419.1c-0.1,0.1-0.2,0.6,0.1,0.5c0,0,0.5-0.3,0.4-0.4C-202.1,419-202.4,418.9-202.5,419.1"/>
<path class="st0" d="M-201.6,420.1c-0.3,0.1-0.5,0.3-0.4,0.4c0,0,0.1,0.3,0.4,0C-201.1,420.3-201.4,420-201.6,420.1"/>
<path class="st0" d="M-197.4,420.6c0,0-0.6,0.4-0.1,0.5c0.5,0,0.6-0.1,0.4-0.4C-197.3,420.5-197.3,420.5-197.4,420.6"/>
<path class="st0" d="M-194.2,421c-0.1,0-0.6,0.3-0.4,0.4c0,0,0.4,0.1,0.6-0.1C-193.9,421.1-194.2,421-194.2,421"/>
<path class="st0" d="M-193,420c-0.2,0.1-0.4,0.3,0,0.4c0,0,0.2,0.1,0.4-0.2C-192.5,420-192.8,420-193,420"/>
<path class="st0" d="M-195.1,419.8c0,0-0.5,0.6,0,0.7c0.5,0,0.2-0.4,0.2-0.4S-195,419.7-195.1,419.8"/>
<path class="st0" d="M-195.1,418.8c-0.2-0.2-0.4-0.1-0.5,0.1c0,0-0.3,0.6,0.1,0.6C-195.1,419.4-194.8,419-195.1,418.8"/>
<path class="st0" d="M-193.2,418.7c-0.1-0.2-0.1-0.3-0.3-0.2c0,0-0.4,0.3-0.1,0.4C-193.4,419-193.1,418.9-193.2,418.7"/>
<path class="st0" d="M-198.9,417.3c0,0-0.1,0.3,0.1,0.3c0.3,0,0.3-0.1,0.3-0.3C-198.4,417.3-198.7,417.2-198.9,417.3"/>
<path class="st0" d="M-198.4,415.5c0,0-0.1,0.4,0.2,0.4c0.3,0.1,0.2-0.2,0.1-0.3C-198,415.6-198.4,415.3-198.4,415.5"/>
<path class="st0" d="M-196.8,416.3c0,0-0.3,0.3-0.1,0.4C-196.7,416.7-196.3,416.3-196.8,416.3"/>
<path class="st0" d="M-195.6,415.5c0.3,0,0.4-0.3,0.1-0.4C-195.6,415.1-195.9,415.5-195.6,415.5"/>
<path class="st0" d="M-197.1,415.4c0,0-0.4,0-0.1,0.2c0.2,0.2,0.3,0.2,0.4-0.1C-196.8,415.3-196.8,415.3-197.1,415.4"/>
<path class="st0" d="M-196.5,414.1c0,0-0.1,0.2,0.1,0.4c0.2,0.1,0.2,0,0.2-0.1S-196.5,413.9-196.5,414.1"/>
<path class="st0" d="M-196.8,413.6c0,0,0.1,0.1,0.3-0.1C-196.4,413.4-196.9,413.3-196.8,413.6"/>
<path class="st0" d="M-193.9,412.1c0.1-0.1-0.2-0.3-0.3-0.1C-194.2,412-194.1,412.3-193.9,412.1"/>
<path class="st0" d="M-184.5,420.1c0.4-0.1,0.7-0.7,0-0.6c0,0-0.3,0.3-0.3,0.4C-184.9,420-184.9,420.3-184.5,420.1"/>
<path class="st0" d="M-186.9,419.1c0,0-0.1,0.4,0.1,0.4c0.1,0,0.5-0.1,0.3-0.3C-186.9,418.9-186.9,419-186.9,419.1"/>
<path class="st0" d="M-188.1,418.6c0,0-0.4,0.1-0.4,0.3c0,0.1,0,0.4,0.3,0.1C-187.8,418.8-187.7,418.4-188.1,418.6"/>
<path class="st0" d="M-189.4,418.1c0,0-0.4,0.1-0.3,0.3c0.1,0.1,0.4,0.4,0.5,0.1C-189.1,418.2-189.1,418-189.4,418.1"/>
<path class="st0" d="M-186.6,417.6c0,0-0.3,0.1-0.3,0.2c0.1,0.1,0.2,0.3,0.4,0.1C-186.3,417.8-186.3,417.5-186.6,417.6"/>
<path class="st0" d="M-185.6,418.9c0.2-0.1,0.6-0.7,0.1-0.6c0,0-0.2,0.1-0.3,0.3C-185.9,418.8-185.9,418.9-185.6,418.9"/>
<path class="st0" d="M-191.5,413.9c0,0,0,0.4,0.3,0.3c0.3-0.1,0.1-0.3,0.1-0.3S-191.5,413.6-191.5,413.9"/>
<path class="st0" d="M-191.5,415.7c-0.2-0.1-0.3-0.1-0.4-0.1c0,0-0.2,0.4,0,0.4C-191.6,416-191.2,415.8-191.5,415.7"/>
<path class="st0" d="M-190.4,414.5c0.1-0.1-0.9,0.2-0.5,0.4c0,0,0.3,0.1,0.4,0.1C-190.3,414.9-190.4,414.7-190.4,414.5"/>
<path class="st0" d="M-189.6,412.8c0.2,0,0.2-0.2,0.1-0.4c-0.1-0.1-0.4-0.1-0.4,0.1C-189.9,412.6-189.8,412.8-189.6,412.8"/>
<path class="st0" d="M-189.4,413.6c0.5,0.3,0.4-0.5,0.1-0.4C-189.3,413.2-189.7,413.4-189.4,413.6"/>
<path class="st0" d="M-188.7,413c0.5,0,0.2-0.5,0.1-0.4c0,0-0.2,0.2-0.3,0.2C-188.9,412.8-189.1,413-188.7,413"/>
<path class="st0" d="M-189.3,414.4c0,0.1,0.1,0.2,0.4,0.1c0.2-0.1,0.2-0.4-0.1-0.3C-189,414.3-189.3,414.4-189.3,414.4"/>
<path class="st0" d="M-188,414.1c0.1-0.1,0.1-0.3,0.1-0.4c0-0.1-0.1-0.2-0.3-0.1c0,0-0.1,0-0.1,0.2
	C-188.3,413.9-188.2,414.1-188,414.1"/>
<path class="st0" d="M-183.5,411.4c0.2-0.1,0.3-0.4,0-0.5c0,0-0.2,0-0.2,0.2S-183.7,411.5-183.5,411.4"/>
<path class="st0" d="M-182.9,411.6c0,0,0.2,0.1,0.4,0.1c0.1,0,0.1-0.3-0.1-0.4C-182.7,411.3-183.2,411.6-182.9,411.6"/>
<path class="st0" d="M-182.1,410.6c0.4,0.1,0.5-0.4,0.3-0.4C-181.8,410.2-182.4,410.5-182.1,410.6"/>
<path class="st0" d="M-182.9,410.5c0.2,0,0.4-0.1,0.2-0.2c-0.1-0.1-0.3-0.3-0.3-0.2C-183,410.1-183.1,410.5-182.9,410.5"/>
<path class="st0" d="M-184.3,384.8c0-0.4-0.1-0.5-0.1-0.4c0,0-0.1,1.2,0,1.2C-184.3,385.5-184.3,385.2-184.3,384.8"/>
<path class="st0" d="M-190,387.4c-0.2,0-0.3-0.4-0.3-0.6c0-0.2-0.2-0.4-0.4-0.1c0,0,0.1,1,0.5,0.9c0.6-0.1,0.7-0.4,0.5-1.1
	c0,0-0.1-0.2-0.3-0.1C-190.1,386.7-189.8,387.4-190,387.4"/>
<path class="st0" d="M-189.3,386.3c0,0-0.1,1.1,0.4,1.1c0.6,0,0.8-0.3,0.7-1.2c0,0-0.1-0.3-0.3-0.1c-0.2,0.1,0.1,0.9-0.2,0.9
	c-0.2,0-0.3-0.4-0.2-0.7C-188.9,386.2-189.1,386-189.3,386.3"/>
<path class="st0" d="M-187.9,386c0,0-0.1,1.1,0.3,1.1c0.5,0,0.7-0.3,0.7-1.2c0,0-0.1-0.3-0.3-0.1c-0.2,0.1,0,0.9-0.2,0.9
	s-0.2-0.4-0.2-0.7C-187.5,385.9-187.7,385.7-187.9,386"/>
<path class="st0" d="M-186.6,385.4v0.9c0,0-0.1,0.7,0.6,0.7s0.5-0.9,0.5-1.2c0-0.4-0.1-0.9-0.2-0.9c-0.1,0-0.2,0.2-0.2,0.7
	s0.1,0.9-0.1,0.9c-0.2,0-0.2-0.3-0.2-0.7C-186.2,385.2-186.5,385-186.6,385.4"/>
<path class="st0" d="M-184.7,384.4c0,0-0.4-0.4-0.4,0.2s-0.1,2.1,0.7,2.2c0.9,0.1,0.8-1.1,0.8-1.9c0-0.7,0.1-1.5-0.1-1.3
	c-0.3,0.2-0.4,0.4-0.4,0.9s0.1,1.4-0.1,1.5c-0.3,0.1-0.4-0.1-0.4-0.8C-184.6,384.6-184.7,384.4-184.7,384.4"/>
<path class="st0" d="M-182.6,385c-0.1-0.9,0-1.5-0.1-1.5c0,0-0.3,0-0.4,0.4c0,0.4-0.2,2.2,0.4,2.4c0.6,0.3,1.4,0.1,1.4-0.5
	c0-0.7,0-2,0-2.5c0-0.4-0.4-0.6-0.4,0c-0.1,0.5,0.2,2.6-0.2,2.5C-182.6,385.9-182.6,385.9-182.6,385"/>
<path class="st0" d="M-182.4,383.6c0,0-0.1,1.5,0.1,1.6c0.2,0.1,0.1-1,0.1-1.4C-182.1,383.6-182.3,383.4-182.4,383.6"/>
<path class="st0" d="M-184.6,407.8c0.4,0.1,1.5-2.6,1.8-4.3s0.4-2.1,0.7-2.9s0.8-3.9,0.8-5.5c0-1.6,0.1-3,0-3.3
	c-0.1-0.2-0.1-0.4-0.4-0.1c-0.3,0.2-0.6,0.1-0.6,0.8c0.1,0.7,0.1,5.1-0.1,5.8c-0.2,0.7-0.5,1.8-0.7,2.5c-0.2,0.7-0.4,1.5-0.3,0.1
	c0.1-1.5,0.4-1.5,0.5-2.5c0-0.9,0.2-2,0.2-3.3c-0.1-1.3,0.1-3,0.1-3s-0.7-0.9-0.7-0.1c0,0.8,0.1,4.9,0,5.5c-0.1,0.6-0.2,1.4-0.1,2
	c0.1,0.6-0.2,0.7-0.2,1.7c-0.1,0.9-0.3,4.4-0.7,5.2C-184.9,407.4-185,407.7-184.6,407.8"/>
<path class="st0" d="M-185.2,403.7c0.3-0.1,1.4-2.8,1.5-6.9c0.1-4.1,0.2-4.5,0.1-4.8s-0.6-0.4-0.5,0.4c0.1,0.9-0.1,6.7-0.4,6.7
	c-0.2,0.2,0.2-5,0.1-7.1v-0.1c0,0-0.4-0.9-0.4-0.2s-0.1,3.9-0.1,4.2c-0.1,0.2-0.4,1.6-0.4,2.6c0.1,0.9,0.2,3.4,0.1,4.1
	C-185.4,403.3-185.5,403.8-185.2,403.7"/>
<path class="st0" d="M-185.4,394.5c0.1-0.9,0.3-2.6,0.2-3.1c0,0-0.5-0.1-0.5,0.4c0,0.3,0,1.7-0.1,2.1c-0.1,0.4-0.1,2.5-0.4,2.5
	s-0.1-1-0.1-1.9c0.1-0.9,0.4-1.7,0.1-3c0,0-0.4-0.4-0.4-0.1c0,0.4,0.1,1.5-0.1,1.6c-0.1,0.1-0.2,0.7-0.2,1.4s0.1,1.7-0.1,2.1
	c-0.2,0.4-0.1,0.9-0.2,1.5c-0.1,0.5-0.2,1.7-0.7,2.5s0.5,0.9,1.5-1.9C-185.3,395.9-185.5,395.4-185.4,394.5"/>
<path class="st0" d="M-188.1,391.6c0,0.4-0.1,3.3-0.3,3.8c-0.2,0.5-0.3,1.5-0.4,1.7c-0.1,0.3-0.7,1.5-0.9,1.9
	c-0.2,0.4-0.2,0.9,0.2,0.6c0.4-0.4,1.8-2.1,2-3.6s0.4-2.5,0.5-3c0.1-0.4,0.2-1.5,0.1-1.6c-0.1-0.1-0.4-0.1-0.4,0.2
	c0,0.4-0.1,1.9-0.4,2.6c-0.2,0.7-0.2,0.9-0.3,0.1c0-0.9,0.1-2.6,0.1-3.1C-187.8,391.2-188.1,391.1-188.1,391.6"/>
<path class="st0" d="M-189.6,391.1c0,0-0.1,0.4-0.1,1.6c0,1.5-0.8,3.1-1.2,4.1s0.1,0.7,0.5,0.4c0.4-0.3,1-1.5,1.4-2.2
	c0.4-0.7,0.7-3.9,0.7-3.9c-0.1-0.1-0.4-0.2-0.4,0c-0.1,0.1-0.2,0.2-0.4,0.1C-189.2,391-189.6,391.1-189.6,391.1"/>
<path class="st0" d="M-190.1,394.1c0.2-0.5,0.3-2.9,0.3-2.9c0-0.4-0.1-0.7-0.2,0.1c-0.1,0.7-0.2,0.4-0.4-0.2
	c-0.1-0.6-0.3,1.1-0.2,1.7c0.1,0.6-0.5,2.1-0.7,3.1C-191.6,396.9-190.4,394.7-190.1,394.1"/>
<path class="st0" d="M-189.9,388.4c-0.1,0.7,0,1.1-0.2,0.9c-0.2-0.1,0-1.2-0.2-1.2c-0.2,0-0.1,0.4-0.2,0.8c0,0.3-0.1,1.2,0.4,1.2
	c0.8,0,0.6-1.5,0.6-1.7C-189.5,388.2-189.8,387.7-189.9,388.4"/>
<path class="st0" d="M-188.3,387.9c-0.2,0-0.3,0.1-0.3,0.5s0.1,0.9-0.1,0.8c-0.2-0.1-0.1-0.5-0.1-0.9c0-0.4-0.1-0.4-0.1-0.4
	s-0.2-0.1-0.2,0.4s-0.1,1.8,0.4,1.8c0.4,0,0.7-0.4,0.7-1.2C-188.1,387.9-188.1,387.9-188.3,387.9"/>
<path class="st0" d="M-187.4,390.5c0.7,0.1,0.6-1.2,0.6-1.6c0-0.3,0.1-1.1-0.1-1.1c-0.1,0-0.1,0.2-0.1,0.6c0,0.4,0,1.2-0.2,1.2
	c-0.2,0-0.3-0.4-0.2-1s0.1-0.7-0.1-0.7c0,0-0.3,0-0.3,0.5C-187.8,388.8-188.1,390.4-187.4,390.5"/>
<path class="st0" d="M-185.3,387.6c-0.2-0.1-0.4,0-0.4,0.4c0,0.4,0.1,1.7-0.2,1.7c-0.2,0-0.3-0.4-0.3-1.1c0-0.7,0.1-1.1,0.1-1.1
	c0,0-0.4-0.2-0.4,0.4c0,0.7-0.1,2.5,0.4,2.5c0.5,0.1,0.9-0.6,0.8-1.5C-185.3,388.4-185.1,387.7-185.3,387.6"/>
<path class="st0" d="M-184.5,387.5c0,0-0.3-0.1-0.3,0.5c-0.1,0.5,0,1.5,0,2s0.1,0.9,0.5,0.9c0.4,0.1,0.8-0.7,0.8-1.5s0.2-2-0.1-2.1
	c-0.3-0.1-0.2,0.2-0.2,0.5c0,0.3,0,2.3-0.4,2.3c-0.4-0.1-0.4-0.9-0.3-1.8C-184.4,387.4-184.5,387.5-184.5,387.5"/>
<path class="st0" d="M-184.3,387.9c0,0-0.1-0.1-0.1,0.4s-0.1,1.4,0.1,1.4c0.2,0,0.1-0.4,0.1-0.9
	C-184.1,388.2-184.1,387.9-184.3,387.9"/>
<path class="st0" d="M-181.3,387.1c-0.3,0-0.4-0.1-0.4,0.5c0,0.6-0.1,2.3-0.1,2.3s0.1,0.7-0.4,0.7c-0.4,0-0.4-0.3-0.4-0.9
	c0-0.7,0.1-2.3-0.2-2.3c0,0-0.3,0-0.3,0.6c0,0.6,0,2.2,0,2.5s0.1,0.9,0.9,1.1c0.8,0.1,1-1,1-2.1C-181.2,388.2-181,387.1-181.3,387.1
	"/>
<path class="st0" d="M-182.1,387.7c0,0-0.2-0.1-0.2,0.4s-0.1,2,0.1,2s0.2-0.1,0.2-0.5C-182.1,388.4-182,387.7-182.1,387.7"/>
<path class="st0" d="M-190.9,373.7l0.2-1.8c0-0.3,0-0.4-0.4-0.5l-0.4-0.1l-0.4,2.6l0.4,0.1C-191,374.2-190.9,374-190.9,373.7
	 M-191.5,373.9l0.1-0.9h0.2v-0.2h-0.2l0.1-1h0.1c0.1,0,0.2,0.1,0.2,0.2l-0.3,1.8c0,0.1-0.1,0.2-0.2,0.1L-191.5,373.9z"/>
<path class="st0" d="M-211.9,387c0,0-0.4,0-0.4-0.4v-0.4h0.7c0.3,0,0.5-0.2,0.5-0.5c0-0.3-0.2-0.5-0.5-0.5h-0.7h-0.3h-0.4v0.2
	c0,0,0.2-0.1,0.2,0.2v1c0,0-0.1,0.1-0.2,0.1v0.2L-211.9,387L-211.9,387z M-211.8,385.5c0.1,0,0.2,0.1,0.2,0.2c0,0.1-0.1,0.2-0.2,0.2
	h-0.5v-0.5L-211.8,385.5L-211.8,385.5z"/>
<path class="st0" d="M-214.7,398.1h1c0,0,0.1,0.1,0.1,0.2h0.2v-1h-0.1c0,0,0,0.4-0.4,0.4h-0.4V397c0-0.3-0.2-0.5-0.5-0.5
	c-0.3,0-0.5,0.2-0.5,0.5v0.7v0.3v0.4h0.2C-214.9,398.3-214.9,398.1-214.7,398.1 M-214.9,397.2c0-0.1,0.1-0.2,0.3-0.2
	c0.1,0,0.3,0.1,0.3,0.2v0.5h-0.5L-214.9,397.2L-214.9,397.2z"/>
<path class="st0" d="M-197.2,406.1c0,0-0.1,0.2-0.3,0.1c-0.2-0.1-0.8-0.6-0.8-0.6s-0.1-0.1,0-0.3l-0.1-0.1l-0.7,0.9l-0.2,0.3
	c-0.2,0.3-0.1,0.6,0.1,0.8c0.1,0.1,0.4,0.1,0.6,0c0,0.1,0.1,0.3,0.2,0.4c0.2,0.1,0.5,0.1,0.7-0.1l0.4-0.6l0.1-0.1l0.1-0.1l0.2-0.3
	L-197.2,406.1z M-198.9,406.7c-0.1-0.1-0.1-0.3-0.1-0.4l0.3-0.4c0.1,0,0.1,0,0.2,0.1c0.1,0.1,0.1,0.1,0.3,0.2l-0.3,0.4
	C-198.6,406.8-198.8,406.8-198.9,406.7 M-197.9,407c-0.1,0.1-0.2,0.1-0.4,0.1c-0.1-0.1-0.1-0.2-0.1-0.4l0.3-0.4
	c0.1,0.1,0.3,0.2,0.4,0.3L-197.9,407z"/>
<path class="st0" d="M-209.4,385.3c-0.6,0-1,0.4-1,0.9s0.4,0.9,1,0.9s1-0.4,1-0.9C-208.3,385.8-208.9,385.3-209.4,385.3
	 M-209.4,386.9c-0.1,0-0.4-0.3-0.4-0.7c0-0.4,0.2-0.7,0.4-0.7c0.1,0,0.4,0.4,0.4,0.7C-209,386.6-209.2,386.9-209.4,386.9"/>
<path class="st0" d="M-206.6,387c0,0-0.4,0-0.4-0.4v-0.4h0.3l0.5,0.9c0,0,0.4,0.1,0.6-0.2l-0.1-0.1c0,0-0.2,0.1-0.4,0
	c-0.1-0.1-0.2-0.4-0.3-0.4c0.3,0,0.5-0.2,0.5-0.5s-0.2-0.5-0.5-0.5h-0.7h-0.3h-0.4v0.2c0,0,0.2-0.1,0.2,0.2v1c0,0-0.1,0.1-0.2,0.1
	v0.2h1L-206.6,387z M-206.5,385.5c0.1,0,0.2,0.1,0.2,0.2c0,0.1-0.1,0.2-0.2,0.2h-0.5v-0.5L-206.5,385.5L-206.5,385.5z"/>
<path class="st0" d="M-214.7,394.6h1c0,0,0.1,0.1,0.1,0.2h0.2v-1h-0.1c0,0,0,0.4-0.4,0.4h-0.4v-0.3l0.9-0.5c0,0,0.1-0.4-0.2-0.6
	l-0.1,0.1c0,0,0.1,0.2,0,0.4c-0.1,0.1-0.4,0.2-0.4,0.3c0-0.3-0.2-0.5-0.5-0.5c-0.3,0-0.5,0.2-0.5,0.5v0.7v0.3v0.4h0.2
	C-214.9,394.7-215,394.6-214.7,394.6 M-215,393.6c0-0.1,0.1-0.2,0.3-0.2s0.2,0.1,0.2,0.2v0.5h-0.5L-215,393.6L-215,393.6z"/>
<path class="st0" d="M-205.1,410.4c0,0,0.4,0.1,0.3,0.4c0,0.1-0.1,0.2-0.1,0.3l-0.3-0.1l-0.3-0.9c0,0-0.3-0.1-0.7,0.1l0.1,0.1
	c0,0,0.3-0.1,0.3,0.1c0.1,0.1,0.1,0.4,0.1,0.5c-0.3-0.1-0.5,0.1-0.6,0.4c-0.1,0.3,0.1,0.5,0.4,0.6l0.9,0.3l0.4,0.1l0.1-0.2
	c0,0-0.2,0-0.1-0.2c0.1-0.2,0.3-0.9,0.3-0.9s0.1-0.1,0.3-0.1l0.1-0.1l-0.9-0.3L-205.1,410.4z M-205.8,411.4c0-0.1,0.1-0.2,0.3-0.1
	l0.4,0.1c-0.1,0.2-0.1,0.4-0.1,0.5l-0.4-0.1C-205.8,411.7-205.9,411.5-205.8,411.4"/>
<path class="st0" d="M-194.4,387.6c0,0,0.1,0.2-0.2,0.2h-1c0,0-0.1-0.1-0.1-0.2h-0.2v1h0.1c0,0,0-0.4,0.4-0.4h0.4v0.3l-0.9,0.5
	c0,0-0.1,0.4,0.2,0.6l0.1-0.1c0,0-0.1-0.2,0-0.4c0.1-0.1,0.4-0.2,0.4-0.3c0,0.3,0.2,0.5,0.5,0.5c0.3,0,0.5-0.2,0.5-0.5v-0.7v-0.3
	v-0.4L-194.4,387.6L-194.4,387.6z M-194.3,388.7c0,0.1-0.1,0.2-0.2,0.2c-0.1,0-0.2-0.1-0.2-0.2v-0.5h0.5L-194.3,388.7L-194.3,388.7z
	"/>
<polygon class="st0" points="-201.7,387 -201.9,387 -201.3,386 -200.3,387.1 -199.5,386.3 -199,387 -199.2,387 -199.2,387.1 
	-198,387.1 -198,387 -198.2,387 -199,385.8 -199,385.8 -199,385.4 -199.4,385.4 -199.4,385.6 -200.1,386.4 -200.9,385.4 
	-201.8,385.4 -201.8,385.7 -201.6,385.7 -201.6,385.7 -202.4,387 -202.7,387 -202.7,387.1 -201.7,387.1 "/>
<polygon class="st0" points="-196.4,386.8 -196.6,386.8 -196.6,385.7 -196.4,385.7 -196.4,385.4 -197.2,385.4 -197.2,385.7 
	-197.1,385.7 -197.1,386.8 -197.2,386.8 -197.2,387.1 -196.4,387.1 "/>
<polygon class="st0" points="-214.8,392.2 -213.6,392.2 -213.6,392.3 -213.4,392.3 -213.4,391.4 -213.6,391.4 -213.6,391.6 
	-214.8,391.6 -214.8,391.4 -215.1,391.4 -215.1,392.3 -214.8,392.3 "/>
<polygon class="st0" points="-214.8,388.7 -213.3,387.7 -214.8,386.6 -214.8,386.2 -215.1,386.2 -215.1,387.1 -214.8,387.1 
	-214.8,386.8 -214,387.5 -214.8,388.1 -214.8,388 -215.1,388 -215.1,389 -214.8,389 "/>
<polygon class="st0" points="-215,391.1 -214.6,391.1 -214.6,390.9 -214.8,390.9 -214.8,390.4 -213.6,390.4 -213.6,390.7 
	-213.4,390.7 -213.4,389.5 -213.6,389.5 -213.6,389.8 -214.8,389.8 -214.8,389.3 -214.6,389.3 -214.6,389.2 -214.8,389.2 
	-215.1,389.2 -215.1,391.1 "/>
<polygon class="st0" points="-214.8,396.1 -213.6,396.1 -213.6,396.2 -213.4,396.2 -213.4,395.4 -213.6,395.4 -213.6,395.5 
	-214.8,395.5 -214.8,395.4 -215.1,395.4 -215.1,396.2 -214.8,396.2 "/>
<path class="st0" d="M-199,408.3c0,0-0.1-0.1-0.1-0.1l-0.7-0.8c0,0-0.1-0.1,0-0.1c0,0,0.1-0.1,0.1-0.1l-0.1-0.1l-1.4,1.3l0.2,0.4
	l0.1-0.1c-0.1-0.1,0-0.3,0-0.3s0-0.1,0.1-0.1l0.6-0.5l0.8,0.8c0,0,0.1,0.1,0.1,0.1c0,0-0.2,0.2-0.3,0.3l0.1,0.1l0.9-0.8l-0.1-0.1
	C-199,408.2-199,408.3-199,408.3"/>
<path class="st0" d="M-211.7,406.1l0.9-0.6h0.1c0,0,0.1,0.1,0.1,0.1l0.2-0.1l-1-1.6l-0.5,0.1l0.1,0.2c0.1,0,0.3,0.1,0.3,0.1
	s0.1,0,0.1,0.1l0.4,0.7l-0.9,0.6c-0.1,0-0.1,0.1-0.1,0.1s-0.1-0.2-0.2-0.4l-0.2,0.1l0.7,1l0.2-0.1c-0.1-0.1-0.1-0.1-0.1-0.1
	C-211.8,406.2-211.8,406.1-211.7,406.1"/>
<path class="st0" d="M-210.7,406.1l0.1,0.2c0.1-0.1,0.1-0.1,0.1-0.1c0.1,0,0.1,0,0.1,0s0.1,0.1,0.1,0.1l0.4,0.4l-0.4,0.4l-0.4-0.5
	l-0.2,0.1l0.4,0.6l-0.4,0.3l-0.4-0.4l0,0v-0.1c0,0,0,0,0-0.1l0.1-0.1l-0.1-0.2l-0.3,0.4l1,1.2l0.1-0.1c-0.1-0.1-0.1-0.1-0.1-0.1
	v-0.1c0,0,0,0,0.1-0.1l0.9-0.7h0.1c0,0,0.1,0.1,0.1,0.1l0.1-0.1l-1-1.3L-210.7,406.1z"/>
<path class="st0" d="M-213.7,402.5l1.2-0.4c0.1,0,0.1,0,0.1,0s0.1,0.1,0.1,0.1l0.2-0.1l-0.5-1.6l-0.5,0.1l0.1,0.2c0.1,0,0.1,0,0.1,0
	c0.1,0,0.1,0,0.1,0l0.1,0.1l0.1,0.5l-0.6,0.2l-0.2-0.7l-0.2,0.1l0.2,0.7l-0.4,0.1l-0.2-0.6l0,0v-0.1c0,0,0,0,0.1-0.1l0.1-0.1
	l-0.1-0.2l-0.4,0.3l0.5,1.5l0.2-0.1C-213.7,402.6-213.7,402.6-213.7,402.5C-213.7,402.6-213.7,402.5-213.7,402.5
	C-213.7,402.5-213.7,402.5-213.7,402.5"/>
<path class="st0" d="M-214.2,400.5c0.2,0,0.4-0.2,0.4-0.6c0-0.1,0.1-0.2,0.1-0.4s0.1-0.3,0.1-0.4c0-0.1,0.1-0.1,0.1-0.1
	c0.1,0,0.1,0,0.1,0.1c0,0.1,0.1,0.1,0.1,0.2c0,0.1,0,0.4,0,0.4c-0.1,0.1-0.2,0.2-0.4,0.3l0.1,0.3c0.2-0.1,0.4-0.1,0.5-0.2
	c0.1-0.3,0.1-0.4,0.1-0.7c-0.1-0.4-0.1-0.6-0.3-0.7s-0.3-0.2-0.4-0.2c-0.1,0-0.2,0.1-0.3,0.2c-0.1,0.1-0.1,0.3-0.1,0.5
	c0,0.1,0,0.1-0.1,0.4c0,0.1-0.1,0.3-0.1,0.4l-0.1,0.1c-0.1,0-0.1-0.1-0.2-0.2c0-0.1-0.1-0.6,0-0.7c0-0.1,0.2-0.1,0.4-0.2l-0.1-0.3
	c-0.2,0.1-0.4,0.1-0.5,0.1c-0.1,0.3-0.1,0.4-0.1,0.7c0,0.3,0.1,0.6,0.2,0.7C-214.5,400.5-214.4,400.6-214.2,400.5"/>
<path class="st0" d="M-194.7,393.1C-194.5,393.1-194.6,393.1-194.7,393.1c0.1,0.1,0.1,0.1,0.1,0.1v0.1v0.7l-1.3-1.2
	c0,0-0.2-0.2-0.2,0.1v1.7l0.5,0.1v-0.4c-0.1-0.1-0.1-0.1-0.1-0.1c0,0-0.1-0.1-0.1-0.1v-0.6l1.3,1.1c0,0,0.1,0.1,0.1-0.1v-1.7
	l-0.5-0.1v0.5H-194.7z"/>
<path class="st0" d="M-195.6,389.9c0,0,0-0.1,0-0.1h-0.3v0.7h0.3v-0.1l0,0l0.3,0.1v0.8c-0.2,0.1-0.3,0.1-0.3,0.1v-0.3h-0.3v1.2h0.3
	c0-0.1,0-0.1,0-0.1s0-0.1,0.1-0.1l1.4-0.9v-0.5L-195.6,389.9C-195.6,390-195.6,389.9-195.6,389.9 M-195.1,390.7l0.4,0.2l-0.4,0.2
	V390.7z"/>
<path class="st0" d="M-195.7,395.4c0,0,0-0.1,0-0.1h-0.3v0.7h0.3v-0.1l0,0l0.3,0.1v0.8c-0.2,0.1-0.3,0.1-0.3,0.1v-0.3h-0.3v1.2h0.3
	c0-0.1,0-0.1,0-0.1s0-0.1,0.1-0.1l1.4-0.9v-0.6L-195.7,395.4C-195.6,395.4-195.7,395.4-195.7,395.4 M-195.1,396.1l0.4,0.2l-0.4,0.2
	V396.1z"/>
<path class="st0" d="M-201.4,408.9l-0.1-0.3l-0.7,0.4l0.1,0.3c0.1-0.1,0.1-0.1,0.1-0.1l0,0v0.4l-0.7,0.4c-0.3-0.1-0.3-0.1-0.3-0.1
	l0.3-0.1l-0.1-0.3l-1,0.7l0.1,0.3c0.1-0.1,0.1-0.1,0.1-0.1h0.1l1.5,0.7l0.4-0.3l-0.1-1.7V409C-201.6,409-201.6,409-201.4,408.9
	 M-202.3,410.1l0.4-0.2l0.1,0.4L-202.3,410.1z"/>
<path class="st0" d="M-206.8,409.2l-0.1,0.2c0.1,0.1,0.1,0.1,0.1,0.1l0,0l-0.3,0.1l-0.7-0.4c0-0.3,0.1-0.4,0.1-0.4s0.2,0.1,0.3,0.2
	l0.1-0.2l-0.9-0.7l-0.1,0.2c0.1,0.1,0.1,0.1,0.1,0.1v0.1l-0.1,1.7l0.4,0.3l1.5-0.7h0.1c0,0,0.1,0.1,0.1,0.1l0.1-0.2L-206.8,409.2z
	 M-207.9,410l0.1-0.4l0.4,0.2L-207.9,410z"/>
<path class="st0" d="M-196.9,402.7c0,0,0-0.1,0.1-0.1l-0.3-0.1l-0.3,0.7l0.3,0.1c0-0.1,0.1-0.1,0.1-0.1l0,0l0.2,0.3l-0.3,0.7
	c-0.3,0-0.4,0-0.4,0l0.1-0.3l-0.3-0.1l-0.5,1.1l0.3,0.1c0-0.1,0.1-0.1,0.1-0.1h0.1l1.7-0.2l0.2-0.4L-196.9,402.7L-196.9,402.7
	 M-196.4,404l-0.4,0.1l0.1-0.4L-196.4,404z"/>
<path class="st0" d="M-194.8,400.2L-194.8,400.2c-0.1,0.1-0.1,0.1-0.1,0.1l-1.1-0.3c-0.1,0-0.1,0-0.1-0.1c0,0,0-0.1,0.1-0.2
	l-0.2-0.1l-0.2,0.9l0.2,0.1c0-0.1,0-0.1,0-0.1v-0.1c0,0,0,0,0.1,0l0.4,0.1l-0.2,0.8l-0.4-0.1c-0.1,0-0.1,0-0.1-0.1c0,0,0-0.1,0-0.1
	l-0.2-0.1l-0.2,0.9l0.2,0.1c0-0.1,0-0.1,0.1-0.1v-0.1c0,0,0,0,0.1,0l1.1,0.3c0.1,0,0.1,0.1,0.1,0.1s0,0.1-0.1,0.2l0.2,0.1l0.2-0.9
	l-0.2-0.1c0,0.1,0,0.1,0,0.1v0.1c0,0-0.1,0-0.1,0l-0.4-0.1l0.2-0.8l0.4,0.1c0.1,0,0.1,0.1,0.1,0.1s0,0.1,0,0.1l0.2,0.1l0.2-0.9
	l-0.2-0.1C-194.8,400.1-194.8,400.1-194.8,400.2"/>
</svg>
