<?xml version="1.0" encoding="utf-8"?>
<!-- Generator: Adobe Illustrator 21.0.2, SVG Export Plug-In . SVG Version: 6.00 Build 0)  -->
<svg version="1.1" id="Layer_1" xmlns="http://www.w3.org/2000/svg" xmlns:xlink="http://www.w3.org/1999/xlink" x="0px" y="0px"
	 viewBox="0 0 200 77.7" style="enable-background:new 0 0 200 77.7;" xml:space="preserve">
<g id="XMLID_14_">
	<g id="XMLID_4191_">
		<g id="XMLID_4241_">
			<g id="XMLID_4262_">
				<path id="XMLID_184_" d="M28.5,23.6c1.3,0,2.2,0.1,2.8,0.4c0.5,0.3,0.8,0.6,0.8,1c0,0.2,0,0.4-0.1,0.6c-0.1,0.2-0.2,0.4-0.4,0.6
					c-0.2-0.1-0.5-0.3-1-0.4c-0.5-0.2-1-0.2-1.7-0.2c-0.8,0-1.5,0.2-1.9,0.5c-0.5,0.3-0.7,0.8-0.7,1.4c0,0.5,0.1,1,0.3,1.4
					c0.2,0.4,0.5,0.8,0.9,1.3l2.9,3.3c0.3,0.4,0.6,0.8,0.9,1.2c0.2,0.4,0.4,0.7,0.6,1.1c0.1,0.4,0.2,0.7,0.3,1.1s0.1,0.8,0.1,1.2
					c0,0.7-0.1,1.3-0.2,2c-0.2,0.6-0.4,1.2-0.8,1.6c-0.4,0.5-0.9,0.8-1.5,1.1c-0.6,0.3-1.4,0.4-2.3,0.4c-1.2,0-2.1-0.2-2.7-0.5
					c-0.6-0.4-0.9-0.7-0.9-1.1c0-0.2,0-0.5,0.1-0.8s0.2-0.6,0.4-0.8c0.3,0.3,0.7,0.5,1.1,0.7c0.5,0.2,1,0.3,1.7,0.3
					c1,0,1.7-0.3,2.1-0.8s0.6-1.2,0.6-2c0-0.6-0.1-1.2-0.3-1.7c-0.2-0.5-0.6-1.1-1.2-1.8l-2.7-3.2c-0.6-0.8-1-1.4-1.3-2
					S24,28.3,24,27.6c0-1.1,0.4-2.1,1.2-2.8C25.8,23.9,27,23.6,28.5,23.6z"/>
			</g>
			<g id="XMLID_4260_">
				<path id="XMLID_181_" d="M41.4,40.9c0,0.5,0,0.8,0,1.1c0,0.3,0,0.5-0.1,0.6c0,0.1-0.1,0.2-0.1,0.2c-0.1,0-0.1,0.1-0.2,0.1h-6.4
					V24.3c0-0.1,0-0.1,0.1-0.2c0-0.1,0.1-0.1,0.1-0.2c0.1-0.1,0.1-0.1,0.3-0.1h6.5c0,0.5,0,0.8,0,1.1s0,0.5,0,0.6s-0.1,0.2-0.1,0.3
					c-0.1,0-0.1,0.1-0.2,0.1H37v5.7h4.1c0,0.4,0,0.8,0,1c0,0.2,0,0.5,0,0.6S41,33.4,41,33.5c-0.1,0.1-0.1,0.1-0.2,0.1h-3.7v7.3
					C37.1,40.9,41.4,40.9,41.4,40.9z"/>
			</g>
			<g id="XMLID_4257_">
				<path id="XMLID_177_" d="M127.1,23.8c0.9,0,1.7,0.1,2.3,0.4c0.7,0.3,1.2,0.7,1.7,1.4c0.4,0.7,0.8,1.5,1,2.6
					c0.2,1.1,0.3,2.5,0.3,4.1c0,2-0.1,3.7-0.4,5c-0.2,1.3-0.6,2.4-1,3.2c-0.5,0.8-1,1.4-1.7,1.7c-0.7,0.3-1.4,0.5-2.2,0.5h-3.4V24.4
					c0-0.2,0-0.3,0.1-0.4c0.1-0.1,0.3-0.1,0.6-0.1h2.7V23.8z M129.9,32.1c0-1.2-0.1-2.3-0.2-3.1c-0.1-0.8-0.3-1.5-0.5-1.9
					c-0.2-0.5-0.5-0.8-0.9-1c-0.3-0.2-0.7-0.3-1.2-0.3H126v14.9h1.2c0.3,0,0.7-0.1,1-0.3c0.3-0.2,0.6-0.6,0.9-1.2
					c0.3-0.6,0.5-1.5,0.6-2.6S129.9,34,129.9,32.1z"/>
			</g>
			<g id="XMLID_4255_">
				<path id="XMLID_174_" d="M141.8,40.9c0,0.5,0,0.8,0,1.1c0,0.3,0,0.5-0.1,0.6c0,0.1-0.1,0.2-0.1,0.2c-0.1,0-0.1,0.1-0.2,0.1H135
					V24.3c0-0.1,0-0.1,0.1-0.2c0-0.1,0.1-0.1,0.1-0.2c0.1-0.1,0.1-0.1,0.3-0.1h6.5c0,0.5,0,0.8,0,1.1s0,0.5,0,0.6s-0.1,0.2-0.1,0.3
					c-0.1,0-0.1,0.1-0.2,0.1h-4.3v5.7h4.1c0,0.4,0,0.8,0,1c0,0.2,0,0.5,0,0.6s-0.1,0.2-0.1,0.3c-0.1,0.1-0.1,0.1-0.2,0.1h-3.7v7.3
					C137.5,40.9,141.8,40.9,141.8,40.9z"/>
			</g>
			<g id="XMLID_4253_">
				<path id="XMLID_171_" d="M152.2,25.9v16.5c0,0.1,0,0.2,0,0.3c0,0.1-0.1,0.1-0.2,0.1s-0.4,0-0.7,0s-0.7,0-1.3,0V25.9h-3.7v-1.6
					c0-0.3,0.2-0.5,0.5-0.5h9.2v1.6c0,0.3-0.2,0.4-0.5,0.4L152.2,25.9L152.2,25.9z"/>
			</g>
			<g id="XMLID_4251_">
				<path id="XMLID_168_" d="M157.9,24.8c0-0.3,0-0.4,0-0.6c0-0.1,0.1-0.2,0.2-0.3c0.1-0.1,0.4-0.1,0.7-0.1c0.3,0,0.7,0,1.3,0v18.6
					c0,0.1,0,0.2,0,0.3c0,0.1-0.1,0.1-0.2,0.1c-0.1,0-0.4,0-0.7,0c-0.3,0-0.7,0-1.3,0V24.8z"/>
			</g>
			<g id="XMLID_4242_">
				<path id="XMLID_158_" d="M108.9,32.9h3.5l-1.7-11.2L108.9,32.9z M113.3,37.1h-5.2l-1.3,6.3h-4.3c-0.3,0-0.4-0.1-0.3-0.3
					l6.6-27.7c0-0.1,0.2-0.2,0.4-0.2h3.1c0.2,0,0.3,0,0.4,0.2l6.6,27.7c0,0.2,0,0.3-0.3,0.3h-4.4L113.3,37.1z M54.1,19.6v23.6
					c0,0.1,0,0.2-0.2,0.2h-4.4V19.6h-4.8v-3.9c0-0.2,0-0.2,0.2-0.2h14.2v4c0,0.1,0,0.2-0.2,0.2L54.1,19.6L54.1,19.6z M68.1,23.3
					c0-1.8-0.3-4.1-1.8-4.1h-1.1v9.4h0.9C67.7,28.6,68.1,26.2,68.1,23.3z M65.2,15.4c5.8,0,7.9,1.9,7.9,8.1c0,3-0.5,5.9-2.9,7.6
					L73.7,43c0,0.2-0.1,0.3-0.2,0.3h-4.8l-2.6-10.9h-0.9v10.5c0,0.3-0.1,0.4-0.3,0.4h-4V15.9c0-0.3,0.1-0.4,0.5-0.4L65.2,15.4
					L65.2,15.4z M99.4,19.6v23.6c0,0.1,0,0.2-0.2,0.2h-4.4V19.6H90v-3.9c0-0.2,0-0.2,0.2-0.2h14.2v4c0,0.1,0,0.2-0.2,0.2L99.4,19.6
					L99.4,19.6z M81.7,32.9h3.5l-1.7-11.2L81.7,32.9z M86.1,37.1h-5.2l-1.3,6.3h-4.3c-0.3,0-0.4-0.1-0.3-0.3l6.6-27.7
					c0-0.1,0.2-0.2,0.4-0.2h3.1c0.2,0,0.3,0,0.4,0.2l6.6,27.7c0,0.2,0,0.3-0.3,0.3h-4.4L86.1,37.1z"/>
			</g>
		</g>
	</g>
	<g id="XMLID_3786_">
		<g id="XMLID_29_">
			<g id="XMLID_31_">
				<line id="XMLID_82_" x1="45.3" y1="47.7" x2="45.3" y2="75"/>
			</g>
			<g id="XMLID_30_">
				<polygon id="XMLID_81_" points="45.7,47.7 45.3,75 44.9,47.7 				"/>
			</g>
		</g>
		<g id="XMLID_27_">
			<g id="XMLID_28_">
				<polygon id="XMLID_80_" points="59.5,47.7 59.1,69.3 58.7,47.7 				"/>
			</g>
		</g>
		<g id="XMLID_25_">
			<g id="XMLID_26_">
				<polygon id="XMLID_79_" points="74.8,47.7 74.4,75.3 74,47.7 				"/>
			</g>
		</g>
		<g id="XMLID_23_">
			<g id="XMLID_24_">
				<polygon id="XMLID_78_" points="90.1,47.7 89.7,70.4 89.2,47.7 				"/>
			</g>
		</g>
		<g id="XMLID_21_">
			<g id="XMLID_22_">
				<polygon id="XMLID_77_" points="105.3,47.7 104.9,77.7 104.5,47.7 				"/>
			</g>
		</g>
		<g id="XMLID_16_">
			<g id="XMLID_20_">
				<polygon id="XMLID_15_" points="119.7,47.7 119.3,73.9 118.9,47.7 				"/>
			</g>
		</g>
	</g>
</g>
</svg>
