<?xml version="1.0" encoding="utf-8"?>
<!-- Generator: Adobe Illustrator 21.1.0, SVG Export Plug-In . SVG Version: 6.00 Build 0)  -->
<svg version="1.1" id="Layer_1" xmlns="http://www.w3.org/2000/svg" xmlns:xlink="http://www.w3.org/1999/xlink" x="0px" y="0px"
	 viewBox="0 0 803.5 208.1" style="enable-background:new 0 0 803.5 208.1;" xml:space="preserve">
<g>
	<g>
		<g>
			<g>
				<g>
					<g>
						<path d="M265.7,31.8V15.1h2.1V30h5.3v1.8L265.7,31.8L265.7,31.8z"/>
						<path d="M282.6,31.8l-0.9-4.2h-4.7l-0.9,4.2H274l4-16.7h2.8l4,16.7H282.6z M279.4,16.7l-2,9.1h3.9L279.4,16.7z"/>
						<path d="M294.4,27c0,1-0.1,1.8-0.3,2.4c-0.2,0.6-0.5,1.1-1,1.5c-0.4,0.3-0.9,0.6-1.5,0.7c-0.6,0.1-1.2,0.2-2,0.2
							c-0.4,0-0.8-0.1-1.4-0.1c-0.5-0.1-1-0.2-1.4-0.3v-1.7c0.3,0.1,0.8,0.2,1.3,0.2c0.5,0.1,1,0.1,1.7,0.1c0.8,0,1.4-0.2,1.8-0.7
							c0.3-0.5,0.6-1.2,0.6-2.2c0-0.6-0.1-1-0.1-1.4c-0.1-0.4-0.2-0.7-0.3-1c-0.2-0.2-0.3-0.5-0.6-0.6c-0.2-0.1-0.5-0.2-0.9-0.3
							c-0.7-0.1-1.2-0.3-1.7-0.6c-0.5-0.2-0.8-0.5-1.1-0.9s-0.5-0.8-0.6-1.3c-0.1-0.5-0.2-1.1-0.2-1.8c0-0.9,0.1-1.6,0.3-2.1
							c0.2-0.6,0.6-1,1-1.4c0.4-0.3,0.9-0.6,1.5-0.8c0.6-0.2,1.2-0.2,1.9-0.2c0.4,0,0.8,0.1,1.3,0.1c0.5,0.1,0.9,0.2,1.2,0.2V17
							c-0.4-0.1-0.9-0.2-1.4-0.2s-1-0.1-1.4-0.1c-0.3,0-0.6,0.1-0.9,0.1c-0.3,0.1-0.5,0.2-0.7,0.5c-0.2,0.2-0.4,0.5-0.5,0.8
							c-0.1,0.3-0.2,0.7-0.2,1.2c0,0.5,0,0.9,0.1,1.2c0.1,0.3,0.1,0.6,0.3,0.8c0.1,0.2,0.3,0.3,0.6,0.5c0.2,0.1,0.6,0.2,0.9,0.3
							c0.6,0.1,1.1,0.3,1.6,0.5c0.5,0.2,0.9,0.5,1.1,0.9c0.3,0.3,0.6,0.9,0.7,1.4C294.4,25.4,294.4,26.2,294.4,27z"/>
					</g>
				</g>
			</g>
			<path d="M244.7,23.2c0,1.8-0.1,3.2-0.3,4.4s-0.5,2-0.9,2.7c-0.4,0.6-0.9,1.1-1.5,1.3c-0.6,0.2-1.3,0.3-2.1,0.3
				c-0.5,0-0.9,0-1.4,0c-0.5,0-0.9,0-1.3-0.1c-0.5-0.1-0.9-0.1-1.4-0.1V15.1c0.4-0.1,0.9-0.1,1.3-0.1c0.4-0.1,0.8-0.1,1.3-0.1
				c0.5,0,0.9,0,1.3,0c0.9,0,1.6,0.1,2.2,0.3c0.6,0.2,1.1,0.6,1.6,1.2c0.4,0.6,0.7,1.4,1,2.5C244.6,20,244.7,21.4,244.7,23.2z
				 M242.6,23.3c0-1.4-0.1-2.6-0.2-3.4c-0.1-0.9-0.3-1.6-0.5-2c-0.2-0.5-0.5-0.8-0.7-1c-0.3-0.2-0.6-0.2-1-0.2c-0.2,0-0.5,0-0.7,0
				s-0.5,0-0.7,0.1c-0.3,0-0.6,0.1-0.8,0.1v13.3c0.2,0,0.5,0.1,0.7,0.1c0.2,0,0.5,0,0.7,0.1c0.3,0,0.5,0,0.8,0c0.3,0,0.7-0.1,1-0.3
				c0.3-0.2,0.6-0.6,0.8-1.1c0.2-0.5,0.4-1.3,0.5-2.1C242.6,25.8,242.6,24.7,242.6,23.3z"/>
			<path d="M248.3,31.8V15.1h7.8v1.7h-5.7v5.5h5.1V24h-5.1v6h5.7v1.7L248.3,31.8L248.3,31.8z"/>
			<path d="M179.3,23.2c0,1.8-0.1,3.2-0.3,4.4s-0.5,2-0.9,2.7c-0.4,0.6-0.9,1.1-1.5,1.3c-0.6,0.2-1.3,0.3-2.1,0.3
				c-0.5,0-0.9,0-1.4,0c-0.5,0-0.9,0-1.3-0.1c-0.5-0.1-0.9-0.1-1.4-0.1V15.1c0.4-0.1,0.9-0.1,1.3-0.1c0.4-0.1,0.8-0.1,1.3-0.1
				c0.5,0,0.9,0,1.3,0c0.9,0,1.6,0.1,2.2,0.3c0.6,0.2,1.1,0.6,1.6,1.2c0.4,0.6,0.7,1.4,1,2.5C179.2,20,179.3,21.4,179.3,23.2z
				 M177.2,23.3c0-1.4-0.1-2.6-0.2-3.4c-0.1-0.9-0.3-1.6-0.5-2c-0.2-0.5-0.5-0.8-0.7-1c-0.3-0.2-0.6-0.2-1-0.2c-0.2,0-0.5,0-0.7,0
				s-0.5,0-0.7,0.1c-0.3,0-0.6,0.1-0.8,0.1v13.3c0.2,0,0.5,0.1,0.7,0.1s0.5,0,0.7,0.1c0.3,0,0.5,0,0.8,0c0.3,0,0.7-0.1,1-0.3
				c0.3-0.2,0.6-0.6,0.8-1.1c0.2-0.5,0.4-1.3,0.5-2.1C177.1,25.8,177.2,24.7,177.2,23.3z"/>
			<path d="M189.5,31.8l-0.9-4.2H184l-0.9,4.2h-2.1l4-16.7h2.8l4,16.7H189.5z M186.3,16.7l-2,9.1h3.9L186.3,16.7z"/>
			<path d="M199.8,31.8l-3.6-14.9v14.9h-2V15.1h3.4l3.7,14.9V15.1h2v16.7H199.8z"/>
			<path d="M208.5,30h5.9v1.8h-8v-2.1l6.2-12.9h-5.6v-1.7h7.7v2.1L208.5,30z"/>
			<path d="M224.9,31.8l-0.9-4.2h-4.7l-0.9,4.2h-2.1l4-16.7h2.8l4,16.7H224.9z M221.6,16.7l-2,9.1h3.9L221.6,16.7z"/>
			<path d="M142.5,31.8V15.1h2.1V30h5.3v1.8L142.5,31.8L142.5,31.8z"/>
			<path d="M159.4,31.8l-0.9-4.2h-4.7l-0.9,4.2h-2.1l4-16.7h2.8l4,16.7H159.4z M156.2,16.7l-2,9.1h3.9L156.2,16.7z"/>
		</g>
	</g>
	<g>
		<path d="M142.3,142.5V39.3h55.8v15.5l-38.6-0.5l-0.6,28.8h34.6v14.5h-34.6l0.7,44.8L142.3,142.5L142.3,142.5z"/>
		<path d="M235.5,142.7l0.6-47.5l-0.6-55.8h17.4l-0.6,45.8l0.6,57.6L235.5,142.7L235.5,142.7z"/>
		<path d="M297.9,142.5V39.3h55.8v15.1l-38.5-0.5l-0.7,28.9H350v14.6h-35.6l0.7,30.2l38.5-0.3v15.1L297.9,142.5L297.9,142.5z"/>
		<path d="M429,37.4c23.7,0,35.6,11.1,35.6,33.2c0,16.3-7.2,26.5-21.6,30.5v0.7l24,40.6h-20.2l-20.1-39l-16.2-0.6v39.6h-17.4
			l0.7-48.4l-0.5-54.6C404.4,38.1,416.3,37.4,429,37.4z M410.3,88.1c7.8,0.9,14.6,1.3,20.4,1.3c5.9,0,9.9-1.4,12.2-4.4
			c2.3-2.9,3.4-8.1,3.4-15.6c0-7.5-1.2-12.6-3.6-15.3c-2.1-2.2-6.3-3.2-12.8-3.2s-13,0.5-19.7,1.3L410.3,88.1z"/>
		<path d="M493,142.5l29.4-103.2h20.9l29.2,103.2h-17.9l-6.5-25.4h-30.7l-6.7,25.4H493z M520.7,102.6h24.2l-11.7-48.1h-0.9
			L520.7,102.6z"/>
		<path d="M631.4,128.9c8.7,0,13-4.7,13-14.1c0-4-1.6-7.4-4.9-10.2c-3.2-2.8-7.8-5.5-13.5-8s-9-4.1-9.9-4.6
			c-0.9-0.5-2.4-1.3-4.5-2.4c-2.2-1.2-3.7-2.2-4.5-2.9c-0.9-0.8-2-2-3.6-3.4c-1.6-1.6-2.6-3-3.2-4.7c-1.7-4.3-2.5-8.3-2.5-12.4
			c0-8.3,2.9-15.2,8.6-20.6s14-8,24.6-8c7.8,0,15.5,1.1,23,3.2l4,1l-2.8,14.5c-10.8-2.1-18.9-3.1-24.6-3.1c-5.6,0-9.5,0.9-11.7,2.7
			c-2.2,1.8-3.2,4.7-3.2,8.7c0,4,1.4,7.1,4.1,9.3c2.7,2.2,5.9,4.2,9.4,5.9c3.6,1.7,6.5,3.1,8.7,4.1c2.2,1,3.9,1.7,5,2.3
			c1.1,0.5,2.7,1.4,4.7,2.5c2,1.1,3.5,2.2,4.6,3.1c1.1,0.9,2.4,2.2,3.9,3.7c1.5,1.6,2.5,3.1,3.2,4.7c1.8,3.9,2.8,8,2.8,12.4
			c0,9.5-3.1,17.2-9.3,23.2c-6.2,5.9-14.3,8.9-24.4,8.9c-5.1,0-10.5-0.7-16-2.2c-5.6-1.5-9.8-2.9-12.8-4.4l-4.6-2.4
			c0.9-2.6,1.6-4.8,2.2-6.4c0.6-1.6,1.1-3,1.5-4.1c0.4-1.1,0.9-2.4,1.3-3.6C611.5,126.3,621.9,128.9,631.4,128.9z"/>
	</g>
</g>
</svg>
