<?xml version="1.0" encoding="utf-8"?>
<!-- Generator: Adobe Illustrator 21.0.2, SVG Export Plug-In . SVG Version: 6.00 Build 0)  -->
<svg version="1.1" id="Layer_1" xmlns="http://www.w3.org/2000/svg" xmlns:xlink="http://www.w3.org/1999/xlink" x="0px" y="0px"
	 viewBox="0 0 300 77.7" style="enable-background:new 0 0 300 77.7;" xml:space="preserve">
<g>
	<g>
		<path d="M53.1,53.4V14.7H74v5.8l-14.5-0.2l-0.2,10.8h12.9v5.4H59.3l0.3,16.8L53.1,53.4L53.1,53.4z"/>
		<path d="M88,53.4l0.2-17.8L88,14.7h6.5l-0.2,17.2l0.2,21.6L88,53.4L88,53.4z"/>
		<path d="M111.4,53.4V14.7h20.9v5.6l-14.4-0.2L117.6,31h13.3v5.5h-13.3l0.3,11.3l14.4-0.1v5.6H111.4z"/>
		<path d="M160.5,14c8.9,0,13.3,4.2,13.3,12.4c0,6.1-2.7,10-8.1,11.5v0.3l9,15.2h-7.6l-7.5-14.6l-6.1-0.2v14.8h-6.5l0.3-18.2
			l-0.2-20.5C151.3,14.2,155.8,14,160.5,14z M153.6,33c2.9,0.3,5.5,0.5,7.7,0.5c2.2,0,3.7-0.5,4.6-1.6c0.9-1.1,1.3-3,1.3-5.9
			s-0.4-4.7-1.3-5.7c-0.8-0.8-2.4-1.2-4.8-1.2c-2.4,0-4.9,0.2-7.4,0.5L153.6,33z"/>
		<path d="M184.5,53.4l11-38.7h7.9l11,38.7h-6.7l-2.4-9.5h-11.5l-2.5,9.5L184.5,53.4L184.5,53.4z M194.9,38.4h9.1l-4.4-18h-0.3
			L194.9,38.4z"/>
		<path d="M236.5,48.3c3.2,0,4.9-1.8,4.9-5.3c0-1.5-0.6-2.8-1.8-3.8c-1.2-1-2.9-2-5.1-3s-3.4-1.5-3.7-1.7c-0.3-0.2-0.9-0.5-1.7-0.9
			c-0.8-0.4-1.4-0.8-1.7-1.1c-0.3-0.3-0.8-0.7-1.3-1.3c-0.6-0.6-1-1.1-1.2-1.8c-0.6-1.6-0.9-3.1-0.9-4.6c0-3.1,1.1-5.7,3.2-7.7
			c2.2-2,5.2-3,9.2-3c2.9,0,5.8,0.4,8.6,1.2l1.5,0.4l-1.1,5.4c-4-0.8-7.1-1.2-9.2-1.2c-2.1,0-3.6,0.3-4.4,1
			c-0.8,0.7-1.2,1.8-1.2,3.3c0,1.5,0.5,2.7,1.5,3.5c1,0.8,2.2,1.6,3.5,2.2c1.3,0.7,2.4,1.1,3.3,1.5c0.8,0.4,1.5,0.7,1.9,0.9
			s1,0.5,1.8,0.9c0.7,0.4,1.3,0.8,1.7,1.2s0.9,0.8,1.4,1.4c0.6,0.6,1,1.1,1.2,1.8c0.7,1.4,1.1,3,1.1,4.6c0,3.6-1.2,6.5-3.5,8.7
			c-2.3,2.2-5.4,3.3-9.1,3.3c-1.9,0-3.9-0.3-6-0.8s-3.7-1.1-4.8-1.7l-1.7-0.9c0.3-1,0.6-1.8,0.8-2.4c0.2-0.6,0.4-1.1,0.6-1.5
			c0.2-0.4,0.3-0.9,0.5-1.3C229,47.3,232.9,48.3,236.5,48.3z"/>
	</g>
	<g>
		<path d="M53.2,11.9V5.6h0.8v5.6h2v0.7H53.2z"/>
		<path d="M59.5,11.9l-0.3-1.6h-1.7l-0.3,1.6h-0.8l1.5-6.2h1l1.5,6.2H59.5z M58.3,6.2l-0.7,3.4H59L58.3,6.2z"/>
		<path d="M66.9,8.6c0,0.7,0,1.2-0.1,1.6c-0.1,0.4-0.2,0.8-0.3,1c-0.2,0.2-0.3,0.4-0.6,0.5s-0.5,0.1-0.8,0.1c-0.2,0-0.4,0-0.5,0
			c-0.2,0-0.4,0-0.5,0c-0.2,0-0.4,0-0.5,0V5.6c0.2,0,0.3,0,0.5,0c0.1,0,0.3,0,0.5,0c0.2,0,0.3,0,0.5,0c0.3,0,0.6,0,0.8,0.1
			c0.2,0.1,0.4,0.2,0.6,0.4c0.2,0.2,0.3,0.5,0.4,0.9C66.9,7.4,66.9,8,66.9,8.6z M66.1,8.7c0-0.5,0-1-0.1-1.3c0-0.3-0.1-0.6-0.2-0.8
			c-0.1-0.2-0.2-0.3-0.3-0.4c-0.1-0.1-0.2-0.1-0.4-0.1c-0.1,0-0.2,0-0.3,0s-0.2,0-0.3,0c-0.1,0-0.2,0-0.3,0v5c0.1,0,0.2,0,0.3,0
			c0.1,0,0.2,0,0.3,0c0.1,0,0.2,0,0.3,0c0.1,0,0.3,0,0.4-0.1c0.1-0.1,0.2-0.2,0.3-0.4C66,10.5,66,10.2,66,9.9
			C66.1,9.6,66.1,9.2,66.1,8.7z"/>
		<path d="M70.8,11.9l-0.3-1.6h-1.7l-0.3,1.6h-0.8l1.5-6.2h1l1.4,6.2H70.8z M69.6,6.2l-0.7,3.4h1.5L69.6,6.2z"/>
		<path d="M74.7,11.9l-1.4-5.6v5.6h-0.7V5.6h1.3l1.4,5.6V5.6h0.7v6.2H74.7z"/>
		<path d="M77.9,11.2h2.2v0.7h-3v-0.8l2.3-4.8h-2.1V5.6h2.9v0.8L77.9,11.2z"/>
		<path d="M84,11.9l-0.3-1.6H82l-0.3,1.6h-0.8l1.5-6.2h1l1.5,6.2H84z M82.8,6.2l-0.7,3.4h1.5L82.8,6.2z"/>
		<path d="M91.5,8.6c0,0.7,0,1.2-0.1,1.6c-0.1,0.4-0.2,0.8-0.3,1c-0.2,0.2-0.3,0.4-0.6,0.5s-0.5,0.1-0.8,0.1c-0.2,0-0.4,0-0.5,0
			s-0.4,0-0.5,0c-0.2,0-0.4,0-0.5,0V5.6c0.2,0,0.3,0,0.5,0c0.1,0,0.3,0,0.5,0s0.3,0,0.5,0c0.3,0,0.6,0,0.8,0.1
			c0.2,0.1,0.4,0.2,0.6,0.4c0.2,0.2,0.3,0.5,0.4,0.9C91.4,7.4,91.5,8,91.5,8.6z M90.7,8.7c0-0.5,0-1-0.1-1.3c0-0.3-0.1-0.6-0.2-0.8
			c-0.1-0.2-0.2-0.3-0.3-0.4c-0.1-0.1-0.2-0.1-0.4-0.1c-0.1,0-0.2,0-0.3,0s-0.2,0-0.3,0c-0.1,0-0.2,0-0.3,0v5c0.1,0,0.2,0,0.3,0
			c0.1,0,0.2,0,0.3,0c0.1,0,0.2,0,0.3,0c0.1,0,0.3,0,0.4-0.1c0.1-0.1,0.2-0.2,0.3-0.4c0.1-0.2,0.1-0.5,0.2-0.8
			C90.6,9.6,90.7,9.2,90.7,8.7z"/>
		<path d="M92.8,11.9V5.6h2.9v0.7h-2.2v2h1.9v0.6h-1.9v2.2h2.2v0.7H92.8z"/>
		<path d="M99.4,11.9V5.6h0.8v5.6h2v0.7H99.4z"/>
		<path d="M105.7,11.9l-0.3-1.6h-1.7l-0.3,1.6h-0.8l1.5-6.2h1l1.5,6.2H105.7z M104.5,6.2l-0.7,3.4h1.5L104.5,6.2z"/>
		<path d="M110.1,10.1c0,0.4,0,0.7-0.1,0.9c-0.1,0.2-0.2,0.4-0.4,0.6s-0.3,0.2-0.6,0.3c-0.2,0-0.4,0.1-0.7,0.1c-0.1,0-0.3,0-0.5,0
			c-0.2,0-0.4-0.1-0.5-0.1v-0.7c0.1,0,0.3,0.1,0.5,0.1c0.2,0,0.4,0,0.7,0c0.3,0,0.5-0.1,0.7-0.3c0.1-0.2,0.2-0.4,0.2-0.8
			c0-0.2,0-0.4,0-0.5c0-0.1-0.1-0.3-0.1-0.4c-0.1-0.1-0.1-0.2-0.2-0.2c-0.1,0-0.2-0.1-0.3-0.1c-0.2,0-0.5-0.1-0.6-0.2
			c-0.2-0.1-0.3-0.2-0.4-0.3c-0.1-0.1-0.2-0.3-0.2-0.5c0-0.2-0.1-0.4-0.1-0.7c0-0.3,0-0.6,0.1-0.8c0.1-0.2,0.2-0.4,0.4-0.5
			c0.2-0.1,0.3-0.2,0.6-0.3c0.2-0.1,0.4-0.1,0.7-0.1c0.2,0,0.3,0,0.5,0c0.2,0,0.3,0.1,0.4,0.1v0.7c-0.2,0-0.3-0.1-0.5-0.1
			s-0.4,0-0.5,0c-0.1,0-0.2,0-0.3,0c-0.1,0-0.2,0.1-0.3,0.2s-0.1,0.2-0.2,0.3c0,0.1-0.1,0.3-0.1,0.4s0,0.3,0,0.4
			c0,0.1,0,0.2,0.1,0.3c0,0.1,0.1,0.1,0.2,0.2c0.1,0,0.2,0.1,0.3,0.1c0.2,0,0.4,0.1,0.6,0.2c0.2,0.1,0.3,0.2,0.4,0.3
			c0.1,0.1,0.2,0.3,0.3,0.5C110.1,9.5,110.1,9.8,110.1,10.1z"/>
	</g>
</g>
</svg>
