<?xml version="1.0" encoding="utf-8"?>
<!-- Generator: Adobe Illustrator 16.0.0, SVG Export Plug-In . SVG Version: 6.00 Build 0)  -->
<!DOCTYPE svg PUBLIC "-//W3C//DTD SVG 1.1//EN" "http://www.w3.org/Graphics/SVG/1.1/DTD/svg11.dtd">
<svg version="1.1" id="Layer_1" xmlns="http://www.w3.org/2000/svg" xmlns:xlink="http://www.w3.org/1999/xlink" x="0px" y="0px"
	 width="141.732px" height="141.73px" viewBox="0 0 141.732 141.73" enable-background="new 0 0 141.732 141.73"
	 xml:space="preserve">
<g>
	<g>
		<path fill="#141414" d="M5.903,84.745c0.816-0.481,2.01-0.333,1.989,0.012c-0.061,0.985-1.306,0.909-1.498,1.266
			c-0.332,0.605,0.626,2.212,0.83,1.991c0.208-0.226,0.449-0.772,0.926-1.257c1.264-1.488,3.039-2.854,4.207-3.981
			c0.671-0.648,1.616-1.434,2.422-1.919c2.342-1.411,4.243-3.199,8.254-3.993c1.371-0.271,4.166-0.628,5.237-1.559
			c0.493-0.429,0.885-3.717-2.673-2.191c-3.751,1.604-6.124,1.962-7.558,2.93c-0.909,0.615-2.704,2.083-3.042,1.688
			c-1.008-1.183,1.758-2.017,0.842-3.634c-0.768-1.357-3.479-0.762-4.708-0.245c-0.418,0.178-6.957,3.596-7.283,4.308
			C3.471,78.975,5.53,84.966,5.903,84.745z"/>
		<path fill="#141414" d="M139.58,51.362c-0.605-3.979-2.17-17.658-6.315-19.529c-0.32-0.143-11.341-4.938-12.558-4.34
			c-0.964,0.473,0.627,3.937-1.001,5.493c-1.482,1.42-11.429,6.469-12.414,5.379c-0.815-0.904,1.461-3.562,3.104-5.207
			c1.976-1.979,5.676-4.967,7.988-6.572c0.377-0.261-2.916-1.971-3.64-1.273c-5.142,4.939-11.624,14.217-16.669,16.108
			c-1.032,0.389-2.444-2.237-1.928-3.312c2.102-4.378,9.158-9.438,15.942-13.798c0.729-0.47-3.209-1.92-3.858-1.27
			c-3.747,3.757-3.678,1.856-2.45-0.755c0.134-0.284-2.821-1.333-2.942-0.873c-1.193,4.541-6.566,12.147-9.703,13.94
			c-0.879,0.502-3.229-2.287-2.971-2.754c1.193-2.147,5.667-7.174,9.521-12.017c0.32-0.407-3.841-1.438-4.071-0.991
			c-0.497,0.962-2.985,5.068-3.643,5.949c-0.644,0.862-0.977,0.996-0.646-0.087c0.802-2.635,1.999-5.446,2.252-6.315
			c0.136-0.463-2.65-1.218-2.812-0.576c-0.521,2.056-1.61,9.413-4.324,11.191c-0.648,0.428-4.271-1.086-4.042-1.966
			c1.327-5.095,3.85-7.739,4.641-9.839c0.216-0.57-1.97-1.11-2.317-0.421c-1.457,2.862-3.249,5.312-4.935,8.946
			c-0.38,0.816-1.252,0.934-1.117-0.489c0.216-2.288,0.155-3.286,1.12-5.078c0.663-1.235,1.646-2.022,1.882-3.79
			c0.085-0.636-2.088-0.955-2.323-0.261c-0.29,0.854-0.467,1.368-1.271,2.593c-1.858,2.834-1.216,3.695-2.91,6.821
			c-0.273,0.511-2.027,0.058-2.013-0.297c0.275-5.959,1.087-7.409,1.44-9.529c0.146-0.897-2.319-0.795-2.511-0.154
			c-0.709,2.399,0.087,5.239-1.182,9.258c-0.102,0.324-1.268,0.235-1.409-0.089c-0.492-1.128-0.628-4.506-0.666-5.235
			c-0.059-1.126-0.142-2.412-0.447-3.934c-0.09-0.449-2.104-0.611-1.969,0.03c0.328,1.537,1.046,4.951,0.854,8.889
			c-0.03,0.612-0.644,0.747-0.838,0.099c-1.637-5.392-0.937-6.583-1.958-8.939c-0.217-0.495-2.477-0.431-2.182,0.218
			c1.397,3.064,0.113,2.901,2.223,8.82c0.249,0.698-1.54,1.17-1.698,0.515c-0.84-3.484-2.022-6.881-3.437-9.227
			c-0.294-0.487-2.762-0.402-2.413,0.251c0.822,1.538,3.158,5.897,3.578,9.405c0.062,0.509-1.519,0.86-1.886,0.466
			c-0.511-0.55-2.504-4.563-3.283-5.957c-0.258-0.462-1.309-2.038-2.251-3.414c-0.283-0.497-2.867-0.295-2.647,0.412
			c0.701,2.266,2.433,5.104,3.111,6.188c0.748,1.19,2.394,2.764,2.417,3.81c0.011,0.337-1.019,0.77-1.248,0.715
			c-1.229-0.292-2.901-5.25-3.675-5.677c-0.666-0.367-2.229-4.386-2.685-4.693c-0.705-0.477-2.424-0.06-2.437,0.487
			c-0.026,1.375,6.12,10.467,6.077,11.543c-0.006,0.147-0.688,0.521-0.834,0.41c-1.053-0.806-5.341-5.514-6.157-6.276
			c-0.491-0.464-2.533-3.947-3.655-4.672c-0.492-0.319-2.51,0.177-2.434,0.598c0.104,0.561,0.916,1.877,1.244,2.328
			c0.561,0.767,2.161,2.339,2.771,3.078c1.816,2.208,5.582,4.655,6.221,6.469c0.153,0.436-1.07,1.556-1.71,1.357
			c-0.889-0.278-1.673-1.463-2.243-2.064c-1.718-1.812-3.568-3.501-5.139-5.451c-0.866-1.073-2.728-3.885-4.25-4.889
			c-0.393-0.258-2.748,0.214-2.146,0.894c2.754,3.1,5.187,6.132,5.337,6.839c0.188,0.866-4.021-2.908-6.674-4.62
			c-0.788-0.499-1.688-1.11-2.562-1.304c-0.851-0.186-4.223,0.768-3.938,1.317c0.33,0.638,2.965,1.525,3.704,1.839
			c1.513,0.644,2.518,1.57,3.703,2.658c1.697,1.559,7.789,5.963,9.51,7.942c0.618,0.711-0.562,2.757-1.167,2.581
			c-1.964-0.575-5.921-3.42-7.225-4.861c-1.178-1.302-1.28-3.048-3.883-4.771c-1.168-0.771-2.495-1.07-3.646-1.861
			c-0.61-0.421-1.114-0.984-1.631-1.53c-0.656-0.655-1.422-1.162-1.676-1.174c-0.525-0.027-2.921,0.49-2.978,1.117
			c-0.009,0.404,1.407,1.039,2.775,2.085c1.546,1.183,7.007,4.643,6.642,5.196c-0.685,1.042-3.56-0.489-4.752-1.303
			c-1.184-0.807-1.909-2.361-2.786-3.562c-2.382-0.845-2.689-1.272-3.155-1.917c-0.317-0.439-7.083,2.105-6.211,2.767
			c0.23,0.176,1.85,0.271,1.861,1.121c0.011,0.651-2.805,1.841-3.232,1.196c-0.396-0.594,0.341-0.979-0.146-1.783
			c-0.272-0.452-4.707,0.978-6.429,2.76C-1.16,39.279,1.285,70.906,2.508,71.53c0.344,0.175,0.704,0.082,0.912-0.34
			c0.596-1.203,0.997-1.462,1.492-1.401c0.105,0,0.27,0.186,0.27,0.292c0.052,0.532-0.607,0.878-0.743,1.271
			c-0.475,1.357-1.133,1.958-1.574,2.229c-0.303,0.188,0.259,3.062,0.554,2.778c1.018-0.979,2.104-1.366,2.519-1.418
			c1.376-0.173,4-1.799,4.942-2.467c3.852-2.728,10.401-3.471,15.333-2.907c2.387,0.271,3.687-1.627,3.71-3.255
			c0.026-1.693-2.177,0.062-3.709-0.025c-11.897-0.695-18.294,5.909-19.087,5.302c-0.426-0.324,0.208-1.489,0.788-2.103
			c0.591-0.624,2.548-1.852,4.669-3.001c2.306-1.251,4.94-2.39,5.886-2.694c2.763-0.891,5.363-1.695,8.417-1.867
			c2.711-0.149,5.362-0.345,8.493-0.215c0.679,0.027,0.903-0.063,1.247,0.442c0.375,0.554,2.942,0.349,5.333-0.012
			c1.412-0.214,3.896-0.569,5.217-0.52c1.342,0.052,5.187,0.94,5.187,2.924c-0.053,0.799,0.271,2.915,0.37,3.167
			c0.43,1.119-1.074,3.032-1.332,4.379c-0.174,0.914-2.272,0.346-4.714,1.841c-0.854,0.521-2.335,0.248-2.916,0.722
			c-0.413,0.336-0.775,0.548-0.904,1.062c-0.27,1.079-0.337,3.021,0.506,3.987c1.774,2.04,3.144,3.822,3.144,3.822
			c1.226,1.292-3.129,4.975-5.036,8.529c-4.028,7.516-4.609,13.518-6.49,14.91c-0.479,0.356-0.609-1.364-2.004-0.791
			c-1.803,0.746-2.5,7.643-2.503,9.97c-0.002,0.896,8.237,5.852,8.267,5.013c0.059-1.71,1.213-3.942,1.924-3.841
			c1.49,0.214,1.014,3.858,0.438,4.867c-0.544,1.062,2.643,1.781,2.778,1.379c0.162-0.486,0.152-1.262,0.212-1.969
			c0.233-2.855,1.19-3.992,1.366-5.295c0.251-1.849,0.344-3.657,0.505-5.516c0.241-2.786,1.085-6.573,2.412-9.327
			c1.436-2.972,3.96-8.104,6.156-10.251c0.496-0.484,1.472-0.955,2.979-0.335c1.814,0.748,2.41,1.087,1.937,1.82
			c-2.078,3.218-3.125,4.461-4.141,6.488c-0.849,1.69-2.045,2.624-2.266,4.327c-0.396,3.052-2.417,5.53-3.812,8.17
			c-1.281,2.427-1.593,5.031-2.436,7.634c-0.19,0.588-0.443,2.072-1.188,2.9c-0.661,0.732-1.046,1.243-1.032,1.639
			c0.021,0.579,2.57,1.527,2.828,1.076c0.26-0.454,0.074-1.617,0.23-2.179c0.148-0.536,0.921-1.826,1.465-2.19
			c0.768-0.518,0.917,0.986,0.628,2.394c-0.005,0.285-0.092,0.618-0.295,1.003c-0.001,0.002-0.001,0.004-0.002,0.004
			c-0.048,0.119-0.325,1.026-0.401,1.528c-0.075,0.495,2.946,1.24,2.943,0.893c-0.006-0.711,0.173-2.514,0.366-2.585
			c0.853-0.312,0.896,1.803,1.202,3c0.104,0.402,1.657,0.592,1.854,0.437c0.701-0.562,0.723-2.381,0.646-3.423l0,0
			c-0.154-0.851-0.555-1.775-1.607-2.476c-1.907-1.265,0.281-6.175-2.677-6.683c-1.562-0.271-0.064-2.449,0.538-4.01
			c0.385-0.985,2.271-4.657,2.671-4.322c1.223,1.024-0.439,6.271-0.236,9.271c0.129,1.899,0.022,3.857,1.001,5.496
			c0.746,1.249,1.189,2.243,1.388,3.011c0.002,0.008,0.005,0.015,0.007,0.021c0.33,0.929,0.756,2.865,1.697,3.761
			c0.421,0.399,6.719,1.009,7.273,0.693c0.877-0.503-0.03-2.371-0.179-3.229c-0.315-1.844-0.167-3.843-0.093-4.943
			c0.077-1.128,1.736-5.079-0.257-5.841c-4.022-1.534-3.506,10.021-4.7,9.935c-1.741-0.123,0.642-4.062,0.732-5.608
			c0.087-1.449-0.026-2.624,0.018-4.196c0.089-3.285,2.292-6.492,3.22-9.583c0.66-2.198,1.141-4.336,1.517-6.64
			c0.231-1.424,0.42-3.255,0.517-4.805c0.03-0.469,1.219-0.389,1.326-0.107c0.561,1.474,1.019,9.868,1.019,12.118
			c-0.007,3.041-0.551,6.121-0.759,9.155c-0.129,1.876-0.374,3.766-0.363,5.65c0.003,0.479,0.066,6.89,1.167,8.099
			c0.76,0.836,8.605,0,9.839-0.755c0.603-0.369,0.838-1.768,0.563-4.53c-0.116-1.191-0.646-0.886-0.754-2.036
			c-0.075-0.795-0.112-1.741-0.856-1.896c-0.364-0.064-0.496-0.652-0.41-1.645c0.135-1.543,0.728-2.797,1.526-5.829
			c0.681-2.577,0.799-5.172,1.543-5.224c0.674-0.048,1.333,1.365,1.541,3.909c0.499,6.119-0.214,11.741-0.125,12.967
			c0.066,0.927,0.079,1.869,1.11,1.885c0.7,0.012,0.75-0.636,0.802-1.47c0.051-0.789,0.521-9.021-0.209-15.182
			c-0.294-2.473-0.618-4.398-1.086-6.791c-0.512-2.615-0.743-5.503-0.434-8.159c0.036-0.312,0.021-1.176,0.157-1.521
			c0.028-1.029,2.746-1.308,3.545-0.071c5.604,8.68,7.714,18.877,7.411,27.339c-0.047,1.314,1.104,4.811,1.55,5.312
			c0.397,0.447,2.334-0.326,2.446-0.746c0.091-0.33-0.227-0.599-0.049-0.968c0.304-0.552,0.791-0.422,1.231-1.133
			c0.782-1.441,1.937-3.497,2.183-4.286c0.484-1.541,0.623-3.471,0.675-5.077c0.1-3.062,0.385-7.376-0.845-12.767
			c-0.772-3.4-3.346-9.685-3.811-10.667c-0.238-0.505,0.41-1.199,1.035-0.675c2.622,2.195,5.535,8.478,6.531,10.765
			c2.777,6.38,5.242,15.469,5.488,16.846c0.188,1.041,0.138,1.798,0.661,1.926c0.508,0.125,1.746-0.805,1.785-1.213
			c0.057-0.574-0.13-1.457-0.393-2.665c-0.856-4.707-3.798-16.26-10.085-24.521c-2.337-3.069-4.357-3.876-5.071-4.919
			c-0.371-0.545-0.542-2.175,0.147-2.428c1.556-0.565,9.183,5.527,10.566,6.764c1.831,1.634,3.363,3.838,4.669,5.917
			c3.873,6.182,5.302,9.7,5.991,10.84c0.472,0.775,1.516,3.061,1.922,4.497c0.235,0.846,4.096-3.854,4.18-4.703
			c0.298-3.082-0.249-5.859-0.716-7.312c-0.475-1.479-3.456-9.639-9.038-14.34c-2.252-1.895-6.588-6.545-5.875-7.168
			c0.7-0.608,4.487,2.124,7.044,3.28c0.871,0.395,3.214,1.27,3.903,1.988c0.952,0.994,0.121,1.039,0.132,2.41
			c0.022,2.626,2.019,5.357,3.175,7.651c1.617,3.209,3.123,7.588,3.632,10.525c0.148,0.871,2.945-2.959,2.373-3.471
			c-1.511-1.349-3.082-4.826-2.456-5.345c0.755-0.621,3.805-0.388,4.364-1.263c0.908-1.418,0.298-2.613,0.11-4.171
			c-0.147-1.222,0.285-2.309-0.056-3.541c-0.19-0.702-0.899-2.192-1.103-4.345c-0.217-2.331-1.518-3.71-2.941-5.416
			c-1.345-1.606-2.754-3.193-4.375-4.521c-0.469-0.384-2.361-1.245-1.954-2.084c0.538-1.104,3.819-0.264,4.557,0.002
			c2.854,1.036,1.262,1.993,2.137,4.291c0.901,2.328,3.061,4.238,3.824,6.54c0.579,1.751,1.588,5.592,2.021,8.116
			c0.188,1.087,1.07,2.229,1.338,2.172c1.602-0.354,4.889-14.594,5.146-16.148C140.702,66.2,140.702,58.69,139.58,51.362z
			 M5.655,39.009c0.652-0.305,0.925,0.279,1.79,0.214c0.457-0.036,1.361-0.717,1.846-0.688c0.731,0.043,0.975,0.839,0.925,1.119
			c-0.105,0.628-0.278,1.2-1.376,0.925c-0.979-0.246-3.074-0.159-3.42-0.6C5.176,39.668,5.272,39.188,5.655,39.009z M5.34,44.342
			C4.81,44.6,3.919,44.908,3.741,44.387c-0.271-0.79,1.04-2.53,1.784-1.956c0.535,0.411,1.621,0.233,1.678,0.517
			C7.29,43.366,5.833,44.105,5.34,44.342z M35.052,58.78c-0.523,0.4-1.997,0.228-2.611,0.256c-1.123,0.053-2.254,0.034-3.375,0.116
			c-1.528,0.112-6.568,0.923-7.49,1.071c-1.825,0.292-3.562,0.87-5.474,1.823c-1.326,0.662-2.187,1.287-3.56,2.024
			c-0.652,0.352-2.692,1.532-3.526,1.968C8.249,66.443,7.52,67.203,7.2,67.521c-0.158,0.166-0.264,0.53-0.531,0.268
			c-0.104-0.158-0.089-0.574,0-0.742c0.763-1.433,1.707-1.926,2.794-2.599c0.969-0.598,1.627-1.325,2.5-2.013
			c0.462-0.364,1.948-0.99,2.021-1.679c0.373-3.569-6.121-2.305-6.358-3.315c-0.248-1.132,4.199-2.736,4.992-3.021
			c1.182-0.423,2.491-0.594,3.728-0.793c2.839-0.459,5.714-0.647,8.584-0.801c3.03-0.161,5.853,0.599,8.601,1.718
			c1.223,0.498,2.09,0.355,2.082,1.916C35.606,57.421,35.344,58.557,35.052,58.78z M9.441,51.875
			c0.518-1.383,1.85-2.926,4.312-2.987c1.82-0.046,3.093,0.163,4.883-0.01c0.724-0.068,3.974,0.021,4.757,0.119
			c0.81,0.104,0.709,0.573,0.43,0.963c-0.323,0.452-1.688,0.417-2.777,0.625c-1.968,0.375-3.77,0.3-4.953,0.475
			c-1.139,0.167-2.153,0.81-3.235,1.198c-0.492,0.18-2.104,1.026-3.065,0.917C9.225,53.112,9.242,52.406,9.441,51.875z
			 M36.196,50.455c-0.367,0.537-1.174,0.505-1.957,0.387c-0.617-0.092-1.911-1.138-2.323-1.442c-2.69-2.001-5.56-2.726-8.716-3.203
			c-2.05-0.312-3.414-0.606-5.476-0.552c-1.249,0.031-2.897-0.045-4.093,0.093c-2.291,0.267-4.276,0.459-6.979,1.049
			c-0.939,0.206-1.085-0.29-0.924-0.541c0.608-0.949,3.027-1.653,4.688-1.796c2.306-0.197,4.521-0.528,6.652-0.406
			c0.512,0.024,4.383,0.02,5.312,0.13c3.539,0.431,5.63,1.745,7.557,2.261c1.282,0.342,2.818,1.213,3.798,1.598
			C34.618,48.376,36.464,49.293,36.196,50.455z M14.75,37.726c0.285-0.696,12.592,3.099,15.109,4.715
			c2.614,1.678,5.793,2.711,5.486,3.389c-0.116,0.256-4.776-2.106-5.568-2.453c-1.504-0.651-2.531-0.918-4.065-1.183
			c-1.438-0.247-3.792-0.403-5.342-0.574c-1.578-0.174-3.631,0.021-4.804-1.239C14.69,39.44,14.386,38.613,14.75,37.726z
			 M37.754,43.527c-5.594-4.26-25.395-7.903-23.186-9.896c1.574-1.42,8.812,2.281,14.112,3.303c3.114,0.6,9.134,2.562,10.553,5.586
			C39.503,43.092,38.48,44.079,37.754,43.527z M44.261,105.494c-0.61,2.44-0.689,5.364-0.923,5.854
			c-0.751,1.59-2.813-2.194-4.729,0.015c-1.345,1.549,0.15,4.582-1.941,4.225c-0.704-0.121-0.628-0.865-0.421-2.232
			c0.258-1.712,4.682-14.354,7.068-18.99c2.071-4.021,4.422-6.51,6.058-7.285c0.834-0.396,3.199,1.048,2.714,1.938
			C49.97,92.899,45.968,98.666,44.261,105.494z M62.698,101.422c-0.582,3.722-1.938,7.044-2.641,10.653
			c-0.721,3.681-1.152,9.616-1.928,9.153c-1.743-1.042-1.229-3.814-1.257-5.699c-0.06-5.226,3.226-20.354,6.219-22.586
			c0.465-0.348,1.553,0.05,1.544,0.499C64.584,96.015,62.857,100.408,62.698,101.422z M74.862,125.538
			c-0.563,1.003-0.812,2.521-2.888,2.435c-0.695-0.026,0.19-1.3,0.831-2.231c0.475-0.693,0.692-1.48,1.392-2.053
			c0.416-0.336,1.099-1.001,1.395-0.58C75.966,123.639,75.191,124.952,74.862,125.538z M78.27,104.484
			c-0.446,5.888-2.734,13.085-5.747,17.101c-0.759,1.016-1.193,2.312-1.896,1.763c-0.485-0.379-0.274-2.443-0.226-4.233
			c0-0.004,0-0.009,0-0.013c0.173-5.52,1.623-10.448,1.36-16.167c-0.115-2.55-0.188-6.393,0.156-9.574
			c0.133-1.217,6.501-1.063,6.709,0.173C79.235,97.145,78.417,102.561,78.27,104.484z M80.778,58.713
			c-0.724,1.263-1.947,3.406-2.868,2.665c-0.168-0.135-0.309-0.355-0.41-0.685c-0.231-0.746,1.348-2.535,1.476-3.433
			c0.298-2.092,0.62-5.39,0.184-7.451c-0.526-2.495-1.553-6.569,1.562-5.787c1.323,0.333,2.451,4.316,2.672,5.634
			C83.873,52.592,82.258,56.133,80.778,58.713z M98.482,100.214c0.893,4.418,0.734,11.152,0.227,12.901
			c-0.402,1.392-0.178,2.197-0.194,3.903c-0.026,2.188-1.576,3.959-1.956,3.821c-1.535-0.554-1.509-9.646-2.246-13.974
			c-1.137-6.654-5.088-12.855-6.164-15.875c-0.271-0.754,0.852-1.445,2.306-2.47c4.146-2.916,3.778-0.229,4.812,2.678
			C95.86,92.894,98.075,98.212,98.482,100.214z M135.808,48.288c0.335,0.51,0.478,1.589,0.062,1.855
			c-0.784,0.505-8.933-3.03-10.093-3.271c-3.014-0.626-5.782-0.071-8.791,0.389c-4.986,0.765-10.406,4.272-10.988,3
			c-0.344-0.752,2.494-2.24,3.766-2.93c3.594-1.954,8.062-3.803,12.587-4.837c1.403-0.321,3.4-0.392,3.727-0.396
			c1.688-0.028,2.626,1.356,3.661,2.447c0.793,0.837,1.812,1.378,2.866,1.89C133.724,46.974,135.127,47.246,135.808,48.288z
			 M125.987,49.831c0.354,0.761,0.474,0.967-1.45,0.727c-1.646-0.208-1.842-0.66-1.325-0.918c0.604-0.303,1.016-0.555,1.282-0.551
			C124.755,49.092,125.706,49.228,125.987,49.831z M101.039,45.856c3.553-4.954,8.771-5.226,12.315-6.729
			c3.891-1.642,7.716-2.545,11.933-2.663c1.997-0.056,4.787,0.573,6.104,1.94c0.324,0.338-7.293,0.582-12.812,2.388
			c-3.406,1.115-8.222,2.672-11.172,4.785c-1.089,0.78-3.795,2.665-4.976,3.285C101.946,49.116,100.576,46.501,101.039,45.856z
			 M104.698,55.381c-1.087-0.022-0.938-1.2-0.741-1.291c1.519-0.678,5.794-0.77,7.465,0.065c0.834,0.416,0.7,0.721-1.491,0.807
			C108.482,55.02,105.657,55.404,104.698,55.381z M109.975,82.815c1.122,1.531,3.467,3.675,4.585,4.717
			c4.636,4.32,9.382,16.686,6.56,17.2c-1.156,0.209-2.812-3.659-3.601-5.328c-1.859-3.938-5.618-9.082-8.562-12.214
			c-1.744-1.854-5.389-4.503-10.424-7.604c-0.527-0.324,1.162-3.611,2.453-3.292C104.256,77.113,107.297,79.162,109.975,82.815z
			 M126.774,91.529c-1.354-1.167-4.571-6.148-3.782-6.786c0.89-0.723,2.323,0.897,2.924,1.878c0.672,1.108-1.046,2.343,1.455,4.616
			C127.861,91.686,127.303,91.985,126.774,91.529z M120.854,72.684c1.558,1.06,2.808,3.099,3.975,4.546
			c0.002,0.005,0.006,0.008,0.009,0.012c0.979,1.204,2.057,2.472,2.559,3.934c0.328,0.98,0.501,3.325,0.104,4.225
			c0.128-0.868-3.454-3.271-4.1-3.709c-2.486-1.688-5.423-2.909-8.019-4.474c-2.151-1.295-5.186-2.865-7.61-3.412
			c-1.133-0.255-4.005-1.084-5.038-1.703c-0.646-0.389-0.167-6.398,1.226-6.327c2.879,0.146,8.68,2.291,10.491,3.01
			C115.289,69.118,118.478,71.075,120.854,72.684z M122.799,65.815c-2.687-0.493-5.469-0.251-8.138-0.857
			c-2.307-0.523-4.366-1.307-6.729-1.516c-0.981-0.086-2.585-0.315-3.638-0.868c-0.704-0.371-0.573-4.288,0.212-4.398
			c6.57-0.922,10.703-1.738,19.033,1.006c4.167,1.373,8.703,4.206,9.021,8.758c-0.78,0.497-1.238,0.166-1.92-0.07
			c-0.134-0.045-0.272-0.087-0.428-0.119C127.711,67.228,125.315,66.276,122.799,65.815z M134.258,75.752
			c-0.677-0.424-0.244-1.643-0.547-1.938c-0.946-0.943-4.07-1.637-2.938-3.037c0.969-1.195,2.767,0.821,3.225,1.196
			c0.286,0.23,1.537,1.641,1.676,2.05C136.083,75.246,135.566,76.573,134.258,75.752z M136.917,69.581
			c-0.023,0.398-0.661,0.27-1.203-0.387c-0.893-1.078-1.446-1.411-1.031-1.678c0.449-0.291-0.604-1.662,0.062-1.614
			C135.637,65.967,137.036,67.808,136.917,69.581z M136.662,62.205c-0.221,0.507-1.744,0.838-1.6-0.182
			c0.139-0.988-1.463-1.248,0.059-2.052c0.616-0.325,1.147-0.059,1.122,0.899C136.232,61.295,136.884,61.696,136.662,62.205z
			 M132.345,56.75c-1.102,0.511-0.032,3.365-0.536,3.438c-0.503,0.069-5.252-3.208-5.783-3.484c-1.491-0.776-7.02-1.838-8.697-1.888
			c-0.88-0.026-1.945-0.107-1.746-0.707c0.35-1.048,2.161-1.4,3.843-1.543c2.539-0.215,2.972,0.73,5.513,0.969
			c2.121,0.198,5.65-0.187,7.742,0.23c1.101,0.224,2.62,1.395,3.554,2.384c0.225,0.235,0.397,0.479,0.506,0.717
			C136.911,57.255,133.389,56.265,132.345,56.75z"/>
		<path fill="#141414" d="M26.631,81.624c-0.893,0.591-2.071,1.735-2.913,2.319c-1.866,1.299-5.209,4.353-7.911,8.694
			c-0.788,1.265-2.015,4.444-2.724,5.968c-0.11,0.238,0.819,1.97,0.997,1.42c0.749-2.305,6.229-10.188,8.054-11.915
			c2.534-2.397,6.851-5.04,7.032-5.48C30.207,80.13,27.298,81.182,26.631,81.624z"/>
		<path fill="#141414" d="M36.506,89.301c-0.044-2.2-2.312-2.682-4.097-1.45c-0.428,0.296-2.997,3.648-2.639,3.201
			c0.375-0.474-3.115,4.057-5.619,6.402c-0.294-0.342-0.515-0.937-0.312-1.756c0.457-1.828,0.238-2.478-1.458-2.468
			c-1.243,0.007-2.82,1.342-3.375,2.758c-0.543,1.395-3.812,4.826-4.127,5.122c-0.126,0.187,1.722,3.104,2.276,2.857
			c0.711-0.315,1.432-0.972,0.635,0.744c-0.179,0.387,2.854,3.688,3.318,3.562c0.588-0.16,1.215-0.93,1.465-1.5
			c0.424-0.968,0.408-3.159,1.141-4.527c1.664-3.109,6.999-10.699,8.019-8.912c0.428,0.755-3.967,10.299-4.733,10.894
			c-1.232,0.957-2.619-0.354-3.467,1.825c-0.045,0.084-0.287,0.972-0.414,1.434l0,0c-0.188,0.675-0.351,1.665-0.19,2.542
			c0.192,1.072,5.266,5.202,5.547,4.639c0.306-0.618-1.329-5.287,1.248-10.477c1.177-2.371,2.455-4.856,3.476-7.188
			C33.923,95.342,36.539,90.948,36.506,89.301z M23.049,100.235c-0.179,0.281-0.059,0.56-0.637,0.908
			c-0.53,0.188-0.834-0.139-0.745-0.554c0.064-0.305,0.238-0.726,0.506-0.987c0.105-0.11,0.441-0.519,0.774-0.552
			c0.228-0.021,0.592,0.129,0.584,0.438C23.528,99.603,23.329,99.797,23.049,100.235z"/>
		<path fill="#141414" d="M9.418,92.552c1.104-0.412,2.1-0.05,1.772,0.979c-0.206,0.647-0.562,0.706-0.619,1.089
			c-0.132,0.886,1.091,2.836,1.85,3.078c0.406,0.129,0.71-0.26,0.875-1.325c0.168-1.085,0.652-2.423,1.482-4.092
			c0.782-1.575,2.075-3.211,2.97-4.728c0.946-1.603,1.298-3.351-0.668-4.227c-1.61-0.718-2.396,0.748-3.835,1.773
			c-0.79,0.564-3.167,3.715-3.973,3.857c-0.896,0.16-1.328,0.155-1.411,0.462C7.698,90.024,8.637,92.844,9.418,92.552z"/>
		<path fill="#141414" d="M88.273,126.485c0.005-0.729-0.941-1.979,0.88-2.702c1.637-0.648,2.469,0.812,1.781,2.134
			c-0.223,0.421,2.168,0.101,2.235-0.55c-0.104-2.195-0.764-5.688-2.066-8.035c-1.133-2.038-1.152-3.104-2.845-2.966
			c-2.311,0.192-1.072,6.394-1.115,6.985c-0.199,2.667-2.146,3.94-1.833,5.667C85.406,127.533,88.273,126.933,88.273,126.485z"/>
	</g>
	<path fill="#141414" d="M109.077,118.916c0.104-0.645-0.171-0.858-0.722-1.63c-0.856-1.197-1.349-6.56-3.212-6.695
		c-2.417-0.178-1.518,4.361-1.623,6.105c-0.229,3.696-1.156,4.995-0.365,5.302C104.001,122.326,108.932,119.826,109.077,118.916z"/>
	<path fill="#141414" d="M118.829,111.578c-0.035-1.377-1.094-2.526-2.296-3.148c-2.146-1.114-0.771-3.009-3.562-3.376
		c-1.496-0.197-0.722,2.844-0.517,5.19c0.184,2.097,0.782,3.949,1.48,5.473C114.225,116.351,118.859,112.897,118.829,111.578z"/>
</g>
</svg>
