<?xml version="1.0" encoding="utf-8"?>
<!-- Generator: Adobe Illustrator 16.0.0, SVG Export Plug-In . SVG Version: 6.00 Build 0)  -->
<!DOCTYPE svg PUBLIC "-//W3C//DTD SVG 1.1//EN" "http://www.w3.org/Graphics/SVG/1.1/DTD/svg11.dtd">
<svg version="1.1" id="Layer_1" xmlns="http://www.w3.org/2000/svg" xmlns:xlink="http://www.w3.org/1999/xlink" x="0px" y="0px"
	 width="141.732px" height="141.73px" viewBox="0 0 141.732 141.73" enable-background="new 0 0 141.732 141.73"
	 xml:space="preserve">
<g>
	<path fill="#FFFFFF" d="M75.03,63.071c0.056,0.182,0.134,0.305,0.229,0.38c0.511,0.412,1.19-0.78,1.593-1.48
		c0.821-1.433,1.719-3.399,1.449-5.03c-0.118-0.731-0.746-2.943-1.48-3.128c-1.732-0.435-1.163,1.827-0.87,3.213
		c0.243,1.145,0.064,2.977-0.103,4.139C75.776,61.664,74.9,62.658,75.03,63.071z"/>
	<path fill="#FFFFFF" d="M80.328,39.333c-0.439,1.165-1.84,2.634-2.577,5.464c-0.126,0.488,1.885,1.328,2.246,1.091
		c1.505-0.988,2.11-5.073,2.4-6.215c-0.683-0.132-1.37-0.257-2.065-0.372C80.332,39.312,80.332,39.323,80.328,39.333z"/>
	<path fill="#FFFFFF" d="M76.301,40.977c-0.534,0.994-0.503,1.548-0.622,2.819c-0.073,0.791,0.411,0.727,0.621,0.272
		c0.936-2.018,1.929-3.378,2.738-4.967c-0.561-0.083-1.125-0.159-1.689-0.228C77.213,39.854,76.67,40.29,76.301,40.977z"/>
	<path fill="#FFFFFF" d="M86.681,85.018c-0.225-1.109-1.454-4.064-1.788-5.004c-0.571-1.615-0.368-3.105-2.67-1.486
		c-0.809,0.566-1.43,0.951-1.281,1.371c0.599,1.676,2.794,5.119,3.423,8.816c0.411,2.4,0.396,7.449,1.246,7.76
		c0.212,0.076,1.074-0.908,1.087-2.125c0.012-0.945-0.115-1.395,0.112-2.166C87.091,91.211,87.179,87.471,86.681,85.018z"/>
	<path fill="#FFFFFF" d="M101.842,55.395c0.644,0.135,5.17,2.098,5.605,1.817c0.227-0.148,0.15-0.747-0.035-1.031
		c-0.38-0.579-1.157-0.729-1.778-1.03c-0.587-0.283-1.152-0.584-1.593-1.048c-0.577-0.607-1.096-1.376-2.031-1.361
		c-0.181,0.004-1.291,0.043-2.071,0.221c-2.513,0.574-4.994,1.602-6.991,2.686c-0.702,0.383-2.281,1.209-2.09,1.627
		c0.323,0.707,3.333-1.242,6.102-1.666C98.632,55.356,100.17,55.048,101.842,55.395z"/>
	<path fill="#FFFFFF" d="M73.195,98.051c-0.386,0.318-0.51,0.758-0.772,1.143c-0.354,0.518-0.847,1.225-0.463,1.24
		c1.156,0.047,1.294-0.795,1.606-1.35c0.184-0.328,0.61-1.059,0.404-1.354C73.805,97.496,73.425,97.867,73.195,98.051z"/>
	<path fill="#FFFFFF" d="M101.127,56.627c-0.148-0.003-0.377,0.137-0.711,0.305c-0.286,0.142-0.179,0.394,0.735,0.509
		c1.067,0.135,1.005,0.02,0.805-0.403C101.801,56.703,101.272,56.629,101.127,56.627z"/>
	<path fill="#FFFFFF" d="M47.796,93.047c0.37,0.279,0.741,0.549,1.118,0.814c0.003-1.293,0.389-5.121,1.391-5.531
		c0.774-0.322,0.846,0.637,1.112,0.438c1.044-0.773,1.367-4.107,3.605-8.281c1.059-1.975,3.478-4.02,2.797-4.736
		c0,0-0.76-0.99-1.746-2.123c-0.468-0.537-0.43-1.615-0.28-2.213c0.072-0.289,0.272-0.406,0.501-0.594
		c0.323-0.262,1.146-0.109,1.619-0.398c1.356-0.832,2.521-0.514,2.619-1.021c0.142-0.748,0.978-1.811,0.739-2.432
		c-0.054-0.141-0.235-1.315-0.205-1.76c0-1.1-2.136-1.594-2.88-1.623c-0.736-0.029-2.113,0.17-2.898,0.287
		c-1.328,0.201-2.753,0.314-2.961,0.007c-0.19-0.281-0.316-0.229-0.692-0.245c-1.739-0.071-3.212,0.036-4.717,0.121
		c-1.695,0.093-3.141,0.541-4.674,1.035c-0.524,0.17-1.989,0.802-3.268,1.496c-1.179,0.641-2.265,1.32-2.593,1.668
		c-0.323,0.34-0.674,0.986-0.438,1.167c0.441,0.337,3.992-3.33,10.601-2.944c0.851,0.049,2.074-0.926,2.06,0.014
		C48.592,67.096,47.87,68.15,46.546,68c-2.74-0.312-6.378,0.1-8.516,1.613c-0.524,0.371-1.982,1.273-2.746,1.369
		c-0.229,0.029-0.833,0.244-1.396,0.789c0.074,0.333,0.152,0.667,0.237,0.999c0.183-0.396,3.814-2.293,4.047-2.393
		c0.683-0.285,2.188-0.617,2.613,0.137c0.51,0.9-1.027,1.361-0.467,2.018c0.188,0.219,1.185-0.596,1.689-0.937
		c0.795-0.538,2.113-0.735,4.197-1.626c1.976-0.848,1.758,0.979,1.484,1.215c-0.595,0.518-2.147,0.715-2.908,0.868
		c-2.229,0.439-3.283,1.432-4.584,2.217c-0.447,0.271-0.972,0.705-1.345,1.066c-0.648,0.625-1.634,1.383-2.335,2.209
		c-0.263,0.27-0.398,0.572-0.513,0.699c0.115,0.262,0.233,0.523,0.353,0.781c0.047-0.168,0.289-0.166,0.782-0.254
		c0.448-0.082,1.768-1.83,2.207-2.143c0.799-0.568,1.235-1.383,2.13-0.986c1.092,0.486,0.896,1.457,0.371,2.348
		c-0.497,0.842-1.216,1.75-1.65,2.625c-0.46,0.924-0.729,1.67-0.823,2.271c-0.086,0.559-0.241,0.781-0.448,0.744
		c0.109,0.166,0.22,0.33,0.331,0.494c0.394-0.846,1.075-2.611,1.511-3.312c1.502-2.412,3.357-4.107,4.395-4.828
		c0.466-0.326,1.121-0.959,1.617-1.287c0.371-0.248,1.986-0.832,1.407,0.557c-0.102,0.246-2.498,1.713-3.904,3.045
		c-1.015,0.959-4.057,5.336-4.473,6.617c0.146,0.203,0.294,0.402,0.444,0.602c0.177-0.166,1.991-2.07,2.292-2.844
		c0.307-0.787,1.183-1.529,1.874-1.531c0.942-0.006,1.063,0.354,0.81,1.369c-0.113,0.457,0.009,0.787,0.172,0.975
		c1.391-1.303,3.329-3.816,3.122-3.555c-0.2,0.248,1.227-1.615,1.465-1.779c0.991-0.682,2.251-0.416,2.275,0.807
		c0.019,0.916-1.434,3.355-1.838,4.277c-0.567,1.295-1.277,2.676-1.931,3.99c-1.431,2.883-0.522,5.475-0.693,5.818
		C47.8,93.045,47.797,93.045,47.796,93.047z"/>
	<path fill="#FFFFFF" d="M90.135,60.122c0.531,0.012,2.101-0.202,2.906-0.233c1.218-0.047,1.291-0.217,0.826-0.448
		c-0.928-0.463-3.302-0.413-4.145-0.035C89.614,59.455,89.533,60.108,90.135,60.122z"/>
	<path fill="#FFFFFF" d="M102.242,86.396c-0.282-1.631-1.12-4.062-2.016-5.844c-0.643-1.273-1.751-2.791-1.764-4.252
		c-0.005-0.76,0.457-0.785-0.074-1.336c-0.383-0.4-1.686-0.885-2.167-1.104c-1.42-0.643-3.522-2.163-3.911-1.822
		c-0.396,0.344,2.011,2.928,3.262,3.982c3.101,2.607,4.756,7.139,5.021,7.961c0.26,0.807,0.561,2.348,0.396,4.061
		C101.417,87.51,101.833,86.963,102.242,86.396z"/>
	<path fill="#FFFFFF" d="M68.88,43.42c0.11,0.36,0.45,0.286,0.465-0.055c0.107-2.186-0.291-4.083-0.474-4.936c0,0,0,0,0-0.001
		c-0.359,0.008-0.718,0.02-1.076,0.035C68.36,39.766,67.974,40.432,68.88,43.42z"/>
	<path fill="#FFFFFF" d="M106.248,70.355c0.168,0.166-0.072,0.842,0.301,1.077c0.729,0.456,1.016-0.281,0.789-0.96
		c-0.074-0.227-0.771-1.008-0.931-1.137c-0.254-0.209-1.253-1.328-1.79-0.665C103.986,69.449,105.719,69.832,106.248,70.355z"/>
	<path fill="#FFFFFF" d="M104.307,66.99c0.086,0.018,0.163,0.041,0.236,0.066c0.378,0.131,0.633,0.315,1.066,0.039
		c-0.176-2.529-2.696-4.102-5.011-4.864c-4.627-1.524-6.921-1.071-10.57-0.559c-0.438,0.062-0.511,2.237-0.117,2.442
		c0.581,0.307,1.475,0.435,2.018,0.482c1.314,0.115,2.458,0.551,3.738,0.842c1.481,0.338,3.027,0.201,4.521,0.476
		C101.584,66.171,102.917,66.701,104.307,66.99z"/>
	<path fill="#FFFFFF" d="M101.919,77.469c-0.335-0.543-1.13-1.443-1.625-1.043c-0.438,0.355,1.35,3.123,2.099,3.77
		c0.297,0.254,0.604,0.086,0.333-0.162C101.337,78.771,102.29,78.084,101.919,77.469z"/>
	<path fill="#FFFFFF" d="M102.741,74.445c-0.28-0.812-0.878-1.516-1.422-2.186c-0.002-0.002-0.004-0.004-0.004-0.006
		c-0.648-0.805-1.343-1.937-2.208-2.525c-1.317-0.893-3.091-1.979-3.559-2.164c-1.006-0.399-4.228-1.591-5.825-1.673
		c-0.772-0.039-1.04,3.298-0.682,3.514c0.574,0.344,2.171,0.805,2.799,0.945c1.35,0.303,3.031,1.176,4.227,1.897
		c1.442,0.867,3.073,1.545,4.45,2.48c0.361,0.244,2.351,1.578,2.279,2.061C103.016,76.291,102.921,74.99,102.741,74.445z"/>
	<path fill="#FFFFFF" d="M70.215,40.596c0.02,0.406,0.095,2.282,0.368,2.909c0.079,0.18,0.727,0.229,0.782,0.05
		c0.7-2.213,0.273-3.781,0.648-5.106c-0.645-0.023-1.291-0.036-1.938-0.036c-0.036,0-0.074,0.001-0.11,0.001
		C70.135,39.257,70.181,39.972,70.215,40.596z"/>
	<path fill="#FFFFFF" d="M71.087,95.514c-0.027,0.994-0.145,2.141,0.125,2.352c0.392,0.305,0.631-0.418,1.054-0.98
		c1.674-2.229,2.944-6.227,3.191-9.496c0.08-1.068,0.536-4.074,0.199-6.082c-0.114-0.686-3.654-0.771-3.727-0.096
		c-0.19,1.768-0.151,3.902-0.086,5.316c0.145,3.176-0.662,5.916-0.756,8.98C71.087,95.508,71.087,95.512,71.087,95.514z"/>
	<path fill="#FFFFFF" d="M73.735,43.955c0.941-1.736,0.584-2.214,1.616-3.788c0.447-0.681,0.543-0.965,0.707-1.439
		c-0.878-0.09-1.758-0.162-2.644-0.214c-0.197,1.169-0.645,1.982-0.797,5.277C72.608,43.987,73.583,44.238,73.735,43.955z"/>
	<path fill="#FFFFFF" d="M83.876,95.762c0.167-4.697-1.001-10.361-4.117-15.182c-0.441-0.686-1.95-0.531-1.968,0.043
		c-0.076,0.191-0.067,0.67-0.087,0.844c-0.171,1.475-0.042,3.078,0.241,4.531c0.259,1.326,0.439,2.4,0.602,3.77
		c0.407,3.422,0.146,7.994,0.117,8.43c-0.028,0.467-0.057,0.824-0.446,0.818c-0.571-0.008-0.579-0.533-0.617-1.047
		c-0.049-0.68,0.346-3.803,0.069-7.199c-0.114-1.414-0.482-2.201-0.853-2.174c-0.417,0.031-0.482,1.473-0.858,2.902
		c-0.445,1.686-0.775,2.383-0.85,3.238c-0.046,0.551,0.026,0.875,0.229,0.91c0.413,0.088,0.434,0.613,0.476,1.053
		c0.061,0.643,0.354,0.469,0.418,1.133c0.152,1.535,0.021,2.311-0.314,2.516c-0.012,0.01-0.03,0.016-0.047,0.025
		c1.215-0.129,2.377-0.285,3.497-0.471c-0.174-0.957,0.905-1.666,1.015-3.146c0.027-0.326-0.66-3.771,0.623-3.879
		c0.938-0.078,0.947,0.514,1.578,1.646c0.725,1.305,1.09,3.242,1.149,4.463c0.338-0.088,0.673-0.18,1.003-0.275
		C84.489,98.432,83.852,96.494,83.876,95.762z"/>
	<path fill="#FFFFFF" d="M92.56,95.418c0.268-0.154,0.532-0.316,0.793-0.479c-0.267-0.088-0.246-0.498-0.348-1.061
		c-0.138-0.766-1.506-5.812-3.049-9.357c-0.551-1.268-2.17-4.758-3.627-5.979c-0.347-0.291-0.706,0.096-0.575,0.377
		c0.259,0.545,1.688,4.033,2.117,5.922c0.681,2.994,0.523,5.391,0.468,7.092c-0.027,0.889-0.105,1.963-0.373,2.82
		c-0.137,0.438-0.78,1.576-1.212,2.377c-0.245,0.396-0.52,0.324-0.684,0.629c-0.1,0.205,0.071,0.354,0.025,0.535
		c1.105-0.359,2.154-0.758,3.155-1.193c-0.388-0.193,0.105-0.926,0.229-2.932c0.062-0.967-0.44-3.488,0.903-3.391
		c1.035,0.076,1.307,3.055,1.782,3.719c0.306,0.428,0.458,0.547,0.4,0.906C92.566,95.41,92.562,95.414,92.56,95.418z"/>
	<path fill="#FFFFFF" d="M86.71,73.562c2.799,1.723,4.821,3.193,5.79,4.221c1.636,1.742,3.723,4.598,4.753,6.785
		c0.439,0.926,1.359,3.074,2,2.959c1.57-0.287-1.067-7.152-3.644-9.553c-0.621-0.58-1.922-1.77-2.546-2.619
		c-1.485-2.027-3.174-3.166-4.99-3.62C87.356,71.555,86.417,73.383,86.71,73.562z"/>
	<path fill="#FFFFFF" d="M81.501,98.107c-1.01,0.402-0.488,1.094-0.488,1.498c0.502-0.1,0.996-0.205,1.479-0.316
		C82.871,98.557,82.411,97.748,81.501,98.107z"/>
	<path fill="#FFFFFF" d="M83.068,43.549c0.363-0.489,1.746-2.771,2.022-3.304c0,0,0,0,0,0c-0.373-0.087-0.751-0.169-1.13-0.251
		c-0.14,0.485-0.806,2.044-1.251,3.507C82.525,44.102,82.711,44.027,83.068,43.549z"/>
	<path fill="#FFFFFF" d="M97.601,88.158c-0.384-0.635-1.178-2.586-3.329-6.02c-0.723-1.154-1.573-2.381-2.592-3.287
		c-0.769-0.686-5.005-4.07-5.867-3.754c-0.385,0.139-0.291,1.045-0.085,1.346c0.399,0.58,1.522,1.027,2.817,2.732
		c3.493,4.588,5.126,11.002,5.602,13.617c0.146,0.672,0.248,1.158,0.217,1.479c0.307-0.211,0.605-0.426,0.9-0.645
		c-0.388-0.846-0.72-1.875-0.822-3.039c-0.113-1.303-0.545-2.994,0.286-2.883c1.551,0.203,0.787,1.254,1.98,1.873
		c0.666,0.346,1.252,0.986,1.273,1.75c0.229-0.221,0.46-0.445,0.686-0.672C98.442,89.857,97.863,88.59,97.601,88.158z"/>
	<path fill="#FFFFFF" d="M83.711,48.998c1.74-0.995,4.717-5.208,5.389-7.731c-0.574-0.16-1.158-0.317-1.749-0.47
		c-2.141,2.688-4.624,5.479-5.285,6.671C81.919,47.728,83.225,49.276,83.711,48.998z"/>
	<path fill="#FFFFFF" d="M105.489,60.88c0.579-0.269,2.536,0.281,2.439,0.063c-0.061-0.131-0.157-0.267-0.281-0.398
		c-0.518-0.548-1.363-1.199-1.974-1.323c-1.16-0.232-3.122-0.019-4.3-0.127c-1.41-0.132-1.648-0.658-3.059-0.539
		c-0.935,0.08-1.943,0.275-2.136,0.857c-0.11,0.333,0.483,0.378,0.97,0.393c0.933,0.028,4.003,0.618,4.831,1.048
		c0.295,0.153,2.933,1.974,3.211,1.936C105.471,62.75,104.879,61.166,105.489,60.88z"/>
	<path fill="#FFFFFF" d="M97.842,52.019c3.066-1.003,7.295-1.137,7.115-1.326c-0.73-0.76-2.279-1.109-3.39-1.077
		c-2.342,0.065-4.466,0.566-6.626,1.478c-1.969,0.834-4.866,0.985-6.84,3.736c-0.256,0.358,0.505,1.812,0.773,1.67
		c0.656-0.344,2.157-1.39,2.762-1.824C93.279,53.503,95.951,52.638,97.842,52.019z"/>
	<path fill="#FFFFFF" d="M106.786,66.861c-0.232,0.147,0.075,0.334,0.573,0.932c0.302,0.363,0.654,0.436,0.67,0.215
		c0.065-0.986-0.712-2.008-1.207-2.044C106.451,65.939,107.037,66.699,106.786,66.861z"/>
	<path fill="#FFFFFF" d="M92.097,42.16c-0.446-0.141-0.901-0.281-1.363-0.419C90.056,43.191,90.015,44.246,92.097,42.16z"/>
	<path fill="#FFFFFF" d="M85.385,50.527c-0.286,0.597,0.498,2.055,1.071,1.84c2.803-1.051,6.4-6.203,9.258-8.947
		c0.009-0.01,0.022-0.019,0.035-0.028c-0.49-0.175-0.991-0.353-1.508-0.528C90.472,45.287,86.553,48.095,85.385,50.527z"/>
	<path fill="#FFFFFF" d="M91.575,50.67c0.547,0.604,6.069-2.199,6.894-2.988c0.904-0.863,0.022-2.787,0.556-3.05
		c-0.415-0.165-0.847-0.334-1.29-0.504c-1.284,0.892-3.342,2.55-4.437,3.649C92.386,48.692,91.122,50.169,91.575,50.67z"/>
	<path fill="#FFFFFF" d="M106.999,63.809c-0.081,0.567,0.766,0.384,0.889,0.102c0.122-0.283-0.241-0.505-0.233-0.741
		c0.015-0.532-0.281-0.679-0.623-0.499C106.184,63.117,107.076,63.261,106.999,63.809z"/>
	<path fill="#FFFFFF" d="M37.662,51.388c0.027-0.157-0.107-0.598-0.514-0.623c-0.269-0.016-0.771,0.361-1.024,0.381
		c-0.481,0.037-0.632-0.288-0.995-0.118c-0.212,0.098-0.266,0.366-0.131,0.539c0.191,0.246,1.354,0.198,1.898,0.334
		C37.506,52.053,37.602,51.736,37.662,51.388z"/>
	<path fill="#FFFFFF" d="M54.818,97.217c0.319-0.559,0.584-2.584-0.242-2.703c-0.396-0.059-1.038,1.186-1.07,2.133
		c0.427,0.221,0.855,0.432,1.287,0.637C54.798,97.26,54.806,97.238,54.818,97.217z"/>
	<path fill="#FFFFFF" d="M38.42,46.018c0.271,0.447-0.136,0.661,0.082,0.991c0.238,0.357,1.802-0.303,1.796-0.666
		c-0.008-0.471-0.906-0.524-1.034-0.622c-0.029-0.021-0.042-0.046-0.042-0.074c-0.281,0.125-0.552,0.246-0.809,0.364
		C38.415,46.015,38.418,46.016,38.42,46.018z"/>
	<path fill="#FFFFFF" d="M44.466,45.25c0.485,0.668,0.889,1.53,1.547,1.979c0.663,0.451,2.259,1.302,2.64,0.724
		c0.202-0.309-2.831-2.23-3.689-2.887c-0.759-0.581-1.545-0.932-1.541-1.157c-0.24,0.092-0.478,0.185-0.71,0.277
		C42.972,44.544,43.144,44.781,44.466,45.25z"/>
	<path fill="#FFFFFF" d="M57.319,97.232c0.413-0.457,0.554-1.285,0.659-1.611c0.468-1.443,0.642-2.889,1.353-4.236
		c0.775-1.467,1.897-2.846,2.117-4.537c0.122-0.945,0.787-1.465,1.257-2.402c0.565-1.127,1.145-1.818,2.299-3.604
		c0.264-0.408-0.065-0.598-1.075-1.012c-0.836-0.346-1.378-0.082-1.653,0.186c-1.22,1.191-2.624,4.043-3.419,5.693
		c-0.738,1.527-1.205,3.631-1.339,5.178c-0.091,1.031-0.141,2.037-0.28,3.062c-0.098,0.723-0.629,1.354-0.76,2.943
		c-0.032,0.389-0.027,0.818-0.117,1.088c0.128,0.057,0.257,0.109,0.385,0.162C56.739,97.924,56.952,97.641,57.319,97.232z"/>
	<path fill="#FFFFFF" d="M46.268,52.797c0.852,0.146,1.422,0.294,2.257,0.657c0.44,0.191,3.028,1.504,3.093,1.363
		c0.171-0.377-1.596-0.95-3.047-1.882c-1.397-0.898-8.233-3.005-8.391-2.618c-0.202,0.492-0.033,0.952,0.453,1.474
		c0.651,0.7,1.792,0.591,2.668,0.688C44.162,52.574,45.468,52.659,46.268,52.797z"/>
	<path fill="#FFFFFF" d="M53.777,52.978c-0.789-1.68-4.13-2.77-5.861-3.103c-2.943-0.567-6.962-2.623-7.837-1.834
		c-1.227,1.107,9.77,3.131,12.876,5.496C53.359,53.845,53.927,53.296,53.777,52.978z"/>
	<path fill="#FFFFFF" d="M59.409,77.723c-0.908,0.428-2.213,1.811-3.364,4.045c-1.326,2.574-3.782,9.596-3.925,10.545
		c-0.114,0.762-0.157,1.176,0.234,1.242c1.162,0.197,0.331-1.486,1.078-2.348c1.063-1.229,2.209,0.875,2.627-0.006
		c0.128-0.273,0.172-1.895,0.511-3.252c0.948-3.791,3.17-6.992,4.346-9.152C61.184,78.303,59.872,77.502,59.409,77.723z"/>
	<path fill="#FFFFFF" d="M69.806,96.27c-0.005-1.047,0.131-2.096,0.202-3.139c0.116-1.686,0.419-3.395,0.422-5.084
		c0-1.25-0.255-5.912-0.566-6.73c-0.06-0.154-0.719-0.199-0.736,0.061c-0.053,0.859-0.158,1.877-0.287,2.67
		c-0.209,1.277-0.474,2.465-0.841,3.686c-0.517,1.715-1.739,3.496-1.79,5.322c-0.024,0.875,0.04,1.525-0.009,2.332
		c-0.052,0.859-1.373,3.045-0.407,3.113c0.664,0.047,0.376-6.369,2.61-5.518c1.107,0.424,0.186,2.617,0.143,3.244
		c-0.042,0.611-0.125,1.725,0.051,2.746c0.082,0.471,0.577,1.496,0.108,1.783c0.558,0.016,1.111,0.016,1.659-0.006
		c0.023,0,0.048-0.002,0.073-0.004C69.842,100.033,69.807,96.535,69.806,96.27z"/>
	<path fill="#FFFFFF" d="M105.854,77.955c-0.241-1.402-0.803-3.535-1.124-4.508c-0.423-1.279-1.622-2.34-2.122-3.631
		c-0.487-1.275,0.397-1.807-1.188-2.383c-0.409-0.146-2.228-0.613-2.529,0c-0.227,0.465,0.825,0.943,1.086,1.156
		c0.9,0.736,1.683,1.618,2.43,2.509c0.791,0.947,1.513,1.714,1.634,3.007c0.111,1.197,0.506,2.025,0.612,2.416
		c0.19,0.684-0.051,1.287,0.028,1.963c0.106,0.865,0.444,1.531-0.06,2.318c-0.312,0.484-2.007,0.357-2.424,0.699
		c-0.349,0.289,0.524,2.221,1.362,2.971c0.801-1.236,1.568-2.535,2.315-3.902c0.256-0.469,0.495-0.939,0.722-1.41
		C106.447,79.191,105.956,78.557,105.854,77.955z"/>
	<path fill="#FFFFFF" d="M44.827,89.057L44.827,89.057c0.07-0.258,0.205-0.748,0.229-0.797c0.471-1.209,1.24-0.48,1.925-1.014
		c0.426-0.328,2.867-5.629,2.629-6.049c-0.566-0.992-3.528,3.223-4.453,4.949c-0.407,0.762-0.398,1.979-0.633,2.516
		c-0.139,0.314-0.486,0.742-0.811,0.832c0.33,0.33,0.665,0.654,1.006,0.969C44.632,89.979,44.723,89.43,44.827,89.057z"/>
	<path fill="#FFFFFF" d="M61.057,98.111c-0.107,0.041-0.207,1.041-0.203,1.436c0.291,0.08,0.581,0.156,0.871,0.229
		C61.555,99.111,61.53,97.939,61.057,98.111z"/>
	<path fill="#FFFFFF" d="M67.884,81.256c0.006-0.248-0.598-0.467-0.856-0.275c-1.663,1.24-3.487,9.643-3.453,12.543
		c0.014,1.047-0.271,2.584,0.696,3.164c0.431,0.258,0.672-3.039,1.071-5.084c0.391-2.004,1.144-3.848,1.468-5.914
		C66.897,85.125,67.855,82.688,67.884,81.256z"/>
	<path fill="#FFFFFF" d="M44.732,84.373c-0.186,0.018-0.372,0.244-0.431,0.305c-0.148,0.146-0.245,0.381-0.281,0.549
		c-0.049,0.232,0.12,0.412,0.414,0.309c0.321-0.195,0.254-0.35,0.354-0.504c0.156-0.246,0.266-0.354,0.268-0.414
		C45.061,84.445,44.859,84.359,44.732,84.373z"/>
	<path fill="#FFFFFF" d="M59.442,98.203c0,0,0-0.004,0.001-0.004c0.113-0.211,0.161-0.396,0.165-0.557
		c0.16-0.779,0.077-1.613-0.349-1.328c-0.302,0.203-0.731,0.922-0.814,1.219c-0.087,0.311,0.016,0.953-0.127,1.207
		c0.301,0.109,0.602,0.211,0.903,0.309C59.262,98.77,59.416,98.27,59.442,98.203z"/>
	<path fill="#FFFFFF" d="M62.756,100.02c0.636,0.139,1.27,0.258,1.9,0.357c-0.522-0.498-0.758-1.57-0.941-2.086
		c-0.001-0.004-0.001-0.008-0.003-0.012c-0.11-0.426-0.357-0.977-0.771-1.672c-0.543-0.908-0.484-1.996-0.557-3.051
		c-0.112-1.668,0.811-4.58,0.131-5.152c-0.221-0.186-1.27,1.855-1.481,2.402c-0.336,0.867-1.167,2.076-0.301,2.227
		c1.643,0.283,0.428,3.008,1.487,3.713c0.586,0.385,0.806,0.9,0.894,1.373l0,0C63.157,98.695,63.145,99.705,62.756,100.02z"/>
	<path fill="#FFFFFF" d="M34.453,68.99c0.075-0.217,0.441-0.408,0.412-0.703c0-0.062-0.089-0.163-0.148-0.163
		c-0.275-0.033-0.5,0.11-0.829,0.778c-0.113,0.229-0.306,0.281-0.491,0.195c0.055,0.377,0.117,0.754,0.182,1.13
		C33.825,70.077,34.191,69.744,34.453,68.99z"/>
	<path fill="#FFFFFF" d="M46.005,43.939c0.288,0.304,0.567,0.617,0.906,0.85c0.638,0.439,1.375,0.606,2.023,1.035
		c1.446,0.956,1.504,1.925,2.157,2.648c0.724,0.801,2.922,2.38,4.012,2.7c0.335,0.098,0.991-1.039,0.648-1.434
		c-0.957-1.098-4.339-3.544-5.281-4.41c-0.659-0.604-1.216-1.12-2.056-1.476c-0.411-0.175-1.874-0.667-2.057-1.021
		c-0.437,0.152-0.865,0.305-1.282,0.458C45.217,43.295,45.642,43.576,46.005,43.939z"/>
	<path fill="#FFFFFF" d="M60.358,42.079c0.43,0.237,1.358,2.991,2.042,3.153c0.126,0.031,0.698-0.21,0.692-0.398
		c-0.014-0.581-0.927-1.454-1.342-2.115c-0.377-0.602-1.34-2.179-1.728-3.438c-0.384,0.063-0.764,0.131-1.143,0.201
		C59.144,39.706,59.993,41.878,60.358,42.079z"/>
	<path fill="#FFFFFF" d="M34.955,53.991c0.274-0.133,1.082-0.543,1.034-0.776c-0.032-0.156-0.635-0.058-0.932-0.288
		c-0.413-0.317-1.141,0.649-0.991,1.088C34.166,54.304,34.659,54.133,34.955,53.991z"/>
	<path fill="#FFFFFF" d="M41.518,87.104c0.117,0.137,0.233,0.273,0.351,0.412C42.31,86.566,41.912,86.926,41.518,87.104z"/>
	<path fill="#FFFFFF" d="M62.742,40.949c0.433,0.774,1.541,3.002,1.823,3.309c0.205,0.219,1.082,0.023,1.046-0.26
		c-0.231-1.941-1.523-4.357-1.982-5.217c-0.718,0.081-1.43,0.171-2.136,0.274C62.016,39.817,62.598,40.692,62.742,40.949z"/>
	<path fill="#FFFFFF" d="M37.22,80.762c0.207,0.389,0.421,0.77,0.641,1.146c0.033-0.209,0.229-0.244,0.343-0.602
		C38.384,80.734,37.833,80.533,37.22,80.762z"/>
	<path fill="#FFFFFF" d="M36.372,76.434c0.011-0.191-0.649-0.273-1.103-0.006c0.089,0.236,0.179,0.473,0.272,0.705
		C35.653,76.939,36.34,76.979,36.372,76.434z"/>
	<path fill="#FFFFFF" d="M66.873,43.76c0.087,0.364,1.081,0.102,0.942-0.285c-1.17-3.287-0.458-3.197-1.232-4.899
		c-0.009-0.017-0.012-0.035-0.013-0.051c-0.536,0.034-1.067,0.074-1.599,0.122C65.753,39.948,66.409,41.829,66.873,43.76z"/>
	<path fill="#FFFFFF" d="M39.128,58.387c0.602-0.216,1.166-0.574,1.798-0.667c0.658-0.096,1.658-0.054,2.75-0.263
		c0.605-0.115,1.363-0.097,1.543-0.348c0.155-0.216,0.211-0.477-0.239-0.535c-0.435-0.056-2.24-0.104-2.642-0.065
		c-0.994,0.096-1.7-0.021-2.71,0.005c-1.369,0.033-2.109,0.89-2.396,1.659c-0.11,0.294-0.12,0.687,0.194,0.721
		C37.96,58.956,38.855,58.485,39.128,58.387z"/>
	<path fill="#FFFFFF" d="M52.09,57.386c0.15-0.647-0.876-1.155-1.365-1.348c-0.545-0.214-1.398-0.696-2.11-0.887
		c-1.07-0.286-2.231-1.017-4.196-1.254c-0.517-0.063-2.665-0.059-2.95-0.073c-1.184-0.068-2.415,0.115-3.694,0.226
		c-0.922,0.08-2.265,0.471-2.604,0.998c-0.09,0.139-0.008,0.414,0.513,0.299c1.5-0.327,2.604-0.435,3.877-0.582
		c0.662-0.077,1.578-0.035,2.271-0.052c1.146-0.031,1.902,0.133,3.042,0.306c1.753,0.267,3.345,0.667,4.841,1.78
		c0.229,0.171,0.948,0.75,1.29,0.801C51.438,57.666,51.887,57.684,52.09,57.386z"/>
	<path fill="#FFFFFF" d="M38.632,64.037c-0.485,0.383-0.851,0.787-1.388,1.119c-0.604,0.373-1.129,0.646-1.552,1.443
		c-0.05,0.094-0.059,0.322,0,0.412c0.149,0.147,0.207-0.057,0.295-0.149c0.179-0.175,0.583-0.597,1.01-0.82
		c0.462-0.243,1.596-0.897,1.959-1.093c0.763-0.411,1.24-0.758,1.976-1.125c1.061-0.53,2.027-0.852,3.04-1.014
		c0.512-0.082,3.311-0.533,4.159-0.594c0.623-0.045,1.251-0.036,1.875-0.064c0.341-0.017,1.159,0.08,1.45-0.143
		c0.162-0.125,0.308-0.754,0.311-1.29c0.004-0.866-0.477-0.787-1.157-1.064c-1.526-0.62-3.092-1.042-4.776-0.954
		c-1.594,0.084-3.191,0.191-4.767,0.445c-0.687,0.11-1.413,0.205-2.069,0.441c-0.44,0.158-2.91,1.049-2.773,1.677
		c0.132,0.562,3.738-0.14,3.531,1.842C39.714,63.488,38.89,63.833,38.632,64.037z"/>
	<path fill="#FFFFFF" d="M57.008,42.896c0.453,0.424,2.834,3.039,3.418,3.485c0.082,0.062,0.46-0.145,0.463-0.228
		c0.024-0.597-3.39-5.644-3.375-6.41c-0.86,0.174-1.707,0.361-2.538,0.558C55.601,40.706,56.732,42.639,57.008,42.896z"/>
	<path fill="#FFFFFF" d="M48.544,42.098c0.486,0.107,0.985,0.446,1.423,0.723c1.473,0.95,3.81,3.048,3.706,2.565
		c-0.084-0.393-1.434-2.076-2.964-3.797c-0.043-0.048-0.059-0.096-0.053-0.14C49.936,41.661,49.231,41.879,48.544,42.098z"/>
	<path fill="#FFFFFF" d="M54.261,43.808c0.873,1.083,1.9,2.021,2.855,3.028c0.316,0.333,0.751,0.992,1.245,1.146
		c0.355,0.111,1.035-0.513,0.949-0.754c-0.354-1.007-2.446-2.366-3.455-3.592c-0.338-0.412-1.228-1.284-1.539-1.709
		c-0.182-0.25-0.633-0.981-0.69-1.292c-0.583,0.149-1.159,0.302-1.725,0.459C52.749,41.652,53.781,43.211,54.261,43.808z"/>
</g>
<g>
	<g>
		<path fill="#FFFFFF" d="M3.023,110.404c-0.74,1.238-1.122,1.891-1.212,1.947c-0.235,0.121-0.444,0.092-0.621-0.088
			c-0.176-0.178-0.118-0.529,0.207-1.09l2.864-4.758l3.162-5.523c0.855-1.508,1.536-2.689,2.008-3.604
			c0.267-0.502,0.562-1.037,0.888-1.564c0.322-0.561,0.531-0.887,0.561-0.945c0.208-0.443,0.382-0.771,0.529-0.979
			c0.297-0.588,0.622-1.146,0.977-1.684c0.208-0.268,0.532-0.268,1.002,0c0.593,0.328,1.034,0.799,1.389,1.389
			c0.296,0.475,0.473,1.094,0.532,1.832c0,1.096-0.207,2.039-0.59,2.807c-0.443,0.857-1.036,1.656-1.802,2.363
			c-1.004,0.943-2.067,1.359-3.22,1.238c-1.035-0.086-1.653-0.086-1.833,0.029C7.778,101.775,6.152,104.646,3.023,110.404z
			 M10.405,96.814c-1.419,2.484-2.095,3.785-2.068,3.9c0.207,0.354,0.918,0.414,2.099,0.234c1.241-0.203,2.246-0.885,3.013-2.004
			c0.65-0.977,1.032-2.01,1.153-3.133c0.086-0.887-0.148-1.652-0.711-2.334c-0.412-0.471-0.768-0.623-1.122-0.471
			C12.652,93.037,11.854,94.307,10.405,96.814z"/>
		<path fill="#FFFFFF" d="M23.375,114.301c-0.061,0.211-0.384,2.662-1.005,7.385c-0.119,0.801-0.416,1.068-0.916,0.83
			c-0.148-0.059-0.208-0.416-0.177-1.004c0-0.146,0.089-0.652,0.236-1.477c0.177-0.945,0.297-1.654,0.324-2.068
			c0.148-1.092,0.355-2.217,0.621-3.338c0.119-0.531,0.296-1.594,0.562-3.223c0.412-2.066,0.591-3.102,0.53-3.129
			c-0.029-0.234-1.534,3.104-4.549,9.955c-0.707,1.447-1.092,2.186-1.18,2.244c-0.237,0.148-0.475,0.148-0.68-0.029
			c-0.208-0.176-0.179-0.59,0.148-1.242l2.866-5.465l2.982-6.555c0.412-0.889,1.034-2.248,1.802-4.078
			c0.266-0.59,0.531-1.211,0.855-1.828c0.326-0.65,0.501-1.008,0.534-1.096c0.206-0.504,0.382-0.885,0.5-1.123
			c0.268-0.678,0.591-1.33,0.975-1.949c0.18-0.324,0.532-0.355,1.093-0.09c0.678,0.326,1.241,0.799,1.656,1.42
			c0.354,0.504,0.621,1.184,0.766,1.977c0.089,1.217-0.059,2.277-0.413,3.16c-0.414,0.979-1.004,1.92-1.802,2.781
			c-0.976,1.002-2.097,1.506-3.369,1.562c-0.531,0-0.914,0.094-1.152,0.295C24.436,108.305,24.053,110.314,23.375,114.301z
			 M28.395,98.088c-0.148,0.086-0.914,1.537-2.243,4.398c-1.329,2.865-1.979,4.344-1.892,4.432c0.238,0.352,0.974,0.416,2.274,0.117
			c1.27-0.381,2.244-1.209,2.984-2.479c0.651-1.127,0.974-2.307,1.035-3.576c0.058-0.975-0.237-1.801-0.917-2.51
			C29.165,98.025,28.75,97.879,28.395,98.088z"/>
		<path fill="#FFFFFF" d="M44.082,124.494c-0.741,1.449-1.477,2.57-2.188,3.395c-0.59,0.65-1.094,1.096-1.536,1.305
			c-0.766,0.381-1.478,0.443-2.156,0.205c-0.799-0.322-1.329-0.975-1.596-2.008c-0.147-0.561-0.118-1.625,0.031-3.219
			c0.088-0.83,0.502-2.574,1.18-5.26c0.563-2.07,1.004-3.518,1.33-4.344c1.093-2.865,1.745-4.578,1.95-5.078
			c0.679-1.539,1.329-2.719,1.892-3.486c0.59-0.855,1.18-1.418,1.743-1.684c0.622-0.297,1.329-0.324,2.097-0.029
			c0.679,0.236,1.151,0.646,1.448,1.18c0.352,0.65,0.5,1.535,0.441,2.66c-0.09,2.068-0.236,3.424-0.355,4.076
			c-0.588,2.629-1.416,5.346-2.451,8.152C44.908,122.693,44.289,124.051,44.082,124.494z M40.742,113.15
			c-1.033,2.775-1.712,4.758-2.007,5.939c-0.501,1.949-0.826,3.457-0.975,4.49c-0.236,1.77-0.356,2.775-0.356,3.014
			c0.031,1.004,0.387,1.652,1.095,1.92c0.797,0.295,1.742-0.178,2.806-1.42c0.946-1.15,1.715-2.422,2.305-3.809
			c0.974-2.426,1.626-4.047,1.949-4.904c0.118-0.324,0.296-0.799,0.502-1.391c0.295-0.828,0.648-2.039,1.122-3.602
			c0.383-1.303,0.592-2.393,0.65-3.283c0.118-1.531,0.146-2.479,0.088-2.836c-0.207-1.148-0.65-1.857-1.36-2.121
			C44.908,104.527,42.958,107.186,40.742,113.15z"/>
		<path fill="#FFFFFF" d="M60.564,131.701c-0.384,0.77-0.945,1.449-1.625,1.949c-1.21,0.918-2.125,1.332-2.717,1.213
			c-0.561-0.09-0.796-0.383-0.68-0.855c0.059-0.211,0.293-0.326,0.739-0.412c0.649-0.094,1.212-0.297,1.685-0.59
			c1.122-0.715,1.86-2.104,2.185-4.172c0.059-0.381,0.176-1.123,0.355-2.184c0.176-1.092,0.325-2.041,0.442-2.777
			c0.502-3.041,0.829-5.139,0.946-6.291c0.648-6.377,0.827-9.66,0.59-9.867c-0.208-0.146-0.825-0.293-1.892-0.381
			c-0.146-0.033-0.265-0.09-0.322-0.209c-0.06-0.148-0.089-0.266-0.06-0.414c0.06-0.352,1.774-0.266,5.14,0.324
			c0.177,0.031,0.295,0.121,0.382,0.234c0.179,0.24,0.179,0.504-0.028,0.773c-0.118,0.148-0.473,0.148-1.064,0.029
			c-0.62-0.15-0.973-0.178-1.034-0.121c-0.088,0.064-0.175,0.594-0.234,1.539c0,0.115-0.148,1.684-0.473,4.666
			c-0.028,0.297-0.089,1.123-0.177,2.451c-0.088,1.359-0.208,2.689-0.354,3.986c-0.09,0.891-0.415,3.25-0.946,7.117
			C61.155,129.783,60.858,131.141,60.564,131.701z"/>
		<path fill="#FFFFFF" d="M80.71,134.303c1.773-0.295,2.659-0.209,2.659,0.297c0.061,0.264-1.39,0.557-4.342,0.824
			c-1.242,0.176-1.89,0.207-1.98,0.117c-0.085-0.061-0.207-0.799-0.353-2.213c-0.06-0.297-0.18-1.303-0.356-2.955
			c-0.205-1.859-0.353-3.133-0.414-3.752c-1.12-9.068-1.857-14.738-2.184-16.984c-0.326-1.594-0.12-2.451,0.592-2.57
			c1.418-0.236,2.39-0.355,2.893-0.355c0.092,0,0.297-0.027,0.649-0.061c0.357-0.027,0.65-0.061,0.83-0.086
			c0.678-0.029,0.973,0.119,0.912,0.441c-0.058,0.238-0.944,0.445-2.688,0.592c-1.624,0.148-2.391,0.418-2.329,0.797l0.616,5.791
			c0.505,3.074,0.826,4.699,0.918,4.873c0.03,0.117,0.856,0.031,2.45-0.324c0.237-0.031,0.444,0.15,0.68,0.504
			c0.238,0.355,0.207,0.531-0.06,0.561c-1.061,0.09-1.713,0.146-1.979,0.205c-0.65,0.176-0.942,0.414-0.915,0.711
			c0.652,6.996,1.033,10.781,1.093,11.342c0.179,1.42,0.415,2.246,0.648,2.395C78.316,134.627,79.174,134.568,80.71,134.303z"/>
		<path fill="#FFFFFF" d="M95.305,120.832c0.619,1.625,1.032,2.748,1.267,3.426c0.799,2.246,1.655,3.752,2.574,4.488
			c1.239,1.01,2.391,0.947,3.485-0.176c0.973-1.031,1.329-2.01,1.062-2.895c-0.178-0.561,0.121-0.736,0.857-0.533
			c0.476,0.236,0.476,1.064,0.027,2.516c-0.5,1.418-1.444,2.359-2.834,2.775c-1.299,0.414-2.479,0.029-3.572-1.092
			c-1.124-1.188-2.839-5.438-5.172-12.822c-1.036-3.309-1.447-6.055-1.239-8.242c0.056-0.797,0.41-1.506,1.003-2.125
			c0.707-0.74,1.595-1.068,2.63-0.975c1.151,0.088,2.008,0.561,2.569,1.357c0.444,0.65,0.591,1.121,0.413,1.416
			c-0.058,0.121-0.204,0.18-0.384,0.148c-0.204-0.027-0.354-0.115-0.384-0.326c-0.386-1.414-1.446-1.947-3.25-1.562
			c-1.184,0.379-1.801,1.33-1.831,2.775c-0.059,1.537,0.03,2.836,0.236,3.84c0.236,1.064,0.769,2.895,1.595,5.494
			C94.567,118.855,94.862,119.68,95.305,120.832z"/>
		<path fill="#FFFFFF" d="M121.063,124.584c-0.178,0.025-0.325-0.176-0.501-0.68c-0.327-0.887-0.473-1.27-0.416-1.15
			c-0.474-1.184-0.765-1.979-0.916-2.336c-0.118-0.266-0.296-0.707-0.529-1.359c-0.209-0.59-0.388-1.033-0.534-1.359
			c-0.059-0.117-0.353-0.857-0.914-2.244c-0.533-1.299-1.034-2.48-1.506-3.543c-0.476-1.035-1.007-2.188-1.567-3.518
			c-0.678-1.535-1.001-2.363-1.035-2.422l-1.418-3.514c-0.59-1.418-0.944-2.188-1.062-2.246c-0.115-0.148-0.913,0.176-2.361,0.916
			c-0.354,0.178-0.533,0-0.563-0.529c-0.027-0.24,0.975-0.742,2.985-1.479c1.33-0.59,2.273-1.006,2.746-1.182
			c0.414-0.182,0.649-0.148,0.74,0.059c0.119,0.295,0.089,0.533-0.15,0.648c-0.203,0.088-0.705,0.299-1.477,0.619
			c-0.413,0.18-0.649,0.328-0.736,0.443c-0.175,0.268,0.174,1.389,1.002,3.398c1.863,4.49,3.014,7.148,3.431,8.035
			c0.821,1.623,2.212,4.934,4.191,9.928c0.119,0.297,0.295,0.682,0.529,1.148c0.297,0.59,0.474,0.889,0.474,0.918
			c0.267,0.531,0.328,0.914,0.206,1.064C121.622,124.408,121.418,124.494,121.063,124.584z"/>
		<path fill="#FFFFFF" d="M139.021,108.336c0.594,1.186,0.888,2.541,0.917,4.107c0.032,1.477-0.471,2.539-1.566,3.189
			c-0.352,0.209-0.709,0.383-1.093,0.529c-0.857,0.326-1.39,0.27-1.595-0.115c-0.119-0.268-0.032-0.471,0.295-0.621
			c0.148-0.061,0.475-0.092,0.947-0.092c0.824-0.176,1.357-0.646,1.625-1.414c0.234-0.709,0.322-1.273,0.295-1.684
			c-0.18-1.445-0.533-2.658-0.976-3.605c-0.356-0.736-1.005-1.596-1.892-2.57c-0.797-0.855-1.624-1.592-2.454-2.217
			c-0.881-0.617-1.708-1.27-2.508-1.859c-1.981-1.477-3.426-3.07-4.315-4.842c-0.706-1.449-0.885-2.781-0.468-3.99
			c0.29-0.916,0.854-1.506,1.711-1.715c0.766-0.203,1.358-0.172,1.741,0.123c0.208,0.143,0.24,0.32,0.119,0.529
			c-0.059,0.088-0.265,0.117-0.62,0.059c-0.443-0.059-0.736-0.059-0.912-0.031c-0.565,0.148-0.977,0.652-1.245,1.537
			c-0.206,0.623,0,1.535,0.593,2.719c0.886,1.801,2.273,3.396,4.104,4.787c1.627,1.18,2.482,1.83,2.631,1.916
			c0.739,0.592,1.684,1.539,2.837,2.779C138.108,106.859,138.698,107.688,139.021,108.336z"/>
	</g>
	<g>
		<path fill="#FFFFFF" d="M24.23,45.534c-1.831-1.239-3.81-2.805-5.907-4.694c-3.929-3.456-5.91-5.141-5.998-5.08
			c-0.087,0.058,0.475,1.149,1.656,3.337c1.801,3.336,2.923,5.465,3.309,6.381c0.206,0.353,0.62,1.123,1.239,2.331
			c0.472,0.918,0.561,1.421,0.326,1.568c-0.326,0.174-0.768-0.266-1.359-1.333c-0.149-0.265-0.442-0.855-0.946-1.827
			c-0.5-1.037-1.034-2.042-1.536-3.015c-0.411-0.737-0.944-1.802-1.653-3.193c-0.649-1.266-1.005-2.035-1.122-2.246
			c-0.149-0.231-1.358-2.36-3.633-6.317c-2.245-3.901-3.425-5.938-3.516-6.085c-0.177-0.327-0.119-0.623,0.147-0.917
			c0.295-0.296,0.532-0.355,0.709-0.177c0.148,0.089,0.768,1.361,1.86,3.75c2.126,4.521,3.338,6.618,3.575,6.323
			c0.148-0.118,0.177-1.683,0.06-4.668c-0.06-0.795-0.089-1.74-0.148-2.806c-0.059-1.122-0.089-1.862-0.117-2.215
			c-0.087-2.245,0-3.457,0.266-3.603c0.325-0.176,0.591-0.088,0.798,0.234c0.058,0.18,0.087,0.563,0.058,1.211
			c-0.029,0.797-0.029,1.3-0.029,1.45c0,0.237,0,0.766,0,1.564c-0.029,0.795-0.029,1.297,0,1.477
			c0.059,4.872,0.208,7.415,0.385,7.62c0.205,0.358,2.067,2.069,5.552,5.083c1.182,1.036,2.689,2.157,4.461,3.396
			c1.506,1.036,2.333,1.655,2.48,1.831c0.325,0.414,0.325,0.741,0.03,1.006C25.086,46.009,24.733,45.89,24.23,45.534z"/>
		<path fill="#FFFFFF" d="M57.825,30.048c0.255,1.728,0.374,2.663,0.324,2.759c-0.12,0.308-0.347,0.417-0.646,0.391
			c-0.3-0.032-0.517-0.427-0.62-1.19l-0.877-6.681l-1.203-7.602c-0.318-2.077-0.592-3.713-0.798-4.91
			c-0.125-0.701-0.251-1.399-0.355-2.158c-0.104-0.792-0.177-1.231-0.185-1.319c-0.115-0.583-0.186-1.02-0.247-1.343
			c-0.195-0.782-0.298-1.542-0.345-2.341c-0.036-0.381,0.293-0.65,0.938-0.743c0.818-0.136,1.602-0.031,2.342,0.282
			c0.646,0.234,1.282,0.678,1.878,1.333c0.813,1.051,1.327,2.069,1.541,3.088c0.229,1.134,0.256,2.347,0.078,3.61
			c-0.228,1.627-0.946,2.822-2.115,3.588c-1.062,0.694-1.608,1.192-1.705,1.411C55.775,18.255,56.417,22.2,57.825,30.048z
			 M54.542,11.581c0.534,3.42,0.879,5.167,0.976,5.247c0.461,0.164,1.189-0.293,2.184-1.368c0.988-1.133,1.422-2.507,1.323-4.161
			c-0.105-1.416-0.524-2.681-1.261-3.857c-0.564-0.925-1.386-1.471-2.447-1.694c-0.725-0.139-1.216-0.002-1.416,0.401
			C53.768,6.311,54.002,8.127,54.542,11.581z"/>
		<path fill="#FFFFFF" d="M75.871,32.816c-0.177-0.056-0.206-0.351-0.088-0.884c0.177-0.947,0.265-1.359,0.237-1.21
			c0.236-1.3,0.385-2.157,0.442-2.542c0.06-0.295,0.148-0.768,0.265-1.476c0.12-0.623,0.209-1.121,0.267-1.506
			c0.03-0.119,0.147-0.946,0.414-2.482c0.235-1.419,0.415-2.745,0.562-3.929c0.119-1.153,0.293-2.48,0.502-3.928
			c0.232-1.714,0.354-2.628,0.384-2.687l0.65-3.841c0.233-1.596,0.323-2.453,0.267-2.571c-0.033-0.207-0.888-0.354-2.571-0.474
			c-0.384-0.026-0.475-0.293-0.208-0.765c0.089-0.238,1.242-0.119,3.428,0.323c1.506,0.207,2.537,0.327,3.068,0.442
			c0.475,0.06,0.682,0.239,0.626,0.443c-0.063,0.355-0.208,0.503-0.507,0.503c-0.237-0.029-0.769-0.117-1.625-0.265
			c-0.472-0.059-0.735-0.089-0.882-0.031c-0.296,0.148-0.593,1.331-0.949,3.548c-0.768,4.933-1.209,7.915-1.297,8.918
			c-0.151,1.86-0.682,5.525-1.627,10.989c-0.059,0.326-0.088,0.768-0.146,1.331c-0.059,0.676-0.089,1.034-0.089,1.062
			c-0.058,0.621-0.206,0.977-0.383,1.065C76.462,32.967,76.225,32.936,75.871,32.816z"/>
		<path fill="#FFFFFF" d="M100.588,32.249c-0.857,2.747-2.07,4.341-3.575,4.785c-0.682,0.177-1.476,0.116-2.391-0.179
			c-0.86-0.292-1.507-0.944-1.951-1.947c-0.355-0.887-0.532-1.979-0.503-3.308c0.059-1.24,0.442-2.955,1.122-5.143l2.895-8.445
			c0.53-1.536,1.123-3.188,1.745-4.963c0.176-0.505,0.385-1.064,0.588-1.683c0.179-0.505,0.296-0.771,0.296-0.828
			c0.06-0.149,0.146-0.444,0.267-0.858c0.12-0.443,0.209-0.74,0.264-0.886c0.148-0.475,0.417-0.621,0.739-0.442
			c0.386,0.146,0.505,0.471,0.386,0.913c0.059-0.146-0.177,0.505-0.681,1.95c-2.511,6.796-3.928,10.783-4.251,11.964
			c-1.063,3.605-1.595,5.434-1.595,5.466c-0.357,1.566-0.561,2.659-0.592,3.277c-0.061,1.035,0.06,1.831,0.35,2.394
			c0.448,0.859,0.949,1.387,1.539,1.534c0.771,0.208,1.388,0.148,1.862-0.174c0.856-0.592,1.654-1.687,2.365-3.251
			c0.264-0.62,0.737-1.98,1.388-4.016l0.735-2.188c0.739-2.364,1.3-4.046,1.687-5.08c0.237-0.65,0.735-2.038,1.476-4.253
			c1.035-3.396,1.594-5.228,1.687-5.495c0.146-0.533,0.441-0.741,0.854-0.592c0.295,0.12,0.442,0.358,0.381,0.772
			c-0.028,0.321-0.381,1.387-1.032,3.186c-0.296,0.83-1.001,2.748-2.069,5.791c-1.506,4.465-2.302,6.795-2.39,7.032L100.588,32.249z
			"/>
		<path fill="#FFFFFF" d="M116.461,38.469c-0.093,0.176-0.888,2.45-2.424,6.826c-0.266,0.735-0.592,0.915-1.006,0.587
			c-0.147-0.087-0.117-0.442,0-1.001c0.061-0.12,0.206-0.594,0.533-1.36c0.353-0.887,0.591-1.509,0.709-1.89
			c0.351-1.004,0.768-2.039,1.241-3.073c0.205-0.473,0.59-1.479,1.151-2.986c0.769-1.89,1.149-2.834,1.121-2.863
			c0.028-0.239-2.067,2.628-6.263,8.596c-0.943,1.241-1.477,1.892-1.565,1.92c-0.268,0.118-0.474,0.061-0.649-0.15
			c-0.18-0.207-0.059-0.59,0.382-1.149l3.785-4.64l4.104-5.67c0.589-0.769,1.417-1.951,2.51-3.518
			c0.358-0.503,0.736-1.032,1.153-1.566c0.439-0.56,0.681-0.884,0.706-0.913c0.3-0.443,0.532-0.769,0.712-1.006
			c0.385-0.592,0.827-1.151,1.3-1.653c0.236-0.266,0.559-0.237,1.063,0.12c0.591,0.441,1.002,1.002,1.271,1.682
			c0.232,0.563,0.352,1.241,0.321,2.039c-0.148,1.179-0.498,2.157-1.002,2.924c-0.591,0.859-1.332,1.624-2.245,2.301
			c-1.121,0.771-2.302,1.035-3.516,0.829c-0.501-0.118-0.888-0.118-1.15,0.06C118.676,32.975,117.907,34.806,116.461,38.469z
			 M124.494,24.054c-0.146,0.029-1.152,1.299-2.984,3.781c-1.832,2.455-2.747,3.754-2.686,3.841c0.145,0.383,0.854,0.561,2.125,0.53
			c1.272-0.115,2.363-0.739,3.309-1.802c0.826-0.943,1.42-2.008,1.715-3.161c0.264-0.915,0.116-1.77-0.355-2.539
			C125.233,24.142,124.876,23.934,124.494,24.054z"/>
		<path fill="#FFFFFF" d="M126.499,54.689c-0.121,0.147-0.208,0.235-0.297,0.267c-0.146,0.061-0.294,0.061-0.441-0.032
			c-0.324-0.173-0.415-0.321-0.269-0.502c1.094-1.09,1.922-2.388,2.513-3.839c0.03-0.203-0.234-0.59-0.856-1.151
			c-0.682-0.619-1.359-1.002-1.979-1.149c-0.267,0-0.561,0.147-0.889,0.471c-0.855,0.794-1.507,1.446-1.918,1.948
			c-0.501,0.77-0.829,1.124-0.947,1.093c-0.235-0.117-0.323-0.323-0.323-0.649c-0.029-0.146,0.77-1.006,2.362-2.601
			c0.268-0.295,1.005-1.091,2.185-2.363c1.152-1.269,2.039-2.186,2.63-2.778c0.267-0.234,1.358-1.389,3.309-3.396
			c0.475-0.473,0.828-0.829,1.064-1.032c0.235-0.207,0.531-0.443,0.857-0.709c0.798-0.649,1.273-0.889,1.447-0.771
			c0.207,0.147,0.235,0.503,0.089,1.065c-0.297,1.033-0.62,1.862-0.945,2.511c-1.005,2.158-1.566,3.306-1.685,3.486
			c-0.148,0.295-0.384,0.677-0.649,1.151c-0.504,0.886-0.916,1.623-1.24,2.217c-1.305,2.272-2.571,4.461-3.843,6.526L126.499,54.689
			z M132.373,43.258c1.508-2.833,2.071-4.312,1.718-4.461c-0.091-0.027-0.679,0.502-1.772,1.628
			c-0.119,0.115-0.531,0.498-1.21,1.151c-0.71,0.65-1.272,1.18-1.747,1.624c-0.47,0.47-1.092,1.12-1.885,1.979
			c-0.741,0.797-1.156,1.27-1.305,1.389c-0.558,0.531-0.768,0.887-0.588,1.033c1.858,1.448,2.894,2.07,3.069,1.861
			C129.717,48.016,130.931,45.947,132.373,43.258z"/>
		<g>
			<path fill="#FFFFFF" d="M35.251,34.963c0.294-0.387,1.69-1.848,3.159-2.365c1.532-0.54,3.16-0.473,4.313-0.327
				c-0.649-1.624-1.329-3.277-2.038-4.932c-0.355-0.856-0.827-1.95-1.39-3.277c-0.294-0.711-0.532-1.273-0.708-1.687
				c-0.119-0.264-0.916-1.888-2.422-4.845c-0.444-0.914-1.095-1.977-1.978-3.188c-0.474-0.651-0.888-0.917-1.243-0.798
				c-0.293,0.089-0.415,0.854-0.383,2.276c0,0.559,0.028,1.092,0.058,1.534c0.031,0.444,0.117,1.121,0.235,2.038
				c0.562,3.898,0.859,6.085,0.946,6.587c0.15,1.153,0.415,2.925,0.828,5.286C34.924,32.922,35.131,34.193,35.251,34.963z
				 M34.125,21.167c-0.117-1.303-0.207-2.069-0.207-2.335c-0.293-2.158-0.384-3.279-0.266-3.367
				c0.444-0.267,1.599,1.623,3.459,5.729c1.77,3.9,2.982,7.031,3.661,9.394c0.088,0.356-1.448,0.974-4.667,1.803
				c-0.326,0.088-0.533-0.414-0.621-1.507c-0.029-0.267-0.176-1.124-0.442-2.63c-0.265-1.594-0.445-2.833-0.562-3.777
				C34.332,23.617,34.246,22.525,34.125,21.167z"/>
		</g>
	</g>
</g>
</svg>
