<?xml version="1.0" encoding="utf-8"?>
<!-- Generator: Adobe Illustrator 16.0.0, SVG Export Plug-In . SVG Version: 6.00 Build 0)  -->
<!DOCTYPE svg PUBLIC "-//W3C//DTD SVG 1.1//EN" "http://www.w3.org/Graphics/SVG/1.1/DTD/svg11.dtd">
<svg version="1.1" id="Layer_1" xmlns="http://www.w3.org/2000/svg" xmlns:xlink="http://www.w3.org/1999/xlink" x="0px" y="0px"
	 width="141.732px" height="141.73px" viewBox="0 0 141.732 141.73" enable-background="new 0 0 141.732 141.73"
	 xml:space="preserve">
<g>
	<g>
		<path d="M35.505,76.448c0.452-0.269,1.114-0.185,1.103,0.006c-0.034,0.546-0.723,0.504-0.831,0.7
			c-0.184,0.336,0.347,1.227,0.459,1.105c0.115-0.125,0.25-0.43,0.512-0.696c0.701-0.826,1.686-1.584,2.333-2.207
			c0.372-0.359,0.895-0.796,1.342-1.063c1.298-0.784,2.352-1.775,4.575-2.214c0.76-0.151,2.31-0.349,2.902-0.864
			c0.273-0.237,0.491-2.059-1.481-1.215c-2.079,0.89-3.394,1.087-4.188,1.624c-0.503,0.342-1.498,1.156-1.686,0.935
			c-0.559-0.654,0.974-1.115,0.466-2.014c-0.425-0.752-1.928-0.42-2.608-0.136c-0.232,0.1-3.856,1.994-4.04,2.388
			C34.157,73.25,35.297,76.57,35.505,76.448z"/>
		<path d="M109.594,57.946c-0.337-2.204-1.203-9.788-3.501-10.825c-0.177-0.079-6.287-2.736-6.96-2.406
			c-0.534,0.262,0.348,2.182-0.554,3.045c-0.823,0.786-6.334,3.584-6.88,2.981c-0.453-0.501,0.809-1.976,1.718-2.887
			c1.096-1.097,3.145-2.752,4.428-3.642c0.209-0.145-1.615-1.093-2.017-0.708c-2.852,2.739-6.44,7.88-9.238,8.93
			c-0.572,0.213-1.354-1.241-1.069-1.837c1.167-2.427,5.076-5.23,8.838-7.647c0.404-0.26-1.779-1.065-2.138-0.703
			c-2.078,2.083-2.04,1.029-1.36-0.418c0.074-0.158-1.562-0.739-1.63-0.483c-0.661,2.516-3.642,6.732-5.379,7.726
			c-0.487,0.278-1.791-1.268-1.646-1.527c0.661-1.189,3.144-3.975,5.277-6.658c0.179-0.225-2.13-0.798-2.257-0.549
			c-0.275,0.533-1.655,2.809-2.02,3.297c-0.355,0.478-0.54,0.552-0.357-0.048c0.445-1.46,1.11-3.019,1.25-3.501
			c0.075-0.256-1.471-0.675-1.56-0.319c-0.289,1.14-0.895,5.217-2.398,6.204c-0.358,0.236-2.367-0.602-2.24-1.089
			c0.735-2.824,2.136-4.29,2.573-5.454c0.119-0.316-1.091-0.616-1.285-0.234c-0.81,1.587-1.801,2.945-2.735,4.958
			c-0.21,0.454-0.691,0.517-0.617-0.271c0.118-1.268,0.086-1.822,0.617-2.814c0.37-0.685,0.915-1.121,1.046-2.101
			c0.047-0.353-1.157-0.529-1.289-0.144c-0.161,0.474-0.256,0.758-0.703,1.437c-1.032,1.572-0.674,2.048-1.611,3.781
			c-0.155,0.284-1.127,0.032-1.118-0.164c0.154-3.304,0.604-4.106,0.8-5.281c0.081-0.498-1.287-0.441-1.391-0.086
			c-0.395,1.33,0.047,2.904-0.655,5.131c-0.058,0.18-0.703,0.131-0.781-0.05c-0.272-0.624-0.349-2.497-0.37-2.902
			c-0.032-0.624-0.077-1.336-0.247-2.179c-0.051-0.249-1.167-0.339-1.091,0.017c0.181,0.853,0.58,2.744,0.472,4.927
			c-0.016,0.339-0.354,0.414-0.463,0.053c-0.907-2.987-0.519-3.647-1.086-4.954c-0.119-0.274-1.372-0.238-1.208,0.12
			c0.775,1.699,0.064,1.609,1.231,4.889c0.138,0.387-0.854,0.648-0.941,0.285c-0.465-1.932-1.121-3.813-1.904-5.113
			c-0.163-0.271-1.531-0.224-1.337,0.138c0.456,0.853,1.75,3.269,1.983,5.213c0.033,0.281-0.841,0.478-1.045,0.257
			c-0.283-0.304-1.389-2.529-1.82-3.301c-0.143-0.256-0.725-1.13-1.248-1.892c-0.157-0.275-1.59-0.165-1.468,0.228
			c0.388,1.256,1.348,2.83,1.726,3.431c0.415,0.66,1.325,1.531,1.34,2.11c0.004,0.188-0.565,0.427-0.692,0.396
			c-0.682-0.161-1.609-2.91-2.036-3.146c-0.37-0.204-1.236-2.43-1.488-2.601c-0.392-0.265-1.343-0.033-1.35,0.27
			c-0.015,0.762,3.391,5.802,3.368,6.398c-0.002,0.082-0.381,0.289-0.462,0.228c-0.583-0.446-2.96-3.055-3.413-3.479
			c-0.273-0.257-1.404-2.187-2.026-2.589c-0.274-0.176-1.391,0.099-1.349,0.332c0.057,0.309,0.508,1.041,0.69,1.29
			c0.311,0.426,1.198,1.297,1.536,1.706c1.008,1.224,3.093,2.581,3.447,3.586c0.086,0.24-0.593,0.863-0.947,0.751
			c-0.493-0.152-0.927-0.81-1.242-1.143c-0.953-1.005-1.978-1.942-2.849-3.022c-0.479-0.596-1.511-2.153-2.355-2.71
			c-0.218-0.143-1.524,0.119-1.189,0.496c1.527,1.716,2.873,3.397,2.958,3.789c0.104,0.481-2.229-1.613-3.7-2.56
			c-0.436-0.277-0.935-0.616-1.42-0.722c-0.471-0.103-2.341,0.424-2.182,0.731c0.182,0.353,1.644,0.845,2.053,1.019
			c0.838,0.356,1.396,0.871,2.052,1.474c0.941,0.864,4.317,3.305,5.272,4.402c0.342,0.394-0.313,1.528-0.648,1.43
			c-1.088-0.318-3.28-1.894-4.004-2.695c-0.651-0.721-0.709-1.688-2.152-2.643c-0.648-0.428-1.384-0.593-2.02-1.032
			c-0.338-0.233-0.618-0.546-0.904-0.848c-0.363-0.363-0.788-0.644-0.929-0.65c-0.292-0.016-1.619,0.271-1.649,0.619
			c-0.005,0.225,0.779,0.576,1.539,1.155c0.857,0.656,3.883,2.574,3.681,2.881c-0.38,0.578-1.973-0.272-2.633-0.723
			c-0.657-0.447-1.059-1.308-1.545-1.974c-1.319-0.468-1.49-0.706-1.749-1.063c-0.175-0.244-3.926,1.167-3.443,1.534
			c0.128,0.097,1.025,0.15,1.032,0.621c0.006,0.361-1.555,1.021-1.792,0.663c-0.218-0.328,0.19-0.542-0.08-0.987
			c-0.152-0.251-2.609,0.541-3.564,1.529c-3.498,3.621-2.144,21.152-1.466,21.497c0.19,0.097,0.391,0.045,0.506-0.188
			c0.328-0.667,0.552-0.811,0.826-0.776c0.059,0,0.148,0.102,0.148,0.162c0.029,0.294-0.335,0.486-0.411,0.704
			c-0.262,0.752-0.627,1.084-0.872,1.235c-0.167,0.102,0.144,1.696,0.308,1.54c0.562-0.543,1.165-0.758,1.394-0.787
			c0.762-0.095,2.217-0.997,2.74-1.367c2.134-1.511,5.764-1.923,8.499-1.611c1.322,0.15,2.042-0.902,2.056-1.804
			c0.015-0.939-1.207,0.035-2.056-0.014c-6.595-0.386-10.138,3.274-10.579,2.938c-0.236-0.18,0.115-0.826,0.438-1.166
			c0.327-0.345,1.412-1.024,2.588-1.663c1.277-0.693,2.738-1.324,3.261-1.494c1.531-0.494,2.973-0.939,4.665-1.034
			c1.502-0.083,2.973-0.191,4.708-0.119c0.375,0.015,0.5-0.037,0.691,0.245c0.208,0.308,1.63,0.193,2.956-0.007
			c0.782-0.118,2.158-0.315,2.892-0.288c0.743,0.029,2.874,0.521,2.874,1.621c-0.029,0.442,0.151,1.615,0.206,1.755
			c0.238,0.62-0.596,1.68-0.738,2.427c-0.097,0.506-1.259,0.19-2.613,1.02c-0.472,0.289-1.293,0.137-1.616,0.399
			c-0.228,0.186-0.429,0.305-0.501,0.591c-0.149,0.597-0.187,1.673,0.28,2.21c0.983,1.13,1.742,2.117,1.742,2.117
			c0.679,0.715-1.733,2.757-2.791,4.729c-2.233,4.165-2.556,7.49-3.598,8.265c-0.265,0.196-0.337-0.759-1.111-0.439
			c-1,0.413-1.386,4.236-1.387,5.524c-0.001,0.496,4.565,3.244,4.582,2.777c0.031-0.945,0.671-2.185,1.066-2.128
			c0.827,0.119,0.562,2.14,0.242,2.696c-0.302,0.593,1.464,0.989,1.541,0.765c0.09-0.27,0.084-0.697,0.117-1.087
			c0.13-1.586,0.661-2.216,0.758-2.938c0.139-1.024,0.189-2.026,0.278-3.056c0.135-1.543,0.602-3.644,1.338-5.169
			c0.794-1.647,2.194-4.492,3.412-5.682c0.275-0.268,0.815-0.531,1.65-0.186c1.007,0.413,1.336,0.601,1.073,1.008
			c-1.152,1.782-1.731,2.471-2.295,3.598c-0.47,0.936-1.134,1.454-1.255,2.397c-0.22,1.692-1.34,3.065-2.114,4.528
			c-0.709,1.344-0.882,2.788-1.349,4.23c-0.106,0.325-0.246,1.149-0.658,1.608c-0.367,0.406-0.58,0.69-0.572,0.906
			c0.011,0.322,1.424,0.85,1.567,0.598c0.144-0.251,0.041-0.896,0.128-1.209c0.083-0.293,0.509-1.01,0.811-1.213
			c0.427-0.286,0.509,0.548,0.349,1.326c-0.003,0.158-0.05,0.343-0.164,0.557c0,0.001-0.001,0.001-0.001,0.001
			c-0.027,0.067-0.18,0.571-0.223,0.848c-0.041,0.275,1.634,0.688,1.632,0.493c-0.004-0.392,0.096-1.39,0.203-1.43
			c0.471-0.175,0.496,0.999,0.667,1.66c0.058,0.226,0.918,0.329,1.027,0.242c0.389-0.311,0.401-1.319,0.359-1.896l0,0
			c-0.086-0.471-0.307-0.985-0.892-1.372c-1.057-0.699,0.156-3.422-1.483-3.703c-0.865-0.148-0.036-1.357,0.298-2.221
			c0.213-0.548,1.259-2.584,1.48-2.397c0.677,0.569-0.244,3.476-0.131,5.14c0.071,1.052,0.013,2.137,0.554,3.044
			c0.414,0.694,0.661,1.244,0.769,1.671c0.001,0.001,0.003,0.005,0.004,0.01c0.184,0.517,0.417,1.589,0.941,2.085
			c0.233,0.222,3.724,0.56,4.031,0.384c0.486-0.279-0.017-1.314-0.098-1.788c-0.176-1.021-0.094-2.129-0.053-2.742
			c0.043-0.624,0.963-2.813-0.142-3.236c-2.23-0.849-1.943,5.555-2.604,5.508c-0.964-0.068,0.354-2.25,0.406-3.109
			c0.048-0.806-0.015-1.455,0.009-2.327c0.05-1.819,1.271-3.6,1.786-5.312c0.366-1.217,0.63-2.403,0.839-3.677
			c0.13-0.791,0.232-1.808,0.288-2.665c0.016-0.26,0.674-0.217,0.733-0.059c0.311,0.814,0.565,5.469,0.565,6.717
			c-0.004,1.684-0.306,3.39-0.421,5.074c-0.072,1.039-0.208,2.086-0.203,3.13c0.002,0.267,0.038,3.819,0.647,4.488
			c0.421,0.465,4.769,0,5.452-0.418c0.335-0.203,0.465-0.978,0.314-2.51c-0.064-0.662-0.357-0.491-0.417-1.129
			c-0.043-0.44-0.062-0.966-0.478-1.052c-0.2-0.036-0.272-0.362-0.225-0.909c0.073-0.856,0.402-1.551,0.847-3.23
			c0.376-1.43,0.44-2.868,0.854-2.897c0.373-0.025,0.74,0.759,0.854,2.168c0.275,3.392-0.118,6.508-0.068,7.188
			c0.036,0.514,0.044,1.034,0.614,1.044c0.388,0.006,0.416-0.354,0.445-0.813c0.026-0.438,0.289-5.001-0.116-8.417
			c-0.164-1.368-0.342-2.437-0.602-3.764c-0.282-1.449-0.413-3.051-0.242-4.521c0.021-0.173,0.015-0.652,0.088-0.846
			c0.018-0.57,1.522-0.723,1.966-0.039c3.107,4.81,4.276,10.463,4.108,15.151c-0.026,0.73,0.612,2.668,0.858,2.945
			c0.221,0.248,1.293-0.181,1.356-0.413c0.049-0.182-0.126-0.33-0.027-0.536c0.169-0.307,0.438-0.234,0.682-0.629
			c0.434-0.799,1.075-1.938,1.212-2.376c0.267-0.854,0.345-1.924,0.373-2.812c0.054-1.697,0.213-4.092-0.469-7.077
			c-0.43-1.886-1.854-5.367-2.111-5.913c-0.134-0.278,0.227-0.665,0.572-0.373c1.457,1.218,3.069,4.7,3.621,5.965
			c1.539,3.537,2.906,8.577,3.043,9.339c0.105,0.576,0.078,0.996,0.366,1.067c0.281,0.069,0.969-0.446,0.99-0.674
			c0.03-0.317-0.072-0.806-0.217-1.476c-0.476-2.61-2.106-9.012-5.591-13.592c-1.293-1.702-2.415-2.148-2.81-2.727
			c-0.208-0.301-0.301-1.205,0.081-1.344c0.861-0.313,5.09,3.063,5.856,3.746c1.014,0.906,1.865,2.129,2.59,3.28
			c2.145,3.429,2.937,5.377,3.319,6.008c0.26,0.43,0.839,1.697,1.062,2.494c0.135,0.469,2.272-2.135,2.318-2.606
			c0.165-1.709-0.138-3.248-0.396-4.055c-0.262-0.821-1.916-5.342-5.009-7.946c-1.248-1.05-3.652-3.628-3.256-3.974
			c0.387-0.337,2.487,1.176,3.904,1.817c0.481,0.219,1.78,0.702,2.163,1.103c0.529,0.553,0.066,0.576,0.072,1.334
			c0.014,1.456,1.119,2.972,1.76,4.244c0.896,1.78,1.732,4.205,2.012,5.834c0.084,0.482,1.636-1.64,1.317-1.924
			c-0.838-0.747-1.709-2.676-1.36-2.962c0.416-0.343,2.107-0.214,2.418-0.7c0.502-0.784,0.165-1.448,0.061-2.312
			c-0.082-0.676,0.16-1.277-0.029-1.961c-0.108-0.391-0.5-1.217-0.611-2.409c-0.121-1.291-0.842-2.056-1.631-3.001
			c-0.745-0.89-1.526-1.77-2.425-2.504c-0.259-0.212-1.31-0.69-1.082-1.155c0.299-0.612,2.115-0.146,2.523,0.001
			c1.582,0.575,0.7,1.105,1.185,2.377c0.499,1.29,1.695,2.349,2.119,3.624c0.32,0.97,0.881,3.1,1.121,4.5
			c0.104,0.601,0.592,1.234,0.742,1.202c0.886-0.195,2.707-8.089,2.851-8.95C110.216,66.17,110.214,62.008,109.594,57.946z
			 M35.366,51.1c0.362-0.17,0.513,0.154,0.993,0.117c0.253-0.019,0.755-0.396,1.023-0.381c0.404,0.025,0.539,0.465,0.512,0.621
			c-0.06,0.348-0.156,0.665-0.763,0.512c-0.544-0.135-1.705-0.088-1.896-0.332C35.102,51.465,35.155,51.199,35.366,51.1z
			 M35.192,54.056c-0.294,0.142-0.788,0.312-0.887,0.024c-0.149-0.438,0.577-1.404,0.988-1.085c0.297,0.229,0.899,0.131,0.931,0.287
			C36.273,53.514,35.466,53.923,35.192,54.056z M51.66,62.057c-0.291,0.223-1.106,0.127-1.447,0.143
			c-0.623,0.029-1.249,0.019-1.87,0.063c-0.847,0.062-3.64,0.511-4.151,0.593c-1.011,0.163-1.975,0.483-3.034,1.012
			c-0.735,0.367-1.211,0.714-1.972,1.123c-0.363,0.195-1.493,0.849-1.955,1.091c-0.427,0.223-0.83,0.644-1.008,0.819
			c-0.087,0.092-0.146,0.294-0.294,0.148c-0.059-0.088-0.05-0.317,0-0.411c0.422-0.794,0.946-1.069,1.549-1.44
			c0.537-0.331,0.902-0.734,1.386-1.116c0.257-0.202,1.081-0.549,1.121-0.929c0.206-1.979-3.393-1.277-3.524-1.839
			c-0.138-0.627,2.327-1.515,2.767-1.674c0.655-0.235,1.38-0.329,2.065-0.44c1.574-0.253,3.167-0.36,4.758-0.444
			c1.681-0.09,3.243,0.332,4.767,0.953c0.679,0.276,1.158,0.197,1.153,1.062C51.967,61.304,51.822,61.933,51.66,62.057z
			 M37.466,58.23c0.286-0.766,1.025-1.622,2.391-1.655c1.008-0.026,1.714,0.09,2.706-0.006c0.401-0.039,2.202,0.011,2.636,0.066
			c0.449,0.057,0.394,0.317,0.239,0.534c-0.18,0.251-0.937,0.232-1.54,0.347c-1.09,0.208-2.09,0.167-2.745,0.262
			c-0.632,0.092-1.194,0.449-1.794,0.666c-0.273,0.098-1.167,0.567-1.7,0.508C37.345,58.915,37.354,58.524,37.466,58.23z
			 M52.294,57.443c-0.203,0.298-0.65,0.28-1.085,0.216c-0.341-0.052-1.059-0.632-1.288-0.802c-1.491-1.109-3.081-1.509-4.831-1.774
			c-1.136-0.173-1.892-0.336-3.035-0.307c-0.691,0.018-1.605-0.025-2.267,0.052c-1.269,0.147-2.371,0.254-3.868,0.581
			c-0.521,0.114-0.602-0.161-0.512-0.299c0.338-0.526,1.678-0.917,2.598-0.996c1.277-0.109,2.506-0.292,3.688-0.225
			c0.284,0.014,2.429,0.011,2.944,0.072c1.961,0.238,3.12,0.968,4.187,1.253c0.711,0.189,1.564,0.673,2.106,0.885
			C51.419,56.292,52.443,56.8,52.294,57.443z M40.407,50.388c0.158-0.386,6.979,1.717,8.375,2.613
			c1.448,0.93,3.209,1.502,3.04,1.878c-0.064,0.142-2.647-1.169-3.086-1.359c-0.833-0.361-1.403-0.509-2.253-0.655
			c-0.798-0.137-2.102-0.223-2.96-0.318c-0.875-0.097-2.013,0.011-2.663-0.687C40.375,51.337,40.207,50.88,40.407,50.388z
			 M53.157,53.603c-3.1-2.36-14.074-4.38-12.85-5.485c0.873-0.787,4.885,1.265,7.821,1.83c1.728,0.333,5.063,1.421,5.849,3.097
			C54.127,53.362,53.56,53.91,53.157,53.603z M56.764,87.948c-0.338,1.353-0.381,2.972-0.51,3.244
			c-0.417,0.879-1.561-1.218-2.622,0.006c-0.746,0.859,0.083,2.54-1.077,2.342c-0.391-0.065-0.348-0.479-0.233-1.238
			c0.143-0.949,2.594-7.955,3.917-10.524c1.148-2.23,2.45-3.609,3.357-4.038c0.463-0.221,1.773,0.578,1.504,1.072
			C59.928,80.968,57.711,84.161,56.764,87.948z M66.983,85.689c-0.323,2.062-1.075,3.905-1.465,5.906
			c-0.398,2.041-0.638,5.33-1.067,5.072c-0.967-0.577-0.682-2.114-0.696-3.16c-0.033-2.894,1.787-11.279,3.446-12.515
			c0.258-0.192,0.861,0.025,0.855,0.274C68.029,82.695,67.071,85.129,66.983,85.689z M73.724,99.056
			c-0.312,0.558-0.449,1.397-1.6,1.35c-0.386-0.015,0.106-0.719,0.46-1.236c0.263-0.384,0.384-0.822,0.771-1.141
			c0.23-0.184,0.608-0.552,0.774-0.318C74.336,98.004,73.907,98.733,73.724,99.056z M75.613,87.387
			c-0.247,3.264-1.514,7.253-3.185,9.481c-0.42,0.561-0.66,1.278-1.051,0.975c-0.27-0.211-0.152-1.354-0.125-2.346
			c0-0.004,0-0.006,0-0.008c0.096-3.058,0.898-5.792,0.755-8.96c-0.064-1.414-0.105-3.543,0.087-5.309
			c0.072-0.674,3.604-0.589,3.718,0.097C76.147,83.32,75.695,86.322,75.613,87.387z M77.004,62.021
			c-0.4,0.698-1.081,1.887-1.591,1.476c-0.094-0.074-0.171-0.197-0.227-0.379c-0.128-0.413,0.746-1.405,0.815-1.902
			c0.166-1.16,0.346-2.988,0.104-4.131c-0.294-1.382-0.862-3.642,0.866-3.208c0.733,0.185,1.358,2.394,1.477,3.123
			C78.718,58.627,77.825,60.59,77.004,62.021z M86.815,85.02c0.495,2.45,0.409,6.182,0.128,7.153
			c-0.225,0.771-0.1,1.218-0.111,2.162c-0.015,1.213-0.873,2.195-1.084,2.119c-0.849-0.307-0.836-5.347-1.243-7.744
			c-0.629-3.688-2.822-7.126-3.416-8.798c-0.149-0.419,0.472-0.804,1.277-1.371c2.298-1.614,2.093-0.128,2.665,1.483
			C85.363,80.965,86.59,83.913,86.815,85.02z M107.503,56.242c0.186,0.284,0.265,0.881,0.036,1.028
			c-0.434,0.279-4.951-1.679-5.594-1.813c-1.671-0.347-3.204-0.039-4.873,0.216c-2.763,0.422-5.767,2.368-6.09,1.663
			c-0.19-0.417,1.385-1.243,2.087-1.624c1.991-1.083,4.47-2.108,6.975-2.681c0.781-0.178,1.888-0.217,2.067-0.221
			c0.936-0.016,1.455,0.752,2.028,1.357c0.438,0.464,1.006,0.764,1.588,1.046C106.348,55.513,107.127,55.665,107.503,56.242z
			 M102.062,57.097c0.196,0.422,0.261,0.536-0.805,0.402c-0.914-0.116-1.021-0.365-0.734-0.509c0.334-0.167,0.561-0.306,0.709-0.304
			C101.378,56.688,101.904,56.762,102.062,57.097z M88.233,54.894c1.968-2.746,4.861-2.895,6.826-3.728
			c2.156-0.911,4.275-1.411,6.613-1.477c1.106-0.031,2.653,0.317,3.383,1.076c0.18,0.188-4.042,0.323-7.102,1.324
			c-1.888,0.618-4.555,1.48-6.191,2.652c-0.603,0.432-2.104,1.477-2.759,1.82C88.736,56.702,87.975,55.252,88.233,54.894z
			 M90.26,60.174c-0.602-0.013-0.52-0.667-0.41-0.715c0.841-0.377,3.212-0.426,4.138,0.036c0.461,0.23,0.389,0.399-0.827,0.447
			C92.358,59.974,90.792,60.187,90.26,60.174z M93.185,75.378c0.622,0.849,1.922,2.035,2.542,2.613
			c2.569,2.396,5.2,9.247,3.635,9.532c-0.64,0.119-1.559-2.027-1.996-2.952c-1.029-2.181-3.111-5.032-4.743-6.771
			c-0.967-1.025-2.987-2.494-5.777-4.211c-0.293-0.182,0.644-2.005,1.358-1.825C90.015,72.217,91.704,73.353,93.185,75.378z
			 M102.496,80.208c-0.747-0.647-2.532-3.408-2.095-3.762c0.493-0.399,1.286,0.498,1.621,1.04c0.37,0.615-0.58,1.298,0.805,2.56
			C103.098,80.295,102.791,80.461,102.496,80.208z M99.216,69.763c0.862,0.587,1.555,1.717,2.202,2.52
			c0.002,0.002,0.004,0.004,0.006,0.007c0.543,0.667,1.138,1.369,1.415,2.182c0.184,0.544,0.279,1.841,0.06,2.339
			c0.068-0.482-1.915-1.812-2.274-2.057c-1.378-0.935-3.005-1.611-4.442-2.478c-1.193-0.718-2.873-1.589-4.221-1.892
			c-0.626-0.141-2.219-0.601-2.791-0.945c-0.357-0.214-0.091-3.545,0.68-3.506c1.596,0.082,4.81,1.27,5.814,1.669
			C96.131,67.787,97.899,68.872,99.216,69.763z M100.294,65.957c-1.491-0.274-3.032-0.14-4.512-0.476
			c-1.279-0.291-2.418-0.724-3.729-0.84c-0.544-0.047-1.433-0.175-2.016-0.48c-0.392-0.207-0.318-2.377,0.116-2.439
			c3.644-0.51,5.934-0.963,10.549,0.558c2.312,0.761,4.826,2.331,5.001,4.854c-0.432,0.276-0.685,0.092-1.064-0.038
			c-0.071-0.025-0.148-0.048-0.235-0.067C103.016,66.739,101.687,66.212,100.294,65.957z M106.646,71.463
			c-0.375-0.234-0.138-0.911-0.303-1.075c-0.527-0.522-2.26-0.905-1.629-1.682c0.536-0.661,1.534,0.456,1.789,0.663
			c0.155,0.128,0.85,0.909,0.927,1.136C107.656,71.182,107.37,71.919,106.646,71.463z M108.119,68.045
			c-0.014,0.22-0.368,0.147-0.669-0.215c-0.494-0.598-0.802-0.782-0.569-0.931c0.248-0.161-0.336-0.921,0.033-0.895
			C107.411,66.042,108.185,67.061,108.119,68.045z M107.978,63.955c-0.123,0.281-0.968,0.466-0.887-0.1
			c0.075-0.548-0.811-0.692,0.032-1.137c0.34-0.181,0.635-0.033,0.622,0.499C107.738,63.452,108.101,63.673,107.978,63.955z
			 M105.583,60.932c-0.609,0.284-0.017,1.866-0.296,1.905c-0.278,0.04-2.911-1.778-3.204-1.931c-0.828-0.43-3.89-1.02-4.823-1.047
			c-0.486-0.014-1.078-0.06-0.967-0.392c0.193-0.581,1.198-0.776,2.13-0.855c1.408-0.119,1.646,0.405,3.055,0.537
			c1.176,0.11,3.133-0.103,4.29,0.128c0.61,0.124,1.454,0.772,1.972,1.321c0.123,0.131,0.221,0.266,0.279,0.397
			C108.116,61.213,106.164,60.663,105.583,60.932z"/>
		<path d="M46.993,74.716c-0.495,0.33-1.149,0.965-1.615,1.288c-1.035,0.718-2.886,2.412-4.385,4.819
			c-0.438,0.7-1.117,2.464-1.509,3.307c-0.061,0.134,0.454,1.092,0.553,0.788c0.415-1.279,3.451-5.647,4.464-6.605
			c1.403-1.328,3.795-2.792,3.896-3.037C48.974,73.889,47.362,74.474,46.993,74.716z"/>
		<path d="M52.466,78.973c-0.024-1.221-1.282-1.487-2.271-0.805c-0.238,0.164-1.661,2.022-1.462,1.774
			c0.207-0.261-1.727,2.249-3.115,3.548c-0.163-0.188-0.285-0.518-0.172-0.97c0.253-1.014,0.132-1.374-0.808-1.37
			c-0.69,0.004-1.564,0.743-1.87,1.53c-0.301,0.771-2.113,2.674-2.288,2.838c-0.07,0.104,0.953,1.72,1.261,1.583
			c0.394-0.175,0.793-0.537,0.353,0.414c-0.099,0.213,1.582,2.043,1.839,1.974c0.325-0.089,0.673-0.516,0.812-0.83
			c0.234-0.537,0.226-1.752,0.632-2.511c0.922-1.723,3.878-5.931,4.443-4.939c0.238,0.418-2.199,5.707-2.623,6.037
			c-0.684,0.529-1.452-0.195-1.921,1.013c-0.024,0.045-0.159,0.536-0.229,0.793l0,0c-0.104,0.373-0.194,0.923-0.106,1.408
			c0.107,0.596,2.919,2.886,3.074,2.571c0.17-0.343-0.737-2.929,0.691-5.807c0.653-1.315,1.362-2.692,1.927-3.981
			C51.034,82.322,52.484,79.884,52.466,78.973z M45.007,85.033c-0.1,0.156-0.033,0.311-0.353,0.502
			c-0.293,0.107-0.462-0.073-0.413-0.307c0.036-0.166,0.132-0.4,0.281-0.547c0.058-0.062,0.244-0.286,0.429-0.304
			c0.126-0.013,0.329,0.071,0.324,0.242C45.273,84.682,45.163,84.79,45.007,85.033z"/>
		<path d="M37.454,80.772c0.611-0.228,1.162-0.026,0.981,0.545c-0.114,0.36-0.312,0.392-0.344,0.603
			c-0.073,0.494,0.605,1.572,1.025,1.705c0.226,0.072,0.395-0.143,0.486-0.731c0.093-0.603,0.361-1.344,0.82-2.269
			c0.434-0.873,1.151-1.779,1.646-2.62c0.524-0.889,0.72-1.857-0.37-2.342c-0.894-0.398-1.329,0.415-2.126,0.982
			c-0.438,0.314-1.754,2.059-2.201,2.139c-0.496,0.09-0.737,0.086-0.784,0.257C36.499,79.373,37.019,80.934,37.454,80.772z"/>
		<path d="M81.158,99.582c0.002-0.403-0.523-1.096,0.487-1.497c0.907-0.36,1.368,0.45,0.988,1.181
			c-0.122,0.234,1.2,0.057,1.24-0.303c-0.061-1.217-0.424-3.155-1.147-4.454c-0.628-1.13-0.64-1.722-1.576-1.643
			c-1.28,0.105-0.595,3.542-0.619,3.871c-0.11,1.478-1.189,2.186-1.015,3.142C79.568,100.163,81.158,99.829,81.158,99.582z"/>
	</g>
	<path d="M92.69,95.387c0.054-0.357-0.096-0.477-0.402-0.903c-0.476-0.665-0.746-3.636-1.779-3.711
		c-1.34-0.1-0.841,2.418-0.899,3.386c-0.125,2.048-0.642,2.768-0.203,2.937C89.875,97.277,92.609,95.891,92.69,95.387z"/>
	<path d="M98.092,91.319c-0.019-0.762-0.604-1.399-1.27-1.745c-1.192-0.617-0.43-1.669-1.977-1.871
		c-0.829-0.11-0.399,1.575-0.285,2.878c0.101,1.162,0.434,2.189,0.82,3.033C95.542,93.966,98.11,92.051,98.092,91.319z"/>
</g>
<g>
	<g>
		<path d="M3.324,110.357c-0.738,1.238-1.119,1.887-1.21,1.944c-0.234,0.12-0.442,0.09-0.619-0.087
			c-0.176-0.177-0.117-0.529,0.206-1.088l2.86-4.75l3.156-5.513C8.57,99.36,9.249,98.18,9.72,97.269
			c0.265-0.501,0.559-1.035,0.886-1.561c0.321-0.563,0.53-0.887,0.559-0.945c0.208-0.441,0.383-0.767,0.529-0.974
			c0.296-0.588,0.619-1.147,0.975-1.681c0.207-0.267,0.53-0.267,1,0c0.592,0.325,1.033,0.796,1.388,1.385
			c0.294,0.474,0.471,1.09,0.529,1.829c0,1.092-0.207,2.033-0.589,2.8c-0.442,0.856-1.033,1.652-1.798,2.359
			c-1.003,0.942-2.063,1.355-3.214,1.235c-1.033-0.088-1.649-0.088-1.829,0.028C8.07,101.745,6.447,104.611,3.324,110.357z
			 M10.692,96.795c-1.417,2.479-2.092,3.776-2.064,3.893c0.207,0.354,0.917,0.41,2.095,0.235c1.238-0.206,2.24-0.885,3.007-2
			c0.649-0.975,1.03-2.006,1.151-3.127c0.086-0.888-0.148-1.65-0.71-2.329c-0.412-0.471-0.766-0.622-1.12-0.471
			C12.934,93.023,12.139,94.29,10.692,96.795z"/>
		<path d="M23.636,114.246c-0.061,0.209-0.385,2.657-1.005,7.369c-0.117,0.8-0.414,1.066-0.912,0.828
			c-0.148-0.059-0.208-0.412-0.177-1.003c0-0.146,0.088-0.648,0.235-1.472c0.177-0.944,0.296-1.65,0.323-2.066
			c0.148-1.087,0.355-2.209,0.62-3.328c0.12-0.531,0.297-1.591,0.561-3.216c0.411-2.062,0.59-3.097,0.53-3.123
			c-0.03-0.235-1.531,3.096-4.541,9.935c-0.706,1.444-1.09,2.181-1.177,2.24c-0.237,0.148-0.474,0.148-0.68-0.029
			c-0.206-0.177-0.177-0.592,0.148-1.239l2.861-5.455l2.976-6.541c0.413-0.888,1.032-2.246,1.798-4.069
			c0.266-0.591,0.532-1.209,0.854-1.826c0.325-0.65,0.5-1.004,0.533-1.093c0.207-0.501,0.381-0.883,0.5-1.122
			c0.266-0.677,0.589-1.325,0.974-1.945c0.178-0.322,0.529-0.353,1.089-0.089c0.677,0.326,1.239,0.796,1.652,1.418
			c0.354,0.504,0.619,1.18,0.765,1.972c0.09,1.212-0.059,2.271-0.412,3.157c-0.413,0.974-1.002,1.916-1.798,2.771
			c-0.974,1.001-2.092,1.506-3.36,1.562c-0.531,0-0.914,0.092-1.151,0.293C24.695,108.262,24.313,110.269,23.636,114.246z
			 M28.646,98.066c-0.147,0.087-0.913,1.532-2.239,4.391c-1.327,2.859-1.976,4.335-1.888,4.422c0.238,0.352,0.974,0.415,2.272,0.117
			c1.267-0.381,2.238-1.208,2.977-2.475c0.649-1.125,0.972-2.302,1.031-3.567c0.06-0.976-0.235-1.798-0.914-2.506
			C29.414,98.004,29.001,97.858,28.646,98.066z"/>
		<path d="M44.301,124.421c-0.739,1.444-1.473,2.563-2.182,3.386c-0.589,0.65-1.091,1.094-1.534,1.301
			c-0.764,0.382-1.474,0.443-2.151,0.208c-0.797-0.324-1.326-0.976-1.593-2.006c-0.146-0.56-0.117-1.622,0.031-3.214
			c0.088-0.826,0.501-2.567,1.178-5.248c0.562-2.064,1.001-3.509,1.327-4.334c1.091-2.86,1.741-4.567,1.947-5.069
			c0.678-1.535,1.325-2.712,1.887-3.479c0.589-0.854,1.178-1.417,1.74-1.68c0.619-0.298,1.327-0.326,2.093-0.03
			c0.677,0.235,1.149,0.644,1.444,1.18c0.352,0.646,0.5,1.532,0.441,2.651c-0.089,2.064-0.236,3.42-0.355,4.068
			c-0.587,2.626-1.412,5.338-2.445,8.136C45.126,122.622,44.507,123.977,44.301,124.421z M40.968,113.097
			c-1.03,2.773-1.708,4.75-2.004,5.928c-0.501,1.946-0.824,3.45-0.973,4.482c-0.236,1.767-0.355,2.769-0.355,3.007
			c0.031,1.004,0.386,1.651,1.092,1.914c0.795,0.297,1.739-0.176,2.801-1.415c0.943-1.147,1.71-2.416,2.3-3.801
			c0.973-2.42,1.622-4.038,1.946-4.894c0.117-0.324,0.294-0.798,0.501-1.387c0.294-0.825,0.647-2.035,1.119-3.597
			c0.382-1.297,0.591-2.386,0.65-3.273c0.117-1.529,0.146-2.475,0.087-2.831c-0.206-1.149-0.648-1.856-1.357-2.119
			C45.126,104.491,43.181,107.146,40.968,113.097z"/>
		<path d="M60.751,131.614c-0.384,0.767-0.944,1.445-1.622,1.943c-1.207,0.914-2.122,1.329-2.712,1.21
			c-0.559-0.087-0.795-0.383-0.678-0.854c0.06-0.21,0.293-0.324,0.738-0.411c0.647-0.094,1.208-0.297,1.681-0.591
			c1.12-0.711,1.856-2.096,2.18-4.161c0.059-0.382,0.175-1.121,0.355-2.181c0.175-1.089,0.323-2.034,0.44-2.771
			c0.501-3.035,0.827-5.127,0.944-6.278c0.648-6.366,0.825-9.639,0.588-9.846c-0.206-0.147-0.822-0.295-1.887-0.381
			c-0.147-0.033-0.266-0.089-0.322-0.21c-0.06-0.148-0.089-0.264-0.06-0.412c0.06-0.353,1.77-0.267,5.13,0.324
			c0.177,0.029,0.294,0.118,0.381,0.234c0.179,0.235,0.179,0.503-0.028,0.77c-0.117,0.148-0.471,0.148-1.062,0.028
			c-0.618-0.146-0.971-0.175-1.032-0.119c-0.087,0.064-0.176,0.592-0.234,1.535c0,0.116-0.148,1.683-0.472,4.657
			c-0.03,0.298-0.09,1.119-0.178,2.445c-0.087,1.355-0.206,2.685-0.353,3.979c-0.089,0.889-0.413,3.243-0.943,7.104
			C61.34,129.697,61.044,131.054,60.751,131.614z"/>
		<path d="M80.857,134.211c1.768-0.297,2.654-0.21,2.654,0.293c0.058,0.264-1.388,0.56-4.333,0.823
			c-1.242,0.177-1.888,0.21-1.977,0.117c-0.086-0.061-0.21-0.796-0.355-2.211c-0.057-0.294-0.176-1.295-0.352-2.946
			c-0.207-1.859-0.355-3.128-0.415-3.744c-1.118-9.05-1.854-14.711-2.179-16.952c-0.327-1.591-0.122-2.445,0.587-2.565
			c1.418-0.233,2.389-0.354,2.889-0.354c0.091,0,0.297-0.026,0.65-0.062c0.354-0.026,0.648-0.057,0.827-0.087
			c0.677-0.026,0.971,0.122,0.911,0.444c-0.057,0.237-0.942,0.442-2.684,0.589c-1.622,0.147-2.387,0.417-2.327,0.796l0.617,5.778
			c0.503,3.066,0.825,4.688,0.916,4.865c0.03,0.116,0.854,0.028,2.446-0.324c0.236-0.031,0.444,0.147,0.678,0.502
			c0.237,0.354,0.207,0.529-0.059,0.56c-1.061,0.088-1.711,0.146-1.977,0.204c-0.648,0.176-0.94,0.413-0.912,0.711
			c0.651,6.981,1.033,10.759,1.089,11.319c0.178,1.415,0.414,2.243,0.65,2.388C78.467,134.533,79.323,134.472,80.857,134.211z"/>
		<path d="M95.421,120.764c0.618,1.621,1.03,2.743,1.264,3.418c0.799,2.242,1.652,3.746,2.568,4.482
			c1.236,1.005,2.387,0.943,3.479-0.178c0.969-1.029,1.327-2.004,1.06-2.888c-0.177-0.56,0.12-0.734,0.854-0.533
			c0.475,0.238,0.475,1.062,0.029,2.51c-0.5,1.416-1.442,2.358-2.83,2.771c-1.295,0.413-2.474,0.028-3.565-1.09
			c-1.122-1.182-2.83-5.425-5.16-12.796c-1.035-3.302-1.444-6.044-1.237-8.225c0.058-0.795,0.409-1.503,1.001-2.121
			c0.706-0.74,1.594-1.065,2.624-0.974c1.15,0.089,2.004,0.561,2.565,1.356c0.443,0.648,0.59,1.116,0.41,1.412
			c-0.055,0.119-0.203,0.178-0.383,0.147c-0.202-0.028-0.352-0.116-0.382-0.323c-0.384-1.414-1.443-1.945-3.241-1.561
			c-1.182,0.381-1.801,1.326-1.83,2.771c-0.058,1.534,0.029,2.829,0.236,3.83c0.236,1.064,0.767,2.891,1.594,5.487
			C94.683,118.789,94.98,119.614,95.421,120.764z"/>
		<path d="M121.127,124.508c-0.177,0.028-0.324-0.175-0.498-0.677c-0.327-0.887-0.474-1.267-0.416-1.149
			c-0.473-1.18-0.765-1.976-0.914-2.331c-0.119-0.265-0.296-0.703-0.529-1.354c-0.208-0.59-0.386-1.031-0.533-1.358
			c-0.057-0.117-0.353-0.854-0.911-2.24c-0.53-1.296-1.033-2.477-1.505-3.537c-0.475-1.03-1.004-2.182-1.563-3.508
			c-0.677-1.532-1-2.357-1.032-2.417l-1.415-3.509c-0.589-1.415-0.942-2.181-1.061-2.239c-0.116-0.149-0.913,0.175-2.358,0.91
			c-0.354,0.181-0.528,0-0.562-0.526c-0.027-0.238,0.974-0.74,2.979-1.474c1.327-0.591,2.271-1.005,2.74-1.18
			c0.414-0.18,0.649-0.147,0.74,0.058c0.118,0.296,0.086,0.531-0.149,0.648c-0.205,0.089-0.706,0.299-1.476,0.617
			c-0.411,0.179-0.647,0.326-0.733,0.441c-0.177,0.269,0.174,1.385,0.999,3.394c1.859,4.48,3.008,7.132,3.423,8.02
			c0.823,1.619,2.209,4.92,4.185,9.904c0.118,0.296,0.293,0.681,0.531,1.148c0.294,0.59,0.47,0.886,0.47,0.916
			c0.267,0.53,0.327,0.912,0.207,1.062C121.687,124.333,121.483,124.421,121.127,124.508z"/>
		<path d="M139.051,108.294c0.592,1.182,0.886,2.536,0.915,4.098c0.03,1.475-0.469,2.534-1.563,3.184
			c-0.353,0.207-0.706,0.382-1.092,0.531c-0.855,0.324-1.387,0.266-1.592-0.117c-0.118-0.266-0.03-0.472,0.296-0.62
			c0.148-0.059,0.472-0.091,0.945-0.091c0.824-0.175,1.354-0.646,1.621-1.412c0.233-0.708,0.321-1.27,0.295-1.681
			c-0.181-1.443-0.53-2.652-0.975-3.598c-0.354-0.734-1.005-1.592-1.887-2.565c-0.796-0.854-1.623-1.589-2.447-2.211
			c-0.884-0.619-1.707-1.266-2.506-1.857c-1.979-1.473-3.418-3.065-4.306-4.832c-0.706-1.446-0.883-2.774-0.469-3.983
			c0.291-0.913,0.853-1.501,1.708-1.709c0.766-0.205,1.357-0.174,1.739,0.12c0.206,0.146,0.241,0.322,0.118,0.53
			c-0.059,0.087-0.264,0.116-0.618,0.058c-0.442-0.058-0.736-0.058-0.913-0.029c-0.561,0.149-0.973,0.649-1.238,1.534
			c-0.208,0.619,0,1.531,0.59,2.713c0.882,1.798,2.268,3.388,4.094,4.776c1.625,1.177,2.478,1.825,2.625,1.913
			c0.739,0.591,1.681,1.534,2.833,2.775C138.138,106.82,138.729,107.645,139.051,108.294z"/>
	</g>
	<g>
		<path d="M24.49,45.616c-1.826-1.237-3.803-2.801-5.896-4.685c-3.919-3.45-5.898-5.132-5.985-5.071
			c-0.088,0.058,0.474,1.147,1.652,3.331c1.797,3.33,2.917,5.456,3.301,6.368c0.206,0.353,0.618,1.121,1.236,2.327
			c0.472,0.916,0.56,1.419,0.326,1.567c-0.326,0.171-0.766-0.266-1.357-1.332c-0.148-0.264-0.441-0.853-0.945-1.822
			c-0.499-1.035-1.031-2.038-1.533-3.01c-0.41-0.736-0.942-1.797-1.65-3.186c-0.647-1.264-1.002-2.031-1.119-2.24
			c-0.148-0.231-1.356-2.356-3.625-6.306c-2.241-3.893-3.419-5.927-3.508-6.073c-0.177-0.326-0.119-0.621,0.146-0.915
			c0.295-0.295,0.531-0.354,0.708-0.176c0.148,0.089,0.767,1.357,1.856,3.741c2.122,4.513,3.331,6.605,3.567,6.312
			c0.148-0.118,0.177-1.679,0.06-4.659c-0.06-0.794-0.09-1.736-0.147-2.801c-0.06-1.119-0.089-1.858-0.118-2.21
			c-0.087-2.242,0-3.449,0.265-3.596c0.325-0.176,0.588-0.088,0.796,0.234c0.058,0.178,0.088,0.561,0.058,1.209
			c-0.03,0.795-0.03,1.296-0.03,1.445c0,0.238,0,0.765,0,1.562c-0.028,0.795-0.028,1.295,0,1.474
			c0.06,4.862,0.208,7.399,0.385,7.604c0.206,0.356,2.063,2.065,5.542,5.073c1.179,1.033,2.683,2.153,4.452,3.388
			c1.503,1.034,2.329,1.653,2.477,1.829c0.324,0.414,0.324,0.738,0.028,1.004C25.344,46.089,24.991,45.971,24.49,45.616z"/>
		<path d="M58.018,30.16c0.253,1.725,0.373,2.658,0.323,2.753c-0.12,0.307-0.346,0.417-0.645,0.39
			c-0.298-0.031-0.515-0.426-0.617-1.188l-0.875-6.668l-1.201-7.586c-0.315-2.072-0.59-3.705-0.795-4.9
			c-0.126-0.698-0.251-1.396-0.354-2.153c-0.104-0.792-0.177-1.229-0.185-1.316c-0.114-0.581-0.185-1.018-0.245-1.341
			c-0.195-0.78-0.298-1.54-0.345-2.336c-0.036-0.381,0.293-0.649,0.936-0.742c0.817-0.135,1.598-0.029,2.337,0.281
			c0.645,0.234,1.279,0.677,1.874,1.332c0.813,1.048,1.325,2.063,1.538,3.082c0.229,1.132,0.256,2.342,0.079,3.604
			c-0.228,1.624-0.944,2.815-2.111,3.579c-1.061,0.694-1.605,1.19-1.702,1.409C55.972,18.392,56.613,22.328,58.018,30.16z
			 M54.742,11.73c0.533,3.414,0.877,5.157,0.973,5.236c0.46,0.164,1.187-0.294,2.179-1.366c0.987-1.13,1.42-2.502,1.32-4.153
			c-0.104-1.413-0.522-2.674-1.258-3.85c-0.563-0.921-1.383-1.466-2.441-1.69c-0.724-0.138-1.214-0.003-1.413,0.4
			C53.969,6.47,54.201,8.283,54.742,11.73z"/>
		<path d="M76.024,32.923c-0.178-0.057-0.203-0.351-0.087-0.883c0.176-0.944,0.267-1.355,0.237-1.208
			c0.233-1.297,0.383-2.153,0.441-2.538c0.06-0.293,0.149-0.766,0.265-1.472c0.118-0.622,0.207-1.12,0.267-1.504
			c0.03-0.119,0.147-0.944,0.413-2.477c0.234-1.417,0.413-2.741,0.56-3.922c0.117-1.15,0.294-2.475,0.499-3.919
			c0.237-1.711,0.356-2.624,0.386-2.682l0.65-3.834c0.232-1.592,0.321-2.448,0.265-2.565c-0.032-0.207-0.885-0.353-2.566-0.474
			C76.97,5.42,76.88,5.154,77.147,4.683c0.087-0.236,1.236-0.119,3.419,0.323c1.504,0.207,2.536,0.325,3.065,0.441
			c0.473,0.06,0.678,0.239,0.622,0.443c-0.061,0.355-0.207,0.501-0.507,0.501c-0.235-0.028-0.764-0.116-1.618-0.265
			c-0.472-0.057-0.735-0.089-0.883-0.03c-0.295,0.148-0.592,1.328-0.948,3.541c-0.765,4.923-1.206,7.899-1.293,8.901
			c-0.148,1.857-0.68,5.515-1.622,10.967c-0.058,0.326-0.088,0.767-0.148,1.328c-0.057,0.673-0.087,1.032-0.087,1.058
			c-0.06,0.621-0.207,0.976-0.382,1.064C76.616,33.073,76.377,33.042,76.024,32.923z"/>
		<path d="M100.693,32.357c-0.855,2.741-2.064,4.333-3.566,4.775c-0.679,0.175-1.473,0.115-2.387-0.18
			c-0.857-0.29-1.505-0.941-1.947-1.943c-0.355-0.886-0.533-1.976-0.501-3.301c0.057-1.237,0.441-2.949,1.12-5.133l2.889-8.428
			c0.529-1.533,1.118-3.182,1.741-4.953c0.175-0.505,0.382-1.063,0.587-1.679c0.177-0.505,0.294-0.771,0.294-0.827
			c0.059-0.148,0.147-0.443,0.269-0.856c0.116-0.444,0.207-0.74,0.263-0.884c0.147-0.474,0.416-0.62,0.737-0.441
			c0.385,0.146,0.502,0.471,0.385,0.911c0.058-0.146-0.177,0.504-0.679,1.947c-2.507,6.782-3.92,10.761-4.243,11.939
			c-1.062,3.598-1.593,5.423-1.593,5.455c-0.354,1.563-0.558,2.654-0.592,3.271c-0.058,1.032,0.062,1.827,0.352,2.389
			c0.445,0.857,0.946,1.384,1.535,1.531c0.77,0.208,1.386,0.148,1.859-0.174c0.856-0.591,1.651-1.683,2.359-3.243
			c0.263-0.619,0.736-1.978,1.383-4.008l0.736-2.184c0.737-2.359,1.296-4.04,1.683-5.07c0.235-0.647,0.734-2.033,1.473-4.244
			c1.032-3.39,1.594-5.217,1.685-5.485c0.144-0.532,0.438-0.738,0.852-0.591c0.295,0.119,0.441,0.357,0.383,0.771
			c-0.03,0.32-0.383,1.384-1.03,3.178c-0.295,0.829-1.003,2.743-2.066,5.78c-1.504,4.456-2.298,6.783-2.387,7.019L100.693,32.357z"
			/>
		<path d="M116.535,38.564c-0.092,0.177-0.886,2.444-2.418,6.812c-0.266,0.734-0.592,0.913-1.004,0.586
			c-0.148-0.086-0.116-0.442,0-0.999c0.06-0.12,0.205-0.592,0.531-1.358c0.354-0.885,0.59-1.506,0.707-1.886
			c0.353-1.002,0.766-2.036,1.238-3.067c0.209-0.472,0.592-1.476,1.149-2.979c0.77-1.886,1.147-2.828,1.12-2.857
			c0.027-0.238-2.061,2.623-6.251,8.579c-0.939,1.237-1.473,1.887-1.562,1.917c-0.266,0.117-0.473,0.06-0.648-0.15
			c-0.179-0.206-0.058-0.589,0.383-1.146l3.776-4.63l4.096-5.658c0.589-0.768,1.416-1.947,2.505-3.512
			c0.356-0.5,0.735-1.029,1.151-1.562c0.44-0.559,0.679-0.882,0.706-0.91c0.299-0.442,0.53-0.769,0.71-1.005
			c0.383-0.591,0.824-1.148,1.297-1.649c0.233-0.266,0.558-0.238,1.061,0.119c0.588,0.44,1.001,1,1.268,1.679
			c0.234,0.561,0.352,1.239,0.323,2.034c-0.147,1.178-0.498,2.154-1.003,2.92c-0.588,0.856-1.327,1.62-2.238,2.296
			c-1.118,0.77-2.299,1.034-3.509,0.827c-0.501-0.117-0.885-0.117-1.148,0.06C118.743,33.08,117.977,34.909,116.535,38.564z
			 M124.55,24.178c-0.146,0.029-1.15,1.297-2.977,3.772c-1.829,2.45-2.741,3.747-2.683,3.834c0.147,0.383,0.854,0.561,2.122,0.53
			c1.27-0.116,2.359-0.738,3.303-1.799c0.826-0.942,1.416-2.004,1.711-3.156c0.263-0.912,0.117-1.766-0.356-2.532
			C125.289,24.265,124.934,24.059,124.55,24.178z"/>
		<path d="M126.552,54.753c-0.12,0.146-0.208,0.234-0.296,0.266c-0.146,0.06-0.294,0.06-0.44-0.032
			c-0.324-0.173-0.415-0.321-0.267-0.501c1.09-1.087,1.918-2.384,2.506-3.832c0.03-0.204-0.234-0.589-0.856-1.149
			c-0.677-0.619-1.354-1-1.973-1.146c-0.265,0-0.561,0.146-0.884,0.47c-0.855,0.793-1.506,1.443-1.917,1.944
			c-0.501,0.769-0.826,1.121-0.946,1.09c-0.233-0.115-0.321-0.322-0.321-0.647c-0.03-0.146,0.767-1.005,2.357-2.596
			c0.268-0.294,1.003-1.088,2.181-2.358c1.15-1.267,2.034-2.181,2.624-2.771c0.266-0.234,1.357-1.387,3.303-3.39
			c0.473-0.472,0.825-0.826,1.06-1.029c0.239-0.207,0.53-0.443,0.856-0.708c0.798-0.646,1.27-0.887,1.446-0.768
			c0.208,0.147,0.234,0.501,0.088,1.063c-0.297,1.031-0.618,1.858-0.942,2.506c-1.004,2.153-1.565,3.3-1.683,3.479
			c-0.147,0.294-0.384,0.675-0.647,1.148c-0.502,0.885-0.916,1.62-1.238,2.213c-1.301,2.268-2.566,4.451-3.834,6.513L126.552,54.753
			z M132.417,43.344c1.505-2.828,2.066-4.304,1.714-4.452c-0.091-0.027-0.679,0.501-1.771,1.624
			c-0.119,0.116-0.531,0.498-1.207,1.149c-0.709,0.649-1.269,1.177-1.743,1.62c-0.471,0.469-1.09,1.119-1.883,1.975
			c-0.739,0.795-1.15,1.267-1.3,1.386c-0.559,0.53-0.766,0.885-0.589,1.031c1.855,1.445,2.89,2.065,3.063,1.857
			C129.763,48.092,130.978,46.028,132.417,43.344z"/>
		<g>
			<path d="M35.488,35.064c0.294-0.385,1.688-1.844,3.153-2.36c1.528-0.537,3.154-0.472,4.304-0.325
				c-0.647-1.621-1.326-3.271-2.034-4.922c-0.354-0.854-0.825-1.946-1.387-3.271c-0.294-0.709-0.53-1.27-0.707-1.683
				c-0.119-0.263-0.914-1.885-2.417-4.835c-0.443-0.912-1.092-1.973-1.974-3.182c-0.472-0.65-0.886-0.916-1.24-0.796
				c-0.292,0.091-0.413,0.853-0.383,2.272c0,0.559,0.029,1.09,0.059,1.532c0.031,0.442,0.117,1.119,0.234,2.034
				c0.562,3.89,0.858,6.072,0.944,6.574c0.15,1.151,0.413,2.92,0.826,5.275C35.163,33.029,35.368,34.297,35.488,35.064z
				 M34.363,21.298c-0.116-1.301-0.206-2.065-0.206-2.332c-0.292-2.152-0.383-3.271-0.265-3.36c0.444-0.266,1.595,1.621,3.451,5.719
				c1.767,3.89,2.976,7.015,3.654,9.375c0.087,0.355-1.445,0.972-4.657,1.798c-0.325,0.087-0.532-0.414-0.62-1.504
				c-0.029-0.267-0.175-1.121-0.441-2.625c-0.266-1.59-0.444-2.828-0.561-3.77C34.571,23.742,34.485,22.652,34.363,21.298z"/>
		</g>
	</g>
</g>
</svg>
