<?xml version="1.0" encoding="utf-8"?>
<!-- Generator: Adobe Illustrator 21.0.2, SVG Export Plug-In . SVG Version: 6.00 Build 0)  -->
<svg version="1.1" id="Layer_1" xmlns="http://www.w3.org/2000/svg" xmlns:xlink="http://www.w3.org/1999/xlink" x="0px" y="0px"
	 viewBox="0 0 94.2 24.5" style="enable-background:new 0 0 94.2 24.5;" xml:space="preserve">
<style type="text/css">
	.st0{fill:#141414;}
</style>
<g>
	<rect x="24.1" y="12.5" class="st0" width="48" height="1.7"/>
</g>
<g>
	<path d="M26.7,3.3c-0.3,0-0.6,0.2-0.8,0.6c-0.2,0.4-0.3,0.9-0.3,1.7c0,1.5,0.4,2.2,1.2,2.2c0.3,0,0.7-0.1,1.1-0.3v1.1
		c-0.3,0.2-0.7,0.3-1.2,0.3c-0.7,0-1.3-0.3-1.6-0.9c-0.4-0.6-0.6-1.4-0.6-2.4c0-1,0.2-1.8,0.6-2.4c0.4-0.6,0.9-0.9,1.6-0.9
		c0.2,0,0.5,0,0.7,0.1c0.2,0.1,0.4,0.2,0.7,0.3l-0.4,1c-0.1-0.1-0.3-0.2-0.4-0.2C27.1,3.3,26.9,3.3,26.7,3.3z"/>
	<path d="M28.7,8.7V2.4l1.2,0v5.3h1.6v1H28.7z"/>
	<path d="M36.7,5.5c0,1.1-0.2,1.9-0.6,2.4c-0.4,0.6-1,0.8-1.7,0.8c-0.7,0-1.3-0.3-1.7-0.8c-0.4-0.6-0.6-1.4-0.6-2.4
		c0-1.1,0.2-1.9,0.6-2.4s1-0.8,1.7-0.8c0.7,0,1.3,0.3,1.7,0.8C36.5,3.7,36.7,4.5,36.7,5.5z M33.3,5.5c0,0.7,0.1,1.3,0.3,1.7
		c0.2,0.4,0.5,0.6,0.8,0.6c0.7,0,1.1-0.7,1.1-2.2c0-1.5-0.4-2.2-1.1-2.2c-0.4,0-0.6,0.2-0.8,0.6C33.4,4.3,33.3,4.8,33.3,5.5z"/>
	<path d="M40.5,7c0,0.6-0.1,1-0.4,1.4c-0.3,0.3-0.7,0.5-1.3,0.5c-0.6,0-1-0.1-1.4-0.3V7.3c0.5,0.3,0.9,0.5,1.3,0.5
		c0.2,0,0.4-0.1,0.5-0.2c0.1-0.1,0.2-0.3,0.2-0.5c0-0.2-0.1-0.4-0.2-0.6c-0.1-0.2-0.4-0.4-0.7-0.6c-0.3-0.2-0.5-0.4-0.6-0.5
		c-0.1-0.2-0.2-0.4-0.3-0.6c-0.1-0.2-0.1-0.5-0.1-0.7c0-0.5,0.2-1,0.5-1.3c0.3-0.3,0.7-0.5,1.2-0.5c0.5,0,1,0.1,1.4,0.4l-0.4,0.9
		c-0.1-0.1-0.3-0.2-0.4-0.2c-0.2-0.1-0.3-0.1-0.5-0.1c-0.2,0-0.3,0.1-0.4,0.2c-0.1,0.1-0.2,0.3-0.2,0.5c0,0.2,0.1,0.4,0.2,0.6
		c0.1,0.2,0.3,0.3,0.6,0.5c0.4,0.3,0.7,0.6,0.9,0.9C40.4,6.3,40.5,6.6,40.5,7z"/>
	<path d="M44.2,8.7h-2.9V2.4l2.9,0v1l-1.7,0v1.5H44v1l-1.6,0v1.8h1.7V8.7z"/>
</g>
</svg>
