<?xml version="1.0" encoding="utf-8"?>
<!-- Generator: Adobe Illustrator 21.0.2, SVG Export Plug-In . SVG Version: 6.00 Build 0)  -->
<svg version="1.1" id="Layer_1" xmlns="http://www.w3.org/2000/svg" xmlns:xlink="http://www.w3.org/1999/xlink" x="0px" y="0px"
	 viewBox="0 0 24.5 94.2" style="enable-background:new 0 0 24.5 94.2;" xml:space="preserve">
<style type="text/css">
	.st0{fill:#141414;}
</style>
<g>
	<rect x="17.5" y="19.1" class="st0" width="1.7" height="48"/>
</g>
<g>
	<path d="M8.3,64.4c0,0.3,0.2,0.6,0.6,0.8c0.4,0.2,0.9,0.3,1.7,0.3c1.5,0,2.2-0.4,2.2-1.2c0-0.3-0.1-0.7-0.3-1.1h1.1
		c0.2,0.3,0.3,0.7,0.3,1.2c0,0.7-0.3,1.3-0.9,1.6c-0.6,0.4-1.4,0.6-2.4,0.6c-1,0-1.8-0.2-2.4-0.6c-0.6-0.4-0.9-0.9-0.9-1.6
		c0-0.2,0-0.5,0.1-0.7c0.1-0.2,0.2-0.4,0.3-0.7l1,0.4c-0.1,0.1-0.2,0.3-0.2,0.4C8.4,64.1,8.3,64.3,8.3,64.4z"/>
	<path d="M13.7,62.4H7.4v-1.2h5.3v-1.6h1V62.4z"/>
	<path d="M10.5,54.5c1.1,0,1.9,0.2,2.4,0.6c0.6,0.4,0.8,1,0.8,1.7c0,0.7-0.3,1.3-0.8,1.7c-0.6,0.4-1.4,0.6-2.4,0.6
		c-1.1,0-1.9-0.2-2.4-0.6c-0.6-0.4-0.8-1-0.8-1.7c0-0.7,0.3-1.3,0.8-1.7C8.7,54.7,9.5,54.5,10.5,54.5z M10.5,57.8
		c0.7,0,1.3-0.1,1.7-0.3c0.4-0.2,0.6-0.5,0.6-0.8c0-0.7-0.7-1.1-2.2-1.1c-1.5,0-2.2,0.4-2.2,1.1c0,0.4,0.2,0.6,0.6,0.8
		C9.3,57.7,9.8,57.8,10.5,57.8z"/>
	<path d="M12,50.6c0.6,0,1,0.1,1.4,0.4c0.3,0.3,0.5,0.7,0.5,1.3c0,0.6-0.1,1-0.3,1.4h-1.2c0.3-0.5,0.5-0.9,0.5-1.3
		c0-0.2-0.1-0.4-0.2-0.5c-0.1-0.1-0.3-0.2-0.5-0.2c-0.2,0-0.4,0.1-0.6,0.2c-0.2,0.1-0.4,0.4-0.6,0.7c-0.2,0.3-0.4,0.5-0.5,0.6
		c-0.2,0.1-0.4,0.2-0.6,0.3c-0.2,0.1-0.5,0.1-0.7,0.1c-0.5,0-1-0.2-1.3-0.5c-0.3-0.3-0.5-0.7-0.5-1.2c0-0.5,0.1-1,0.4-1.4l0.9,0.4
		c-0.1,0.1-0.2,0.3-0.2,0.4c-0.1,0.2-0.1,0.3-0.1,0.5c0,0.2,0.1,0.3,0.2,0.4c0.1,0.1,0.3,0.2,0.5,0.2c0.2,0,0.4-0.1,0.6-0.2
		c0.2-0.1,0.3-0.3,0.5-0.6c0.3-0.4,0.6-0.7,0.9-0.9C11.3,50.7,11.6,50.6,12,50.6z"/>
	<path d="M13.7,47v2.9H7.4V47h1v1.7h1.5v-1.6h1v1.6h1.8V47H13.7z"/>
</g>
</svg>
