<?xml version="1.0" encoding="utf-8"?>
<!-- Generator: Adobe Illustrator 19.0.0, SVG Export Plug-In . SVG Version: 6.00 Build 0)  -->
<svg version="1.1" id="Layer_1" xmlns="http://www.w3.org/2000/svg" xmlns:xlink="http://www.w3.org/1999/xlink" x="0px" y="0px"
	 viewBox="-253 179.8 283.7 254.2" style="enable-background:new -253 179.8 283.7 254.2;" xml:space="preserve">
<style type="text/css">
	.st0{fill:#FCFCFC;}
</style>
<path class="st0" d="M-254,178.8V435H31.7V178.8H-254z M-114.7,287.8l-64.7,17.3V203.5l64.7-17.3V287.8z M-44.7,287.8l-64.7,17.3
	V203.5l64.7-17.3L-44.7,287.8L-44.7,287.8z M26.7,287.8L-38,305.2V203.5l64.7-17.3C26.7,186.2,26.7,287.8,26.7,287.8z M-186,396.3
	l-64.7,17.3V312l64.7-17.3V396.3z M-114.7,396.3l-64.7,17.3V312l64.7-17.3V396.3z M-44.7,396.3l-64.7,17.3V312l64.7-17.3
	L-44.7,396.3L-44.7,396.3z"/>
</svg>
