<?xml version="1.0" encoding="utf-8"?>
<!-- Generator: Adobe Illustrator 16.0.0, SVG Export Plug-In . SVG Version: 6.00 Build 0)  -->
<!DOCTYPE svg PUBLIC "-//W3C//DTD SVG 1.1//EN" "http://www.w3.org/Graphics/SVG/1.1/DTD/svg11.dtd">
<svg version="1.1" id="Layer_1" xmlns="http://www.w3.org/2000/svg" xmlns:xlink="http://www.w3.org/1999/xlink" x="0px" y="0px"
	 width="50px" height="50px" viewBox="45.866 45.865 50 50" enable-background="new 45.866 45.865 50 50" xml:space="preserve">
<polygon fill="#141414" points="67.453,90.199 73.788,90.199 70.62,95.032 "/>
<circle fill="#141414" cx="70.62" cy="69.868" r="21.413"/>
<g>
	<path fill="#FFFFFF" d="M72.357,67.821c0.023,0.075,0.056,0.125,0.094,0.156c0.212,0.169,0.49-0.321,0.656-0.608
		c0.337-0.589,0.706-1.397,0.595-2.067c-0.049-0.3-0.307-1.209-0.607-1.285c-0.713-0.179-0.479,0.75-0.358,1.32
		c0.1,0.47,0.027,1.223-0.042,1.701C72.664,67.243,72.304,67.652,72.357,67.821z"/>
	<path fill="#FFFFFF" d="M74.535,58.067c-0.18,0.479-0.756,1.082-1.059,2.245c-0.053,0.201,0.774,0.546,0.923,0.448
		c0.618-0.406,0.867-2.084,0.985-2.554c-0.28-0.054-0.562-0.105-0.848-0.153C74.537,58.058,74.537,58.063,74.535,58.067z"/>
	<path fill="#FFFFFF" d="M72.88,58.742c-0.219,0.408-0.206,0.636-0.255,1.158c-0.03,0.325,0.169,0.299,0.255,0.112
		c0.385-0.83,0.793-1.388,1.125-2.041c-0.229-0.034-0.463-0.065-0.693-0.094C73.255,58.281,73.031,58.46,72.88,58.742z"/>
	<path fill="#FFFFFF" d="M77.146,76.839c-0.093-0.456-0.598-1.67-0.735-2.057c-0.235-0.664-0.151-1.275-1.098-0.61
		c-0.332,0.232-0.588,0.391-0.525,0.563c0.245,0.688,1.147,2.104,1.406,3.622c0.169,0.986,0.162,3.062,0.512,3.188
		c0.087,0.031,0.441-0.372,0.446-0.872c0.005-0.389-0.047-0.573,0.047-0.891C77.313,79.383,77.35,77.846,77.146,76.839z"/>
	<path fill="#FFFFFF" d="M83.375,64.667c0.265,0.056,2.125,0.862,2.304,0.747c0.094-0.061,0.062-0.307-0.015-0.423
		c-0.156-0.238-0.475-0.3-0.73-0.423c-0.241-0.117-0.473-0.24-0.654-0.431c-0.237-0.25-0.451-0.565-0.835-0.56
		c-0.074,0.002-0.53,0.018-0.851,0.091c-1.032,0.236-2.052,0.659-2.873,1.104c-0.288,0.157-0.938,0.497-0.858,0.668
		c0.133,0.291,1.369-0.51,2.507-0.685C82.055,64.651,82.688,64.524,83.375,64.667z"/>
	<path fill="#FFFFFF" d="M71.604,82.194c-0.159,0.13-0.21,0.312-0.318,0.47c-0.145,0.213-0.347,0.503-0.189,0.51
		c0.476,0.019,0.531-0.326,0.66-0.555c0.075-0.136,0.25-0.436,0.166-0.557C71.855,81.966,71.698,82.118,71.604,82.194z"/>
	<path fill="#FFFFFF" d="M83.082,65.173c-0.062-0.001-0.155,0.056-0.292,0.125c-0.118,0.058-0.074,0.162,0.302,0.209
		c0.438,0.055,0.413,0.008,0.33-0.166C83.358,65.204,83.141,65.174,83.082,65.173z"/>
	<path fill="#FFFFFF" d="M61.167,80.137c0.153,0.114,0.305,0.226,0.46,0.334c0.001-0.53,0.16-2.104,0.572-2.272
		c0.318-0.132,0.348,0.262,0.457,0.181c0.429-0.317,0.562-1.688,1.482-3.403c0.435-0.812,1.429-1.652,1.149-1.945
		c0,0-0.312-0.407-0.717-0.873c-0.192-0.221-0.177-0.664-0.115-0.909c0.03-0.119,0.112-0.167,0.206-0.244
		c0.133-0.107,0.471-0.045,0.665-0.163c0.558-0.343,1.036-0.212,1.076-0.42c0.058-0.307,0.402-0.745,0.304-0.999
		c-0.022-0.059-0.096-0.541-0.084-0.724c0-0.452-0.877-0.655-1.183-0.667c-0.303-0.012-0.868,0.07-1.191,0.118
		c-0.546,0.083-1.131,0.129-1.217,0.003c-0.078-0.115-0.13-0.094-0.285-0.101c-0.714-0.029-1.319,0.015-1.938,0.05
		c-0.696,0.039-1.291,0.222-1.921,0.425c-0.215,0.07-0.817,0.329-1.342,0.615c-0.485,0.264-0.931,0.542-1.066,0.685
		c-0.133,0.14-0.277,0.405-0.18,0.479c0.181,0.139,1.64-1.367,4.355-1.208c0.35,0.02,0.853-0.381,0.847,0.005
		c-0.006,0.372-0.302,0.804-0.847,0.742c-1.125-0.128-2.62,0.042-3.499,0.662c-0.215,0.153-0.814,0.523-1.128,0.562
		c-0.094,0.013-0.343,0.102-0.574,0.325c0.03,0.137,0.062,0.273,0.097,0.41c0.075-0.162,1.567-0.942,1.663-0.983
		c0.281-0.117,0.9-0.254,1.074,0.057c0.209,0.37-0.422,0.559-0.192,0.829c0.077,0.09,0.487-0.245,0.694-0.384
		c0.327-0.222,0.869-0.302,1.725-0.668c0.812-0.349,0.723,0.401,0.61,0.499c-0.245,0.212-0.883,0.292-1.195,0.355
		c-0.916,0.181-1.349,0.589-1.884,0.912c-0.184,0.111-0.399,0.289-0.552,0.438c-0.267,0.257-0.672,0.568-0.959,0.908
		c-0.109,0.111-0.164,0.234-0.211,0.287c0.047,0.107,0.096,0.215,0.145,0.321c0.02-0.07,0.119-0.069,0.322-0.104
		c0.184-0.034,0.726-0.752,0.907-0.881c0.328-0.233,0.508-0.568,0.875-0.405c0.448,0.199,0.368,0.599,0.152,0.965
		c-0.204,0.346-0.5,0.72-0.678,1.078c-0.189,0.38-0.3,0.687-0.338,0.934c-0.035,0.229-0.099,0.321-0.184,0.307
		c0.045,0.067,0.091,0.135,0.136,0.202c0.162-0.348,0.442-1.072,0.621-1.361c0.617-0.991,1.379-1.687,1.806-1.983
		c0.192-0.134,0.461-0.394,0.665-0.528c0.153-0.103,0.816-0.343,0.578,0.229c-0.042,0.102-1.026,0.704-1.604,1.251
		c-0.417,0.395-1.667,2.192-1.838,2.719c0.06,0.084,0.121,0.165,0.182,0.248c0.073-0.068,0.818-0.851,0.942-1.169
		c0.126-0.323,0.486-0.628,0.77-0.629c0.387-0.003,0.437,0.145,0.333,0.562c-0.047,0.188,0.003,0.323,0.07,0.4
		c0.572-0.535,1.368-1.568,1.283-1.46c-0.082,0.102,0.504-0.664,0.602-0.732c0.407-0.279,0.925-0.17,0.935,0.332
		c0.007,0.377-0.59,1.379-0.756,1.758c-0.233,0.531-0.524,1.1-0.793,1.64c-0.588,1.185-0.214,2.249-0.285,2.391
		C61.169,80.136,61.167,80.136,61.167,80.137z"/>
	<path fill="#FFFFFF" d="M78.565,66.609c0.218,0.005,0.863-0.083,1.193-0.095c0.501-0.02,0.531-0.089,0.34-0.185
		c-0.381-0.19-1.357-0.17-1.703-0.014C78.35,66.335,78.317,66.604,78.565,66.609z"/>
	<path fill="#FFFFFF" d="M83.54,77.405c-0.116-0.671-0.46-1.67-0.828-2.402c-0.265-0.522-0.72-1.146-0.726-1.748
		c-0.001-0.311,0.188-0.321-0.03-0.548c-0.157-0.164-0.692-0.363-0.89-0.454c-0.584-0.264-1.448-0.888-1.607-0.748
		c-0.163,0.142,0.826,1.203,1.341,1.636c1.273,1.071,1.954,2.934,2.062,3.271c0.107,0.332,0.23,0.965,0.163,1.669
		C83.201,77.862,83.372,77.637,83.54,77.405z"/>
	<path fill="#FFFFFF" d="M69.831,59.746c0.045,0.148,0.185,0.118,0.192-0.022c0.043-0.898-0.12-1.678-0.195-2.028c0,0,0,0,0,0
		c-0.147,0.003-0.295,0.008-0.442,0.015C69.617,58.245,69.459,58.518,69.831,59.746z"/>
	<path fill="#FFFFFF" d="M85.185,70.814c0.069,0.068-0.029,0.346,0.124,0.442c0.3,0.187,0.418-0.115,0.324-0.395
		c-0.03-0.094-0.316-0.414-0.382-0.467c-0.105-0.086-0.515-0.546-0.735-0.273C84.257,70.442,84.969,70.599,85.185,70.814z"/>
	<path fill="#FFFFFF" d="M84.388,69.431c0.035,0.008,0.066,0.017,0.097,0.028c0.155,0.054,0.26,0.128,0.438,0.016
		c-0.072-1.039-1.108-1.686-2.06-1.999c-1.9-0.626-2.844-0.44-4.344-0.23c-0.18,0.026-0.209,0.919-0.048,1.004
		c0.239,0.126,0.606,0.178,0.83,0.198c0.539,0.047,1.01,0.227,1.535,0.346c0.608,0.139,1.244,0.083,1.858,0.195
		C83.269,69.095,83.817,69.312,84.388,69.431z"/>
	<path fill="#FFFFFF" d="M83.407,73.737c-0.138-0.224-0.465-0.594-0.668-0.43c-0.18,0.146,0.556,1.284,0.862,1.55
		c0.123,0.104,0.249,0.035,0.138-0.066C83.168,74.271,83.559,73.989,83.407,73.737z"/>
	<path fill="#FFFFFF" d="M83.745,72.494c-0.115-0.334-0.361-0.623-0.584-0.898c-0.001-0.001-0.002-0.002-0.002-0.002
		c-0.267-0.331-0.552-0.796-0.907-1.038c-0.541-0.367-1.271-0.813-1.463-0.889c-0.413-0.164-1.736-0.653-2.394-0.687
		c-0.316-0.016-0.427,1.355-0.28,1.443c0.236,0.142,0.892,0.331,1.149,0.389c0.557,0.125,1.247,0.483,1.738,0.779
		c0.592,0.356,1.263,0.635,1.829,1.019c0.147,0.101,0.965,0.648,0.936,0.848C83.858,73.252,83.819,72.718,83.745,72.494z"/>
	<path fill="#FFFFFF" d="M70.379,58.586c0.009,0.167,0.04,0.938,0.152,1.195c0.032,0.074,0.299,0.095,0.321,0.021
		c0.288-0.91,0.112-1.554,0.267-2.098c-0.266-0.009-0.531-0.015-0.797-0.015c-0.015,0-0.03,0-0.045,0
		C70.347,58.035,70.366,58.329,70.379,58.586z"/>
	<path fill="#FFFFFF" d="M70.738,81.152c-0.01,0.408-0.059,0.879,0.051,0.966c0.162,0.125,0.26-0.172,0.434-0.402
		c0.687-0.916,1.208-2.56,1.31-3.902c0.033-0.439,0.221-1.674,0.082-2.499c-0.047-0.282-1.501-0.317-1.531-0.04
		c-0.078,0.728-0.062,1.604-0.036,2.186c0.06,1.304-0.272,2.431-0.311,3.689C70.738,81.149,70.738,81.151,70.738,81.152z"/>
	<path fill="#FFFFFF" d="M71.826,59.966c0.387-0.713,0.24-0.91,0.664-1.557c0.184-0.279,0.223-0.396,0.29-0.591
		c-0.36-0.037-0.722-0.066-1.086-0.088c-0.082,0.48-0.265,0.814-0.328,2.168C71.363,59.979,71.762,60.082,71.826,59.966z"/>
	<path fill="#FFFFFF" d="M75.993,81.254c0.068-1.931-0.412-4.258-1.691-6.239c-0.182-0.281-0.802-0.218-0.809,0.018
		c-0.031,0.079-0.028,0.275-0.036,0.347c-0.07,0.607-0.018,1.266,0.1,1.862c0.105,0.545,0.18,0.986,0.246,1.55
		c0.168,1.406,0.061,3.285,0.049,3.464c-0.012,0.191-0.023,0.339-0.184,0.336c-0.234-0.003-0.237-0.219-0.253-0.431
		c-0.021-0.279,0.142-1.562,0.027-2.958c-0.046-0.581-0.197-0.904-0.35-0.894c-0.171,0.014-0.198,0.605-0.353,1.192
		c-0.184,0.693-0.319,0.979-0.35,1.331c-0.019,0.227,0.011,0.36,0.094,0.374c0.17,0.036,0.179,0.252,0.195,0.433
		c0.025,0.264,0.146,0.192,0.172,0.465c0.062,0.632,0.009,0.95-0.129,1.034c-0.005,0.005-0.013,0.008-0.02,0.011
		c0.5-0.053,0.978-0.117,1.438-0.193c-0.071-0.394,0.372-0.685,0.417-1.293c0.011-0.134-0.271-1.55,0.256-1.594
		c0.386-0.032,0.39,0.211,0.648,0.677c0.298,0.535,0.447,1.332,0.473,1.834c0.139-0.037,0.276-0.075,0.412-0.114
		C76.245,82.351,75.983,81.553,75.993,81.254z"/>
	<path fill="#FFFFFF" d="M79.561,81.112c0.11-0.063,0.219-0.13,0.326-0.196c-0.11-0.037-0.102-0.205-0.144-0.437
		c-0.056-0.314-0.619-2.389-1.253-3.845c-0.227-0.521-0.892-1.955-1.49-2.458c-0.143-0.119-0.29,0.04-0.236,0.155
		c0.107,0.225,0.694,1.657,0.869,2.434c0.281,1.23,0.216,2.216,0.193,2.914c-0.012,0.366-0.044,0.808-0.154,1.159
		c-0.055,0.181-0.319,0.647-0.497,0.977c-0.101,0.163-0.214,0.133-0.281,0.259c-0.041,0.084,0.029,0.146,0.011,0.22
		c0.454-0.147,0.885-0.312,1.296-0.489c-0.159-0.08,0.044-0.382,0.095-1.206c0.025-0.396-0.182-1.433,0.371-1.393
		c0.425,0.031,0.536,1.255,0.731,1.527c0.126,0.177,0.188,0.225,0.164,0.373C79.563,81.108,79.562,81.11,79.561,81.112z"/>
	<path fill="#FFFFFF" d="M77.157,72.131c1.15,0.708,1.981,1.312,2.38,1.734c0.672,0.717,1.53,1.89,1.953,2.788
		c0.181,0.381,0.558,1.264,0.821,1.216c0.646-0.118-0.438-2.938-1.497-3.925c-0.256-0.238-0.789-0.729-1.047-1.076
		c-0.609-0.833-1.303-1.302-2.05-1.487C77.423,71.307,77.037,72.057,77.157,72.131z"/>
	<path fill="#FFFFFF" d="M75.016,82.218c-0.415,0.165-0.199,0.449-0.199,0.614c0.206-0.04,0.408-0.084,0.606-0.129
		C75.58,82.402,75.391,82.07,75.016,82.218z"/>
	<path fill="#FFFFFF" d="M75.661,59.799c0.149-0.201,0.718-1.139,0.83-1.358l0,0c-0.152-0.036-0.308-0.069-0.464-0.103
		c-0.057,0.199-0.331,0.84-0.514,1.441C75.438,60.027,75.514,59.995,75.661,59.799z"/>
	<path fill="#FFFFFF" d="M81.633,78.129c-0.157-0.261-0.484-1.062-1.367-2.474c-0.298-0.475-0.647-0.979-1.065-1.351
		c-0.316-0.282-2.058-1.673-2.411-1.542c-0.158,0.057-0.119,0.429-0.034,0.552c0.163,0.239,0.625,0.423,1.156,1.123
		c1.436,1.886,2.106,4.521,2.303,5.595c0.06,0.276,0.102,0.477,0.089,0.609c0.126-0.087,0.248-0.176,0.37-0.266
		c-0.16-0.348-0.296-0.771-0.338-1.249c-0.047-0.535-0.224-1.23,0.117-1.185c0.638,0.083,0.324,0.515,0.813,0.77
		c0.273,0.143,0.515,0.405,0.524,0.719c0.094-0.09,0.188-0.183,0.281-0.276C81.978,78.827,81.741,78.306,81.633,78.129z"/>
	<path fill="#FFFFFF" d="M75.925,62.038c0.715-0.409,1.938-2.14,2.215-3.176c-0.235-0.066-0.476-0.13-0.718-0.193
		c-0.881,1.104-1.9,2.251-2.172,2.741C75.188,61.516,75.725,62.152,75.925,62.038z"/>
	<path fill="#FFFFFF" d="M84.874,66.921c0.238-0.11,1.042,0.116,1.003,0.026c-0.026-0.054-0.065-0.11-0.116-0.164
		c-0.213-0.225-0.561-0.492-0.812-0.543c-0.476-0.096-1.282-0.008-1.767-0.052c-0.579-0.054-0.677-0.271-1.257-0.221
		c-0.385,0.032-0.798,0.113-0.877,0.352c-0.046,0.137,0.198,0.155,0.397,0.162c0.384,0.011,1.646,0.253,1.985,0.431
		c0.122,0.062,1.205,0.811,1.32,0.795C84.867,67.689,84.623,67.038,84.874,66.921z"/>
	<path fill="#FFFFFF" d="M81.731,63.28c1.26-0.412,2.998-0.467,2.924-0.545c-0.3-0.312-0.937-0.456-1.393-0.442
		c-0.963,0.027-1.835,0.232-2.723,0.607c-0.81,0.343-2,0.405-2.811,1.535c-0.105,0.148,0.207,0.745,0.317,0.687
		c0.27-0.142,0.887-0.571,1.135-0.75C79.857,63.889,80.955,63.534,81.731,63.28z"/>
	<path fill="#FFFFFF" d="M85.407,69.378c-0.096,0.061,0.03,0.137,0.235,0.383c0.124,0.149,0.27,0.18,0.275,0.088
		c0.027-0.404-0.293-0.825-0.496-0.839C85.269,69,85.51,69.312,85.407,69.378z"/>
	<path fill="#FFFFFF" d="M79.371,59.228c-0.184-0.058-0.37-0.115-0.561-0.172C78.533,59.652,78.515,60.086,79.371,59.228z"/>
	<path fill="#FFFFFF" d="M76.613,62.666c-0.117,0.246,0.205,0.845,0.44,0.756c1.151-0.432,2.629-2.549,3.804-3.677
		c0.004-0.004,0.009-0.008,0.015-0.011c-0.202-0.072-0.407-0.145-0.619-0.217C78.703,60.513,77.093,61.667,76.613,62.666z"/>
	<path fill="#FFFFFF" d="M79.156,62.725c0.226,0.249,2.494-0.903,2.833-1.228c0.372-0.354,0.01-1.145,0.229-1.253
		c-0.171-0.068-0.349-0.137-0.531-0.207c-0.527,0.367-1.372,1.048-1.823,1.5C79.49,61.913,78.97,62.519,79.156,62.725z"/>
	<path fill="#FFFFFF" d="M85.495,68.124c-0.034,0.233,0.314,0.158,0.365,0.042c0.05-0.116-0.1-0.207-0.096-0.304
		c0.006-0.218-0.116-0.279-0.257-0.205C85.16,67.84,85.526,67.899,85.495,68.124z"/>
	<path fill="#FFFFFF" d="M57.003,63.02c0.011-0.064-0.044-0.246-0.211-0.256c-0.11-0.007-0.317,0.148-0.421,0.156
		c-0.197,0.015-0.26-0.118-0.409-0.048c-0.087,0.04-0.109,0.15-0.054,0.222c0.079,0.101,0.557,0.081,0.78,0.137
		C56.939,63.294,56.979,63.163,57.003,63.02z"/>
	<path fill="#FFFFFF" d="M64.052,81.851c0.132-0.229,0.24-1.062-0.099-1.11c-0.163-0.025-0.427,0.487-0.44,0.876
		c0.176,0.091,0.352,0.178,0.529,0.262C64.044,81.869,64.048,81.859,64.052,81.851z"/>
	<path fill="#FFFFFF" d="M57.314,60.814c0.112,0.184-0.056,0.271,0.034,0.407c0.098,0.147,0.741-0.124,0.737-0.273
		c-0.003-0.193-0.372-0.215-0.424-0.255c-0.012-0.009-0.018-0.019-0.018-0.03c-0.116,0.051-0.227,0.101-0.333,0.149
		C57.313,60.812,57.313,60.813,57.314,60.814z"/>
	<path fill="#FFFFFF" d="M59.799,60.498c0.2,0.274,0.366,0.629,0.636,0.813c0.272,0.186,0.928,0.535,1.084,0.297
		c0.083-0.127-1.163-0.916-1.516-1.186c-0.312-0.239-0.635-0.383-0.633-0.476c-0.099,0.038-0.196,0.076-0.292,0.114
		C59.185,60.208,59.256,60.305,59.799,60.498z"/>
	<path fill="#FFFFFF" d="M65.08,81.858c0.17-0.188,0.228-0.529,0.271-0.663c0.192-0.592,0.264-1.187,0.556-1.74
		c0.319-0.604,0.78-1.17,0.87-1.864c0.05-0.389,0.324-0.603,0.517-0.987c0.232-0.463,0.471-0.747,0.945-1.481
		c0.108-0.167-0.027-0.245-0.442-0.415c-0.344-0.143-0.566-0.034-0.679,0.076c-0.501,0.489-1.078,1.661-1.405,2.34
		c-0.304,0.628-0.496,1.491-0.55,2.127c-0.038,0.424-0.058,0.837-0.115,1.259c-0.041,0.297-0.259,0.556-0.312,1.209
		c-0.013,0.16-0.011,0.337-0.048,0.447c0.052,0.023,0.105,0.045,0.158,0.066C64.842,82.141,64.93,82.025,65.08,81.858z"/>
	<path fill="#FFFFFF" d="M60.539,63.599c0.35,0.061,0.584,0.121,0.928,0.27c0.181,0.079,1.244,0.618,1.271,0.561
		c0.07-0.155-0.656-0.391-1.252-0.773c-0.574-0.369-3.383-1.234-3.447-1.076c-0.083,0.202-0.014,0.391,0.185,0.605
		c0.268,0.288,0.736,0.243,1.097,0.283C59.674,63.508,60.21,63.543,60.539,63.599z"/>
	<path fill="#FFFFFF" d="M63.625,63.674c-0.324-0.69-1.697-1.138-2.408-1.275c-1.209-0.233-2.861-1.078-3.221-0.754
		c-0.503,0.455,4.015,1.287,5.292,2.259C63.453,64.03,63.687,63.804,63.625,63.674z"/>
	<path fill="#FFFFFF" d="M65.939,73.841c-0.373,0.176-0.909,0.744-1.382,1.662c-0.545,1.058-1.554,3.943-1.613,4.333
		c-0.047,0.313-0.064,0.483,0.097,0.511c0.477,0.081,0.136-0.611,0.443-0.965c0.436-0.505,0.907,0.359,1.079-0.002
		c0.053-0.113,0.071-0.779,0.21-1.337c0.39-1.558,1.302-2.874,1.786-3.761C66.669,74.079,66.13,73.75,65.939,73.841z"/>
	<path fill="#FFFFFF" d="M70.212,81.462c-0.002-0.43,0.054-0.861,0.083-1.289c0.048-0.693,0.172-1.395,0.174-2.09
		c0-0.513-0.105-2.429-0.233-2.765c-0.025-0.063-0.295-0.083-0.303,0.023c-0.021,0.354-0.064,0.772-0.118,1.099
		c-0.086,0.524-0.194,1.013-0.345,1.515c-0.212,0.705-0.715,1.437-0.736,2.188c-0.009,0.359,0.017,0.626-0.003,0.957
		c-0.021,0.353-0.564,1.252-0.167,1.279c0.273,0.02,0.154-2.617,1.073-2.268c0.455,0.175,0.076,1.075,0.059,1.333
		c-0.017,0.251-0.052,0.709,0.021,1.129c0.033,0.193,0.236,0.614,0.044,0.732c0.229,0.007,0.457,0.007,0.682-0.003
		c0.009,0,0.019-0.001,0.029-0.001C70.226,83.009,70.212,81.571,70.212,81.462z"/>
	<path fill="#FFFFFF" d="M85.024,73.936c-0.099-0.576-0.33-1.453-0.462-1.853c-0.174-0.526-0.666-0.961-0.872-1.492
		c-0.2-0.524,0.163-0.743-0.488-0.979c-0.168-0.06-0.915-0.251-1.039,0c-0.093,0.191,0.339,0.387,0.446,0.475
		c0.37,0.303,0.691,0.664,0.999,1.03c0.324,0.389,0.621,0.705,0.671,1.235c0.046,0.492,0.207,0.832,0.252,0.993
		c0.077,0.281-0.021,0.529,0.011,0.807c0.044,0.356,0.183,0.63-0.024,0.953c-0.128,0.198-0.824,0.146-0.996,0.287
		c-0.144,0.118,0.216,0.913,0.56,1.221c0.329-0.508,0.645-1.042,0.951-1.604c0.105-0.192,0.204-0.386,0.297-0.579
		C85.268,74.444,85.066,74.183,85.024,73.936z"/>
	<path fill="#FFFFFF" d="M59.948,78.498L59.948,78.498c0.028-0.105,0.084-0.308,0.094-0.327c0.193-0.497,0.509-0.197,0.791-0.417
		c0.175-0.135,1.178-2.312,1.08-2.485c-0.232-0.408-1.45,1.324-1.83,2.034c-0.167,0.312-0.164,0.812-0.26,1.033
		c-0.057,0.129-0.2,0.305-0.333,0.342c0.136,0.136,0.274,0.27,0.414,0.398C59.867,78.878,59.905,78.652,59.948,78.498z"/>
	<path fill="#FFFFFF" d="M66.616,82.219c-0.044,0.017-0.085,0.428-0.083,0.59c0.119,0.033,0.239,0.064,0.357,0.094
		C66.821,82.63,66.811,82.148,66.616,82.219z"/>
	<path fill="#FFFFFF" d="M69.422,75.293c0.003-0.103-0.246-0.192-0.352-0.113c-0.683,0.51-1.433,3.963-1.419,5.154
		c0.006,0.43-0.111,1.062,0.286,1.3c0.177,0.106,0.276-1.249,0.44-2.088c0.161-0.824,0.47-1.583,0.604-2.431
		C69.016,76.882,69.41,75.882,69.422,75.293z"/>
	<path fill="#FFFFFF" d="M59.908,76.574c-0.076,0.007-0.153,0.1-0.177,0.125c-0.061,0.06-0.101,0.156-0.116,0.226
		c-0.02,0.096,0.05,0.169,0.17,0.127c0.131-0.08,0.104-0.144,0.146-0.207c0.064-0.102,0.109-0.146,0.11-0.17
		C60.044,76.603,59.96,76.567,59.908,76.574z"/>
	<path fill="#FFFFFF" d="M65.953,82.257c0,0,0-0.002,0-0.002c0.047-0.087,0.066-0.162,0.068-0.229
		c0.065-0.32,0.032-0.663-0.144-0.546c-0.125,0.083-0.301,0.379-0.334,0.501c-0.036,0.128,0.006,0.392-0.052,0.496
		c0.124,0.045,0.247,0.087,0.372,0.127C65.879,82.489,65.942,82.284,65.953,82.257z"/>
	<path fill="#FFFFFF" d="M67.314,83.004c0.262,0.057,0.522,0.105,0.781,0.146c-0.215-0.205-0.312-0.646-0.387-0.857
		c0-0.002,0-0.003-0.001-0.005c-0.045-0.176-0.146-0.402-0.316-0.688c-0.223-0.373-0.199-0.82-0.229-1.254
		c-0.045-0.685,0.333-1.882,0.054-2.117c-0.091-0.076-0.521,0.763-0.608,0.987c-0.138,0.356-0.48,0.854-0.124,0.916
		c0.675,0.116,0.176,1.235,0.611,1.524c0.241,0.159,0.331,0.371,0.367,0.564l0,0C67.479,82.459,67.474,82.874,67.314,83.004z"/>
	<path fill="#FFFFFF" d="M55.684,70.253c0.031-0.089,0.182-0.168,0.169-0.289c0-0.025-0.037-0.067-0.061-0.067
		c-0.113-0.014-0.206,0.045-0.34,0.319c-0.046,0.094-0.126,0.116-0.202,0.08c0.022,0.155,0.048,0.31,0.075,0.464
		C55.427,70.699,55.576,70.562,55.684,70.253z"/>
	<path fill="#FFFFFF" d="M60.431,59.96c0.119,0.125,0.233,0.253,0.373,0.349c0.262,0.181,0.565,0.249,0.832,0.425
		c0.594,0.393,0.618,0.791,0.886,1.089c0.297,0.329,1.201,0.978,1.648,1.109c0.138,0.041,0.407-0.427,0.267-0.589
		c-0.394-0.451-1.783-1.457-2.17-1.812c-0.271-0.248-0.5-0.46-0.845-0.606c-0.169-0.072-0.77-0.274-0.845-0.419
		c-0.18,0.062-0.355,0.125-0.526,0.188C60.108,59.695,60.282,59.81,60.431,59.96z"/>
	<path fill="#FFFFFF" d="M66.329,59.195c0.177,0.098,0.558,1.229,0.839,1.295c0.051,0.013,0.287-0.086,0.284-0.164
		c-0.005-0.239-0.381-0.598-0.551-0.869c-0.155-0.247-0.551-0.896-0.71-1.413c-0.158,0.025-0.314,0.054-0.47,0.083
		C65.831,58.219,66.179,59.113,66.329,59.195z"/>
	<path fill="#FFFFFF" d="M55.89,64.09c0.113-0.054,0.445-0.223,0.425-0.319c-0.014-0.063-0.261-0.023-0.383-0.118
		c-0.17-0.13-0.469,0.267-0.408,0.448C55.566,64.219,55.769,64.148,55.89,64.09z"/>
	<path fill="#FFFFFF" d="M58.588,77.696c0.048,0.056,0.096,0.111,0.144,0.169C58.913,77.475,58.749,77.623,58.588,77.696z"/>
	<path fill="#FFFFFF" d="M67.309,58.731c0.178,0.318,0.633,1.233,0.75,1.359c0.084,0.09,0.444,0.01,0.43-0.106
		c-0.095-0.797-0.626-1.791-0.815-2.144c-0.295,0.034-0.587,0.07-0.877,0.113C67.011,58.266,67.25,58.625,67.309,58.731z"/>
	<path fill="#FFFFFF" d="M56.822,75.09c0.084,0.159,0.173,0.316,0.264,0.471c0.013-0.086,0.094-0.1,0.141-0.247
		C57.3,75.078,57.073,74.996,56.822,75.09z"/>
	<path fill="#FFFFFF" d="M56.473,73.31c0.004-0.078-0.267-0.111-0.453-0.002c0.037,0.098,0.074,0.194,0.112,0.29
		C56.177,73.518,56.46,73.535,56.473,73.31z"/>
	<path fill="#FFFFFF" d="M69.007,59.886c0.036,0.149,0.444,0.042,0.387-0.117c-0.481-1.351-0.188-1.314-0.507-2.013
		c-0.003-0.007-0.005-0.014-0.005-0.021c-0.22,0.014-0.438,0.03-0.657,0.05C68.546,58.319,68.816,59.092,69.007,59.886z"/>
	<path fill="#FFFFFF" d="M57.605,65.896c0.248-0.089,0.479-0.236,0.739-0.274c0.271-0.04,0.682-0.022,1.13-0.108
		c0.249-0.047,0.56-0.04,0.634-0.143c0.063-0.088,0.087-0.196-0.098-0.22c-0.179-0.023-0.92-0.042-1.086-0.027
		c-0.408,0.04-0.698-0.008-1.113,0.003c-0.562,0.013-0.866,0.365-0.984,0.681c-0.045,0.121-0.049,0.283,0.079,0.296
		C57.125,66.13,57.493,65.937,57.605,65.896z"/>
	<path fill="#FFFFFF" d="M62.931,65.485c0.062-0.266-0.36-0.474-0.561-0.553c-0.224-0.088-0.574-0.286-0.867-0.365
		c-0.439-0.118-0.917-0.418-1.724-0.515c-0.212-0.026-1.095-0.025-1.212-0.03c-0.487-0.028-0.992,0.047-1.518,0.093
		c-0.379,0.033-0.931,0.194-1.07,0.41c-0.037,0.058-0.003,0.17,0.211,0.124c0.617-0.134,1.07-0.179,1.593-0.239
		c0.272-0.032,0.648-0.014,0.933-0.021c0.471-0.012,0.782,0.055,1.25,0.126c0.72,0.109,1.375,0.274,1.989,0.731
		c0.095,0.07,0.39,0.308,0.53,0.329C62.664,65.6,62.848,65.608,62.931,65.485z"/>
	<path fill="#FFFFFF" d="M57.402,68.218c-0.199,0.157-0.35,0.324-0.571,0.459c-0.248,0.154-0.463,0.266-0.637,0.593
		c-0.021,0.039-0.024,0.132,0,0.169c0.061,0.061,0.085-0.023,0.121-0.061c0.073-0.072,0.24-0.246,0.415-0.337
		c0.19-0.101,0.656-0.369,0.805-0.45c0.313-0.168,0.509-0.311,0.812-0.462c0.436-0.218,0.833-0.35,1.249-0.416
		c0.21-0.034,1.36-0.219,1.708-0.245c0.256-0.018,0.514-0.014,0.771-0.026c0.14-0.007,0.476,0.033,0.596-0.059
		c0.067-0.051,0.126-0.31,0.128-0.53c0.002-0.355-0.196-0.323-0.476-0.437c-0.627-0.255-1.271-0.428-1.962-0.392
		c-0.655,0.035-1.312,0.079-1.958,0.183c-0.283,0.045-0.581,0.084-0.851,0.181c-0.181,0.065-1.196,0.432-1.14,0.689
		c0.054,0.23,1.536-0.058,1.451,0.757C57.846,67.992,57.508,68.134,57.402,68.218z"/>
	<path fill="#FFFFFF" d="M64.952,59.531c0.186,0.174,1.165,1.249,1.405,1.432c0.034,0.025,0.189-0.06,0.19-0.093
		c0.009-0.246-1.394-2.32-1.387-2.634c-0.354,0.071-0.701,0.148-1.043,0.229C64.375,58.631,64.84,59.426,64.952,59.531z"/>
	<path fill="#FFFFFF" d="M61.474,59.203c0.2,0.043,0.405,0.183,0.585,0.296c0.605,0.391,1.565,1.252,1.522,1.054
		c-0.034-0.161-0.588-0.853-1.218-1.56c-0.018-0.02-0.024-0.039-0.021-0.057C62.047,59.023,61.757,59.113,61.474,59.203z"/>
	<path fill="#FFFFFF" d="M63.824,59.906c0.358,0.445,0.78,0.831,1.172,1.244c0.13,0.137,0.309,0.408,0.512,0.471
		c0.146,0.045,0.425-0.211,0.39-0.31c-0.146-0.414-1.005-0.972-1.419-1.476c-0.139-0.169-0.505-0.527-0.633-0.702
		c-0.075-0.103-0.26-0.403-0.284-0.531c-0.24,0.062-0.476,0.125-0.708,0.189C63.202,59.019,63.627,59.66,63.824,59.906z"/>
</g>
</svg>
