<?xml version="1.0" encoding="utf-8"?>
<!-- Generator: Adobe Illustrator 16.0.0, SVG Export Plug-In . SVG Version: 6.00 Build 0)  -->
<!DOCTYPE svg PUBLIC "-//W3C//DTD SVG 1.1//EN" "http://www.w3.org/Graphics/SVG/1.1/DTD/svg11.dtd">
<svg version="1.1" id="Layer_1" xmlns="http://www.w3.org/2000/svg" xmlns:xlink="http://www.w3.org/1999/xlink" x="0px" y="0px"
	 width="141.732px" height="141.73px" viewBox="0 0 141.732 141.73" enable-background="new 0 0 141.732 141.73"
	 xml:space="preserve">
<g>
	<path fill="#FFFFFF" d="M77.574,60.804c0.101,0.326,0.24,0.547,0.41,0.683c0.918,0.74,2.139-1.402,2.863-2.658
		c1.474-2.576,3.087-6.107,2.602-9.037c-0.211-1.314-1.338-5.289-2.658-5.62c-3.111-0.783-2.09,3.282-1.562,5.772
		c0.437,2.055,0.116,5.347-0.185,7.435C78.913,58.276,77.341,60.062,77.574,60.804z"/>
	<path fill="#FFFFFF" d="M87.092,18.157c-0.788,2.093-3.306,4.731-4.63,9.816c-0.227,0.877,3.388,2.386,4.035,1.962
		c2.704-1.775,3.791-9.115,4.312-11.167c-1.229-0.237-2.462-0.462-3.711-0.668C87.098,18.12,87.098,18.138,87.092,18.157z"/>
	<path fill="#FFFFFF" d="M79.855,21.111c-0.958,1.786-0.903,2.781-1.114,5.063c-0.133,1.421,0.735,1.308,1.113,0.49
		c1.683-3.626,3.466-6.068,4.919-8.923c-1.006-0.149-2.021-0.286-3.033-0.411C81.494,19.094,80.519,19.876,79.855,21.111z"/>
	<path fill="#FFFFFF" d="M98.507,100.234c-0.407-1.993-2.612-7.303-3.213-8.989c-1.027-2.902-0.661-5.579-4.796-2.67
		c-1.456,1.016-2.572,1.708-2.303,2.462c1.075,3.011,5.02,9.197,6.149,15.838c0.738,4.312,0.712,13.384,2.239,13.943
		c0.38,0.136,1.929-1.631,1.952-3.817c0.021-1.699-0.207-2.508,0.201-3.893C99.241,111.359,99.401,104.641,98.507,100.234z"/>
	<path fill="#FFFFFF" d="M125.742,47.014c1.158,0.242,9.29,3.768,10.07,3.263c0.407-0.265,0.271-1.342-0.062-1.85
		c-0.683-1.041-2.08-1.312-3.195-1.852c-1.055-0.508-2.069-1.049-2.86-1.882c-1.038-1.091-1.969-2.472-3.65-2.446
		c-0.324,0.007-2.317,0.077-3.719,0.396c-4.517,1.032-8.973,2.879-12.561,4.826c-1.262,0.688-4.099,2.173-3.755,2.923
		c0.581,1.27,5.987-2.232,10.962-2.993C119.974,46.944,122.738,46.39,125.742,47.014z"/>
	<path fill="#FFFFFF" d="M74.276,123.647c-0.692,0.572-0.915,1.363-1.387,2.055c-0.636,0.931-1.521,2.201-0.832,2.229
		c2.078,0.084,2.324-1.427,2.886-2.427c0.33-0.589,1.096-1.901,0.728-2.431C75.374,122.651,74.689,123.319,74.276,123.647z"/>
	<path fill="#FFFFFF" d="M124.458,49.227c-0.265-0.006-0.677,0.247-1.277,0.549c-0.514,0.254-0.321,0.707,1.321,0.914
		c1.915,0.242,1.806,0.035,1.444-0.725C125.669,49.364,124.719,49.23,124.458,49.227z"/>
	<path fill="#FFFFFF" d="M28.646,114.658c0.665,0.502,1.332,0.988,2.009,1.463c0.005-2.322,0.699-9.2,2.5-9.937
		c1.39-0.579,1.52,1.144,1.997,0.788c1.875-1.39,2.456-7.38,6.477-14.879c1.902-3.548,6.248-7.224,5.025-8.509
		c0,0-1.365-1.779-3.137-3.813c-0.84-0.966-0.772-2.9-0.503-3.978c0.13-0.518,0.489-0.729,0.9-1.066
		c0.581-0.47,2.06-0.196,2.909-0.715c2.437-1.495,4.53-0.923,4.706-1.834c0.254-1.344,1.756-3.255,1.328-4.37
		c-0.098-0.253-0.423-2.361-0.369-3.162c0-1.976-3.836-2.863-5.174-2.916c-1.323-0.051-3.797,0.305-5.207,0.516
		c-2.386,0.361-4.946,0.564-5.32,0.013c-0.34-0.504-0.566-0.411-1.244-0.44c-3.123-0.126-5.77,0.064-8.474,0.217
		c-3.044,0.169-5.643,0.973-8.397,1.86c-0.94,0.305-3.574,1.44-5.871,2.688c-2.12,1.152-4.071,2.372-4.66,2.997
		c-0.579,0.61-1.21,1.771-0.786,2.096c0.793,0.605,7.172-5.982,19.045-5.288c1.53,0.087,3.726-1.665,3.702,0.024
		c-0.026,1.623-1.323,3.516-3.702,3.246c-4.921-0.56-11.458,0.181-15.299,2.899c-0.942,0.666-3.562,2.285-4.934,2.459
		c-0.41,0.051-1.496,0.438-2.507,1.417c0.131,0.599,0.271,1.199,0.425,1.797c0.33-0.714,6.853-4.121,7.27-4.301
		c1.228-0.514,3.932-1.109,4.695,0.246c0.916,1.616-1.845,2.444-0.838,3.625c0.337,0.394,2.128-1.07,3.034-1.682
		c1.428-0.967,3.796-1.321,7.541-2.924c3.551-1.522,3.158,1.761,2.667,2.185c-1.07,0.93-3.859,1.284-5.225,1.559
		c-4.005,0.789-5.898,2.573-8.235,3.983c-0.803,0.486-1.746,1.268-2.416,1.915c-1.165,1.122-2.937,2.484-4.195,3.969
		c-0.474,0.485-0.716,1.027-0.923,1.256c0.207,0.47,0.419,0.94,0.635,1.403c0.084-0.302,0.519-0.298,1.406-0.456
		c0.803-0.147,3.175-3.288,3.965-3.852c1.435-1.019,2.218-2.483,3.826-1.771c1.962,0.873,1.609,2.618,0.667,4.219
		c-0.893,1.512-2.186,3.145-2.965,4.716c-0.827,1.66-1.311,3-1.479,4.079c-0.154,1.006-0.433,1.403-0.805,1.337
		c0.196,0.299,0.396,0.593,0.595,0.888c0.709-1.52,1.932-4.689,2.716-5.949c2.699-4.334,6.03-7.379,7.895-8.675
		c0.837-0.586,2.015-1.723,2.906-2.312c0.666-0.446,3.568-1.495,2.528,0.999c-0.184,0.443-4.488,3.078-7.014,5.471
		c-1.823,1.724-7.289,9.587-8.036,11.889c0.261,0.365,0.528,0.723,0.797,1.082c0.319-0.298,3.577-3.719,4.117-5.11
		c0.553-1.413,2.126-2.745,3.367-2.75c1.694-0.011,1.911,0.636,1.457,2.459c-0.203,0.821,0.016,1.414,0.309,1.752
		c2.499-2.34,5.98-6.855,5.609-6.387c-0.359,0.447,2.203-2.901,2.632-3.195c1.781-1.225,4.044-0.747,4.087,1.449
		c0.033,1.646-2.577,6.028-3.304,7.684c-1.017,2.326-2.292,4.808-3.468,7.169c-2.57,5.18-0.937,9.836-1.246,10.452
		C28.653,114.654,28.648,114.654,28.646,114.658z"/>
	<path fill="#FFFFFF" d="M104.709,55.506c0.955,0.021,3.776-0.363,5.222-0.417c2.188-0.086,2.319-0.391,1.485-0.805
		c-1.668-0.831-5.933-0.742-7.446-0.063C103.774,54.308,103.629,55.481,104.709,55.506z"/>
	<path fill="#FFFFFF" d="M126.462,102.711c-0.507-2.932-2.013-7.3-3.622-10.502c-1.155-2.285-3.145-5.014-3.17-7.638
		c-0.009-1.365,0.821-1.409-0.132-2.401c-0.688-0.717-3.029-1.589-3.893-1.981c-2.553-1.157-6.329-3.887-7.027-3.274
		c-0.712,0.618,3.612,5.261,5.859,7.155c5.572,4.683,8.545,12.824,9.021,14.303c0.469,1.449,1.009,4.218,0.712,7.294
		C124.979,104.711,125.726,103.727,126.462,102.711z"/>
	<path fill="#FFFFFF" d="M66.525,25.499c0.198,0.647,0.809,0.514,0.837-0.098c0.191-3.927-0.523-7.335-0.853-8.867c0,0,0,0,0-0.003
		c-0.644,0.016-1.29,0.037-1.933,0.063C65.591,18.935,64.898,20.133,66.525,25.499z"/>
	<path fill="#FFFFFF" d="M133.659,73.89c0.301,0.299-0.13,1.514,0.54,1.936c1.31,0.82,1.826-0.506,1.418-1.724
		c-0.132-0.409-1.384-1.813-1.673-2.045c-0.457-0.375-2.251-2.386-3.216-1.195C129.595,72.262,132.709,72.951,133.659,73.89z"/>
	<path fill="#FFFFFF" d="M130.173,67.845c0.154,0.032,0.292,0.074,0.422,0.119c0.68,0.235,1.137,0.565,1.916,0.068
		c-0.315-4.542-4.844-7.368-9.002-8.737c-8.312-2.738-12.435-1.925-18.99-1.005c-0.787,0.113-0.917,4.02-0.21,4.389
		c1.043,0.551,2.65,0.78,3.626,0.866c2.359,0.206,4.415,0.99,6.715,1.512c2.66,0.608,5.438,0.362,8.123,0.855
		C125.279,66.373,127.675,67.326,130.173,67.845z"/>
	<path fill="#FFFFFF" d="M125.88,86.671c-0.601-0.976-2.029-2.59-2.919-1.873c-0.785,0.639,2.427,5.61,3.772,6.773
		c0.534,0.456,1.084,0.154,0.598-0.292C124.835,89.011,126.548,87.776,125.88,86.671z"/>
	<path fill="#FFFFFF" d="M127.357,81.239c-0.503-1.459-1.575-2.723-2.554-3.929c-0.004-0.003-0.007-0.006-0.007-0.01
		c-1.166-1.446-2.413-3.479-3.967-4.536c-2.366-1.605-5.553-3.556-6.395-3.888c-1.808-0.718-7.596-2.858-10.465-3.006
		c-1.388-0.069-1.868,5.926-1.226,6.312c1.031,0.618,3.9,1.446,5.028,1.699c2.427,0.543,5.445,2.112,7.594,3.407
		c2.591,1.558,5.521,2.775,7.996,4.456c0.648,0.439,4.224,2.835,4.094,3.703C127.852,84.555,127.68,82.218,127.357,81.239z"/>
	<path fill="#FFFFFF" d="M68.923,20.427c0.037,0.728,0.172,4.099,0.662,5.225c0.142,0.325,1.306,0.413,1.404,0.091
		c1.258-3.977,0.492-6.793,1.165-9.174c-1.16-0.042-2.317-0.064-3.481-0.064c-0.065,0-0.133,0.001-0.198,0.001
		C68.779,18.019,68.864,19.306,68.923,20.427z"/>
	<path fill="#FFFFFF" d="M70.49,119.092c-0.047,1.784-0.259,3.846,0.225,4.226c0.706,0.547,1.132-0.752,1.894-1.763
		c3.007-4.003,5.288-11.186,5.732-17.059c0.144-1.919,0.962-7.319,0.357-10.927c-0.206-1.233-6.565-1.386-6.695-0.174
		c-0.342,3.178-0.271,7.011-0.156,9.552c0.262,5.706-1.186,10.629-1.357,16.132C70.49,119.079,70.49,119.088,70.49,119.092z"/>
	<path fill="#FFFFFF" d="M75.247,26.46c1.689-3.12,1.049-3.977,2.904-6.805c0.801-1.223,0.975-1.733,1.27-2.584
		c-1.577-0.161-3.159-0.292-4.751-0.384c-0.354,2.1-1.158,3.56-1.432,9.479C73.222,26.518,74.972,26.969,75.247,26.46z"/>
	<path fill="#FFFFFF" d="M93.466,119.538c0.301-8.439-1.799-18.615-7.397-27.278c-0.792-1.231-3.502-0.953-3.534,0.078
		c-0.138,0.344-0.119,1.203-0.157,1.516c-0.307,2.651-0.075,5.531,0.433,8.142c0.466,2.382,0.789,4.312,1.082,6.772
		c0.73,6.149,0.263,14.364,0.21,15.146c-0.049,0.839-0.101,1.481-0.802,1.471c-1.025-0.017-1.038-0.959-1.107-1.884
		c-0.09-1.221,0.621-6.832,0.124-12.932c-0.203-2.54-0.866-3.955-1.532-3.905c-0.748,0.056-0.868,2.646-1.543,5.212
		c-0.797,3.03-1.39,4.282-1.525,5.817c-0.083,0.99,0.046,1.572,0.41,1.636c0.742,0.159,0.781,1.101,0.856,1.892
		c0.108,1.155,0.635,0.842,0.751,2.036c0.272,2.758,0.037,4.152-0.565,4.521c-0.021,0.018-0.053,0.029-0.084,0.044
		c2.183-0.231,4.271-0.513,6.283-0.846c-0.313-1.72,1.626-2.993,1.823-5.653c0.049-0.584-1.185-6.773,1.119-6.969
		c1.686-0.14,1.701,0.926,2.834,2.959c1.305,2.344,1.959,5.825,2.064,8.018c0.609-0.157,1.21-0.323,1.803-0.495
		C94.566,124.334,93.423,120.852,93.466,119.538z"/>
	<path fill="#FFFFFF" d="M109.068,118.918c0.48-0.274,0.954-0.566,1.424-0.859c-0.479-0.157-0.442-0.895-0.626-1.907
		c-0.248-1.376-2.704-10.44-5.478-16.81c-0.989-2.279-3.898-8.549-6.517-10.743c-0.622-0.522-1.268,0.175-1.032,0.679
		c0.466,0.979,3.033,7.245,3.803,10.639c1.224,5.379,0.94,9.687,0.84,12.742c-0.046,1.596-0.188,3.526-0.67,5.065
		c-0.245,0.787-1.4,2.832-2.177,4.27c-0.44,0.712-0.934,0.583-1.229,1.13c-0.179,0.369,0.129,0.638,0.046,0.962
		c1.985-0.644,3.868-1.361,5.667-2.143c-0.696-0.346,0.189-1.665,0.413-5.269c0.109-1.736-0.791-6.266,1.621-6.091
		c1.859,0.136,2.349,5.487,3.201,6.681c0.551,0.768,0.823,0.982,0.72,1.628C109.078,118.904,109.071,118.91,109.068,118.918z"/>
	<path fill="#FFFFFF" d="M98.557,79.653c5.028,3.095,8.661,5.735,10.401,7.583c2.941,3.13,6.689,8.26,8.538,12.189
		c0.79,1.663,2.443,5.523,3.594,5.315c2.822-0.515-1.915-12.849-6.547-17.161c-1.114-1.043-3.451-3.182-4.573-4.706
		c-2.668-3.642-5.701-5.688-8.965-6.504C99.719,76.048,98.03,79.33,98.557,79.653z"/>
	<path fill="#FFFFFF" d="M89.199,123.75c-1.814,0.721-0.876,1.965-0.876,2.691c0.901-0.182,1.788-0.369,2.656-0.568
		C91.66,124.558,90.834,123.104,89.199,123.75z"/>
	<path fill="#FFFFFF" d="M92.014,25.731c0.651-0.877,3.137-4.978,3.632-5.936l0,0c-0.671-0.156-1.35-0.303-2.03-0.451
		c-0.251,0.873-1.447,3.672-2.248,6.3C91.039,26.726,91.372,26.591,92.014,25.731z"/>
	<path fill="#FFFFFF" d="M118.125,105.876c-0.691-1.142-2.118-4.646-5.981-10.816c-1.3-2.072-2.827-4.277-4.656-5.904
		c-1.383-1.233-8.993-7.312-10.541-6.744c-0.691,0.249-0.522,1.877-0.152,2.418c0.715,1.042,2.732,1.844,5.06,4.907
		c6.275,8.244,9.21,19.766,10.065,24.464c0.262,1.208,0.446,2.082,0.39,2.658c0.55-0.379,1.087-0.766,1.618-1.159
		c-0.699-1.52-1.296-3.369-1.479-5.461c-0.203-2.339-0.979-5.38,0.516-5.179c2.785,0.365,1.413,2.253,3.555,3.365
		c1.196,0.621,2.25,1.772,2.289,3.144c0.41-0.396,0.826-0.8,1.23-1.207C119.635,108.928,118.594,106.651,118.125,105.876z"/>
	<path fill="#FFFFFF" d="M93.169,35.521c3.126-1.788,8.476-9.357,9.683-13.888c-1.031-0.288-2.081-0.571-3.143-0.846
		c-3.847,4.83-8.307,9.845-9.494,11.985C89.949,33.24,92.297,36.021,93.169,35.521z"/>
	<path fill="#FFFFFF" d="M132.296,56.867c1.04-0.483,4.556,0.505,4.383,0.114c-0.111-0.235-0.283-0.48-0.505-0.716
		c-0.933-0.985-2.451-2.152-3.55-2.376c-2.082-0.417-5.607-0.035-7.724-0.229c-2.533-0.237-2.96-1.181-5.494-0.966
		c-1.682,0.142-3.491,0.493-3.838,1.539c-0.199,0.598,0.866,0.679,1.741,0.707c1.677,0.049,7.192,1.109,8.68,1.882
		c0.53,0.273,5.269,3.546,5.77,3.477C132.263,60.227,131.198,57.381,132.296,56.867z"/>
	<path fill="#FFFFFF" d="M118.555,40.948c5.51-1.802,13.107-2.043,12.783-2.382c-1.311-1.365-4.094-1.994-6.089-1.936
		c-4.208,0.118-8.024,1.018-11.905,2.655c-3.536,1.499-8.742,1.77-12.288,6.712c-0.459,0.644,0.908,3.256,1.389,3
		c1.179-0.618,3.875-2.497,4.963-3.277C110.359,43.614,115.159,42.061,118.555,40.948z"/>
	<path fill="#FFFFFF" d="M134.625,67.614c-0.416,0.263,0.136,0.6,1.03,1.674c0.542,0.653,1.176,0.784,1.203,0.386
		c0.117-1.77-1.279-3.607-2.168-3.672C134.023,65.957,135.076,67.322,134.625,67.614z"/>
	<path fill="#FFFFFF" d="M108.236,23.236c-0.802-0.253-1.62-0.505-2.45-0.753C104.569,25.089,104.496,26.984,108.236,23.236z"/>
	<path fill="#FFFFFF" d="M96.176,38.268c-0.512,1.072,0.895,3.691,1.924,3.305c5.036-1.888,11.5-11.145,16.634-16.074
		c0.018-0.018,0.04-0.034,0.062-0.049c-0.88-0.316-1.78-0.635-2.708-0.949C105.316,28.854,98.276,33.898,96.176,38.268z"/>
	<path fill="#FFFFFF" d="M107.298,38.524c0.981,1.086,10.903-3.949,12.384-5.367c1.625-1.551,0.041-5.008,1-5.481
		c-0.745-0.296-1.52-0.6-2.316-0.905c-2.308,1.604-6.004,4.582-7.974,6.557C108.756,34.971,106.484,37.624,107.298,38.524z"/>
	<path fill="#FFFFFF" d="M135.007,62.131c-0.146,1.018,1.378,0.689,1.599,0.183c0.219-0.509-0.432-0.907-0.419-1.332
		c0.026-0.955-0.506-1.219-1.119-0.896C133.545,60.886,135.146,61.145,135.007,62.131z"/>
	<path fill="#FFFFFF" d="M10.439,39.816c0.05-0.282-0.191-1.076-0.922-1.12c-0.484-0.03-1.386,0.647-1.841,0.684
		c-0.863,0.067-1.135-0.517-1.787-0.212c-0.381,0.175-0.478,0.658-0.235,0.969c0.344,0.442,2.434,0.356,3.411,0.6
		C10.159,41.009,10.333,40.44,10.439,39.816z"/>
	<path fill="#FFFFFF" d="M41.262,122.149c0.573-1.003,1.049-4.643-0.436-4.854c-0.71-0.108-1.865,2.13-1.923,3.832
		c0.769,0.395,1.537,0.775,2.312,1.144C41.225,122.226,41.241,122.189,41.262,122.149z"/>
	<path fill="#FFFFFF" d="M11.801,30.168c0.488,0.802-0.244,1.188,0.147,1.779c0.428,0.642,3.239-0.544,3.227-1.197
		c-0.015-0.845-1.626-0.941-1.857-1.116c-0.053-0.039-0.076-0.084-0.076-0.133c-0.505,0.225-0.992,0.442-1.454,0.652
		C11.792,30.162,11.798,30.164,11.801,30.168z"/>
	<path fill="#FFFFFF" d="M22.663,28.787c0.873,1.2,1.599,2.75,2.781,3.557c1.189,0.811,4.058,2.338,4.743,1.3
		c0.363-0.555-5.087-4.005-6.629-5.186c-1.363-1.044-2.775-1.676-2.768-2.08c-0.43,0.166-0.857,0.332-1.276,0.499
		C19.98,27.519,20.289,27.945,22.663,28.787z"/>
	<path fill="#FFFFFF" d="M45.755,122.177c0.742-0.822,0.995-2.31,1.185-2.895c0.84-2.591,1.153-5.189,2.43-7.611
		c1.393-2.635,3.409-5.112,3.804-8.149c0.219-1.698,1.415-2.634,2.258-4.315c1.016-2.025,2.058-3.268,4.129-6.477
		c0.476-0.73-0.115-1.073-1.93-1.817c-1.503-0.62-2.477-0.146-2.97,0.335c-2.191,2.139-4.715,7.264-6.143,10.228
		c-1.326,2.743-2.165,6.521-2.405,9.301c-0.164,1.854-0.255,3.66-0.504,5.503c-0.175,1.299-1.13,2.433-1.365,5.288
		c-0.058,0.698-0.049,1.469-0.211,1.954c0.23,0.103,0.461,0.194,0.691,0.291C44.713,123.42,45.095,122.913,45.755,122.177z"/>
	<path fill="#FFFFFF" d="M25.902,42.346c1.53,0.263,2.554,0.528,4.055,1.181c0.79,0.343,5.44,2.702,5.556,2.449
		c0.307-0.677-2.867-1.707-5.474-3.381c-2.511-1.614-14.792-5.398-15.074-4.704c-0.363,0.884-0.061,1.71,0.812,2.647
		c1.171,1.258,3.22,1.061,4.793,1.237C22.117,41.946,24.463,42.098,25.902,42.346z"/>
	<path fill="#FFFFFF" d="M39.392,42.672c-1.418-3.019-7.42-4.978-10.53-5.576c-5.287-1.017-12.507-4.712-14.08-3.295
		c-2.204,1.99,17.553,5.625,23.133,9.875C38.641,44.228,39.66,43.242,39.392,42.672z"/>
	<path fill="#FFFFFF" d="M49.51,87.129c-1.632,0.769-3.976,3.253-6.044,7.267c-2.38,4.623-6.793,17.239-7.051,18.945
		c-0.205,1.368-0.283,2.112,0.421,2.231c2.087,0.353,0.595-2.671,1.937-4.22c1.909-2.207,3.969,1.573,4.72-0.01
		c0.23-0.491,0.309-3.404,0.917-5.844c1.704-6.81,5.695-12.561,7.808-16.441C52.7,88.17,50.342,86.731,49.51,87.129z"/>
	<path fill="#FFFFFF" d="M68.189,120.45c-0.01-1.882,0.235-3.768,0.362-5.641c0.208-3.028,0.752-6.1,0.76-9.134
		c0-2.246-0.46-10.622-1.017-12.091c-0.107-0.276-1.292-0.357-1.323,0.108c-0.095,1.544-0.283,3.372-0.516,4.798
		c-0.375,2.294-0.851,4.43-1.51,6.623c-0.928,3.081-3.124,6.281-3.216,9.561c-0.042,1.573,0.072,2.74-0.016,4.19
		c-0.093,1.542-2.467,5.471-0.731,5.592c1.192,0.084,0.675-11.442,4.69-9.912c1.989,0.761,0.333,4.701,0.255,5.828
		c-0.075,1.096-0.225,3.098,0.093,4.934c0.148,0.846,1.036,2.686,0.193,3.201c1.004,0.03,1.997,0.03,2.981-0.011
		c0.042,0,0.086-0.003,0.131-0.007C68.253,127.21,68.192,120.925,68.189,120.45z"/>
	<path fill="#FFFFFF" d="M132.952,87.545c-0.434-2.519-1.444-6.352-2.02-8.099c-0.76-2.298-2.914-4.203-3.813-6.523
		c-0.876-2.292,0.712-3.248-2.135-4.281c-0.733-0.264-4.002-1.103-4.543,0c-0.408,0.835,1.481,1.692,1.951,2.075
		c1.616,1.324,3.024,2.908,4.365,4.51c1.422,1.699,2.719,3.078,2.937,5.401c0.198,2.149,0.907,3.638,1.1,4.341
		c0.34,1.228-0.092,2.312,0.05,3.525c0.19,1.555,0.797,2.751-0.108,4.164c-0.56,0.871-3.605,0.643-4.354,1.257
		c-0.626,0.519,0.942,3.991,2.447,5.338c1.438-2.222,2.816-4.555,4.159-7.011c0.459-0.841,0.889-1.688,1.298-2.533
		C134.016,89.766,133.134,88.628,132.952,87.545z"/>
	<path fill="#FFFFFF" d="M23.312,107.491L23.312,107.491c0.126-0.465,0.369-1.344,0.413-1.434c0.846-2.171,2.226-0.861,3.458-1.821
		c0.765-0.59,5.151-10.112,4.723-10.867c-1.018-1.781-6.339,5.79-8,8.892c-0.732,1.369-0.716,3.555-1.137,4.52
		c-0.251,0.565-0.874,1.333-1.458,1.495c0.593,0.593,1.195,1.176,1.809,1.741C22.961,109.148,23.126,108.161,23.312,107.491z"/>
	<path fill="#FFFFFF" d="M52.471,123.757c-0.193,0.073-0.372,1.871-0.365,2.58c0.522,0.143,1.044,0.279,1.565,0.411
		C53.366,125.553,53.321,123.448,52.471,123.757z"/>
	<path fill="#FFFFFF" d="M64.735,93.474c0.012-0.445-1.074-0.839-1.537-0.493c-2.988,2.229-6.266,17.323-6.204,22.535
		c0.024,1.88-0.486,4.642,1.25,5.684c0.774,0.464,1.207-5.46,1.923-9.133c0.704-3.602,2.057-6.915,2.639-10.626
		C62.963,100.426,64.684,96.049,64.735,93.474z"/>
	<path fill="#FFFFFF" d="M23.142,99.074c-0.335,0.034-0.668,0.439-0.775,0.549c-0.265,0.262-0.439,0.686-0.503,0.986
		c-0.088,0.416,0.215,0.741,0.744,0.555c0.576-0.35,0.457-0.628,0.635-0.905c0.28-0.442,0.479-0.636,0.482-0.743
		C23.733,99.205,23.37,99.051,23.142,99.074z"/>
	<path fill="#FFFFFF" d="M49.57,123.923c0,0,0-0.008,0.002-0.008c0.204-0.379,0.289-0.711,0.296-1
		c0.288-1.4,0.138-2.898-0.628-2.387c-0.542,0.365-1.312,1.656-1.461,2.19c-0.156,0.558,0.028,1.713-0.229,2.168
		c0.541,0.196,1.081,0.379,1.624,0.556C49.246,124.941,49.522,124.043,49.57,123.923z"/>
	<path fill="#FFFFFF" d="M55.523,127.186c1.144,0.249,2.282,0.464,3.414,0.641c-0.938-0.895-1.361-2.819-1.691-3.747
		c-0.001-0.008-0.001-0.015-0.006-0.021c-0.196-0.766-0.64-1.757-1.384-3.004c-0.976-1.631-0.87-3.585-1.001-5.479
		c-0.2-2.998,1.458-8.229,0.236-9.258c-0.398-0.335-2.282,3.331-2.661,4.316c-0.604,1.556-2.097,3.729-0.541,4
		c2.951,0.509,0.769,5.403,2.672,6.671c1.053,0.69,1.448,1.617,1.605,2.467l0,0C56.244,124.806,56.223,126.62,55.523,127.186z"/>
	<path fill="#FFFFFF" d="M4.675,71.438c0.135-0.39,0.792-0.733,0.74-1.264c0-0.11-0.16-0.292-0.267-0.292
		C4.655,69.823,4.25,70.08,3.66,71.28c-0.204,0.411-0.551,0.506-0.882,0.352c0.098,0.677,0.21,1.354,0.326,2.029
		C3.547,73.391,4.204,72.794,4.675,71.438z"/>
	<path fill="#FFFFFF" d="M25.428,26.432c0.518,0.546,1.019,1.109,1.628,1.527c1.146,0.789,2.47,1.089,3.635,1.859
		c2.597,1.718,2.702,3.458,3.875,4.758c1.301,1.438,5.251,4.275,7.208,4.85c0.602,0.178,1.781-1.867,1.163-2.575
		c-1.719-1.973-7.795-6.368-9.486-7.924c-1.184-1.084-2.186-2.012-3.695-2.651c-0.738-0.315-3.367-1.198-3.695-1.834
		c-0.786,0.273-1.555,0.547-2.304,0.822C24.012,25.275,24.777,25.78,25.428,26.432z"/>
	<path fill="#FFFFFF" d="M51.215,23.091c0.772,0.426,2.439,5.374,3.669,5.665c0.226,0.056,1.254-0.377,1.242-0.716
		c-0.025-1.043-1.666-2.612-2.411-3.8c-0.677-1.081-2.407-3.915-3.104-6.175c-0.689,0.112-1.374,0.234-2.054,0.361
		C49.034,18.827,50.559,22.729,51.215,23.091z"/>
	<path fill="#FFFFFF" d="M5.576,44.491c0.493-0.238,1.944-0.976,1.858-1.395c-0.058-0.279-1.141-0.104-1.674-0.518
		C5.018,42.01,3.71,43.746,3.98,44.535C4.158,45.054,5.045,44.745,5.576,44.491z"/>
	<path fill="#FFFFFF" d="M17.368,103.981c0.208,0.247,0.417,0.49,0.629,0.741C18.791,103.015,18.075,103.661,17.368,103.981z"/>
	<path fill="#FFFFFF" d="M55.498,21.06c0.777,1.391,2.769,5.393,3.275,5.944c0.369,0.395,1.944,0.042,1.879-0.467
		c-0.416-3.486-2.737-7.827-3.562-9.373c-1.29,0.146-2.568,0.307-3.837,0.493C54.194,19.027,55.24,20.599,55.498,21.06z"/>
	<path fill="#FFFFFF" d="M9.646,92.589c0.371,0.697,0.757,1.383,1.151,2.058c0.06-0.375,0.411-0.438,0.616-1.08
		C11.736,92.538,10.746,92.177,9.646,92.589z"/>
	<path fill="#FFFFFF" d="M8.122,84.813c0.02-0.344-1.165-0.491-1.981-0.013c0.16,0.424,0.321,0.851,0.488,1.267
		C6.83,85.719,8.064,85.792,8.122,84.813z"/>
	<path fill="#FFFFFF" d="M62.92,26.11c0.156,0.654,1.942,0.184,1.692-0.51c-2.102-5.906-0.823-5.745-2.214-8.803
		c-0.016-0.029-0.021-0.062-0.023-0.091c-0.963,0.062-1.917,0.133-2.872,0.219C60.907,19.262,62.086,22.641,62.92,26.11z"/>
	<path fill="#FFFFFF" d="M13.073,52.39c1.083-0.391,2.095-1.032,3.23-1.201c1.183-0.172,2.979-0.096,4.94-0.472
		c1.088-0.207,2.45-0.173,2.774-0.625c0.277-0.388,0.379-0.857-0.43-0.961c-0.783-0.1-4.025-0.188-4.748-0.118
		c-1.784,0.174-3.053-0.037-4.869,0.011c-2.46,0.057-3.788,1.598-4.304,2.979c-0.198,0.527-0.215,1.234,0.348,1.297
		C10.975,53.411,12.583,52.565,13.073,52.39z"/>
	<path fill="#FFFFFF" d="M36.36,50.59c0.27-1.162-1.574-2.074-2.451-2.421c-0.979-0.384-2.513-1.251-3.792-1.593
		c-1.923-0.514-4.008-1.828-7.539-2.252c-0.928-0.114-4.788-0.107-5.298-0.132c-2.128-0.123-4.339,0.207-6.638,0.406
		c-1.656,0.144-4.07,0.847-4.679,1.793c-0.162,0.25-0.014,0.744,0.923,0.538c2.694-0.588,4.677-0.783,6.965-1.046
		c1.189-0.138,2.835-0.062,4.079-0.094c2.061-0.055,3.418,0.24,5.465,0.551c3.149,0.479,6.011,1.198,8.697,3.197
		c0.412,0.307,1.703,1.348,2.317,1.44C35.19,51.094,35.996,51.127,36.36,50.59z"/>
	<path fill="#FFFFFF" d="M12.182,62.539c-0.871,0.688-1.528,1.415-2.493,2.01C8.605,65.22,7.66,65.709,6.9,67.143
		c-0.089,0.168-0.106,0.577,0,0.738c0.268,0.265,0.373-0.102,0.53-0.267c0.321-0.314,1.047-1.072,1.814-1.474
		c0.83-0.437,2.867-1.61,3.52-1.963c1.372-0.738,2.228-1.361,3.551-2.021c1.906-0.953,3.64-1.53,5.461-1.821
		c0.919-0.148,5.948-0.958,7.471-1.069c1.12-0.08,2.248-0.062,3.369-0.113c0.614-0.032,2.082,0.144,2.605-0.258
		c0.292-0.225,0.555-1.354,0.56-2.318c0.007-1.554-0.858-1.412-2.079-1.91c-2.742-1.114-5.554-1.872-8.581-1.714
		c-2.863,0.151-5.732,0.344-8.564,0.8c-1.234,0.196-2.539,0.368-3.717,0.792c-0.79,0.284-5.229,1.883-4.981,3.014
		c0.237,1.009,6.714-0.253,6.343,3.31C14.126,61.553,12.647,62.173,12.182,62.539z"/>
	<path fill="#FFFFFF" d="M45.196,24.559c0.813,0.761,5.092,5.459,6.141,6.26c0.148,0.111,0.828-0.26,0.833-0.409
		c0.042-1.072-6.091-10.141-6.063-11.516c-1.546,0.312-3.067,0.649-4.56,1.002C42.669,20.623,44.7,24.097,45.196,24.559z"/>
	<path fill="#FFFFFF" d="M29.99,23.125c0.874,0.191,1.771,0.8,2.557,1.298c2.647,1.707,6.846,5.476,6.658,4.607
		c-0.151-0.706-2.576-3.728-5.325-6.822c-0.077-0.086-0.105-0.172-0.094-0.25C32.492,22.339,31.225,22.731,29.99,23.125z"/>
	<path fill="#FFFFFF" d="M40.262,26.198c1.567,1.946,3.413,3.63,5.128,5.439c0.569,0.598,1.35,1.782,2.237,2.06
		c0.637,0.199,1.86-0.923,1.706-1.355c-0.637-1.808-4.396-4.251-6.207-6.454c-0.607-0.738-2.208-2.305-2.765-3.07
		c-0.328-0.449-1.137-1.762-1.241-2.321c-1.047,0.269-2.082,0.544-3.099,0.825C37.545,22.323,39.399,25.124,40.262,26.198z"/>
</g>
</svg>
