<?xml version="1.0" encoding="utf-8"?>
<!-- Generator: Adobe Illustrator 21.0.2, SVG Export Plug-In . SVG Version: 6.00 Build 0)  -->
<svg version="1.1" id="Layer_1" xmlns="http://www.w3.org/2000/svg" xmlns:xlink="http://www.w3.org/1999/xlink" x="0px" y="0px"
	 viewBox="0 0 94.2 24.5" style="enable-background:new 0 0 94.2 24.5;" xml:space="preserve">
<style type="text/css">
	.st0{fill:#141414;}
</style>
<g>
	<rect x="24.2" y="12.4" class="st0" width="48" height="1.7"/>
</g>
<g>
	<path class="st0" d="M26.8,8.6l-1.2-5.4l0,0c0.1,0.4,0.1,0.8,0.1,1.1v4.2l-1.1,0V2.3l1.8,0l1.1,5l0,0l1.1-5l1.8,0v6.3l-1.1,0V4.3
		c0-0.4,0-0.7,0.1-1.1l0,0l-1.2,5.4C28.2,8.6,26.8,8.6,26.8,8.6z"/>
	<path class="st0" d="M34.6,8.6l-2.8,0V2.3l2.8,0v1l-1.7,0v1.5l1.5,0v1l-1.5,0v1.7l1.7,0V8.6z"/>
	<path class="st0" d="M40.1,8.6l-1.4,0l-2-4.6h-0.1c0.1,0.3,0.1,0.7,0.1,1.1v3.4h-1.1V2.3l1.4,0l1.9,4.5l0,0
		c-0.1-0.3-0.1-0.7-0.1-1.1V2.3l1.1,0v6.3H40.1z"/>
	<path class="st0" d="M45.3,2.3v4.1c0,0.8-0.2,1.3-0.5,1.7c-0.3,0.4-0.8,0.6-1.5,0.6c-0.6,0-1.1-0.2-1.4-0.6c-0.3-0.4-0.5-1-0.5-1.7
		V2.3l1.2,0v4.1c0,0.8,0.3,1.2,0.8,1.2c0.2,0,0.4-0.1,0.6-0.3c0.1-0.2,0.2-0.5,0.2-0.9V2.3L45.3,2.3z"/>
</g>
</svg>
