<?xml version="1.0" encoding="utf-8"?>
<!-- Generator: Adobe Illustrator 21.0.2, SVG Export Plug-In . SVG Version: 6.00 Build 0)  -->
<svg version="1.1" id="Layer_1" xmlns="http://www.w3.org/2000/svg" xmlns:xlink="http://www.w3.org/1999/xlink" x="0px" y="0px"
	 viewBox="0 0 24.5 94.2" style="enable-background:new 0 0 24.5 94.2;" xml:space="preserve">
<style type="text/css">
	.st0{fill:#FCFCFC;}
</style>
<g>
	<rect x="17.5" y="19.1" class="st0" width="1.7" height="48"/>
</g>
<g>
	<path class="st0" d="M13.7,64.5l-5.4,1.2v0c0.4-0.1,0.8-0.1,1.1-0.1h4.2v1.1H7.4v-1.8l5-1.1v0l-5-1.1v-1.8h6.3V62H9.4
		c-0.4,0-0.7,0-1.1-0.1v0l5.4,1.2V64.5z"/>
	<path class="st0" d="M13.7,56.7v2.8H7.4v-2.8h1v1.7h1.5v-1.5h1v1.5h1.7v-1.7H13.7z"/>
	<path class="st0" d="M13.7,51.2v1.4l-4.6,2v0.1c0.3-0.1,0.7-0.1,1.1-0.1h3.4v1.1H7.4v-1.4l4.5-1.9v0c-0.3,0.1-0.7,0.1-1.1,0.1H7.4
		v-1.1H13.7z"/>
	<path class="st0" d="M7.4,46h4.1c0.8,0,1.3,0.2,1.7,0.5c0.4,0.3,0.6,0.8,0.6,1.5c0,0.6-0.2,1.1-0.6,1.4c-0.4,0.3-1,0.5-1.7,0.5H7.4
		v-1.2h4.1c0.8,0,1.2-0.3,1.2-0.8c0-0.2-0.1-0.4-0.3-0.6c-0.2-0.1-0.5-0.2-0.9-0.2H7.4V46z"/>
</g>
</svg>
