<?xml version="1.0" encoding="utf-8"?>
<!-- Generator: Adobe Illustrator 21.0.2, SVG Export Plug-In . SVG Version: 6.00 Build 0)  -->
<svg version="1.1" id="Layer_1" xmlns="http://www.w3.org/2000/svg" xmlns:xlink="http://www.w3.org/1999/xlink" x="0px" y="0px"
	 viewBox="0 0 50 140" style="enable-background:new 0 0 50 140;" xml:space="preserve">
<style type="text/css">
	.st0{fill:#141414;}
	.st1{fill:#FCFCFC;}
</style>
<rect x="-0.1" y="53.7" transform="matrix(-1 -1.764311e-06 1.764311e-06 -1 26.8606 176.7924)" class="st0" width="27" height="69.4"/>
<g>
	<path class="st1" d="M22.5,110.3l-14.2,3.2l0,0c1.1-0.3,2.1-0.3,2.9-0.3h11.1v2.9H5.9v-4.7l13.2-2.9l0,0l-13.2-2.9v-4.7h16.6v2.9
		H11.1c-1.1,0-1.8,0-2.9-0.3l0,0l14.2,3.2C22.5,106.6,22.5,110.3,22.5,110.3z"/>
	<path class="st1" d="M22.5,89.8v7.4H5.9v-7.4h2.6v4.5h4v-4h2.6v4h4.5v-4.5H22.5z"/>
	<path class="st1" d="M22.5,75.2v3.7l-12.1,5.3v0.3c0.8-0.3,1.8-0.3,2.9-0.3h9v2.9H5.9v-3.7l11.9-5l0,0c-0.8,0.3-1.8,0.3-2.9,0.3h-9
		v-2.9h16.6V75.2z"/>
	<path class="st1" d="M5.9,61.5h10.8c2.1,0,3.4,0.5,4.5,1.3c1.1,0.8,1.6,2.1,1.6,4c0,1.6-0.5,2.9-1.6,3.7c-1.1,0.8-2.6,1.3-4.5,1.3
		H5.9v-3.2h10.8c2.1,0,3.2-0.8,3.2-2.1c0-0.5-0.3-1.1-0.8-1.6c-0.5-0.3-1.3-0.5-2.4-0.5H5.9V61.5z"/>
</g>
</svg>
