<?xml version="1.0" encoding="utf-8"?>
<!-- Generator: Adobe Illustrator 19.0.0, SVG Export Plug-In . SVG Version: 6.00 Build 0)  -->
<svg version="1.1" id="Ebene_1" xmlns="http://www.w3.org/2000/svg" xmlns:xlink="http://www.w3.org/1999/xlink" x="0px" y="0px"
	 viewBox="-113 52 72.5 48" style="enable-background:new -113 52 72.5 48;" xml:space="preserve">
<style type="text/css">
	.st0{opacity:0.12;fill-rule:evenodd;clip-rule:evenodd;fill:#420000;}
	.st1{fill:#FBFBFB;}
	.st2{fill:#141414;}
</style>
<g>
	<path id="The_Sharpness_1_" class="st0" d="M-57.3,60.8l5,3.4l0.7-0.4L-57.3,60.8z"/>
	<path class="st1" d="M-44.7,59.7c0,0-0.2-1.5-0.8-2.1c-0.8-0.8-1.7-0.8-2.1-0.9c-3-0.2-7.4-0.2-7.4-0.2h0c0,0-4.5,0-7.4,0.2
		c-0.4,0-1.3,0.1-2.1,0.9c-0.6,0.6-0.8,2.1-0.8,2.1s-0.2,1.7-0.2,3.4v1.6c0,1.7,0.2,3.4,0.2,3.4s0.2,1.5,0.8,2.1
		c0.8,0.8,1.9,0.8,2.3,0.9c1.7,0.2,7.2,0.2,7.2,0.2s4.5,0,7.4-0.2c0.4,0,1.3-0.1,2.1-0.9c0.6-0.6,0.8-2.1,0.8-2.1s0.2-1.7,0.2-3.4
		v-1.6C-44.5,61.5-44.7,59.7-44.7,59.7z M-57.3,66.7l0-6l5.7,3L-57.3,66.7z"/>
</g>
<g>
	<path id="The_Sharpness_2_" class="st0" d="M-57.3,86.5l5,3.4l0.7-0.4L-57.3,86.5z"/>
	<path class="st2" d="M-44.7,85.5c0,0-0.2-1.5-0.8-2.1c-0.8-0.8-1.7-0.8-2.1-0.9c-3-0.2-7.4-0.2-7.4-0.2h0c0,0-4.5,0-7.4,0.2
		c-0.4,0-1.3,0.1-2.1,0.9c-0.6,0.6-0.8,2.1-0.8,2.1s-0.2,1.7-0.2,3.4v1.6c0,1.7,0.2,3.4,0.2,3.4s0.2,1.5,0.8,2.1
		c0.8,0.8,1.9,0.8,2.3,0.9c1.7,0.2,7.2,0.2,7.2,0.2s4.5,0,7.4-0.2c0.4,0,1.3-0.1,2.1-0.9c0.6-0.6,0.8-2.1,0.8-2.1s0.2-1.7,0.2-3.4
		v-1.6C-44.5,87.2-44.7,85.5-44.7,85.5z M-57.3,92.5l0-6l5.7,3L-57.3,92.5z"/>
</g>
<g>
	<path class="st1" d="M-104.8,56.9c0-0.1,0-0.4,0-0.8c0-0.4,0.2-0.8,0.5-1.3c0.3-0.5,0.7-0.8,1.3-1.2s1.5-0.5,2.7-0.5l3.3,0v3.6
		h-2.4c-0.2,0-0.5,0.1-0.6,0.3s-0.3,0.3-0.3,0.5v2.2l3.4,0c0,0.4-0.1,0.9-0.1,1.3l-0.1,1.1c0,0.4-0.1,0.7-0.2,1h-3v9.9h-4.4V63h-2.2
		v-3.4h2.2L-104.8,56.9L-104.8,56.9z"/>
</g>
<g>
	<path class="st2" d="M-104.8,82.9c0-0.1,0-0.4,0-0.8c0-0.4,0.2-0.8,0.5-1.3c0.3-0.5,0.7-0.8,1.3-1.2c0.6-0.4,1.5-0.5,2.7-0.5h3.3
		v3.6h-2.4c-0.2,0-0.5,0.1-0.6,0.3s-0.3,0.3-0.3,0.5v2.2h3.4c0,0.4-0.1,0.9-0.1,1.3l-0.1,1.1c0,0.4-0.1,0.7-0.2,1h-3v9.9h-4.4V89
		l-2.2,0v-3.4h2.2L-104.8,82.9L-104.8,82.9z"/>
</g>
<g>
	<path class="st2" d="M-80,82.2c2.4,0,2.7,0,3.7,0c0.9,0,1.4,0.2,1.7,0.3c0.4,0.2,0.7,0.4,1.1,0.7s0.5,0.6,0.7,1.1
		c0.1,0.3,0.3,0.8,0.3,1.7c0,1,0,1.3,0,3.7c0,2.4,0,2.7,0,3.7c0,0.9-0.2,1.4-0.3,1.7c-0.2,0.4-0.4,0.7-0.7,1.1
		c-0.3,0.3-0.6,0.5-1.1,0.7c-0.3,0.1-0.8,0.3-1.7,0.3c-1,0-1.3,0-3.7,0s-2.7,0-3.7,0c-0.9,0-1.4-0.2-1.7-0.3
		c-0.4-0.2-0.7-0.4-1.1-0.7c-0.3-0.3-0.5-0.6-0.7-1.1c-0.1-0.3-0.3-0.8-0.3-1.7c0-1,0-1.3,0-3.7c0-2.4,0-2.7,0-3.7
		c0-0.9,0.2-1.4,0.3-1.7c0.2-0.4,0.4-0.7,0.7-1.1s0.6-0.5,1.1-0.7c0.3-0.1,0.8-0.3,1.7-0.3C-82.8,82.2-82.5,82.2-80,82.2 M-80,80.6
		c-2.5,0-2.8,0-3.8,0s-1.6,0.2-2.2,0.4c-0.6,0.2-1.1,0.6-1.6,1.1s-0.8,1-1.1,1.6c-0.2,0.6-0.4,1.2-0.4,2.2c0,1,0,1.3,0,3.8
		s0,2.8,0,3.8c0,1,0.2,1.6,0.4,2.2c0.2,0.6,0.6,1.1,1.1,1.6c0.5,0.5,1,0.8,1.6,1.1c0.6,0.2,1.2,0.4,2.2,0.4c1,0,1.3,0,3.8,0
		c2.5,0,2.8,0,3.8,0c1,0,1.6-0.2,2.2-0.4c0.6-0.2,1.1-0.6,1.6-1.1s0.8-1,1.1-1.6c0.2-0.6,0.4-1.2,0.4-2.2c0-1,0-1.3,0-3.8
		c0-2.5,0-2.8,0-3.8s-0.2-1.6-0.4-2.2c-0.2-0.6-0.6-1.1-1.1-1.6c-0.5-0.5-1-0.8-1.6-1.1c-0.6-0.2-1.2-0.4-2.2-0.4
		C-77.2,80.6-77.5,80.6-80,80.6L-80,80.6z"/>
	<path class="st2" d="M-80,85c-2.6,0-4.7,2.1-4.7,4.7c0,2.6,2.1,4.7,4.7,4.7c2.6,0,4.7-2.1,4.7-4.7C-75.3,87.2-77.4,85-80,85z
		 M-80,92.8c-1.7,0-3.1-1.4-3.1-3.1s1.4-3.1,3.1-3.1S-77,88-77,89.8C-77,91.5-78.3,92.8-80,92.8z"/>
	<circle class="st2" cx="-75.1" cy="84.9" r="1.1"/>
</g>
<g>
	<path class="st1" d="M-80,56.1c2.4,0,2.7,0,3.7,0c0.9,0,1.4,0.2,1.7,0.3c0.4,0.2,0.7,0.4,1.1,0.7c0.3,0.3,0.5,0.6,0.7,1.1
		c0.1,0.3,0.3,0.8,0.3,1.7c0,1,0,1.3,0,3.7c0,2.4,0,2.7,0,3.7c0,0.9-0.2,1.4-0.3,1.7c-0.2,0.4-0.4,0.7-0.7,1.1
		c-0.3,0.3-0.6,0.5-1.1,0.7c-0.3,0.1-0.8,0.3-1.7,0.3c-1,0-1.3,0-3.7,0s-2.7,0-3.7,0c-0.9,0-1.4-0.2-1.7-0.3
		c-0.4-0.2-0.7-0.4-1.1-0.7c-0.3-0.3-0.5-0.6-0.7-1.1c-0.1-0.3-0.3-0.8-0.3-1.7c0-1,0-1.3,0-3.7c0-2.4,0-2.7,0-3.7
		c0-0.9,0.2-1.4,0.3-1.7c0.2-0.4,0.4-0.7,0.7-1.1c0.3-0.3,0.6-0.5,1.1-0.7c0.3-0.1,0.8-0.3,1.7-0.3C-82.8,56.1-82.5,56.1-80,56.1
		 M-80,54.5c-2.5,0-2.8,0-3.8,0s-1.6,0.2-2.2,0.4c-0.6,0.2-1.1,0.6-1.6,1.1s-0.8,1-1.1,1.6c-0.2,0.6-0.4,1.2-0.4,2.2
		c0,1,0,1.3,0,3.8c0,2.5,0,2.8,0,3.8c0,1,0.2,1.6,0.4,2.2c0.2,0.6,0.6,1.1,1.1,1.6c0.5,0.5,1,0.8,1.6,1.1c0.6,0.2,1.2,0.4,2.2,0.4
		c1,0,1.3,0,3.8,0c2.5,0,2.8,0,3.8,0c1,0,1.6-0.2,2.2-0.4c0.6-0.2,1.1-0.6,1.6-1.1c0.5-0.5,0.8-1,1.1-1.6c0.2-0.6,0.4-1.2,0.4-2.2
		c0-1,0-1.3,0-3.8c0-2.5,0-2.8,0-3.8s-0.2-1.6-0.4-2.2c-0.2-0.6-0.6-1.1-1.1-1.6s-1-0.8-1.6-1.1c-0.6-0.2-1.2-0.4-2.2-0.4
		C-77.2,54.5-77.5,54.5-80,54.5L-80,54.5z"/>
	<path class="st1" d="M-80,59c-2.6,0-4.7,2.1-4.7,4.7c0,2.6,2.1,4.7,4.7,4.7c2.6,0,4.7-2.1,4.7-4.7C-75.3,61.1-77.4,59-80,59z
		 M-80,66.7c-1.7,0-3.1-1.4-3.1-3.1c0-1.7,1.4-3.1,3.1-3.1c1.7,0,3.1,1.4,3.1,3.1S-78.3,66.7-80,66.7z"/>
	<circle class="st1" cx="-75.1" cy="58.8" r="1.1"/>
</g>
</svg>
