<?xml version="1.0" encoding="utf-8"?>
<!-- Generator: Adobe Illustrator 16.0.0, SVG Export Plug-In . SVG Version: 6.00 Build 0)  -->
<!DOCTYPE svg PUBLIC "-//W3C//DTD SVG 1.1//EN" "http://www.w3.org/Graphics/SVG/1.1/DTD/svg11.dtd">
<svg version="1.1" id="Ebene_1" xmlns="http://www.w3.org/2000/svg" xmlns:xlink="http://www.w3.org/1999/xlink" x="0px" y="0px"
	 width="72.5px" height="48px" viewBox="0 0 72.5 48" enable-background="new 0 0 72.5 48" xml:space="preserve">
<path fill="#FBFBFB" d="M64.657,21.97H51.349c-2.117,0-3.83-1.84-3.83-4.104v-3.951c0-2.267,1.713-3.948,3.83-3.948h13.311
	c2.115,0,3.83,1.712,3.83,3.979v3.92C68.487,20.13,66.774,21.97,64.657,21.97z M54.146,11.913h-3.67v1.119h1.235v6.585h1.194v-6.585
	h1.238L54.146,11.913L54.146,11.913z M57.313,14.214h-1.062v4.316c-0.101,0.125-0.209,0.226-0.33,0.305
	c-0.118,0.081-0.219,0.119-0.295,0.119c-0.101,0-0.172-0.026-0.22-0.09c-0.043-0.059-0.064-0.158-0.064-0.29v-4.36h-1.061v4.75
	c0,0.342,0.062,0.593,0.187,0.763c0.125,0.17,0.31,0.255,0.556,0.255c0.199,0,0.403-0.059,0.615-0.184
	c0.213-0.118,0.415-0.293,0.612-0.523v0.622h1.062V14.214z M61.758,15.413c0-0.465-0.088-0.821-0.267-1.062
	c-0.178-0.241-0.434-0.207-0.77-0.207c-0.164,0-0.625,0.045-0.787,0.136c-0.16,0.092-0.312,0.224-0.455,0.396v-2.638h-1.072v7.86
	h1.072v-0.435c0.14,0.176,0.291,0.303,0.453,0.386c0.162,0.081,0.646,0.122,0.854,0.122c0.313,0,0.557-0.263,0.721-0.477
	c0.166-0.217,0.25-0.525,0.25-0.927V15.413z M65.614,17.91h-1.092v0.26c0,0.336-0.037,0.55-0.104,0.648
	c-0.069,0.099-0.192,0.146-0.369,0.146c-0.168,0-0.289-0.056-0.358-0.173c-0.068-0.114-0.104-0.324-0.104-0.622v-1.07h2.028v-1.451
	c0-0.538-0.129-0.951-0.391-1.24c-0.262-0.285-0.633-0.429-1.119-0.429c-0.477,0-0.86,0.152-1.162,0.464
	c-0.301,0.311-0.451,0.715-0.451,1.205v2.555c0,0.548,0.14,0.979,0.41,1.289c0.271,0.31,0.648,0.467,1.123,0.467
	c0.527,0,0.927-0.146,1.189-0.438c0.27-0.295,0.4-0.734,0.4-1.317V17.91L65.614,17.91z M63.586,15.64
	c0-0.239,0.035-0.412,0.108-0.511c0.074-0.104,0.195-0.158,0.363-0.158c0.162,0,0.281,0.054,0.354,0.158
	c0.071,0.099,0.11,0.271,0.11,0.511v0.573h-0.938L63.586,15.64L63.586,15.64z M59.987,19.081c-0.09,0-0.174-0.021-0.256-0.062
	s-0.166-0.11-0.252-0.203v-3.54c0.072-0.077,0.146-0.139,0.219-0.174c0.074-0.038,0.15-0.056,0.226-0.056
	c0.146,0,0.552,0.05,0.629,0.148c0.076,0.099,0.111,0.243,0.111,0.438v2.935c0,0.184-0.031,0.312-0.093,0.392
	C60.512,19.042,60.116,19.081,59.987,19.081z M62.717,8.296c-0.219,0.255-0.446,0.451-0.688,0.584
	c-0.237,0.132-0.469,0.201-0.69,0.201c-0.276,0-0.483-0.096-0.625-0.283c-0.14-0.185-0.209-0.463-0.209-0.837V2.728h1.19v4.801
	c0,0.147,0.029,0.255,0.078,0.321c0.049,0.067,0.131,0.101,0.242,0.101c0.088,0,0.199-0.044,0.334-0.131
	c0.133-0.089,0.258-0.201,0.367-0.337V2.728h1.195V8.99h-1.195L62.717,8.296L62.717,8.296z M57.821,9.147
	c-0.522,0-0.94-0.158-1.254-0.473c-0.313-0.316-0.471-0.737-0.471-1.27V4.159c0-0.486,0.16-0.872,0.482-1.158
	c0.32-0.288,0.753-0.431,1.297-0.431c0.493,0,0.898,0.151,1.216,0.453c0.313,0.303,0.472,0.695,0.472,1.172V7.43
	c0,0.536-0.153,0.954-0.463,1.26C58.791,8.995,58.364,9.147,57.821,9.147z M58.349,4.112c0-0.137-0.05-0.247-0.146-0.332
	c-0.098-0.084-0.225-0.126-0.385-0.126c-0.145,0-0.263,0.042-0.354,0.126c-0.091,0.085-0.137,0.195-0.137,0.332v3.412
	c0,0.171,0.043,0.304,0.128,0.398c0.085,0.096,0.206,0.142,0.362,0.142c0.162,0,0.291-0.048,0.387-0.144
	c0.096-0.096,0.145-0.229,0.145-0.396V4.112L58.349,4.112z M54.437,8.99h-1.346V5.127L51.489,0h1.354l0.873,3.395h0.085L54.635,0H56
	l-1.563,4.969V8.99z"/>
<path fill="#FBFBFB" d="M15.994,7.875h-3.745l0.006-2.474c0-0.779,0.872-1.275,1.242-1.275c0.369,0,2.497,0,2.497,0V1.001
	l-2.896,0.001c-3.474,0-4.595,2.738-4.595,4.373v2.5H6.006v3.749h2.497c0,4.531,0,9.373,0,9.373l3.752-0.002
	c0,0-0.006-4.895-0.006-9.371h3.121L15.994,7.875z"/>
<path fill="#FBFBFB" d="M36.952,9.593h4.817v7.766c0,2.01-1.554,3.639-3.47,3.639H27.698c-1.916,0-3.469-1.629-3.469-3.639V9.593
	h4.795c-0.522,0.77-0.524,1.225-0.524,2.242c0,2.598,2.01,4.708,4.488,4.708s4.489-2.109,4.489-4.708
	C37.477,10.817,37.475,10.362,36.952,9.593z M41.771,6.141v2.39h-5.585c-0.813-0.866-1.945-1.405-3.197-1.405
	c-1.252,0-2.384,0.539-3.197,1.405H24.23v-2.39c0-1.227-0.01-2.055,0.877-2.714v3.065h1.076v-3.99
	c0.162-0.068,0.812,0.01,0.983-0.032v4.043l0.942-0.004V2.504c0.099-0.003,1.026-0.002,1.026-0.002v4.043h0.877V2.502H38.3
	C40.217,2.502,41.771,4.131,41.771,6.141z M39.816,5.027c0-0.322-0.25-0.584-0.557-0.584h-1.753c-0.308,0-0.557,0.262-0.557,0.584
	v1.882c0,0.322,0.249,0.583,0.557,0.583h1.753c0.307,0,0.557-0.261,0.557-0.583V5.608V5.027z M29.53,11.835
	c0-1.086,0.458-2.062,1.182-2.727c0.253-0.233,0.539-0.429,0.85-0.577c0.436-0.207,0.918-0.324,1.427-0.324
	c0.509,0,0.991,0.117,1.427,0.324c0.311,0.148,0.597,0.344,0.851,0.577c0.723,0.665,1.181,1.641,1.181,2.727
	c0,1.999-1.552,3.625-3.458,3.625C31.084,15.46,29.53,13.833,29.53,11.835z M30.444,11.835c0,1.479,1.144,2.68,2.555,2.68
	c1.412,0,2.557-1.201,2.557-2.68c0-1.482-1.145-2.682-2.557-2.682C31.588,9.153,30.444,10.353,30.444,11.835z"/>
<path fill="#141414" d="M64.657,48H51.349c-2.117,0-3.83-1.84-3.83-4.105v-3.951c0-2.267,1.713-3.945,3.83-3.945h13.311
	c2.115,0,3.83,1.712,3.83,3.979v3.92C68.487,46.16,66.774,48,64.657,48z M54.146,37.941h-3.67v1.119h1.235v6.586h1.194v-6.586h1.238
	L54.146,37.941L54.146,37.941z M57.313,40.244h-1.062v4.316c-0.101,0.125-0.209,0.226-0.33,0.305
	c-0.118,0.08-0.219,0.119-0.295,0.119c-0.101,0-0.172-0.026-0.22-0.09c-0.043-0.061-0.064-0.158-0.064-0.291v-4.359h-1.061v4.75
	c0,0.342,0.062,0.593,0.187,0.763c0.125,0.17,0.31,0.255,0.556,0.255c0.199,0,0.403-0.059,0.615-0.184
	c0.213-0.118,0.415-0.293,0.612-0.523v0.622h1.062V40.244z M61.758,41.441c0-0.465-0.088-0.82-0.267-1.062
	c-0.178-0.24-0.434-0.207-0.77-0.207c-0.164,0-0.625,0.045-0.787,0.137c-0.16,0.092-0.312,0.225-0.455,0.396v-2.64h-1.072v7.86
	h1.072V45.49c0.14,0.176,0.291,0.303,0.453,0.386C60.096,45.959,60.578,46,60.787,46c0.313,0,0.557-0.264,0.721-0.477
	c0.166-0.217,0.25-0.525,0.25-0.929V41.441z M65.614,43.939h-1.092v0.26c0,0.336-0.037,0.55-0.104,0.648
	c-0.069,0.098-0.192,0.146-0.369,0.146c-0.168,0-0.289-0.056-0.358-0.173c-0.068-0.114-0.104-0.324-0.104-0.622v-1.07h2.028v-1.451
	c0-0.538-0.129-0.95-0.391-1.239c-0.262-0.285-0.633-0.43-1.119-0.43c-0.477,0-0.86,0.152-1.162,0.465
	c-0.301,0.312-0.451,0.715-0.451,1.204v2.556c0,0.547,0.14,0.979,0.41,1.289c0.271,0.311,0.648,0.468,1.123,0.468
	c0.527,0,0.927-0.146,1.189-0.438c0.27-0.295,0.4-0.732,0.4-1.316V43.939L65.614,43.939z M63.586,41.67
	c0-0.238,0.035-0.412,0.108-0.511c0.074-0.104,0.195-0.158,0.363-0.158c0.162,0,0.281,0.054,0.354,0.158
	c0.071,0.099,0.11,0.271,0.11,0.511v0.573h-0.938L63.586,41.67L63.586,41.67z M59.987,45.109c-0.09,0-0.174-0.021-0.256-0.062
	s-0.166-0.109-0.252-0.203v-3.539c0.072-0.076,0.146-0.14,0.219-0.175c0.074-0.038,0.15-0.056,0.226-0.056
	c0.146,0,0.552,0.05,0.629,0.146c0.076,0.1,0.111,0.243,0.111,0.438v2.935c0,0.186-0.031,0.312-0.093,0.393
	C60.512,45.07,60.116,45.109,59.987,45.109z M62.717,34.326c-0.219,0.255-0.446,0.451-0.688,0.584
	c-0.237,0.132-0.469,0.201-0.69,0.201c-0.276,0-0.483-0.096-0.625-0.283c-0.14-0.186-0.209-0.463-0.209-0.837v-5.233h1.19v4.801
	c0,0.146,0.029,0.254,0.078,0.32s0.131,0.102,0.242,0.102c0.088,0,0.199-0.045,0.334-0.133c0.133-0.089,0.258-0.199,0.367-0.337
	v-4.753h1.195v6.262h-1.195L62.717,34.326L62.717,34.326z M57.821,35.178c-0.522,0-0.94-0.158-1.254-0.473
	c-0.313-0.316-0.471-0.737-0.471-1.271v-3.246c0-0.484,0.16-0.871,0.482-1.155c0.32-0.288,0.753-0.433,1.297-0.433
	c0.493,0,0.898,0.15,1.216,0.452c0.313,0.304,0.472,0.695,0.472,1.173v3.234c0,0.536-0.153,0.954-0.463,1.262
	C58.791,35.023,58.364,35.178,57.821,35.178z M58.349,30.143c0-0.138-0.05-0.248-0.146-0.332c-0.098-0.086-0.225-0.127-0.385-0.127
	c-0.145,0-0.263,0.041-0.354,0.127c-0.091,0.084-0.137,0.194-0.137,0.332v3.41c0,0.172,0.043,0.305,0.128,0.398
	c0.085,0.096,0.206,0.142,0.362,0.142c0.162,0,0.291-0.048,0.387-0.144s0.145-0.229,0.145-0.396V30.143L58.349,30.143z
	 M54.437,35.02h-1.346v-3.861l-1.602-5.127h1.354l0.873,3.395h0.085l0.833-3.395h1.365L54.435,31L54.437,35.02L54.437,35.02z"/>
<path fill="#141414" d="M15.994,33.905h-3.745l0.006-2.474c0-0.779,0.872-1.275,1.242-1.275c0.369,0,2.497,0,2.497,0v-3.125
	l-2.896,0.001c-3.474,0-4.595,2.737-4.595,4.373v2.5H6.006v3.749h2.497c0,4.531,0,9.373,0,9.373l3.752-0.002
	c0,0-0.006-4.896-0.006-9.371h3.121L15.994,33.905z"/>
<path fill="#141414" d="M36.952,35.623h4.817v7.766c0,2.01-1.554,3.639-3.47,3.639H27.698c-1.916,0-3.469-1.629-3.469-3.639v-7.766
	h4.795c-0.522,0.77-0.524,1.225-0.524,2.242c0,2.598,2.01,4.707,4.488,4.707s4.489-2.109,4.489-4.707
	C37.477,36.848,37.475,36.393,36.952,35.623z M41.771,32.171v2.39h-5.585c-0.813-0.865-1.945-1.403-3.197-1.403
	c-1.252,0-2.384,0.538-3.197,1.403H24.23v-2.39c0-1.228-0.01-2.055,0.877-2.714v3.064h1.076v-3.989
	c0.162-0.068,0.812,0.01,0.983-0.032v4.043l0.942-0.004v-4.005c0.099-0.003,1.026-0.002,1.026-0.002v4.043h0.877v-4.043H38.3
	C40.217,28.532,41.771,30.161,41.771,32.171z M39.816,31.057c0-0.322-0.25-0.584-0.557-0.584h-1.753
	c-0.308,0-0.557,0.262-0.557,0.584v1.883c0,0.321,0.249,0.582,0.557,0.582h1.753c0.307,0,0.557-0.261,0.557-0.582v-1.301V31.057z
	 M29.53,37.865c0-1.086,0.458-2.062,1.182-2.729c0.253-0.231,0.539-0.429,0.85-0.575c0.436-0.207,0.918-0.324,1.427-0.324
	c0.509,0,0.991,0.117,1.427,0.324c0.311,0.146,0.597,0.344,0.851,0.575c0.723,0.665,1.181,1.644,1.181,2.729
	c0,1.998-1.552,3.625-3.458,3.625C31.084,41.49,29.53,39.863,29.53,37.865z M30.444,37.865c0,1.479,1.144,2.68,2.555,2.68
	c1.412,0,2.557-1.201,2.557-2.68c0-1.482-1.145-2.684-2.557-2.684C31.588,35.184,30.444,36.383,30.444,37.865z"/>
</svg>
